<?xml version="1.0" encoding="UTF-8"?>
<svg width="13px" height="17px" viewBox="0 0 13 17" version="1.1" xmlns="http://www.w3.org/2000/svg" xmlns:xlink="http://www.w3.org/1999/xlink">
    <!-- Generator: Sketch 63 (92445) - https://sketch.com -->
    <title>置顶</title>
    <desc>Created with Sketch.</desc>
    <g id="定稿" stroke="none" stroke-width="1" fill="none" fill-rule="evenodd">
        <g id="官网首页hover" transform="translate(-1846.000000, -6294.000000)" fill="#C63127" fill-rule="nonzero">
            <g id="置顶" transform="translate(1824.000000, 6275.000000)">
                <g transform="translate(22.000000, 19.000000)" id="路径">
                    <path d="M12.8819592,11.2793101 L7.20765733,4.08878879 C6.94678148,3.71973311 6.38023904,3.71126235 6.1016083,4.07165475 L0.130517279,11.2621761 C-0.193307728,11.6911046 0.121438073,12.2919511 0.67910307,12.2919511 L3.48477943,12.2919511 L3.48477943,15.6298162 C3.48477943,16.1361367 3.91634434,16.5565945 4.45605269,16.5565945 L8.51163304,16.5565945 C9.04206042,16.5565945 9.48270455,16.1448 9.48270455,15.6298162 L9.48270455,12.2919511 L12.3154168,12.2919511 C12.8640025,12.2919511 13.1878276,11.7084312 12.8819592,11.2793101 L12.8819592,11.2793101 Z"></path>
                    <path d="M0.76197255,2.21284449 L12.2378263,2.21284449 C12.6592446,2.21284449 13,1.85648064 13,1.41596949 C13,0.975458335 12.6592446,0.619094488 12.2378263,0.619094488 L0.76197255,0.619094488 C0.340554258,0.619094488 0,0.975458335 0,1.41596949 C0,1.85648064 0.340755412,2.21284449 0.76197255,2.21284449 Z"></path>
                </g>
            </g>
        </g>
    </g>
</svg>