<?xml version="1.0" encoding="UTF-8"?>
<svg width="28px" height="28px" viewBox="0 0 28 28" version="1.1" xmlns="http://www.w3.org/2000/svg" xmlns:xlink="http://www.w3.org/1999/xlink">
    <!-- Generator: Sketch 63.1 (92452) - https://sketch.com -->
    <title>关闭</title>
    <desc>Created with Sketch.</desc>
    <g id="手机适配" stroke="none" stroke-width="1" fill="none" fill-rule="evenodd">
        <g id="侧边栏" transform="translate(-672.000000, -227.000000)" fill="#FFFFFF">
            <g id="关闭" transform="translate(671.000000, 226.000000)">
                <path d="M-2.31,13.125 L32.31,13.125 C33.10529,13.125 33.75,13.76971 33.75,14.565 L33.75,15.435 C33.75,16.23029 33.10529,16.875 32.31,16.875 L-2.31,16.875 C-3.10529004,16.875 -3.75,16.23029 -3.75,15.435 L-3.75,14.565 C-3.75,13.76971 -3.10529004,13.125 -2.31,13.125 Z" id="Rectangle" transform="translate(15.000000, 15.000000) rotate(-45.000000) translate(-15.000000, -15.000000) "></path>
                <path d="M-2.31,13.125 L32.31,13.125 C33.10529,13.125 33.75,13.76971 33.75,14.565 L33.75,15.435 C33.75,16.23029 33.10529,16.875 32.31,16.875 L-2.31,16.875 C-3.10529004,16.875 -3.75,16.23029 -3.75,15.435 L-3.75,14.565 C-3.75,13.76971 -3.10529004,13.125 -2.31,13.125 Z" id="Rectangle-Copy-2" transform="translate(15.000000, 15.000000) rotate(45.000000) translate(-15.000000, -15.000000) "></path>
            </g>
        </g>
    </g>
</svg>