<svg width="130" height="86" viewBox="0 0 130 86" fill="none" xmlns="http://www.w3.org/2000/svg">
<g clip-path="url(#clip0_1402_2274)">
<path d="M100.922 -0.000225584V8.06021e-05C100.586 0.000784724 100.256 0.0911032 99.965 0.261953L99.9635 0.260431C99.9635 0.260431 94.7319 3.29995 92.511 4.54243C90.6907 5.56083 90.5585 6.78651 90.5691 7.20065C90.5585 7.61478 90.6907 8.84048 92.511 9.85886C94.7319 11.1013 99.9635 14.1409 99.9635 14.1409L99.965 14.1391C100.256 14.3099 100.586 14.4002 100.922 14.401C101.429 14.4009 101.916 14.1966 102.275 13.8329C102.634 13.4693 102.836 12.9761 102.836 12.4619C102.835 12.1215 102.747 11.7872 102.578 11.4927C102.41 11.1981 102.168 10.9536 101.877 10.7837L101.878 10.7808L95.4326 7.20036L101.879 3.61995L101.877 3.61698C102.168 3.44711 102.41 3.2026 102.579 2.90803C102.747 2.61346 102.836 2.2792 102.836 1.93886C102.836 1.42462 102.634 0.931429 102.276 0.567777C101.917 0.204125 101.43 -0.000202011 100.922 -0.000244141L100.922 -0.000225584ZM57.0894 1.03776C56.2251 1.03774 55.3692 1.21016 54.5706 1.54518C53.7721 1.8802 53.0465 2.37126 52.4353 2.99033C51.8241 3.6094 51.3393 4.34435 51.0085 5.15321C50.6777 5.96207 50.5075 6.82901 50.5075 7.70453C50.5074 8.58007 50.6777 9.44704 51.0084 10.2559C51.3392 11.0648 51.824 11.7998 52.4352 12.4189C53.0464 13.038 53.772 13.5291 54.5706 13.8641C55.3691 14.1992 56.225 14.3716 57.0894 14.3716C57.9537 14.3716 58.8096 14.1991 59.6081 13.8641C60.4067 13.529 61.1322 13.0379 61.7434 12.4188C62.3546 11.7997 62.8393 11.0647 63.1701 10.2559C63.5008 9.44699 63.6711 8.58004 63.671 7.70453C63.671 5.9364 62.9776 4.2407 61.7433 2.99044C60.509 1.74019 58.8349 1.03779 57.0894 1.03776ZM124.725 23.2619C123.903 23.2631 123.092 23.459 122.358 23.834C121.624 24.209 120.986 24.7526 120.496 25.4216L120.487 25.4148L110.032 40.305L110.051 40.3112C109.379 41.223 109.013 42.3281 109.004 43.4656C109.013 44.6029 109.379 45.7079 110.051 46.6196L110.032 46.6261L120.487 61.5161L120.496 61.5095C120.986 62.1784 121.624 62.722 122.358 63.0969C123.092 63.4719 123.903 63.6678 124.725 63.6689C125.418 63.669 126.105 63.5307 126.745 63.2621C127.385 62.9935 127.967 62.5998 128.457 62.1035C128.947 61.6072 129.335 61.018 129.601 60.3695C129.866 59.721 130.002 59.0259 130.002 58.324C130 57.2225 129.662 56.1486 129.034 55.2492L129.04 55.2448L120.763 43.4656L129.04 31.6864L129.034 31.6817C129.662 30.7823 130 29.7086 130.002 28.6072C130.002 27.9052 129.866 27.2101 129.601 26.5616C129.336 25.9131 128.947 25.3238 128.457 24.8275C127.967 24.3311 127.385 23.9374 126.745 23.6688C126.105 23.4002 125.418 23.2619 124.725 23.2619V23.2619ZM50.2205 71.7704C48.757 71.7703 47.5705 73.0307 47.5704 74.5856C47.571 75.6588 48.146 76.6382 49.0527 77.1111C64.404 86.8642 77.8966 85.9789 77.8966 85.9789C77.8966 85.9789 91.3888 86.8642 106.74 77.1111C107.647 76.6382 108.222 75.6588 108.222 74.5856C108.222 73.0307 107.036 71.7703 105.572 71.7704C105.013 71.7719 104.469 71.9603 104.017 72.3098C104.017 72.3098 103.786 72.4654 103.786 72.4654C103.786 72.4654 92.2737 80.6651 77.8966 80.4142C63.5194 80.6651 52.0068 72.4654 52.0068 72.4654C52.0068 72.4654 51.7755 72.3098 51.7755 72.3098C51.3237 71.9603 50.7794 71.7715 50.2205 71.7704Z" fill="white"/>
<path d="M86.2243 23.0307C85.7351 23.0344 85.2464 23.0595 84.7593 23.1058C84.4944 23.132 84.2301 23.1644 83.9667 23.2032C83.662 23.2416 83.3583 23.2883 83.056 23.3433C82.812 23.3931 82.569 23.4484 82.3273 23.509C82.0107 23.5813 81.6961 23.6628 81.3841 23.7533C81.162 23.8231 80.9413 23.8974 80.7222 23.9763C80.4 24.0847 80.081 24.2028 79.7658 24.3305C79.5627 24.4178 79.3613 24.5091 79.1617 24.6043C78.841 24.7492 78.5247 24.9042 78.2134 25.0689C78.0312 25.1704 77.8508 25.2752 77.6723 25.3834C77.3555 25.5665 77.0445 25.7599 76.7399 25.9632C76.5812 26.0741 76.4244 26.1878 76.2695 26.3041C75.9596 26.5268 75.6571 26.76 75.3626 27.0033C75.2272 27.12 75.0936 27.2389 74.9619 27.3599C74.6639 27.6224 74.375 27.8953 74.0957 28.1781C73.9813 28.2989 73.8687 28.4213 73.7578 28.5454C73.4801 28.8438 73.213 29.1521 72.957 29.4697C72.8591 29.5965 72.7629 29.7247 72.6685 29.8542C72.4166 30.1855 72.1765 30.526 71.9489 30.875C71.87 31.0017 71.7927 31.1295 71.7171 31.2583C71.4937 31.6212 71.2837 31.9924 71.0875 32.3711C71.0241 32.4998 70.9624 32.6294 70.9022 32.7597C70.7126 33.1495 70.5376 33.5463 70.3776 33.9494C70.3301 34.0765 70.284 34.204 70.2395 34.3322C70.0869 34.7448 69.9499 35.1633 69.8288 35.5866C69.7946 35.716 69.7619 35.8459 69.7307 35.9761C69.619 36.4038 69.5235 36.8356 69.4446 37.2706C69.4238 37.4003 69.4044 37.5301 69.3865 37.6602C69.3167 38.1009 69.2638 38.5442 69.228 38.9891C69.2047 39.2725 69.1884 39.5565 69.179 39.8407H69.175V39.9532C69.1696 40.0732 69.1654 40.1933 69.1624 40.3134C69.1639 40.3604 69.1657 40.4074 69.1675 40.4544H69.1692H69.1749V58.5239H69.1772C69.193 59.8937 69.7412 61.2019 70.7029 62.165C71.6646 63.1282 72.9622 63.6685 74.3146 63.669C75.6669 63.6683 76.9643 63.1278 77.9258 62.1647C78.8873 61.2016 79.4354 59.8935 79.4512 58.5239H79.454V58.463V39.8748C79.5486 38.3828 80.1204 36.9626 81.083 35.8292C82.0456 34.6957 83.3465 33.9108 84.7888 33.5931C84.8057 33.5887 84.8226 33.5844 84.8395 33.5801C85.0089 33.5462 85.1795 33.5189 85.351 33.4982C85.4066 33.489 85.4622 33.4805 85.518 33.4727C85.6561 33.4603 85.7945 33.4523 85.9331 33.4486C86.0299 33.4415 86.1268 33.4366 86.2239 33.4338C86.224 33.4338 86.2242 33.4338 86.2244 33.4338C86.3353 33.4366 86.446 33.4423 86.5565 33.4507C86.6803 33.4543 86.8039 33.4615 86.9273 33.472C86.993 33.4811 87.0586 33.4912 87.124 33.5023C87.2863 33.5223 87.4478 33.5483 87.6082 33.5801C87.6298 33.5855 87.6515 33.591 87.673 33.5967C87.874 33.6404 88.073 33.6933 88.2692 33.7552C89.5738 34.1743 90.723 34.9827 91.5662 36.0747C92.4093 37.1667 92.9071 38.4913 92.9942 39.8748V58.463V58.5239H92.9971C93.0129 59.8935 93.561 61.2016 94.5225 62.1647C95.484 63.1278 96.7814 63.6683 98.1337 63.669C99.486 63.6685 100.784 63.1282 101.745 62.165C102.707 61.2019 103.255 59.8936 103.271 58.5239H103.273V40.4544H103.279H103.281C103.283 40.4074 103.285 40.3604 103.286 40.3133C103.283 40.1932 103.279 40.0732 103.274 39.9532V39.8407H103.27C103.26 39.5565 103.244 39.2727 103.221 38.9894C103.185 38.5401 103.131 38.0925 103.061 37.6474C103.044 37.5238 103.025 37.4004 103.005 37.2772C102.926 36.8383 102.83 36.4027 102.717 35.9714C102.686 35.8429 102.654 35.7148 102.62 35.5872C102.499 35.1637 102.362 34.745 102.209 34.3321C102.165 34.2041 102.119 34.0766 102.072 33.9497C101.911 33.5441 101.734 33.1449 101.543 32.7529C101.485 32.6259 101.425 32.4996 101.363 32.374C101.166 31.9938 100.955 31.6211 100.731 31.2568C100.656 31.1285 100.579 31.0012 100.5 30.8749C100.272 30.526 100.032 30.1855 99.7803 29.8542C99.686 29.7247 99.5898 29.5965 99.4919 29.4697C99.2359 29.1521 98.9688 28.8438 98.6911 28.5454C98.5802 28.4213 98.4676 28.2989 98.3531 28.1781C98.0739 27.8953 97.785 27.6224 97.487 27.3599C97.3553 27.2389 97.2217 27.12 97.0863 27.0033C96.791 26.7594 96.4878 26.5256 96.1771 26.3023C96.0234 26.187 95.8678 26.0744 95.7104 25.9644C95.404 25.7597 95.0912 25.5652 94.7725 25.381C94.5959 25.274 94.4175 25.1703 94.2372 25.0698C93.9247 24.9044 93.6072 24.7488 93.2852 24.6034C93.0863 24.5085 92.8857 24.4175 92.6834 24.3305C92.368 24.2028 92.049 24.0847 91.7267 23.9763C91.5076 23.8974 91.2869 23.8231 91.0648 23.7533C90.7528 23.6628 90.4382 23.5813 90.1216 23.509C89.8799 23.4484 89.6369 23.3931 89.3929 23.3433C89.0906 23.2883 88.7869 23.2415 88.4822 23.2031C88.2188 23.1644 87.9545 23.132 87.6896 23.1058C87.2025 23.0595 86.7138 23.0344 86.2246 23.0306C86.2245 23.0306 86.2244 23.0306 86.2243 23.0306L86.2243 23.0307ZM5.1395 23.3757C3.77642 23.3757 2.46917 23.9242 1.50533 24.9005C0.541485 25.8768 3.26442e-06 27.2009 0 28.5816C0.00143762 28.9678 0.0452868 29.3526 0.130734 29.7289L0.119617 29.7312L7.40883 59.8293L7.42261 59.8259C7.7178 60.9282 8.36269 61.9016 9.2579 62.5961C10.1531 63.2906 11.249 63.6676 12.3766 63.669C13.4671 63.6677 14.529 63.3151 15.4086 62.6621C16.2882 62.0091 16.9399 61.0896 17.2696 60.0367L17.276 60.0687L22.7089 44.3626L28.1422 60.0687L28.1486 60.0367C28.4783 61.0896 29.13 62.0091 30.0096 62.6621C30.8892 63.3151 31.9511 63.6677 33.0416 63.669C34.1692 63.6676 35.2651 63.2906 36.1603 62.5961C37.0555 61.9016 37.7004 60.9282 37.9956 59.8259L38.0094 59.8293L45.2986 29.7312L45.2875 29.7289C45.3729 29.3526 45.4168 28.9678 45.4182 28.5816C45.4182 27.2009 44.8767 25.8768 43.9129 24.9005C42.949 23.9242 41.6418 23.3757 40.2787 23.3757C39.0577 23.3772 37.8772 23.819 36.9485 24.6219C36.0199 25.4248 35.4037 26.5363 35.2104 27.7574L35.1987 27.7551L32.1796 40.1861L27.5618 26.8243L27.5445 26.8306C27.5414 26.8229 27.5383 26.8152 27.5351 26.8074C27.487 26.6751 27.4337 26.5447 27.3751 26.4167C27.362 26.3861 27.3486 26.3556 27.3349 26.3253C27.2748 26.2001 27.2096 26.0775 27.1397 25.9577C27.123 25.9274 27.106 25.8973 27.0887 25.8674C27.0176 25.7509 26.9419 25.6373 26.8619 25.5269C26.841 25.4966 26.8198 25.4665 26.7983 25.4366C26.7185 25.3313 26.6348 25.2291 26.5473 25.1302C26.52 25.0979 26.4922 25.0659 26.4641 25.0343C26.3763 24.94 26.2851 24.8491 26.1906 24.7618C26.1593 24.7316 26.1277 24.7018 26.0957 24.6724C26.0011 24.5893 25.9037 24.5098 25.8034 24.434C25.7658 24.4041 25.7278 24.3748 25.6894 24.3461C25.5919 24.2767 25.4921 24.2107 25.3901 24.1483C25.3447 24.1192 25.2989 24.0908 25.2527 24.0631C25.1528 24.0065 25.0512 23.9532 24.9478 23.9034C24.8962 23.877 24.8441 23.8514 24.7916 23.8268C24.6922 23.7831 24.5915 23.7426 24.4897 23.7054C24.4291 23.6816 24.3682 23.6591 24.3068 23.6377C24.2076 23.6058 24.1075 23.577 24.0066 23.5513C23.9415 23.533 23.876 23.5161 23.8102 23.5005C23.712 23.4795 23.6132 23.4615 23.5139 23.4464C23.4425 23.4339 23.3709 23.4229 23.299 23.4134C23.206 23.4035 23.1128 23.3962 23.0194 23.3915C22.9165 23.3831 22.8134 23.3778 22.7102 23.3757C22.7094 23.3757 22.7087 23.3757 22.7079 23.3757C22.6024 23.3779 22.4971 23.3833 22.3919 23.392C22.3023 23.3967 22.2129 23.4037 22.1237 23.4131C22.0464 23.4231 21.9693 23.4349 21.8924 23.4485C21.7985 23.4629 21.705 23.4799 21.6119 23.4995C21.5429 23.5158 21.4742 23.5335 21.4059 23.5527C21.3069 23.578 21.2086 23.6063 21.1113 23.6376C21.0499 23.659 20.9889 23.6816 20.9284 23.7053C20.8265 23.7426 20.7258 23.7831 20.6265 23.8267C20.574 23.8514 20.5219 23.8769 20.4702 23.9033C20.3671 23.9531 20.2656 24.0062 20.166 24.0628C20.1182 24.0914 20.0709 24.1208 20.0241 24.151C19.9242 24.2121 19.8263 24.2767 19.7307 24.3446C19.6904 24.3746 19.6505 24.4053 19.6111 24.4366C19.5121 24.5116 19.4158 24.5903 19.3224 24.6723C19.2904 24.7017 19.2587 24.7315 19.2274 24.7617C19.1332 24.849 19.0421 24.9398 18.9545 25.034C18.9256 25.0665 18.8971 25.0993 18.8689 25.1325C18.7826 25.2302 18.6998 25.3311 18.621 25.4351C18.5983 25.4664 18.5761 25.498 18.5541 25.5298C18.475 25.6392 18.4001 25.7517 18.3296 25.8671C18.3118 25.8978 18.2943 25.9287 18.2771 25.9597C18.208 26.0785 18.1436 26.2001 18.084 26.324C18.0696 26.3556 18.0555 26.3872 18.0418 26.419C17.9838 26.5462 17.9309 26.6756 17.8832 26.8071C17.88 26.8149 17.8767 26.8227 17.8735 26.8305L17.8562 26.8243L13.2384 40.186L10.2194 27.7551L10.2076 27.7574C10.0143 26.5362 9.39815 25.4247 8.46947 24.6218C7.5408 23.8189 6.36027 23.3772 5.13933 23.3756L5.1395 23.3757ZM57.2966 23.376C55.9491 23.3769 54.6558 23.914 53.6953 24.8714C52.7349 25.8289 52.1841 27.1301 52.1615 28.495H52.157V28.5819V58.463V58.8214H52.1696C52.2592 60.1369 52.8383 61.3689 53.7899 62.2687C54.7415 63.1684 55.9947 63.6689 57.2965 63.669C58.5973 63.6675 59.8493 63.1665 60.7997 62.2668C61.7502 61.3672 62.3286 60.1359 62.4181 58.8214H62.436V58.463V28.5819V28.495H62.4331C62.4106 27.1299 61.8596 25.8284 60.8988 24.8709C59.9381 23.9134 58.6444 23.3766 57.2966 23.376H57.2966Z" fill="white"/>
</g>
<defs>
<clipPath id="clip0_1402_2274">
<rect width="130" height="86" fill="white"/>
</clipPath>
</defs>
</svg>
