<?xml version="1.0" encoding="UTF-8"?>
<svg width="127px" height="127px" viewBox="0 0 127 127" version="1.1" xmlns="http://www.w3.org/2000/svg" xmlns:xlink="http://www.w3.org/1999/xlink">
    <!-- Generator: Sketch 63.1 (92452) - https://sketch.com -->
    <title>编组 67</title>
    <desc>Created with Sketch.</desc>
    <defs>
        <path d="M87.7339556,0.85721239 C91.0476641,0.85721239 93.7339556,3.54350389 93.7339556,6.85721239 L93.7339556,87.8572124 C93.7339556,91.1709209 91.0476641,93.8572124 87.7339556,93.8572124 L6.73395556,93.8572124 C3.42024706,93.8572124 0.733955557,91.1709209 0.733955557,87.8572124 L0.733955557,6.85721239 C0.733955557,3.54350389 3.42024706,0.85721239 6.73395556,0.85721239 L87.7339556,0.85721239 Z M67.4839556,24.1072124 L26.9839556,24.1072124 C25.3271013,24.1072124 23.9839556,25.4503581 23.9839556,27.1072124 L23.9839556,27.1072124 L23.9839556,67.6072124 C23.9839556,69.2640666 25.3271013,70.6072124 26.9839556,70.6072124 L26.9839556,70.6072124 L67.4839556,70.6072124 C69.1408098,70.6072124 70.4839556,69.2640666 70.4839556,67.6072124 L70.4839556,67.6072124 L70.4839556,27.1072124 C70.4839556,25.4503581 69.1408098,24.1072124 67.4839556,24.1072124 L67.4839556,24.1072124 Z" id="path-1"></path>
    </defs>
    <g id="定稿" stroke="none" stroke-width="1" fill="none" fill-rule="evenodd">
        <g id="编组-67" transform="translate(63.623257, 63.091168) rotate(50.000000) translate(-63.623257, -63.091168) translate(16.623257, 16.091168)">
            <mask id="mask-2" fill="white">
                <use xlink:href="#path-1"></use>
            </mask>
            <use id="蒙版" fill="#FFFFFF" xlink:href="#path-1"></use>
            <g id="编组-66" transform="translate(55.409021, 71.940353) rotate(-51.000000) translate(-55.409021, -71.940353) translate(39.409021, 58.440353)" fill="#FFA6A0" stroke="#FFA6A0">
                <path d="M3.38424936,1.69665712 C2.56431035,0.802647747 2.56431035,-0.594241806 3.38424936,-1.48825118 C4.20418837,-2.38226056 5.48534298,-2.38226056 6.30528199,-1.48825118 L28.6473426,25.5665335 C29.4672816,26.4605429 29.4672816,27.8574324 28.6473426,28.7514418 C27.8274036,29.5895756 26.546249,29.5895756 25.72631,28.7514418 L3.38424936,1.69665712 Z" id="路径" stroke-width="3" fill-rule="nonzero" transform="translate(16.015796, 13.610642) rotate(90.000000) translate(-16.015796, -13.610642) "></path>
                <line x1="2.46395806" y1="25.0207241" x2="20.2044561" y2="25.0207241" id="路径-3" stroke-width="7" stroke-linecap="round" stroke-linejoin="round"></line>
            </g>
            <g id="编组-66" transform="translate(38.571535, 24.312707) scale(-1, -1) rotate(-48.000000) translate(-38.571535, -24.312707) translate(22.071535, 9.312707)" fill="#FFA6A0" stroke="#FFA6A0">
                <path d="M3.03597117,2.42101691 C2.21603216,1.52700753 2.21603216,0.130117981 3.03597117,-0.763891396 C3.85591018,-1.65790077 5.13706479,-1.65790077 5.9570038,-0.763891396 L30.1405451,27.4358176 C30.9604841,28.329827 30.9604841,29.7267165 30.1405451,30.6207259 C29.3206061,31.4588597 28.0394515,31.4588597 27.2195125,30.6207259 L3.03597117,2.42101691 Z" id="路径" stroke-width="3" fill-rule="nonzero" transform="translate(16.588258, 14.907464) rotate(90.000000) translate(-16.588258, -14.907464) "></path>
                <line x1="2.46395806" y1="27.2382864" x2="20.2044561" y2="27.2382864" id="路径-3" stroke-width="7" stroke-linecap="round" stroke-linejoin="round"></line>
            </g>
        </g>
    </g>
</svg>