<svg width="79" height="76" viewBox="0 0 79 76" fill="none" xmlns="http://www.w3.org/2000/svg">
<g clip-path="url(#clip0)">
<path d="M50.7984 63.7485H0.340481C0.13984 64.5085 4.87537e-07 65.2868 4.87537e-07 66.1197C-0.000398959 67.3654 0.24466 68.599 0.721174 69.7499C1.19769 70.9008 1.89632 71.9466 2.77714 72.8274C3.65797 73.7082 4.70372 74.4068 5.85465 74.8834C7.00558 75.3599 8.23913 75.6049 9.4848 75.6045H59.277C59.277 75.6045 60.0278 75.5924 61.1314 75.2884C56.4346 72.449 52.4339 66.4359 50.7984 63.7485Z" fill="white" fill-opacity="0.6"/>
<path d="M61.3654 16.9054C61.3638 17.4806 61.1346 18.0318 60.7279 18.4385C60.3212 18.8452 59.77 19.0744 59.1949 19.076H22.5963C22.0211 19.0744 21.47 18.8452 21.0633 18.4385C20.6565 18.0318 20.4273 17.4806 20.4257 16.9054V16.3066C20.4257 15.1118 21.4016 14.136 22.5963 14.136H59.1979C60.3896 14.136 61.3654 15.1118 61.3654 16.3066V16.9054ZM61.3654 28.7554C61.363 29.33 61.1335 29.8804 60.7268 30.2864C60.3202 30.6925 59.7695 30.9213 59.1949 30.9229H22.5963C22.0217 30.9213 21.4709 30.6925 21.0643 30.2864C20.6577 29.8804 20.4281 29.33 20.4257 28.7554V28.1534C20.4257 26.9618 21.4016 25.9829 22.5963 25.9829H59.1979C60.3896 25.9829 61.3654 26.9618 61.3654 28.1534V28.7554ZM49.9563 40.6144C49.9547 41.1896 49.7255 41.7407 49.3188 42.1474C48.9121 42.5542 48.3609 42.7834 47.7857 42.785H22.5963C22.0211 42.7834 21.47 42.5542 21.0633 42.1474C20.6565 41.7407 20.4273 41.1896 20.4257 40.6144V40.0155C20.4257 38.8208 21.4016 37.845 22.5963 37.845H47.7857C48.9805 37.845 49.9563 38.8208 49.9563 40.0155V40.6144ZM20.3862 0.00912C17.5563 0.00912 14.8422 1.13332 12.8411 3.13441C10.84 5.1355 9.71582 7.84955 9.71582 10.6795C9.71582 11.0899 9.79182 11.476 9.83742 11.8682H9.71582V59.283H53.7867L54.4646 60.5082C57.1824 65.3874 62.6209 72.2973 66.1747 72.355C66.2811 72.355 66.4483 72.355 66.6459 72.3246C68.631 70.2362 70.4915 66.9256 71.364 61.6603V11.859H71.4856C71.44 11.4669 71.364 11.0808 71.364 10.6734C71.3675 8.4718 72.0538 6.32545 73.3285 4.53031C74.6031 2.73516 76.4032 1.37962 78.4806 0.65056V0L20.3862 0.00912Z" fill="white"/>
</g>
<defs>
<clipPath id="clip0">
<rect width="78.9688" height="76" fill="white"/>
</clipPath>
</defs>
</svg>
