<?xml version="1.0" encoding="UTF-8"?>
<svg width="110px" height="110px" viewBox="0 0 110 110" version="1.1" xmlns="http://www.w3.org/2000/svg" xmlns:xlink="http://www.w3.org/1999/xlink">
    <!-- Generator: Sketch 63.1 (92452) - https://sketch.com -->
    <title>tronlink</title>
    <desc>Created with Sketch.</desc>
    <defs>
        <path d="M14.9381366,0.25484472 C6.80975155,0.25484472 0.22,6.84459627 0.22,14.9736646 L0.22,14.9736646 L0.22,94.8534783 C0.22,102.982547 6.80975155,109.572298 14.9381366,109.572298 L14.9381366,109.572298 L94.8193168,109.572298 C102.947702,109.572298 109.53677,102.982547 109.53677,94.8534783 L109.53677,94.8534783 L109.53677,14.9736646 C109.53677,6.84459627 102.947702,0.25484472 94.8193168,0.25484472 L94.8193168,0.25484472 L14.9381366,0.25484472 Z" id="path-1"></path>
    </defs>
    <g id="定稿" stroke="none" stroke-width="1" fill="none" fill-rule="evenodd">
        <g id="tronlink">
            <g id="编组">
                <mask id="mask-2" fill="white">
                    <use xlink:href="#path-1"></use>
                </mask>
                <use id="Clip-4" fill="#FFFFFF" xlink:href="#path-1"></use>
                <path d="M96.4314658,94.9277453 L154.586621,84.3950745 L87.8801615,165.668677 L96.4314658,94.9277453 Z M88.0796646,90.9656957 L79.0596646,165.588739 L30.384323,43.113646 L88.0796646,90.9656957 Z M92.0219006,82.8455093 L36.6625217,36.9304161 L127.13923,53.5807267 L92.0219006,82.8455093 Z M136.748857,56.9852609 L155.948298,75.239795 L103.429106,84.7510373 L136.748857,56.9852609 Z M138.766435,46.8058199 L13.2366211,23.7058199 L79.3035776,189.938366 L171.351031,77.7868758 L138.766435,46.8058199 Z" id="Fill-3" fill="#E9655C" mask="url(#mask-2)"></path>
            </g>
        </g>
    </g>
</svg>