<?xml version="1.0" encoding="UTF-8"?>
<svg width="98px" height="101px" viewBox="0 0 98 101" version="1.1" xmlns="http://www.w3.org/2000/svg" xmlns:xlink="http://www.w3.org/1999/xlink">
    <!-- Generator: Sketch 63.1 (92452) - https://sketch.com -->
    <title>应用</title>
    <desc>Created with Sketch.</desc>
    <g id="定稿" stroke="none" stroke-width="1" fill="none" fill-rule="evenodd">
        <g id="应用" fill="#FFFFFF">
            <path d="M5.4953271,56.7850467 L38.4672897,56.7850467 C42.1308411,56.7850467 43.9626168,58.6168224 43.9626168,62.2803738 L43.9626168,95.2523364 C43.9626168,98.9158879 42.1308411,100.747664 38.4672897,100.747664 L5.4953271,100.747664 C1.8317757,100.747664 0,98.9158879 0,95.2523364 L0,62.2803738 C0,58.6168224 1.8317757,56.7850467 5.4953271,56.7850467 L5.4953271,56.7850467 Z" id="路径" fill-rule="nonzero"></path>
            <path d="M59.5327103,56.7850467 L92.5046729,56.7850467 C96.1682243,56.7850467 98,58.6168224 98,62.2803738 L98,95.2523364 C98,98.9158879 96.1682243,100.747664 92.5046729,100.747664 L59.5327103,100.747664 C55.8691589,100.747664 54.0373832,98.9158879 54.0373832,95.2523364 L54.0373832,62.2803738 C54.0373832,58.6168224 55.8691589,56.7850467 59.5327103,56.7850467 L59.5327103,56.7850467 Z" id="路径" fill-rule="nonzero"></path>
            <path d="M5.4953271,2.74766355 L38.4672897,2.74766355 C42.1308411,2.74766355 43.9626168,4.57943925 43.9626168,8.24299065 L43.9626168,41.2149533 C43.9626168,44.8785047 42.1308411,46.7102804 38.4672897,46.7102804 L5.4953271,46.7102804 C1.8317757,46.7102804 0,44.8785047 0,41.2149533 L0,8.24299065 C0,4.57943925 1.8317757,2.74766355 5.4953271,2.74766355 Z" id="路径" fill-rule="nonzero"></path>
            <path d="M95.2971762,9.31968041 L95.2979886,9.32046725 C96.9732104,10.2731329 98.0015323,12.0145178 97.9999976,13.8961099 L97.9999976,32.1483209 C98.0018226,34.0538497 96.9471611,35.8135862 95.2378718,36.7570121 L80.0721894,45.1072648 C78.4100825,46.0234351 76.3725272,46.0234351 74.7104203,45.1072648 L59.5463626,36.7570121 C57.8377629,35.8134025 56.7835201,34.0541476 56.7850492,32.1491078 L56.7850492,13.8968968 C56.7832223,12.0152272 57.8112077,10.2735892 59.4862458,9.32046725 L74.6454292,0.719990191 C76.3386612,-0.23999673 78.4350122,-0.23999673 80.1282442,0.719990191 L95.2971762,9.32046725 L95.2971762,9.31968041 Z" id="形状" fill-opacity="0.2"></path>
        </g>
    </g>
</svg>