<?xml version="1.0" encoding="UTF-8"?>
<svg width="87px" height="117px" viewBox="0 0 87 117" version="1.1" xmlns="http://www.w3.org/2000/svg" xmlns:xlink="http://www.w3.org/1999/xlink">
    <!-- Generator: Sketch 63.1 (92452) - https://sketch.com -->
    <title>编组 68</title>
    <desc>Created with Sketch.</desc>
    <g id="定稿" stroke="none" stroke-width="1" fill="none" fill-rule="evenodd">
        <g id="编组-68" fill="#FFFFFF">
            <path d="M84,0 C85.6568542,-3.04359188e-16 87,1.34314575 87,3 L87,114 C87,115.656854 85.6568542,117 84,117 L3,117 C1.34314575,117 2.02906125e-16,115.656854 0,114 L0,3 C-2.02906125e-16,1.34314575 1.34314575,3.04359188e-16 3,0 L84,0 Z M73.125,11.7 L13.875,11.7 C12.2181458,11.7 10.875,13.0431458 10.875,14.7 L10.875,14.7 L10.875,105.225 C10.875,106.881854 12.2181458,108.225 13.875,108.225 L13.875,108.225 L73.125,108.225 C74.7818542,108.225 76.125,106.881854 76.125,105.225 L76.125,105.225 L76.125,14.7 C76.125,13.0431458 74.7818542,11.7 73.125,11.7 L73.125,11.7 Z" id="形状结合"></path>
            <rect id="矩形" transform="translate(43.500000, 88.000000) scale(1, -1) translate(-43.500000, -88.000000) " x="30" y="86" width="27" height="4" rx="2"></rect>
            <rect id="矩形" transform="translate(31.000000, 31.000000) scale(1, -1) translate(-31.000000, -31.000000) " x="20" y="20" width="22" height="22" rx="1"></rect>
            <rect id="矩形备份-11" transform="translate(31.000000, 57.000000) scale(1, -1) translate(-31.000000, -57.000000) " x="20" y="46" width="22" height="22" rx="1"></rect>
            <path d="M65.6884192,50.4772505 L65.6888134,50.4776285 C66.5017325,50.9352969 67.0007366,51.7718724 67.0000012,52.6758046 L67.0000012,61.4443158 C67.0008775,62.3597474 66.4890918,63.2051392 65.6596411,63.6583687 L58.3003329,67.6698983 C57.4937779,68.1100339 56.5050326,68.1100339 55.6984776,67.6698983 L48.3399578,63.6583687 C47.5108417,63.2050509 46.9992592,62.3598905 47.0000012,61.4446938 L47.0000012,52.6761827 C46.9991147,51.7722132 47.4979555,50.9355161 48.3107855,50.4776285 L55.6669399,46.3458892 C56.4885988,45.8847036 57.5058753,45.8847036 58.3275341,46.3458892 L65.6884192,50.4776285 L65.6884192,50.4772505 Z" id="形状" fill-opacity="0.2"></path>
            <rect id="矩形备份-9" transform="translate(56.000000, 31.000000) scale(1, -1) translate(-56.000000, -31.000000) " x="45" y="20" width="22" height="22" rx="1"></rect>
        </g>
    </g>
</svg>