<?xml version="1.0" encoding="UTF-8"?>
<svg width="110px" height="109px" viewBox="0 0 110 109" version="1.1" xmlns="http://www.w3.org/2000/svg" xmlns:xlink="http://www.w3.org/1999/xlink">
    <!-- Generator: Sketch 63.1 (92452) - https://sketch.com -->
    <title>USDT</title>
    <desc>Created with Sketch.</desc>
    <g id="定稿" stroke="none" stroke-width="1" fill="none" fill-rule="evenodd">
        <g id="USDT">
            <g id="编组">
                <path d="M110,54.5 C110,84.5994336 85.3755752,109 55,109 C24.6244248,109 0,84.5994336 0,54.5 C0,24.4005664 24.6244248,0 55,0 C85.3755752,0 110,24.4005664 110,54.5" id="Fill-1" fill="#FFFFFF"></path>
                <g id="编组-40" transform="translate(22.000000, 23.980000)" fill="#E9655C">
                    <polygon id="Fill-3" points="8.8 0 8.8 12.5955556 27.2884615 12.5955556 27.2884615 30.52 41.3980769 30.52 41.3980769 12.5955556 59.4 12.5955556 59.4 0"></polygon>
                    <path d="M26.8975646,34.5704142 L26.8975646,61.04 L41.3283219,61.04 L41.3283219,34.5704142 C41.3283219,34.5704142 67.2041627,34.0802367 68.2,27.2177515 C68.2,27.2177515 68.6969997,21.3356213 41.3283219,20.1101775 L41.3283219,21.2130769 C41.3283219,21.2130769 66.2089381,22.3159763 64.7161011,27.2177515 C64.7161011,27.2177515 62.2280395,32.1195266 33.8641371,32.6097041 C33.8641371,32.6097041 3.01217306,32.1195266 3.50978539,26.727574 C3.50978539,26.727574 2.01694842,22.8061538 26.8975646,21.0905325 L26.3999522,19.62 C26.3999522,19.62 -0.96872552,20.8454438 0.0264991256,28.1981065 C0.0264991256,28.1981065 1.02172377,34.0802367 26.8975646,34.5704142" id="Fill-5"></path>
                </g>
            </g>
        </g>
    </g>
</svg>