<?xml version="1.0" encoding="UTF-8"?>
<svg width="287px" height="262px" viewBox="0 0 287 262" version="1.1" xmlns="http://www.w3.org/2000/svg" xmlns:xlink="http://www.w3.org/1999/xlink">
    <!-- Generator: Sketch 63 (92445) - https://sketch.com -->
    <title>形状</title>
    <desc>Created with Sketch.</desc>
    <g id="定稿" stroke="none" stroke-width="1" fill="none" fill-rule="evenodd">
        <g id="官网首页hover" transform="translate(-1173.000000, -2577.000000)">
            <g id="Ecology" transform="translate(390.000000, 2509.000000)">
                <g id="编组-15" transform="translate(70.000000, 68.000000)">
                    <g id="编组-12" transform="translate(713.000000, 0.000000)">
                        <g id="形状">
                            <path d="M279.130567,27.6775488 L279.132932,27.6798856 C284.010449,30.5091082 287.004475,35.6806659 287.000007,41.2686105 L287.000007,95.4739523 C287.005321,101.132984 283.934605,106.359042 278.957898,109.160825 L234.802029,133.959371 C229.962697,136.68021 224.030222,136.68021 219.19089,133.959371 L175.039751,109.160825 C170.065052,106.358497 166.995555,101.133868 167.000007,95.4762892 L167.000007,41.2709474 C166.994688,35.6827728 169.987734,30.5104632 174.864717,27.6798856 L219.001664,2.13822393 C223.931619,-0.71274131 230.035281,-0.71274131 234.965236,2.13822393 L279.130567,27.6798856 L279.130567,27.6775488 Z" fill-opacity="0.7" fill="#E6E9EB"></path>
                            <path d="M196.22848,71.4963309 L196.232619,71.5004253 C204.768274,76.4577616 210.007819,85.5193145 210,95.3104565 L210,190.288527 C210.009299,200.204227 204.635546,209.361275 195.92631,214.270531 L118.653538,257.722302 C110.184707,262.489729 99.8028758,262.489729 91.3340447,257.722302 L14.0695513,214.270531 C5.36382799,209.360319 -0.00779087311,200.205777 0,190.292622 L0,95.3145511 C-0.00930831615,85.5230061 5.22852248,76.4601358 13.7632417,71.5004253 L91.0028992,26.7465751 C99.6303207,21.7511416 110.311729,21.7511416 118.939151,26.7465751 L196.22848,71.5004253 L196.22848,71.4963309 Z" fill-opacity="0.8" fill="#E53F34"></path>
                        </g>
                    </g>
                </g>
            </g>
        </g>
    </g>
</svg>