<?xml version="1.0" encoding="UTF-8"?>
<svg width="210px" height="239px" viewBox="0 0 210 239" version="1.1" xmlns="http://www.w3.org/2000/svg" xmlns:xlink="http://www.w3.org/1999/xlink">
    <!-- Generator: Sketch 63.1 (92452) - https://sketch.com -->
    <title>形状</title>
    <desc>Created with Sketch.</desc>
    <g id="定稿" stroke="none" stroke-width="1" fill="none" fill-rule="evenodd" fill-opacity="0.8">
        <g id="Ecology" transform="translate(-783.000000, -23.000000)" fill="#E53F34">
            <g id="编组-15" transform="translate(783.000000, 0.000000)">
                <g id="编组-12">
                    <path d="M196.22848,71.4963309 L196.232619,71.5004253 C204.768274,76.4577616 210.007819,85.5193145 210,95.3104565 L210,190.288527 C210.009299,200.204227 204.635546,209.361275 195.92631,214.270531 L118.653538,257.722302 C110.184707,262.489729 99.8028758,262.489729 91.3340447,257.722302 L14.0695513,214.270531 C5.36382799,209.360319 -0.00779087311,200.205777 0,190.292622 L0,95.3145511 C-0.00930831615,85.5230061 5.22852248,76.4601358 13.7632417,71.5004253 L91.0028992,26.7465751 C99.6303207,21.7511416 110.311729,21.7511416 118.939151,26.7465751 L196.22848,71.5004253 L196.22848,71.4963309 Z" id="形状"></path>
                </g>
            </g>
        </g>
    </g>
</svg>