<svg width="122" height="80" viewBox="0 0 122 80" fill="none" xmlns="http://www.w3.org/2000/svg">
<path d="M41.1523 45.0135V34.9844H45.5543C47.6576 34.9844 48.8294 36.428 48.8294 38.1269C48.8294 39.8259 47.6425 41.2695 45.5543 41.2695H42.9101V45.0135H41.1523ZM45.3138 36.5331H42.9101V39.7208H45.3138C46.3053 39.7208 47.0267 39.0893 47.0267 38.1269C47.0267 37.1645 46.3056 36.5331 45.3138 36.5331V36.5331Z" fill="black"/>
<path d="M54.959 34.8193C57.9637 34.8193 60.0821 37.0146 60.0821 40.0069C60.0821 42.9992 57.9637 45.1955 54.959 45.1955C51.9543 45.1955 49.8359 43.0002 49.8359 40.0081C49.8359 37.0161 51.9543 34.8193 54.959 34.8193ZM54.959 36.3832C52.9308 36.3832 51.6387 37.9319 51.6387 40.0072C51.6387 42.0671 52.9308 43.6312 54.959 43.6312C56.9733 43.6312 58.2793 42.0673 58.2793 40.0072C58.2793 37.9319 56.9721 36.3832 54.959 36.3832Z" fill="black"/>
<path d="M61.7852 45.0135V34.9844H63.5429V43.4648H67.96V45.0135H61.7852Z" fill="black"/>
<path d="M73.7715 34.8193C76.7762 34.8193 78.8946 37.0146 78.8946 40.0069C78.8946 42.9992 76.7762 45.1955 73.7715 45.1955C70.7668 45.1955 68.6484 43.0002 68.6484 40.0081C68.6484 37.0161 70.768 34.8193 73.7715 34.8193ZM73.7715 36.3832C71.7433 36.3832 70.4512 37.9319 70.4512 40.0072C70.4512 42.0671 71.7433 43.6312 73.7715 43.6312C75.7846 43.6312 77.0917 42.0673 77.0917 40.0072C77.0917 37.9319 75.7846 36.3832 73.7715 36.3832Z" fill="black"/>
<path d="M87.5713 45.0135L82.3437 37.7072V45.0135H80.5859V34.9844H82.3887L87.5118 42.0965V34.9844H89.2695V45.0135H87.5713Z" fill="black"/>
<path d="M91.4102 45.0135V34.9844H93.1681V45.0135H91.4102Z" fill="black"/>
<path d="M95.3008 45.0135V34.9844H102.167V36.5331H97.059V39.1345H102.063V40.6832H97.059V43.4648H102.167V45.0135H95.3008Z" fill="black"/>
<path d="M110.663 45.0135L107.854 41.089L105.045 45.0135H102.941L106.697 39.8713L103.167 34.9844H105.269L107.853 38.6684L110.423 34.9844H112.541L109.025 39.8564L112.766 45.0137L110.663 45.0135Z" fill="black"/>
<path d="M30.7702 34V40L25.5786 37L20.3867 34L25.5786 31L30.7702 28V34Z" fill="#072B38"/>
<path d="M20.3835 40V46L15.1919 43L10 40L15.1919 37L20.3835 34V40Z" fill="#144556"/>
<path d="M10 34V28L15.1919 31L20.3835 34L15.1919 37L10 40V34Z" fill="#41D9BF"/>
<path d="M10 46V40L15.1919 43L20.3835 46L15.1919 49L10 52V46Z" fill="#072B38"/>
<path d="M25.5786 37L20.3867 34V40V46L25.5786 49L30.7702 52V46V40L25.5786 37Z" fill="#41D9BF"/>
</svg>
