<svg width="122" height="80" viewBox="0 0 122 80" fill="none" xmlns="http://www.w3.org/2000/svg">
<mask id="mask0" mask-type="alpha" maskUnits="userSpaceOnUse" x="0" y="0" width="122" height="80">
<rect width="122" height="80" fill="white"/>
</mask>
<g mask="url(#mask0)">
<path d="M25.879 45.0585H20.5508V50.159H25.879V45.0585Z" fill="#91D1DD"/>
<path d="M30.5962 38.0384H20.5508V43.1207H30.5962H32.4105V38.0384H30.5962Z" fill="#00B3C8"/>
<path d="M37.0321 31H20.5508V36.1005H37.0321V31Z" fill="#009BB5"/>
<path d="M19.3283 38.0384H14V43.1389H19.3283V38.0384Z" fill="#C71437"/>
<path d="M47.1539 37.9287V40.4881H52.5395V43.0475H47.1539V47.0512H43.6973V35.3693H53.2652V37.9104H47.1539V37.9287Z" fill="black"/>
<path d="M58.25 37.9835H54.5068V35.3693H65.4307V37.9835H61.7067V47.0329H58.25V37.9835Z" fill="black"/>
<path d="M74.5969 47.0329L72.076 43.4132L69.5933 47.0329H65.6592L70.0708 41.1463L65.8311 35.3876H69.7079L72.1524 38.7514L74.5587 35.3876H78.2828L74.0431 41.0183L78.5692 47.0512H74.5969V47.0329Z" fill="black"/>
<path d="M91.9568 35.3693H95.7191V42.3345C95.7191 42.9927 95.6045 43.6508 95.3753 44.2907C95.1461 44.8939 94.8024 45.4424 94.3249 45.8994C93.9048 46.3199 93.3891 46.649 92.8162 46.8684C91.9759 47.1426 91.0783 47.2705 90.1807 47.2523C89.5314 47.2523 88.8821 47.2157 88.2327 47.1243C87.6216 47.0694 87.0296 46.9049 86.4758 46.649C85.9792 46.393 85.54 46.0457 85.1771 45.6435C84.8143 45.2596 84.5469 44.8025 84.375 44.2907C84.1649 43.6508 84.0503 42.9927 84.0312 42.3162V35.3693H87.7935V42.4808C87.7935 43.1206 87.9845 43.6142 88.3473 43.9799C88.7102 44.3455 89.2258 44.51 89.8752 44.51C90.5245 44.51 91.0401 44.3272 91.403 43.9799C91.7658 43.6325 91.9568 43.1206 91.9568 42.4808V35.3693Z" fill="black"/>
<path d="M96.9609 43.1755L100.551 42.9561C100.59 43.4132 100.742 43.8519 101.029 44.2358C101.411 44.7111 101.965 44.9488 102.69 44.9488C103.13 44.9671 103.588 44.8391 103.932 44.5832C104.199 44.3821 104.371 44.0713 104.371 43.7422C104.371 43.4314 104.218 43.1207 103.951 42.9196C103.664 42.6819 103.034 42.4442 102.022 42.2431C100.36 41.8958 99.1954 41.4205 98.4888 40.8172C97.8012 40.2687 97.4002 39.4278 97.4193 38.5686C97.4193 37.9653 97.6103 37.3802 97.9731 36.8684C98.3742 36.3016 98.9471 35.8629 99.6155 35.6069C100.341 35.2962 101.353 35.1499 102.614 35.1499C104.161 35.1499 105.364 35.4241 106.166 35.9726C106.987 36.521 107.465 37.4168 107.617 38.6234L104.065 38.8245C103.97 38.2943 103.779 37.9104 103.473 37.6728C103.11 37.4168 102.671 37.2888 102.232 37.3071C101.888 37.2888 101.525 37.3802 101.239 37.5813C101.029 37.7276 100.914 37.9835 100.914 38.2212C100.914 38.4223 101.029 38.6051 101.182 38.7148C101.353 38.8611 101.774 39.0073 102.442 39.1353C104.084 39.4826 105.268 39.8117 105.975 40.159C106.605 40.4333 107.14 40.8903 107.522 41.457C107.847 41.9872 108.019 42.5722 107.999 43.1938C107.999 43.925 107.77 44.6563 107.35 45.2596C106.911 45.8994 106.281 46.393 105.536 46.6856C104.753 47.0146 103.779 47.1792 102.595 47.1792C100.513 47.1792 99.0808 46.7952 98.2978 46.0274C97.5148 45.3144 97.0373 44.2724 96.9609 43.1755Z" fill="black"/>
</g>
</svg>
