<svg width="122" height="80" viewBox="0 0 122 80" fill="none" xmlns="http://www.w3.org/2000/svg">
<mask id="mask0" mask-type="alpha" maskUnits="userSpaceOnUse" x="0" y="0" width="122" height="80">
<rect width="122" height="80" fill="white"/>
</mask>
<g mask="url(#mask0)">
<path d="M33.0382 34.7412C33.0279 34.7307 33.0175 34.7203 32.9968 34.7099L22.0287 26.0996C21.9046 26.0057 21.739 25.9848 21.6045 26.0475C21.4596 26.1101 21.3769 26.2562 21.3769 26.4127L21.1699 40.45V40.6483V40.6692C21.1699 44.7812 24.481 48.1209 28.5579 48.1209C32.6347 48.1209 35.9459 44.7812 35.9459 40.6692C35.9561 38.2583 34.8076 36.1084 33.0382 34.7412ZM22.1736 27.2477L29.934 33.3322C29.4891 33.2487 29.0338 33.207 28.5579 33.207C25.7331 33.207 23.2808 34.8142 22.0287 37.1625L22.1736 27.2477ZM28.5579 47.2964C24.9363 47.2964 21.9874 44.322 21.977 40.6692V40.4709C22.0805 36.9016 24.9881 34.0315 28.5475 34.0315C32.1691 34.0315 35.1284 37.0059 35.1284 40.6692C35.1387 44.322 32.1897 47.2964 28.5579 47.2964Z" fill="url(#paint0_linear)"/>
<path d="M28.6409 37.893C28.6305 37.893 28.6305 37.8825 28.6305 37.8825L17.7142 29.001C17.59 28.8966 17.4244 28.8757 17.2796 28.9488C17.1347 29.0114 17.0519 29.1575 17.0519 29.3141L17.0312 43.8105V43.8627V44.0088C17.0312 48.1209 20.3424 51.4606 24.4192 51.4606C28.496 51.4606 31.8072 48.1209 31.8072 44.0088C31.8175 41.4832 30.5551 39.2393 28.6409 37.893ZM17.859 30.1699L25.8782 36.6927C25.4022 36.5988 24.9159 36.5466 24.4192 36.5466C21.5633 36.5466 19.0697 38.1956 17.8487 40.596L17.859 30.1699ZM24.4192 50.6361C20.7976 50.6361 17.8383 47.6616 17.8383 43.9984C17.8383 40.3456 20.7873 37.3607 24.4192 37.3607C28.0407 37.3607 31 40.3351 31 43.9984C31 47.6616 28.0511 50.6361 24.4192 50.6361Z" fill="url(#paint1_linear)"/>
<path d="M17.457 29.7211C17.3225 29.7211 17.1983 29.6585 17.1155 29.5332C16.9914 29.3454 17.0431 29.0845 17.2294 28.9592L21.5545 26.0683C21.7408 25.943 21.9994 25.9952 22.1236 26.1831C22.2478 26.3709 22.196 26.6318 22.0098 26.7571L17.6846 29.648C17.6122 29.7002 17.5294 29.7211 17.457 29.7211Z" fill="url(#paint2_linear)"/>
<path d="M44.1249 47.8672C43.8108 47.8537 43.483 47.8402 43.1689 47.8132C42.8548 47.7862 42.527 47.7592 42.2129 47.7188C41.8988 47.6783 41.612 47.6244 41.3525 47.5569V34.2302C41.612 34.1627 41.8988 34.1088 42.2129 34.0683C42.527 34.0278 42.8411 34.0009 43.1689 33.9739C43.483 33.9469 43.8108 33.9334 44.1249 33.9199C44.439 33.9064 44.7258 33.9064 45.0126 33.9064C45.791 33.9064 46.5285 33.9604 47.2114 34.0818C47.8942 34.2032 48.4951 34.4055 48.9868 34.6888C49.4921 34.972 49.8881 35.3497 50.1749 35.8083C50.4617 36.2669 50.612 36.847 50.612 37.5214C50.612 38.2767 50.4344 38.8972 50.0793 39.3828C49.7243 39.8684 49.2599 40.2326 48.6727 40.4619C49.4648 40.7047 50.1066 41.0824 50.571 41.5949C51.0353 42.1075 51.2811 42.8359 51.2811 43.7801C51.2811 45.1559 50.7758 46.1946 49.7789 46.8825C48.7819 47.5704 47.1977 47.9211 45.0263 47.9211C44.7395 47.8806 44.439 47.8806 44.1249 47.8672ZM45.2311 39.8144C45.6955 39.8144 46.1461 39.7875 46.5558 39.72C46.9792 39.6526 47.3343 39.5312 47.6484 39.3693C47.9488 39.194 48.1947 38.9782 48.3722 38.6949C48.5498 38.4116 48.6317 38.0609 48.6317 37.6428C48.6317 37.2516 48.5361 36.9144 48.3586 36.6446C48.181 36.3749 47.9215 36.159 47.6074 35.9837C47.2933 35.8218 46.9109 35.7004 46.4876 35.6195C46.0505 35.5386 45.5999 35.4981 45.1219 35.4981C44.6439 35.4981 44.2615 35.4981 43.9883 35.5116C43.7152 35.5251 43.4694 35.5386 43.2509 35.5655V39.8144H45.2311ZM43.2235 46.1946C43.3738 46.2081 43.5377 46.2215 43.7288 46.235C43.8927 46.2485 44.0976 46.262 44.3298 46.262C44.5619 46.262 44.8214 46.2755 45.1219 46.2755C45.6818 46.2755 46.2144 46.235 46.7197 46.1676C47.225 46.1001 47.6621 45.9653 48.0444 45.7764C48.4268 45.5876 48.7273 45.3313 48.9595 45.0076C49.1916 44.6704 49.3009 44.2657 49.3009 43.7531C49.3009 43.308 49.2189 42.9168 49.0414 42.6066C48.8775 42.2964 48.6317 42.0536 48.3039 41.8647C47.9898 41.6759 47.6074 41.541 47.1567 41.4735C46.7197 41.3926 46.2144 41.3522 45.6681 41.3522H43.2235V46.1946Z" fill="#353535"/>
<path d="M53.1828 35.2454C52.9556 35.0308 52.8486 34.7357 52.8486 34.3735C52.8486 34.0114 52.9556 33.7162 53.1828 33.5016C53.4101 33.287 53.6774 33.1797 53.9983 33.1797C54.3191 33.1797 54.5864 33.287 54.8137 33.5016C55.0409 33.7162 55.1479 34.0114 55.1479 34.3735C55.1479 34.7357 55.0409 35.0308 54.8137 35.2454C54.5864 35.4601 54.3191 35.5674 53.9983 35.5674C53.6774 35.5674 53.4101 35.4601 53.1828 35.2454Z" fill="#353535"/>
<path d="M53.1621 37.4361H54.9388V47.8173H53.1621V37.4361Z" fill="#353535"/>
<path d="M62.9063 47.1808C62.4597 47.3433 61.9454 47.4246 61.35 47.4246C60.741 47.4246 60.1727 47.3298 59.6313 47.1267C59.09 46.9236 58.6299 46.6257 58.2239 46.2059C57.818 45.7861 57.5067 45.2716 57.2767 44.6487C57.0466 44.0258 56.9248 43.2811 56.9248 42.4145C56.9248 41.6562 57.0331 40.9656 57.2496 40.3292C57.4661 39.6928 57.7909 39.1512 58.2104 38.6908C58.6299 38.2304 59.1442 37.8783 59.7531 37.6211C60.3621 37.3638 61.0523 37.2284 61.8101 37.2284C62.6491 37.2284 63.3799 37.2961 64.0159 37.418C64.6385 37.5398 65.1662 37.6617 65.5993 37.77V47.0184C65.5993 48.6162 65.1933 49.7671 64.3949 50.4848C63.5964 51.2024 62.3785 51.5545 60.7546 51.5545C60.1185 51.5545 59.5231 51.5003 58.9547 51.392C58.3863 51.2837 57.8992 51.1618 57.4932 51.0129L57.818 49.4015C58.1833 49.5505 58.6164 49.6723 59.1442 49.7942C59.6719 49.9025 60.2133 49.9567 60.7816 49.9567C61.8507 49.9567 62.6221 49.74 63.0957 49.2932C63.5694 48.8599 63.7994 48.1558 63.7994 47.2079V46.7746C63.6506 46.8829 63.3528 47.0184 62.9063 47.1808ZM63.0687 38.9345C62.7709 38.8939 62.3514 38.8668 61.8372 38.8668C60.8628 38.8668 60.1185 39.1918 59.5907 39.8418C59.063 40.4917 58.8059 41.3583 58.8059 42.428C58.8059 43.0238 58.887 43.5384 59.0224 43.9581C59.1712 44.3779 59.3742 44.73 59.6178 45.0143C59.8749 45.2987 60.1591 45.5018 60.4974 45.6372C60.8222 45.7726 61.1605 45.8403 61.5124 45.8403C61.986 45.8403 62.4326 45.7726 62.8251 45.6372C63.231 45.5018 63.5423 45.3393 63.7724 45.1497V39.097C63.61 39.0293 63.3664 38.9887 63.0687 38.9345Z" fill="#353535"/>
<path d="M68.2047 37.7868C68.5437 36.8798 69.0183 36.1353 69.6014 35.5262C70.1845 34.917 70.8761 34.4703 71.6626 34.159C72.449 33.8476 73.2762 33.6987 74.1576 33.6987C75.0255 33.6987 75.8391 33.8476 76.612 34.159C77.3849 34.4703 78.0629 34.917 78.646 35.5262C79.2291 36.1353 79.6901 36.8798 80.0291 37.7868C80.3681 38.6937 80.5444 39.736 80.5444 40.9137C80.5444 42.0914 80.3681 43.1337 80.0291 44.0406C79.6901 44.9476 79.2291 45.6921 78.646 46.3012C78.0629 46.9104 77.3849 47.3571 76.612 47.6684C75.8391 47.9798 75.0255 48.1287 74.1576 48.1287C73.2762 48.1287 72.449 47.9798 71.6626 47.6684C70.8761 47.3571 70.1981 46.9104 69.6014 46.3012C69.0183 45.6921 68.5437 44.9476 68.2047 44.0406C67.8657 43.1337 67.6895 42.0914 67.6895 40.9137C67.6895 39.736 67.8522 38.6937 68.2047 37.7868ZM69.9811 43.1878C70.1845 43.8647 70.4828 44.4467 70.8625 44.934C71.2422 45.4078 71.7168 45.7868 72.2592 46.044C72.8152 46.3012 73.4254 46.4366 74.1169 46.4366C74.8085 46.4366 75.4187 46.3012 75.9611 46.044C76.5035 45.7868 76.9645 45.4214 77.3442 44.934C77.7239 44.4603 78.0222 43.8782 78.2256 43.1878C78.429 42.4975 78.5375 41.7394 78.5375 40.9137C78.5375 40.0744 78.429 39.3164 78.2256 38.6396C78.0222 37.9627 77.7239 37.3807 77.3442 36.8933C76.9645 36.4196 76.5035 36.0405 75.9611 35.7834C75.4187 35.5262 74.7949 35.3908 74.1169 35.3908C73.4389 35.3908 72.8152 35.5262 72.2592 35.7834C71.7032 36.0405 71.2422 36.406 70.8625 36.8933C70.4828 37.3671 70.1845 37.9492 69.9811 38.6396C69.7777 39.3299 69.6692 40.088 69.6692 40.9137C69.6692 41.753 69.7777 42.511 69.9811 43.1878Z" fill="#353535"/>
<path d="M91.0277 46.1642C90.6591 45.5545 90.2494 44.9176 89.8261 44.2672C89.3892 43.6033 88.9522 42.9394 88.4879 42.2619C88.0237 41.5844 87.5594 40.934 87.1088 40.2972C86.6582 39.6604 86.2076 39.0777 85.7843 38.5087C85.361 37.9531 84.9513 37.4653 84.5963 37.0318V47.8172H82.7393V34.0102H84.2413C84.8558 34.6741 85.5112 35.4465 86.2076 36.3272C86.904 37.2079 87.6004 38.1157 88.2831 39.0642C88.9659 39.9991 89.6076 40.9205 90.2221 41.8283C90.8229 42.7361 91.3418 43.5356 91.7514 44.2401V34.0102H93.6085V47.8172H92.0245C91.7241 47.3295 91.3964 46.7739 91.0277 46.1642Z" fill="#353535"/>
<path d="M96.2217 34.0102H104.508V35.6632H98.1224V39.7688H103.797V41.3812H98.1224V46.1642H105.001V47.8172H96.2217V34.0102Z" fill="#353535"/>
</g>
<defs>
<linearGradient id="paint0_linear" x1="21.1679" y1="37.0663" x2="35.9531" y2="37.0663" gradientUnits="userSpaceOnUse">
<stop stop-color="#9588FF"/>
<stop offset="1" stop-color="#6D3CFF"/>
</linearGradient>
<linearGradient id="paint1_linear" x1="17.0271" y1="40.1812" x2="31.8144" y2="40.1812" gradientUnits="userSpaceOnUse">
<stop stop-color="#C188FF"/>
<stop offset="1" stop-color="#8D50FF"/>
</linearGradient>
<linearGradient id="paint2_linear" x1="17.0487" y1="27.8662" x2="22.1926" y2="27.8662" gradientUnits="userSpaceOnUse">
<stop stop-color="#C188FF"/>
<stop offset="1" stop-color="#9281FF"/>
</linearGradient>
</defs>
</svg>
