<svg width="122" height="80" viewBox="0 0 122 80" fill="none" xmlns="http://www.w3.org/2000/svg">
<mask id="mask0" mask-type="alpha" maskUnits="userSpaceOnUse" x="0" y="0" width="122" height="80">
<rect width="122" height="80" fill="white"/>
</mask>
<g mask="url(#mask0)">
<path d="M17.9228 43.6748H13.0883V41.0653H17.9228C19.1309 41.0653 19.7484 41.6514 19.7484 42.4104C19.7484 43.1422 19.1443 43.6748 17.9228 43.6748ZM17.7656 39.6678H13.0883V37.4703H17.7656C19.0388 37.4703 19.5384 37.9255 19.5384 38.5492C19.5384 39.1216 18.9602 39.6678 17.7656 39.6678ZM19.0006 40.3336C21.0372 40.2664 21.7726 39.2411 21.7726 38.1236C21.7715 36.8979 20.8127 35.8862 18.4741 35.8862H11V45.2327H18.6975C20.6151 45.2327 22.0477 44.4213 22.0477 42.6768C22.0477 41.4386 21.2461 40.3871 18.9995 40.3336H19.0006ZM24.0653 35.8862V45.2327H26.157V35.8862H24.0653ZM34.9558 37.657H39.559V35.8862H28.2744V37.657H32.872V45.2327H34.9603L34.9558 37.657ZM41.6788 35.8862V45.2327H43.7671V41.5911H48.6678V40.0536H43.7671V37.4977H51.7284V35.8862H41.6788ZM53.9817 35.8862V45.2327H56.07V35.8862H53.9817ZM60.2936 38.1623L67.2155 45.2316H69.58V35.8862H67.5185V42.6233L60.871 35.8862H58.2178V45.2327H60.2936V38.1623ZM71.7289 35.8862V45.2327H81.9459V43.6623H73.8171V41.0926H78.6909V39.6417H73.8171V37.4977H81.9478V35.8862H71.7289ZM96.3842 35.8862H93.6254L90.1057 39.1751L86.6108 35.8862H83.8128L88.7258 40.4929L83.6288 45.2327H86.3886L90.0789 41.7845L93.7569 45.2327H96.564L91.4588 40.4792L96.3842 35.8862Z" fill="#16B157"/>
<path d="M110.82 34.0655C110.778 34.0472 106.471 33.4532 102.214 36.2277C99.5711 37.954 99.2208 40.4793 99.3417 42.1635C105.534 41.4693 110.679 34.2669 110.82 34.0655ZM99.7618 44.0344C100.294 44.9835 104.317 47.1355 107.878 44.1676C111.439 41.1997 111.141 35.7998 110.82 34.0655C110.707 34.317 106.819 42.9476 99.7618 44.0333" fill="#98E35D"/>
<path d="M110.82 34.0656C110.778 34.0485 106.471 33.4533 102.214 36.2278C99.5711 37.9541 99.2208 40.4794 99.3417 42.1625C105.534 41.4695 110.679 34.267 110.82 34.0656Z" fill="#16B157"/>
</g>
</svg>
