<svg width="122" height="80" viewBox="0 0 122 80" fill="none" xmlns="http://www.w3.org/2000/svg">
<mask id="mask0" mask-type="alpha" maskUnits="userSpaceOnUse" x="0" y="0" width="122" height="80">
<rect width="122" height="80" fill="white"/>
</mask>
<g mask="url(#mask0)">
<path d="M35.2307 52.4615C28.4769 52.4615 23 46.9846 23 40.2307C23 40.2153 23 40.2 23 40.2H25.8C25.8 40.2153 25.8 40.2307 25.8 40.2307C25.8 45.4461 30.0307 49.6615 35.2307 49.6615C40.4461 49.6615 44.6615 45.4307 44.6615 40.2307C44.6615 35.0154 40.4307 30.8 35.2307 30.8C34.3692 30.8 33.5538 30.9077 32.7846 31.1231V35.2C33.523 34.8461 34.3538 34.6307 35.2307 34.6307C38.323 34.6307 40.8153 37.1384 40.8153 40.2153C40.8153 43.3076 38.3076 45.7999 35.2307 45.7999C32.2307 45.7999 29.7846 43.4461 29.6461 40.4923V29.4154V29.3846C31.3384 28.4923 33.2 28 35.2307 28C41.9846 28 47.4615 33.4769 47.4615 40.2307C47.4615 46.9846 41.9846 52.4615 35.2307 52.4615ZM37.6769 40.2307L35.2307 37.7846L32.7846 40.2307L35.2307 42.6769L37.6769 40.2307Z" fill="#7D6398"/>
<path d="M58.2915 39.8308V39.9077C60.1684 40.2923 61.2146 41.4616 61.43 43.4C61.4761 46.2616 59.83 47.6769 56.4915 47.6769H50.0762V32.7693H56.23C59.1377 32.8616 60.7069 34.0616 60.9223 36.3385C60.9531 38.1539 60.0761 39.3077 58.2915 39.8308ZM55.7223 35.1231H52.83V38.9077H55.7223C57.1377 38.8616 57.8608 38.2 57.9069 36.9077C57.9069 35.7231 57.1685 35.1231 55.7223 35.1231ZM56.0454 41.2616H52.83V45.4769H56.0454C57.6761 45.4769 58.4915 44.7692 58.4915 43.3385C58.3531 42 57.5377 41.3077 56.0454 41.2616ZM69.0915 35.3385V47.6923H66.3377V35.3385H57.2762L55.4454 32.7693H73.5223V35.3385H69.0915ZM84.8453 45.2616V47.6923H74.3069V32.7693H84.5684V35.3385H77.1222V38.8308H84.1222V41.4H77.1222V45.2616H84.8453Z" fill="#443655"/>
<path d="M94.0767 40.2923C93.7844 39.8154 92.369 37.7385 92.169 37.4308C92.0459 37.2 91.0459 35.6308 89.5075 32.7693H86.2306L90.7229 40.2616L85.769 47.6923H89.1075C90.9075 44.6462 91.8613 43 91.9998 42.7693C92.0459 42.7231 92.1536 42.5385 92.3229 42.2C92.4152 42.0154 92.4767 41.8923 92.5229 41.8462C92.7844 42.2769 92.9536 42.5846 93.0306 42.7693C93.1536 42.9539 94.1229 44.6 95.9229 47.6923H98.9998L94.0767 40.2923Z" fill="#7A6498"/>
<path d="M94.6918 40L98.8764 32.7693H95.5995C94.1841 35.5231 93.1841 37.3693 92.9995 37.6923C93.2457 37.9693 93.5995 38.6 93.7687 38.7693" fill="#443655"/>
</g>
</svg>
