<svg width="122" height="80" viewBox="0 0 122 80" fill="none" xmlns="http://www.w3.org/2000/svg">
<mask id="mask0" mask-type="alpha" maskUnits="userSpaceOnUse" x="0" y="0" width="122" height="80">
<rect width="122" height="80" fill="white"/>
</mask>
<g mask="url(#mask0)">
</g>
<path d="M95.7119 36.0844C96.5991 36.0844 97.3184 35.3645 97.3184 34.4765C97.3184 33.5885 96.5991 32.8684 95.7119 32.8684C94.8247 32.8684 94.1055 33.5885 94.1055 34.4765C94.1055 35.3645 94.8247 36.0844 95.7119 36.0844Z" fill="#3C7AD2"/>
<path d="M33.1065 34.5505C33.1065 31.4945 31.6192 28.8665 30.4879 28.0108C30.4833 28.008 30.4013 27.962 30.4082 28.0841C30.4084 28.0858 30.4069 28.0862 30.4069 28.0877C30.3127 33.9882 27.3012 35.5874 25.6455 37.7417C21.8246 42.713 25.3781 48.1635 28.9965 49.1708C31.0213 49.7345 28.529 48.1734 28.2079 44.8764C27.8199 40.8913 33.1065 37.8495 33.1065 34.5505Z" fill="#1D2243"/>
<path d="M34.7626 36.7777C34.7379 36.7619 34.7029 36.7511 34.6785 36.7888C34.612 37.5318 33.803 39.1204 32.7775 40.5793C29.2996 45.5281 31.2816 47.9134 32.3961 49.1947C33.0431 49.9385 32.3961 49.1947 34.0134 48.4346C34.1403 48.3751 37.1694 46.7819 37.4975 43.152C37.815 39.6371 35.5639 37.4215 34.7626 36.7777Z" fill="#3C7AD2"/>
<path d="M51.5297 32.8684V39.0627H45.3785V33.6715C45.3785 33.228 45.0193 32.8684 44.5763 32.8684H42.5V47.6957C42.5 48.1393 42.8594 48.4989 43.3026 48.4989H45.3785V41.5804H51.5297V47.6957C51.5297 48.1393 51.8891 48.4989 52.3323 48.4989H54.4081V33.6715C54.4081 33.228 54.0491 32.8684 53.6059 32.8684H51.5297Z" fill="#1D2243"/>
<path d="M63.2634 36.7632V44.1927C63.2634 44.8678 62.9193 45.5078 62.3354 45.8454C60.7054 46.7881 59.0188 45.6106 59.0188 44.058V37.5663C59.0188 37.1227 58.6594 36.7632 58.2164 36.7632H56.132L56.1318 44.3228C56.1318 46.7551 58.1201 48.7451 60.5503 48.7451H61.7319C64.1619 48.7451 66.1503 46.7551 66.1503 44.3227V37.5663C66.1503 37.1227 65.7911 36.7632 65.3479 36.7632H63.2634Z" fill="#1D2243"/>
<path d="M94.9079 48.0875H96.9838V37.5663C96.9838 37.1229 96.6248 36.7632 96.1816 36.7632H94.1055V47.2844C94.1055 47.728 94.4647 48.0875 94.9079 48.0875Z" fill="#3C7AD2"/>
<path d="M75.9018 43.7778C75.9018 45.2072 74.7333 46.1586 73.3053 46.1586C71.8772 46.1586 70.7088 45.2072 70.7088 43.7778V41.738C70.7088 40.3087 71.8772 39.3571 73.3053 39.3571C74.7333 39.3571 75.9018 40.3087 75.9018 41.738V43.7778ZM73.3053 36.7632C70.286 36.7632 67.8154 38.9251 67.8154 41.9471V43.5817C67.8154 46.6037 70.286 48.7525 73.3053 48.7525C76.3246 48.7525 78.795 46.6037 78.795 43.5817V41.9471C78.795 38.9251 76.3246 36.7632 73.3053 36.7632Z" fill="#1D2243"/>
<path d="M89.5335 43.736C89.5335 45.1654 88.3651 46.1168 86.937 46.1168C85.509 46.1168 84.3406 45.1654 84.3406 43.736V41.6962C84.3406 40.2669 85.509 39.3153 86.937 39.3153C88.3651 39.3153 89.5335 40.2669 89.5335 41.6962V43.736ZM86.9371 36.7214H86.937C85.9935 36.7214 85.1033 36.9325 84.3258 37.3151V33.6714C84.3258 33.228 83.9664 32.8684 83.5234 32.8684H81.4473V43.5399C81.4473 46.5619 83.9177 48.7108 86.937 48.7108H86.9371C89.9563 48.7108 92.4269 46.5619 92.4269 43.5399V41.9053C92.4269 38.8833 89.9563 36.7214 86.9371 36.7214Z" fill="#3C7AD2"/>
</svg>
