<svg width="18" height="18" viewBox="0 0 18 18" fill="none" xmlns="http://www.w3.org/2000/svg">
<path fill-rule="evenodd" clip-rule="evenodd" d="M7.77636 12.0604C6.63009 10.9515 5.48382 9.84257 4.3377 8.73352C4.31942 8.71583 4.30083 8.69837 4.28222 8.6809C4.23128 8.63308 4.1803 8.58522 4.13568 8.5324C3.84929 8.19323 3.84002 7.9051 4.10299 7.6631C4.34697 7.43856 4.70215 7.44325 5.00857 7.72889C5.48516 8.17314 5.95171 8.62745 6.41826 9.08176C6.61609 9.2744 6.81392 9.46704 7.01252 9.65892C7.23159 9.87053 7.45104 10.0818 7.67048 10.2931C7.77091 10.3898 7.87134 10.4865 7.97173 10.5832L8.13737 10.5123V8.20457C8.13737 7.95406 8.13735 7.70355 8.13734 7.45304C8.13729 6.67484 8.13724 5.89665 8.13767 5.11847C8.13769 5.07619 8.13706 5.03382 8.13642 4.99143C8.13459 4.86974 8.13276 4.74792 8.14652 4.62787C8.19548 4.20064 8.41338 3.98904 8.77252 4.00044C9.12265 4.01154 9.3401 4.23259 9.36241 4.66591C9.37962 5.00065 9.37653 5.33639 9.37345 5.6721C9.37224 5.80423 9.37103 5.93634 9.37105 6.06839C9.37137 7.62564 9.3712 9.18285 9.37067 10.7401C10.4 9.74309 11.9373 8.25772 12.3623 7.85005C12.3754 7.8375 12.3885 7.82477 12.4016 7.81197C12.4913 7.72476 12.5839 7.63468 12.6934 7.58263C12.9519 7.45968 13.2142 7.46896 13.4225 7.68994C13.6261 7.906 13.6496 8.14788 13.478 8.3948C13.4245 8.47171 13.3593 8.54249 13.2915 8.60836C12.66 9.22149 9.92671 11.8734 9.28529 12.4766C9.25073 12.5091 9.21267 12.5377 9.17383 12.5637C9.11501 12.6217 9.04621 12.6728 8.95366 12.7067C8.66993 12.8107 8.43571 12.6997 8.23494 12.5029C8.20571 12.4742 8.17604 12.446 8.14638 12.4177C8.12438 12.3968 8.10238 12.3758 8.08056 12.3547L7.77636 12.0604ZM13.8847 11.1997C14.2164 11.1921 14.4677 11.3974 14.4838 11.7692C14.5079 12.3295 14.5244 12.8957 14.469 13.4523C14.3952 14.1943 13.7558 14.6834 12.8814 14.6996C12.1886 14.7124 11.4955 14.7098 10.8023 14.7071C10.5032 14.706 10.2041 14.7048 9.90506 14.7049C9.5179 14.7051 9.1307 14.705 8.74353 14.7047C8.33187 14.7046 7.9202 14.7051 7.50854 14.7055C6.61348 14.7066 5.71842 14.7077 4.8234 14.7027C3.5697 14.6958 3.01445 14.1519 3.00615 12.9398C3.00557 12.855 3.00442 12.77 3.00327 12.6851C2.99933 12.3953 2.99539 12.1053 3.01433 11.8168C3.04111 11.4096 3.29641 11.1792 3.64667 11.1984C3.97116 11.2162 4.16281 11.4219 4.20066 11.8173C4.21345 11.951 4.21198 12.0861 4.21052 12.2211C4.20995 12.2736 4.20937 12.3261 4.20964 12.3786C4.21498 13.4284 4.31175 13.5217 5.4283 13.5232C6.6661 13.5248 7.90392 13.5245 9.14173 13.5242C9.52522 13.5242 9.9087 13.5241 10.2922 13.524C10.4942 13.524 10.6963 13.5248 10.8984 13.5255C11.3981 13.5273 11.8979 13.5291 12.3974 13.5196C13.1256 13.5057 13.2834 13.3429 13.2991 12.6384C13.3014 12.532 13.3001 12.4254 13.2988 12.3188C13.2967 12.1442 13.2945 11.9697 13.3086 11.7963C13.3394 11.4162 13.5562 11.2072 13.8847 11.1997Z" fill="#C63127"/>
</svg>
