<svg width="18" height="18" viewBox="0 0 18 18" fill="none" xmlns="http://www.w3.org/2000/svg">
<path fill-rule="evenodd" clip-rule="evenodd" d="M7.77613 12.0601C6.62998 10.9513 5.48383 9.84247 4.33782 8.73352C4.31954 8.71583 4.30094 8.69837 4.28234 8.6809C4.2314 8.63308 4.18042 8.58522 4.1358 8.5324C3.84941 8.19323 3.84015 7.9051 4.10311 7.6631C4.34708 7.43856 4.70227 7.44325 5.00868 7.72889C5.48526 8.17314 5.9518 8.62745 6.41835 9.08176C6.61618 9.2744 6.81401 9.46704 7.0126 9.65892C7.23165 9.87051 7.45107 10.0818 7.67049 10.293C7.77094 10.3897 7.87139 10.4865 7.97181 10.5832L8.13744 10.5123V8.20457C8.13744 7.95406 8.13742 7.70355 8.1374 7.45304C8.13735 6.67484 8.1373 5.89665 8.13774 5.11847C8.13776 5.07619 8.13712 5.03382 8.13649 4.99143C8.13466 4.86974 8.13282 4.74792 8.14658 4.62787C8.19554 4.20064 8.41344 3.98904 8.77258 4.00044C9.1227 4.01154 9.34016 4.23259 9.36246 4.66591C9.37967 5.00065 9.37659 5.33639 9.37351 5.6721C9.37229 5.80423 9.37108 5.93634 9.37111 6.06839C9.37142 7.62564 9.37125 9.18285 9.37072 10.7401C10.4 9.74309 11.9373 8.25772 12.3623 7.85005C12.3754 7.8375 12.3885 7.82477 12.4016 7.81197C12.4913 7.72475 12.5839 7.63468 12.6934 7.58263C12.9519 7.45968 13.2142 7.46896 13.4225 7.68994C13.6261 7.906 13.6496 8.14788 13.478 8.3948C13.4245 8.47171 13.3593 8.54249 13.2915 8.60836C12.66 9.22149 9.92676 11.8734 9.28534 12.4766C9.25078 12.5091 9.21272 12.5377 9.17389 12.5637C9.11506 12.6217 9.04627 12.6728 8.95372 12.7067C8.66999 12.8107 8.43578 12.6997 8.23501 12.5029C8.20577 12.4742 8.17611 12.446 8.14645 12.4177C8.12445 12.3968 8.10245 12.3758 8.08063 12.3547L7.77613 12.0601ZM13.8848 11.1997C14.2164 11.1921 14.4678 11.3974 14.4838 11.7692C14.508 12.3295 14.5245 12.8957 14.4691 13.4523C14.3953 14.1943 13.7559 14.6834 12.8814 14.6996C12.1886 14.7124 11.4955 14.7098 10.8024 14.7071C10.5033 14.706 10.2042 14.7048 9.9051 14.7049C9.51794 14.7051 9.13074 14.705 8.74356 14.7047C8.3319 14.7046 7.92023 14.7051 7.50856 14.7055C6.6135 14.7066 5.71843 14.7077 4.82341 14.7027C3.5697 14.6958 3.01445 14.1519 3.00615 12.9398C3.00557 12.855 3.00442 12.77 3.00327 12.6851C2.99933 12.3953 2.99539 12.1053 3.01433 11.8168C3.04111 11.4096 3.29641 11.1792 3.64668 11.1984C3.97117 11.2162 4.16282 11.4219 4.20066 11.8173C4.21346 11.951 4.21199 12.0861 4.21052 12.2211C4.20995 12.2736 4.20938 12.3261 4.20965 12.3786C4.21499 13.4284 4.31176 13.5217 5.42831 13.5232C6.66612 13.5248 7.90395 13.5245 9.14177 13.5242C9.52525 13.5242 9.90874 13.5241 10.2922 13.524C10.4943 13.524 10.6963 13.5248 10.8984 13.5255C11.3982 13.5273 11.8979 13.5291 12.3974 13.5196C13.1257 13.5057 13.2834 13.3429 13.2991 12.6384C13.3015 12.532 13.3002 12.4254 13.2989 12.3188C13.2967 12.1442 13.2946 11.9697 13.3086 11.7963C13.3395 11.4162 13.5562 11.2072 13.8848 11.1997Z" fill="#666666"/>
</svg>
