<svg width="18" height="18" viewBox="0 0 18 18" fill="none" xmlns="http://www.w3.org/2000/svg">
<path fill-rule="evenodd" clip-rule="evenodd" d="M6.07953 4.55926C6.07953 4.2507 6.34077 4 6.66229 4C6.98382 4 7.24506 4.2507 7.24506 4.55926V6.42347C7.24506 6.73202 6.98382 6.98273 6.66229 6.98273C6.34077 6.98273 6.07953 6.73202 6.07953 6.42347V6.0519C6.07952 6.0519 6.07951 6.0519 6.0795 6.0519H4.13688C3.60099 6.0519 3.16557 6.46973 3.16557 6.98399V12.9494C3.16557 13.4637 3.60099 13.8815 4.13688 13.8815H13.4614C13.9973 13.8815 14.4328 13.4637 14.4328 12.9494V6.98399C14.4328 6.46973 13.9973 6.0519 13.4614 6.0519H11.5188C11.5188 6.0519 11.5188 6.0519 11.5188 6.0519V6.42347C11.5188 6.73202 11.2576 6.98273 10.936 6.98273C10.6145 6.98273 10.3533 6.73202 10.3533 6.42347V4.55926C10.3533 4.2507 10.6145 4 10.936 4C11.2576 4 11.5188 4.2507 11.5188 4.55926V4.93338C11.5188 4.93338 11.5188 4.93338 11.5188 4.93338H13.4614C14.6391 4.93338 15.5983 5.85391 15.5983 6.98399V12.9494C15.5983 14.0795 14.6391 15 13.4614 15H4.13688C2.95925 15 2 14.0795 2 12.9494V6.98399C2 5.85391 2.95925 4.93338 4.13688 4.93338H6.0795C6.07951 4.93338 6.07952 4.93338 6.07953 4.93338V4.55926ZM12.4901 8.47405H5.10823C4.7867 8.47405 4.52545 8.72476 4.52545 9.03332C4.52545 9.34188 4.7867 9.59258 5.10823 9.59258H12.4901C12.8116 9.59258 13.0729 9.34188 13.0729 9.03332C13.0729 8.72476 12.8116 8.47405 12.4901 8.47405ZM12.4901 11.0839H5.10823C4.7867 11.0839 4.52545 11.3346 4.52545 11.6432C4.52545 11.9517 4.7867 12.2024 5.10823 12.2024H12.4901C12.8116 12.2024 13.0729 11.9517 13.0729 11.6432C13.0729 11.3346 12.8116 11.0839 12.4901 11.0839Z" fill="#666666"/>
</svg>
