<svg width="18" height="18" viewBox="0 0 18 18" fill="none" xmlns="http://www.w3.org/2000/svg">
<path d="M9.6471 11.2H9.99578V9.86668H9.6471C8.39187 9.86668 7.41558 8.93334 7.41558 7.73334V7.46667C7.41558 6.26667 8.39187 5.33334 9.6471 5.33334H14.1102C15.3654 5.33334 16.3417 6.26667 16.3417 7.46667V7.73334C16.3417 8.86667 15.3654 9.86668 14.1102 9.86668V11.2C16.0627 11.2 17.7364 9.66668 17.7364 7.73334V7.46667C17.7364 5.53334 16.1325 4 14.1102 4H9.6471C7.62478 4 6.02087 5.53334 6.02087 7.46667V7.73334C6.02087 9.66668 7.62478 11.2 9.6471 11.2Z" fill="#C63127"/>
<path d="M4.62623 13.9333H9.08928C11.1116 13.9333 12.7155 12.4 12.7155 10.4667V10.2C12.7155 8.26667 11.1116 6.73334 9.08928 6.73334H8.74061V8.06667H9.08928C10.3445 8.06667 11.3208 9.00001 11.3208 10.2V10.4667C11.3208 11.6667 10.3445 12.6 9.08928 12.6H4.62623C3.371 12.6 2.3947 11.6667 2.3947 10.4667V10.2C2.3947 9.06667 3.371 8.06667 4.62623 8.06667V6.73334C2.60391 6.8 1 8.33334 1 10.2V10.4667C1 12.4 2.60391 13.9333 4.62623 13.9333Z" fill="#C63127"/>
</svg>
