<svg width="122" height="80" viewBox="0 0 122 80" fill="none" xmlns="http://www.w3.org/2000/svg">
<path d="M21.4531 43.9393L35.5157 37.207L35.5923 40.0287L21.4531 46.8223V43.9393Z" fill="#23B49A"/>
<path d="M24.4282 42.5131L28.9215 44.6907L25.9677 46.1169L21.4531 43.9546L24.4282 42.5131Z" fill="#2CCDB0"/>
<path d="M28.9214 47.5584L28.9214 44.6907L25.9676 46.1169L25.9463 48.9999L28.9214 47.5584Z" fill="#46EFD1"/>
<path d="M18.5698 42.5591L32.617 35.7962L35.5154 37.207L21.4529 43.9546L18.5698 42.5591Z" fill="#2CCDB0"/>
<path d="M18.5698 42.5442L25.9615 46.0867V48.9697L18.5698 45.4272V42.5442Z" fill="#177867"/>
<path d="M14 35.5821L21.3917 39.1245V42.0076L14 38.4651V35.5821Z" fill="#131766"/>
<path d="M27.4033 37.0696L29.5503 38.0511L29.5809 32.423L27.4033 31.4109V37.0696Z" fill="#1B1F6D"/>
<path d="M21.3916 39.1245L35.4541 32.3923L35.5308 35.214L21.3916 42.0076V39.1245Z" fill="#262C96"/>
<path d="M18.5088 37.7444L32.556 30.9815L35.4544 32.3923L21.3918 39.1399L18.5088 37.7444Z" fill="#4950D4"/>
<path d="M17.0057 34.1717L21.4683 36.3186L18.5146 37.7448L14 35.5825L17.0057 34.1717Z" fill="#4950D4"/>
<path d="M30.4091 30L32.556 30.9815L29.5809 32.423L27.4033 31.4109L30.4091 30Z" fill="#4950D4"/>
<path d="M48.1891 42.9054V35.5071H45.0037V34H49.7989V43.128C49.7989 43.9729 49.5306 44.6522 48.994 45.166C48.6287 45.5085 48.2176 45.7311 47.761 45.8339C47.3043 45.9367 46.7448 45.988 46.0826 45.988H43V44.481H46.3053C47.5612 44.481 48.1891 43.9558 48.1891 42.9054Z" fill="black"/>
<path d="M58.7525 45.988H55.7897C54.5224 45.988 53.6148 45.7997 53.0667 45.4229C52.5758 45.0918 52.2618 44.6979 52.1248 44.2412C51.9992 43.7731 51.9364 43.1623 51.9364 42.4087V37.7677H53.4435V42.3916C53.4435 42.5971 53.4492 42.7741 53.4606 42.9225C53.472 43.0595 53.512 43.2422 53.5805 43.4705C53.649 43.6875 53.7461 43.8701 53.8716 44.0186C53.9972 44.1556 54.1799 44.2812 54.4197 44.3953C54.6594 44.4981 54.9506 44.5495 55.2931 44.5495H57.2454V37.7677H58.7525V45.988Z" fill="black"/>
<path d="M66.6036 37.7677V39.2062H63.5723C63.2412 39.2062 62.9558 39.269 62.716 39.3946C62.4763 39.5202 62.3564 39.6972 62.3564 39.9255C62.3564 40.0625 62.3849 40.1881 62.442 40.3023C62.4991 40.405 62.5619 40.4907 62.6304 40.5592C62.7103 40.6277 62.8245 40.7019 62.9729 40.7818C63.1328 40.8503 63.2526 40.9017 63.3326 40.9359C63.4239 40.9588 63.7892 41.0729 64.4286 41.2784C65.068 41.484 65.5418 41.6552 65.85 41.7922C66.1583 41.9292 66.3924 42.1176 66.5522 42.3574C66.7235 42.5857 66.8319 42.8141 66.8776 43.0424C66.9233 43.2593 66.9461 43.4763 66.9461 43.6932C66.9461 45.2231 65.8957 45.988 63.795 45.988H60.8322V44.5495H63.795C64.8682 44.5495 65.4048 44.264 65.4048 43.6932C65.4048 43.4192 65.2449 43.1908 64.9253 43.0082C64.617 42.8255 64.2345 42.6713 63.7778 42.5458C63.3326 42.4202 62.8816 42.2775 62.4249 42.1176C61.9796 41.9464 61.5971 41.6781 61.2775 41.3127C60.9692 40.9359 60.8151 40.4735 60.8151 39.9255C60.8151 39.2291 61.0834 38.6982 61.62 38.3328C62.1566 37.9561 62.8074 37.7677 63.5723 37.7677H66.6036Z" fill="black"/>
<path d="M69.3287 39.2062V36.1407H70.87V37.7677H73.182V39.2062H70.87V42.7341C70.87 43.1337 70.9328 43.4648 71.0584 43.7274C71.1954 43.99 71.3895 44.1784 71.6407 44.2926C71.8919 44.3953 72.1259 44.4638 72.3428 44.4981C72.5712 44.5323 72.8509 44.5495 73.182 44.5495V45.988C71.869 45.988 70.8986 45.7369 70.2706 45.2345C69.6427 44.7321 69.3287 43.8987 69.3287 42.7341V39.2062Z" fill="black"/>
<path d="M81.6143 44.481V45.988H79.1139C78.6458 45.988 78.2748 45.9823 78.0008 45.9709C77.7382 45.9481 77.4071 45.8796 77.0075 45.7654C76.6079 45.6398 76.2711 45.4571 75.9971 45.2174C75.5746 44.8292 75.3006 44.3668 75.175 43.8302C75.0494 43.2822 74.9866 42.6428 74.9866 41.9121V34H76.5965V41.8779C76.5965 42.54 76.6707 43.0595 76.8191 43.4363C77.1159 44.1327 77.7382 44.481 78.6858 44.481H81.6143Z" fill="black"/>
<path d="M87.1018 37.5964C89.0427 37.6763 90.0132 38.4812 90.0132 40.0111C90.0132 41.9178 88.763 42.8711 86.2626 42.8711H85.5605V41.5525H86.3825C87.1474 41.5525 87.6783 41.4383 87.9752 41.2099C88.272 40.9702 88.4205 40.5763 88.4205 40.0283C88.4205 39.6743 88.2892 39.4117 88.0266 39.2405C87.764 39.0578 87.4272 38.9665 87.0161 38.9665C86.2055 38.9665 85.5662 39.2519 85.0981 39.8228C84.6414 40.3936 84.413 41.0786 84.413 41.8779C84.413 42.7227 84.6585 43.4078 85.1494 43.9329C85.6518 44.4581 86.3026 44.7207 87.1018 44.7207C87.8211 44.7207 88.409 44.5438 88.8657 44.1898L89.8933 45.2002C89.1055 45.8396 88.175 46.1593 87.1018 46.1593C85.8002 46.1593 84.7613 45.7768 83.9849 45.0119C83.2085 44.2469 82.8203 43.2593 82.8203 42.0491C82.8203 40.7019 83.2028 39.6115 83.9678 38.7781C84.7327 37.9446 85.7774 37.5507 87.1018 37.5964Z" fill="black"/>
<path d="M91.8093 37.7677H94.7721C96.0394 37.7677 96.9471 37.9561 97.4951 38.3328C97.986 38.6639 98.2943 39.0635 98.4199 39.5316C98.5569 39.9883 98.6254 40.5934 98.6254 41.347V45.988H97.1183V41.3641C97.1183 41.1586 97.1126 40.9873 97.1012 40.8503C97.0898 40.7019 97.0498 40.5192 96.9813 40.3023C96.9128 40.0739 96.8158 39.8913 96.6902 39.7543C96.5646 39.6058 96.3819 39.4802 96.1422 39.3775C95.9024 39.2633 95.6113 39.2062 95.2688 39.2062H93.3164V45.988H91.8093V37.7677Z" fill="black"/>
<path d="M107.11 34H108.651V45.988H104.627C103.382 45.988 102.372 45.5941 101.596 44.8064C100.819 44.0072 100.431 43.0024 100.431 41.7922C100.431 40.6048 100.831 39.6115 101.63 38.8123C102.441 38.0017 103.4 37.5964 104.507 37.5964C105.215 37.5964 105.877 37.7677 106.494 38.1102V39.6515C105.923 39.2405 105.261 39.035 104.507 39.035C103.822 39.035 103.24 39.2919 102.76 39.8056C102.292 40.308 102.058 40.9702 102.058 41.7922C102.058 42.6257 102.281 43.2936 102.726 43.7959C103.183 44.2983 103.816 44.5495 104.627 44.5495H107.11V34Z" fill="black"/>
</svg>
