<svg width="122" height="80" viewBox="0 0 122 80" fill="none" xmlns="http://www.w3.org/2000/svg">
<rect x="24.4824" y="23.0168" width="13.0616" height="8.56501" stroke="#E6E9EB" stroke-width="0.0535313"/>
<path d="M57.6718 39.6115C57.6718 48.7765 50.2421 56.2062 41.0771 56.2062C31.9121 56.2062 24.4824 48.7765 24.4824 39.6115C24.4824 30.4465 31.9121 23.0168 41.0771 23.0168C50.2421 23.0168 57.6718 30.4465 57.6718 39.6115Z" fill="url(#paint0_linear_1617_2717)"/>
<mask id="mask0_1617_2717" style="mask-type:alpha" maskUnits="userSpaceOnUse" x="24" y="23" width="34" height="34">
<path d="M57.6718 39.6115C57.6718 48.7765 50.2421 56.2062 41.0771 56.2062C31.9121 56.2062 24.4824 48.7765 24.4824 39.6115C24.4824 30.4465 31.9121 23.0168 41.0771 23.0168C50.2421 23.0168 57.6718 30.4465 57.6718 39.6115Z" fill="white"/>
</mask>
<g mask="url(#mask0_1617_2717)">
<path fill-rule="evenodd" clip-rule="evenodd" d="M40.3511 30.6183V19.0555H41.1005V30.6183H40.3511Z" fill="white"/>
<path fill-rule="evenodd" clip-rule="evenodd" d="M38.6382 30.6183V19.0555H39.3876V30.6183H38.6382Z" fill="white"/>
<path fill-rule="evenodd" clip-rule="evenodd" d="M42.5991 30.6183V19.0555H43.3486V30.6183H42.5991Z" fill="white"/>
<path fill-rule="evenodd" clip-rule="evenodd" d="M37.5986 20.3403V28.3007L36.8936 28.4777L33.1445 21.485L33.805 21.1308L36.8492 26.8087V20.3403H37.5986Z" fill="white"/>
<path fill-rule="evenodd" clip-rule="evenodd" d="M44.3413 20.1262V28.0866L45.0463 28.2636L48.7954 21.2708L48.1349 20.9167L45.0908 26.5946V20.1262H44.3413Z" fill="white"/>
<path fill-rule="evenodd" clip-rule="evenodd" d="M41.6938 50.1037V61.6664H40.9444V50.1037H41.6938Z" fill="white"/>
<path fill-rule="evenodd" clip-rule="evenodd" d="M43.4072 50.1037V61.6664H42.6578V50.1037H43.4072Z" fill="white"/>
<path fill-rule="evenodd" clip-rule="evenodd" d="M39.4468 50.1037V61.6664H38.6973V50.1037H39.4468Z" fill="white"/>
<path fill-rule="evenodd" clip-rule="evenodd" d="M44.5557 60.5265V52.5661L45.2607 52.3891L49.0098 59.3818L48.3493 59.7359L45.3051 54.0581V60.5265H44.5557Z" fill="white"/>
<path fill-rule="evenodd" clip-rule="evenodd" d="M37.5986 60.6336V52.6732L36.8936 52.4961L33.1445 59.4889L33.805 59.843L36.8492 54.1651V60.6336H37.5986Z" fill="white"/>
<path fill-rule="evenodd" clip-rule="evenodd" d="M31.281 41.0327H19.7183V40.2833H31.281V41.0327Z" fill="white"/>
<path fill-rule="evenodd" clip-rule="evenodd" d="M31.281 42.7457H19.7183V41.9963H31.281V42.7457Z" fill="white"/>
<path fill-rule="evenodd" clip-rule="evenodd" d="M31.281 38.7844H19.7183V38.035H31.281V38.7844Z" fill="white"/>
<path fill-rule="evenodd" clip-rule="evenodd" d="M20.7354 43.8405H28.6958L28.8728 44.5455L21.88 48.2946L21.5259 47.6341L27.2038 44.5899H20.7354V43.8405Z" fill="white"/>
<path fill-rule="evenodd" clip-rule="evenodd" d="M21.4849 37.3116H29.4453L29.6223 36.6066L22.6296 32.8575L22.2754 33.518L27.9533 36.5621H21.4849V37.3116Z" fill="white"/>
<path fill-rule="evenodd" clip-rule="evenodd" d="M50.7658 39.6892H62.3286V40.4386H50.7658V39.6892Z" fill="white"/>
<path fill-rule="evenodd" clip-rule="evenodd" d="M50.7658 37.9762H62.3286V38.7256H50.7658V37.9762Z" fill="white"/>
<path fill-rule="evenodd" clip-rule="evenodd" d="M50.7658 41.9375H62.3286V42.6869H50.7658V41.9375Z" fill="white"/>
<path fill-rule="evenodd" clip-rule="evenodd" d="M60.9214 36.8833H52.961L52.7839 36.1784L59.7767 32.4293L60.1308 33.0898L54.4529 36.1339H60.9214V36.8833Z" fill="white"/>
<path fill-rule="evenodd" clip-rule="evenodd" d="M61.3491 43.7334H53.3887L53.2117 44.4384L60.2044 48.1875L60.5586 47.527L54.8807 44.4829H61.3491V43.7334Z" fill="white"/>
<path fill-rule="evenodd" clip-rule="evenodd" d="M34.6097 47.7251L26.4336 55.9012L25.9037 55.3713L34.0798 47.1952L34.6097 47.7251Z" fill="white"/>
<path fill-rule="evenodd" clip-rule="evenodd" d="M35.8202 48.9364L27.644 57.1125L27.1141 56.5826L35.2902 48.4065L35.8202 48.9364Z" fill="white"/>
<path fill-rule="evenodd" clip-rule="evenodd" d="M33.0194 46.1353L24.8433 54.3114L24.3133 53.7815L32.4894 45.6054L33.0194 46.1353Z" fill="white"/>
<path fill-rule="evenodd" clip-rule="evenodd" d="M29.5707 57.1806L35.1996 51.5517L35.8233 51.925L33.5296 59.5207L32.8122 59.304L34.6745 53.1366L30.1006 57.7105L29.5707 57.1806Z" fill="white"/>
<path fill-rule="evenodd" clip-rule="evenodd" d="M24.294 52.0106L29.9229 46.3818L29.5496 45.7581L21.9539 48.0517L22.1706 48.7692L28.338 46.9068L23.7641 51.4807L24.294 52.0106Z" fill="white"/>
<path fill-rule="evenodd" clip-rule="evenodd" d="M47.4377 32.9968L55.6138 24.8207L56.1437 25.3506L47.9676 33.5268L47.4377 32.9968Z" fill="white"/>
<path fill-rule="evenodd" clip-rule="evenodd" d="M46.2262 31.7855L54.4023 23.6094L54.9323 24.1394L46.7562 32.3155L46.2262 31.7855Z" fill="white"/>
<path fill-rule="evenodd" clip-rule="evenodd" d="M49.0275 34.5866L57.2036 26.4105L57.7335 26.9405L49.5574 35.1166L49.0275 34.5866Z" fill="white"/>
<path fill-rule="evenodd" clip-rule="evenodd" d="M52.7262 23.7916L47.0973 29.4204L46.4736 29.0471L48.7672 21.4515L49.4847 21.6681L47.6223 27.8355L52.1962 23.2616L52.7262 23.7916Z" fill="white"/>
<path fill-rule="evenodd" clip-rule="evenodd" d="M57.6825 28.5332L52.0537 34.1621L52.427 34.7858L60.0226 32.4922L59.806 31.7747L53.6386 33.6371L58.2125 29.0632L57.6825 28.5332Z" fill="white"/>
<path fill-rule="evenodd" clip-rule="evenodd" d="M48.3869 46.7751L56.563 54.9512L56.0331 55.4811L47.8569 47.305L48.3869 46.7751Z" fill="white"/>
<path fill-rule="evenodd" clip-rule="evenodd" d="M49.5983 45.5638L57.7744 53.7399L57.2445 54.2699L49.0684 46.0938L49.5983 45.5638Z" fill="white"/>
<path fill-rule="evenodd" clip-rule="evenodd" d="M46.7965 48.3649L54.9727 56.541L54.4427 57.0709L46.2666 48.8948L46.7965 48.3649Z" fill="white"/>
<path fill-rule="evenodd" clip-rule="evenodd" d="M57.8959 52.0106L52.2671 46.3818L52.6403 45.7581L60.236 48.0517L60.0193 48.7692L53.852 46.9068L58.4258 51.4807L57.8959 52.0106Z" fill="white"/>
<path fill-rule="evenodd" clip-rule="evenodd" d="M52.8331 57.0735L47.2042 51.4447L46.5806 51.818L48.8742 59.4136L49.5916 59.197L47.7293 53.0296L52.3032 57.6035L52.8331 57.0735Z" fill="white"/>
<path fill-rule="evenodd" clip-rule="evenodd" d="M33.6585 33.9469L25.4824 25.7708L26.0124 25.2408L34.1885 33.4169L33.6585 33.9469Z" fill="white"/>
<path fill-rule="evenodd" clip-rule="evenodd" d="M32.4476 35.1581L24.2715 26.982L24.8014 26.4521L32.9775 34.6282L32.4476 35.1581Z" fill="white"/>
<path fill-rule="evenodd" clip-rule="evenodd" d="M35.2489 32.3571L27.0728 24.1809L27.6027 23.651L35.7788 31.8271L35.2489 32.3571Z" fill="white"/>
<path fill-rule="evenodd" clip-rule="evenodd" d="M24.8282 29.0685L30.4571 34.6974L30.0838 35.3211L22.4881 33.0275L22.7048 32.31L28.8722 34.1724L24.2983 29.5985L24.8282 29.0685Z" fill="white"/>
<path fill-rule="evenodd" clip-rule="evenodd" d="M29.4628 24.1127L35.0917 29.7416L35.7153 29.3683L33.4217 21.7726L32.7043 21.9893L34.5666 28.1567L29.9927 23.5828L29.4628 24.1127Z" fill="white"/>
</g>
<circle cx="41.0234" cy="39.6651" r="11.4022" fill="#F8BA3A" stroke="white" stroke-width="0.642376"/>
<mask id="mask1_1617_2717" style="mask-type:alpha" maskUnits="userSpaceOnUse" x="29" y="27" width="24" height="25">
<circle cx="41.1303" cy="39.6651" r="11.4022" fill="white" stroke="white" stroke-width="0.642376"/>
</mask>
<g mask="url(#mask1_1617_2717)">
<path fill-rule="evenodd" clip-rule="evenodd" d="M41.6659 27.8346L40.167 39.8792H41.6659L41.077 50.9887L52.0007 49.033L53.9828 33.781L49.1685 29.5476L41.6659 27.8346Z" fill="white"/>
</g>
<path d="M30.5362 38.1573C30.7941 40.2575 32.1604 42.4427 34.2601 42.1849C41.3864 41.3099 40.3851 36.7305 40.2892 35.2473C40.8049 39.4479 43.9952 40.9896 49.3399 40.3333C50.9306 40.138 51.5823 37.0291 51.4062 35.5947C51.1861 33.8018 46.439 33.5397 40.5216 34.2663C34.6042 34.9928 30.2138 35.5319 30.5362 38.1573Z" fill="#01C1AE" stroke="#01C1AE" stroke-width="1.17769" stroke-linecap="round" stroke-linejoin="round"/>
<path d="M41.197 46.8721C43.6798 46.6695 45.5424 44.6651 45.3572 42.3952L36.3662 43.1287C36.5514 45.3987 38.7143 47.0747 41.197 46.8721Z" fill="white"/>
<path fill-rule="evenodd" clip-rule="evenodd" d="M36.0994 43.1505C36.0874 43.0032 36.1971 42.874 36.3444 42.862L45.3354 42.1284C45.4827 42.1164 45.6119 42.2261 45.6239 42.3734C45.8229 44.8127 43.8259 46.9262 41.2188 47.1389C38.6116 47.3516 36.2984 45.5898 36.0994 43.1505ZM36.6648 43.3729C36.9767 45.34 38.9174 46.7896 41.1752 46.6053C43.4331 46.4211 45.1132 44.6762 45.102 42.6845L36.6648 43.3729Z" fill="#FE9D51"/>
<path fill-rule="evenodd" clip-rule="evenodd" d="M42.147 44.4293C42.147 44.3111 42.2428 44.2152 42.3611 44.2152H44.8235C44.9418 44.2152 45.0377 44.3111 45.0377 44.4293C45.0377 44.5476 44.9418 44.6435 44.8235 44.6435H42.3611C42.2428 44.6435 42.147 44.5476 42.147 44.4293Z" fill="#FE9A54"/>
<path d="M43.7 39.3439C41.7728 38.6159 41.0055 36.6852 40.8628 35.8108C40.8628 34.6331 42.2011 34.4725 45.4665 34.4725C48.7319 34.4725 50.7126 34.7402 50.8732 35.5967C51.0337 37.0956 50.4984 39.3439 49.749 39.7186C48.9996 40.0933 46.1089 40.2539 43.7 39.3439Z" fill="black" stroke="black" stroke-width="0.107063"/>
<path d="M38.0311 40.3479C39.5775 39.3286 40.3805 37.3632 39.8988 35.7038C39.6244 34.7586 38.1177 34.9904 35.2951 35.4361C32.7791 35.8334 30.852 36.935 31.0661 37.8985C31.1731 39.4773 32.391 41.1447 33.1003 41.4316C33.8096 41.7185 36.098 41.6219 38.0311 40.3479Z" fill="black" stroke="black" stroke-width="0.107063"/>
<path d="M51.4082 30.7253L52.348 33.2651L54.8878 34.2049L52.348 35.1447L51.4082 37.6844L50.4685 35.1447L47.9287 34.2049L50.4685 33.2651L51.4082 30.7253Z" fill="white"/>
<path d="M63.9061 42.0196C63.9061 42.5054 63.9891 42.9201 64.1549 43.2637C64.3208 43.6073 64.5519 43.8916 64.8481 44.1168C65.1443 44.33 65.4819 44.49 65.8611 44.5966C66.2521 44.6914 66.6727 44.7388 67.1229 44.7388C67.6087 44.7388 68.0234 44.6855 68.367 44.5788C68.7106 44.4604 68.989 44.3122 69.2023 44.1345C69.4156 43.9568 69.5696 43.7554 69.6644 43.5303C69.7592 43.2933 69.8066 43.0563 69.8066 42.8194C69.8066 42.3336 69.694 41.9781 69.4689 41.753C69.2556 41.5161 69.0186 41.3502 68.758 41.2554C68.3078 41.0895 67.7805 40.9355 67.1762 40.7933C66.5838 40.6393 65.8492 40.4438 64.9725 40.2068C64.4274 40.0646 63.9713 39.881 63.604 39.6559C63.2485 39.4189 62.9642 39.1583 62.7509 38.8739C62.5376 38.5895 62.3836 38.2874 62.2888 37.9675C62.2059 37.6476 62.1644 37.3218 62.1644 36.99C62.1644 36.3502 62.2948 35.7993 62.5554 35.3372C62.8279 34.8633 63.1834 34.4723 63.6218 34.1642C64.0601 33.8561 64.5578 33.631 65.1146 33.4889C65.6715 33.3348 66.2343 33.2578 66.803 33.2578C67.4665 33.2578 68.0886 33.3467 68.6691 33.5244C69.2615 33.6903 69.7769 33.945 70.2153 34.2886C70.6656 34.6322 71.021 35.0587 71.2817 35.5682C71.5423 36.0659 71.6727 36.6464 71.6727 37.3099H69.4511C69.3919 36.4924 69.1134 35.9177 68.6158 35.586C68.1182 35.2424 67.4843 35.0706 66.7142 35.0706C66.4535 35.0706 66.1869 35.1002 65.9144 35.1595C65.6419 35.2069 65.3931 35.2957 65.168 35.426C64.9428 35.5445 64.7533 35.7104 64.5992 35.9237C64.4571 36.1369 64.386 36.4035 64.386 36.7234C64.386 37.1737 64.5222 37.5291 64.7947 37.7898C65.0791 38.0386 65.4464 38.2282 65.8966 38.3585C65.944 38.3703 66.1277 38.4237 66.4476 38.5184C66.7793 38.6014 67.1466 38.6962 67.5495 38.8028C67.9523 38.9094 68.3433 39.0161 68.7224 39.1227C69.1134 39.2175 69.3919 39.2886 69.5577 39.336C69.9724 39.4663 70.3338 39.644 70.6419 39.8691C70.9499 40.0943 71.2047 40.3549 71.4061 40.6511C71.6193 40.9355 71.7734 41.2435 71.8682 41.5753C71.9748 41.907 72.0281 42.2388 72.0281 42.5706C72.0281 43.2814 71.88 43.8916 71.5838 44.4011C71.2994 44.8987 70.9203 45.3075 70.4464 45.6274C69.9724 45.9473 69.4333 46.1784 68.8291 46.3205C68.2248 46.4746 67.6087 46.5516 66.9807 46.5516C66.258 46.5516 65.5767 46.4627 64.9369 46.285C64.2971 46.1073 63.7402 45.8348 63.2663 45.4675C62.7924 45.1002 62.4132 44.6322 62.1289 44.0634C61.8445 43.4829 61.6964 42.8016 61.6846 42.0196H63.9061Z" fill="#120222"/>
<path d="M73.8309 33.5599H76.0524V40.9533C76.0524 41.3798 76.0702 41.8123 76.1058 42.2506C76.1532 42.689 76.2716 43.086 76.4612 43.4414C76.6626 43.785 76.9588 44.0694 77.3498 44.2945C77.7527 44.5196 78.3155 44.6322 79.0382 44.6322C79.761 44.6322 80.3178 44.5196 80.7088 44.2945C81.1117 44.0694 81.4079 43.785 81.5974 43.4414C81.7989 43.086 81.9173 42.689 81.9529 42.2506C82.0003 41.8123 82.024 41.3798 82.024 40.9533V33.5599H84.2455V41.6819C84.2455 42.4995 84.1211 43.2104 83.8723 43.8146C83.6235 44.4189 83.268 44.9284 82.806 45.343C82.3557 45.7459 81.8107 46.048 81.1709 46.2494C80.5311 46.4509 79.8202 46.5516 79.0382 46.5516C78.2562 46.5516 77.5453 46.4509 76.9055 46.2494C76.2657 46.048 75.7148 45.7459 75.2527 45.343C74.8025 44.9284 74.4529 44.4189 74.2041 43.8146C73.9553 43.2104 73.8309 42.4995 73.8309 41.6819V33.5599Z" fill="#120222"/>
<path d="M86.7102 33.5599H89.0562L94.85 42.9082H94.8855V33.5599H97.0004V46.2494H94.6545L88.8784 36.9189H88.8251V46.2494H86.7102V33.5599Z" fill="#120222"/>
<defs>
<linearGradient id="paint0_linear_1617_2717" x1="41.0771" y1="23.0168" x2="41.0771" y2="56.2062" gradientUnits="userSpaceOnUse">
<stop stop-color="#F5B745"/>
<stop offset="1" stop-color="#FC8B47"/>
</linearGradient>
</defs>
</svg>
