<svg width="864" height="140" viewBox="0 0 864 140" fill="none" xmlns="http://www.w3.org/2000/svg">
<path d="M85.275 89.775L84.4842 90.505L84.486 90.507L85.275 89.775ZM91.05 96L91.8649 96.703L92.4939 95.974L91.839 95.2681L91.05 96ZM75 107.925L74.5564 106.944L74.5535 106.946L75 107.925ZM31.275 108.225L30.851 109.214L30.8577 109.217L31.275 108.225ZM15.15 96.975L14.357 97.7026L14.3608 97.7067L15.15 96.975ZM4.8 79.575L5.81165 79.2078L4.8 79.575ZM4.95 35.025L5.95678 35.4053V35.4053L4.95 35.025ZM15.675 17.625L14.8981 16.8802L14.8941 16.8844L15.675 17.625ZM32.325 6.37499L32.734 7.37049L32.7406 7.36775L32.325 6.37499ZM73.95 5.99999L74.3657 5.00731L73.95 5.99999ZM89.4 15.975L90.2738 16.6033L90.8236 15.8387L90.1387 15.1923L89.4 15.975ZM84.6 22.65L83.7262 22.0217L83.7001 22.058L83.6771 22.0963L84.6 22.65ZM83.4 23.925L83.997 24.8205L84.0072 24.8137L84.0172 24.8067L83.4 23.925ZM78.225 22.95L77.5688 23.803L77.5793 23.8111L77.59 23.8189L78.225 22.95ZM73.125 19.65L73.659 18.7156L73.125 19.65ZM65.25 16.425L64.9244 17.4508L64.9318 17.4531L64.9393 17.4554L65.25 16.425ZM38.4 17.85L38.8109 18.8447L38.82 18.8409L38.4 17.85ZM26.475 26.175L25.6821 25.4473L25.6767 25.4532L26.475 26.175ZM18.825 75.225L17.813 75.5913L17.8161 75.5997L18.825 75.225ZM26.7 88.575L25.9017 89.2968L25.9069 89.3025L25.9121 89.3082L26.7 88.575ZM38.475 96.825L38.0564 97.8165L38.0603 97.8181L38.475 96.825ZM61.8 99.15L61.9464 100.216L61.955 100.215L61.9637 100.214L61.8 99.15ZM68.925 97.35L68.5572 96.3385L68.5497 96.3413L68.925 97.35ZM75 94.35L75.5857 95.2529L75.5915 95.2491L75 94.35ZM80.625 89.925L79.9129 89.118L79.9048 89.1252L79.8968 89.1325L80.625 89.925ZM83.175 89.8762C83.6411 89.8762 84.064 90.0498 84.4842 90.505L86.0658 89.045C85.286 88.2002 84.3089 87.7238 83.175 87.7238V89.8762ZM84.486 90.507L90.261 96.7319L91.839 95.2681L86.064 89.043L84.486 90.507ZM90.2351 95.297C85.94 100.275 80.7179 104.157 74.5564 106.944L75.4436 108.906C81.8821 105.993 87.36 101.925 91.8649 96.703L90.2351 95.297ZM74.5535 106.946C68.4786 109.716 61.0646 111.124 52.275 111.124V113.276C61.2854 113.276 69.0214 111.834 75.4465 108.904L74.5535 106.946ZM52.275 111.124C44.7002 111.124 37.8445 109.821 31.6923 107.233L30.8577 109.217C37.3055 111.929 44.4498 113.276 52.275 113.276V111.124ZM31.6989 107.236C25.5307 104.592 20.282 100.928 15.9392 96.2433L14.3608 97.7067C18.918 102.622 24.4193 106.458 30.8511 109.214L31.6989 107.236ZM15.943 96.2474C11.5973 91.5111 8.21767 85.8366 5.81165 79.2078L3.78835 79.9422C6.28233 86.8134 9.80266 92.7389 14.357 97.7026L15.943 96.2474ZM5.81165 79.2078C3.40947 72.5896 2.20123 65.2906 2.20123 57.3H0.0487738C0.0487738 65.5093 1.29053 73.0604 3.78835 79.9422L5.81165 79.2078ZM2.20123 57.3C2.20123 49.3141 3.45798 42.0198 5.95678 35.4053L3.94322 34.6447C1.34202 41.5302 0.0487738 49.0859 0.0487738 57.3H2.20123ZM5.95678 35.4053C8.46025 28.7785 11.962 23.1037 16.4559 18.3656L14.8941 16.8844C10.188 21.8463 6.53975 27.7715 3.94322 34.6447L5.95678 35.4053ZM16.4519 18.3698C20.9941 13.6322 26.4174 9.96568 32.734 7.37048L31.916 5.37951C25.3326 8.08431 19.6559 11.9178 14.8981 16.8802L16.4519 18.3698ZM32.7406 7.36775C39.0446 4.72887 46.0262 3.40122 53.7 3.40122V1.24876C45.7738 1.24876 38.5055 2.62111 31.9094 5.38224L32.7406 7.36775ZM53.7 3.40122C61.236 3.40122 67.8401 4.60794 73.5343 6.99268L74.3657 5.00731C68.3599 2.49204 61.464 1.24876 53.7 1.24876V3.40122ZM73.5343 6.99268C79.2693 9.39452 84.3089 12.6498 88.6613 16.7577L90.1387 15.1923C85.5911 10.9002 80.3307 7.50547 74.3657 5.00731L73.5343 6.99268ZM88.5262 15.3467L83.7262 22.0217L85.4738 23.2783L90.2738 16.6033L88.5262 15.3467ZM83.6771 22.0963C83.4585 22.4607 83.1649 22.7758 82.7828 23.0433L84.0172 24.8067C84.6351 24.3742 85.1415 23.8393 85.5229 23.2037L83.6771 22.0963ZM82.803 23.0295C82.5957 23.1678 82.2086 23.2988 81.525 23.2988V25.4512C82.4414 25.4512 83.3044 25.2822 83.997 24.8205L82.803 23.0295ZM81.525 23.2988C80.9725 23.2988 80.1036 22.9898 78.86 22.0811L77.59 23.8189C78.9464 24.8102 80.2775 25.4512 81.525 25.4512V23.2988ZM78.8812 22.097C77.5288 21.0567 75.7836 19.9296 73.659 18.7156L72.591 20.5844C74.6664 21.7704 76.3212 22.8433 77.5688 23.803L78.8812 22.097ZM73.659 18.7156C71.4683 17.4638 68.7627 16.3603 65.5608 15.3946L64.9393 17.4554C68.0373 18.3897 70.5817 19.4362 72.591 20.5844L73.659 18.7156ZM65.5756 15.3992C62.2881 14.3556 58.2956 13.8488 53.625 13.8488V16.0012C58.1544 16.0012 61.9119 16.4944 64.9244 17.4508L65.5756 15.3992ZM53.625 13.8488C47.9467 13.8488 42.7268 14.8469 37.98 16.8591L38.82 18.8409C43.2732 16.9531 48.2033 16.0012 53.625 16.0012V13.8488ZM37.9891 16.8553C33.2445 18.815 29.1389 21.6809 25.6821 25.4473L27.2679 26.9027C30.5111 23.3691 34.3555 20.685 38.8109 18.8447L37.9891 16.8553ZM25.6767 25.4532C22.2693 29.222 19.6262 33.8004 17.735 39.1673L19.7651 39.8827C21.5738 34.7496 24.0807 30.428 27.2733 26.8968L25.6767 25.4532ZM17.735 39.1673C15.8377 44.5513 14.8988 50.6002 14.8988 57.3H17.0512C17.0512 50.7998 17.9623 44.9987 19.7651 39.8827L17.735 39.1673ZM14.8988 57.3C14.8988 64.1006 15.863 70.203 17.813 75.5912L19.837 74.8587C17.987 69.747 17.0512 63.8994 17.0512 57.3H14.8988ZM17.8161 75.5997C19.8071 80.9602 22.4984 85.5325 25.9017 89.2968L27.4983 87.8532C24.3017 84.3175 21.7429 79.9898 19.8339 74.8503L17.8161 75.5997ZM25.9121 89.3082C29.3649 93.0186 33.4155 95.857 38.0564 97.8165L38.8936 95.8335C34.5345 93.993 30.7351 91.3314 27.4879 87.8418L25.9121 89.3082ZM38.0603 97.8181C42.75 99.7765 47.792 100.751 53.175 100.751V98.5988C48.058 98.5988 43.3 97.6735 38.8897 95.8319L38.0603 97.8181ZM53.175 100.751C56.4127 100.751 59.3379 100.574 61.9464 100.216L61.6537 98.0838C59.1621 98.4257 56.3373 98.5988 53.175 98.5988V100.751ZM61.9637 100.214C64.6256 99.8042 67.0727 99.1875 69.3003 98.3587L68.5497 96.3413C66.4773 97.1125 64.1744 97.6958 61.6364 98.0863L61.9637 100.214ZM69.2928 98.3614C71.5646 97.5353 73.6633 96.4998 75.5857 95.2529L74.4143 93.4471C72.6367 94.6002 70.6854 95.5647 68.5572 96.3386L69.2928 98.3614ZM75.5915 95.2491C77.5446 93.9642 79.465 92.4526 81.3532 90.7175L79.8968 89.1325C78.0851 90.7974 76.2554 92.2358 74.4085 93.4509L75.5915 95.2491ZM81.3371 90.732C82.057 90.0968 82.6641 89.8762 83.175 89.8762V87.7238C81.9859 87.7238 80.8931 88.2532 79.9129 89.118L81.3371 90.732ZM150.33 36.6L149.917 37.5938L150.33 36.6ZM161.73 44.475L160.941 45.2064L161.73 44.475ZM168.93 56.85L167.912 57.1966L167.916 57.2093L168.93 56.85ZM168.93 89.175L167.916 88.8157L167.913 88.8251L168.93 89.175ZM161.73 101.475L160.941 100.744L161.73 101.475ZM150.33 109.35L150.734 110.348L150.744 110.344L150.33 109.35ZM120.18 109.35L119.767 110.344L119.774 110.347L119.781 110.349L120.18 109.35ZM108.78 101.475L109.57 100.744L108.78 101.475ZM101.505 89.175L100.488 89.5249L100.491 89.5343L101.505 89.175ZM101.505 56.85L100.49 56.494L100.488 56.5001L101.505 56.85ZM108.78 44.475L109.57 45.2064L108.78 44.475ZM120.18 36.6L119.771 35.6046L119.767 35.6062L120.18 36.6ZM152.13 94.125L152.996 94.7652L152.999 94.7611L152.13 94.125ZM125.355 46.275L124.909 45.2958L124.902 45.2989L125.355 46.275ZM118.305 51.9L117.455 51.2404L117.447 51.2515L118.305 51.9ZM114.105 60.975L113.065 60.7004L113.062 60.7105L114.105 60.975ZM118.305 94.125L117.437 94.7611L117.444 94.7707L118.305 94.125ZM135.33 34.9012C140.76 34.9012 145.617 35.8058 149.917 37.5938L150.744 35.6062C146.144 33.6942 141.001 32.7488 135.33 32.7488V34.9012ZM149.917 37.5938C154.23 39.3868 157.9 41.9244 160.941 45.2064L162.52 43.7436C159.261 40.2256 155.331 37.5132 150.744 35.6062L149.917 37.5938ZM160.941 45.2064C163.978 48.4845 166.305 52.4744 167.912 57.1966L169.949 56.5034C168.256 51.5256 165.783 47.2655 162.52 43.7436L160.941 45.2064ZM167.916 57.2093C169.569 61.8763 170.404 67.1272 170.404 72.975H172.557C172.557 66.9228 171.692 61.4237 169.945 56.4907L167.916 57.2093ZM170.404 72.975C170.404 78.8739 169.569 84.1496 167.916 88.8157L169.945 89.5343C171.692 84.6004 172.557 79.0761 172.557 72.975H170.404ZM167.913 88.8251C166.307 93.497 163.98 97.4636 160.941 100.744L162.52 102.206C165.781 98.6864 168.254 94.453 169.948 89.5249L167.913 88.8251ZM160.941 100.744C157.9 104.026 154.23 106.563 149.917 108.356L150.744 110.344C155.331 108.437 159.261 105.724 162.52 102.206L160.941 100.744ZM149.927 108.352C145.624 110.093 140.764 110.974 135.33 110.974V113.126C140.997 113.126 146.137 112.207 150.734 110.348L149.927 108.352ZM135.33 110.974C129.846 110.974 124.935 110.093 120.58 108.351L119.781 110.349C124.426 112.207 129.615 113.126 135.33 113.126V110.974ZM120.594 108.356C116.281 106.563 112.611 104.026 109.57 100.744L107.991 102.206C111.25 105.724 115.18 108.437 119.767 110.344L120.594 108.356ZM109.57 100.744C106.529 97.4612 104.176 93.4913 102.52 88.8157L100.491 89.5343C102.235 94.4586 104.732 98.6888 107.991 102.206L109.57 100.744ZM102.523 88.8251C100.918 84.1561 100.107 78.8771 100.107 72.975H97.9542C97.9542 79.0729 98.7927 84.5939 100.488 89.5249L102.523 88.8251ZM100.107 72.975C100.107 67.124 100.918 61.8698 102.523 57.1999L100.488 56.5001C98.793 61.4302 97.9542 66.926 97.9542 72.975H100.107ZM102.521 57.206C104.178 52.4801 106.531 48.4869 109.57 45.2064L107.991 43.7436C104.73 47.2631 102.233 51.5199 100.49 56.494L102.521 57.206ZM109.57 45.2064C112.611 41.9244 116.281 39.3868 120.594 37.5938L119.767 35.6062C115.18 37.5132 111.25 40.2256 107.991 43.7436L109.57 45.2064ZM120.59 37.5954C124.942 35.8062 129.85 34.9012 135.33 34.9012V32.7488C129.611 32.7488 124.419 33.6938 119.771 35.6046L120.59 37.5954ZM135.33 102.701C143.093 102.701 149.05 100.097 152.996 94.7652L151.265 93.4848C147.811 98.1527 142.568 100.549 135.33 100.549V102.701ZM152.999 94.7611C156.881 89.4615 158.757 82.1823 158.757 73.05H156.604C156.604 81.9177 154.78 88.6885 151.262 93.4889L152.999 94.7611ZM158.757 73.05C158.757 63.8693 156.882 56.5643 152.999 51.2639L151.262 52.5361C154.779 57.3357 156.604 64.1307 156.604 73.05H158.757ZM152.999 51.2639C149.054 45.8807 143.097 43.2488 135.33 43.2488V45.4012C142.564 45.4012 147.806 47.8193 151.262 52.5361L152.999 51.2639ZM135.33 43.2488C131.409 43.2488 127.926 43.9197 124.909 45.2958L125.802 47.2542C128.485 46.0303 131.652 45.4012 135.33 45.4012V43.2488ZM124.902 45.2989C121.946 46.6715 119.46 48.6553 117.455 51.2405L119.156 52.5595C120.951 50.2446 123.165 48.4785 125.809 47.2511L124.902 45.2989ZM117.447 51.2515C115.496 53.8341 114.043 56.9932 113.065 60.7004L115.146 61.2496C116.068 57.7568 117.415 54.8659 119.164 52.5485L117.447 51.2515ZM113.062 60.7105C112.136 64.364 111.679 68.4803 111.679 73.05H113.832C113.832 68.6197 114.275 64.686 115.149 61.2395L113.062 60.7105ZM111.679 73.05C111.679 82.1823 113.555 89.4615 117.437 94.7611L119.174 93.4889C115.656 88.6885 113.832 81.9177 113.832 73.05H111.679ZM117.444 94.7707C121.442 100.101 127.474 102.701 135.33 102.701V100.549C127.987 100.549 122.669 98.1488 119.166 93.4793L117.444 94.7707ZM188.413 111H187.337V112.076H188.413V111ZM188.413 35.025V33.9488H187.337V35.025H188.413ZM199.963 37.8L201.031 37.6665L201.023 37.6054L201.009 37.5456L199.963 37.8ZM200.938 45.6L199.87 45.7335L200.183 48.2379L201.774 46.2782L200.938 45.6ZM210.388 37.125L209.815 36.2138L210.388 37.125ZM234.913 38.1L234.191 38.8981L234.197 38.9037L234.913 38.1ZM241.813 49.65L240.779 49.9485L241.648 52.9598L242.812 50.0497L241.813 49.65ZM246.013 42.525L245.203 41.8163L245.198 41.8221L245.193 41.828L246.013 42.525ZM251.863 37.575L251.306 36.654L251.863 37.575ZM258.688 34.725L258.432 33.6796L258.427 33.6809L258.688 34.725ZM276.763 35.775L276.347 36.7675L276.356 36.7715L276.366 36.7753L276.763 35.775ZM284.713 41.325L283.904 42.0349L283.912 42.0441L284.713 41.325ZM289.738 50.4L288.713 50.7275L288.714 50.7317L289.738 50.4ZM291.463 111V112.076H292.539V111H291.463ZM278.038 111H276.962V112.076H278.038V111ZM274.138 49.125L273.313 49.8166L273.319 49.8232L274.138 49.125ZM256.588 45.675L256.974 46.6795L256.981 46.6769L256.988 46.6742L256.588 45.675ZM251.413 49.05L252.174 49.811L251.413 49.05ZM247.813 54.75L246.811 54.3578L246.806 54.3697L247.813 54.75ZM246.538 111V112.076H247.614V111H246.538ZM233.113 111H232.037V112.076H233.113V111ZM229.438 48.975L228.604 49.6557L229.438 48.975ZM209.563 47.175L210.133 48.0877L210.145 48.0803L209.563 47.175ZM201.838 54.375L200.985 53.7181L200.762 54.0085V54.375H201.838ZM201.838 111V112.076H202.914V111H201.838ZM189.489 111V35.025H187.337V111H189.489ZM188.413 36.1012H196.438V33.9488H188.413V36.1012ZM196.438 36.1012C197.213 36.1012 197.727 36.2877 198.078 36.5644C198.43 36.8413 198.733 37.2986 198.917 38.0544L201.009 37.5456C200.742 36.4514 200.233 35.5212 199.41 34.8731C198.586 34.2248 197.563 33.9488 196.438 33.9488V36.1012ZM198.895 37.9335L199.87 45.7335L202.006 45.4665L201.031 37.6665L198.895 37.9335ZM201.774 46.2782C204.505 42.9129 207.568 40.1689 210.961 38.0362L209.815 36.2138C206.208 38.4811 202.971 41.3871 200.102 44.9218L201.774 46.2782ZM210.961 38.0362C214.27 35.9559 218.117 34.9012 222.538 34.9012V32.7488C217.759 32.7488 213.506 33.8941 209.815 36.2138L210.961 38.0362ZM222.538 34.9012C227.427 34.9012 231.277 36.2616 234.191 38.8981L235.635 37.3019C232.249 34.2383 227.848 32.7488 222.538 32.7488V34.9012ZM234.197 38.9037C237.22 41.5962 239.425 45.2583 240.779 49.9485L242.847 49.3515C241.401 44.3417 239.006 40.3038 235.629 37.2963L234.197 38.9037ZM242.812 50.0497C243.874 47.3941 245.217 45.1227 246.833 43.222L245.193 41.828C243.408 43.9273 241.951 46.4059 240.814 49.2503L242.812 50.0497ZM246.823 43.2337C248.504 41.3122 250.37 39.7354 252.42 38.496L251.306 36.654C249.056 38.0146 247.022 39.7378 245.203 41.8163L246.823 43.2337ZM252.42 38.496C254.479 37.2507 256.655 36.3426 258.949 35.7691L258.427 33.6809C255.921 34.3074 253.547 35.2993 251.306 36.654L252.42 38.496ZM258.944 35.7703C261.311 35.1907 263.7 34.9012 266.113 34.9012V32.7488C263.526 32.7488 260.965 33.0593 258.432 33.6797L258.944 35.7703ZM266.113 34.9012C269.997 34.9012 273.401 35.5322 276.347 36.7675L277.179 34.7825C273.925 33.4178 270.229 32.7488 266.113 32.7488V34.9012ZM276.366 36.7753C279.364 37.9651 281.871 39.7181 283.904 42.0349L285.522 40.6151C283.255 38.0319 280.462 36.0849 277.16 34.7747L276.366 36.7753ZM283.912 42.0441C285.997 44.3653 287.602 47.2511 288.713 50.7275L290.763 50.0725C289.574 46.3489 287.829 43.1847 285.514 40.6059L283.912 42.0441ZM288.714 50.7317C289.822 54.153 290.387 58.1125 290.387 62.625H292.539C292.539 57.9375 291.953 53.747 290.762 50.0683L288.714 50.7317ZM290.387 62.625V111H292.539V62.625H290.387ZM291.463 109.924H278.038V112.076H291.463V109.924ZM279.114 111V62.625H276.962V111H279.114ZM279.114 62.625C279.114 56.5394 277.787 51.7468 274.957 48.4268L273.319 49.8232C275.689 52.6031 276.962 56.8106 276.962 62.625H279.114ZM274.962 48.4334C272.115 45.0382 268.032 43.3988 262.888 43.3988V45.5512C267.543 45.5512 270.961 47.0118 273.313 49.8166L274.962 48.4334ZM262.888 43.3988C260.554 43.3988 258.318 43.8238 256.188 44.6757L256.988 46.6742C258.858 45.9262 260.822 45.5512 262.888 45.5512V43.3988ZM256.202 44.6705C254.109 45.4754 252.257 46.6842 250.652 48.289L252.174 49.811C253.569 48.4158 255.167 47.3746 256.974 46.6795L256.202 44.6705ZM250.652 48.289C249.031 49.9098 247.756 51.942 246.811 54.3578L248.815 55.1422C249.67 52.9579 250.795 51.1902 252.174 49.811L250.652 48.289ZM246.806 54.3697C245.9 56.7671 245.462 59.526 245.462 62.625H247.614C247.614 59.724 248.025 57.2329 248.82 55.1303L246.806 54.3697ZM245.462 62.625V111H247.614V62.625H245.462ZM246.538 109.924H233.113V112.076H246.538V109.924ZM234.189 111V62.625H232.037V111H234.189ZM234.189 62.625C234.189 56.4112 232.946 51.5696 230.271 48.2943L228.604 49.6557C230.829 52.3804 232.037 56.6388 232.037 62.625H234.189ZM230.271 48.2943C227.573 44.9905 223.66 43.3988 218.713 43.3988V45.5512C223.166 45.5512 226.402 46.9595 228.604 49.6557L230.271 48.2943ZM218.713 43.3988C215.205 43.3988 211.953 44.3591 208.981 46.2697L210.145 48.0803C212.773 46.3909 215.621 45.5512 218.713 45.5512V43.3988ZM208.992 46.2624C206.068 48.0904 203.401 50.5833 200.985 53.7181L202.69 55.0319C204.975 52.0667 207.458 49.7596 210.133 48.0876L208.992 46.2624ZM200.762 54.375V111H202.914V54.375H200.762ZM201.838 109.924H188.413V112.076H201.838V109.924ZM325.853 35.025H326.929V33.9488H325.853V35.025ZM325.853 111V112.076H326.929V111H325.853ZM312.503 111H311.427V112.076H312.503V111ZM312.503 35.025V33.9488H311.427V35.025H312.503ZM327.878 14.85L326.907 14.3857L326.902 14.3951L326.898 14.4046L327.878 14.85ZM325.778 17.85L325.017 17.089L325.778 17.85ZM322.703 19.875L322.289 18.8816L322.281 18.8847L322.274 18.888L322.703 19.875ZM315.353 19.875L314.907 20.8548L314.915 20.8584L314.924 20.862L315.353 19.875ZM312.428 17.85L311.645 18.589L311.656 18.6001L311.667 18.611L312.428 17.85ZM310.403 14.85L309.416 15.2791L309.419 15.2873L309.423 15.2953L310.403 14.85ZM310.403 7.49999L311.39 7.92911L311.393 7.92154L311.396 7.91393L310.403 7.49999ZM312.428 4.42499L313.189 5.186L313.2 5.17513L313.21 5.16396L312.428 4.42499ZM315.353 2.32499L314.924 1.33802L314.915 1.34156L314.907 1.34523L315.353 2.32499ZM322.703 2.32499L322.274 3.31197L322.281 3.31525L322.289 3.31843L322.703 2.32499ZM325.778 4.42499L324.995 5.16396L325.016 5.18631L325.039 5.20742L325.778 4.42499ZM327.878 7.49999L326.884 7.91393L326.895 7.93942L326.907 7.96434L327.878 7.49999ZM324.777 35.025V111H326.929V35.025H324.777ZM325.853 109.924H312.503V112.076H325.853V109.924ZM313.579 111V35.025H311.427V111H313.579ZM312.503 36.1012H325.853V33.9488H312.503V36.1012ZM327.626 11.175C327.626 12.3176 327.386 13.3836 326.907 14.3857L328.849 15.3143C329.469 14.0164 329.779 12.6324 329.779 11.175H327.626ZM326.898 14.4046C326.454 15.381 325.83 16.2753 325.017 17.089L326.539 18.611C327.525 17.6247 328.301 16.519 328.857 15.2953L326.898 14.4046ZM325.017 17.089C324.274 17.8317 323.37 18.4312 322.289 18.8816L323.117 20.8684C324.436 20.3188 325.581 19.5683 326.539 18.611L325.017 17.089ZM322.274 18.888C321.264 19.327 320.186 19.5488 319.028 19.5488V21.7012C320.47 21.7012 321.841 21.423 323.132 20.862L322.274 18.888ZM319.028 19.5488C317.87 19.5488 316.791 19.327 315.782 18.888L314.924 20.862C316.214 21.423 317.586 21.7012 319.028 21.7012V19.5488ZM315.798 18.8952C314.815 18.4484 313.947 17.8473 313.189 17.089L311.667 18.611C312.608 19.5527 313.691 20.3016 314.907 20.8548L315.798 18.8952ZM313.21 17.111C312.44 16.2952 311.832 15.3939 311.383 14.4046L309.423 15.2953C309.973 16.5061 310.716 17.6048 311.645 18.589L313.21 17.111ZM311.39 14.4209C310.951 13.4113 310.729 12.3329 310.729 11.175H308.577C308.577 12.6171 308.855 13.9887 309.416 15.2791L311.39 14.4209ZM310.729 11.175C310.729 10.0171 310.951 8.93872 311.39 7.92911L309.416 7.07087C308.855 8.36127 308.577 9.73288 308.577 11.175H310.729ZM311.396 7.91393C311.847 6.83303 312.446 5.92875 313.189 5.186L311.667 3.66399C310.709 4.62124 309.959 5.76696 309.409 7.08606L311.396 7.91393ZM313.21 5.16396C313.967 4.36275 314.828 3.74565 315.798 3.30475L314.907 1.34523C313.677 1.90435 312.589 2.68724 311.645 3.68603L313.21 5.16396ZM315.782 3.31197C316.791 2.87301 317.87 2.65122 319.028 2.65122V0.498764C317.586 0.498764 316.214 0.776974 314.924 1.33802L315.782 3.31197ZM319.028 2.65122C320.186 2.65122 321.264 2.87301 322.274 3.31197L323.132 1.33802C321.841 0.776974 320.47 0.498764 319.028 0.498764V2.65122ZM322.289 3.31843C323.357 3.76336 324.254 4.37917 324.995 5.16396L326.56 3.68603C325.601 2.67083 324.449 1.88663 323.117 1.33155L322.289 3.31843ZM325.039 5.20742C325.824 5.94862 326.439 6.84612 326.884 7.91393L328.871 7.08606C328.316 5.75387 327.532 4.60137 326.517 3.64256L325.039 5.20742ZM326.907 7.96434C327.386 8.96642 327.626 10.0324 327.626 11.175H329.779C329.779 9.71758 329.469 8.33356 328.849 7.03565L326.907 7.96434ZM360.388 46.05L359.32 46.1859L359.619 48.5295L361.191 46.7663L360.388 46.05ZM365.638 41.025L366.316 41.861L365.638 41.025ZM371.488 37.2L371.979 38.1579L371.987 38.1534L371.488 37.2ZM378.088 34.725L378.338 35.7717L378.346 35.7698L378.354 35.7678L378.088 34.725ZM396.613 35.925L396.176 36.9085L396.185 36.9126L396.195 36.9166L396.613 35.925ZM404.563 41.775L403.732 42.4592L403.739 42.468L403.747 42.4767L404.563 41.775ZM409.438 50.85L410.466 50.5315L409.438 50.85ZM411.088 111V112.076H412.164V111H411.088ZM397.663 111H396.587V112.076H397.663V111ZM393.688 49.275L392.853 49.9537L392.858 49.9608L392.864 49.9678L393.688 49.275ZM370.663 47.325L370.144 46.3823L370.138 46.3855L370.663 47.325ZM361.213 55.05L360.41 54.3335L360.137 54.6396V55.05H361.213ZM361.213 111V112.076H362.289V111H361.213ZM347.788 111H346.712V112.076H347.788V111ZM347.788 35.025V33.9488H346.712V35.025H347.788ZM359.338 37.8L360.406 37.6641L360.398 37.6043L360.384 37.5456L359.338 37.8ZM361.191 46.7663C362.804 44.9578 364.512 43.3231 366.316 41.861L364.96 40.189C363.063 41.7269 361.272 43.4422 359.585 45.3336L361.191 46.7663ZM366.316 41.861C368.11 40.4064 369.997 39.1727 371.979 38.1579L370.997 36.2421C368.879 37.3273 366.866 38.6436 364.96 40.189L366.316 41.861ZM371.987 38.1534C374.009 37.0946 376.125 36.301 378.338 35.7717L377.838 33.6783C375.451 34.249 373.167 35.1054 370.989 36.2466L371.987 38.1534ZM378.354 35.7678C380.608 35.1923 383.043 34.9012 385.663 34.9012V32.7488C382.883 32.7488 380.268 33.0577 377.822 33.6822L378.354 35.7678ZM385.663 34.9012C389.692 34.9012 393.189 35.5808 396.176 36.9085L397.05 34.9415C393.737 33.4692 389.933 32.7488 385.663 32.7488V34.9012ZM396.195 36.9166C399.243 38.2025 401.748 40.0504 403.732 42.4592L405.394 41.0908C403.177 38.3996 400.383 36.3475 397.031 34.9334L396.195 36.9166ZM403.747 42.4767C405.789 44.8515 407.348 47.7415 408.41 51.1685L410.466 50.5315C409.328 46.8585 407.637 43.6985 405.379 41.0733L403.747 42.4767ZM408.41 51.1685C409.473 54.6007 410.012 58.4164 410.012 62.625H412.164C412.164 58.2336 411.602 54.1993 410.466 50.5315L408.41 51.1685ZM410.012 62.625V111H412.164V62.625H410.012ZM411.088 109.924H397.663V112.076H411.088V109.924ZM398.739 111V62.625H396.587V111H398.739ZM398.739 62.625C398.739 56.7212 397.379 51.9908 394.511 48.5822L392.864 49.9678C395.297 52.8592 396.587 57.0288 396.587 62.625H398.739ZM394.523 48.5963C391.661 45.0738 387.333 43.3988 381.763 43.3988V45.5512C386.893 45.5512 390.515 47.0762 392.853 49.9537L394.523 48.5963ZM381.763 43.3988C377.632 43.3988 373.753 44.3944 370.144 46.3823L371.182 48.2677C374.473 46.4556 377.994 45.5512 381.763 45.5512V43.3988ZM370.138 46.3855C366.622 48.3503 363.38 51.0047 360.41 54.3335L362.016 55.7665C364.846 52.5953 367.904 50.0997 371.188 48.2645L370.138 46.3855ZM360.137 55.05V111H362.289V55.05H360.137ZM361.213 109.924H347.788V112.076H361.213V109.924ZM348.864 111V35.025H346.712V111H348.864ZM347.788 36.1012H355.813V33.9488H347.788V36.1012ZM355.813 36.1012C356.588 36.1012 357.102 36.2877 357.453 36.5644C357.805 36.8413 358.108 37.2986 358.292 38.0544L360.384 37.5456C360.117 36.4514 359.608 35.5212 358.785 34.8731C357.961 34.2248 356.938 33.9488 355.813 33.9488V36.1012ZM358.27 37.9359L359.32 46.1859L361.456 45.9141L360.406 37.6641L358.27 37.9359ZM465.03 72.75L464.661 71.7393L465.03 72.75ZM473.355 64.8L474.362 65.1809L474.365 65.1721L473.355 64.8ZM470.13 47.475L469.376 48.2429L469.383 48.2495L470.13 47.475ZM445.53 47.475L444.783 46.7005L444.776 46.7072L445.53 47.475ZM442.38 64.8L441.371 65.1721L441.377 65.1883L441.383 65.2043L442.38 64.8ZM450.78 72.75L451.15 71.7393L450.78 72.75ZM480.405 110.625L479.611 111.351L480.405 110.625ZM476.13 107.925L475.756 108.934L475.765 108.937L476.13 107.925ZM469.98 106.575L469.844 107.643L469.855 107.644L469.867 107.645L469.98 106.575ZM462.48 105.9L462.418 106.974L462.42 106.975L462.48 105.9ZM454.53 105.45L454.471 106.525L454.53 105.45ZM446.73 104.7L446.88 103.634L446.565 103.59L446.277 103.724L446.73 104.7ZM439.83 109.65L439.031 108.93L439.03 108.931L439.83 109.65ZM438.48 121.275L437.552 121.819L437.558 121.829L438.48 121.275ZM442.53 125.1L443.092 124.182L443.082 124.176L443.073 124.17L442.53 125.1ZM449.28 127.65L449.528 126.603L449.521 126.601L449.514 126.599L449.28 127.65ZM468.63 127.65L468.87 128.699L468.63 127.65ZM475.83 124.875L475.277 123.952L475.266 123.958L475.83 124.875ZM480.405 120.6L479.497 120.022L480.405 120.6ZM495.555 38.025H496.632V36.9488H495.555V38.025ZM492.405 46.125L492.545 47.1922L492.588 47.1865L492.631 47.1773L492.405 46.125ZM483.78 47.25L483.641 46.1828L482.122 46.381L482.824 47.7429L483.78 47.25ZM484.155 68.325L483.183 67.8629L483.18 67.8699L484.155 68.325ZM478.305 76.05L477.604 75.234L478.305 76.05ZM447.855 81.45L448.136 80.4109L447.683 80.2887L447.285 80.5374L447.855 81.45ZM444.18 84.675L445.032 85.3331L445.039 85.324L445.046 85.3147L444.18 84.675ZM445.08 92.175L444.491 93.0752L444.508 93.0869L444.527 93.0979L445.08 92.175ZM459.105 94.875L459.07 95.9507L459.071 95.9507L459.105 94.875ZM468.555 95.4L468.472 96.473L468.48 96.4736L468.489 96.4742L468.555 95.4ZM478.005 96.525L477.814 97.5842L477.817 97.5847L478.005 96.525ZM492.03 104.4L491.132 104.992L491.137 104.999L491.141 105.006L492.03 104.4ZM491.805 122.4L490.859 121.888L490.852 121.9L491.805 122.4ZM484.83 130.5L484.174 129.647L484.165 129.654L484.83 130.5ZM473.58 136.2L473.257 135.173L473.251 135.176L473.244 135.178L473.58 136.2ZM444.105 136.725L443.83 137.765L444.105 136.725ZM433.755 132.3L433.155 133.193L433.755 132.3ZM427.53 125.85L426.592 126.378L426.596 126.384L427.53 125.85ZM429.03 108.75L429.829 109.472L429.03 108.75ZM438.705 102.525L439.086 103.532L441.536 102.605L439.143 101.542L438.705 102.525ZM433.305 98.55L432.451 99.2038L432.461 99.2178L432.473 99.2315L433.305 98.55ZM431.955 88.35L432.972 88.7036L432.976 88.6903L431.955 88.35ZM433.755 84.825L432.877 84.2029L432.872 84.2104L433.755 84.825ZM441.03 78.675L441.512 79.6376L443.329 78.7288L441.556 77.736L441.03 78.675ZM432.255 70.35L431.333 70.9037L431.336 70.9096L432.255 70.35ZM431.205 48.15L430.233 47.6879L430.23 47.6949L431.205 48.15ZM437.205 40.425L437.89 41.2558L437.899 41.2478L437.205 40.425ZM446.28 35.475L445.949 34.4511L445.945 34.4525L446.28 35.475ZM467.13 34.875L466.857 35.9158L466.865 35.918L466.874 35.9202L467.13 34.875ZM474.93 38.025L474.38 38.9496L474.634 39.1012H474.93V38.025ZM457.905 74.9512C460.703 74.9512 463.207 74.5629 465.4 73.7607L464.661 71.7393C462.753 72.437 460.508 72.7988 457.905 72.7988V74.9512ZM465.4 73.7607C467.574 72.9655 469.432 71.8409 470.953 70.3747L469.458 68.8253C468.179 70.0591 466.587 71.0345 464.661 71.7393L465.4 73.7607ZM470.953 70.3747C472.469 68.9123 473.607 67.1771 474.362 65.1809L472.349 64.4191C471.704 66.1229 470.742 67.5877 469.458 68.8253L470.953 70.3747ZM474.365 65.1721C475.114 63.1404 475.482 60.9379 475.482 58.575H473.329C473.329 60.7121 472.997 62.6596 472.346 64.4279L474.365 65.1721ZM475.482 58.575C475.482 53.688 473.975 49.6887 470.878 46.7005L469.383 48.2495C471.986 50.7613 473.329 54.162 473.329 58.575H475.482ZM470.885 46.7072C467.819 43.6966 463.433 42.2738 457.905 42.2738V44.4262C463.078 44.4262 466.842 45.7534 469.376 48.2428L470.885 46.7072ZM457.905 42.2738C452.33 42.2738 447.898 43.6955 444.783 46.7005L446.278 48.2495C448.863 45.7545 452.681 44.4262 457.905 44.4262V42.2738ZM444.776 46.7072C441.733 49.6966 440.254 53.6937 440.254 58.575H442.407C442.407 54.1563 443.728 50.7534 446.285 48.2428L444.776 46.7072ZM440.254 58.575C440.254 60.9379 440.622 63.1404 441.371 65.1721L443.39 64.4279C442.739 62.6596 442.407 60.7121 442.407 58.575H440.254ZM441.383 65.2043C442.188 67.1902 443.347 68.9173 444.858 70.3747L446.353 68.8253C445.064 67.5827 444.073 66.1098 443.378 64.3957L441.383 65.2043ZM444.858 70.3747C446.379 71.8409 448.237 72.9655 450.411 73.7607L451.15 71.7393C449.224 71.0345 447.632 70.0591 446.353 68.8253L444.858 70.3747ZM450.411 73.7607C452.603 74.5629 455.108 74.9512 457.905 74.9512V72.7988C455.303 72.7988 453.057 72.437 451.15 71.7393L450.411 73.7607ZM483.057 115.125C483.057 113.06 482.464 111.284 481.2 109.899L479.611 111.351C480.447 112.266 480.904 113.49 480.904 115.125H483.057ZM481.2 109.899C480.009 108.594 478.423 107.609 476.496 106.913L475.765 108.937C477.438 109.541 478.702 110.356 479.611 111.351L481.2 109.899ZM476.505 106.916C474.652 106.228 472.511 105.762 470.094 105.505L469.867 107.645C472.15 107.888 474.109 108.322 475.756 108.934L476.505 106.916ZM470.117 105.507C467.739 105.204 465.214 104.977 462.541 104.826L462.42 106.975C465.047 107.123 467.522 107.346 469.844 107.643L470.117 105.507ZM462.542 104.826C459.942 104.676 457.291 104.525 454.59 104.375L454.471 106.525C457.17 106.675 459.819 106.824 462.418 106.974L462.542 104.826ZM454.59 104.375C451.918 104.227 449.348 103.98 446.88 103.634L446.581 105.766C449.113 106.12 451.743 106.373 454.471 106.525L454.59 104.375ZM446.277 103.724C443.365 105.076 440.941 106.807 439.031 108.93L440.63 110.37C442.32 108.493 444.496 106.924 447.184 105.676L446.277 103.724ZM439.03 108.931C437.1 111.081 436.129 113.638 436.129 116.55H438.282C438.282 114.162 439.061 112.119 440.631 110.369L439.03 108.931ZM436.129 116.55C436.129 118.439 436.604 120.202 437.552 121.819L439.409 120.731C438.657 119.448 438.282 118.061 438.282 116.55H436.129ZM437.558 121.829C438.567 123.511 440.062 124.906 441.988 126.03L443.073 124.17C441.399 123.194 440.194 122.039 439.403 120.721L437.558 121.829ZM441.969 126.018C443.896 127.196 446.265 128.082 449.047 128.701L449.514 126.599C446.896 126.018 444.765 125.204 443.092 124.182L441.969 126.018ZM449.033 128.697C451.885 129.371 455.196 129.701 458.955 129.701V127.549C455.315 127.549 452.176 127.229 449.528 126.603L449.033 128.697ZM458.955 129.701C462.618 129.701 465.926 129.371 468.87 128.699L468.391 126.601C465.635 127.229 462.493 127.549 458.955 127.549V129.701ZM468.87 128.699C471.804 128.03 474.321 127.068 476.395 125.792L475.266 123.958C473.44 125.082 471.157 125.97 468.391 126.601L468.87 128.699ZM476.384 125.798C478.5 124.528 480.158 122.993 481.313 121.178L479.497 120.022C478.553 121.507 477.161 122.822 475.277 123.952L476.384 125.798ZM481.313 121.178C482.476 119.351 483.057 117.325 483.057 115.125H480.904C480.904 116.925 480.435 118.549 479.497 120.022L481.313 121.178ZM494.479 38.025V42.975H496.632V38.025H494.479ZM494.479 42.975C494.479 43.5493 494.307 43.9391 494.007 44.239C493.68 44.5656 493.113 44.8727 492.18 45.0727L492.631 47.1773C493.798 46.9273 494.806 46.4844 495.529 45.761C496.279 45.0109 496.632 44.0507 496.632 42.975H494.479ZM492.266 45.0578L483.641 46.1828L483.92 48.3172L492.545 47.1922L492.266 45.0578ZM482.824 47.7429C484.439 50.8788 485.254 54.3578 485.254 58.2H487.407C487.407 54.0421 486.522 50.2212 484.737 46.7571L482.824 47.7429ZM485.254 58.2C485.254 61.7556 484.559 64.9706 483.184 67.8629L485.127 68.7871C486.652 65.5793 487.407 62.0444 487.407 58.2H485.254ZM483.18 67.8699C481.844 70.7321 479.988 73.184 477.604 75.234L479.007 76.866C481.623 74.616 483.666 71.9179 485.131 68.7801L483.18 67.8699ZM477.604 75.234C475.223 77.2816 472.351 78.8665 468.97 79.9775L469.641 82.0224C473.26 80.8335 476.388 79.1184 479.007 76.866L477.604 75.234ZM468.97 79.9775C465.589 81.0882 461.904 81.6488 457.905 81.6488V83.8012C462.107 83.8012 466.022 83.2119 469.641 82.0224L468.97 79.9775ZM457.905 81.6488C454.442 81.6488 451.187 81.2342 448.136 80.4109L447.575 82.4891C450.824 83.3658 454.269 83.8012 457.905 83.8012V81.6488ZM447.285 80.5374C445.605 81.5873 444.266 82.748 443.315 84.0353L445.046 85.3147C445.794 84.302 446.906 83.3126 448.426 82.3626L447.285 80.5374ZM443.329 84.0169C442.365 85.2649 441.829 86.6152 441.829 88.05H443.982C443.982 87.1848 444.296 86.2851 445.032 85.3331L443.329 84.0169ZM441.829 88.05C441.829 90.1961 442.723 91.9173 444.491 93.0752L445.67 91.2748C444.538 90.5327 443.982 89.5039 443.982 88.05H441.829ZM444.527 93.0979C446.178 94.0887 448.269 94.7724 450.754 95.1866L451.107 93.0634C448.792 92.6776 446.983 92.0613 445.634 91.2521L444.527 93.0979ZM450.754 95.1866C453.21 95.5961 455.984 95.8495 459.07 95.9507L459.141 93.7993C456.127 93.7005 453.451 93.4539 451.107 93.0634L450.754 95.1866ZM459.071 95.9507C462.154 96.0501 465.287 96.2242 468.472 96.473L468.639 94.327C465.424 94.0758 462.257 93.8999 459.14 93.7993L459.071 95.9507ZM468.489 96.4742C471.7 96.6718 474.808 97.042 477.814 97.5841L478.196 95.4659C475.103 94.9081 471.911 94.5283 468.622 94.3258L468.489 96.4742ZM477.817 97.5847C480.827 98.1186 483.47 98.9876 485.758 100.18L486.753 98.2705C484.241 96.9624 481.384 96.0314 478.193 95.4653L477.817 97.5847ZM485.758 100.18C488 101.347 489.785 102.949 491.132 104.992L492.929 103.808C491.375 101.451 489.311 99.6027 486.753 98.2705L485.758 100.18ZM491.141 105.006C492.486 106.979 493.204 109.599 493.204 112.95H495.357C495.357 109.301 494.575 106.221 492.92 103.794L491.141 105.006ZM493.204 112.95C493.204 116.009 492.43 118.984 490.859 121.888L492.752 122.912C494.481 119.716 495.357 116.391 495.357 112.95H493.204ZM490.852 121.9C489.333 124.797 487.115 127.381 484.174 129.647L485.487 131.353C488.646 128.919 491.078 126.103 492.759 122.9L490.852 121.9ZM484.165 129.654C481.236 131.959 477.608 133.805 473.257 135.173L473.903 137.227C478.453 135.795 482.325 133.841 485.496 131.346L484.165 129.654ZM473.244 135.178C468.971 136.586 464.113 137.299 458.655 137.299V139.451C464.298 139.451 469.39 138.714 473.917 137.222L473.244 135.178ZM458.655 137.299C453.173 137.299 448.419 136.755 444.381 135.685L443.83 137.765C448.091 138.895 453.038 139.451 458.655 139.451V137.299ZM444.381 135.685C440.315 134.607 436.982 133.174 434.356 131.407L433.155 133.193C436.029 135.126 439.596 136.643 443.83 137.765L444.381 135.685ZM434.356 131.407C431.72 129.633 429.77 127.599 428.465 125.316L426.596 126.384C428.091 129.001 430.291 131.267 433.155 133.193L434.356 131.407ZM428.468 125.322C427.205 123.077 426.582 120.733 426.582 118.275H424.429C424.429 121.117 425.156 123.823 426.592 126.378L428.468 125.322ZM426.582 118.275C426.582 114.771 427.671 111.859 429.829 109.472L428.232 108.028C425.69 110.841 424.429 114.279 424.429 118.275H426.582ZM429.829 109.472C432.039 107.026 435.107 105.036 439.086 103.532L438.325 101.518C434.104 103.114 430.722 105.274 428.232 108.028L429.829 109.472ZM439.143 101.542C437.022 100.599 435.366 99.3695 434.138 97.8685L432.473 99.2315C433.944 101.031 435.888 102.451 438.268 103.508L439.143 101.542ZM434.16 97.8962C433.045 96.4377 432.432 94.4167 432.432 91.725H430.279C430.279 94.7332 430.966 97.2623 432.451 99.2038L434.16 97.8962ZM432.432 91.725C432.432 90.7575 432.607 89.752 432.972 88.7036L430.939 87.9964C430.504 89.248 430.279 90.4925 430.279 91.725H432.432ZM432.976 88.6903C433.341 87.5977 433.891 86.5142 434.639 85.4396L432.872 84.2104C432.02 85.4358 431.37 86.7023 430.934 88.0097L432.976 88.6903ZM434.634 85.4471C435.431 84.3217 436.398 83.2589 437.539 82.2599L436.122 80.6401C434.863 81.7411 433.78 82.9283 432.877 84.2029L434.634 85.4471ZM437.539 82.2599C438.662 81.2771 439.984 80.4015 441.512 79.6376L440.549 77.7124C438.877 78.5485 437.399 79.5229 436.122 80.6401L437.539 82.2599ZM441.556 77.736C437.957 75.7205 435.172 73.072 433.175 69.7904L431.336 70.9096C433.539 74.528 436.604 77.4295 440.505 79.614L441.556 77.736ZM433.178 69.7963C431.191 66.484 430.182 62.6303 430.182 58.2H428.029C428.029 62.9697 429.12 67.216 431.333 70.9037L433.178 69.7963ZM430.182 58.2C430.182 54.6386 430.855 51.4467 432.181 48.6051L430.23 47.6949C428.756 50.8533 428.029 54.3614 428.029 58.2H430.182ZM432.177 48.6121C433.561 45.7013 435.464 43.2532 437.89 41.2558L436.521 39.5942C433.847 41.7968 431.75 44.4987 430.233 47.6879L432.177 48.6121ZM437.899 41.2478C440.333 39.1955 443.234 37.6089 446.616 36.4974L445.945 34.4525C442.327 35.6411 439.178 37.3545 436.512 39.6022L437.899 41.2478ZM446.612 36.4988C450.043 35.3876 453.804 34.8262 457.905 34.8262V32.6738C453.607 32.6738 449.618 33.2624 445.949 34.4511L446.612 36.4988ZM457.905 34.8262C461.124 34.8262 464.106 35.1919 466.857 35.9158L467.404 33.8342C464.455 33.0581 461.287 32.6738 457.905 32.6738V34.8262ZM466.874 35.9202C469.628 36.5966 472.128 37.6079 474.38 38.9496L475.481 37.1004C473.033 35.6421 470.333 34.5534 467.387 33.8298L466.874 35.9202ZM474.93 39.1012H495.555V36.9488H474.93V39.1012ZM605.864 20.325L606.787 20.8787L606.806 20.8473L606.822 20.8146L605.864 20.325ZM604.364 22.05L604.981 22.9317L604.989 22.9261L604.997 22.9204L604.364 22.05ZM599.489 21.3L600.129 20.4345L599.489 21.3ZM595.139 18.525L594.574 19.4406L594.589 19.4503L594.605 19.4594L595.139 18.525ZM588.914 15.675L588.555 16.6895L588.561 16.6918L588.914 15.675ZM571.514 15.75L571.867 16.7668L571.879 16.7626L571.514 15.75ZM565.289 19.275L564.577 18.468L564.571 18.4733L564.565 18.4787L565.289 19.275ZM561.539 24.6L562.53 25.021L562.533 25.0122L561.539 24.6ZM562.439 38.625L561.568 39.2567L561.577 39.2691L561.586 39.2812L562.439 38.625ZM568.289 43.65L567.747 44.5797L567.755 44.5844L568.289 43.65ZM576.539 47.325L576.189 48.3426L576.199 48.346L576.209 48.3493L576.539 47.325ZM585.989 50.475L585.639 51.4928L585.644 51.4944L585.989 50.475ZM595.439 54.225L594.99 55.2031L595 55.2075L595.009 55.2117L595.439 54.225ZM603.689 59.4L602.98 60.21L602.989 60.2171L603.689 59.4ZM609.539 67.125L608.567 67.5871L608.57 67.5935L608.573 67.6L609.539 67.125ZM609.389 91.65L610.392 92.0413L610.393 92.0372L609.389 91.65ZM602.339 102.375L601.584 101.608L601.578 101.614L602.339 102.375ZM591.014 109.575L590.624 108.572L590.62 108.573L591.014 109.575ZM556.739 108.45L556.3 109.432L556.307 109.436L556.739 108.45ZM542.114 98.175L541.195 97.6154L540.768 98.3159L541.331 98.9129L542.114 98.175ZM546.314 91.275L545.444 90.642L545.418 90.6777L545.395 90.7154L546.314 91.275ZM547.739 89.925L548.317 90.833L548.327 90.8268L548.336 90.8205L547.739 89.925ZM551.864 90.15L551.254 91.0368L551.286 91.0584L551.318 91.0776L551.864 90.15ZM554.714 92.1L554.062 92.9561L554.714 92.1ZM558.314 94.725L557.695 95.6051L558.314 94.725ZM562.889 97.35L562.431 98.3239L562.442 98.3288L562.889 97.35ZM568.814 99.375L568.553 100.419L568.564 100.422L568.576 100.424L568.814 99.375ZM585.464 98.7L585.821 99.7152V99.7152L585.464 98.7ZM592.289 94.725L593.017 95.5175L593.018 95.5166L592.289 94.725ZM595.889 72.525L595.003 73.1365L595.012 73.1486L595.021 73.1605L595.889 72.525ZM581.864 63.75L581.534 64.7743L581.541 64.7767L581.549 64.779L581.864 63.75ZM572.414 60.75L572.079 61.7726L572.086 61.775L572.093 61.7772L572.414 60.75ZM554.714 51.9L555.432 51.0984L554.714 51.9ZM548.864 43.875L547.881 44.3135L547.885 44.3227L547.89 44.3318L548.864 43.875ZM548.864 20.85L547.873 20.4311L547.868 20.4431L548.864 20.85ZM555.314 11.4L554.567 10.6255L554.56 10.6322L555.314 11.4ZM565.739 4.8L565.341 3.79991L565.337 3.80159L565.739 4.8ZM596.339 5.175L595.95 6.17844L595.953 6.17975L596.339 5.175ZM609.389 13.425L610.347 13.9146L610.711 13.2024L610.134 12.6486L609.389 13.425ZM604.941 19.7713C604.545 20.4313 604.136 20.8852 603.731 21.1796L604.997 22.9204C605.692 22.4148 606.283 21.7187 606.787 20.8787L604.941 19.7713ZM603.747 21.1683C603.466 21.3652 603.069 21.4988 602.489 21.4988V23.6512C603.409 23.6512 604.263 23.4348 604.981 22.9317L603.747 21.1683ZM602.489 21.4988C601.979 21.4988 601.208 21.2322 600.129 20.4345L598.849 22.1655C600.07 23.0678 601.299 23.6512 602.489 23.6512V21.4988ZM600.129 20.4345C598.934 19.5517 597.446 18.6037 595.673 17.5906L594.605 19.4594C596.332 20.4463 597.744 21.3483 598.849 22.1655L600.129 20.4345ZM595.705 17.6093C593.921 16.5078 591.771 15.5269 589.267 14.6582L588.561 16.6918C590.958 17.5231 592.957 18.4422 594.574 19.4406L595.705 17.6093ZM589.273 14.6605C586.725 13.758 583.671 13.3238 580.139 13.3238V15.4762C583.507 15.4762 586.303 15.892 588.555 16.6895L589.273 14.6605ZM580.139 13.3238C576.792 13.3238 573.789 13.7871 571.15 14.7374L571.879 16.7626C574.239 15.9129 576.987 15.4762 580.139 15.4762V13.3238ZM571.161 14.7332C568.598 15.6226 566.396 16.863 564.577 18.468L566.001 20.082C567.582 18.687 569.53 17.5774 571.867 16.7668L571.161 14.7332ZM564.565 18.4787C562.798 20.0847 561.456 21.9907 560.545 24.1878L562.533 25.0122C563.322 23.1093 564.48 21.4653 566.013 20.0713L564.565 18.4787ZM560.549 24.179C559.638 26.3227 559.188 28.6422 559.188 31.125H561.34C561.34 28.9078 561.741 26.8773 562.53 25.021L560.549 24.179ZM559.188 31.125C559.188 34.3023 559.958 37.0365 561.568 39.2567L563.31 37.9933C562.02 36.2135 561.34 33.9477 561.34 31.125H559.188ZM561.586 39.2812C563.181 41.355 565.242 43.1185 567.747 44.5796L568.831 42.7204C566.536 41.3815 564.697 39.795 563.292 37.9688L561.586 39.2812ZM567.755 44.5844C570.271 46.0222 573.084 47.2737 576.189 48.3426L576.889 46.3074C573.894 45.2763 571.207 44.0778 568.823 42.7156L567.755 44.5844ZM576.209 48.3493C579.302 49.3471 582.445 50.3949 585.639 51.4928L586.339 49.4572C583.133 48.3551 579.976 47.3029 576.869 46.3007L576.209 48.3493ZM585.644 51.4944C588.859 52.5827 591.975 53.819 594.99 55.2031L595.888 53.2469C592.803 51.831 589.619 50.5673 586.334 49.4556L585.644 51.4944ZM595.009 55.2117C598.014 56.5202 600.669 58.1871 602.98 60.2099L604.398 58.5901C601.91 56.4128 599.064 54.6298 595.869 53.2383L595.009 55.2117ZM602.989 60.2171C605.319 62.2145 607.179 64.6667 608.567 67.5871L610.511 66.6629C608.999 63.4833 606.959 60.7855 604.389 58.5829L602.989 60.2171ZM608.573 67.6C609.982 70.4638 610.713 74.0407 610.713 78.375H612.865C612.865 73.8092 612.096 69.8862 610.505 66.65L608.573 67.6ZM610.713 78.375C610.713 82.9502 609.935 87.2433 608.385 91.2628L610.393 92.0372C612.044 87.7567 612.865 83.1998 612.865 78.375H610.713ZM608.386 91.2587C606.841 95.2191 604.575 98.6656 601.584 101.608L603.094 103.142C606.303 99.9844 608.737 96.2809 610.392 92.0413L608.386 91.2587ZM601.578 101.614C598.646 104.547 595.002 106.87 590.624 108.572L591.404 110.578C596.027 108.78 599.933 106.303 603.1 103.136L601.578 101.614ZM590.62 108.573C586.317 110.266 581.38 111.124 575.789 111.124V113.276C581.599 113.276 586.811 112.384 591.408 110.577L590.62 108.573ZM575.789 111.124C568.919 111.124 562.719 109.898 557.171 107.464L556.307 109.436C562.159 112.002 568.659 113.276 575.789 113.276V111.124ZM557.179 107.468C551.601 104.972 546.845 101.628 542.898 97.4371L541.331 98.9129C545.484 103.322 550.477 106.828 556.3 109.432L557.179 107.468ZM543.033 98.7346L547.233 91.8346L545.395 90.7154L541.195 97.6154L543.033 98.7346ZM547.184 91.908C547.509 91.4624 547.886 91.1074 548.317 90.833L547.161 89.017C546.492 89.4426 545.92 89.9876 545.444 90.642L547.184 91.908ZM548.336 90.8205C548.765 90.5346 549.208 90.4012 549.689 90.4012V88.2488C548.77 88.2488 547.913 88.5154 547.142 89.0295L548.336 90.8205ZM549.689 90.4012C550.038 90.4012 550.55 90.5528 551.254 91.0368L552.474 89.2631C551.578 88.6472 550.64 88.2488 549.689 88.2488V90.4012ZM551.318 91.0776C552.122 91.5501 553.035 92.1739 554.062 92.9561L555.366 91.2439C554.293 90.4261 553.307 89.7499 552.41 89.2224L551.318 91.0776ZM554.062 92.9561C555.125 93.766 556.336 94.6492 557.695 95.6051L558.933 93.8448C557.592 92.9008 556.403 92.034 555.366 91.2439L554.062 92.9561ZM557.695 95.6051C559.102 96.5955 560.682 97.5008 562.431 98.3238L563.347 96.3762C561.696 95.5992 560.226 94.7545 558.933 93.8448L557.695 95.6051ZM562.442 98.3288C564.261 99.1606 566.3 99.8558 568.553 100.419L569.075 98.3309C566.928 97.7942 565.017 97.1394 563.336 96.3712L562.442 98.3288ZM568.576 100.424C570.869 100.946 573.426 101.201 576.239 101.201V99.0488C573.553 99.0488 571.159 98.8044 569.053 98.3255L568.576 100.424ZM576.239 101.201C579.786 101.201 582.986 100.713 585.821 99.7152L585.107 97.6848C582.542 98.5871 579.592 99.0488 576.239 99.0488V101.201ZM585.821 99.7152C588.64 98.7236 591.046 97.3289 593.017 95.5175L591.561 93.9325C589.832 95.5211 587.688 96.7764 585.107 97.6848L585.821 99.7152ZM593.018 95.5166C595.033 93.6606 596.573 91.4565 597.633 88.9139L595.646 88.0861C594.705 90.3435 593.345 92.2894 591.56 93.9334L593.018 95.5166ZM597.633 88.9139C598.694 86.3663 599.215 83.548 599.215 80.475H597.063C597.063 83.3019 596.584 85.8337 595.646 88.0861L597.633 88.9139ZM599.215 80.475C599.215 77.0606 598.426 74.1697 596.758 71.8895L595.021 73.1605C596.352 74.9803 597.063 77.3894 597.063 80.475H599.215ZM596.775 71.9135C595.227 69.6723 593.18 67.8178 590.656 66.3454L589.572 68.2046C591.848 69.5322 593.651 71.1777 595.003 73.1365L596.775 71.9135ZM590.656 66.3454C588.174 64.8974 585.346 63.6914 582.179 62.721L581.549 64.779C584.582 65.7086 587.254 66.8526 589.572 68.2046L590.656 66.3454ZM582.194 62.7257C579.091 61.7247 575.938 60.7237 572.735 59.7228L572.093 61.7772C575.29 62.7763 578.437 63.7753 581.534 64.7743L582.194 62.7257ZM572.75 59.7274C569.582 58.6879 566.463 57.4999 563.394 56.1633L562.534 58.1367C565.665 59.5001 568.846 60.7121 572.079 61.7726L572.75 59.7274ZM563.394 56.1633C560.394 54.8569 557.742 53.168 555.432 51.0984L553.996 52.7016C556.486 54.932 559.334 56.7431 562.534 58.1367L563.394 56.1633ZM555.432 51.0984C553.15 49.0539 551.283 46.5 549.839 43.4182L547.89 44.3318C549.445 47.65 551.478 50.4461 553.996 52.7016L555.432 51.0984ZM549.847 43.4365C548.475 40.3624 547.765 36.5219 547.765 31.875H545.613C545.613 36.7281 546.353 40.8876 547.881 44.3135L549.847 43.4365ZM547.765 31.875C547.765 28.2158 548.463 24.679 549.86 21.2569L547.868 20.4431C546.365 24.121 545.613 27.9341 545.613 31.875H547.765ZM549.855 21.2689C551.299 17.8522 553.368 14.8202 556.068 12.1678L554.56 10.6322C551.661 13.4798 549.429 16.7478 547.873 20.4311L549.855 21.2689ZM556.061 12.1745C558.801 9.5312 562.154 7.40268 566.141 5.79841L565.337 3.80159C561.124 5.49732 557.527 7.7688 554.567 10.6255L556.061 12.1745ZM566.137 5.80008C570.138 4.20927 574.749 3.40122 579.989 3.40122V1.24876C574.529 1.24876 569.64 2.09072 565.341 3.79992L566.137 5.80008ZM579.989 3.40122C585.875 3.40122 591.19 4.33285 595.95 6.17843L596.728 4.17157C591.688 2.21713 586.103 1.24876 579.989 1.24876V3.40122ZM595.953 6.17975C600.772 8.0294 604.999 10.7027 608.644 14.2014L610.134 12.6486C606.279 8.94727 601.806 6.12059 596.725 4.17025L595.953 6.17975ZM608.431 12.9354L604.906 19.8354L606.822 20.8146L610.347 13.9146L608.431 12.9354ZM675.77 36.6L675.357 37.5938L675.77 36.6ZM687.17 44.475L686.38 45.2064L687.17 44.475ZM694.37 56.85L693.351 57.1966L693.355 57.2093L694.37 56.85ZM694.37 89.175L693.355 88.8157L693.352 88.8251L694.37 89.175ZM687.17 101.475L686.38 100.744L687.17 101.475ZM675.77 109.35L676.174 110.348L676.183 110.344L675.77 109.35ZM645.62 109.35L645.207 110.344L645.214 110.347L645.22 110.349L645.62 109.35ZM634.22 101.475L635.009 100.744L634.22 101.475ZM626.945 89.175L625.927 89.5249L625.93 89.5343L626.945 89.175ZM626.945 56.85L625.929 56.494L625.927 56.5001L626.945 56.85ZM634.22 44.475L635.009 45.2064L634.22 44.475ZM645.62 36.6L645.211 35.6046L645.207 35.6062L645.62 36.6ZM677.57 94.125L678.435 94.7652L678.438 94.7611L677.57 94.125ZM650.795 46.275L650.348 45.2958L650.342 45.2989L650.795 46.275ZM643.745 51.9L642.894 51.2404L642.886 51.2515L643.745 51.9ZM639.545 60.975L638.504 60.7004L638.502 60.7105L639.545 60.975ZM643.745 94.125L642.877 94.7611L642.884 94.7707L643.745 94.125ZM660.77 34.9012C666.199 34.9012 671.056 35.8058 675.357 37.5938L676.183 35.6062C671.584 33.6942 666.44 32.7488 660.77 32.7488V34.9012ZM675.357 37.5938C679.67 39.3868 683.34 41.9244 686.38 45.2064L687.959 43.7436C684.7 40.2256 680.77 37.5132 676.183 35.6062L675.357 37.5938ZM686.38 45.2064C689.417 48.4845 691.745 52.4744 693.351 57.1966L695.389 56.5034C693.695 51.5256 691.222 47.2655 687.959 43.7436L686.38 45.2064ZM693.355 57.2093C695.008 61.8763 695.844 67.1272 695.844 72.975H697.996C697.996 66.9228 697.132 61.4237 695.384 56.4907L693.355 57.2093ZM695.844 72.975C695.844 78.8739 695.008 84.1496 693.355 88.8157L695.384 89.5343C697.132 84.6004 697.996 79.0761 697.996 72.975H695.844ZM693.352 88.8251C691.746 93.497 689.419 97.4636 686.38 100.744L687.959 102.206C691.221 98.6864 693.694 94.453 695.388 89.5249L693.352 88.8251ZM686.38 100.744C683.34 104.026 679.67 106.563 675.357 108.356L676.183 110.344C680.77 108.437 684.7 105.724 687.959 102.206L686.38 100.744ZM675.366 108.352C671.063 110.093 666.203 110.974 660.77 110.974V113.126C666.437 113.126 671.577 112.207 676.173 110.348L675.366 108.352ZM660.77 110.974C655.286 110.974 650.374 110.093 646.02 108.351L645.22 110.349C649.866 112.207 655.054 113.126 660.77 113.126V110.974ZM646.033 108.356C641.72 106.563 638.05 104.026 635.009 100.744L633.43 102.206C636.69 105.724 640.62 108.437 645.207 110.344L646.033 108.356ZM635.009 100.744C631.968 97.4612 629.615 93.4913 627.959 88.8157L625.93 89.5343C627.674 94.4586 630.171 98.6888 633.43 102.206L635.009 100.744ZM627.963 88.8251C626.358 84.1561 625.546 78.8771 625.546 72.975H623.394C623.394 79.0729 624.232 84.5939 625.927 89.5249L627.963 88.8251ZM625.546 72.975C625.546 67.124 626.357 61.8698 627.963 57.1999L625.927 56.5001C624.232 61.4302 623.394 66.926 623.394 72.975H625.546ZM627.961 57.206C629.617 52.4801 631.97 48.4869 635.009 45.2064L633.43 43.7436C630.17 47.2631 627.673 51.5199 625.929 56.494L627.961 57.206ZM635.009 45.2064C638.05 41.9244 641.72 39.3868 646.033 37.5938L645.207 35.6062C640.62 37.5132 636.69 40.2256 633.43 43.7436L635.009 45.2064ZM646.029 37.5954C650.381 35.8062 655.289 34.9012 660.77 34.9012V32.7488C655.051 32.7488 649.859 33.6938 645.211 35.6046L646.029 37.5954ZM660.77 102.701C668.532 102.701 674.489 100.097 678.435 94.7652L676.705 93.4848C673.251 98.1527 668.008 100.549 660.77 100.549V102.701ZM678.438 94.7611C682.321 89.4615 684.196 82.1823 684.196 73.05H682.044C682.044 81.9177 680.219 88.6885 676.702 93.4889L678.438 94.7611ZM684.196 73.05C684.196 63.8693 682.322 56.5643 678.438 51.2639L676.702 52.5361C680.218 57.3357 682.044 64.1307 682.044 73.05H684.196ZM678.438 51.2639C674.494 45.8807 668.536 43.2488 660.77 43.2488V45.4012C668.004 45.4012 673.246 47.8193 676.702 52.5361L678.438 51.2639ZM660.77 43.2488C656.848 43.2488 653.365 43.9197 650.348 45.2958L651.242 47.2542C653.925 46.0303 657.092 45.4012 660.77 45.4012V43.2488ZM650.342 45.2989C647.385 46.6715 644.899 48.6553 642.894 51.2405L644.595 52.5595C646.391 50.2446 648.605 48.4785 651.248 47.2511L650.342 45.2989ZM642.886 51.2515C640.936 53.8341 639.483 56.9932 638.504 60.7004L640.586 61.2496C641.507 57.7568 642.854 54.8659 644.604 52.5485L642.886 51.2515ZM638.502 60.7105C637.575 64.364 637.119 68.4803 637.119 73.05H639.271C639.271 68.6197 639.714 64.686 640.588 61.2395L638.502 60.7105ZM637.119 73.05C637.119 82.1823 638.994 89.4615 642.877 94.7611L644.613 93.4889C641.096 88.6885 639.271 81.9177 639.271 73.05H637.119ZM642.884 94.7707C646.882 100.101 652.913 102.701 660.77 102.701V100.549C653.427 100.549 648.108 98.1488 644.606 93.4793L642.884 94.7707ZM760.877 36.6L760.464 37.5938L760.877 36.6ZM772.277 44.475L771.488 45.2064L772.277 44.475ZM779.477 56.85L778.458 57.1966L778.463 57.2093L779.477 56.85ZM779.477 89.175L778.463 88.8157L778.46 88.8251L779.477 89.175ZM772.277 101.475L771.488 100.744L772.277 101.475ZM760.877 109.35L761.281 110.348L761.29 110.344L760.877 109.35ZM730.727 109.35L730.314 110.344L730.321 110.347L730.328 110.349L730.727 109.35ZM719.327 101.475L720.117 100.744L719.327 101.475ZM712.052 89.175L711.035 89.5249L711.038 89.5343L712.052 89.175ZM712.052 56.85L711.037 56.494L711.035 56.5001L712.052 56.85ZM719.327 44.475L720.117 45.2064L719.327 44.475ZM730.727 36.6L730.318 35.6046L730.314 35.6062L730.727 36.6ZM762.677 94.125L763.542 94.7652L763.545 94.7611L762.677 94.125ZM735.902 46.275L735.456 45.2958L735.449 45.2989L735.902 46.275ZM728.852 51.9L728.002 51.2404L727.993 51.2515L728.852 51.9ZM724.652 60.975L723.612 60.7004L723.609 60.7105L724.652 60.975ZM728.852 94.125L727.984 94.7611L727.991 94.7707L728.852 94.125ZM745.877 34.9012C751.307 34.9012 756.163 35.8058 760.464 37.5938L761.29 35.6062C756.691 33.6942 751.548 32.7488 745.877 32.7488V34.9012ZM760.464 37.5938C764.777 39.3868 768.447 41.9244 771.488 45.2064L773.067 43.7436C769.807 40.2256 765.878 37.5132 761.29 35.6062L760.464 37.5938ZM771.488 45.2064C774.525 48.4845 776.852 52.4744 778.458 57.1966L780.496 56.5034C778.803 51.5256 776.33 47.2655 773.067 43.7436L771.488 45.2064ZM778.463 57.2093C780.116 61.8763 780.951 67.1272 780.951 72.975H783.104C783.104 66.9228 782.239 61.4237 780.492 56.4907L778.463 57.2093ZM780.951 72.975C780.951 78.8739 780.115 84.1496 778.463 88.8157L780.492 89.5343C782.239 84.6004 783.104 79.0761 783.104 72.975H780.951ZM778.46 88.8251C776.854 93.497 774.527 97.4636 771.488 100.744L773.067 102.206C776.328 98.6864 778.801 94.453 780.495 89.5249L778.46 88.8251ZM771.488 100.744C768.447 104.026 764.777 106.563 760.464 108.356L761.29 110.344C765.878 108.437 769.807 105.724 773.067 102.206L771.488 100.744ZM760.474 108.352C756.17 110.093 751.31 110.974 745.877 110.974V113.126C751.544 113.126 756.684 112.207 761.281 110.348L760.474 108.352ZM745.877 110.974C740.393 110.974 735.482 110.093 731.127 108.351L730.328 110.349C734.973 112.207 740.161 113.126 745.877 113.126V110.974ZM731.141 108.356C726.828 106.563 723.157 104.026 720.117 100.744L718.538 102.206C721.797 105.724 725.727 108.437 730.314 110.344L731.141 108.356ZM720.117 100.744C717.076 97.4612 714.723 93.4913 713.067 88.8157L711.038 89.5343C712.782 94.4586 715.279 98.6888 718.538 102.206L720.117 100.744ZM713.07 88.8251C711.465 84.1561 710.654 78.8771 710.654 72.975H708.501C708.501 79.0729 709.34 84.5939 711.035 89.5249L713.07 88.8251ZM710.654 72.975C710.654 67.124 711.465 61.8698 713.07 57.1999L711.035 56.5001C709.34 61.4302 708.501 66.926 708.501 72.975H710.654ZM713.068 57.206C714.724 52.4801 717.078 48.4869 720.117 45.2064L718.538 43.7436C715.277 47.2631 712.78 51.5199 711.037 56.494L713.068 57.206ZM720.117 45.2064C723.157 41.9244 726.828 39.3868 731.141 37.5938L730.314 35.6062C725.727 37.5132 721.797 40.2256 718.538 43.7436L720.117 45.2064ZM731.137 37.5954C735.489 35.8062 740.397 34.9012 745.877 34.9012V32.7488C740.158 32.7488 734.966 33.6938 730.318 35.6046L731.137 37.5954ZM745.877 102.701C753.64 102.701 759.597 100.097 763.542 94.7652L761.812 93.4848C758.358 98.1527 753.115 100.549 745.877 100.549V102.701ZM763.545 94.7611C767.428 89.4615 769.304 82.1823 769.304 73.05H767.151C767.151 81.9177 765.326 88.6885 761.809 93.4889L763.545 94.7611ZM769.304 73.05C769.304 63.8693 767.429 56.5643 763.545 51.2639L761.809 52.5361C765.326 57.3357 767.151 64.1307 767.151 73.05H769.304ZM763.545 51.2639C759.601 45.8807 753.644 43.2488 745.877 43.2488V45.4012C753.111 45.4012 758.353 47.8193 761.809 52.5361L763.545 51.2639ZM745.877 43.2488C741.955 43.2488 738.473 43.9197 735.456 45.2958L736.349 47.2542C739.032 46.0303 742.199 45.4012 745.877 45.4012V43.2488ZM735.449 45.2989C732.493 46.6715 730.007 48.6553 728.002 51.2405L729.703 52.5595C731.498 50.2446 733.712 48.4785 736.356 47.2511L735.449 45.2989ZM727.993 51.2515C726.043 53.8341 724.59 56.9932 723.612 60.7004L725.693 61.2496C726.615 57.7568 727.961 54.8659 729.711 52.5485L727.993 51.2515ZM723.609 60.7105C722.683 64.364 722.226 68.4803 722.226 73.05H724.379C724.379 68.6197 724.822 64.686 725.696 61.2395L723.609 60.7105ZM722.226 73.05C722.226 82.1823 724.101 89.4615 727.984 94.7611L729.721 93.4889C726.203 88.6885 724.379 81.9177 724.379 73.05H722.226ZM727.991 94.7707C731.989 100.101 738.021 102.701 745.877 102.701V100.549C738.534 100.549 733.216 98.1488 729.713 93.4793L727.991 94.7707ZM811.56 46.05L810.492 46.1859L810.79 48.5295L812.363 46.7663L811.56 46.05ZM816.81 41.025L817.488 41.861L816.81 41.025ZM822.66 37.2L823.15 38.1579L823.159 38.1534L822.66 37.2ZM829.26 34.725L829.51 35.7717L829.518 35.7698L829.526 35.7678L829.26 34.725ZM847.785 35.925L847.348 36.9085L847.357 36.9126L847.366 36.9166L847.785 35.925ZM855.735 41.775L854.904 42.4592L854.911 42.468L854.919 42.4767L855.735 41.775ZM860.61 50.85L861.638 50.5315L860.61 50.85ZM862.26 111V112.076H863.336V111H862.26ZM848.835 111H847.759V112.076H848.835V111ZM844.86 49.275L844.024 49.9537L844.03 49.9608L844.036 49.9678L844.86 49.275ZM821.835 47.325L821.316 46.3823L821.31 46.3855L821.835 47.325ZM812.385 55.05L811.582 54.3335L811.309 54.6396V55.05H812.385ZM812.385 111V112.076H813.461V111H812.385ZM798.96 111H797.884V112.076H798.96V111ZM798.96 35.025V33.9488H797.884V35.025H798.96ZM810.51 37.8L811.577 37.6641L811.57 37.6043L811.555 37.5456L810.51 37.8ZM812.363 46.7663C813.976 44.9578 815.684 43.3231 817.488 41.861L816.132 40.189C814.235 41.7269 812.444 43.4422 810.757 45.3336L812.363 46.7663ZM817.488 41.861C819.282 40.4064 821.169 39.1727 823.15 38.1579L822.169 36.2421C820.05 37.3273 818.038 38.6436 816.132 40.189L817.488 41.861ZM823.159 38.1534C825.18 37.0946 827.297 36.301 829.51 35.7717L829.009 33.6783C826.623 34.249 824.339 35.1054 822.16 36.2466L823.159 38.1534ZM829.526 35.7678C831.78 35.1923 834.215 34.9012 836.835 34.9012V32.7488C834.055 32.7488 831.44 33.0577 828.994 33.6822L829.526 35.7678ZM836.835 34.9012C840.864 34.9012 844.36 35.5808 847.348 36.9085L848.222 34.9415C844.909 33.4692 841.105 32.7488 836.835 32.7488V34.9012ZM847.366 36.9166C850.415 38.2025 852.92 40.0504 854.904 42.4592L856.566 41.0908C854.349 38.3996 851.555 36.3475 848.203 34.9334L847.366 36.9166ZM854.919 42.4767C856.961 44.8515 858.52 47.7415 859.582 51.1685L861.638 50.5315C860.5 46.8585 858.808 43.6985 856.551 41.0733L854.919 42.4767ZM859.582 51.1685C860.645 54.6007 861.184 58.4164 861.184 62.625H863.336C863.336 58.2336 862.774 54.1993 861.638 50.5315L859.582 51.1685ZM861.184 62.625V111H863.336V62.625H861.184ZM862.26 109.924H848.835V112.076H862.26V109.924ZM849.911 111V62.625H847.759V111H849.911ZM849.911 62.625C849.911 56.7212 848.551 51.9908 845.683 48.5822L844.036 49.9678C846.469 52.8592 847.759 57.0288 847.759 62.625H849.911ZM845.695 48.5963C842.833 45.0738 838.505 43.3988 832.935 43.3988V45.5512C838.065 45.5512 841.687 47.0762 844.024 49.9537L845.695 48.5963ZM832.935 43.3988C828.804 43.3988 824.925 44.3944 821.316 46.3823L822.354 48.2677C825.644 46.4556 829.166 45.5512 832.935 45.5512V43.3988ZM821.31 46.3855C817.794 48.3503 814.552 51.0047 811.582 54.3335L813.188 55.7665C816.017 52.5953 819.076 50.0997 822.36 48.2645L821.31 46.3855ZM811.309 55.05V111H813.461V55.05H811.309ZM812.385 109.924H798.96V112.076H812.385V109.924ZM800.036 111V35.025H797.884V111H800.036ZM798.96 36.1012H806.985V33.9488H798.96V36.1012ZM806.985 36.1012C807.76 36.1012 808.274 36.2877 808.625 36.5644C808.977 36.8413 809.28 37.2986 809.464 38.0544L811.555 37.5456C811.289 36.4514 810.78 35.5212 809.957 34.8731C809.133 34.2248 808.11 33.9488 806.985 33.9488V36.1012ZM809.442 37.9359L810.492 46.1859L812.627 45.9141L811.577 37.6641L809.442 37.9359Z" fill="black" fill-opacity="0.05"/>
</svg>
