<svg width="163" height="40" viewBox="0 0 163 40" fill="none" xmlns="http://www.w3.org/2000/svg">
<path d="M15.65 0C19.831 0 23.7613 1.58483 26.7162 4.46483C29.5574 7.23172 31.1725 10.8772 31.2917 14.7738L31.2986 15.2428V40H0V15.2414C0 11.1724 1.62884 7.34483 4.58375 4.46483C7.5373 1.58621 11.469 0 15.65 0ZM15.65 0.758621C11.6676 0.758621 7.92362 2.26759 5.10843 5.00966C2.4138 7.63172 0.882229 11.0869 0.763046 14.7793L0.756196 15.2414V39.2414H30.5437V15.2414C30.5437 11.3793 28.9971 7.74483 26.1901 5.00966C23.3763 2.26759 19.631 0.758621 15.65 0.758621ZM15.65 2.65241C17.357 2.64711 19.0481 2.98198 20.626 3.63771C22.2038 4.29345 23.6372 5.25709 24.8435 6.4731C27.1769 8.79885 28.5372 11.9359 28.645 15.24L28.6533 15.6938V37.3407H2.64943V15.6897C2.64943 12.2069 3.9988 8.93379 6.45507 6.47034C7.6623 5.2554 9.09611 4.29266 10.6741 3.63745C12.2521 2.98224 13.9431 2.64748 15.65 2.65241ZM8.35926 33.0634V35.8276H12.7225C11.0931 35.2222 9.607 34.2799 8.35926 33.0634ZM8.23185 8.2869C6.4616 10.2917 5.43962 12.8544 5.34132 15.5352L5.33173 15.9848V24.1324C5.32803 26.6118 6.11722 29.0266 7.58251 31.0193C7.93754 31.5083 8.33057 31.9681 8.7579 32.3945C9.83774 33.4854 11.1212 34.3505 12.5345 34.9399C13.9477 35.5293 15.4628 35.8315 16.9925 35.829C18.1597 35.829 19.3049 35.6552 20.394 35.32L20.8584 35.1683V19.2731C20.8584 11.8828 13.1649 8.51862 8.23185 8.2869ZM56.0256 10.3172L65.0096 31.3172H60.7395L58.9011 26.8759H48.761L46.9225 31.3172H42.8004L51.9036 10.3172H56.0256ZM76.0402 10.3172C81.2596 10.3172 84.2542 12.9269 84.2542 17.5462C84.2542 22.2359 81.3966 25.0055 76.4005 25.1324L76.0402 25.1366H71.5044V31.3159H67.5316V10.3172H76.0402ZM102.756 10.3172V13.8262H91.5189V19.0166H101.602V22.5269H91.5189V27.8069H103.113V31.3172H87.5448V10.3159H102.758L102.756 10.3172ZM110.912 10.3172L121.615 24.6869V10.3159H125.47V31.3159H121.704L111.029 16.9752V31.3159H107.146V10.3159L110.912 10.3172ZM143.602 10.3172L143.572 13.8262H133.254V19.4966H142.653V23.0069H133.254V31.3172H129.281V10.3159L143.602 10.3172ZM163 10.3172V13.8869H156.534V31.3172H152.532V13.8855H146.068V10.3159L163 10.3172ZM15.6979 15.2069C17.6158 15.2069 19.1707 16.7683 19.1707 18.691C19.1707 18.8085 19.1243 18.9211 19.0419 19.0041C18.9594 19.0871 18.8476 19.1338 18.7309 19.1338C18.6143 19.1338 18.5024 19.0871 18.42 19.0041C18.3375 18.9211 18.2912 18.8085 18.2912 18.691C18.2912 17.2538 17.1267 16.0855 15.6938 16.0855C15.0064 16.0848 14.3468 16.3587 13.8598 16.8473C13.3728 17.3358 13.0983 17.9989 13.0964 18.691V25.3738C13.6814 25.1903 14.1033 24.6428 14.1033 24C14.1033 23.8826 14.1497 23.77 14.2321 23.6869C14.3146 23.6039 14.4264 23.5572 14.5431 23.5572C14.6597 23.5572 14.7716 23.6039 14.854 23.6869C14.9365 23.77 14.9828 23.8826 14.9828 24C14.9785 24.5816 14.7589 25.1407 14.367 25.5679C13.9751 25.9952 13.439 26.2599 12.8636 26.3103L12.6635 26.3186C11.3895 26.3186 10.3511 25.2786 10.3511 24C10.3511 23.8826 10.3975 23.77 10.4799 23.6869C10.5624 23.6039 10.6742 23.5572 10.7909 23.5572C10.9075 23.5572 11.0193 23.6039 11.1018 23.6869C11.1843 23.77 11.2306 23.8826 11.2306 24C11.2306 24.64 11.6498 25.1821 12.2238 25.3697L12.2224 18.891C12.2055 18.8446 12.1967 18.7956 12.1964 18.7462C12.1964 18.6703 12.1759 16.9062 10.9799 16.9062C10.9217 16.9095 10.8633 16.9008 10.8085 16.8807C10.7537 16.8605 10.7036 16.8293 10.6612 16.789C10.6188 16.7486 10.585 16.7 10.5619 16.646C10.5388 16.5921 10.5269 16.5339 10.5269 16.4752C10.5269 16.4164 10.5388 16.3583 10.5619 16.3043C10.585 16.2504 10.6188 16.2017 10.6612 16.1614C10.7036 16.121 10.7537 16.0898 10.8085 16.0697C10.8633 16.0495 10.9217 16.0408 10.9799 16.0441C11.8019 16.0441 12.3224 16.4883 12.6375 17.0483C12.9347 16.4915 13.3762 16.0262 13.9151 15.702C14.454 15.3777 15.0701 15.2066 15.6979 15.2069ZM53.8612 14.6055L50.1843 23.4248H57.4778L53.8612 14.6055ZM75.8333 13.8248H71.5044V21.5959H75.8333C78.7978 21.5959 80.4883 20.3048 80.4883 17.6648C80.4883 15.0855 78.7978 13.8248 75.8333 13.8248ZM7.89485 18.0014L9.81548 19.9352V18.7876C9.81548 18.6702 9.86181 18.5575 9.94428 18.4745C10.0267 18.3915 10.1386 18.3448 10.2552 18.3448C10.3719 18.3448 10.4837 18.3915 10.5662 18.4745C10.6486 18.5575 10.695 18.6702 10.695 18.7876V20.9945C10.6953 21.0525 10.6842 21.1101 10.6623 21.1638C10.6404 21.2175 10.6082 21.2663 10.5674 21.3074C10.5266 21.3485 10.4781 21.381 10.4248 21.403C10.3714 21.4251 10.3143 21.4362 10.2566 21.4359C10.1409 21.4361 10.0297 21.3905 9.94699 21.309L8.02637 19.3766V20.9959C8.02637 21.1133 7.98003 21.2259 7.89757 21.3089C7.8151 21.392 7.70325 21.4386 7.58662 21.4386C7.46999 21.4386 7.35814 21.392 7.27567 21.3089C7.19321 21.2259 7.14688 21.1133 7.14688 20.9959V18.3117C7.14688 18.1324 7.25236 17.9738 7.41812 17.9048C7.49808 17.8712 7.58621 17.8624 7.67117 17.8796C7.75613 17.8968 7.83403 17.9392 7.89485 18.0014ZM15.6952 18.5669C16.6459 18.5669 17.4213 19.3448 17.4213 20.2993C17.4228 20.3571 17.4127 20.4146 17.3916 20.4684C17.3705 20.5221 17.3389 20.5711 17.2986 20.6123C17.2583 20.6535 17.2102 20.6861 17.1572 20.7081C17.1041 20.7302 17.0472 20.7413 16.9898 20.7407C16.8734 20.7407 16.7617 20.6942 16.6793 20.6115C16.5969 20.5288 16.5504 20.4165 16.55 20.2993C16.55 20.1868 16.528 20.0753 16.4851 19.9714C16.4422 19.8675 16.3794 19.7731 16.3003 19.6936C16.2211 19.6142 16.1272 19.5513 16.0238 19.5084C15.9204 19.4656 15.8097 19.4438 15.6979 19.4441C15.5862 19.4438 15.4754 19.4656 15.372 19.5084C15.2687 19.5513 15.1747 19.6142 15.0956 19.6936C15.0164 19.7731 14.9536 19.8675 14.9107 19.9714C14.8679 20.0753 14.8458 20.1868 14.8458 20.2993C14.8458 20.4167 14.7995 20.5294 14.717 20.6124C14.6346 20.6954 14.5227 20.7421 14.4061 20.7421C14.2895 20.7421 14.1776 20.6954 14.0951 20.6124C14.0127 20.5294 13.9663 20.4167 13.9663 20.2993C13.9678 19.8391 14.1505 19.3983 14.4743 19.0735C14.7982 18.7487 15.2381 18.5665 15.6952 18.5669Z" fill="black"/>
</svg>
