<svg width="125" height="29" viewBox="0 0 125 29" fill="none" xmlns="http://www.w3.org/2000/svg">
<g clip-path="url(#clip0)">
<path d="M37.6445 20.5585V8.43994H42.9636C45.505 8.43994 46.921 10.1843 46.921 12.2372C46.921 14.2901 45.4868 16.0345 42.9636 16.0345H39.7684V20.5585H37.6445ZM42.6729 10.3113H39.7684V14.1631H42.6729C43.8711 14.1631 44.7427 13.4001 44.7427 12.2372C44.7427 11.0743 43.8714 10.3113 42.6729 10.3113V10.3113Z" fill="black"/>
<path d="M54.3232 8.23975C57.9538 8.23975 60.5135 10.8924 60.5135 14.5081C60.5135 18.1238 57.9538 20.7776 54.3232 20.7776C50.6925 20.7776 48.1328 18.125 48.1328 14.5095C48.1328 10.8941 50.6925 8.23975 54.3232 8.23975ZM54.3232 10.1294C51.8724 10.1294 50.3112 12.0008 50.3112 14.5084C50.3112 16.9974 51.8724 18.8874 54.3232 18.8874C56.7571 18.8874 58.3351 16.9977 58.3351 14.5084C58.3351 12.0008 56.7557 10.1294 54.3232 10.1294Z" fill="black"/>
<path d="M62.5664 20.5585V8.43994H64.6903V18.6871H70.0276V20.5585H62.5664Z" fill="black"/>
<path d="M77.0537 8.23975C80.6843 8.23975 83.244 10.8924 83.244 14.5081C83.244 18.1238 80.6843 20.7776 77.0537 20.7776C73.423 20.7776 70.8633 18.125 70.8633 14.5095C70.8633 10.8941 73.4244 8.23975 77.0537 8.23975ZM77.0537 10.1294C74.6029 10.1294 73.0417 12.0008 73.0417 14.5084C73.0417 16.9974 74.6029 18.8874 77.0537 18.8874C79.4862 18.8874 81.0656 16.9977 81.0656 14.5084C81.0656 12.0008 79.4862 10.1294 77.0537 10.1294Z" fill="black"/>
<path d="M93.7375 20.5585L87.4208 11.73V20.5585H85.2969V8.43994H87.4753L93.6656 17.0338V8.43994H95.7895V20.5585H93.7375Z" fill="black"/>
<path d="M98.3672 20.5585V8.43994H100.491V20.5585H98.3672Z" fill="black"/>
<path d="M103.066 20.5585V8.43994H111.363V10.3113H105.191V13.4546H111.238V15.326H105.191V18.6871H111.363V20.5585H103.066Z" fill="black"/>
<path d="M121.639 20.5585L118.245 15.8164L114.85 20.5585H112.309L116.847 14.3449L112.581 8.43994H115.122L118.244 12.8914L121.348 8.43994H123.908L119.66 14.3269L124.18 20.5588L121.639 20.5585Z" fill="black"/>
<path d="M25.0936 7.25V14.5L18.8204 10.875L12.5469 7.25L18.8204 3.625L25.0936 0V7.25Z" fill="#072B38"/>
<path d="M12.5467 14.5V21.75L6.27352 18.125L0 14.5L6.27352 10.875L12.5467 7.25V14.5Z" fill="#144556"/>
<path d="M0 7.25V0L6.27352 3.625L12.5467 7.25L6.27352 10.875L0 14.5V7.25Z" fill="#41D9BF"/>
<path d="M0 21.75V14.5L6.27352 18.125L12.5467 21.75L6.27352 25.375L0 29V21.75Z" fill="#072B38"/>
<path d="M18.8204 10.875L12.5469 7.25V14.5V21.75L18.8204 25.375L25.0936 29V21.75V14.5L18.8204 10.875Z" fill="#41D9BF"/>
</g>
<defs>
<clipPath id="clip0">
<rect width="124.179" height="29" fill="white"/>
</clipPath>
</defs>
</svg>
