<?xml version="1.0" encoding="UTF-8"?>
<svg width="28px" height="30px" viewBox="0 0 28 30" version="1.1" xmlns="http://www.w3.org/2000/svg" xmlns:xlink="http://www.w3.org/1999/xlink">
    <!-- Generator: Sketch 63.1 (92452) - https://sketch.com -->
    <title>文件</title>
    <desc>Created with Sketch.</desc>
    <g id="定稿" stroke="none" stroke-width="1" fill="none" fill-rule="evenodd">
        <g id="资源/首页相关-hover" transform="translate(-1089.000000, -1885.000000)" fill="#FFFFFF">
            <g id="M" transform="translate(290.000000, 1749.000000)">
                <g id="2" transform="translate(447.000000, 91.000000)">
                    <g id="编组-10">
                        <g id="编组-8" transform="translate(336.000000, 28.000000)">
                            <g id="文件" transform="translate(30.000000, 31.866667) scale(1, -1) translate(-30.000000, -31.866667) translate(16.000000, 16.866667)">
                                <path d="M23.1304348,0 L4.86956522,0 C2.19130435,0 0,1.95471698 0,4.34381551 L0,24.9769392 C0,27.3660377 2.19130435,29.3207547 4.86956522,29.3207547 L18.3217391,29.3207547 C19.6,29.3207547 20.8173913,28.8863732 21.7913043,28.0719078 L26.6,23.7823899 C27.5130435,22.9679245 28,21.8819706 28,20.6874214 L28,4.34381551 C28,1.95471698 25.8086957,0 23.1304348,0 Z M2.11320755,25.2803938 L2.11320755,4.46300246 C2.11320755,3.25778507 3.23932473,2.27169811 4.61569017,2.27169811 L23.3843098,2.27169811 C24.7606753,2.27169811 25.8867925,3.25778507 25.8867925,4.46300246 L25.8867925,20.349959 L22.1330685,20.349959 C19.3803376,20.349959 17.1281033,22.3221329 17.1281033,24.7325677 L17.1281033,27.4716981 L4.61569017,27.4716981 C3.23932473,27.4716981 2.11320755,26.4856112 2.11320755,25.2803938 Z M20.2257645,26.8159822 C20.0435914,26.9837958 19.8614183,27.0956715 19.6792453,27.2075472 L19.6792453,24.6903441 C19.6792453,23.4597114 20.7722837,22.4528302 22.1082195,22.4528302 L24.9622642,22.4528302 L20.2257645,26.8159822 L20.2257645,26.8159822 Z" id="形状"></path>
                                <path d="M8.27272727,9.50943396 L19.7272727,9.50943396 C20.4272727,9.50943396 21,9.03396226 21,8.45283019 C21,7.87169811 20.4272727,7.39622642 19.7272727,7.39622642 L8.27272727,7.39622642 C7.57272727,7.39622642 7,7.87169811 7,8.45283019 C7,9.03396226 7.57272727,9.50943396 8.27272727,9.50943396 Z M13.3836478,17.9622642 L8.27672956,17.9622642 C7.5745283,17.9622642 7,18.4377358 7,19.0188679 C7,19.6 7.5745283,20.0754717 8.27672956,20.0754717 L13.3836478,20.0754717 C14.0858491,20.0754717 14.6603774,19.6 14.6603774,19.0188679 C14.6603774,18.4377358 14.0858491,17.9622642 13.3836478,17.9622642 Z M8.27272727,14.7924528 L19.7272727,14.7924528 C20.4272727,14.7924528 21,14.3169811 21,13.7358491 C21,13.154717 20.4272727,12.6792453 19.7272727,12.6792453 L8.27272727,12.6792453 C7.57272727,12.6792453 7,13.154717 7,13.7358491 C7,14.3169811 7.57272727,14.7924528 8.27272727,14.7924528 Z" id="形状"></path>
                            </g>
                        </g>
                    </g>
                </g>
            </g>
        </g>
    </g>
</svg>