<?xml version="1.0" encoding="UTF-8"?>
<svg width="30px" height="28px" viewBox="0 0 30 28" version="1.1" xmlns="http://www.w3.org/2000/svg" xmlns:xlink="http://www.w3.org/1999/xlink">
    <!-- Generator: Sketch 63.1 (92452) - https://sketch.com -->
    <title>形状</title>
    <desc>Created with Sketch.</desc>
    <g id="定稿" stroke="none" stroke-width="1" fill="none" fill-rule="evenodd">
        <g id="资源/首页相关-hover" transform="translate(-1535.000000, -1886.000000)" fill="#FFFFFF">
            <g id="M" transform="translate(290.000000, 1749.000000)">
                <g id="3" transform="translate(894.000000, 91.000000)">
                    <g id="编组-6">
                        <g id="编组-3" transform="translate(336.000000, 28.000000)">
                            <path d="M41.1290622,40.5860594 L34.3548609,40.5860594 L34.3548609,44.0608069 L36.290347,44.0608069 C36.8252248,44.0608069 37.25809,44.4493375 37.25809,44.9295015 C37.25809,45.4096346 36.8252248,45.7981651 36.290347,45.7981651 L24.6774305,45.7981651 C24.1425182,45.7981651 23.7096874,45.4096345 23.7096874,44.9295015 C23.7096874,44.4493375 24.1425182,44.0608069 24.6774305,44.0608069 L26.6129166,44.0608069 L26.6129166,40.5860594 L18.8709722,40.5860594 C16.7332506,40.5860594 15,39.0302069 15,37.111281 L15,21.4747784 C15,19.5558525 16.7332506,18 18.8709722,18 L41.1290278,18 C43.266715,18 45,19.5558525 45,21.4747784 L45,37.111281 C45,39.030176 43.2667494,40.5860594 41.1290622,40.5860594 Z M32.6146789,43.8715596 L32.6146789,40.0183486 L28.7614679,40.0183486 L28.7614679,43.8715596 L32.6146789,43.8715596 Z M43.0733945,21.440367 C43.0733945,20.7563949 42.2153087,20.2018349 41.1570142,20.2018349 L19.1182492,20.2018349 C18.0599207,20.2018349 17.2018349,20.7563949 17.2018349,21.440367 L17.2018349,30.1100917 L43.0733945,30.1100917 L43.0733945,21.440367 Z M43.0733945,31.7614679 L17.2018349,31.7614679 L17.2018349,34.9266336 C17.2018349,36.6745778 18.0599218,38.0917431 19.1182517,38.0917431 L41.1570117,38.0917431 C42.2153416,38.0917431 43.0733945,36.6745215 43.0733945,34.9266336 L43.0733945,31.7614679 Z" id="形状"></path>
                        </g>
                    </g>
                </g>
            </g>
        </g>
    </g>
</svg>