<svg width="62" height="66" viewBox="0 0 62 66" fill="none" xmlns="http://www.w3.org/2000/svg">
<path fill-rule="evenodd" clip-rule="evenodd" d="M57.9341 13.4318L57.9353 13.4329C60.4554 14.8059 62.0023 17.3156 62 20.0274V46.3329C62.0027 49.0792 60.4162 51.6154 57.8449 52.9751L35.031 65.0097C32.5307 66.3301 29.4656 66.3301 26.9653 65.0097L4.15387 52.9751C1.58361 51.6152 -0.00230016 49.0797 3.66655e-06 46.3341V20.0285C-0.00274817 17.3166 1.54366 14.8065 4.06343 13.4329L26.8675 1.03767C29.4147 -0.345889 32.5682 -0.345889 35.1154 1.03767L57.9341 13.4329V13.4318Z" fill="#E53F34" fill-opacity="0.8"/>
<path fill-rule="evenodd" clip-rule="evenodd" d="M46.4991 33.001C46.1042 33.0065 45.7129 33.0785 45.3415 33.2142L40.0996 25.2727C41.0275 23.8083 40.9329 21.9119 39.864 20.5488C38.7952 19.1857 36.987 18.6554 35.3598 19.2279C33.7326 19.8003 32.6441 21.3498 32.6483 23.0875C32.6594 24.0718 33.0173 25.0202 33.6579 25.7631L28.372 35.5486C27.8851 35.4075 27.3825 35.3293 26.8761 35.3159C25.7702 35.3116 24.6875 35.6354 23.7627 36.2469L19.5163 31.132C20.0147 30.2115 20.0731 29.113 19.675 28.1442C19.2768 27.1754 18.4651 26.4403 17.4671 26.145C16.0032 25.6984 14.422 26.2728 13.5769 27.5582C12.7317 28.8436 12.8227 30.5357 13.8006 31.7215C14.7786 32.9073 16.412 33.306 17.8195 32.7025L22.0941 37.8547C20.3073 40.4659 20.918 44.0382 23.4687 45.8955C26.0193 47.7528 29.5745 47.214 31.4709 44.6827C33.3674 42.1514 32.9096 38.556 30.4405 36.5897L35.619 26.996C35.9685 27.0962 36.3288 27.1529 36.692 27.1648C37.2585 27.1682 37.8189 27.047 38.3342 26.8095L43.5549 34.6852C43.224 35.2176 43.0493 35.8335 43.0509 36.4618C43.0338 37.885 43.8723 39.1772 45.1725 39.7314C46.4726 40.2856 47.9761 39.9915 48.9765 38.9874C49.977 37.9833 50.2755 36.4687 49.7319 35.1552C49.1883 33.8417 47.9106 32.9903 46.4991 33.001ZM16.5122 31.2599C15.7644 31.2599 15.0904 30.8056 14.8044 30.109C14.5184 29.4124 14.6769 28.6107 15.2058 28.0778C15.7348 27.5449 16.5301 27.3859 17.2207 27.6749C17.9113 27.964 18.3612 28.6441 18.3605 29.398C18.3595 30.4266 17.5323 31.2599 16.5122 31.2599ZM26.9007 45.2472C29.0854 45.2472 30.8564 43.4615 30.8564 41.2587C30.8564 39.0559 29.0854 37.2702 26.9007 37.2702C24.7161 37.2702 22.9451 39.0559 22.9451 41.2587C22.9451 43.4615 24.7161 45.2472 26.9007 45.2472ZM36.6902 25.4557C35.3814 25.4557 34.3204 24.3859 34.3204 23.0662C34.3204 21.7464 35.3814 20.6766 36.6902 20.6766C37.9991 20.6766 39.0601 21.7464 39.0601 23.0662C39.0601 24.3859 37.9991 25.4557 36.6902 25.4557ZM44.7442 36.5625C44.7449 37.5906 45.5711 38.424 46.5907 38.425V38.4179C47.0812 38.4184 47.5518 38.2222 47.8988 37.8727C48.2458 37.5231 48.4408 37.0488 48.4408 36.5542C48.4369 35.5261 47.6081 34.6954 46.5884 34.6977C45.5688 34.6999 44.7436 35.5344 44.7442 36.5625Z" fill="white"/>
<path d="M45.3415 33.2142L45.1746 33.3244L45.2617 33.4563L45.4101 33.402L45.3415 33.2142ZM46.4991 33.001L46.4976 32.801L46.4963 32.801L46.4991 33.001ZM40.0996 25.2727L39.9307 25.1657L39.8615 25.2749L39.9327 25.3829L40.0996 25.2727ZM32.6483 23.0875L32.4483 23.088L32.4483 23.0897L32.6483 23.0875ZM33.6579 25.7631L33.8339 25.8581L33.8994 25.7368L33.8093 25.6324L33.6579 25.7631ZM28.372 35.5486L28.3163 35.7407L28.4713 35.7857L28.5479 35.6437L28.372 35.5486ZM26.8761 35.3159L26.8813 35.1159L26.8768 35.1159L26.8761 35.3159ZM23.7627 36.2469L23.6088 36.3746L23.7234 36.5126L23.873 36.4137L23.7627 36.2469ZM19.5163 31.132L19.3404 31.0368L19.276 31.1557L19.3624 31.2597L19.5163 31.132ZM17.4671 26.145L17.4088 26.3363L17.4104 26.3368L17.4671 26.145ZM13.5769 27.5582L13.744 27.6681H13.744L13.5769 27.5582ZM13.8006 31.7215L13.9549 31.5942L13.8006 31.7215ZM17.8195 32.7025L17.9735 32.5748L17.8781 32.4598L17.7407 32.5187L17.8195 32.7025ZM22.0941 37.8547L22.2591 37.9676L22.3443 37.8431L22.248 37.727L22.0941 37.8547ZM30.4405 36.5897L30.2645 36.4947L30.1851 36.642L30.3159 36.7462L30.4405 36.5897ZM35.619 26.996L35.6741 26.8038L35.5194 26.7594L35.443 26.901L35.619 26.996ZM36.692 27.1648L36.6854 27.3648L36.6908 27.3648L36.692 27.1648ZM38.3342 26.8095L38.5009 26.699L38.4061 26.5561L38.2504 26.6278L38.3342 26.8095ZM43.5549 34.6852L43.7247 34.7908L43.7925 34.6817L43.7216 34.5747L43.5549 34.6852ZM43.0509 36.4618L43.251 36.4642L43.2509 36.4613L43.0509 36.4618ZM45.1725 39.7314L45.2509 39.5474L45.1725 39.7314ZM14.8044 30.109L14.6194 30.185L14.8044 30.109ZM16.5122 31.2599L16.5122 31.4599H16.5122V31.2599ZM15.2058 28.0778L15.0639 27.9369L15.2058 28.0778ZM18.3605 29.398L18.1605 29.3978L18.3605 29.398ZM30.8564 41.2587H31.0564H30.8564ZM46.5907 38.425L46.5905 38.625L46.7907 38.6252V38.425H46.5907ZM46.5907 38.4179L46.5909 38.2179L46.3907 38.2177V38.4179H46.5907ZM47.8988 37.8727L47.7569 37.7318V37.7318L47.8988 37.8727ZM48.4408 36.5542H48.6408L48.6408 36.5535L48.4408 36.5542ZM46.5884 34.6977L46.588 34.4977L46.5884 34.6977ZM45.4101 33.402C45.7604 33.2741 46.1294 33.2061 46.5019 33.201L46.4963 32.801C46.0789 32.8068 45.6654 32.883 45.2729 33.0263L45.4101 33.402ZM39.9327 25.3829L45.1746 33.3244L45.5084 33.104L40.2666 25.1625L39.9327 25.3829ZM39.7067 20.6722C40.7232 21.9686 40.8133 23.7727 39.9307 25.1657L40.2686 25.3798C41.2417 23.8439 41.1426 21.8552 40.0214 20.4254L39.7067 20.6722ZM35.4262 19.4165C36.972 18.8727 38.6904 19.3761 39.7067 20.6722L40.0214 20.4254C38.9 18.9952 37.0019 18.4381 35.2934 19.0392L35.4262 19.4165ZM32.8483 23.087C32.8443 21.4335 33.88 19.9605 35.4262 19.4165L35.2934 19.0392C33.5852 19.6402 32.4439 21.2661 32.4483 23.088L32.8483 23.087ZM33.8093 25.6324C33.1997 24.9254 32.8589 24.0226 32.8483 23.0852L32.4483 23.0897C32.46 24.1211 32.8349 25.1149 33.5064 25.8937L33.8093 25.6324ZM28.5479 35.6437L33.8339 25.8581L33.4819 25.668L28.196 35.4536L28.5479 35.6437ZM26.8708 35.5158C27.3601 35.5288 27.8458 35.6043 28.3163 35.7407L28.4277 35.3566C27.9244 35.2107 27.4048 35.1298 26.8813 35.116L26.8708 35.5158ZM23.873 36.4137C24.7649 35.8239 25.809 35.5118 26.8753 35.5159L26.8768 35.1159C25.7314 35.1115 24.61 35.4468 23.6524 36.08L23.873 36.4137ZM19.3624 31.2597L23.6088 36.3746L23.9165 36.1191L19.6702 31.0042L19.3624 31.2597ZM19.49 28.2202C19.8653 29.1335 19.8102 30.1692 19.3404 31.0368L19.6922 31.2272C20.2192 30.2539 20.2809 29.0925 19.8599 28.0682L19.49 28.2202ZM17.4104 26.3368C18.3499 26.6148 19.1147 27.307 19.49 28.2202L19.8599 28.0682C19.439 27.0437 18.5804 26.2659 17.5239 25.9532L17.4104 26.3368ZM13.744 27.6681C14.5407 26.4563 16.0303 25.9158 17.4088 26.3363L17.5255 25.9537C15.976 25.4811 14.3033 26.0893 13.4098 27.4483L13.744 27.6681ZM13.9549 31.5942C13.0328 30.4762 12.947 28.8802 13.744 27.6681L13.4098 27.4483C12.5165 28.8069 12.6125 30.5952 13.6463 31.8487L13.9549 31.5942ZM17.7407 32.5187C16.4153 33.087 14.8766 32.7118 13.9549 31.5942L13.6463 31.8487C14.6805 33.1027 16.4088 33.525 17.8984 32.8863L17.7407 32.5187ZM22.248 37.727L17.9735 32.5748L17.6656 32.8302L21.9402 37.9824L22.248 37.727ZM23.5864 45.7338C21.1236 43.9405 20.5332 40.49 22.2591 37.9676L21.929 37.7418C20.0815 40.4418 20.7125 44.1359 23.351 46.0572L23.5864 45.7338ZM31.3109 44.5628C29.4798 47.0069 26.0483 47.5265 23.5864 45.7338L23.351 46.0572C25.9904 47.9792 29.6692 47.4211 31.631 44.8026L31.3109 44.5628ZM30.3159 36.7462C32.7001 38.6448 33.1427 42.1178 31.3109 44.5628L31.631 44.8026C33.5921 42.1851 33.1191 38.4671 30.5651 36.4333L30.3159 36.7462ZM35.443 26.901L30.2645 36.4947L30.6165 36.6847L35.795 27.091L35.443 26.901ZM36.6985 26.9649C36.3518 26.9535 36.0078 26.8994 35.6741 26.8038L35.5638 27.1883C35.9292 27.293 36.3058 27.3523 36.6854 27.3647L36.6985 26.9649ZM38.2504 26.6278C37.7618 26.8531 37.2303 26.968 36.6932 26.9648L36.6908 27.3648C37.2866 27.3684 37.8761 27.2408 38.4179 26.9911L38.2504 26.6278ZM43.7216 34.5747L38.5009 26.699L38.1675 26.92L43.3882 34.7957L43.7216 34.5747ZM43.2509 36.4613C43.2494 35.8704 43.4137 35.2913 43.7247 34.7908L43.385 34.5796C43.0343 35.144 42.8492 35.7967 42.8509 36.4624L43.2509 36.4613ZM45.2509 39.5474C44.0259 39.0253 43.2348 37.8072 43.2509 36.4642L42.851 36.4594C42.8329 37.9629 43.7186 39.3292 45.094 39.9154L45.2509 39.5474ZM48.8349 38.8462C47.8919 39.7926 46.4756 40.0694 45.2509 39.5474L45.094 39.9154C46.4697 40.5017 48.0603 40.1904 49.1182 39.1286L48.8349 38.8462ZM49.5471 35.2317C50.06 36.4709 49.7781 37.8996 48.8349 38.8462L49.1182 39.1286C50.1758 38.0671 50.4911 36.4666 49.9167 35.0787L49.5471 35.2317ZM46.5006 33.201C47.8299 33.1909 49.0344 33.9927 49.5471 35.2317L49.9167 35.0787C49.3423 33.6906 47.9914 32.7896 46.4976 32.801L46.5006 33.201ZM14.6194 30.185C14.9359 30.9559 15.6825 31.4599 16.5122 31.4599L16.5122 31.0599C15.8463 31.0599 15.2449 30.6553 14.9894 30.0331L14.6194 30.185ZM15.0639 27.9369C14.4781 28.527 14.303 29.4143 14.6194 30.185L14.9894 30.0331C14.7338 29.4105 14.8757 28.6943 15.3478 28.2187L15.0639 27.9369ZM17.2979 27.4904C16.5319 27.1699 15.65 27.3465 15.0639 27.9369L15.3478 28.2187C15.8196 27.7434 16.5283 27.602 17.1435 27.8594L17.2979 27.4904ZM18.5605 29.3982C18.5613 28.5643 18.0636 27.8109 17.2979 27.4904L17.1435 27.8594C17.759 28.117 18.1611 28.7238 18.1605 29.3978L18.5605 29.3982ZM16.5122 31.4599C17.6442 31.4599 18.5594 30.5356 18.5605 29.3982L18.1605 29.3978C18.1596 30.3176 17.4203 31.0599 16.5122 31.0599V31.4599ZM30.6564 41.2587C30.6564 43.3526 28.9733 45.0472 26.9007 45.0472V45.4472C29.1974 45.4472 31.0564 43.5704 31.0564 41.2587H30.6564ZM26.9007 37.4702C28.9733 37.4702 30.6564 39.1648 30.6564 41.2587H31.0564C31.0564 38.947 29.1974 37.0702 26.9007 37.0702V37.4702ZM23.1451 41.2587C23.1451 39.1648 24.8281 37.4702 26.9007 37.4702V37.0702C24.6041 37.0702 22.7451 38.947 22.7451 41.2587H23.1451ZM26.9007 45.0472C24.8281 45.0472 23.1451 43.3526 23.1451 41.2587H22.7451C22.7451 43.5704 24.6041 45.4472 26.9007 45.4472V45.0472ZM34.1204 23.0662C34.1204 24.4948 35.2694 25.6557 36.6902 25.6557V25.2557C35.4934 25.2557 34.5204 24.277 34.5204 23.0662H34.1204ZM36.6902 20.4766C35.2694 20.4766 34.1204 21.6375 34.1204 23.0662H34.5204C34.5204 21.8553 35.4934 20.8766 36.6902 20.8766V20.4766ZM39.2601 23.0662C39.2601 21.6375 38.1111 20.4766 36.6902 20.4766V20.8766C37.8871 20.8766 38.8601 21.8553 38.8601 23.0662H39.2601ZM36.6902 25.6557C38.1111 25.6557 39.2601 24.4948 39.2601 23.0662H38.8601C38.8601 24.277 37.8871 25.2557 36.6902 25.2557V25.6557ZM46.5909 38.225C45.6832 38.2241 44.9448 37.4817 44.9442 36.5624L44.5442 36.5626C44.5449 37.6995 45.459 38.6239 46.5905 38.625L46.5909 38.225ZM46.3907 38.4179V38.425H46.7907V38.4179H46.3907ZM47.7569 37.7318C47.4473 38.0436 47.0278 38.2183 46.5909 38.2179L46.5905 38.6179C47.1347 38.6184 47.6563 38.4008 48.0408 38.0136L47.7569 37.7318ZM48.2408 36.5542C48.2408 36.9963 48.0665 37.4198 47.7569 37.7318L48.0408 38.0136C48.4251 37.6264 48.6408 37.1013 48.6408 36.5542H48.2408ZM46.5889 34.8977C47.4966 34.8956 48.2373 35.6356 48.2408 36.555L48.6408 36.5535C48.6365 35.4166 47.7195 34.4951 46.588 34.4977L46.5889 34.8977ZM44.9442 36.5624C44.9436 35.643 45.6811 34.8997 46.5889 34.8977L46.588 34.4977C45.4564 34.5002 44.5435 35.4257 44.5442 36.5626L44.9442 36.5624Z" fill="white"/>
</svg>
