<svg width="62" height="66" viewBox="0 0 62 66" fill="none" xmlns="http://www.w3.org/2000/svg">
<path fill-rule="evenodd" clip-rule="evenodd" d="M57.9341 13.4318L57.9353 13.4329C60.4554 14.8059 62.0023 17.3156 62 20.0274V46.3329C62.0027 49.0792 60.4162 51.6154 57.8449 52.9751L35.031 65.0097C32.5307 66.3301 29.4656 66.3301 26.9653 65.0097L4.15387 52.9751C1.58361 51.6152 -0.00230016 49.0797 3.66655e-06 46.3341V20.0285C-0.00274817 17.3166 1.54366 14.8065 4.06343 13.4329L26.8675 1.03767C29.4147 -0.345889 32.5682 -0.345889 35.1154 1.03767L57.9341 13.4329V13.4318Z" fill="#E53F34" fill-opacity="0.8"/>
<path fill-rule="evenodd" clip-rule="evenodd" d="M33.6878 40.8081C34.3248 41.2178 35.0627 41.4454 35.8209 41.466C37.2169 41.4638 38.5235 40.7821 39.3192 39.6409L47.3399 27.2258C48.5775 25.3085 48.0245 22.7565 46.1026 21.517L40.0232 17.612C38.0802 16.4441 35.5583 16.9945 34.285 18.8642L31.9173 22.5356C31.6866 22.8541 31.6516 23.2732 31.8261 23.6253C32.0006 23.9773 32.3562 24.2047 32.7506 24.2165C33.1449 24.2283 33.5136 24.0226 33.7091 23.6816L36.0769 20.0314C36.6786 19.095 37.9285 18.8198 38.8713 19.4159L44.9721 23.2996C45.9058 23.9052 46.1726 25.1473 45.5693 26.0798L37.5487 38.4949C36.9143 39.3835 35.7064 39.6496 34.7543 39.1104L28.6535 35.2054C27.7603 34.5743 27.4929 33.3725 28.0349 32.4253C28.3159 31.9352 28.1623 31.312 27.6853 31.0069C27.2082 30.7018 26.5746 30.8215 26.2431 31.2793C25.0692 33.2123 25.6223 35.7213 27.5016 36.9881L33.6878 40.8081ZM22.0835 48.3421C22.7205 48.7517 23.4584 48.9793 24.2166 49C24.5182 48.9962 24.8185 48.9607 25.1125 48.8939C26.1864 48.6603 27.1227 48.0113 27.715 47.09L30.0828 43.4397C30.3134 43.1212 30.3484 42.7021 30.1739 42.3501C29.9994 41.9981 29.6438 41.7707 29.2494 41.7588C28.8551 41.747 28.4864 41.9528 28.2909 42.2937L25.9231 45.9652C25.631 46.4142 25.1699 46.7277 24.6432 46.8353C24.1217 46.95 23.5756 46.8505 23.1287 46.5594L17.0279 42.6545C16.0942 42.0489 15.8274 40.8068 16.4307 39.8744L24.4726 27.4592C25.107 26.5706 26.3149 26.3046 27.267 26.8438L33.3465 30.7487C34.2322 31.3862 34.4901 32.5868 33.9437 33.5289C33.7131 33.8473 33.6781 34.2665 33.8526 34.6185C34.0271 34.9705 34.3827 35.1979 34.777 35.2097C35.1714 35.2215 35.5401 35.0158 35.7356 34.6749C36.9733 32.7576 36.4202 30.2056 34.4984 28.966L28.3976 25.0399C26.4546 23.872 23.9327 24.4223 22.6594 26.292L14.6601 38.7283C13.4225 40.6456 13.9755 43.1976 15.8974 44.4372L22.0835 48.3421Z" fill="white"/>
<path d="M35.8209 41.466L35.8182 41.566L35.8211 41.566L35.8209 41.466ZM33.6878 40.8081L33.7419 40.724L33.7403 40.7231L33.6878 40.8081ZM39.3192 39.6409L39.4013 39.6981L39.4032 39.6952L39.3192 39.6409ZM47.3399 27.2258L47.4239 27.2801L47.4239 27.28L47.3399 27.2258ZM46.1026 21.517L46.1568 21.4329L46.1567 21.4328L46.1026 21.517ZM40.0232 17.612L40.0772 17.5279L40.0747 17.5263L40.0232 17.612ZM34.285 18.8642L34.2024 18.8079L34.201 18.81L34.285 18.8642ZM31.9173 22.5356L31.9984 22.5944L32.0013 22.5898L31.9173 22.5356ZM32.7506 24.2165L32.7536 24.1166L32.7506 24.2165ZM33.7091 23.6816L33.6251 23.6271L33.6223 23.6319L33.7091 23.6816ZM36.0769 20.0314L36.1608 20.0858L36.161 20.0855L36.0769 20.0314ZM38.8713 19.4159L38.925 19.3316L38.9247 19.3314L38.8713 19.4159ZM44.9721 23.2996L45.0265 23.2157L45.0258 23.2153L44.9721 23.2996ZM45.5693 26.0798L45.4854 26.0255L45.4854 26.0255L45.5693 26.0798ZM37.5487 38.4949L37.6302 38.5531L37.6327 38.5492L37.5487 38.4949ZM34.7543 39.1104L34.7003 39.1947L34.705 39.1974L34.7543 39.1104ZM28.6535 35.2054L28.5958 35.2872L28.5996 35.2896L28.6535 35.2054ZM28.0349 32.4253L27.9482 32.3755L27.9481 32.3756L28.0349 32.4253ZM26.2431 31.2793L26.1618 31.2204L26.1576 31.2274L26.2431 31.2793ZM27.5016 36.9881L27.4457 37.0711L27.4491 37.0732L27.5016 36.9881ZM24.2166 49L24.2139 49.1L24.2179 49.1L24.2166 49ZM22.0835 48.3421L22.1376 48.258L22.1369 48.2575L22.0835 48.3421ZM25.1125 48.8939L25.0913 48.7962L25.0904 48.7964L25.1125 48.8939ZM27.715 47.09L27.6311 47.0356L27.6308 47.0359L27.715 47.09ZM30.0828 43.4397L30.0016 43.381L29.9989 43.3853L30.0828 43.4397ZM30.1739 42.3501L30.0843 42.3945L30.1739 42.3501ZM29.2494 41.7588L29.2524 41.6589H29.2524L29.2494 41.7588ZM28.2909 42.2937L28.3751 42.348L28.3777 42.3435L28.2909 42.2937ZM25.9231 45.9652L26.0069 46.0197L26.0072 46.0194L25.9231 45.9652ZM24.6432 46.8353L24.6232 46.7373L24.6218 46.7376L24.6432 46.8353ZM23.1287 46.5594L23.1833 46.4756L23.1826 46.4752L23.1287 46.5594ZM17.0279 42.6545L16.9735 42.7384L16.974 42.7387L17.0279 42.6545ZM16.4307 39.8744L16.3467 39.82L16.3467 39.82L16.4307 39.8744ZM24.4726 27.4592L24.3911 27.4011L24.3887 27.4049L24.4726 27.4592ZM27.267 26.8438L27.3211 26.7595L27.3163 26.7568L27.267 26.8438ZM33.3465 30.7487L33.405 30.6674L33.4005 30.6646L33.3465 30.7487ZM33.9437 33.5289L34.0251 33.5878L34.0302 33.579L33.9437 33.5289ZM33.8526 34.6185L33.9422 34.5741L33.8526 34.6185ZM34.777 35.2097L34.774 35.3097L34.777 35.2097ZM35.7356 34.6749L35.6514 34.6206L35.6488 34.6251L35.7356 34.6749ZM34.4984 28.966L34.5526 28.882L34.5525 28.8819L34.4984 28.966ZM28.3976 25.0399L28.4517 24.9558L28.4491 24.9542L28.3976 25.0399ZM22.6594 26.292L22.5767 26.2357L22.5753 26.2379L22.6594 26.292ZM14.6601 38.7283L14.7442 38.7826L14.7442 38.7824L14.6601 38.7283ZM15.8974 44.4372L15.8432 44.5212L15.844 44.5217L15.8974 44.4372ZM35.8236 41.3661C35.0836 41.3459 34.3635 41.1238 33.7418 40.724L33.6337 40.8923C34.2861 41.3118 35.0417 41.5448 35.8182 41.566L35.8236 41.3661ZM39.2372 39.5837C38.4602 40.698 37.1843 41.3638 35.8207 41.366L35.8211 41.566C37.2496 41.5637 38.5868 40.8662 39.4013 39.6981L39.2372 39.5837ZM47.2559 27.1715L39.2353 39.5866L39.4032 39.6952L47.4239 27.2801L47.2559 27.1715ZM46.0484 21.601C47.924 22.8107 48.4635 25.3008 47.2558 27.1716L47.4239 27.28C48.6916 25.3162 48.1249 22.7023 46.1568 21.4329L46.0484 21.601ZM39.9691 17.6962L46.0486 21.6011L46.1567 21.4328L40.0772 17.5279L39.9691 17.6962ZM34.3677 18.9204C35.611 17.0947 38.074 16.5571 39.9717 17.6977L40.0747 17.5263C38.0865 16.3312 35.5056 16.8942 34.2024 18.8079L34.3677 18.9204ZM32.0013 22.5898L34.3691 18.9184L34.201 18.81L31.8332 22.4814L32.0013 22.5898ZM31.9157 23.5808C31.7577 23.2621 31.7894 22.8827 31.9982 22.5943L31.8363 22.477C31.5839 22.8255 31.5455 23.2843 31.7365 23.6697L31.9157 23.5808ZM32.7536 24.1166C32.3959 24.1059 32.0737 23.8996 31.9157 23.5808L31.7365 23.6697C31.9275 24.055 32.3165 24.3036 32.7476 24.3165L32.7536 24.1166ZM33.6223 23.6319C33.4453 23.9407 33.1112 24.1273 32.7536 24.1166L32.7476 24.3165C33.1786 24.3294 33.5819 24.1045 33.7958 23.7314L33.6223 23.6319ZM35.993 19.977L33.6252 23.6272L33.793 23.7361L36.1608 20.0858L35.993 19.977ZM38.9247 19.3314C37.9357 18.706 36.6243 18.9946 35.9927 19.9773L36.161 20.0855C36.7329 19.1955 37.9213 18.9335 38.8178 19.5005L38.9247 19.3314ZM45.0258 23.2153L38.925 19.3316L38.8176 19.5003L44.9184 23.384L45.0258 23.2153ZM45.6533 26.1341C46.2867 25.1552 46.0063 23.8513 45.0265 23.2157L44.9177 23.3835C45.8052 23.9592 46.0586 25.1395 45.4854 26.0255L45.6533 26.1341ZM37.6327 38.5492L45.6533 26.134L45.4854 26.0255L37.4647 38.4406L37.6327 38.5492ZM34.705 39.1974C35.7016 39.7617 36.9659 39.4834 37.6301 38.553L37.4674 38.4368C36.8628 39.2836 35.7113 39.5374 34.8036 39.0233L34.705 39.1974ZM28.5996 35.2896L34.7004 39.1946L34.8082 39.0261L28.7075 35.1212L28.5996 35.2896ZM27.9481 32.3756C27.3805 33.3678 27.6607 34.6263 28.5958 35.2871L28.7113 35.1238C27.86 34.5222 27.6054 33.3773 28.1217 32.4749L27.9481 32.3756ZM27.6314 31.0912C28.0637 31.3676 28.2025 31.9319 27.9482 32.3755L28.1217 32.475C28.4293 31.9385 28.2609 31.2564 27.7391 30.9227L27.6314 31.0912ZM26.3241 31.3379C26.6244 30.9232 27.1988 30.8145 27.6314 31.0912L27.7391 30.9227C27.2176 30.5891 26.5248 30.7198 26.1621 31.2206L26.3241 31.3379ZM27.5575 36.9052C25.7224 35.6681 25.1825 33.2184 26.3286 31.3312L26.1576 31.2274C24.9559 33.2062 25.5223 35.7745 27.4458 37.071L27.5575 36.9052ZM33.7403 40.7231L27.5542 36.903L27.4491 37.0732L33.6352 40.8932L33.7403 40.7231ZM24.2193 48.9C23.4793 48.8799 22.7592 48.6578 22.1376 48.258L22.0294 48.4262C22.6818 48.8457 23.4375 49.0788 24.2139 49.1L24.2193 48.9ZM25.0904 48.7964C24.8032 48.8616 24.5099 48.8963 24.2154 48.9L24.2179 49.1C24.5265 49.0961 24.8338 49.0597 25.1347 48.9914L25.0904 48.7964ZM27.6308 47.0359C27.053 47.9348 26.1393 48.5682 25.0913 48.7962L25.1338 48.9916C26.2335 48.7524 27.1924 48.0878 27.7991 47.1441L27.6308 47.0359ZM29.9989 43.3853L27.6311 47.0356L27.7989 47.1444L30.1666 43.4941L29.9989 43.3853ZM30.0843 42.3945C30.2423 42.7132 30.2106 43.0927 30.0018 43.3811L30.1637 43.4984C30.4161 43.1498 30.4545 42.691 30.2635 42.3057L30.0843 42.3945ZM29.2464 41.8588C29.6041 41.8695 29.9263 42.0758 30.0843 42.3945L30.2635 42.3057C30.0725 41.9204 29.6835 41.6718 29.2524 41.6589L29.2464 41.8588ZM28.3777 42.3435C28.5547 42.0347 28.8888 41.8481 29.2464 41.8588L29.2524 41.6589C28.8214 41.646 28.4181 41.8709 28.2042 42.244L28.3777 42.3435ZM26.0072 46.0194L28.375 42.3479L28.2069 42.2395L25.8391 45.911L26.0072 46.0194ZM24.6633 46.9333C25.216 46.8203 25.7002 46.4913 26.0069 46.0197L25.8393 45.9107C25.5618 46.3372 25.1237 46.6351 24.6232 46.7373L24.6633 46.9333ZM23.0741 46.6432C23.5436 46.9489 24.117 47.0534 24.6647 46.933L24.6218 46.7376C24.1263 46.8465 23.6077 46.752 23.1833 46.4756L23.0741 46.6432ZM16.974 42.7387L23.0748 46.6436L23.1826 46.4752L17.0818 42.5703L16.974 42.7387ZM16.3467 39.82C15.7133 40.799 15.9937 42.1029 16.9735 42.7384L17.0823 42.5706C16.1948 41.9949 15.9414 40.8146 16.5146 39.9287L16.3467 39.82ZM24.3887 27.4049L16.3467 39.82L16.5146 39.9287L24.5565 27.5136L24.3887 27.4049ZM27.3163 26.7568C26.3198 26.1924 25.0554 26.4707 24.3912 27.4011L24.554 27.5173C25.1585 26.6705 26.31 26.4167 27.2177 26.9308L27.3163 26.7568ZM33.4005 30.6646L27.321 26.7597L27.213 26.9279L33.2924 30.8329L33.4005 30.6646ZM34.0302 33.579C34.6025 32.5923 34.3322 31.335 33.4049 30.6676L33.288 30.8299C34.1322 31.4375 34.3777 32.5812 33.8572 33.4787L34.0302 33.579ZM33.9422 34.5741C33.7842 34.2554 33.8159 33.8759 34.0247 33.5875L33.8627 33.4702C33.6104 33.8187 33.572 34.2776 33.763 34.6629L33.9422 34.5741ZM34.78 35.1098C34.4224 35.0991 34.1002 34.8928 33.9422 34.5741L33.763 34.6629C33.954 35.0482 34.343 35.2968 34.774 35.3097L34.78 35.1098ZM35.6488 34.6251C35.4718 34.9339 35.1377 35.1205 34.78 35.1098L34.774 35.3097C35.2051 35.3226 35.6084 35.0977 35.8223 34.7246L35.6488 34.6251ZM34.4441 29.0501C36.3197 30.2598 36.8592 32.7499 35.6516 34.6206L35.8196 34.7291C37.0873 32.7652 36.5206 30.1514 34.5526 28.882L34.4441 29.0501ZM28.3435 25.124L34.4442 29.0501L34.5525 28.8819L28.4517 24.9558L28.3435 25.124ZM22.7421 26.3483C23.9854 24.5226 26.4484 23.9849 28.3461 25.1256L28.4491 24.9542C26.4609 23.7591 23.88 24.322 22.5768 26.2357L22.7421 26.3483ZM14.7442 38.7824L22.7435 26.3461L22.5753 26.2379L14.576 38.6742L14.7442 38.7824ZM15.9516 44.3531C14.076 43.1434 13.5365 40.6533 14.7442 38.7826L14.5761 38.6741C13.3084 40.638 13.8751 43.2518 15.8432 44.5212L15.9516 44.3531ZM22.1369 48.2575L15.9507 44.3526L15.844 44.5217L22.0301 48.4267L22.1369 48.2575Z" fill="white"/>
</svg>
