<svg width="62" height="66" viewBox="0 0 62 66" fill="none" xmlns="http://www.w3.org/2000/svg">
<path fill-rule="evenodd" clip-rule="evenodd" d="M57.9341 13.4318L57.9353 13.4329C60.4554 14.8059 62.0023 17.3156 62 20.0274V46.3329C62.0027 49.0792 60.4162 51.6154 57.8449 52.9751L35.031 65.0097C32.5307 66.3301 29.4656 66.3301 26.9653 65.0097L4.15387 52.9751C1.58361 51.6152 -0.00230016 49.0797 3.66655e-06 46.3341V20.0285C-0.00274817 17.3166 1.54366 14.8065 4.06343 13.4329L26.8675 1.03767C29.4147 -0.345889 32.5682 -0.345889 35.1154 1.03767L57.9341 13.4329V13.4318Z" fill="#E53F34" fill-opacity="0.8"/>
<path fill-rule="evenodd" clip-rule="evenodd" d="M18.45 19H44.55C45.275 19 46 19.725 46 20.45V42.2C46 42.925 45.275 43.65 44.55 43.65H18.45C17.725 43.65 17 42.925 17 42.2V20.45C17 19.725 17.725 19 18.45 19ZM40.2 45.825H22.8V48H40.2V45.825ZM43.825 40.75C43.825 41.2333 43.5833 41.475 43.1 41.475H19.9C19.4167 41.475 19.175 41.2333 19.175 40.75V21.9C19.175 21.6583 19.175 21.4167 19.4167 21.4167C19.5556 21.2777 19.6147 21.2186 19.6858 21.1935C19.7383 21.175 19.7973 21.175 19.9 21.175H43.1C43.3417 21.175 43.5833 21.175 43.5833 21.4167L43.5834 21.4167C43.7223 21.5556 43.7814 21.6147 43.8065 21.6858C43.825 21.7383 43.825 21.7973 43.825 21.9V40.75ZM24.7333 31.325L28.3583 27.7L26.6667 26.25L23.0417 29.875L21.5917 31.325L23.2833 32.775L26.6667 36.4L28.3583 34.95L24.7333 31.325ZM38.2667 31.325L34.6417 27.7L36.3333 26.25L39.7167 29.875L41.4083 31.325L39.9583 32.775L36.3333 36.4L34.6417 34.95L38.2667 31.325ZM30.5333 36.4V26.25H32.7083V36.4H30.5333Z" fill="white"/>
</svg>
