<svg width="190" height="153" viewBox="0 0 190 153" fill="none" xmlns="http://www.w3.org/2000/svg">
<ellipse opacity="0.1" cx="102.762" cy="80.4655" rx="37.1403" ry="37.1494" fill="url(#paint0_linear)"/>
<path opacity="0.3" fill-rule="evenodd" clip-rule="evenodd" d="M71.8585 80.6177C71.8585 63.568 85.68 49.7464 102.73 49.7464C119.78 49.7464 133.601 63.568 133.601 80.6177C133.601 97.6673 119.78 111.489 102.73 111.489C85.68 111.489 71.8585 97.6673 71.8585 80.6177ZM132.72 80.6182C132.72 64.0551 119.293 50.6283 102.73 50.6283C86.167 50.6283 72.7399 64.0551 72.7399 80.6182C72.7399 97.1813 86.167 110.608 102.73 110.608C119.293 110.608 132.72 97.1813 132.72 80.6182Z" fill="url(#paint1_linear)"/>
<g filter="url(#filter0_d)">
<path fill-rule="evenodd" clip-rule="evenodd" d="M100.79 102.263L85.3425 63.9401L114.508 69.2323L122.246 76.486L100.79 102.263ZM105.275 80.7662L116.788 78.7098L103.582 94.5825L105.275 80.7662ZM91.0314 70.4129L100.658 94.2543L102.443 79.7287L91.0314 70.4129ZM108.05 77.4524L113.827 72.6352L117.158 75.8023L108.05 77.4524ZM93.0618 68.2311L103.832 77.0727L110.665 71.4378L93.0618 68.2311Z" fill="url(#paint2_linear)"/>
</g>
<g filter="url(#filter1_d)">
<path fill-rule="evenodd" clip-rule="evenodd" d="M102.762 126.396C128.122 126.396 148.681 105.832 148.681 80.4656C148.681 80.4149 148.681 80.3643 148.681 80.3136C147.16 80.6917 145.578 80.9168 143.951 80.9714C143.68 103.494 125.343 121.668 102.762 121.668C96.5957 121.668 90.7458 120.313 85.4939 117.884C84.6854 119.28 83.7325 120.582 82.6556 121.77C88.7281 124.733 95.551 126.396 102.762 126.396ZM124.446 45.4281C125.351 44.1102 126.391 42.8919 127.547 41.7937C120.397 37.1999 111.891 34.5354 102.762 34.5354C77.4018 34.5354 56.8431 55.0991 56.8431 80.4656C56.8431 82.1808 56.9371 83.874 57.1202 85.5404C58.5872 84.931 60.1318 84.471 61.7351 84.1794C61.6259 82.9561 61.5701 81.7175 61.5701 80.4659C61.5701 57.7106 80.0124 39.2638 102.762 39.2638C110.719 39.2638 118.148 41.5202 124.446 45.4281Z" fill="url(#paint3_linear)"/>
</g>
<path opacity="0.4" fill-rule="evenodd" clip-rule="evenodd" d="M69.5777 134.151C71.2295 133.469 72.7996 132.618 74.2644 131.618C81.0621 135.464 88.7431 138.007 97.0055 138.875C129.241 142.263 158.119 118.875 161.508 86.6351C161.799 83.8661 161.892 81.1219 161.8 78.4165C163.399 77.6634 164.917 76.7568 166.333 75.7135C168.546 104.986 149.963 132.801 120.556 141.233C102.609 146.379 84.2561 143.267 69.5777 134.151ZM53.1177 41.7935C42.1622 55.8929 37.2947 74.4167 40.9965 92.9038C42.2374 91.5722 43.6158 90.3757 45.1062 89.3352C44.372 84.488 44.2376 79.469 44.7739 74.3658C45.9879 62.8158 50.4734 52.4018 57.2128 43.9481C55.7208 43.4455 54.343 42.7121 53.1177 41.7935ZM75.1976 23.8171C75.8399 25.1853 76.2757 26.6638 76.4686 28.2092C86.2473 23.2083 97.5393 20.892 109.276 22.1257C118.954 23.1428 127.834 26.4577 135.431 31.4714C136.866 30.5204 138.395 29.7045 139.997 29.0395C124.828 18.2565 105.042 14.2293 85.7261 19.7679C82.04 20.8249 78.5239 22.1864 75.1976 23.8171Z" fill="#510E0F"/>
<circle opacity="0.3" cx="176.959" cy="134.116" r="12.4182" fill="#5E1010"/>
<ellipse opacity="0.1" cx="18.1616" cy="18.0064" rx="18.1616" ry="18.0064" fill="#5E1010"/>
<path d="M65.4452 92.148L54.2436 94.6183L53.2376 94.7863C52.6602 94.8828 52.2371 95.3824 52.2371 95.9678V110.28C52.2371 111.42 52.4963 112.546 53.0084 113.649C53.4565 114.623 54.0352 115.567 54.7437 116.483L55.3165 117.206L55.4993 117.433L55.5422 117.486C55.802 117.803 56.0322 118.07 56.2742 118.328C56.5137 118.584 56.7615 118.828 57.0298 119.071L57.327 119.337L57.5011 119.494L58.2468 120.181L58.4372 120.354C58.4681 120.382 58.4986 120.41 58.5288 120.437L58.7055 120.593L58.8749 120.74L59.0381 120.878C59.1183 120.945 59.1968 121.009 59.2742 121.071L59.4277 121.191C59.5802 121.308 59.7303 121.416 59.8838 121.52L59.9609 121.572C60.1022 121.666 60.2397 121.757 60.374 121.844L60.6383 122.014L60.8948 122.175C61.3163 122.437 61.7089 122.666 62.0908 122.87L62.3189 122.989C62.4703 123.067 62.6205 123.142 62.7708 123.213C63.7113 123.659 64.5528 123.97 65.3032 124.146L65.6136 124.211C65.7446 124.238 65.8791 124.242 66.0114 124.225L66.1984 124.192L66.3813 124.157L66.4103 124.151L66.4391 124.145C66.5183 124.126 66.599 124.106 66.6807 124.085L66.9289 124.021L67.1819 123.953C67.2243 123.941 67.2669 123.93 67.3095 123.918L67.5659 123.844L67.8223 123.768C67.9076 123.742 67.9925 123.716 68.0768 123.689L68.3275 123.609C68.8238 123.445 69.286 123.272 69.6461 123.105L69.9206 122.975L70.7476 122.594L70.852 122.545L71.0489 122.452L71.2337 122.362L71.4102 122.273C71.4392 122.259 71.468 122.244 71.4967 122.229C71.9062 122.016 72.2733 121.8 72.6208 121.56C73.0651 121.254 73.4748 120.925 73.949 120.504L74.2105 120.268L75.2303 119.331C75.6814 118.921 76.0374 118.531 76.4616 117.993L76.6058 117.808C76.6304 117.776 76.6552 117.744 76.6802 117.711L76.8345 117.506L77.3027 116.877L77.4835 116.639C78.2249 115.67 78.8253 114.67 79.2868 113.631C79.7756 112.531 80.0233 111.411 80.0233 110.28V95.9678C80.0233 95.4264 79.6607 94.9547 79.1426 94.8127L78.3321 94.6265L78.2861 94.6169L65.9385 92.1433C65.7755 92.1106 65.6075 92.1123 65.4452 92.148Z" fill="#1D030A"/>
<path opacity="0.2" d="M77.6726 110.054C77.6726 110.92 77.4815 111.781 77.1005 112.637C76.7183 113.495 76.2195 114.324 75.6016 115.13C74.9837 115.934 74.4906 116.696 73.6977 117.415C72.9036 118.134 72.2686 118.774 71.4528 119.336C70.6358 119.899 69.7583 120.236 68.9883 120.608C68.2182 120.98 66.8104 121.366 66.2303 121.505L65.9557 121.557L65.7039 121.505C65.1089 121.366 64.419 121.111 63.6329 120.739C62.8468 120.367 62.0767 119.899 61.2299 119.336C60.3832 118.774 59.6386 117.999 58.8216 117.28C58.0058 116.562 57.5275 115.934 56.8867 115.13C56.246 114.324 55.7276 113.495 55.3317 112.637C54.9335 111.781 54.7356 110.92 54.7356 110.054V97.1485L55.6739 96.9921L65.8183 94.759L76.9861 96.9921L77.6726 97.1485V110.054Z" fill="url(#paint4_linear)"/>
<path fill-rule="evenodd" clip-rule="evenodd" d="M81.2974 114.41C81.8098 113.219 82.0668 112.021 82.0668 110.816V92.8604L65.6114 89.5358L50.1936 92.8604V110.816C50.1936 112.021 50.4598 113.219 50.9953 114.41C51.5277 115.604 52.2247 116.757 53.0864 117.878C53.948 118.997 54.9282 120.058 56.0253 121.057C57.1239 122.058 58.241 122.949 59.3797 123.731C60.5183 124.514 61.6154 125.165 62.6725 125.682C63.7296 126.2 64.6574 126.555 65.4576 126.748L65.7961 126.82L66.1654 126.748C66.3379 126.706 66.5705 126.655 66.8394 126.596C67.7859 126.39 69.1815 126.085 69.9879 125.682C71.0235 125.165 72.0898 124.514 73.1884 123.731C74.2855 122.949 75.3673 122.058 76.4351 121.057C77.5014 120.058 78.4508 118.997 79.2817 117.878C80.1126 116.757 80.7835 115.604 81.2974 114.41ZM79.2408 113.506C79.6837 112.488 79.9059 111.464 79.9059 110.434V95.0801L79.1078 94.894L65.6817 92.2373L53.4451 94.894L52.3545 95.0801V110.434C52.3545 111.464 52.5846 112.488 53.0474 113.506C53.5076 114.528 54.1102 115.514 54.855 116.472C55.5998 117.429 56.4471 118.336 57.3954 119.19C58.3451 120.046 59.3107 120.808 60.295 121.476C61.2792 122.146 62.2276 122.703 63.1413 123.145C64.0551 123.588 64.8571 123.891 65.5487 124.057L65.8414 124.118L66.1606 124.057C66.3098 124.02 66.5108 123.977 66.7432 123.927C67.5614 123.75 68.7677 123.49 69.4648 123.145C70.36 122.703 71.2817 122.146 72.2314 121.476C73.1797 120.808 74.1147 120.046 75.0378 119.19C75.9596 118.336 76.7802 117.429 77.4984 116.472C78.2167 115.514 78.7966 114.528 79.2408 113.506Z" fill="url(#paint5_linear)"/>
<path fill-rule="evenodd" clip-rule="evenodd" d="M67.08 106.596C68.1556 106.24 68.9316 105.228 68.9316 104.035C68.9316 102.545 67.7223 101.338 66.2305 101.338C64.7387 101.338 63.5294 102.545 63.5294 104.035C63.5294 105.118 64.169 106.052 65.0917 106.481V111.769L67.08 113.117V106.596Z" fill="url(#paint6_linear)"/>
<rect x="128.646" y="51.7624" width="28.0916" height="19.9932" rx="2.65725" fill="#1D030A"/>
<rect opacity="0.2" x="130.8" y="54.2365" width="23.3912" height="15.2157" fill="url(#paint7_linear)"/>
<path fill-rule="evenodd" clip-rule="evenodd" d="M147.698 59.0061C147.34 58.5796 146.704 58.5241 146.278 58.8821L141.487 62.9048L139.518 60.7169C139.145 60.3021 138.506 60.2685 138.092 60.6418C137.677 61.015 137.644 61.6535 138.017 62.0681L140.641 64.9844C141.014 65.3992 141.653 65.4328 142.067 65.0595C142.091 65.0383 142.113 65.0163 142.134 64.9934L147.574 60.4259C148 60.068 148.056 59.4324 147.698 59.0061Z" fill="url(#paint8_linear)"/>
<path fill-rule="evenodd" clip-rule="evenodd" d="M131.887 49.5982C131.887 43.6311 136.724 38.7937 142.691 38.7937C148.659 38.7937 153.496 43.6311 153.496 49.5982V50.1416H151.335V47.5985C151.335 43.9296 148.361 40.9554 144.692 40.9554H140.691C137.022 40.9554 134.048 43.9296 134.048 47.5985V50.1416H131.887V49.5982Z" fill="url(#paint9_linear)"/>
<path fill-rule="evenodd" clip-rule="evenodd" d="M131.799 49.6006C128.864 49.6006 126.485 51.98 126.485 54.9151V68.6021C126.485 71.5372 128.864 73.9166 131.799 73.9166H153.584C156.519 73.9166 158.898 71.5372 158.898 68.6021V54.9151C158.898 51.98 156.519 49.6006 153.584 49.6006H131.799ZM131.303 51.7614C129.835 51.7614 128.646 52.9511 128.646 54.4187V69.0973C128.646 70.5649 129.835 71.7546 131.303 71.7546H154.08C155.548 71.7546 156.737 70.5649 156.737 69.0973V54.4187C156.737 52.9511 155.548 51.7614 154.08 51.7614H131.303Z" fill="url(#paint10_linear)"/>
<defs>
<filter id="filter0_d" x="66.3425" y="49.9401" width="74.9036" height="76.323" filterUnits="userSpaceOnUse" color-interpolation-filters="sRGB">
<feFlood flood-opacity="0" result="BackgroundImageFix"/>
<feColorMatrix in="SourceAlpha" type="matrix" values="0 0 0 0 0 0 0 0 0 0 0 0 0 0 0 0 0 0 127 0"/>
<feOffset dy="5"/>
<feGaussianBlur stdDeviation="9.5"/>
<feColorMatrix type="matrix" values="0 0 0 0 0.567312 0 0 0 0 0.153284 0 0 0 0 0.126543 0 0 0 0.401115 0"/>
<feBlend mode="normal" in2="BackgroundImageFix" result="effect1_dropShadow"/>
<feBlend mode="normal" in="SourceGraphic" in2="effect1_dropShadow" result="shape"/>
</filter>
<filter id="filter1_d" x="35.8431" y="18.5354" width="133.838" height="133.86" filterUnits="userSpaceOnUse" color-interpolation-filters="sRGB">
<feFlood flood-opacity="0" result="BackgroundImageFix"/>
<feColorMatrix in="SourceAlpha" type="matrix" values="0 0 0 0 0 0 0 0 0 0 0 0 0 0 0 0 0 0 127 0"/>
<feOffset dy="5"/>
<feGaussianBlur stdDeviation="10.5"/>
<feColorMatrix type="matrix" values="0 0 0 0 0.424281 0 0 0 0 0.0813529 0 0 0 0 0.0592037 0 0 0 0.466974 0"/>
<feBlend mode="normal" in2="BackgroundImageFix" result="effect1_dropShadow"/>
<feBlend mode="normal" in="SourceGraphic" in2="effect1_dropShadow" result="shape"/>
</filter>
<linearGradient id="paint0_linear" x1="42.6472" y1="11.3628" x2="50.6357" y2="125.252" gradientUnits="userSpaceOnUse">
<stop stop-color="#972424"/>
<stop offset="1" stop-color="#5E1010"/>
</linearGradient>
<linearGradient id="paint1_linear" x1="52.7619" y1="23.1931" x2="59.3988" y2="117.836" gradientUnits="userSpaceOnUse">
<stop stop-color="#972424"/>
<stop offset="1" stop-color="#5E1010"/>
</linearGradient>
<linearGradient id="paint2_linear" x1="75.9926" y1="67.6192" x2="83.6233" y2="122.322" gradientUnits="userSpaceOnUse">
<stop stop-color="#AE2222"/>
<stop offset="1" stop-color="#7F1111"/>
</linearGradient>
<linearGradient id="paint3_linear" x1="28.4382" y1="-4.97041" x2="38.315" y2="135.838" gradientUnits="userSpaceOnUse">
<stop stop-color="#972424"/>
<stop offset="1" stop-color="#5E1010"/>
</linearGradient>
<linearGradient id="paint4_linear" x1="47.6413" y1="83.2343" x2="51.0007" y2="124.238" gradientUnits="userSpaceOnUse">
<stop stop-color="#972424"/>
<stop offset="1" stop-color="#5E1010"/>
</linearGradient>
<linearGradient id="paint5_linear" x1="40.3354" y1="73.5011" x2="45.0153" y2="130.55" gradientUnits="userSpaceOnUse">
<stop stop-color="#972424"/>
<stop offset="1" stop-color="#5E1010"/>
</linearGradient>
<linearGradient id="paint6_linear" x1="61.8585" y1="96.2721" x2="64.5694" y2="114.002" gradientUnits="userSpaceOnUse">
<stop stop-color="#972424"/>
<stop offset="1" stop-color="#5E1010"/>
</linearGradient>
<linearGradient id="paint7_linear" x1="123.565" y1="47.6928" x2="124.632" y2="71.0822" gradientUnits="userSpaceOnUse">
<stop stop-color="#972424"/>
<stop offset="1" stop-color="#5E1010"/>
</linearGradient>
<linearGradient id="paint8_linear" x1="134.61" y1="55.7764" x2="135.082" y2="66.0334" gradientUnits="userSpaceOnUse">
<stop stop-color="#972424"/>
<stop offset="1" stop-color="#5E1010"/>
</linearGradient>
<linearGradient id="paint9_linear" x1="125.203" y1="33.9134" x2="125.846" y2="51.3699" gradientUnits="userSpaceOnUse">
<stop stop-color="#972424"/>
<stop offset="1" stop-color="#5E1010"/>
</linearGradient>
<linearGradient id="paint10_linear" x1="116.459" y1="39.1432" x2="118.425" y2="76.496" gradientUnits="userSpaceOnUse">
<stop stop-color="#972424"/>
<stop offset="1" stop-color="#5E1010"/>
</linearGradient>
</defs>
</svg>
