<svg width="190" height="165" viewBox="0 0 190 165" fill="none" xmlns="http://www.w3.org/2000/svg">
<g filter="url(#filter0_d)">
<path fill-rule="evenodd" clip-rule="evenodd" d="M84.8059 124.809C90.6748 127.277 96.9024 128.525 103.329 128.525C109.746 128.525 115.984 127.277 121.853 124.809C127.523 122.43 132.604 119.021 136.978 114.67C141.343 110.319 144.77 105.264 147.172 99.6246C149.653 93.7869 150.909 87.5924 150.909 81.2C150.909 74.8071 149.653 68.6127 147.172 62.775C144.78 57.1356 141.343 52.0809 136.978 47.7295C132.604 43.3888 127.523 39.9792 121.853 37.5906C115.984 35.1229 109.757 33.8741 103.329 33.8741C96.9024 33.8741 90.6748 35.1229 84.8059 37.5906C79.1364 39.9691 74.0547 43.3786 69.6805 47.7295C65.316 52.0809 61.8887 57.1356 59.4869 62.775C57.0059 68.6127 55.7504 74.8071 55.7504 81.2C55.7504 87.5924 57.0059 93.7869 59.4869 99.6246C61.8785 105.264 65.3063 110.329 69.6805 114.67C74.0547 119.011 79.1364 122.42 84.8059 124.809ZM60.3991 81.1992C60.3991 57.5235 79.6544 38.2686 103.329 38.2686C126.995 38.2686 146.26 57.5235 146.26 81.1992C146.26 104.874 127.005 124.129 103.329 124.129C79.6544 124.129 60.3991 104.874 60.3991 81.1992Z" fill="url(#paint0_linear)"/>
</g>
<circle opacity="0.2" cx="103.584" cy="81.73" r="36.5634" fill="url(#paint1_linear)"/>
<mask id="mask0" mask-type="alpha" maskUnits="userSpaceOnUse" x="77" y="67" width="67" height="49">
<path fill-rule="evenodd" clip-rule="evenodd" d="M77.5381 83.6098L134.28 67.3393L143.497 99.4846L86.7557 115.755L77.5381 83.6098Z" fill="white"/>
</mask>
<g mask="url(#mask0)">
<g opacity="0.5" filter="url(#filter1_d)">
<path fill-rule="evenodd" clip-rule="evenodd" d="M128.236 79.0019C128.832 77.7597 129.378 76.4947 129.871 75.2096L125.684 73.6243L134.28 67.3397L136.349 77.6614L132.378 76.158C131.848 77.5321 131.258 78.8913 130.618 80.2262C130.317 79.9491 129.982 79.7087 129.622 79.5111C129.189 79.2747 128.721 79.1039 128.236 79.0039L128.236 79.0019ZM97.4337 112.585C98.0962 112.397 98.6581 111.957 98.9958 111.362L98.9907 111.359C99.3142 110.785 99.4174 110.09 99.2221 109.409C99.0268 108.728 98.5689 108.194 97.9924 107.878L97.9042 107.828C97.346 107.549 96.6756 107.475 96.0221 107.662C95.332 107.86 94.7838 108.317 94.4628 108.89C94.1377 109.464 94.0364 110.159 94.2317 110.84C94.427 111.521 94.881 112.056 95.4611 112.371C96.0375 112.687 96.7437 112.783 97.4337 112.585ZM112.055 99.6676C108.583 102.612 104.826 105.199 100.9 107.353L100.9 107.354C101.186 107.781 101.404 108.25 101.545 108.743C101.657 109.137 101.721 109.531 101.735 109.922C105.989 107.633 110.053 104.854 113.793 101.683C118.313 97.847 122.368 93.4338 125.723 88.6031C125.379 88.5008 125.048 88.3633 124.733 88.1933C124.255 87.9327 123.825 87.5941 123.453 87.1918C120.244 91.7963 116.37 96.0049 112.055 99.6676ZM86.7715 112.67C87.4051 112.52 87.9591 112.409 88.4836 112.303C89.5898 112.08 90.5654 111.883 91.8827 111.415C91.8869 111.43 91.8907 111.446 91.8945 111.461C91.8983 111.477 91.9021 111.492 91.9064 111.507C92.1503 112.359 92.6217 113.129 93.2707 113.737C92.6916 113.948 92.3359 114.008 91.9567 114.071C91.6404 114.124 91.3077 114.18 90.8153 114.329C89.4341 113.857 88.0838 113.303 86.7715 112.67ZM129.777 85.1541C129.446 85.7528 128.891 86.195 128.233 86.3827L128.233 86.3831C127.577 86.572 126.873 86.4911 126.277 86.1576C125.699 85.8382 125.246 85.2951 125.049 84.6111C124.859 83.9523 124.938 83.2455 125.27 82.6463C125.599 82.0479 126.153 81.6062 126.81 81.4193C127.466 81.2297 128.172 81.3103 128.77 81.6428C129.348 81.9641 129.803 82.5052 130 83.1916C130.19 83.8496 130.109 84.5559 129.777 85.1541Z" fill="url(#paint2_linear)"/>
</g>
</g>
<g opacity="0.8" filter="url(#filter2_d)">
<path fill-rule="evenodd" clip-rule="evenodd" d="M111.419 59.1353L107.976 56.2708C105.239 60.2209 103.051 64.7151 101.369 69.4824C101.268 69.4178 101.165 69.3558 101.06 69.2958C100.372 68.9125 99.6021 68.6986 98.8149 68.6709C100.604 63.5828 102.953 58.7767 105.914 54.5522L102.668 51.8475L112.743 48.6143L111.419 59.1353ZM96.9899 104.312L97.3069 104.273L102.287 95.5357L98.2301 95.9393C97.4017 89.2388 97.2479 85.0896 99.0091 78.3625C98.0989 78.3894 97.2183 78.1634 96.4503 77.7367L96.4094 77.716C94.8355 84.2944 94.6738 89.0088 95.5636 96.2059L90.974 96.6621L96.9899 104.312ZM100.907 74.9129C100.59 75.4866 100.051 75.9397 99.3621 76.1372C98.7061 76.3265 98.0011 76.2458 97.4039 75.9131C96.8264 75.5937 96.3726 75.0506 96.1764 74.3662C95.9883 73.7101 96.0659 73.0466 96.3477 72.4851L96.3971 72.4018C96.7272 71.8032 97.2823 71.3611 97.9389 71.1737C98.5945 70.9845 99.2987 71.0654 99.8952 71.3988C100.473 71.7202 100.93 72.2602 101.127 72.9465C101.324 73.6309 101.222 74.3331 100.902 74.91L100.907 74.9129Z" fill="url(#paint3_linear)"/>
</g>
<g filter="url(#filter3_d)">
<path fill-rule="evenodd" clip-rule="evenodd" d="M69.528 70.0974C69.552 70.0371 69.5762 69.9761 69.6005 69.9142C69.9106 71.2233 70.2679 72.5351 70.6656 73.845C71.1125 73.5396 71.6058 73.3083 72.1258 73.1596C72.4783 73.0585 72.8403 72.9962 73.2063 72.9734C72.4551 70.4896 71.8627 68.0009 71.4508 65.5343C70.8987 66.536 70.3947 67.8505 69.94 69.0362C69.8236 69.3398 69.7104 69.6349 69.6005 69.9142C69.576 69.8109 69.5518 69.7075 69.528 69.6042L69.528 70.0974ZM74.3652 80.1541C75.0222 79.9666 75.577 79.5251 75.907 78.926L75.9578 78.8402C76.2382 78.2813 76.3154 77.6161 76.1278 76.9621C75.931 76.2757 75.4758 75.7351 74.9003 75.4151C74.3027 75.0825 73.5981 75.0017 72.942 75.1907C72.2844 75.3775 71.728 75.8182 71.395 76.4159L71.3982 76.4194C71.0817 76.9951 70.9811 77.6972 71.1773 78.3816C71.3663 79.0391 71.8074 79.595 72.4043 79.9282C72.9824 80.2496 73.6806 80.3504 74.3652 80.1541ZM93.7991 75.1814C88.7807 75.3314 83.633 76.138 78.4973 77.6733C78.4732 77.3025 78.4095 76.9353 78.307 76.5779C78.1553 76.0488 77.9271 75.5642 77.6301 75.1342C83.0663 73.5015 88.5164 72.647 93.8324 72.5029C93.5838 73.3473 93.5577 74.2714 93.7991 75.1814ZM111.224 82.4249L112.192 78.0635C116.654 79.3321 119.106 80.3216 122.86 82.6571C123.133 81.7775 123.615 81.0127 124.308 80.3959C120.296 77.8958 117.546 76.7859 112.775 75.4439L113.698 71.2862L103.879 74.4795L111.224 82.4249ZM137.31 92.6826L137.31 92.6836C136.505 91.513 135.641 90.3842 134.721 89.3027C133.88 88.313 132.993 87.3638 132.064 86.457L132.015 86.5384C131.594 87.2957 130.979 87.9444 130.207 88.4042C131.07 89.2464 131.893 90.124 132.667 91.0373C133.931 92.523 135.08 94.0978 136.099 95.7535C136.55 94.7492 136.953 93.725 137.31 92.6836L137.311 92.6854L137.31 92.6826ZM78.5828 91.4573C82.6265 98.2078 86.0228 103.004 91.9217 108.053C92.4373 107.238 92.9162 106.68 93.8025 106.198C88.195 101.387 84.8483 96.6563 80.9764 90.2269L84.8235 88.2486L76.0254 83.1233L75.5991 83.354L74.6591 93.4722L78.5828 91.4573ZM104.825 115.769C105.48 116.093 106.143 116.403 106.811 116.698C108.491 116.498 110.155 116.183 111.792 115.756C111.528 115.667 111.267 115.581 111.009 115.495C109.353 114.946 107.811 114.435 106.181 113.63C104.833 112.961 103.516 112.235 102.232 111.451C102.144 111.907 101.994 112.347 101.787 112.762L101.688 112.927C101.502 113.26 101.279 113.573 101.02 113.858C101.913 114.397 102.741 114.784 103.608 115.189C104.002 115.373 104.405 115.561 104.825 115.769Z" fill="url(#paint4_linear)"/>
</g>
<path opacity="0.4" fill-rule="evenodd" clip-rule="evenodd" d="M161.4 105.418C150.718 130.13 124.852 146.164 96.5894 143.193C94.6095 142.985 92.6605 142.688 90.746 142.307C91.2612 141.048 91.6086 139.696 91.758 138.275C91.7697 138.163 91.7801 138.052 91.7893 137.941C93.5164 138.281 95.2737 138.546 97.058 138.734C122.949 141.455 146.674 126.904 156.768 104.367C158.016 104.874 159.356 105.217 160.763 105.364C160.976 105.387 161.188 105.405 161.4 105.418ZM66.7638 126.39C65.6976 127.46 64.7926 128.698 64.0936 130.066C47.5286 117.083 37.8116 96.1597 40.169 73.7308C42.1013 55.3463 51.7583 39.6381 65.5881 29.4738C66.2402 30.8684 67.1066 32.1487 68.1486 33.2687C55.4598 42.7201 46.6075 57.2431 44.8231 74.2202C42.6426 94.9663 51.5479 114.322 66.7638 126.39ZM93.5392 22.44C98.6397 21.5924 103.938 21.41 109.33 21.9767C138.056 24.9959 159.754 48.2593 161.742 76.1034C162.43 76.0783 163.127 76.1012 163.831 76.1752C164.739 76.2706 165.619 76.447 166.465 76.6964C164.717 46.3273 141.124 20.8094 109.798 17.5169C103.924 16.8995 98.1526 17.1031 92.5997 18.0352C93.1298 19.4215 93.4543 20.9033 93.5392 22.44Z" fill="#510E0F"/>
<circle opacity="0.3" cx="176.971" cy="134.125" r="12.419" fill="#5E1010"/>
<ellipse opacity="0.1" cx="18.1628" cy="18.0075" rx="18.1628" ry="18.0075" fill="#5E1010"/>
<defs>
<filter id="filter0_d" x="26.7504" y="11.8741" width="153.158" height="152.651" filterUnits="userSpaceOnUse" color-interpolation-filters="sRGB">
<feFlood flood-opacity="0" result="BackgroundImageFix"/>
<feColorMatrix in="SourceAlpha" type="matrix" values="0 0 0 0 0 0 0 0 0 0 0 0 0 0 0 0 0 0 127 0"/>
<feOffset dy="7"/>
<feGaussianBlur stdDeviation="14.5"/>
<feColorMatrix type="matrix" values="0 0 0 0 0.424281 0 0 0 0 0.0813529 0 0 0 0 0.0592037 0 0 0 0.466974 0"/>
<feBlend mode="normal" in2="BackgroundImageFix" result="effect1_dropShadow"/>
<feBlend mode="normal" in="SourceGraphic" in2="effect1_dropShadow" result="shape"/>
</filter>
<filter id="filter1_d" x="59.7715" y="47.3397" width="103.578" height="100.989" filterUnits="userSpaceOnUse" color-interpolation-filters="sRGB">
<feFlood flood-opacity="0" result="BackgroundImageFix"/>
<feColorMatrix in="SourceAlpha" type="matrix" values="0 0 0 0 0 0 0 0 0 0 0 0 0 0 0 0 0 0 127 0"/>
<feOffset dy="7"/>
<feGaussianBlur stdDeviation="13.5"/>
<feColorMatrix type="matrix" values="0 0 0 0 0.567312 0 0 0 0 0.153284 0 0 0 0 0.126543 0 0 0 0.401115 0"/>
<feBlend mode="normal" in2="BackgroundImageFix" result="effect1_dropShadow"/>
<feBlend mode="normal" in="SourceGraphic" in2="effect1_dropShadow" result="shape"/>
</filter>
<filter id="filter2_d" x="63.974" y="28.6143" width="75.769" height="109.698" filterUnits="userSpaceOnUse" color-interpolation-filters="sRGB">
<feFlood flood-opacity="0" result="BackgroundImageFix"/>
<feColorMatrix in="SourceAlpha" type="matrix" values="0 0 0 0 0 0 0 0 0 0 0 0 0 0 0 0 0 0 127 0"/>
<feOffset dy="7"/>
<feGaussianBlur stdDeviation="13.5"/>
<feColorMatrix type="matrix" values="0 0 0 0 0.567312 0 0 0 0 0.153284 0 0 0 0 0.126543 0 0 0 0.401115 0"/>
<feBlend mode="normal" in2="BackgroundImageFix" result="effect1_dropShadow"/>
<feBlend mode="normal" in="SourceGraphic" in2="effect1_dropShadow" result="shape"/>
</filter>
<filter id="filter3_d" x="42.528" y="45.5343" width="121.783" height="105.164" filterUnits="userSpaceOnUse" color-interpolation-filters="sRGB">
<feFlood flood-opacity="0" result="BackgroundImageFix"/>
<feColorMatrix in="SourceAlpha" type="matrix" values="0 0 0 0 0 0 0 0 0 0 0 0 0 0 0 0 0 0 127 0"/>
<feOffset dy="7"/>
<feGaussianBlur stdDeviation="13.5"/>
<feColorMatrix type="matrix" values="0 0 0 0 0.567312 0 0 0 0 0.153284 0 0 0 0 0.126543 0 0 0 0.401115 0"/>
<feBlend mode="normal" in2="BackgroundImageFix" result="effect1_dropShadow"/>
<feBlend mode="normal" in="SourceGraphic" in2="effect1_dropShadow" result="shape"/>
</filter>
<linearGradient id="paint0_linear" x1="26.3186" y1="-6.83208" x2="36.4393" y2="138.262" gradientUnits="userSpaceOnUse">
<stop stop-color="#972424"/>
<stop offset="1" stop-color="#5E1010"/>
</linearGradient>
<linearGradient id="paint1_linear" x1="44.4026" y1="13.7174" x2="52.2632" y2="125.81" gradientUnits="userSpaceOnUse">
<stop stop-color="#972424"/>
<stop offset="1" stop-color="#5E1010"/>
</linearGradient>
<linearGradient id="paint2_linear" x1="65.0874" y1="90.5098" x2="81.9492" y2="135.843" gradientUnits="userSpaceOnUse">
<stop stop-color="#AE2222"/>
<stop offset="1" stop-color="#7F1111"/>
</linearGradient>
<linearGradient id="paint3_linear" x1="72.8786" y1="64.9638" x2="104.774" y2="127.677" gradientUnits="userSpaceOnUse">
<stop stop-color="#AE2222"/>
<stop offset="1" stop-color="#7F1111"/>
</linearGradient>
<linearGradient id="paint4_linear" x1="53.8645" y1="76.5091" x2="88.0593" y2="155.078" gradientUnits="userSpaceOnUse">
<stop stop-color="#AE2222"/>
<stop offset="1" stop-color="#7F1111"/>
</linearGradient>
</defs>
</svg>
