<svg width="122" height="80" viewBox="0 0 122 80" fill="none" xmlns="http://www.w3.org/2000/svg">
<mask id="mask0" mask-type="alpha" maskUnits="userSpaceOnUse" x="0" y="0" width="122" height="80">
<rect width="122" height="80" fill="white"/>
</mask>
<g mask="url(#mask0)">
<path d="M70.3075 31.8462C70.3844 31.8462 70.4614 31.9231 70.4614 32V36.6154C71.1537 36.1539 71.9229 35.8462 72.769 35.8462C76.3075 35.8462 77.846 38.2308 77.846 41.1539C77.846 44.077 76.3844 46.4616 72.769 46.4616C71.9229 46.4616 71.0767 46.1539 70.4614 45.6923L69.6152 46.2308H69.5383H67.3844C67.3075 46.2308 67.2306 46.1539 67.2306 46.077V32.077C67.2306 32 67.3075 31.9231 67.3844 31.9231H70.3075V31.8462ZM54.9998 32C56.6921 32 59.1537 32.9231 59.1537 35.5385C59.1537 37.4616 58.3844 38.1539 57.6152 38.7693C59.1537 39.2308 60.3844 39.9231 60.3844 42.5385C60.3844 44.6923 58.6921 46.4616 55.9998 46.4616H49.9229C49.846 46.4616 49.769 46.3847 49.769 46.3077V32.2308C49.769 32.1539 49.846 32.077 49.9229 32.077L54.9998 32ZM65.1537 36.1539C65.2306 36.1539 65.3075 36.2308 65.3075 36.3077V46.2308C65.3075 46.3077 65.2306 46.3847 65.1537 46.3847H62.2306C62.1537 46.3847 62.0767 46.3077 62.0767 46.2308V36.3077C62.0767 36.2308 62.1537 36.1539 62.2306 36.1539H65.1537ZM92.9229 36.1539L94.6921 38.7693L96.4614 36.1539H99.9998L96.4614 41.3077L99.9998 46.4616H96.4614L94.6921 43.8462L92.9229 46.4616H89.3844L92.9229 41.3077L89.3844 36.1539H92.9229ZM72.6152 38.5385C71.6921 38.5385 70.846 39.1539 70.6152 40C70.5383 40.1539 70.5383 40.3846 70.5383 40.5385V41.9231C70.5383 42.1539 70.5383 42.3077 70.6152 42.4616C70.846 43.2308 71.6152 43.9231 72.6152 43.9231C74.1537 43.9231 74.9998 42.9231 74.9998 41.2308C74.9998 39.7693 74.2306 38.5385 72.6152 38.5385ZM53.1537 40.1539C53.0767 40.1539 52.9998 40.2308 52.9998 40.3077V43.6154C52.9998 43.6923 53.0767 43.7693 53.1537 43.7693C56.4614 43.7693 57.0767 43.4616 57.0767 42C57.1537 40.4616 56.5383 40.1539 53.1537 40.1539ZM53.2306 34.6154C53.0767 34.6154 52.9998 34.6923 52.9998 34.7693V37.3846C52.9998 37.4616 53.0767 37.5385 53.1537 37.5385C55.769 37.5385 56.2306 37 56.2306 36.077C56.2306 35.077 56.0767 34.6154 53.2306 34.6154ZM63.6152 31.6154C64.6921 31.6154 65.3844 32.3846 65.3844 33.3846C65.3844 34.3846 64.6921 35.1539 63.6152 35.1539H63.5383C62.4614 35.1539 61.846 34.3846 61.846 33.3846C61.846 32.3846 62.6152 31.6154 63.6152 31.6154Z" fill="#1D2243"/>
<path d="M84.3848 46.6154C87.3079 46.6154 89.6925 44.2308 89.6925 41.3077C89.6925 38.3846 87.3079 36 84.3848 36C81.4618 36 79.0771 38.3846 79.0771 41.3077C79.0771 44.2308 81.3848 46.6154 84.3848 46.6154Z" fill="#3D8BFF"/>
<path d="M86.846 40.6154C86.9229 39.9231 86.3844 39.5384 85.6921 39.2307L85.9229 38.2307L85.3075 38.0769L85.0767 39.0769C84.9229 39.0769 84.769 39 84.6152 39L84.846 38.0769L84.3075 37.8461L84.0767 38.8461C83.9229 38.8461 83.846 38.7692 83.6921 38.7692L82.846 38.5384L82.6921 39.1538L83.1537 39.2307C83.3844 39.3077 83.4614 39.4615 83.4614 39.5384L83.1537 40.6154C83.1537 40.6154 83.1537 40.6154 83.2306 40.6154H83.1537L82.769 42.1538C82.769 42.2307 82.6921 42.3077 82.5383 42.3077L82.0767 42.2307L81.769 42.9231L82.5383 43.0769C82.6921 43.0769 82.846 43.1538 82.9229 43.1538L82.6921 44.1538L83.3075 44.3077L83.5383 43.3077C83.6921 43.3846 83.846 43.3846 83.9998 43.4615L83.769 44.3846L84.3844 44.5384L84.6152 43.5384C85.6152 43.6923 86.3844 43.6154 86.6921 42.7692C86.9229 42.0769 86.6921 41.6154 86.1537 41.3077C86.4614 41.3846 86.769 41.0769 86.846 40.6154ZM85.5383 42.4615C85.3844 43.1538 84.1537 42.7692 83.769 42.6923L84.0767 41.3846C84.4614 41.5384 85.6921 41.6923 85.5383 42.4615ZM85.6921 40.5384C85.5383 41.2307 84.5383 40.8461 84.1537 40.7692L84.4614 39.6154C84.846 39.6923 85.846 39.8461 85.6921 40.5384Z" fill="white"/>
<path d="M39.9231 33.6154L34.3077 30.3846C34.0769 30.6154 33.7692 30.8462 33.3846 30.9231V37.4615C34.2308 37.6923 34.8462 38.4615 34.8462 39.3846C34.8462 39.5385 34.8462 39.7692 34.7692 39.9231L40.3846 43.1538C40.6154 42.9231 40.9231 42.6923 41.3077 42.6154V36.0769C40.4615 35.8462 39.8462 35.0769 39.8462 34.1538C39.9231 33.9231 39.9231 33.7692 39.9231 33.6154ZM42.3846 42.5385C43.2308 42.7692 43.8462 43.5385 43.8462 44.4615C43.8462 45.5385 43 46.4615 41.8462 46.4615C41.3077 46.4615 40.7692 46.2308 40.4615 45.8462L34.8462 49.0769C34.9231 49.2308 34.9231 49.3846 34.9231 49.6154C34.9231 50.6923 34.0769 51.6154 32.9231 51.6154C31.8462 51.6154 30.9231 50.7692 30.9231 49.6154C30.9231 49.4615 30.9231 49.2308 31 49.0769L25.3846 45.8462C25 46.2308 24.5385 46.4615 24 46.4615C22.9231 46.4615 22 45.6154 22 44.4615C22 43.5385 22.6154 42.7692 23.4615 42.5385V36C22.6154 35.8462 22 35.0769 22 34.1538C22 33.0769 22.8462 32.1538 24 32.1538C24.5385 32.1538 25.0769 32.3846 25.3846 32.7692L31 29.5385C30.9231 29.3846 30.9231 29.2308 30.9231 29C30.9231 27.9231 31.7692 27 32.9231 27C34 27 34.9231 27.8462 34.9231 29C34.9231 29.1538 34.9231 29.3846 34.8462 29.5385L40.4615 32.7692C40.8462 32.3846 41.3077 32.1538 41.8462 32.1538C42.9231 32.1538 43.8462 33 43.8462 34.1538C43.8462 35.0769 43.2308 35.8462 42.3846 36.0769V42.5385ZM39.9231 45C39.8462 44.8462 39.8462 44.6923 39.8462 44.4615C39.8462 44.3077 39.8462 44.0769 39.9231 43.9231L34.3077 40.6923C33.9231 41.0769 33.4615 41.3077 32.9231 41.3077C32.3846 41.3077 31.8462 41.0769 31.5385 40.6923L25.8462 43.9231C25.9231 44.0769 25.9231 44.2308 25.9231 44.4615C25.9231 44.6154 25.9231 44.8462 25.8462 45L31.4615 48.2308C31.8462 47.8462 32.3077 47.6154 32.8462 47.6154C33.3846 47.6154 33.9231 47.8462 34.2308 48.2308L39.9231 45ZM31 39.8462C30.9231 39.6923 30.9231 39.5385 30.9231 39.3077C30.9231 38.3846 31.5385 37.6154 32.3846 37.3846V30.8462C32 30.7692 31.6923 30.5385 31.4615 30.3077L25.8462 33.6154C25.9231 33.7692 25.9231 33.9231 25.9231 34.1538C25.9231 35.0769 25.3077 35.8462 24.4615 36.0769V42.6154C24.8462 42.6923 25.1538 42.9231 25.3846 43.1538L31 39.8462Z" fill="#1D2243"/>
</g>
</svg>
