<svg width="122" height="80" viewBox="0 0 122 80" fill="none" xmlns="http://www.w3.org/2000/svg">
<mask id="mask0" mask-type="alpha" maskUnits="userSpaceOnUse" x="0" y="0" width="122" height="80">
<rect width="122" height="80" fill="white"/>
</mask>
<g mask="url(#mask0)">
<path d="M33.0377 34.7412C33.0274 34.7307 33.017 34.7203 32.9963 34.7099L22.0283 26.0996C21.9041 26.0057 21.7385 25.9848 21.604 26.0475C21.4592 26.1101 21.3764 26.2562 21.3764 26.4127L21.1694 40.45V40.6483V40.6692C21.1694 44.7812 24.4806 48.1209 28.5574 48.1209C32.6342 48.1209 35.9454 44.7812 35.9454 40.6692C35.9557 38.2583 34.8071 36.1084 33.0377 34.7412ZM22.1731 27.2477L29.9336 33.3322C29.4886 33.2487 29.0333 33.207 28.5574 33.207C25.7326 33.207 23.2803 34.8142 22.0283 37.1625L22.1731 27.2477ZM28.5574 47.2964C24.9358 47.2964 21.9869 44.322 21.9765 40.6692V40.4709C22.08 36.9016 24.9876 34.0315 28.547 34.0315C32.1686 34.0315 35.1279 37.0059 35.1279 40.6692C35.1382 44.322 32.1893 47.2964 28.5574 47.2964Z" fill="url(#paint0_linear)"/>
<path d="M28.6404 37.893C28.63 37.893 28.63 37.8825 28.63 37.8825L17.7137 29.001C17.5895 28.8966 17.424 28.8757 17.2791 28.9488C17.1342 29.0114 17.0515 29.1575 17.0515 29.3141L17.0308 43.8105V43.8627V44.0088C17.0308 48.1209 20.3419 51.4606 24.4187 51.4606C28.4955 51.4606 31.8067 48.1209 31.8067 44.0088C31.817 41.4832 30.5546 39.2393 28.6404 37.893ZM17.8585 30.1699L25.8777 36.6927C25.4017 36.5988 24.9154 36.5466 24.4187 36.5466C21.5629 36.5466 19.0692 38.1956 17.8482 40.596L17.8585 30.1699ZM24.4187 50.6361C20.7972 50.6361 17.8378 47.6616 17.8378 43.9984C17.8378 40.3456 20.7868 37.3607 24.4187 37.3607C28.0402 37.3607 30.9996 40.3351 30.9996 43.9984C30.9996 47.6616 28.0506 50.6361 24.4187 50.6361Z" fill="url(#paint1_linear)"/>
<path d="M17.456 29.7211C17.3215 29.7211 17.1973 29.6585 17.1146 29.5332C16.9904 29.3454 17.0421 29.0845 17.2284 28.9592L21.5535 26.0683C21.7398 25.943 21.9985 25.9952 22.1226 26.1831C22.2468 26.3709 22.1951 26.6318 22.0088 26.7571L17.6837 29.648C17.6112 29.7002 17.5284 29.7211 17.456 29.7211Z" fill="url(#paint2_linear)"/>
<path d="M44.1244 47.8672C43.8103 47.8537 43.4825 47.8402 43.1684 47.8132C42.8543 47.7862 42.5265 47.7592 42.2124 47.7188C41.8983 47.6783 41.6115 47.6244 41.3521 47.5569V34.2302C41.6115 34.1627 41.8983 34.1088 42.2124 34.0683C42.5265 34.0278 42.8407 34.0009 43.1684 33.9739C43.4825 33.9469 43.8103 33.9334 44.1244 33.9199C44.4385 33.9064 44.7253 33.9064 45.0121 33.9064C45.7906 33.9064 46.528 33.9604 47.2109 34.0818C47.8937 34.2032 48.4946 34.4055 48.9863 34.6888C49.4916 34.972 49.8876 35.3497 50.1744 35.8083C50.4612 36.2669 50.6115 36.847 50.6115 37.5214C50.6115 38.2767 50.4339 38.8972 50.0788 39.3828C49.7238 39.8684 49.2594 40.2326 48.6722 40.4619C49.4643 40.7047 50.1062 41.0824 50.5705 41.5949C51.0348 42.1075 51.2807 42.8359 51.2807 43.7801C51.2807 45.1559 50.7753 46.1946 49.7784 46.8825C48.7814 47.5704 47.1972 47.9211 45.0258 47.9211C44.739 47.8806 44.4385 47.8806 44.1244 47.8672ZM45.2306 39.8144C45.695 39.8144 46.1456 39.7875 46.5554 39.72C46.9787 39.6526 47.3338 39.5312 47.6479 39.3693C47.9484 39.194 48.1942 38.9782 48.3717 38.6949C48.5493 38.4116 48.6312 38.0609 48.6312 37.6428C48.6312 37.2516 48.5356 36.9144 48.3581 36.6446C48.1805 36.3749 47.921 36.159 47.6069 35.9837C47.2928 35.8218 46.9104 35.7004 46.4871 35.6195C46.05 35.5386 45.5994 35.4981 45.1214 35.4981C44.6434 35.4981 44.261 35.4981 43.9878 35.5116C43.7147 35.5251 43.4689 35.5386 43.2504 35.5655V39.8144H45.2306ZM43.2231 46.1946C43.3733 46.2081 43.5372 46.2215 43.7284 46.235C43.8922 46.2485 44.0971 46.262 44.3293 46.262C44.5614 46.262 44.8209 46.2755 45.1214 46.2755C45.6813 46.2755 46.2139 46.235 46.7192 46.1676C47.2245 46.1001 47.6616 45.9653 48.044 45.7764C48.4264 45.5876 48.7268 45.3313 48.959 45.0076C49.1911 44.6704 49.3004 44.2657 49.3004 43.7531C49.3004 43.308 49.2185 42.9168 49.0409 42.6066C48.877 42.2964 48.6312 42.0536 48.3034 41.8647C47.9893 41.6759 47.6069 41.541 47.1563 41.4735C46.7192 41.3926 46.2139 41.3522 45.6676 41.3522H43.2231V46.1946Z" fill="#353535"/>
<path d="M53.1828 35.2454C52.9556 35.0308 52.8486 34.7357 52.8486 34.3735C52.8486 34.0114 52.9556 33.7162 53.1828 33.5016C53.4101 33.287 53.6774 33.1797 53.9983 33.1797C54.3191 33.1797 54.5864 33.287 54.8137 33.5016C55.0409 33.7162 55.1479 34.0114 55.1479 34.3735C55.1479 34.7357 55.0409 35.0308 54.8137 35.2454C54.5864 35.4601 54.3191 35.5674 53.9983 35.5674C53.6774 35.5674 53.4101 35.4601 53.1828 35.2454Z" fill="#353535"/>
<path d="M53.1616 37.4361H54.9383V47.8173H53.1616V37.4361Z" fill="#353535"/>
<path d="M62.9058 47.1808C62.4592 47.3433 61.945 47.4246 61.3495 47.4246C60.7405 47.4246 60.1722 47.3298 59.6309 47.1267C59.0896 46.9236 58.6294 46.6257 58.2235 46.2059C57.8175 45.7861 57.5062 45.2716 57.2762 44.6487C57.0461 44.0258 56.9243 43.2811 56.9243 42.4145C56.9243 41.6562 57.0326 40.9656 57.2491 40.3292C57.4656 39.6928 57.7904 39.1512 58.2099 38.6908C58.6294 38.2304 59.1437 37.8783 59.7527 37.6211C60.3616 37.3638 61.0518 37.2284 61.8096 37.2284C62.6487 37.2284 63.3794 37.2961 64.0155 37.418C64.638 37.5398 65.1657 37.6617 65.5988 37.77V47.0184C65.5988 48.6162 65.1928 49.7671 64.3944 50.4848C63.5959 51.2024 62.378 51.5545 60.7541 51.5545C60.118 51.5545 59.5226 51.5003 58.9542 51.392C58.3859 51.2837 57.8987 51.1618 57.4927 51.0129L57.8175 49.4015C58.1829 49.5505 58.6159 49.6723 59.1437 49.7942C59.6715 49.9025 60.2128 49.9567 60.7811 49.9567C61.8502 49.9567 62.6216 49.74 63.0952 49.2932C63.5689 48.8599 63.7989 48.1558 63.7989 47.2079V46.7746C63.6501 46.8829 63.3524 47.0184 62.9058 47.1808ZM63.0682 38.9345C62.7704 38.8939 62.3509 38.8668 61.8367 38.8668C60.8623 38.8668 60.118 39.1918 59.5903 39.8418C59.0625 40.4917 58.8054 41.3583 58.8054 42.428C58.8054 43.0238 58.8866 43.5384 59.0219 43.9581C59.1707 44.3779 59.3737 44.73 59.6173 45.0143C59.8744 45.2987 60.1586 45.5018 60.497 45.6372C60.8217 45.7726 61.1601 45.8403 61.5119 45.8403C61.9856 45.8403 62.4321 45.7726 62.8246 45.6372C63.2306 45.5018 63.5418 45.3393 63.7719 45.1497V39.097C63.6095 39.0293 63.3659 38.9887 63.0682 38.9345Z" fill="#353535"/>
<path d="M68.2038 37.7868C68.5428 36.8798 69.0174 36.1353 69.6004 35.5262C70.1835 34.917 70.8751 34.4703 71.6616 34.159C72.4481 33.8476 73.2752 33.6987 74.1566 33.6987C75.0245 33.6987 75.8381 33.8476 76.611 34.159C77.3839 34.4703 78.0619 34.917 78.645 35.5262C79.2281 36.1353 79.6891 36.8798 80.0281 37.7868C80.3671 38.6937 80.5434 39.736 80.5434 40.9137C80.5434 42.0914 80.3671 43.1337 80.0281 44.0406C79.6891 44.9476 79.2281 45.6921 78.645 46.3012C78.0619 46.9104 77.3839 47.3571 76.611 47.6684C75.8381 47.9798 75.0245 48.1287 74.1566 48.1287C73.2752 48.1287 72.4481 47.9798 71.6616 47.6684C70.8751 47.3571 70.1971 46.9104 69.6004 46.3012C69.0174 45.6921 68.5428 44.9476 68.2038 44.0406C67.8648 43.1337 67.6885 42.0914 67.6885 40.9137C67.6885 39.736 67.8512 38.6937 68.2038 37.7868ZM69.9801 43.1878C70.1835 43.8647 70.4819 44.4467 70.8615 44.934C71.2412 45.4078 71.7158 45.7868 72.2582 46.044C72.8142 46.3012 73.4244 46.4366 74.1159 46.4366C74.8075 46.4366 75.4177 46.3012 75.9601 46.044C76.5025 45.7868 76.9636 45.4214 77.3432 44.934C77.7229 44.4603 78.0213 43.8782 78.2247 43.1878C78.4281 42.4975 78.5365 41.7394 78.5365 40.9137C78.5365 40.0744 78.4281 39.3164 78.2247 38.6396C78.0213 37.9627 77.7229 37.3807 77.3432 36.8933C76.9636 36.4196 76.5025 36.0405 75.9601 35.7834C75.4177 35.5262 74.794 35.3908 74.1159 35.3908C73.4379 35.3908 72.8142 35.5262 72.2582 35.7834C71.7023 36.0405 71.2412 36.406 70.8615 36.8933C70.4819 37.3671 70.1835 37.9492 69.9801 38.6396C69.7767 39.3299 69.6682 40.088 69.6682 40.9137C69.6682 41.753 69.7767 42.511 69.9801 43.1878Z" fill="#353535"/>
<path d="M91.0273 46.1642C90.6586 45.5545 90.2489 44.9176 89.8256 44.2672C89.3887 43.6033 88.9517 42.9394 88.4875 42.2619C88.0232 41.5844 87.5589 40.934 87.1083 40.2972C86.6577 39.6604 86.2071 39.0777 85.7838 38.5087C85.3605 37.9531 84.9509 37.4653 84.5958 37.0318V47.8172H82.7388V34.0102H84.2408C84.8553 34.6741 85.5107 35.4465 86.2071 36.3272C86.9035 37.2079 87.5999 38.1157 88.2826 39.0642C88.9654 39.9991 89.6071 40.9205 90.2216 41.8283C90.8224 42.7361 91.3413 43.5356 91.751 44.2401V34.0102H93.608V47.8172H92.0241C91.7237 47.3295 91.3959 46.7739 91.0273 46.1642Z" fill="#353535"/>
<path d="M96.2212 34.0102H104.508V35.6632H98.1219V39.7688H103.797V41.3812H98.1219V46.1642H105V47.8172H96.2212V34.0102Z" fill="#353535"/>
</g>
<defs>
<linearGradient id="paint0_linear" x1="21.1674" y1="37.0663" x2="35.9526" y2="37.0663" gradientUnits="userSpaceOnUse">
<stop stop-color="#9588FF"/>
<stop offset="1" stop-color="#6D3CFF"/>
</linearGradient>
<linearGradient id="paint1_linear" x1="17.0266" y1="40.1812" x2="31.8139" y2="40.1812" gradientUnits="userSpaceOnUse">
<stop stop-color="#C188FF"/>
<stop offset="1" stop-color="#8D50FF"/>
</linearGradient>
<linearGradient id="paint2_linear" x1="17.0477" y1="27.8662" x2="22.1917" y2="27.8662" gradientUnits="userSpaceOnUse">
<stop stop-color="#C188FF"/>
<stop offset="1" stop-color="#9281FF"/>
</linearGradient>
</defs>
</svg>
