<svg width="122" height="80" viewBox="0 0 122 80" fill="none" xmlns="http://www.w3.org/2000/svg">
<mask id="mask0" mask-type="alpha" maskUnits="userSpaceOnUse" x="0" y="0" width="122" height="80">
<rect width="122" height="80" fill="white"/>
</mask>
<g mask="url(#mask0)">
<path fill-rule="evenodd" clip-rule="evenodd" d="M43.3996 40.1998C43.3996 46.9376 37.9376 52.3996 31.1998 52.3996C24.462 52.3996 19 46.9376 19 40.1998C19 33.462 24.462 28 31.1998 28C37.9376 28 43.3996 33.462 43.3996 40.1998ZM36.3411 39.5608C36.4747 39.6189 36.6083 39.6886 36.7361 39.7641L36.7303 39.7583C37.7353 40.3509 38.2408 41.2978 38.2408 42.5585C38.2408 44.2897 36.9394 45.8698 35.278 46.1603C34.7841 46.2358 34.2903 46.2939 33.8256 46.2939H26.6451V44.6673L28.0975 43.7842H23.4499V41.0538H26.6335L26.6103 34.1115H33.6745C34.5402 34.1115 35.2605 34.2568 35.8996 34.5763C36.7361 35.0004 37.2706 35.5871 37.503 36.3772C37.7934 37.3358 37.5959 38.2188 36.9104 39.0089C36.7652 39.1832 36.5909 39.3342 36.4166 39.4736L36.3237 39.5608H36.3411ZM33.7268 38.8695C33.9185 38.823 34.1044 38.7707 34.2497 38.6719L34.2555 38.6777C34.6622 38.3873 34.8597 37.8528 34.7202 37.3764C34.5692 36.8768 34.1451 36.5399 33.6397 36.5283H29.4104V38.9101H33.3027H33.3028C33.4364 38.9101 33.5874 38.9101 33.7268 38.8695ZM29.4104 43.9004H30.4735L30.4677 43.9062H33.721C33.9302 43.9004 34.1683 43.8598 34.4182 43.8017C34.8248 43.6971 35.1385 43.395 35.2896 42.9884C35.4348 42.5643 35.3709 42.0995 35.1153 41.7509C34.8016 41.3152 34.3601 41.1119 33.7385 41.1119H29.4104V43.9004Z" fill="url(#paint0_linear)"/>
<path d="M57.8101 39.2355C57.996 39.3226 58.1877 39.4097 58.3678 39.5143C59.3554 40.0953 59.8201 40.9899 59.8201 42.1286C59.8201 43.7552 58.5653 45.2366 56.9445 45.498C56.4797 45.5794 55.9917 45.6258 55.5153 45.6258C53.2148 45.6375 50.9259 45.6258 48.6195 45.6258H48.4395V34.0535H55.3643C56.1195 34.0535 56.8515 34.158 57.5312 34.495C58.2632 34.8552 58.8267 35.378 59.0765 36.1797C59.367 37.0918 59.1462 37.9225 58.513 38.6197C58.3213 38.852 58.0599 39.0379 57.8159 39.2471L57.8101 39.2355ZM50.9956 43.5344H51.1583C52.5758 43.5344 54.0049 43.5461 55.4166 43.5344C55.6664 43.5344 55.922 43.4938 56.1602 43.4299C57.1013 43.1975 57.4964 42.0356 56.9154 41.263C56.5378 40.775 56.0266 40.6065 55.4398 40.6065H51.1641C51.013 40.6065 50.9898 40.653 50.9898 40.7808V43.3485L51.0014 43.5344H50.9956ZM50.9956 38.6894H55.0041C55.1552 38.6894 55.312 38.6894 55.4573 38.6545C55.649 38.608 55.8523 38.5558 56.015 38.4454C56.4797 38.1317 56.683 37.5624 56.5378 37.0627C56.381 36.5399 55.9162 36.1681 55.3411 36.1623C53.9352 36.1449 52.5235 36.1623 51.1176 36.1507C51.0247 36.1507 50.9898 36.1855 50.9898 36.2843V38.6894H50.9956ZM73.2167 45.6317V34.0418H80.0718C80.8503 34.0418 81.6113 34.1406 82.3085 34.4892C83.2147 34.9365 83.8422 35.6162 83.9584 36.6561C84.0455 37.4113 83.7841 38.0736 83.2786 38.6313C83.0695 38.852 82.8139 39.0263 82.5699 39.2355L82.8894 39.3807C83.5517 39.6886 84.0629 40.1592 84.3418 40.8447C84.9692 42.3668 84.3999 43.9818 83.1102 44.9113C82.5292 45.3296 81.8728 45.5213 81.1756 45.5794C80.7864 45.6142 80.3914 45.62 80.0021 45.62H73.2167V45.6317ZM75.7729 43.5286L75.9181 43.5403H80.2171C80.5424 43.5403 80.8677 43.4822 81.1756 43.3427C82.047 42.9361 82.2097 41.6754 81.4661 41.048C81.0943 40.7285 80.6644 40.6181 80.188 40.6181H75.9471L75.7729 40.6355V43.5403V43.5286ZM75.7554 38.6836H79.7988C79.9615 38.6836 80.1241 38.672 80.2868 38.6429C81.1756 38.4686 81.623 37.5159 81.1698 36.7665C80.9258 36.3598 80.554 36.1681 80.0951 36.1623C78.6892 36.1507 77.2833 36.1623 75.8832 36.1507C75.767 36.1507 75.7496 36.2088 75.7496 36.3017V38.6894L75.7554 38.6836ZM86.4041 37.5798C86.8805 37.4055 87.3336 37.2312 87.7868 37.086C88.8615 36.7548 89.9653 36.6212 91.0865 36.7026C91.7837 36.7432 92.4692 36.8768 93.1024 37.2022C93.9971 37.6553 94.4676 38.3641 94.4618 39.3749V43.5867C94.4618 44.2374 94.4967 44.8822 94.6942 45.5038C94.6942 45.5271 94.6942 45.5619 94.7058 45.6026L94.5664 45.6142H92.5331C92.4053 45.6142 92.3588 45.5736 92.3414 45.469L92.1671 44.6382L91.6442 45.0739C90.9297 45.6317 90.0989 45.8292 89.2043 45.8292C88.449 45.8117 87.7403 45.6549 87.0954 45.2482C85.736 44.3768 85.4281 42.4597 86.3983 41.2688C86.8224 40.7459 87.3859 40.409 88.025 40.2231C89.0707 39.9326 90.1047 39.9094 91.133 40.2231C91.4235 40.3218 91.7023 40.4961 91.9812 40.6297L92.0974 40.6878C92.0974 40.3974 92.109 40.1069 92.0974 39.8164C92.0799 39.0263 91.5164 38.7126 90.9355 38.5964C90.0641 38.4338 89.2275 38.5964 88.4084 38.8579C87.9901 38.9857 87.5834 39.1483 87.1477 39.3226L86.4216 37.5624L86.4041 37.5798ZM90.0292 41.6812C89.8666 41.6929 89.6806 41.6929 89.4889 41.7219C89.2972 41.7568 89.1055 41.7974 88.9254 41.8671C88.2748 42.1169 87.9959 42.7618 88.2864 43.3602C88.5188 43.8482 88.9545 44.0224 89.4483 44.0689C90.4126 44.1619 91.2492 43.8482 91.9754 43.2382C92.0335 43.1801 92.0799 43.0813 92.0916 42.9942C92.109 42.8373 92.0916 42.6805 92.1032 42.5294C92.1264 42.3377 92.0451 42.2389 91.8882 42.146C91.3189 41.8149 90.7031 41.6929 90.0292 41.6812ZM105 36.964L104.344 38.3582C103.24 40.7111 102.119 43.0639 101.003 45.4109L99.2023 49.187C99.1791 49.2451 99.121 49.2916 99.0861 49.2916H96.7043L96.7798 49.1173L98.8712 44.9636C98.9293 44.8648 98.9293 44.7893 98.8712 44.6847L96.1407 38.5616C95.9084 38.0736 95.6934 37.574 95.4785 37.0918C95.461 37.0627 95.4552 37.0337 95.4436 36.9756H95.6179C96.3731 36.9756 97.1458 36.9756 97.9126 36.964C98.0288 36.964 98.0753 37.0046 98.1218 37.1092L99.6903 40.9899L100.114 42.0124C100.126 42.053 100.172 42.0879 100.207 42.1286C100.242 42.0879 100.289 42.053 100.306 42.0124L102.432 37.2196C102.537 36.964 102.537 36.964 102.816 36.964H104.971H105ZM65.5889 38.5906V36.8478H67.0877V34.4078H69.4406V36.8478H71.4158C71.5436 36.8478 71.5901 36.8768 71.5901 37.0105C71.5784 37.5333 71.5901 38.0562 71.5901 38.5964H71.3867C70.7942 38.5964 70.2016 38.608 69.609 38.5964C69.4696 38.5964 69.4348 38.6429 69.4348 38.7707V43.0465C69.4348 43.5519 69.6846 43.8249 70.2016 43.8423C70.5618 43.854 70.9278 43.8017 71.288 43.7668C71.4855 43.7494 71.4855 43.7436 71.5029 43.9411C71.5494 44.4059 71.5843 44.8706 71.6482 45.347C71.6656 45.4864 71.6249 45.5619 71.5087 45.591C71.2647 45.6607 71.0207 45.7362 70.7651 45.7653C70.1842 45.8524 69.5858 45.8815 68.9991 45.7653C67.8546 45.5097 67.1226 44.6615 67.1052 43.4996C67.0819 41.9427 67.0936 40.3915 67.0877 38.8404C67.0877 38.608 67.0877 38.608 66.8554 38.608H65.5947L65.5889 38.5906ZM64.0378 45.62H63.8926C63.2129 45.62 62.539 45.62 61.8593 45.6317C61.7314 45.6317 61.685 45.5968 61.685 45.4574C61.6966 42.6805 61.6966 39.9094 61.685 37.1325C61.685 37.0046 61.7256 36.9582 61.8593 36.9582C62.539 36.9698 63.2187 36.9698 63.8926 36.9582C64.0204 36.9582 64.0552 37.0046 64.0552 37.1208V45.498C64.0552 45.5329 64.0552 45.5677 64.0436 45.6142L64.0378 45.62ZM62.8004 33.0368C63.4104 33.0717 63.8461 33.2692 64.1191 33.7514C64.4212 34.2975 64.2934 34.9133 63.788 35.2967C63.2245 35.7266 62.3937 35.7033 61.8709 35.2386C61.5397 34.9481 61.4061 34.5531 61.4874 34.1115C61.5862 33.6468 61.8825 33.3157 62.3298 33.153C62.5041 33.0833 62.6784 33.0659 62.7946 33.0368H62.8004Z" fill="black"/>
</g>
<defs>
<linearGradient id="paint0_linear" x1="22.5728" y1="31.5728" x2="39.8268" y2="48.8268" gradientUnits="userSpaceOnUse">
<stop stop-color="#30B5EC"/>
<stop offset="1" stop-color="#1E58BB"/>
</linearGradient>
</defs>
</svg>
