<svg width="122" height="80" viewBox="0 0 122 80" fill="none" xmlns="http://www.w3.org/2000/svg">
<mask id="mask0" mask-type="alpha" maskUnits="userSpaceOnUse" x="0" y="0" width="122" height="80">
<rect width="122" height="80" fill="white"/>
</mask>
<g mask="url(#mask0)">
<path d="M45.3617 23H44.7525C35.4625 23 28 30.4625 28 39.7525V40.3617C28 44.8048 29.765 49.0658 32.9067 52.2076C36.0484 55.3493 40.3095 57.1143 44.7525 57.1143H45.3617C54.5756 57.1143 62.1143 49.5756 62.1143 40.3617V39.7525C62.1143 30.4625 54.6518 23 45.3617 23ZM42.0112 44.626C41.2497 45.6159 40.1837 46.0728 38.8892 46.0728C37.5946 46.0728 36.6047 45.5398 35.8432 44.5499C35.8432 44.7783 35.9194 44.9306 35.9194 45.0067C35.9194 45.6159 35.5386 45.9205 34.8533 45.9205C34.0918 45.9205 33.7872 45.5398 33.7872 44.7783V36.0974C33.7872 35.4883 33.7111 35.1075 33.4826 35.1075C33.4065 35.1075 33.2542 35.1075 33.1019 35.1837H32.7973C32.1881 35.1837 31.8835 34.8029 31.8835 34.1176C31.8835 33.7369 31.9597 33.4323 32.1881 33.2038C32.4166 33.0515 32.645 32.8992 33.0258 32.8992C33.1781 32.8992 33.4065 32.8992 33.7111 32.9754C34.0157 32.9754 34.2441 33.0515 34.4726 33.0515C34.8533 33.0515 35.1579 33.0515 35.4625 32.9754C35.7671 32.8992 35.9955 32.8992 36.0717 32.8992C36.4524 32.8992 36.6047 33.1277 36.6047 33.5846V37.1635C37.4423 36.3259 38.3561 35.869 39.346 35.869C40.4883 35.869 41.402 36.3259 42.0874 37.2397C42.7727 38.1534 43.1534 39.3718 43.1534 40.8186C43.1534 42.4177 42.7727 43.6361 42.0112 44.626ZM49.2453 45.7682C49.093 45.7682 48.7884 45.7682 48.1792 45.6921C47.7985 45.6921 47.4177 45.6159 46.9608 45.6159C46.7324 45.6159 46.4278 45.6159 45.9709 45.6921C45.514 45.7682 45.2094 45.7682 44.981 45.7682C44.6002 45.7682 44.3718 45.6159 44.1434 45.3875C43.9149 45.159 43.8388 44.8545 43.8388 44.4737C43.8388 43.7122 44.1434 43.4076 44.7525 43.4076L45.2856 43.5599H45.4379C45.6663 43.5599 45.8186 43.1792 45.8186 42.4939V39.4479C45.8186 38.6865 45.7425 38.3819 45.514 38.3819C45.514 38.3819 45.3617 38.3819 45.1333 38.458H44.8287C44.2195 38.458 43.9149 38.0773 43.9149 37.392C43.9149 37.0112 43.9911 36.7066 44.2195 36.4782C44.4479 36.2497 44.7525 36.0974 45.0571 36.0974C45.2094 36.0974 45.4379 36.0974 45.6663 36.1736C46.1232 36.2497 47.1893 36.2497 47.57 36.1736C47.9508 36.0974 48.103 36.0974 48.1792 36.0974C48.5599 36.0974 48.7122 36.3259 48.7122 36.8589V42.57C48.7122 43.1792 48.8645 43.5599 49.093 43.5599C49.1691 43.5599 49.2453 43.5599 49.3976 43.4838C49.5499 43.4838 49.626 43.4076 49.7022 43.4076C50.2352 43.4076 50.5398 43.7122 50.5398 44.3976C50.3875 45.3875 50.0067 45.7682 49.2453 45.7682ZM57.5454 37.1635C57.5454 37.8488 57.2408 38.1534 56.5555 38.1534H55.0325C54.7279 38.1534 54.5756 38.2296 54.5756 38.3057C54.5756 38.3819 54.4995 38.5342 54.4995 38.6865V42.4177C54.4995 43.1792 54.7279 43.5599 55.261 43.5599C55.7178 43.5599 55.9463 43.2553 55.9463 42.57V41.8847C55.9463 41.1994 56.327 40.8186 57.0124 40.8186C57.7738 40.8186 58.2307 41.4278 58.2307 42.7223C58.2307 43.7122 57.9261 44.4737 57.3169 45.0829C56.7078 45.6159 55.8701 45.9205 54.8041 45.9205C52.6719 45.9205 51.682 44.7783 51.682 42.57C51.682 42.1893 51.682 41.6562 51.7581 40.9709C51.8343 40.2856 51.8343 39.7525 51.8343 39.3718V38.7626C51.8343 38.458 51.8343 38.2296 51.7581 38.1534C51.3774 38.2296 51.2251 38.2296 50.9967 38.2296H50.6921C50.5728 38.2363 50.4538 38.2117 50.347 38.1583C50.2401 38.1049 50.1491 38.0245 50.0829 37.925C49.9306 37.7727 49.8545 37.4681 49.8545 37.2397C49.8545 36.9351 49.9306 36.7066 50.0829 36.4782C50.2352 36.2497 50.4636 36.1736 50.6159 36.1736H50.9967C51.3013 36.1736 51.4536 36.0974 51.5297 35.869C51.5297 35.7928 51.6059 35.5644 51.6059 35.336V34.4222C51.6059 33.9653 51.5297 33.0515 51.8343 32.8992C52.0627 32.7469 52.6719 32.8992 53.3573 32.8992C53.8141 32.8992 54.1949 32.7469 54.3472 32.8992C54.4995 33.0515 54.4233 33.8892 54.4233 34.2699V35.2598C54.4233 35.6406 54.4233 35.869 54.4995 35.9451C54.5756 36.0213 54.7279 36.0974 55.0325 36.0974H56.4032C57.1646 36.1736 57.5454 36.4782 57.5454 37.1635Z" fill="#4C4273"/>
<path d="M38.1278 38.3057C37.5948 38.3057 37.2141 38.5342 36.8333 39.0672C36.5287 39.6002 36.3003 40.2094 36.3003 40.9709C36.3003 42.7985 36.9095 43.6361 38.0517 43.6361C39.1178 43.6361 39.7269 42.7223 39.7269 40.9709C39.7269 39.2195 39.1939 38.3057 38.1278 38.3057ZM95.3149 41.0471C95.0865 40.6663 94.7057 40.4379 94.325 40.2094C93.9442 39.981 93.3351 39.8287 92.4974 39.6764C91.5075 39.5241 90.8222 39.3718 90.5937 39.2195C90.3653 39.1434 90.213 38.9149 90.213 38.6865C90.213 38.1534 90.5937 37.925 91.3552 37.925C91.9644 37.925 92.4974 38.2296 92.9543 38.7626C93.3351 39.2195 93.7158 39.5241 94.2488 39.5241C94.9342 39.5241 95.2388 39.2195 95.2388 38.5342V37.6965C95.2388 37.4681 95.2388 37.3158 95.3149 37.0874C95.3911 36.8589 95.3911 36.7066 95.3911 36.5543C95.3911 36.0974 95.0865 35.869 94.4011 35.869C93.792 35.869 93.4112 36.1736 93.3351 36.6305C92.6497 36.0974 91.8121 35.7929 90.8983 35.7929C89.9084 35.7929 89.0708 36.0974 88.4616 36.7066C87.8524 37.3158 87.5478 38.0773 87.5478 38.9911C87.5478 39.5241 87.624 39.981 87.8524 40.4379C88.0809 40.8186 88.3855 41.1232 88.7662 41.3516C89.1469 41.5801 89.7561 41.7324 90.6699 41.9608L91.8121 42.1893C92.5736 42.3416 92.8782 42.6462 92.8782 43.0269C92.8782 43.6361 92.4213 43.8645 91.5075 43.8645C90.9745 43.8645 90.5937 43.7884 90.3653 43.6361C90.0607 43.4838 89.8323 43.1792 89.4515 42.7223C89.2231 42.4177 89.0708 42.2654 88.8423 42.1131C88.69 42.037 88.3855 41.9608 88.0809 41.9608C87.3955 41.9608 87.0148 42.2654 87.0148 42.7985V44.4737C87.0148 44.7022 86.9386 44.9306 86.9386 45.0829C86.9386 45.6159 87.3194 45.9205 88.0047 45.9205C88.6139 45.9205 88.9946 45.6159 88.9946 45.0067C89.9084 45.6921 90.8983 46.0728 92.0406 46.0728C93.1828 46.0728 94.0965 45.7682 94.858 45.0829C95.6195 44.4737 96.0002 43.6361 96.0002 42.6462C95.8479 42.037 95.6195 41.5039 95.3149 41.0471ZM70.3384 35.869C69.3485 35.869 68.4347 36.3259 67.5971 37.1635V33.5846C67.5971 33.1277 67.4448 32.8992 67.064 32.8992C66.9117 32.8992 66.6833 32.8992 66.3787 32.9754C66.0741 33.0515 65.7695 33.0515 65.3888 33.0515C65.2365 33.0515 64.9319 32.8992 64.7035 33.0515C64.3989 33.2038 64.7035 35.4883 64.7035 36.0974V44.7783C64.7035 45.5398 65.0842 45.9205 65.7695 45.9205C66.4549 45.9205 66.8356 45.6159 66.8356 45.0067V44.5499C67.5971 45.5398 68.587 46.0728 69.8815 46.0728C71.176 46.0728 72.2421 45.6159 73.0036 44.626C73.7651 43.6361 74.1458 42.4177 74.1458 40.8186C74.1458 39.3718 73.7651 38.1534 73.0797 37.2397C72.3182 36.3259 71.4045 35.869 70.3384 35.869ZM69.3485 43.6361C68.2063 43.6361 67.5971 42.7223 67.5971 40.9709C67.5971 40.2094 67.7494 39.6002 68.1301 39.0672C68.4347 38.5342 68.8916 38.3057 69.4246 38.3057C70.4907 38.3057 71.0237 39.2195 71.0237 40.9709C71.0237 42.7223 70.4146 43.6361 69.3485 43.6361ZM85.568 43.5599C85.3395 43.5599 85.1872 43.2553 85.1872 42.57V39.7525C85.1872 38.6865 85.0349 37.8488 84.7304 37.3158C84.1973 36.3259 83.2835 35.869 81.9129 35.869C80.6945 35.869 79.5523 36.4782 78.6385 37.6204V36.7066C78.6385 36.3259 78.4862 36.1736 78.1055 36.1736C78.1055 36.1736 77.877 36.1736 77.4963 36.2497C77.1156 36.3259 76.8871 36.3259 76.7348 36.3259C76.5825 36.3259 76.4302 36.3259 76.2018 36.2497C75.8972 36.1736 75.6688 36.1736 75.5926 36.1736C75.2119 36.1736 74.9834 36.3259 74.755 36.5543C74.6027 36.7066 74.4504 37.0874 74.4504 37.4681C74.4504 38.1534 74.755 38.5342 75.3642 38.5342C75.4403 38.5342 75.5165 38.5342 75.6688 38.458C75.821 38.3819 75.8972 38.3819 75.9733 38.3819C76.2018 38.3819 76.2779 38.7626 76.2779 39.448V42.4939C76.2779 43.1792 76.2018 43.5599 75.9733 43.5599C75.8972 43.5599 75.821 43.5599 75.6688 43.4838C75.5165 43.4076 75.4403 43.4076 75.3642 43.4076C74.755 43.4076 74.4504 43.7884 74.4504 44.4737C74.4504 45.3113 74.8311 45.7682 75.6688 45.7682C75.8972 45.7682 76.2018 45.7682 76.6587 45.6921C77.1156 45.6159 77.4202 45.6159 77.6486 45.6159C77.877 45.6159 78.2578 45.6159 78.7147 45.6921C79.0193 45.7682 79.2477 45.7682 79.4 45.7682C80.0853 45.7682 80.3899 45.3875 80.3899 44.5499C80.3899 43.9407 80.1615 43.5599 79.7046 43.5599C79.4762 43.5599 79.3239 43.4076 79.2477 43.3315C79.1716 43.1792 79.1716 42.8746 79.1716 42.2654V40.2856C79.1716 39.7525 79.3239 39.2957 79.7046 38.9149C80.0092 38.5342 80.4661 38.3819 80.9991 38.3819C81.456 38.3819 81.7606 38.5342 81.989 38.8388C82.2175 39.1434 82.2936 39.6764 82.2936 40.3617V43.0269C82.2936 43.3315 82.1413 43.4838 81.7606 43.4838C81.2276 43.4838 80.9991 43.8645 80.9991 44.5499C80.9991 45.3113 81.3798 45.6921 82.1413 45.6921C82.3698 45.6921 82.6744 45.6921 82.979 45.6159C83.3597 45.5398 83.6643 45.5398 83.9689 45.5398C84.1973 45.5398 84.5019 45.5398 84.8826 45.6159C85.2634 45.6921 86.101 45.9967 86.101 45.0829C86.101 44.3976 86.2533 44.0168 86.101 43.4838C86.101 43.4838 85.6441 43.5599 85.568 43.5599Z" fill="#4C4273"/>
</g>
</svg>
