<svg width="122" height="80" viewBox="0 0 122 80" fill="none" xmlns="http://www.w3.org/2000/svg">
<mask id="mask0" mask-type="alpha" maskUnits="userSpaceOnUse" x="0" y="0" width="122" height="80">
<rect width="122" height="80" fill="white"/>
</mask>
<g mask="url(#mask0)">
<path d="M51.3207 36.6741C51.3207 37.8803 50.8723 39.2905 49.3199 40.1256C50.0271 40.608 50.4928 41.2204 50.4928 42.4451C50.4928 45.0986 48.6989 46.8243 46.3531 46.8243H41.2129L43.6795 33.6124H48.1297C50.3893 33.6124 51.3207 35.0783 51.3207 36.6741ZM49.0094 37.0823C49.0094 36.47 48.7679 35.7834 47.733 35.7834H45.5596L44.9386 39.0307H47.1293C48.4747 39.0307 49.0094 37.9359 49.0094 37.0823ZM48.1987 42.5564C48.1987 41.777 47.7847 41.2018 46.905 41.2018H44.5419L43.9037 44.6532H46.2841C47.4742 44.6532 48.1987 43.744 48.1987 42.5564ZM56.4954 34.4474C56.4954 35.2453 55.8917 35.8948 55.15 35.8948C54.4083 35.8948 53.8046 35.2453 53.8046 34.4474C53.8046 33.6495 54.4083 33 55.15 33C55.8917 33 56.4954 33.6495 56.4954 34.4474ZM55.7709 37.1566L53.9771 46.8243H51.8382L53.6321 37.1566H55.7709ZM61.9288 37.4164L61.6011 39.1977H60.1177L59.238 43.9481C59.2035 44.0966 59.2035 44.2079 59.2035 44.3007C59.2035 44.6904 59.4277 44.8945 59.8934 44.8945H60.6696L60.3074 46.8243H59.2035C57.9615 46.8243 57.0301 46.045 57.0301 44.7275C57.0301 44.3935 57.0646 44.1337 57.0991 43.9296L57.9788 39.1977H57.0646L57.3923 37.4164H58.3065L58.8412 34.5587H60.9801L60.4454 37.4164H61.9288ZM72.4678 33.6124L72.0711 35.7649H66.6895L66.0513 39.2163H70.6567L70.26 41.3688H65.6373L64.6196 46.8243H62.3428L64.8093 33.6124H72.4678ZM79.7469 40.2369C79.7469 40.8307 79.6434 41.5358 79.5744 41.9812C79.2294 43.9667 78.7637 45.0058 77.9702 45.8223C77.2975 46.5274 76.3316 46.9356 75.2104 46.9356C73.8478 46.9356 72.1574 46.0821 72.1574 43.7254C72.1574 43.1316 72.2781 42.4265 72.3471 41.9812C72.6921 39.9957 73.1578 38.9751 73.9512 38.1586C74.624 37.4535 75.5899 37.0452 76.7111 37.0452C78.0737 37.0452 79.7469 37.8803 79.7469 40.2369ZM77.6253 40.4781C77.6253 39.5503 77.1595 39.105 76.5041 39.105C76.0729 39.105 75.6589 39.2905 75.3829 39.5874C74.9517 40.0328 74.693 40.775 74.4687 41.9812C74.3135 42.8533 74.279 43.2801 74.279 43.5028C74.279 44.4306 74.7619 44.8759 75.4174 44.8759C75.8486 44.8759 76.2453 44.6904 76.5213 44.3935C76.9525 43.9481 77.2113 43.1873 77.4355 41.9812C77.5908 41.109 77.6253 40.7008 77.6253 40.4781ZM88.561 37.9545L86.7154 39.7173C86.5602 39.5132 86.2842 39.1235 85.7322 39.1235C84.887 39.1235 84.1281 39.8658 83.9211 40.9791L82.8344 46.8243H80.6956L82.4894 37.1566H84.5593L84.3696 38.1029C84.8698 37.4535 85.715 37.0452 86.6464 37.0452C87.5089 37.0452 88.0781 37.3421 88.561 37.9545ZM96.2023 40.4967C96.2023 41.1461 96.0815 41.9255 95.9263 42.6863H90.5447C90.5102 42.9461 90.4757 43.1316 90.4757 43.3729C90.4757 44.3192 90.9586 44.9873 92.0108 44.9873C92.8733 44.9873 93.5287 44.6347 94.1497 44.0038L95.2708 45.5254C94.3394 46.4717 93.1147 46.9356 91.7693 46.9356C90.1997 46.9356 88.4403 46.0821 88.4403 43.5399C88.4403 40.2926 89.9237 37.0452 93.0112 37.0452C94.9259 37.0452 96.2023 38.3998 96.2023 40.4967ZM94.1669 40.4967C94.1669 39.4946 93.6667 38.938 92.8905 38.938C91.9763 38.938 91.2174 39.5874 90.8206 41.1461H94.1152C94.1497 40.942 94.1669 40.7008 94.1669 40.4967ZM106 37.1566L102.377 41.9626L104.499 46.8243H102.032L100.911 43.7997L98.8241 46.8243H96.185L99.997 41.8327L97.9617 37.1566H100.428L101.48 40.0328L103.395 37.1566H106Z" fill="black"/>
<path fill-rule="evenodd" clip-rule="evenodd" d="M30.3622 41.206C30.3622 42.8383 29.032 44.1662 27.3972 44.1662C25.762 44.1662 24.4318 42.8383 24.4318 41.206V38.1078H30.3622V41.206ZM33.1021 35.4194V33H30.3622V38.1078H24.4318V33H21.6919V35.4194V38.1078V41.206C21.6919 44.3464 24.2513 46.9013 27.3972 46.9013C30.5429 46.9013 33.1021 44.3464 33.1021 41.206V38.1078V35.4194Z" fill="url(#paint0_linear)"/>
<path fill-rule="evenodd" clip-rule="evenodd" d="M35.9611 33C35.9611 34.3438 34.8738 35.4194 33.5392 35.4194H32.999H30.2591H24.3288H21.5889H21.1717C19.8354 35.4194 18.7481 34.334 18.7481 33H16C16 35.9349 18.2675 38.1078 21.2059 38.1078H21.5889H32.999H33.5734C36.5134 38.1078 38.7241 35.9442 38.7241 33H35.9611Z" fill="url(#paint1_linear)"/>
<path fill-rule="evenodd" clip-rule="evenodd" d="M30.3622 41.206C30.3622 42.8383 29.032 44.1662 27.3972 44.1662C25.762 44.1662 24.4318 42.8383 24.4318 41.206V38.1078H30.3622V41.206ZM30.3622 38.1078H24.4318V33H21.6919V35.4194V38.1078V41.206C21.6919 44.3464 24.2513 46.9013 27.3972 46.9013C30.5429 46.9013 33.1021 44.3464 33.1021 41.206V38.1078H30.3622Z" fill="url(#paint2_linear)"/>
</g>
<defs>
<linearGradient id="paint0_linear" x1="23.8988" y1="37.2703" x2="39.6218" y2="40.9443" gradientUnits="userSpaceOnUse">
<stop stop-color="#00FFC8"/>
<stop offset="1" stop-color="#00758C"/>
</linearGradient>
<linearGradient id="paint1_linear" x1="16" y1="33" x2="38.7241" y2="33" gradientUnits="userSpaceOnUse">
<stop stop-color="#00FFC8"/>
<stop offset="1" stop-color="#00959A"/>
</linearGradient>
<linearGradient id="paint2_linear" x1="21.6919" y1="37.2703" x2="33.1021" y2="37.2703" gradientUnits="userSpaceOnUse">
<stop stop-color="#00FFC8"/>
<stop offset="1" stop-color="#00BBAB"/>
</linearGradient>
</defs>
</svg>
