<svg width="122" height="80" viewBox="0 0 122 80" fill="none" xmlns="http://www.w3.org/2000/svg">
<mask id="mask0" mask-type="alpha" maskUnits="userSpaceOnUse" x="0" y="0" width="122" height="80">
<rect width="122" height="80" fill="white"/>
</mask>
<g mask="url(#mask0)">
<path fill-rule="evenodd" clip-rule="evenodd" d="M31.9492 29.9906C30.3391 28.6635 28.1241 28 25.2991 28C21.5277 28 19.8542 28 18.2685 28V28.9807C18.2685 28.9807 22.0839 28.9807 25.1674 28.9807C27.5679 28.9807 29.739 29.4735 31.0612 30.62C32.3883 31.7666 33.3934 33.4694 33.3934 35.5771C33.3934 37.6068 32.5249 39.1144 31.1442 40.2512C29.7634 41.388 27.3044 41.8905 24.8454 41.8905C21.9082 41.8905 16.9219 41.8905 16.9219 41.8905V42.8712C16.9219 42.8712 23.6695 42.8712 24.9039 42.8712C27.8752 42.8712 30.1928 42.2272 31.8614 40.9391C33.53 39.6511 34.3643 37.8361 34.3643 35.499C34.3643 33.1522 33.5593 31.3177 31.9492 29.9906Z" fill="#10A6A1"/>
<path fill-rule="evenodd" clip-rule="evenodd" d="M31.3539 31.4104C30.3537 30.6493 29.2022 30.0345 25.943 30.0394C22.4302 30.0394 22.0008 30.0394 20.5225 30.0394V30.9957C20.5225 30.9957 22.9473 30.9664 25.8211 30.9957C28.5972 31.025 29.6169 31.3372 30.5537 32.03C31.7491 32.9131 32.4907 34.006 32.4907 35.5332C32.4907 37.0066 31.7393 38.0507 30.5342 38.9338C29.3047 39.8413 27.4263 39.8511 26.6603 39.8657C26.3724 39.8706 22.6351 39.8657 22.6351 39.8657V40.822C22.6351 40.822 24.494 40.8464 25.6454 40.822C28.2801 40.7635 29.8462 40.6073 31.3051 39.5242C32.6712 38.5094 33.3933 37.1725 33.3933 35.4746C33.3933 33.24 32.276 32.113 31.3539 31.4104Z" fill="#1F8E8B"/>
<path fill-rule="evenodd" clip-rule="evenodd" d="M30.8667 32.6742C30.1154 32.2009 29.4518 31.8838 26.3439 31.8838C23.1823 31.8838 23.7775 31.8838 22.4456 31.8838V32.5132C22.4456 32.5132 23.6458 32.5132 26.2317 32.5132C28.9883 32.5132 30.0373 33.006 30.3544 33.1962C30.9741 33.5768 31.7889 34.1916 31.7889 35.4552C31.7889 36.2603 31.3107 37.2702 30.6081 37.6703C29.969 38.0313 28.7931 38.3534 26.7293 38.3534C26.4707 38.3534 14 38.3534 14 38.3534V38.9827C14 38.9827 25.7389 38.9827 26.7732 38.9827C29.2615 38.9827 30.1154 38.7046 30.9936 38.2216C31.8718 37.7386 32.4573 36.7384 32.4573 35.4601C32.467 34.0354 31.6718 33.1767 30.8667 32.6742Z" fill="#08ABA6"/>
<path fill-rule="evenodd" clip-rule="evenodd" d="M33.3447 39.6266C31.7347 38.2995 29.5196 37.636 26.6946 37.636C22.9232 37.636 23.577 37.636 21.9962 37.636V38.6167C21.9962 38.6167 23.4843 38.6167 26.5678 38.6167C28.9683 38.6167 31.1394 39.1094 32.4616 40.256C33.7887 41.4026 34.7938 43.1054 34.7938 45.2131C34.7938 47.2428 33.9253 48.7504 32.5446 49.8872C31.1638 51.024 28.7048 51.5265 26.2458 51.5265C23.3086 51.5265 18.3223 51.5265 18.3223 51.5265V52.5072C18.3223 52.5072 25.0699 52.5072 26.3043 52.5072C29.2756 52.5072 31.5932 51.8632 33.2618 50.5751C34.9304 49.2871 35.7647 47.4721 35.7647 45.135C35.7598 42.7882 34.9548 40.9488 33.3447 39.6266Z" fill="#10A6A1"/>
<path fill-rule="evenodd" clip-rule="evenodd" d="M32.7488 41.0464C31.7486 40.2853 30.5972 39.6706 27.338 39.6754C23.8251 39.6754 21.4442 39.6754 19.9707 39.6754V40.6317C19.9707 40.6317 24.3423 40.6025 27.2209 40.6317C29.9971 40.661 31.0168 40.9733 31.9535 41.6661C33.1489 42.5492 33.8905 43.6421 33.8905 45.1692C33.8905 46.6427 33.1391 47.6868 31.934 48.5699C30.7045 49.4774 28.8261 49.4871 28.0601 49.5018C27.7722 49.5066 24.0349 49.5018 24.0349 49.5018V50.458C24.0349 50.458 25.8938 50.4824 27.0453 50.458C29.6799 50.3995 31.2461 50.2434 32.7049 49.1602C34.071 48.1454 34.7931 46.8086 34.7931 45.1107C34.7882 42.8761 33.671 41.749 32.7488 41.0464Z" fill="#1F8E8B"/>
<path d="M28.4521 43.764H21.5435V44.3007H28.4521V43.764Z" fill="#20928F"/>
<path d="M28.4085 45.7059H24.3931V46.1646H28.4085V45.7059Z" fill="#39BCB8"/>
<path d="M20.3671 43.764H18.3179V44.3007H20.3671V43.764Z" fill="#39BCB8"/>
<path d="M23.2608 45.6718H17.0449V46.2084H23.2608V45.6718Z" fill="#20928F"/>
<path d="M20.9976 32.0352H18.5776V32.4743H20.9976V32.0352Z" fill="#156A68"/>
<path d="M22.4371 35.5429H16.8896V36.0552H22.4371V35.5429Z" fill="#60D9D5"/>
<path d="M22.8948 49.7506H17.0449V50.3898H22.8948V49.7506Z" fill="#08ABA6"/>
<path d="M17.0501 51.5413H15.5864V52.4731H17.0501V51.5413Z" fill="#1F8E8B"/>
<path d="M28.423 33.9768H19.2407V34.4891H28.423V33.9768Z" fill="#39BCB8"/>
<path d="M28.2475 35.5429H23.832V36.0552H28.2475V35.5429Z" fill="#1F8E8B"/>
<path fill-rule="evenodd" clip-rule="evenodd" d="M32.2671 42.4078C31.5158 41.954 30.8522 41.6467 27.7443 41.6467C24.5827 41.6467 24.1094 41.6467 22.7775 41.6467V42.2565C22.7775 42.2565 25.0462 42.2565 27.6369 42.2565C30.3936 42.2565 31.4426 42.7298 31.7597 42.9152C32.3793 43.2811 33.1941 43.8764 33.1941 45.0961C33.1941 45.8719 32.716 46.8477 32.0134 47.2331C31.3743 47.5795 30.1984 47.8918 28.1346 47.8918C27.876 47.8918 15.4053 47.8918 15.4053 47.8918V48.5017C15.4053 48.5017 27.1442 48.5017 28.1785 48.5017C30.6668 48.5017 31.5206 48.2333 32.3989 47.7698C33.2771 47.3014 33.8626 46.3403 33.8626 45.1059C33.8626 43.7202 33.0673 42.8908 32.2671 42.4078Z" fill="#08ABA6"/>
<path d="M41.4692 46.4915V33.3719H46.0799C47.4802 33.3719 48.5926 33.65 49.4123 34.2062C50.2319 34.7624 50.6466 35.4845 50.6466 36.3725C50.6466 37.119 50.3978 37.763 49.9002 38.3143C49.4025 38.8608 48.7194 39.256 47.8412 39.4853V39.5243C48.9341 39.6268 49.8075 39.9634 50.4661 40.5245C51.1199 41.0905 51.4517 41.8223 51.4517 42.7249C51.4517 43.8471 50.954 44.7546 49.9587 45.4523C48.9634 46.15 47.7095 46.4964 46.1921 46.4964H41.4692V46.4915ZM43.372 34.7624V38.9974H45.3188C46.358 38.9974 47.1777 38.7925 47.7729 38.3875C48.3682 37.9825 48.6658 37.4117 48.6658 36.6701C48.6658 35.3967 47.6314 34.7575 45.5578 34.7575H43.372V34.7624ZM43.372 40.383V45.1059H45.9482C47.0655 45.1059 47.929 44.8912 48.5438 44.4667C49.1586 44.0374 49.4659 43.4519 49.4659 42.7103C49.4659 41.1588 48.1632 40.3879 45.553 40.3879H43.372V40.383Z" fill="#08ABA6"/>
<path d="M54.9795 34.7427C54.6478 34.7427 54.3648 34.65 54.1306 34.4695C53.8964 34.289 53.7793 34.0548 53.7793 33.7718C53.7793 33.4888 53.8964 33.2595 54.1306 33.0741C54.3648 32.8887 54.6478 32.796 54.9795 32.796C55.3211 32.796 55.6089 32.8887 55.8431 33.0741C56.0773 33.2595 56.1993 33.4937 56.1993 33.7718C56.1993 34.0402 56.0822 34.2695 55.8431 34.4598C55.6089 34.65 55.3211 34.7427 54.9795 34.7427ZM55.887 46.4914H54.033V37.1237H55.887V46.4914Z" fill="#08ABA6"/>
<path d="M64.5465 46.4035C64.1074 46.5987 63.5317 46.6962 62.8193 46.6962C60.7897 46.6962 59.7797 45.779 59.7797 43.9494V38.4019H57.7891V37.1187H59.7797V34.8305L61.6337 34.3475V37.1187H64.5514V38.4019H61.6337V43.681C61.6337 44.3104 61.7655 44.7593 62.0289 45.0276C62.2924 45.296 62.7315 45.4326 63.3414 45.4326C63.8098 45.4326 64.2098 45.3301 64.5514 45.1203V46.4035H64.5465Z" fill="#08ABA6"/>
<path d="M81.8431 46.4916H80.1062V38.3924C80.1062 37.7533 80.155 36.9677 80.2526 36.0456H80.2135C80.0476 36.5921 79.8964 36.9824 79.7647 37.2166L74.671 46.4916H73.8172L68.7332 37.2849C68.5869 37.0165 68.4405 36.6018 68.2844 36.0456H68.2453C68.299 36.5286 68.3283 37.3141 68.3283 38.4119V46.4916H66.645V34.4209H68.9528L73.5293 42.8372C73.8806 43.4812 74.1099 43.9642 74.2172 44.2862H74.2807C74.5783 43.6227 74.8174 43.1299 74.9979 42.803L79.6671 34.4209H81.8529V46.4916H81.8431Z" fill="#08ABA6"/>
<path d="M93.548 46.4915H91.694V45.0278H91.6501C90.8451 46.1499 89.6546 46.711 88.0884 46.711C86.937 46.711 86.0344 46.4622 85.3806 45.9694C84.7268 45.4766 84.4048 44.818 84.4048 44.0032C84.4048 42.2516 85.6782 41.2319 88.225 40.9489L91.694 40.5537C91.694 38.9632 90.8987 38.163 89.3082 38.163C87.9128 38.163 86.654 38.5485 85.5318 39.3145V37.7776C86.6686 37.1921 87.9811 36.8994 89.4643 36.8994C92.1868 36.8994 93.548 38.0654 93.548 40.3927V46.4915ZM91.694 41.754L88.9032 42.0662C88.0445 42.1638 87.3956 42.3346 86.9565 42.5834C86.5174 42.8322 86.3027 43.2665 86.3027 43.8958C86.3027 44.3545 86.5028 44.7253 86.9077 45.018C87.3127 45.3108 87.8494 45.4523 88.5178 45.4523C89.435 45.4523 90.1962 45.1937 90.7963 44.6716C91.3964 44.1496 91.694 43.4909 91.694 42.6907V41.754Z" fill="#08ABA6"/>
<path d="M102.612 38.641C102.29 38.441 101.822 38.3385 101.212 38.3385C100.422 38.3385 99.7583 38.641 99.2264 39.246C98.6946 39.851 98.4312 40.6756 98.4312 41.7148V46.4913H96.5771V37.1237H98.4312V39.0557H98.4751C98.7385 38.3971 99.1435 37.8848 99.6851 37.514C100.227 37.1432 100.837 36.9626 101.505 36.9626C101.988 36.9626 102.359 37.0066 102.612 37.0895V38.641Z" fill="#08ABA6"/>
<path d="M109.995 46.4035C109.556 46.5987 108.98 46.6962 108.268 46.6962C106.238 46.6962 105.228 45.779 105.228 43.9494V38.4019H103.237V37.1187H105.228V34.8305L107.082 34.3475V37.1187H110V38.4019H107.082V43.681C107.082 44.3104 107.214 44.7593 107.477 45.0276C107.741 45.296 108.18 45.4326 108.79 45.4326C109.258 45.4326 109.658 45.3301 110 45.1203V46.4035H109.995Z" fill="#08ABA6"/>
</g>
</svg>
