<svg width="122" height="80" viewBox="0 0 122 80" fill="none" xmlns="http://www.w3.org/2000/svg">
<mask id="mask0" mask-type="alpha" maskUnits="userSpaceOnUse" x="0" y="0" width="122" height="80">
<rect width="122" height="80" fill="white"/>
</mask>
<g mask="url(#mask0)">
<path d="M48.9904 31.8734C48.9904 32.0039 48.8528 32.1342 48.7154 32.1342C48.6696 32.1342 48.5781 32.0907 48.5322 32.0472C47.7536 31.2647 46.7 30.8299 45.4173 30.6994C45.1882 30.6561 44.9592 30.6561 44.7301 30.6561C42.4116 30.6561 39.8283 31.7411 37.5721 33.495L40.9738 33.5255H42.7603C44.4095 33.5255 45.5546 33.6125 46.2877 33.7428C47.2954 33.9604 47.9824 34.3517 48.4405 34.8733C48.8528 35.4385 48.9445 36.0906 48.6237 36.8298C48.4405 37.3081 48.12 37.7863 47.6618 38.1776C47.2037 38.5689 46.6082 38.9602 45.8296 39.3081C46.7915 39.6994 47.3869 40.134 47.7077 40.6994C47.9824 41.2645 47.9824 41.9167 47.7077 42.6558C47.4328 43.395 46.929 44.0471 46.1501 44.6558C45.4173 45.2644 44.5469 45.6993 43.6307 46.0036C42.7146 46.3079 41.4778 46.4384 40.0576 46.4384H37.861C37.7878 46.465 37.7103 46.4819 37.6298 46.4819L34.9849 46.4504L34.973 46.4819V46.4504L33.9653 46.4384C33.5986 46.4384 33.2781 46.1341 33.2781 45.7863C33.2781 45.4384 33.5986 45.1341 33.9653 45.1341L35.4807 45.1519L39.4275 34.8161L36.1181 34.7863C36.1108 34.7863 36.1039 34.7845 36.0969 34.7841C34.898 35.9591 33.8561 37.3269 33.0792 38.806L35.1104 38.8297C35.5226 38.8297 35.7976 39.1341 35.7976 39.4819C35.7976 39.8297 35.4768 40.134 35.1104 40.134L32.4661 40.1031C32.0354 41.1667 31.7922 42.2338 31.7205 43.221H29.3384C29.476 41.8297 29.8882 40.3951 30.6211 38.8732C33.2322 33.4385 38.9581 29.3516 43.8597 29.3516C44.1346 29.3516 44.4095 29.3516 44.6843 29.3951C46.5167 29.5691 47.9824 30.3516 48.9445 31.6994C48.9904 31.7429 49.036 31.7864 48.9904 31.8734ZM45.1882 37.1776C45.3256 36.7863 45.2799 36.4384 44.9592 36.2211C44.6843 36.0038 44.1346 35.8733 43.356 35.8733H41.7525L40.6989 38.6124H42.1648C42.9893 38.6124 43.6765 38.4819 44.1805 38.2211C44.6843 37.9603 45.005 37.6124 45.1882 37.1776ZM38.5917 44.0906H40.1952C41.6152 44.0906 42.6229 43.9601 43.2184 43.6993C43.8139 43.4385 44.1805 43.0472 44.4095 42.5688C44.6386 42.0037 44.501 41.5688 44.0429 41.2645C43.585 40.9602 42.6688 40.7862 41.3403 40.7862H39.8744L38.5917 44.0906ZM38.8666 29.6126C36.7136 29.8734 34.3775 31.0037 32.3618 32.7429C31.5832 33.395 30.896 34.1342 30.2546 34.9168H28.1018C30.896 31.3082 35.0189 28.8735 38.8208 29.0038C39.004 29.0038 39.1416 29.1343 39.1416 29.3083C39.1416 29.4386 39.0498 29.6126 38.8666 29.6126ZM25.8114 34.395C24.6202 35.8733 23.6583 37.5689 23.1544 39.3516C22.4672 41.6559 22.4672 43.9166 23.1085 45.8298C23.4751 46.9166 24.0248 47.8297 24.7578 48.5687C24.8951 48.6992 24.8951 48.9165 24.7578 49.047C24.7119 49.134 24.5744 49.1775 24.4829 49.1775C24.3912 49.1775 24.3455 49.1775 24.2538 49.134C23.2271 48.4547 22.4336 47.541 21.8773 46.4719C21.8452 46.4767 21.8131 46.4819 21.7802 46.4819L18.8941 46.4384C18.5277 46.4384 18.2071 46.1341 18.2071 45.7863C18.2071 45.4384 18.5277 45.1341 18.8941 45.1341L21.3442 45.171C20.7727 43.3291 20.8016 41.1707 21.5053 38.9602C21.9697 37.4751 22.6985 36.082 23.6267 34.8496L22.8338 34.8298C22.4672 34.8298 22.1466 34.5255 22.1466 34.1777C22.1466 33.8298 22.4672 33.5255 22.8338 33.5255L24.5744 33.569C24.6202 33.569 24.6653 33.5738 24.709 33.5828C26.0946 32.1402 27.7762 31.0109 29.6133 30.3516C29.8424 30.2648 30.0256 30.3516 30.1173 30.5256C30.1631 30.6994 30.1173 30.9169 30.0256 31.0472C28.4682 31.7864 27.0023 32.9604 25.8114 34.395ZM19.4439 39.6994L15.7794 39.7429C15.3669 39.7429 15.0005 39.3951 15.0005 39.0037C15.0005 38.6124 15.3669 38.2646 15.7794 38.2646L19.3981 38.2211C19.8562 38.2211 20.2226 38.5689 20.2226 38.9602C20.2226 39.3516 19.8562 39.6994 19.4439 39.6994ZM25.5365 39.9602C25.6738 39.5254 25.8114 39.0472 25.9946 38.6124C26.3152 37.7429 26.7274 36.9603 27.2314 36.2211H29.3384C28.7888 37.1341 28.285 38.0473 27.8727 39.0472C27.781 39.3516 27.6437 39.6559 27.552 39.9602H25.5365ZM27.1397 41.221C26.7733 42.8296 26.7733 44.395 27.0938 45.7428C27.552 47.5687 28.5597 48.9165 30.0256 49.6992C30.1631 49.7862 30.2088 49.96 30.1631 50.0905C30.1173 50.1775 30.0256 50.2643 29.8882 50.2643C29.8424 50.2643 29.8424 50.2643 29.7965 50.2643C28.0101 49.7862 26.6359 48.6992 25.8114 47.1341C24.941 45.4819 24.7578 43.395 25.1701 41.221H27.1397ZM31.8122 44.482C31.9037 45.3949 32.1328 46.1776 32.545 46.8731C33.3239 48.1776 34.6522 48.96 36.3472 49.134C36.5762 49.1775 36.8053 49.1775 37.0344 49.1775C38.2712 49.1775 39.5995 48.8732 40.9738 48.2644C41.1112 48.2209 41.2944 48.2644 41.3403 48.3949C41.432 48.5254 41.3861 48.6557 41.2488 48.7427C39.3248 49.7862 37.4008 50.3513 35.6143 50.3513C35.3394 50.3513 35.0645 50.3513 34.7898 50.3078C32.7741 50.0905 31.2167 49.1775 30.2546 47.6122C29.705 46.6992 29.3843 45.6558 29.3843 44.482H31.8122Z" fill="#0096DF"/>
<path d="M101.837 44.8384C99.5851 44.8384 98.1937 43.4162 98.1937 41.4751C98.1937 38.7144 100.299 36.3216 103.339 36.3216C105.737 36.3216 107.001 37.8945 107.001 39.7016C107.001 42.4625 104.877 44.8384 101.837 44.8384ZM103.082 37.8276C101.379 37.8276 100.391 39.9024 100.391 41.425C100.391 42.5461 101.05 43.3326 102.13 43.3326C103.723 43.3326 104.785 41.3246 104.785 39.7016C104.785 38.8649 104.382 37.8276 103.082 37.8276ZM98.2485 38.2291C96.7288 38.2291 95.7584 39.6346 95.4105 41.3747L94.7329 44.6544H92.6093C92.6093 44.6544 94.0007 37.2419 94.1106 36.5057H96.1073C95.9837 37.0539 95.8499 37.6267 95.7584 38.2291H95.8134C96.4175 37.125 97.3879 36.3216 98.6147 36.3216C98.7612 36.3216 98.9261 36.3383 99.0724 36.3553L98.6512 38.2626C98.5415 38.2459 98.395 38.2291 98.2485 38.2291ZM88.0679 40.4713C87.6285 40.4713 87.2439 40.421 86.9144 40.3875L86.0355 44.6544H83.93L86.2368 33.5607C86.9876 33.3935 88.1045 33.2931 89.2213 33.2931C90.3564 33.2931 91.5832 33.5106 92.3704 34.0961C93.103 34.5982 93.5057 35.3345 93.5057 36.3383C93.5057 37.6769 92.81 38.748 91.9313 39.4005C90.9423 40.1199 89.5327 40.4713 88.0679 40.4713ZM89.2213 34.866C88.6904 34.866 88.2875 34.8995 88.0495 34.9664L87.2439 38.7813C87.5918 38.8483 87.903 38.8817 88.3609 38.8817C90.1736 38.8817 91.3635 37.8276 91.3635 36.489C91.3635 35.301 90.4298 34.866 89.2213 34.866ZM78.2057 44.8384C75.9353 44.8384 74.4155 43.483 74.4155 41.4583C74.4155 38.6141 76.576 36.2882 79.7618 36.2882C82.1602 36.2882 83.5519 37.7941 83.5519 39.6514C83.5519 42.6465 81.3179 44.8384 78.2057 44.8384ZM79.414 38.112C77.8943 38.112 77.1252 40.1367 77.1436 41.4083C77.1436 42.3621 77.6563 42.9979 78.5717 42.9979C80.018 42.9979 80.8238 41.0736 80.8238 39.6679C80.8238 38.915 80.4759 38.112 79.414 38.112ZM74.3969 38.2962H72.4925L71.8885 41.0736C71.8151 41.3917 71.742 41.8267 71.742 42.1109C71.742 42.5126 71.9252 42.7972 72.4925 42.7972C72.7307 42.7972 72.9871 42.7972 73.2251 42.7634L72.9137 44.6542C72.5842 44.7714 71.9252 44.8384 71.3574 44.8384C69.783 44.8384 69.0322 44.0855 69.0322 43.0648C69.0322 42.613 69.087 42.1779 69.2152 41.5422L70.6252 34.9328L73.3348 34.2468L72.8771 36.4722H74.7813L74.3969 38.2962ZM67.2374 35.4515H67.2193C66.5052 35.4515 65.9558 34.9999 65.9558 34.2803C65.9742 33.4603 66.6699 32.9081 67.4755 32.9081C68.2446 32.9081 68.7938 33.3767 68.7938 34.0961C68.7938 34.9494 68.0797 35.4515 67.2374 35.4515ZM66.5234 44.6542H63.887L65.5896 36.4722H68.2262L66.5234 44.6542ZM61.3233 38.6809C62.5132 39.0156 63.264 39.9024 63.264 41.1404C63.264 42.3452 62.5499 43.2322 61.5797 43.8177C60.5359 44.4535 58.9796 44.7381 56.9288 44.7381C55.5374 44.7381 54.4204 44.6377 53.8164 44.5205L56.0866 33.5607C56.9655 33.4102 58.1006 33.2931 59.3274 33.2931C60.6093 33.2931 61.5613 33.4436 62.3851 33.8955C63.2092 34.2803 63.8132 34.9999 63.8132 35.9536C63.8132 37.3758 62.6598 38.2792 61.3233 38.6308V38.6809ZM56.7458 42.7972C57.057 42.8305 57.3684 42.8473 57.7528 42.8473C59.1809 42.8473 60.4811 42.3284 60.4811 41.0736C60.4811 39.9525 59.4556 39.6178 58.2288 39.6178H57.4051L56.7458 42.7972ZM59.3825 35.1669C58.9247 35.1669 58.5583 35.2006 58.357 35.2507L57.8078 37.8611H58.6865C60.1332 37.8611 61.1218 37.292 61.1218 36.3383C61.1218 35.5185 60.3896 35.1669 59.3825 35.1669Z" fill="#1D2243"/>
</g>
</svg>
