<svg width="122" height="80" viewBox="0 0 122 80" fill="none" xmlns="http://www.w3.org/2000/svg">
<mask id="mask0" mask-type="alpha" maskUnits="userSpaceOnUse" x="0" y="0" width="122" height="80">
<rect width="122" height="80" fill="white"/>
</mask>
<g mask="url(#mask0)">
<path fill-rule="evenodd" clip-rule="evenodd" d="M104.559 40.6468C104.28 40.0216 103.905 39.4796 103.436 39.02C102.966 38.5613 102.418 38.1973 101.793 37.9287C101.168 37.6602 100.501 37.5263 99.7946 37.5263C99.0812 37.5263 98.4078 37.6626 97.7752 37.9344C97.1426 38.2062 96.5892 38.5752 96.1157 39.0413C95.6423 39.5073 95.2693 40.0551 94.9975 40.6836C94.7257 41.3129 94.5894 41.9871 94.5894 42.7079C94.5894 43.4213 94.7257 44.0906 94.9975 44.7158C95.2693 45.3411 95.6423 45.8864 96.1157 46.3524C96.5892 46.8185 97.1426 47.1875 97.7752 47.4601C98.4078 47.7319 99.0804 47.8682 99.7946 47.8682C100.268 47.8682 100.703 47.8315 101.099 47.7572C101.495 47.6829 101.834 47.5768 102.117 47.4397C102.399 47.3017 102.619 47.1344 102.774 46.936C102.929 46.7385 103.007 46.5198 103.007 46.279C103.007 46.1239 102.977 45.9721 102.917 45.8235C102.856 45.6749 102.776 45.5443 102.673 45.4317C102.571 45.3191 102.448 45.2285 102.307 45.1615C102.166 45.0946 102.013 45.0611 101.852 45.0611C101.647 45.0611 101.416 45.1354 101.163 45.284C100.979 45.3974 100.785 45.4799 100.58 45.5329C100.375 45.586 100.114 45.6121 99.7954 45.6121C99.4983 45.6121 99.2142 45.5664 98.9424 45.4741C98.6706 45.3819 98.4233 45.2554 98.2005 45.093C97.9776 44.9305 97.7817 44.7363 97.6119 44.5102C97.4422 44.284 97.3116 44.0367 97.2193 43.7682H103.845C104.184 43.7682 104.461 43.6661 104.677 43.4613C104.892 43.2564 105 42.9846 105 42.6458C104.984 41.9381 104.837 41.2721 104.559 40.6468ZM97.1434 41.7961C97.2209 41.5137 97.3434 41.2484 97.5091 41.0019C97.6748 40.7546 97.8748 40.5407 98.1082 40.3611C98.3417 40.1808 98.6045 40.0379 98.8983 39.9318C99.1914 39.8257 99.504 39.7726 99.8362 39.7726C100.168 39.7726 100.483 39.8224 100.78 39.9212C101.077 40.02 101.343 40.1595 101.581 40.3399C101.817 40.5203 102.022 40.7342 102.195 40.9807C102.368 41.228 102.497 41.4998 102.582 41.7961H97.1434Z" fill="#888888"/>
<path fill-rule="evenodd" clip-rule="evenodd" d="M83.2881 38.6918C83.2881 38.5294 83.3183 38.3776 83.3779 38.2364C83.4383 38.0951 83.5207 37.9719 83.6268 37.8658C83.7329 37.7597 83.8562 37.6772 83.9982 37.6168C84.1394 37.5572 84.2913 37.527 84.4537 37.527C84.6161 37.527 84.7696 37.5572 84.9149 37.6168C85.0594 37.6772 85.1851 37.7597 85.2912 37.8658C85.3973 37.9719 85.4822 38.0951 85.5458 38.2364C85.6095 38.3776 85.6413 38.5294 85.6413 38.6918V42.8874C85.6413 43.262 85.7083 43.6081 85.843 43.9256C85.9768 44.2432 86.1629 44.5207 86.3996 44.7574C86.6363 44.9941 86.9139 45.1794 87.2314 45.3133C87.5497 45.4479 87.8958 45.5149 88.2705 45.5149C88.6378 45.5149 88.97 45.4463 89.2671 45.3084C89.5642 45.1704 89.8181 44.9835 90.0303 44.7468C90.2426 44.5101 90.405 44.2309 90.5176 43.9101C90.6303 43.5885 90.6874 43.2408 90.6874 42.8661V38.6918C90.6874 38.5294 90.7192 38.3776 90.7829 38.2364C90.8466 38.0951 90.9347 37.9719 91.0482 37.8658C91.1608 37.7597 91.2882 37.6772 91.4302 37.6168C91.5714 37.5572 91.7232 37.527 91.8857 37.527C92.0481 37.527 92.1999 37.5572 92.3411 37.6168C92.4823 37.6772 92.6048 37.7597 92.7068 37.8658C92.8088 37.9719 92.8905 38.0951 92.9509 38.2364C93.0113 38.3776 93.0415 38.5294 93.0415 38.6918V42.8661C93.0415 43.5583 92.9207 44.2064 92.6807 44.8104C92.4407 45.4145 92.1085 45.9442 91.684 46.3997C91.2596 46.8552 90.7568 47.2143 90.1732 47.4747C89.5904 47.7359 88.9561 47.8665 88.2705 47.8665C87.5775 47.8665 86.9294 47.7359 86.3254 47.4747C85.7213 47.2135 85.1924 46.8552 84.7402 46.3997C84.288 45.9442 83.9329 45.4145 83.675 44.8104C83.4171 44.2064 83.2881 43.5583 83.2881 42.8661V38.6918Z" fill="#888888"/>
<path fill-rule="evenodd" clip-rule="evenodd" d="M75.0962 42.9462C75.0962 42.2042 75.239 41.5022 75.5255 40.8411C75.812 40.1799 76.2006 39.6036 76.692 39.1123C77.1825 38.6209 77.7572 38.2323 78.4143 37.9458C79.0713 37.6593 79.7709 37.5165 80.5128 37.5165H80.5341C80.9226 37.5165 81.223 37.6267 81.4352 37.8462C81.6474 38.0666 81.7535 38.3466 81.7535 38.687C81.7535 38.8576 81.7217 39.0151 81.658 39.1604C81.5944 39.3057 81.5078 39.4298 81.3985 39.5326C81.2891 39.6355 81.1601 39.7171 81.0116 39.7775C80.863 39.8379 80.7038 39.8681 80.5349 39.8681H80.4818C80.0794 39.8754 79.6958 39.9579 79.3317 40.1171C78.9677 40.2762 78.6477 40.4917 78.3726 40.7635C78.0967 41.0353 77.8763 41.3512 77.7098 41.712C77.5433 42.072 77.4568 42.4605 77.4503 42.8776V46.5858C77.4503 46.7483 77.4201 46.9001 77.3605 47.0413C77.3001 47.1825 77.2184 47.3058 77.1164 47.4119C77.0136 47.518 76.8919 47.6013 76.7507 47.6609C76.6095 47.7213 76.461 47.7515 76.3051 47.7515C76.1426 47.7515 75.9884 47.7213 75.8439 47.6609C75.6986 47.6013 75.5704 47.518 75.457 47.4119C75.3435 47.3058 75.2554 47.1817 75.1917 47.0405C75.128 46.8993 75.0962 46.7466 75.0962 46.5842V42.9462Z" fill="#888888"/>
<path fill-rule="evenodd" clip-rule="evenodd" d="M64.6211 35.6408C64.6211 35.471 64.6529 35.3143 64.7166 35.169C64.7803 35.0246 64.8668 34.8989 64.9762 34.7927C65.0855 34.6866 65.2112 34.6017 65.3525 34.5381C65.4937 34.4744 65.6455 34.4426 65.8079 34.4426C65.9704 34.4426 66.1263 34.4728 66.274 34.5332C66.4226 34.5928 66.5532 34.6776 66.6666 34.787C66.7793 34.8972 66.8699 35.0237 66.9368 35.1682C67.0037 35.3135 67.038 35.4702 67.038 35.64V37.346H70.7593C70.9217 37.346 71.0752 37.3778 71.2205 37.4415C71.3658 37.5051 71.4907 37.59 71.5968 37.6961C71.7029 37.8023 71.7878 37.9271 71.8514 38.0724C71.9151 38.2177 71.9469 38.3712 71.9469 38.5336C71.9469 38.6887 71.9151 38.8356 71.8514 38.9736C71.7878 39.1115 71.7029 39.2315 71.5968 39.3335C71.4907 39.4364 71.365 39.5172 71.2205 39.5776C71.076 39.6372 70.9217 39.6674 70.7593 39.6674H67.038V42.761C67.038 43.1495 67.1082 43.5111 67.2502 43.8474C67.3914 44.1829 67.5857 44.4759 67.833 44.7265C68.0804 44.9771 68.3718 45.173 68.7081 45.3142C69.0435 45.4554 69.4092 45.5264 69.8051 45.5264C70.1512 45.5264 70.4728 45.4767 70.7699 45.3779C71.067 45.2791 71.3421 45.12 71.5968 44.9012C71.738 44.7812 71.8759 44.6841 72.0106 44.6098C72.1445 44.5355 72.3037 44.4988 72.4873 44.4988C72.6212 44.4988 72.7526 44.5274 72.8791 44.5837C73.0064 44.64 73.1191 44.72 73.2187 44.822C73.3174 44.9249 73.3966 45.0449 73.457 45.182C73.5174 45.3199 73.5468 45.4669 73.5468 45.6219C73.5468 45.8056 73.5109 45.9819 73.4407 46.1517C73.3697 46.3215 73.2636 46.4733 73.1223 46.6072C72.6775 47.0308 72.1739 47.3491 71.6115 47.5605C71.0499 47.772 70.4475 47.8781 69.8043 47.8781C69.0835 47.8781 68.4085 47.7458 67.78 47.4806C67.1507 47.2161 66.6029 46.852 66.1369 46.3892C65.6708 45.9264 65.301 45.3828 65.0292 44.7575C64.7566 44.1323 64.6211 43.4597 64.6211 42.7389V35.6408Z" fill="#888888"/>
<path fill-rule="evenodd" clip-rule="evenodd" d="M60.6357 35.1853C60.6357 35.009 60.6692 34.8425 60.7361 34.6874C60.8031 34.5323 60.8945 34.396 61.0104 34.2793C61.1263 34.1626 61.2618 34.0711 61.4169 34.0042C61.572 33.9373 61.7409 33.9038 61.9238 33.9038C62.0993 33.9038 62.265 33.9373 62.4201 34.0042C62.5752 34.0711 62.7107 34.1634 62.8266 34.2793C62.9425 34.396 63.0363 34.5315 63.1065 34.6874C63.1767 34.8425 63.2118 35.009 63.2118 35.1853C63.2118 35.369 63.1767 35.5388 63.1065 35.6938C63.0363 35.8489 62.9433 35.9852 62.8266 36.102C62.7107 36.2187 62.5752 36.3101 62.4201 36.377C62.265 36.444 62.1001 36.4774 61.9238 36.4774C61.7409 36.4774 61.572 36.444 61.4169 36.377C61.2618 36.3101 61.1263 36.2179 61.0104 36.102C60.8945 35.9852 60.8031 35.8498 60.7361 35.6938C60.6692 35.5379 60.6357 35.369 60.6357 35.1853Z" fill="#888888"/>
<path fill-rule="evenodd" clip-rule="evenodd" d="M60.7303 38.7025C60.7303 38.5475 60.7621 38.3973 60.825 38.252C60.8887 38.1075 60.9744 37.9818 61.0837 37.8757C61.1931 37.7696 61.3213 37.6847 61.469 37.621C61.6168 37.5573 61.7718 37.5255 61.9335 37.5255C62.0951 37.5255 62.2469 37.5573 62.3873 37.621C62.5277 37.6847 62.6493 37.7696 62.7513 37.8757C62.8534 37.9818 62.9342 38.1067 62.9938 38.252C63.0534 38.3973 63.0836 38.5475 63.0836 38.7025V46.6814C63.0836 46.8438 63.0534 46.9957 62.9938 47.1369C62.9342 47.2781 62.8517 47.4013 62.7456 47.5075C62.6403 47.6136 62.5171 47.6968 62.3759 47.7564C62.2355 47.816 62.0837 47.8462 61.922 47.8462C61.7604 47.8462 61.607 47.816 61.4625 47.7564C61.318 47.6968 61.1915 47.6136 61.0829 47.5075C60.9736 47.4013 60.8878 47.2781 60.8242 47.1369C60.7605 46.9957 60.7295 46.8438 60.7295 46.6814V38.7025H60.7303Z" fill="#888888"/>
<path fill-rule="evenodd" clip-rule="evenodd" d="M58.7751 40.6949C58.5033 40.0664 58.1335 39.517 57.6674 39.0469C57.2014 38.5775 56.6528 38.2061 56.0243 37.9343C55.395 37.6625 54.7273 37.5262 54.0204 37.5262C53.7372 37.5262 53.4548 37.5638 53.1724 37.6372C52.8899 37.7115 52.6214 37.8135 52.3667 37.9441C52.112 38.0747 51.8827 38.229 51.6778 38.4053C51.4729 38.5816 51.3105 38.7726 51.1905 38.9775V34.9934C51.1905 34.8244 51.1619 34.6652 51.1056 34.5167C51.0493 34.3681 50.9677 34.24 50.8615 34.1298C50.7554 34.0204 50.6314 33.9339 50.4902 33.8702C50.3489 33.8066 50.193 33.7747 50.0241 33.7747C49.8543 33.7747 49.6968 33.8066 49.5523 33.8702C49.407 33.9339 49.2821 34.0204 49.176 34.1298C49.0699 34.2392 48.9866 34.3681 48.927 34.5167C48.8666 34.6652 48.8364 34.8244 48.8364 34.9934V42.707C48.8364 43.4204 48.9727 44.0897 49.2446 44.7149C49.5164 45.3402 49.8894 45.8854 50.3628 46.3515C50.8362 46.8176 51.3856 47.1865 52.0116 47.4592C52.6369 47.731 53.307 47.8673 54.0204 47.8673C54.7273 47.8673 55.395 47.731 56.0243 47.4592C56.6528 47.1874 57.2014 46.8184 57.6674 46.3515C58.1335 45.8854 58.5033 45.3394 58.7751 44.7149C59.0469 44.0897 59.1832 43.4204 59.1832 42.707C59.1832 41.9944 59.0469 41.3234 58.7751 40.6949ZM56.6129 43.8064C56.4676 44.146 56.2684 44.4431 56.0137 44.6978C55.7591 44.9525 55.4603 45.1524 55.1175 45.2977C54.7747 45.443 54.409 45.5157 54.0204 45.5157C53.6319 45.5157 53.2662 45.443 52.9234 45.2977C52.5806 45.1524 52.2818 44.9525 52.0272 44.6978C51.7725 44.4431 51.5717 44.146 51.4231 43.8064C51.2746 43.4669 51.2003 43.102 51.2003 42.7127C51.2003 42.3233 51.2746 41.9593 51.4231 41.6189C51.5717 41.2793 51.7725 40.9822 52.0272 40.7275C52.2818 40.4729 52.5798 40.2729 52.9234 40.1276C53.2662 39.9823 53.6319 39.9097 54.0204 39.9097C54.409 39.9097 54.7747 39.9823 55.1175 40.1276C55.4603 40.2729 55.7591 40.4729 56.0137 40.7275C56.2684 40.9822 56.4676 41.2793 56.6129 41.6189C56.7573 41.9585 56.83 42.3233 56.83 42.7127C56.83 43.102 56.7573 43.4669 56.6129 43.8064Z" fill="#888888"/>
<path fill-rule="evenodd" clip-rule="evenodd" d="M34.3695 39.0437C33.4708 38.1459 32.3836 37.6961 31.1062 37.6961C30.1087 37.6961 29.4704 38.2046 29.1904 38.4022V32.628L26.4829 34.1838V42.3071C26.4829 43.5845 26.9318 44.6742 27.8305 45.5762C28.7284 46.4781 29.8206 46.9295 31.1062 46.9295C32.3828 46.9295 33.4708 46.4781 34.3695 45.5762C35.2674 44.6734 35.7163 43.5845 35.7163 42.3071C35.7163 41.0297 35.2674 39.9416 34.3695 39.0437ZM32.4473 43.6596C32.0718 44.0351 31.6253 44.222 31.1062 44.222C30.5789 44.222 30.1275 44.0351 29.7528 43.6596C29.3773 43.285 29.1904 42.8336 29.1904 42.3063C29.1904 41.779 29.3773 41.33 29.7528 40.9595C30.1275 40.5889 30.5789 40.4036 31.1062 40.4036C31.6253 40.4036 32.0718 40.5889 32.4473 40.9595C32.8219 41.33 33.0097 41.779 33.0097 42.3063C33.0097 42.8344 32.8219 43.285 32.4473 43.6596Z" fill="url(#paint0_linear)"/>
<path fill-rule="evenodd" clip-rule="evenodd" d="M30.9516 26H30.9548L38.2431 30.2004V34.8025L30.9516 30.602V30.5979H30.9475L19.0041 37.4969H19V32.899H19.0041L30.9516 26Z" fill="url(#paint1_linear)"/>
<path fill-rule="evenodd" clip-rule="evenodd" d="M19.0041 38.3451L22.9841 36.049V44.4702H22.9874L34.9308 51.3651V51.3692L30.9516 53.6653L19 46.7712L19.0041 38.3451Z" fill="url(#paint2_linear)"/>
<path fill-rule="evenodd" clip-rule="evenodd" d="M38.9006 44.5012V30.7032L42.8839 33.0002V46.8022L35.594 51.0214L31.6147 48.7204L38.9006 44.5012Z" fill="url(#paint3_linear)"/>
</g>
<defs>
<linearGradient id="paint0_linear" x1="34.9854" y1="45.5767" x2="24.2194" y2="34.8107" gradientUnits="userSpaceOnUse">
<stop stop-color="#C49A33"/>
<stop offset="0.0115" stop-color="#C59B34"/>
<stop offset="0.2474" stop-color="#D3B63D"/>
<stop offset="0.4885" stop-color="#DDC944"/>
<stop offset="0.7362" stop-color="#E3D448"/>
<stop offset="1" stop-color="#E5D849"/>
</linearGradient>
<linearGradient id="paint1_linear" x1="19" y1="31.7483" x2="38.243" y2="31.7483" gradientUnits="userSpaceOnUse">
<stop stop-color="#C49A33"/>
<stop offset="0.0115" stop-color="#C59B34"/>
<stop offset="0.2474" stop-color="#D3B63D"/>
<stop offset="0.4885" stop-color="#DDC944"/>
<stop offset="0.7362" stop-color="#E3D448"/>
<stop offset="1" stop-color="#E5D849"/>
</linearGradient>
<linearGradient id="paint2_linear" x1="26.9654" y1="53.5776" x2="26.9654" y2="34.2484" gradientUnits="userSpaceOnUse">
<stop stop-color="#C49A33"/>
<stop offset="0.0115" stop-color="#C59B34"/>
<stop offset="0.2474" stop-color="#D3B63D"/>
<stop offset="0.4885" stop-color="#DDC944"/>
<stop offset="0.7362" stop-color="#E3D448"/>
<stop offset="1" stop-color="#E5D849"/>
</linearGradient>
<linearGradient id="paint3_linear" x1="37.2492" y1="33.6259" x2="37.2492" y2="49.755" gradientUnits="userSpaceOnUse">
<stop stop-color="#C49A33"/>
<stop offset="0.0115" stop-color="#C59B34"/>
<stop offset="0.2474" stop-color="#D3B63D"/>
<stop offset="0.4885" stop-color="#DDC944"/>
<stop offset="0.7362" stop-color="#E3D448"/>
<stop offset="1" stop-color="#E5D849"/>
</linearGradient>
</defs>
</svg>
