<svg width="122" height="80" viewBox="0 0 122 80" fill="none" xmlns="http://www.w3.org/2000/svg">
<mask id="mask0" mask-type="alpha" maskUnits="userSpaceOnUse" x="0" y="0" width="122" height="80">
<rect width="122" height="80" fill="white"/>
</mask>
<g mask="url(#mask0)">
<path d="M16.0501 30H17.6804V36.505L18.191 36.0603C19.1421 35.1061 20.3675 34.4726 21.696 34.2483C23.0245 34.0239 24.3899 34.2198 25.6017 34.8087C28.1213 36.0109 29.6858 38.7447 29.3565 41.3796C28.8953 45.0356 25.8652 47.5223 22.1763 47.3082C18.7179 47.1106 16.0007 44.1792 16.0007 40.6056L16.0171 30.2635C15.9842 30.1976 16.0007 30.1482 16.0501 30ZM17.7134 40.7209C17.7134 41.7013 18.0041 42.6596 18.5488 43.4748C19.0934 44.29 19.8676 44.9253 20.7734 45.3005C21.6791 45.6757 22.6758 45.7738 23.6374 45.5826C24.5989 45.3913 25.4822 44.9192 26.1754 44.226C26.8687 43.5327 27.3408 42.6495 27.532 41.6879C27.7233 40.7264 27.6251 39.7297 27.25 38.8239C26.8748 37.9181 26.2394 37.144 25.4243 36.5993C24.6091 36.0546 23.6507 35.7639 22.6703 35.7639C21.3561 35.7652 20.096 36.2879 19.1667 37.2172C18.2373 38.1465 17.7147 39.4066 17.7134 40.7209ZM74.3972 36.1427L74.4302 35.6651C74.3972 35.1216 74.7266 34.8581 75.2207 34.8417C75.7641 34.8417 76.077 35.1216 76.077 35.698V45.8919C76.077 46.4518 75.8135 46.7812 75.2701 46.7977C74.7266 46.8141 74.4137 46.5012 74.4302 45.9413V45.2167C72.5199 46.9623 70.4284 47.6869 67.9581 47.16C66.4517 46.8502 65.1071 46.0084 64.1704 44.7885C63.1832 43.5459 62.6822 41.9864 62.761 40.4014C62.8398 38.8163 63.493 37.3142 64.5986 36.1756C67.1183 33.5242 70.3845 33.5132 74.3972 36.1427ZM69.4238 45.6943C70.4074 45.6877 71.367 45.3897 72.1812 44.8378C72.9955 44.2859 73.6278 43.5049 73.9981 42.5937C74.3685 41.6825 74.4604 40.6818 74.2621 39.7184C74.0638 38.7549 73.5843 37.8719 72.8841 37.181C72.184 36.4901 71.2947 36.0223 70.3287 35.8368C69.3628 35.6513 68.3634 35.7564 67.4572 36.1388C66.5509 36.5212 65.7784 37.1638 65.2374 37.9853C64.6963 38.8067 64.411 39.7702 64.4175 40.7538C64.4326 42.0708 64.9671 43.3286 65.9045 44.2537C66.842 45.1788 68.1067 45.6965 69.4238 45.6943ZM106 40.7867C105.967 44.4592 102.986 47.3246 99.2314 47.3082C98.3571 47.3087 97.4914 47.1355 96.6846 46.7986C95.8777 46.4618 95.1459 45.968 94.5315 45.3459C93.9171 44.7239 93.4324 43.986 93.1056 43.175C92.7788 42.3641 92.6163 41.4963 92.6276 40.622C92.6606 36.9826 95.6743 34.1006 99.429 34.1335C101.182 34.1457 102.859 34.8532 104.091 36.1007C105.323 37.3481 106.01 39.0335 106 40.7867ZM99.3302 35.7639C98.3475 35.7655 97.3874 36.0588 96.5714 36.6064C95.7555 37.1541 95.1204 37.9316 94.7466 38.8404C94.3728 39.7493 94.2771 40.7486 94.4716 41.7119C94.6661 42.6752 95.1421 43.5591 95.8393 44.2517C96.5365 44.9442 97.4235 45.4143 98.3881 45.6025C99.3526 45.7906 100.351 45.6882 101.258 45.3084C102.164 44.9286 102.937 44.2883 103.479 43.4687C104.022 42.6492 104.309 41.6871 104.304 40.7044C104.286 39.3939 103.755 38.1425 102.826 37.2189C101.896 36.2952 100.641 35.7728 99.3302 35.7639ZM48.3279 34.8252C50.1394 34.7099 50.1394 34.7099 50.8146 36.2085L54.5035 44.5086L54.8988 43.7181L58.423 35.7804C58.7524 34.9734 59.1641 34.6276 60.0369 34.7758C60.2663 34.8044 60.4975 34.8154 60.7286 34.8087C60.6297 35.0887 60.5474 35.3028 60.4651 35.5169L55.8045 46.0237C55.541 46.6494 55.1623 46.6824 54.6188 46.6659C54.0754 46.6494 53.6143 46.7318 53.3178 46.0401L48.5914 35.3851C48.4846 35.208 48.3963 35.0204 48.3279 34.8252ZM84.5746 44.5415L86.5344 40.1939C87.2096 38.6788 87.9177 37.1802 88.5435 35.6322C88.8235 34.957 89.1693 34.6441 89.9268 34.7758C90.1903 34.8252 90.4538 34.7758 90.8326 34.7758L89.581 37.5754L85.7604 46.1719C85.5627 46.6165 85.2828 46.7318 84.8875 46.6494C84.41 46.5506 83.7842 46.9788 83.4548 46.2542C81.7915 42.4994 80.1282 38.7556 78.4649 35.0228C78.4513 34.9747 78.4458 34.9246 78.4484 34.8746C78.4978 34.8417 78.5308 34.8087 78.5637 34.8087C80.1941 34.7429 80.1941 34.7429 80.8528 36.225L84.5746 44.5415ZM42.7122 34.7923H45.6107C46.2035 34.7758 46.5823 35.0228 46.5988 35.5992C46.6152 36.1756 46.22 36.4226 45.6271 36.4062C44.7049 36.3897 43.7827 36.4062 42.7781 36.4062V46.6165H41.0654V36.5379C40.3902 36.1921 39.0892 36.8673 39.1716 35.5333C39.2374 34.43 40.3079 34.9405 41.0325 34.7264V30.1812H42.7122V34.7923ZM33.4406 34.8252H35.071V46.633H33.4406V34.8252ZM33.243 31.7127C33.2486 31.5753 33.2829 31.4405 33.3436 31.3171C33.4043 31.1937 33.4901 31.0843 33.5955 30.9959C33.7009 30.9076 33.8236 30.8422 33.9557 30.804C34.0879 30.7658 34.2265 30.7556 34.3628 30.774C34.9557 30.8399 35.285 31.2022 35.285 31.795C35.285 32.3385 34.7416 32.7502 34.1652 32.6843C33.5559 32.6185 33.2759 32.2562 33.243 31.7127Z" fill="#031123"/>
</g>
</svg>
