<svg width="122" height="80" viewBox="0 0 122 80" fill="none" xmlns="http://www.w3.org/2000/svg">
<mask id="mask0" mask-type="alpha" maskUnits="userSpaceOnUse" x="0" y="0" width="122" height="80">
<rect width="122" height="80" fill="white"/>
</mask>
<g mask="url(#mask0)">
<path d="M48.1545 57.5255C57.6282 57.5255 65.3091 49.7964 65.3091 40.2627C65.3091 30.7291 57.6273 23 48.1545 23C38.68 23 31 30.7291 31 40.2627C31 49.7964 38.68 57.5255 48.1545 57.5255Z" fill="#EA5045"/>
<path d="M73.8455 57.5255C83.32 57.5255 91 49.7964 91 40.2627C91 30.7291 83.32 23 73.8455 23C64.3718 23 56.6909 30.7291 56.6909 40.2627C56.6909 49.7964 64.3718 57.5255 73.8455 57.5255Z" fill="#4E55A2"/>
<path d="M49.607 39.5018C49.215 39.8954 48.995 40.4282 48.995 40.9837C48.995 41.5391 49.215 42.0719 49.607 42.4655C49.7985 42.6621 50.0276 42.8183 50.2805 42.925C50.5334 43.0317 50.8052 43.0867 51.0797 43.0867C51.3542 43.0867 51.6259 43.0317 51.8789 42.925C52.1318 42.8183 52.3608 42.6621 52.5524 42.4655H52.5915L53.467 43.3473V43.3864C53.1548 43.7029 52.7831 43.9544 52.3732 44.1264C51.9632 44.2983 51.5233 44.3873 51.0788 44.3882C50.6343 44.3873 50.1943 44.2983 49.7844 44.1264C49.3745 43.9544 49.0027 43.7029 48.6906 43.3864C48.0596 42.7459 47.7059 41.8828 47.7059 40.9837C47.7059 40.0845 48.0596 39.2215 48.6906 38.5809C49.0027 38.2644 49.3745 38.0129 49.7844 37.841C50.1943 37.669 50.6343 37.58 51.0788 37.5791C51.5233 37.58 51.9632 37.669 52.3732 37.841C52.7831 38.0129 53.1548 38.2644 53.467 38.5809V38.6209L52.5915 39.5018H52.5515C52.3599 39.3052 52.1309 39.149 51.878 39.0423C51.625 38.9356 51.3533 38.8806 51.0788 38.8806C50.8043 38.8806 50.5325 38.9356 50.2796 39.0423C50.0267 39.149 49.7976 39.3052 49.606 39.5018H49.607ZM37.507 40.3437H38.8797C39.0588 40.3437 39.1979 40.2628 39.3379 40.1228C39.517 39.9428 39.5961 39.7228 39.5961 39.4418C39.5961 39.1818 39.517 38.9418 39.3379 38.7609C39.1988 38.6209 39.0397 38.5409 38.8797 38.5409H36.6115V44.4291H35.3179V37.62C35.3179 37.4991 35.4179 37.42 35.517 37.42H38.8806C39.417 37.42 39.8951 37.56 40.2733 37.82C40.6115 38.06 40.8306 38.3809 40.9497 38.7809C41.0688 39.1618 41.0497 39.5418 40.9297 39.9228C40.7933 40.3026 40.5432 40.6311 40.2133 40.8637C40.6315 41.0446 40.9497 41.3446 41.1488 41.7655C41.3279 42.1455 41.367 42.5464 41.2879 42.9664C41.1879 43.3873 40.9697 43.7482 40.6315 44.0082C40.2533 44.3082 39.7751 44.4682 39.1788 44.4682H36.7306L37.3079 43.3073H39.1788C39.3579 43.3073 39.497 43.2273 39.6361 43.0873C39.8151 42.9064 39.8951 42.6864 39.8951 42.4055C39.8951 42.1455 39.8151 41.9055 39.6361 41.7255C39.497 41.5846 39.3379 41.5046 39.1788 41.5046H36.9297L37.507 40.3437ZM57.2888 40.3437C57.627 40.3437 57.8451 40.4437 57.9651 40.6646C58.0842 40.8846 58.1442 41.1846 58.1242 41.5855H56.1742C55.836 41.5855 55.617 41.4855 55.497 41.2655C55.3779 41.0446 55.3179 40.7446 55.3379 40.3437H57.2888ZM47.1788 37.56V38.8809H45.0297C45.0297 38.8809 45.3279 39.0809 45.3279 39.2418V44.3891H44.0142V38.9018H41.9251V37.82C41.9251 37.82 41.9251 37.58 42.1633 37.58C42.2833 37.56 47.1788 37.56 47.1788 37.56ZM71.3379 39.7028C71.556 39.4628 71.796 39.2628 72.0542 39.1218C72.3498 38.9721 72.6774 38.8966 73.0088 38.9018C73.2879 38.9018 73.547 38.9618 73.786 39.0818C74.0242 39.2028 74.2233 39.3818 74.4024 39.6028C74.5815 39.8228 74.7015 40.1028 74.8006 40.4437C74.9006 40.7846 74.9397 41.1446 74.9397 41.5855C74.9397 41.9664 74.8806 42.3464 74.7806 42.6673C74.6806 43.0073 74.5224 43.2873 74.3233 43.5282C74.1299 43.7644 73.8933 43.9615 73.626 44.1091C73.3415 44.2479 73.0279 44.3164 72.7115 44.3091C72.4124 44.3091 72.1733 44.2691 71.9751 44.1691C71.7662 44.08 71.5768 43.9506 71.4179 43.7882V45.9309H70.1633V39.0018H70.9197C71.0788 39.0018 71.1788 39.0818 71.2379 39.2228L71.3379 39.7028ZM71.3979 42.8664C71.537 43.0482 71.696 43.1673 71.8551 43.2282C72.0142 43.3082 72.2133 43.3282 72.3924 43.3282C72.5715 43.3282 72.7506 43.2882 72.9106 43.2282C73.0615 43.1549 73.1913 43.0445 73.2879 42.9073C73.3879 42.7673 73.467 42.5864 73.527 42.3464C73.587 42.1264 73.607 41.8655 73.607 41.5655C73.607 41.2655 73.587 41.0046 73.527 40.7837C73.4949 40.5959 73.4203 40.4181 73.3088 40.2637C73.2261 40.1387 73.108 40.0413 72.9697 39.9837C72.8323 39.9199 72.683 39.8858 72.5315 39.8837C72.2733 39.8837 72.0542 39.9437 71.8751 40.0437C71.6794 40.169 71.5048 40.3246 71.3579 40.5046V42.8673H71.3979V42.8664ZM68.6915 37.2382V44.2273H67.4379V38.26C67.4379 37.9391 67.557 37.6991 67.776 37.4982C67.9951 37.3382 68.3133 37.2382 68.6915 37.2382ZM86.0451 39.4018C86.4624 39.7818 86.6615 40.3428 86.6615 41.0837V44.1673H85.507V43.5273C85.3479 43.7673 85.1488 43.9273 84.8706 44.0473C84.5915 44.1682 84.2533 44.2282 83.8551 44.2282C83.4579 44.2282 83.1188 44.1682 82.8206 44.0282C82.5466 43.9089 82.3121 43.7145 82.1442 43.4673C81.9847 43.2232 81.9015 42.9371 81.9051 42.6455C81.9051 42.1655 82.0842 41.7846 82.4233 41.5046C82.7806 41.2237 83.3179 41.0837 84.0742 41.0837H85.4279V41.0237C85.4279 40.6628 85.3079 40.3628 85.0897 40.1828C84.8706 39.9828 84.5515 39.8828 84.1142 39.8828C83.816 39.8828 83.537 39.9218 83.2388 40.0228C82.9804 40.1085 82.7383 40.237 82.5224 40.4028L82.0442 39.5018C82.3372 39.2712 82.6769 39.1071 83.0397 39.0209C83.4179 38.9009 83.836 38.8609 84.2733 38.8609C85.0497 38.8409 85.646 39.0409 86.0442 39.4018H86.0451ZM84.9297 43.1464C85.1613 43.0114 85.3378 42.7989 85.4279 42.5464V41.9246H84.1542C83.4379 41.9246 83.0997 42.1655 83.0997 42.6255C83.0997 42.8464 83.1788 43.0255 83.3579 43.1664C83.537 43.3064 83.776 43.3664 84.0942 43.3664C84.4124 43.3464 84.6915 43.2864 84.9306 43.1464H84.9297ZM62.4224 37.4591C62.4224 37.4591 62.5024 37.2191 62.6615 37.2191H63.696C63.8551 37.2191 63.9351 37.4591 63.9351 37.4591L66.2442 44.2082H64.8506C64.8506 44.2082 64.5124 43.2264 64.4924 43.1264C64.4524 42.9664 64.6515 42.7464 64.6515 42.7464L61.9651 43.2064L61.666 44.2082H60.2542L62.4233 37.4591H62.4224ZM63.776 41.5646C63.9351 41.5046 63.8551 41.2446 63.8551 41.2446L63.2188 39.1809L62.4024 41.7846C62.3833 41.7846 63.696 41.5846 63.7751 41.5646H63.776ZM77.3879 37.2582C77.0297 37.2582 76.7515 37.3382 76.5324 37.5182C76.3133 37.6982 76.1933 37.9591 76.1933 38.2791V44.2273H77.3879V37.2582Z" fill="white"/>
<path d="M80.4918 40.0818C80.4127 39.8409 80.3127 39.6209 80.1536 39.46C80.0086 39.2774 79.8157 39.1389 79.5963 39.06C79.3781 38.96 79.119 38.92 78.8399 38.92C78.5218 38.92 78.2236 38.98 77.9854 39.1C77.7654 39.2 77.5672 39.34 77.3872 39.5V40.3818C77.5247 40.2403 77.6867 40.1248 77.8654 40.0409C78.0558 39.9431 78.2678 39.895 78.4818 39.9009C78.7808 39.9009 78.9999 39.9809 79.139 40.1609C79.2781 40.3418 79.3572 40.5818 79.3572 40.9027V44.2263H80.6118V40.8827C80.6125 40.6109 80.572 40.3406 80.4918 40.0809V40.0818Z" fill="white"/>
</g>
</svg>
