<svg width="122" height="80" viewBox="0 0 122 80" fill="none" xmlns="http://www.w3.org/2000/svg">
<mask id="mask0" mask-type="alpha" maskUnits="userSpaceOnUse" x="0" y="0" width="122" height="80">
<rect width="122" height="80" fill="white"/>
</mask>
<g mask="url(#mask0)">
<path d="M44.8533 36.8479H37.3322V27H32V52.7895H37.3322V42.9416H44.8533V52.7895H50.1855V27H44.8533V36.8479Z" fill="#02EAD0"/>
<path d="M61.4438 30.7376C56.1148 30.7376 51.7949 35.6745 51.7949 41.7626C51.7949 47.8508 56.1164 52.7895 61.4438 52.7895C66.7727 52.7895 71.091 47.8526 71.091 41.7626C71.091 35.6726 66.7727 30.7376 61.4438 30.7376ZM61.4438 46.6276C59.092 46.6276 57.1867 44.4503 57.1867 41.7626C57.1867 39.075 59.0936 36.8976 61.4438 36.8976C63.7955 36.8976 65.7008 39.075 65.7008 41.7626C65.7008 44.4503 63.7955 46.6276 61.4438 46.6276Z" fill="#02EAD0"/>
<path d="M82.3525 30.7376C77.0235 30.7376 72.7036 35.6745 72.7036 41.7626C72.7036 47.8508 77.0251 52.7895 82.3525 52.7895C87.6814 52.7895 91.9997 47.8526 91.9997 41.7626C91.9997 35.6726 87.6814 30.7376 82.3525 30.7376ZM82.3525 46.6276C80.0007 46.6276 78.0954 44.4503 78.0954 41.7626C78.0954 39.075 80.0007 36.8976 82.3525 36.8976C84.7026 36.8976 86.6095 39.075 86.6095 41.7626C86.6095 44.4503 84.7042 46.6276 82.3525 46.6276Z" fill="#02EAD0"/>
</g>
</svg>
