<svg width="122" height="80" viewBox="0 0 122 80" fill="none" xmlns="http://www.w3.org/2000/svg">
<mask id="mask0" mask-type="alpha" maskUnits="userSpaceOnUse" x="0" y="0" width="122" height="80">
<rect width="122" height="80" fill="white"/>
</mask>
<g mask="url(#mask0)">
<path fill-rule="evenodd" clip-rule="evenodd" d="M107.255 35.0084V46.2937C107.255 46.6324 107.537 46.907 107.885 46.907H109V35.6217C109 35.283 108.718 35.0084 108.369 35.0084H107.255Z" fill="#1D2143"/>
<path fill-rule="evenodd" clip-rule="evenodd" d="M101.199 42.5832H103.854V40.6377H101.199V42.5832ZM103.855 38.9545H101.199V36.0823C101.199 35.7449 100.921 35.4714 100.578 35.4714H99.4736V43.5115C99.4736 43.8488 99.7516 44.1224 100.095 44.1224H104.959C105.302 44.1224 105.58 43.8488 105.58 43.5115V36.0823C105.58 35.7449 105.302 35.4714 104.959 35.4714H103.855V38.9545Z" fill="#1D2143"/>
<path fill-rule="evenodd" clip-rule="evenodd" d="M89.8347 38.9112C89.8347 37.8909 90.6061 37.1214 91.6286 37.1214H93.0701C94.0932 37.1214 94.8643 37.8909 94.8643 38.9112C94.8643 39.9316 94.0932 40.701 93.0701 40.701H91.6286C90.6061 40.701 89.8347 39.9316 89.8347 38.9112ZM96.8695 44.5774H93.2327V42.3369C95.1011 42.1937 96.4746 40.7703 96.4746 38.9112C96.4746 36.9502 94.9477 35.4714 92.9225 35.4714H91.7673C89.7476 35.4714 88.2244 36.9502 88.2244 38.9112C88.2244 40.773 89.5986 42.1978 91.4663 42.3372V44.5774H86.752V45.0876C86.752 45.6778 87.235 46.1579 87.8292 46.1579H97.9474V45.6471C97.9474 45.0572 97.4637 44.5774 96.8695 44.5774Z" fill="#121838"/>
<path fill-rule="evenodd" clip-rule="evenodd" d="M75.0479 43.1046V44.0442C75.0479 44.3856 75.3308 44.6624 75.6798 44.6624H79.7621V46.0485C79.7621 46.3899 80.0451 46.6667 80.394 46.6667H81.5291V44.6624H86.2433V43.7228C86.2433 43.3814 85.9603 43.1046 85.6113 43.1046H75.0479Z" fill="#1D2143"/>
<path fill-rule="evenodd" clip-rule="evenodd" d="M78.8932 40.0515C78.8932 39.4851 79.388 39.0743 80.0696 39.0743H81.2238C81.9057 39.0743 82.4002 39.4851 82.4002 40.0515C82.4002 40.6174 81.9057 41.0283 81.2238 41.0283H80.0696C79.388 41.0283 78.8932 40.6174 78.8932 40.0515ZM80.1806 37.5069C78.4156 37.5069 77.0845 38.6006 77.0845 40.0515C77.0845 41.5019 78.4156 42.5957 80.1806 42.5957H81.1054C82.8749 42.5957 84.2088 41.5019 84.2088 40.0515C84.2088 38.6006 82.8749 37.5069 81.1054 37.5069H80.1806Z" fill="#1D2143"/>
<path fill-rule="evenodd" clip-rule="evenodd" d="M84.6001 35.75H81.5189V35.4136C81.5189 35.1052 81.239 34.9624 80.8935 34.9624H79.7712V35.75H76.0649V36.4397C76.0649 36.7481 76.3448 36.9979 76.69 36.9979H85.2248V36.3086C85.2248 36.0002 84.9449 35.75 84.6001 35.75Z" fill="#1D2143"/>
<path fill-rule="evenodd" clip-rule="evenodd" d="M67.9825 46.6667H69.4506V38.6296C69.4506 38.2906 69.197 38.0157 68.8831 38.0157H67.415V46.0532C67.415 46.3922 67.669 46.6667 67.9825 46.6667Z" fill="#2596E0"/>
<path fill-rule="evenodd" clip-rule="evenodd" d="M68.6872 37.5068C69.3898 37.5068 69.9595 36.9371 69.9595 36.2346C69.9595 35.5321 69.3898 34.9624 68.6872 34.9624C67.9847 34.9624 67.415 35.5321 67.415 36.2346C67.415 36.9371 67.9847 37.5068 68.6872 37.5068Z" fill="#2596E0"/>
<path fill-rule="evenodd" clip-rule="evenodd" d="M63.7422 42.9914C63.7422 44.0474 62.8757 44.7502 61.8167 44.7502C60.758 44.7502 59.8911 44.0474 59.8911 42.9914V41.4846C59.8911 40.4285 60.758 39.7254 61.8167 39.7254C62.8757 39.7254 63.7422 40.4285 63.7422 41.4846V42.9914ZM61.8167 37.8092C61.1172 37.8092 60.457 37.9649 59.8802 38.2476V35.5557C59.8802 35.2282 59.614 34.9624 59.2852 34.9624H57.7456V42.8466C57.7456 45.0794 59.5776 46.6667 61.8167 46.6667C64.0558 46.6667 65.8877 45.0794 65.8877 42.8466V41.6389C65.8877 39.4061 64.0558 37.8092 61.8167 37.8092Z" fill="#2596E0"/>
<path fill-rule="evenodd" clip-rule="evenodd" d="M54.0748 42.866C54.0748 43.9581 53.2082 44.6849 52.1492 44.6849C51.0905 44.6849 50.2236 43.9581 50.2236 42.866V41.3077C50.2236 40.2156 51.0905 39.4884 52.1492 39.4884C53.2082 39.4884 54.0748 40.2156 54.0748 41.3077V42.866ZM52.1495 37.5069H52.1492C49.9101 37.5069 48.0781 39.1583 48.0781 41.4673V42.7162C48.0781 45.0252 49.9101 46.6668 52.1492 46.6668H52.1495C54.3883 46.6668 56.2203 45.0252 56.2203 42.7162V41.4673C56.2203 39.1583 54.3883 37.5069 52.1495 37.5069Z" fill="#121838"/>
<path fill-rule="evenodd" clip-rule="evenodd" d="M44.3508 37.5069V43.1869C44.3508 43.7025 44.0888 44.1919 43.644 44.4503C42.4019 45.171 41.1168 44.2704 41.1168 43.0835V38.1208C41.1168 37.7819 40.8432 37.5069 40.5058 37.5069H38.9175V43.2862C38.9175 45.1454 40.4324 46.6668 42.2837 46.6668H43.1839C45.0358 46.6668 46.5507 45.1454 46.5507 43.2862V38.1208C46.5507 37.7819 46.2768 37.5069 45.9391 37.5069H44.3511H44.3508Z" fill="#121838"/>
<path fill-rule="evenodd" clip-rule="evenodd" d="M35.1761 34.9624V39.6008H30.4447V35.5638C30.4447 35.2318 30.1682 34.9624 29.8272 34.9624H28.2305V46.0654C28.2305 46.3973 28.507 46.6667 28.8477 46.6667H30.4447V41.4861H35.1761V46.0654C35.1761 46.3973 35.4527 46.6667 35.7937 46.6667H37.3904V35.5638C37.3904 35.2318 37.1138 34.9624 36.7732 34.9624H35.1761Z" fill="#121838"/>
<path fill-rule="evenodd" clip-rule="evenodd" d="M23.5899 37.5179C23.5709 37.506 23.5446 37.4975 23.5263 37.5263C23.4759 38.0901 22.8625 39.296 22.0851 40.4032C19.4479 44.1593 20.9507 45.9696 21.7957 46.942C22.2863 47.5068 21.7957 46.942 23.0218 46.3653C23.1178 46.3199 25.4145 45.1107 25.6634 42.3558C25.9042 39.688 24.1975 38.0064 23.5899 37.5179Z" fill="#2596E0"/>
<path fill-rule="evenodd" clip-rule="evenodd" d="M21.7299 35.9566C21.7299 33.6441 20.6307 31.6559 19.7945 31.0083C19.7912 31.006 19.7309 30.9712 19.7358 31.0637C19.7358 31.0651 19.7345 31.0654 19.7345 31.0664C19.665 35.5313 17.4395 36.7412 16.2161 38.3714C13.3924 42.133 16.0183 46.2574 18.6923 47.0194C20.1887 47.446 18.3469 46.2648 18.1099 43.7699C17.8229 40.7545 21.7299 38.4528 21.7299 35.9566Z" fill="#1D2143"/>
</g>
</svg>
