<svg width="122" height="80" viewBox="0 0 122 80" fill="none" xmlns="http://www.w3.org/2000/svg">
<mask id="mask0" mask-type="alpha" maskUnits="userSpaceOnUse" x="-1" y="-1" width="124" height="82">
<rect width="122" height="80" fill="white" stroke="white" stroke-width="0.5"/>
</mask>
<g mask="url(#mask0)">
<path d="M12.4788 47.0234H12.1182V49.4164H12.4788V47.0234Z" fill="#CDCAC6"/>
<path d="M14.3374 49.4164V46.8625L16.0832 48.6859V47.0234H16.4438V49.5625L14.698 47.7409V49.4164H14.3374Z" fill="#CDCAC6"/>
<path d="M18.2988 49.4164V47.0234H18.8C19.0404 47.0234 19.2309 47.0474 19.3696 47.0955C19.5194 47.1417 19.6544 47.2213 19.7764 47.3322C20.0242 47.5578 20.1463 47.8537 20.1463 48.2199C20.1463 48.5879 20.0168 48.8856 19.7598 49.1131C19.6303 49.2278 19.4953 49.3054 19.3548 49.3498C19.2216 49.3942 19.0349 49.4164 18.7926 49.4164H18.2988ZM18.6594 49.078H18.8222C18.9849 49.078 19.1181 49.0613 19.2272 49.0262C19.3344 48.9892 19.4325 48.9337 19.5194 48.8542C19.6969 48.6915 19.7857 48.4806 19.7857 48.2199C19.7857 47.9573 19.6969 47.7446 19.5231 47.5819C19.3659 47.4358 19.131 47.3637 18.824 47.3637H18.6613V49.078H18.6594Z" fill="#CDCAC6"/>
<path d="M21.7661 48.2088C21.7661 47.8722 21.89 47.5819 22.136 47.3415C22.3819 47.0992 22.676 46.979 23.0218 46.979C23.3621 46.979 23.6543 47.1011 23.8984 47.3452C24.1443 47.5893 24.2664 47.8815 24.2664 48.2236C24.2664 48.5676 24.1425 48.8598 23.8984 49.0983C23.6524 49.3387 23.3528 49.4589 23.0052 49.4589C22.6963 49.4589 22.4189 49.3517 22.173 49.1372C21.9011 48.9023 21.7661 48.5935 21.7661 48.2088ZM22.1304 48.2143C22.1304 48.4788 22.2192 48.697 22.3967 48.8672C22.5724 49.0373 22.7777 49.1224 23.0089 49.1224C23.2604 49.1224 23.4712 49.0354 23.645 48.8616C23.817 48.6859 23.9039 48.4714 23.9039 48.2199C23.9039 47.9647 23.8189 47.7502 23.6487 47.5782C23.4786 47.4043 23.2696 47.3174 23.02 47.3174C22.7703 47.3174 22.5613 47.4043 22.3893 47.5782C22.2155 47.7502 22.1304 47.9628 22.1304 48.2143Z" fill="#CDCAC6"/>
<path d="M26.0029 49.4164V46.8625L27.7468 48.6859V47.0234H28.1075V49.5625L26.3635 47.7409V49.4164H26.0029Z" fill="#CDCAC6"/>
<path d="M31.2829 47.3637H30.325V47.9388H31.257V48.2772H30.325V49.078H31.2829V49.4164H29.9644V47.0234H31.2829V47.3637Z" fill="#CDCAC6"/>
<path d="M34.3933 47.3803L34.1011 47.5541C34.0457 47.4598 33.9939 47.3969 33.944 47.3692C33.8922 47.3359 33.8256 47.3193 33.7442 47.3193C33.6444 47.3193 33.5611 47.3489 33.4946 47.4043C33.428 47.4598 33.3947 47.5301 33.3947 47.6152C33.3947 47.7317 33.4816 47.826 33.6555 47.8981L33.894 47.9961C34.0882 48.0738 34.2306 48.17 34.3194 48.2828C34.4081 48.3956 34.4544 48.5343 34.4544 48.6989C34.4544 48.9189 34.3804 49.1002 34.2343 49.2444C34.0864 49.3887 33.9033 49.4608 33.6832 49.4608C33.4761 49.4608 33.3041 49.3998 33.1691 49.2758C33.0359 49.1538 32.9527 48.98 32.9194 48.7562L33.2856 48.6748C33.3022 48.8154 33.3318 48.9134 33.3725 48.967C33.4465 49.0706 33.5556 49.1224 33.698 49.1224C33.8108 49.1224 33.9033 49.0854 33.9791 49.0095C34.0531 48.9337 34.09 48.8394 34.09 48.7229C34.09 48.6767 34.0827 48.6341 34.0697 48.5953C34.0568 48.5565 34.0364 48.5213 34.0087 48.488C33.9809 48.4566 33.9458 48.4252 33.9033 48.3974C33.8607 48.3697 33.809 48.3419 33.7479 48.3161L33.5168 48.2199C33.1894 48.0812 33.0248 47.8796 33.0248 47.6133C33.0248 47.4339 33.0933 47.2823 33.2301 47.1621C33.367 47.04 33.539 46.979 33.7424 46.979C34.0216 46.9771 34.238 47.1121 34.3933 47.3803Z" fill="#CDCAC6"/>
<path d="M36.533 47.0234H36.1724V49.4164H36.533V47.0234Z" fill="#CDCAC6"/>
<path d="M39.7949 48.8357H38.7704L38.5041 49.4164H38.1157L39.2993 46.8736L40.4403 49.4164H40.0446L39.7949 48.8357ZM39.6488 48.4954L39.2937 47.6817L38.922 48.4954H39.6488Z" fill="#CDCAC6"/>
<path d="M44.2837 49.4164V47.0234H44.7867C45.0271 47.0234 45.2176 47.0474 45.3563 47.0955C45.5061 47.1417 45.6429 47.2213 45.7631 47.3322C46.011 47.5578 46.133 47.8537 46.133 48.2199C46.133 48.5879 46.0036 48.8856 45.7465 49.1131C45.617 49.2278 45.482 49.3054 45.3415 49.3498C45.2102 49.3942 45.0216 49.4164 44.7793 49.4164H44.2837ZM44.6462 49.078H44.8089C44.9716 49.078 45.1048 49.0613 45.212 49.0262C45.3193 48.9892 45.4173 48.9337 45.5042 48.8542C45.6818 48.6915 45.7705 48.4806 45.7705 48.2199C45.7705 47.9573 45.6818 47.7446 45.5079 47.5819C45.3507 47.4358 45.1159 47.3637 44.8089 47.3637H44.6462V49.078Z" fill="#CDCAC6"/>
<path d="M48.2302 47.0234H47.8696V49.4164H48.2302V47.0234Z" fill="#CDCAC6"/>
<path d="M51.3183 48.1699H52.3058V48.2495C52.3058 48.4288 52.2855 48.5879 52.2429 48.7266C52.2022 48.8542 52.132 48.9744 52.0339 49.0854C51.812 49.335 51.5291 49.4608 51.187 49.4608C50.8522 49.4608 50.5656 49.3406 50.327 49.0983C50.0885 48.856 49.9683 48.5638 49.9683 48.2236C49.9683 47.8759 50.0885 47.5819 50.3326 47.3396C50.5748 47.0973 50.8707 46.9753 51.2184 46.9753C51.4052 46.9753 51.579 47.0141 51.7418 47.0899C51.8971 47.1658 52.0487 47.2897 52.1985 47.4617L51.9415 47.7076C51.7455 47.4469 51.5069 47.3156 51.2239 47.3156C50.9706 47.3156 50.7579 47.4025 50.5859 47.5782C50.4139 47.7501 50.3289 47.9647 50.3289 48.2217C50.3289 48.488 50.4232 48.7081 50.6155 48.8801C50.7931 49.041 50.9872 49.1205 51.1962 49.1205C51.3737 49.1205 51.5328 49.0613 51.6752 48.9411C51.8157 48.819 51.8953 48.6748 51.9119 48.5065H51.3146V48.1699H51.3183Z" fill="#CDCAC6"/>
<path d="M54.4031 47.0234H54.0425V49.4164H54.4031V47.0234Z" fill="#CDCAC6"/>
<path d="M56.922 47.3637V49.4164H56.5614V47.3637H56.0103V47.0234H57.4694V47.3637H56.922Z" fill="#CDCAC6"/>
<path d="M60.3501 48.8357H59.3256L59.0593 49.4164H58.6709L59.8545 46.8736L60.9955 49.4164H60.5997L60.3501 48.8357ZM60.2021 48.4954L59.8471 47.6817L59.4754 48.4954H60.2021Z" fill="#CDCAC6"/>
<path d="M62.9373 47.0234V49.078H63.6419V49.4164H62.5767V47.0234H62.9373Z" fill="#CDCAC6"/>
<path d="M68.9331 48.8357H67.9086L67.6423 49.4164H67.2539L68.4375 46.8736L69.5785 49.4164H69.1827L68.9331 48.8357ZM68.7851 48.4954L68.4301 47.6817L68.0584 48.4954H68.7851Z" fill="#CDCAC6"/>
<path d="M72.5135 47.3803L72.2213 47.5541C72.1658 47.4598 72.114 47.3969 72.0641 47.3692C72.0123 47.3359 71.9457 47.3193 71.8643 47.3193C71.7645 47.3193 71.6813 47.3489 71.6147 47.4043C71.5481 47.4598 71.5148 47.5301 71.5148 47.6152C71.5148 47.7317 71.6017 47.826 71.7756 47.8981L72.0141 47.9961C72.2083 48.0738 72.3507 48.17 72.4395 48.2828C72.5282 48.3956 72.5745 48.5343 72.5745 48.6989C72.5745 48.9189 72.5005 49.1002 72.3544 49.2444C72.2065 49.3887 72.0234 49.4608 71.8033 49.4608C71.5962 49.4608 71.4242 49.3998 71.2892 49.2758C71.1561 49.1538 71.0728 48.98 71.0396 48.7562L71.4057 48.6748C71.4224 48.8154 71.4519 48.9134 71.4926 48.967C71.5666 49.0706 71.6757 49.1224 71.8181 49.1224C71.9309 49.1224 72.0252 49.0854 72.0992 49.0095C72.1732 48.9337 72.2102 48.8394 72.2102 48.7229C72.2102 48.6767 72.2028 48.6341 72.1898 48.5953C72.1769 48.5565 72.1565 48.5213 72.1288 48.488C72.1011 48.4566 72.0659 48.4252 72.0234 48.3974C71.9809 48.3697 71.9272 48.3419 71.868 48.3161L71.6369 48.2199C71.3096 48.0812 71.145 47.8796 71.145 47.6133C71.145 47.4339 71.2134 47.2823 71.3521 47.1621C71.4889 47.04 71.6609 46.979 71.8643 46.979C72.1417 46.9771 72.3581 47.1121 72.5135 47.3803Z" fill="#CDCAC6"/>
<path d="M75.6443 47.3803L75.3521 47.5541C75.2966 47.4598 75.2449 47.3969 75.1949 47.3692C75.1432 47.3359 75.0766 47.3193 74.9952 47.3193C74.8953 47.3193 74.8121 47.3489 74.7456 47.4043C74.679 47.4598 74.6457 47.5301 74.6457 47.6152C74.6457 47.7317 74.7326 47.826 74.9064 47.8981L75.145 47.9961C75.3392 48.0738 75.4816 48.17 75.5703 48.2828C75.6591 48.3956 75.7053 48.5343 75.7053 48.6989C75.7053 48.9189 75.6314 49.1002 75.4853 49.2444C75.3373 49.3887 75.1542 49.4608 74.9342 49.4608C74.7271 49.4608 74.5551 49.3998 74.4201 49.2758C74.2869 49.1538 74.2037 48.98 74.1704 48.7562L74.5366 48.6748C74.5532 48.8154 74.5828 48.9134 74.6235 48.967C74.6975 49.0706 74.8066 49.1224 74.949 49.1224C75.0618 49.1224 75.1561 49.0854 75.2301 49.0095C75.304 48.9337 75.341 48.8394 75.341 48.7229C75.341 48.6767 75.3336 48.6341 75.3207 48.5953C75.3077 48.5565 75.2874 48.5213 75.2597 48.488C75.2319 48.4566 75.1968 48.4252 75.1542 48.3974C75.1099 48.3697 75.0581 48.3419 74.9989 48.3161L74.7677 48.2199C74.4404 48.0812 74.2758 47.8796 74.2758 47.6133C74.2758 47.4339 74.3442 47.2823 74.4829 47.1621C74.6198 47.04 74.7918 46.979 74.9952 46.979C75.2745 46.9771 75.489 47.1121 75.6443 47.3803Z" fill="#CDCAC6"/>
<path d="M78.7438 47.3637H77.7858V47.9388H78.7179V48.2772H77.7858V49.078H78.7438V49.4164H77.4233V47.0234H78.7438V47.3637Z" fill="#CDCAC6"/>
<path d="M81.1607 47.3637V49.4164H80.8001V47.3637H80.249V47.0234H81.7081V47.3637H81.1607Z" fill="#CDCAC6"/>
<path d="M86.8956 47.3637H85.9358V47.9388H86.8679V48.2772H85.9358V49.078H86.8956V49.4164H85.5752V47.0234H86.8956V47.3637Z" fill="#CDCAC6"/>
<path d="M89.1517 48.1663L88.4933 47.0234H88.9039L89.3607 47.8352L89.8415 47.0234H90.2557L89.5659 48.1663L90.289 49.4164H89.884L89.3551 48.501L88.8096 49.4164H88.4009L89.1517 48.1663Z" fill="#CDCAC6"/>
<path d="M93.6012 47.1528V47.58C93.3922 47.4062 93.1758 47.3174 92.9539 47.3174C92.7079 47.3174 92.5008 47.4062 92.3325 47.5819C92.1624 47.7576 92.0773 47.9721 92.0773 48.2273C92.0773 48.4788 92.1624 48.6896 92.3325 48.8634C92.5008 49.0354 92.7098 49.1224 92.9557 49.1224C93.0833 49.1224 93.1906 49.102 93.2794 49.0613C93.3293 49.041 93.3811 49.0132 93.4329 48.9781C93.4865 48.943 93.542 48.9004 93.6012 48.8505V49.2851C93.394 49.4016 93.1777 49.4608 92.9502 49.4608C92.6081 49.4608 92.3159 49.3406 92.0755 49.102C91.8351 48.8616 91.7148 48.5713 91.7148 48.231C91.7148 47.9258 91.8147 47.654 92.0163 47.4154C92.2641 47.1232 92.584 46.9771 92.9779 46.9771C93.1925 46.9771 93.4014 47.0363 93.6012 47.1528Z" fill="#CDCAC6"/>
<path d="M95.7669 47.9591H96.7988V47.0234H97.1594V49.4164H96.7988V48.2994H95.7669V49.4164H95.4062V47.0234H95.7669V47.9591Z" fill="#CDCAC6"/>
<path d="M100.419 48.8357H99.3949L99.1286 49.4164H98.7402L99.9238 46.8736L101.065 49.4164H100.669L100.419 48.8357ZM100.273 48.4954L99.9183 47.6817L99.5465 48.4954H100.273Z" fill="#CDCAC6"/>
<path d="M102.648 49.4164V46.8625L104.392 48.6859V47.0234H104.752V49.5625L103.009 47.7409V49.4164H102.648Z" fill="#CDCAC6"/>
<path d="M107.863 48.1699H108.851V48.2495C108.851 48.4288 108.83 48.5879 108.788 48.7266C108.747 48.8542 108.677 48.9744 108.579 49.0854C108.357 49.335 108.074 49.4608 107.732 49.4608C107.397 49.4608 107.111 49.3406 106.872 49.0983C106.633 48.856 106.513 48.5638 106.513 48.2236C106.513 47.8759 106.635 47.5819 106.877 47.3396C107.12 47.0973 107.416 46.9753 107.763 46.9753C107.95 46.9753 108.124 47.0141 108.287 47.0899C108.442 47.1658 108.594 47.2897 108.743 47.4617L108.486 47.7076C108.29 47.4469 108.052 47.3156 107.769 47.3156C107.516 47.3156 107.303 47.4025 107.133 47.5782C106.961 47.7501 106.876 47.9647 106.876 48.2217C106.876 48.488 106.972 48.7081 107.162 48.8801C107.34 49.041 107.534 49.1205 107.743 49.1205C107.921 49.1205 108.08 49.0613 108.222 48.9411C108.363 48.819 108.442 48.6748 108.459 48.5065H107.863V48.1699Z" fill="#CDCAC6"/>
<path d="M111.909 47.3637H110.949V47.9388H111.882V48.2772H110.949V49.078H111.909V49.4164H110.589V47.0234H111.909V47.3637Z" fill="#CDCAC6"/>
<path d="M12 33.3976H15.0588V44.4103H12V33.3976ZM14.4466 34.0097H12.6121V43.7982H14.4466V34.0097ZM12.9173 42.8809C12.9173 42.6571 13.019 42.4833 13.2224 42.3613V35.4633C13.019 35.3412 12.9173 35.1619 12.9173 34.927C12.9173 34.7532 12.9764 34.6089 13.0929 34.4906C13.2095 34.3741 13.3555 34.3149 13.5294 34.3149C13.7032 34.3149 13.8475 34.3741 13.9658 34.4906C14.0823 34.6071 14.1415 34.7532 14.1415 34.927C14.1415 35.1619 14.0398 35.3394 13.8364 35.4633V42.3613C14.0398 42.4833 14.1415 42.6571 14.1415 42.8809C14.1415 43.0547 14.0823 43.199 13.9658 43.3174C13.8493 43.4339 13.7032 43.493 13.5294 43.493C13.3555 43.493 13.2113 43.4339 13.0929 43.3174C12.9764 43.199 12.9173 43.0547 12.9173 42.8809Z" fill="#0082BA"/>
<path d="M17.9641 42.9567C17.9641 42.733 18.0658 42.5591 18.2693 42.4371V34.6977H20.9323L28.8862 42.6516H30.6616V34.0855H30.0494V42.0395H29.147L21.1764 34.0855H17.659V43.874H19.4935V35.9219H20.396L28.3647 43.874H31.8821V34.4684C31.6787 34.3463 31.577 34.1688 31.577 33.9339C31.577 33.7601 31.6361 33.6158 31.7526 33.4975C31.8692 33.381 32.0153 33.3218 32.1891 33.3218C32.3629 33.3218 32.5072 33.381 32.6255 33.4975C32.742 33.614 32.8012 33.7601 32.8012 33.9339C32.8012 34.1688 32.6995 34.3463 32.4961 34.4684V44.4861H28.1206L20.1833 36.5322H20.1075V44.4861H17.0469V33.4734H21.4205L29.3578 41.4273H29.4336V33.4734H31.27V43.2637H28.6107L20.6567 35.3098H18.8832V42.4371C19.0867 42.5591 19.1884 42.733 19.1884 42.9567C19.1884 43.1306 19.1292 43.2748 19.0127 43.3932C18.8962 43.5097 18.7501 43.5688 18.5763 43.5688C18.4024 43.5688 18.2582 43.5097 18.1398 43.3932C18.0233 43.2767 17.9641 43.1306 17.9641 42.9567Z" fill="#0082BA"/>
<path d="M37.6944 41.5032C37.6944 41.3293 37.7535 41.1851 37.8701 41.0667C37.9866 40.9484 38.1327 40.891 38.3065 40.891C38.5303 40.891 38.7041 40.9928 38.8262 41.1962H44.7292C44.8716 41.1962 44.9844 41.1906 45.0657 41.1814C45.1471 41.1721 45.2081 41.1462 45.2488 41.1056C45.2895 41.0649 45.3154 41.0038 45.3246 40.9225C45.3339 40.8411 45.3394 40.7283 45.3394 40.5859V36.915C45.3394 36.6302 45.308 36.4564 45.247 36.3953C45.1859 36.3343 45.0121 36.3029 44.7273 36.3029H37.3855V42.4204H45.3394C45.6039 42.4204 45.8184 42.4075 45.9812 42.3816C46.1439 42.3557 46.2696 42.3002 46.3566 42.2133C46.4435 42.1264 46.499 42.0006 46.5249 41.8379C46.5507 41.6751 46.5637 41.4606 46.5637 41.1962V36.3029C46.5637 36.0384 46.5507 35.8239 46.5249 35.6612C46.499 35.4984 46.4435 35.3727 46.3566 35.2858C46.2696 35.1988 46.1457 35.1434 45.9812 35.1175C45.8184 35.0916 45.6039 35.0786 45.3394 35.0786H36.1631V44.2549H34.3286V33.2441H45.3413C45.9534 33.2441 46.4546 33.2903 46.8485 33.381C47.2405 33.4734 47.5531 33.6325 47.7805 33.8636C48.0099 34.0929 48.1707 34.4036 48.2614 34.7957C48.3538 35.1877 48.4001 35.6908 48.4001 36.3029V41.198C48.4001 41.8102 48.3538 42.315 48.2614 42.7126C48.1689 43.1102 48.0099 43.4246 47.7805 43.6539C47.5512 43.8832 47.2405 44.0423 46.8485 44.1292C46.4564 44.2161 45.9534 44.2586 45.3413 44.2586H37.6019C37.4798 44.4621 37.306 44.5638 37.0822 44.5638C36.9084 44.5638 36.7642 44.5046 36.6458 44.3881C36.5293 44.2716 36.4701 44.1255 36.4701 43.9517C36.4701 43.7778 36.5293 43.6336 36.6458 43.5152C36.7623 43.3987 36.9084 43.3395 37.0822 43.3395C37.306 43.3395 37.4798 43.4412 37.6019 43.6447H45.3413C45.8406 43.6447 46.2493 43.6114 46.5655 43.5448C46.8818 43.4782 47.1314 43.3543 47.3145 43.1694C47.4976 42.9863 47.6234 42.7367 47.6899 42.4204C47.7565 42.1042 47.7898 41.6973 47.7898 41.1962V36.3029C47.7898 35.8036 47.7565 35.3949 47.6899 35.0786C47.6234 34.7624 47.4994 34.5127 47.3145 34.3297C47.1314 34.1466 46.8818 34.0208 46.5655 33.9542C46.2493 33.8877 45.8406 33.8544 45.3413 33.8544H34.9407V43.6428H35.5529V34.4684H45.3413C45.7186 34.4684 46.0274 34.4906 46.2659 34.5368C46.5045 34.583 46.695 34.6736 46.8318 34.8123C46.9705 34.951 47.0612 35.1397 47.1074 35.3782C47.1536 35.6168 47.1758 35.9256 47.1758 36.3029V41.198C47.1758 41.5864 47.1536 41.8971 47.1074 42.1319C47.0612 42.3668 46.9705 42.5517 46.8318 42.6904C46.695 42.8273 46.5045 42.9197 46.2659 42.966C46.0255 43.0122 45.7186 43.0344 45.3413 43.0344H36.7753V35.6926H45.3413C45.7481 35.6926 45.9534 35.896 45.9534 36.3047V41.1999C45.9534 41.6086 45.75 41.812 45.3413 41.812H38.8262C38.7041 42.0154 38.5303 42.119 38.3065 42.119C38.1327 42.119 37.9884 42.0598 37.8701 41.9433C37.7535 41.8231 37.6944 41.677 37.6944 41.5032Z" fill="#0082BA"/>
<path d="M69.3902 41.5032C69.3902 41.3293 69.4493 41.1851 69.5659 41.0667C69.6824 40.9502 69.8285 40.891 70.0023 40.891C70.2261 40.891 70.3999 40.9927 70.522 41.1962H76.425C76.5674 41.1962 76.6802 41.1906 76.7616 41.1814C76.8429 41.1721 76.9039 41.1462 76.9446 41.1056C76.9853 41.0649 77.0112 41.0038 77.0205 40.9225C77.0297 40.8411 77.0353 40.7283 77.0353 40.5859V36.915C77.0353 36.6302 77.0057 36.4564 76.9428 36.3953C76.8818 36.3343 76.7079 36.3029 76.4231 36.3029H69.0813V42.4204H77.0353C77.2997 42.4204 77.5142 42.4075 77.677 42.3816C77.8397 42.3557 77.9655 42.3002 78.0524 42.2133C78.1393 42.1264 78.1948 42.0006 78.2207 41.8379C78.2466 41.6751 78.2595 41.4606 78.2595 41.1962V36.3029C78.2595 36.0384 78.2466 35.8239 78.2207 35.6612C78.1948 35.4984 78.1393 35.3727 78.0524 35.2858C77.9655 35.1988 77.8416 35.1434 77.677 35.1175C77.5142 35.0916 77.2997 35.0786 77.0353 35.0786H67.8589V44.2549H66.0244V33.2441H77.0371C77.6492 33.2441 78.1504 33.2903 78.5443 33.3828C78.9363 33.4753 79.247 33.6343 79.4763 33.8655C79.7057 34.0948 79.8666 34.4055 79.959 34.7975C80.0515 35.1896 80.0959 35.6926 80.0959 36.3047V41.1999C80.0959 41.812 80.0496 42.3169 79.959 42.7145C79.8666 43.1121 79.7057 43.4264 79.4763 43.6558C79.247 43.8851 78.9363 44.0441 78.5443 44.131C78.1522 44.218 77.6492 44.2605 77.0371 44.2605H69.2977C69.1756 44.4639 69.0018 44.5656 68.778 44.5656C68.6042 44.5656 68.46 44.5065 68.3416 44.3899C68.2251 44.2734 68.1659 44.1273 68.1659 43.9535C68.1659 43.7797 68.2251 43.6354 68.3416 43.5171C68.4581 43.4006 68.6042 43.3414 68.778 43.3414C69.0018 43.3414 69.1756 43.4431 69.2977 43.6465H77.0371C77.5364 43.6465 77.9451 43.6132 78.2613 43.5467C78.5776 43.4801 78.8272 43.3562 79.0103 43.1712C79.1934 42.9882 79.3192 42.7385 79.3857 42.4223C79.4523 42.106 79.4856 41.6992 79.4856 41.198V36.3029C79.4856 35.8036 79.4523 35.3949 79.3857 35.0786C79.3192 34.7624 79.1953 34.5127 79.0103 34.3297C78.8272 34.1466 78.5776 34.0208 78.2613 33.9542C77.9451 33.8877 77.5364 33.8544 77.0371 33.8544H66.6365V43.6428H67.2487V34.4684H77.0371C77.4144 34.4684 77.7232 34.4905 77.9618 34.5368C78.2022 34.583 78.3908 34.6736 78.5276 34.8123C78.6645 34.9492 78.757 35.1397 78.8032 35.3782C78.8494 35.6168 78.8716 35.9256 78.8716 36.3029V41.198C78.8716 41.5864 78.8494 41.8971 78.8032 42.1319C78.757 42.3668 78.6645 42.5517 78.5276 42.6904C78.3908 42.8273 78.2022 42.9197 77.9618 42.966C77.7213 43.0122 77.4144 43.0344 77.0371 43.0344H68.4729V35.6926H77.0371C77.4458 35.6926 77.6492 35.8979 77.6492 36.3047V41.1999C77.6492 41.6086 77.4458 41.812 77.0371 41.812H70.522C70.3999 42.0154 70.2261 42.119 70.0023 42.119C69.8285 42.119 69.6842 42.0598 69.5659 41.9433C69.4475 41.8231 69.3902 41.677 69.3902 41.5032Z" fill="#0082BA"/>
<path d="M94.7792 40.7394V42.3613C94.9827 42.4833 95.0844 42.6571 95.0844 42.8809C95.0844 43.0547 95.0252 43.199 94.9087 43.3174C94.7903 43.4339 94.6461 43.493 94.4722 43.493C94.2984 43.493 94.1542 43.4339 94.0358 43.3174C93.9175 43.2008 93.8601 43.0547 93.8601 42.8809C93.8601 42.6571 93.9618 42.4833 94.1653 42.3613V41.3515H84.9889V44.4103H81.9302V36.4564C81.9302 35.8443 81.9727 35.3431 82.0596 34.9492C82.1465 34.5571 82.3037 34.2465 82.533 34.0171C82.7624 33.7878 83.0749 33.6269 83.4744 33.5345C83.872 33.442 84.3768 33.3976 84.9889 33.3976H92.9429C93.555 33.3976 94.0561 33.4438 94.4501 33.5345C94.8421 33.6269 95.1528 33.786 95.3821 34.0171C95.6114 34.2465 95.7723 34.5571 95.8648 34.9492C95.9572 35.3412 96.0016 35.8443 96.0016 36.4564V44.4103H92.9429V42.5758H86.4277C86.3057 42.7792 86.1318 42.8809 85.9081 42.8809C85.7342 42.8809 85.59 42.8217 85.4716 42.7052C85.3551 42.5887 85.2959 42.4426 85.2959 42.2688C85.2959 42.095 85.3551 41.9507 85.4716 41.8323C85.5881 41.7158 85.7342 41.6567 85.9081 41.6567C86.1318 41.6567 86.3057 41.7584 86.4277 41.9618H93.555V43.7963H95.3895V36.4545C95.3895 35.9552 95.3562 35.5465 95.2896 35.2321C95.2231 34.9159 95.0992 34.6662 94.9142 34.4832C94.7312 34.3001 94.4815 34.1743 94.1653 34.1078C93.849 34.0412 93.4403 34.0079 92.941 34.0079H84.9871C84.4878 34.0079 84.0791 34.0412 83.7628 34.1078C83.4466 34.1743 83.197 34.2982 83.0139 34.4832C82.8308 34.6662 82.705 34.9159 82.6385 35.2321C82.5719 35.5484 82.5386 35.9571 82.5386 36.4545V43.7963H84.375V40.7394H94.7792ZM92.6377 38.5979C92.6377 38.3741 92.7394 38.2003 92.9447 38.0782V37.0685C92.9447 36.7837 92.9151 36.6099 92.8522 36.5489C92.7912 36.4878 92.6174 36.4564 92.3326 36.4564H85.6029C85.4605 36.4564 85.3477 36.4619 85.2663 36.4712C85.185 36.4823 85.1239 36.5063 85.0833 36.547C85.0426 36.5877 85.0167 36.6487 85.0056 36.7301C84.9945 36.8115 84.9908 36.9243 84.9908 37.0667V39.5133H94.1671V36.4564C94.1671 36.1919 94.1542 35.9774 94.1283 35.8147C94.1024 35.6519 94.0469 35.5262 93.96 35.4393C93.8731 35.3523 93.7473 35.2969 93.5846 35.271C93.4218 35.2451 93.2073 35.2321 92.9429 35.2321H84.9889C84.7245 35.2321 84.51 35.2451 84.3472 35.271C84.1845 35.2969 84.0587 35.3523 83.9718 35.4393C83.8849 35.5262 83.8294 35.6519 83.8035 35.8147C83.7776 35.9774 83.7647 36.1919 83.7647 36.4564V42.3613C83.9681 42.4833 84.0698 42.6571 84.0698 42.8809C84.0698 43.0547 84.0107 43.199 83.8942 43.3174C83.7776 43.4339 83.6315 43.493 83.4577 43.493C83.2839 43.493 83.1396 43.4339 83.0213 43.3174C82.9048 43.2008 82.8456 43.0547 82.8456 42.8809C82.8456 42.6571 82.9473 42.4833 83.1507 42.3613V36.4564C83.1507 36.0791 83.1729 35.7703 83.2191 35.5317C83.2654 35.2932 83.356 35.1027 83.4947 34.9658C83.6315 34.829 83.8183 34.7365 84.0532 34.6903C84.2881 34.6441 84.5987 34.6219 84.9852 34.6219H92.9392C93.3164 34.6219 93.6253 34.6441 93.8638 34.6903C94.1042 34.7365 94.2929 34.8271 94.4297 34.9658C94.5666 35.1045 94.659 35.2932 94.7053 35.5317C94.7515 35.7721 94.7737 36.0791 94.7737 36.4564V40.1273H84.3731V36.4564C84.3731 36.0495 84.5765 35.8443 84.9852 35.8443H92.9392C93.3479 35.8443 93.5513 36.0477 93.5513 36.4564V38.0782C93.7547 38.2003 93.8564 38.3741 93.8564 38.5979C93.8564 38.7717 93.7972 38.9178 93.6807 39.0343C93.5642 39.1508 93.4181 39.21 93.2443 39.21C93.0705 39.21 92.9262 39.1508 92.8079 39.0343C92.6969 38.9178 92.6377 38.7717 92.6377 38.5979Z" fill="#0082BA"/>
<path d="M108.085 39.7907C108.085 39.6169 108.144 39.4726 108.261 39.3543C108.377 39.2377 108.523 39.1786 108.697 39.1786C108.871 39.1786 109.015 39.2377 109.133 39.3543C109.25 39.4708 109.309 39.6169 109.309 39.7907C109.309 39.8628 109.304 39.9127 109.294 39.9442L112.002 42.6516L109.845 44.8079L105.47 40.4343H103.819L99.4449 44.8079L97.2886 42.6516L101.035 38.9049L97.2886 35.1582L99.443 33L102.302 35.8609C102.334 35.8516 102.383 35.8461 102.456 35.8461C102.629 35.8461 102.774 35.9053 102.892 36.0218C103.009 36.1383 103.068 36.2844 103.068 36.4582C103.068 36.6321 103.009 36.7782 102.892 36.8947C102.775 37.013 102.629 37.0703 102.456 37.0703C102.282 37.0703 102.137 37.0112 102.019 36.8947C101.903 36.7782 101.843 36.6321 101.843 36.4582C101.843 36.3769 101.849 36.3214 101.858 36.2899L99.443 33.8562L98.143 35.1563L101.89 38.903L98.143 42.6497L99.443 43.9498L103.573 39.8203H105.699L109.844 43.9498L111.144 42.6497L108.865 40.3862C108.836 40.3973 108.778 40.401 108.697 40.401C108.523 40.401 108.379 40.3418 108.261 40.2253C108.144 40.1106 108.085 39.9645 108.085 39.7907ZM109.231 35.1563C109.231 34.9825 109.291 34.8382 109.407 34.7199C109.524 34.6034 109.67 34.5442 109.844 34.5442C110.017 34.5442 110.162 34.6034 110.28 34.7199C110.397 34.8364 110.456 34.9825 110.456 35.1563C110.456 35.3301 110.397 35.4744 110.28 35.5927C110.164 35.7092 110.017 35.7684 109.844 35.7684C109.771 35.7684 109.716 35.7629 109.675 35.7536L106.234 39.21H103.297L100.009 42.5129C100.029 42.5739 100.04 42.6257 100.04 42.6664C100.04 42.8402 99.9812 42.9863 99.8647 43.1028C99.7482 43.2193 99.6021 43.2785 99.4282 43.2785C99.2544 43.2785 99.1102 43.2193 98.9918 43.1028C98.8753 42.9863 98.8161 42.8402 98.8161 42.6664C98.8161 42.4944 98.8753 42.3483 98.9918 42.2299C99.1083 42.1134 99.2544 42.0543 99.4282 42.0543C99.4689 42.0543 99.5207 42.0654 99.5817 42.0838L103.07 38.596H105.96L109.248 35.3227C109.237 35.2839 109.231 35.2284 109.231 35.1563ZM109.231 42.6516C109.231 42.5813 109.237 42.5295 109.246 42.4981L106.524 39.7611L111.144 35.1582L109.844 33.8581L105.699 37.9876H101.829L99.5965 35.7536C99.5651 35.7629 99.5152 35.7684 99.443 35.7684C99.2692 35.7684 99.1249 35.7092 99.0066 35.5927C98.8901 35.4762 98.8309 35.3301 98.8309 35.1563C98.8309 34.9825 98.8901 34.8382 99.0066 34.7199C99.1231 34.6034 99.2692 34.5442 99.443 34.5442C99.6169 34.5442 99.7611 34.6034 99.8795 34.7199C99.9978 34.8364 100.055 34.9825 100.055 35.1563C100.055 35.1859 100.053 35.2155 100.048 35.2395C100.042 35.2654 100.035 35.2932 100.026 35.3246L102.106 37.3736H105.472L109.844 33L112 35.1563L107.38 39.7759L109.675 42.0709C109.736 42.0506 109.792 42.0395 109.844 42.0395C110.017 42.0395 110.162 42.0986 110.28 42.2151C110.398 42.3317 110.456 42.4778 110.456 42.6516C110.456 42.8254 110.397 42.9697 110.28 43.088C110.164 43.2045 110.017 43.2637 109.844 43.2637C109.67 43.2637 109.526 43.2045 109.407 43.088C109.291 42.9697 109.231 42.8236 109.231 42.6516Z" fill="#0082BA"/>
<path d="M12 33.3976H15.0588V44.4103H12V33.3976ZM14.4466 34.0097H12.6121V43.7982H14.4466V34.0097ZM12.9173 42.8809C12.9173 42.6571 13.019 42.4833 13.2224 42.3613V35.4633C13.019 35.3412 12.9173 35.1619 12.9173 34.927C12.9173 34.7532 12.9764 34.6089 13.0929 34.4906C13.2095 34.3741 13.3555 34.3149 13.5294 34.3149C13.7032 34.3149 13.8475 34.3741 13.9658 34.4906C14.0823 34.6071 14.1415 34.7532 14.1415 34.927C14.1415 35.1619 14.0398 35.3394 13.8364 35.4633V42.3613C14.0398 42.4833 14.1415 42.6571 14.1415 42.8809C14.1415 43.0547 14.0823 43.199 13.9658 43.3174C13.8493 43.4339 13.7032 43.493 13.5294 43.493C13.3555 43.493 13.2113 43.4339 13.0929 43.3174C12.9764 43.199 12.9173 43.0547 12.9173 42.8809Z" fill="#0082BA"/>
<path d="M17.9641 42.9567C17.9641 42.733 18.0658 42.5591 18.2693 42.4371V34.6977H20.9323L28.8862 42.6516H30.6616V34.0855H30.0494V42.0395H29.147L21.1764 34.0855H17.659V43.874H19.4935V35.9219H20.396L28.3647 43.874H31.8821V34.4684C31.6787 34.3463 31.577 34.1688 31.577 33.9339C31.577 33.7601 31.6361 33.6158 31.7526 33.4975C31.8692 33.381 32.0153 33.3218 32.1891 33.3218C32.3629 33.3218 32.5072 33.381 32.6255 33.4975C32.742 33.614 32.8012 33.7601 32.8012 33.9339C32.8012 34.1688 32.6995 34.3463 32.4961 34.4684V44.4861H28.1206L20.1833 36.5322H20.1075V44.4861H17.0469V33.4734H21.4205L29.3578 41.4273H29.4336V33.4734H31.27V43.2637H28.6107L20.6567 35.3098H18.8832V42.4371C19.0867 42.5591 19.1884 42.733 19.1884 42.9567C19.1884 43.1306 19.1292 43.2748 19.0127 43.3932C18.8962 43.5097 18.7501 43.5688 18.5763 43.5688C18.4024 43.5688 18.2582 43.5097 18.1398 43.3932C18.0233 43.2767 17.9641 43.1306 17.9641 42.9567Z" fill="#0082BA"/>
<path d="M37.6944 41.5032C37.6944 41.3293 37.7535 41.1851 37.8701 41.0667C37.9866 40.9484 38.1327 40.891 38.3065 40.891C38.5303 40.891 38.7041 40.9928 38.8262 41.1962H44.7292C44.8716 41.1962 44.9844 41.1906 45.0657 41.1814C45.1471 41.1721 45.2081 41.1462 45.2488 41.1056C45.2895 41.0649 45.3154 41.0038 45.3246 40.9225C45.3339 40.8411 45.3394 40.7283 45.3394 40.5859V36.915C45.3394 36.6302 45.308 36.4564 45.247 36.3953C45.1859 36.3343 45.0121 36.3029 44.7273 36.3029H37.3855V42.4204H45.3394C45.6039 42.4204 45.8184 42.4075 45.9812 42.3816C46.1439 42.3557 46.2696 42.3002 46.3566 42.2133C46.4435 42.1264 46.499 42.0006 46.5249 41.8379C46.5507 41.6751 46.5637 41.4606 46.5637 41.1962V36.3029C46.5637 36.0384 46.5507 35.8239 46.5249 35.6612C46.499 35.4984 46.4435 35.3727 46.3566 35.2858C46.2696 35.1988 46.1457 35.1434 45.9812 35.1175C45.8184 35.0916 45.6039 35.0786 45.3394 35.0786H36.1631V44.2549H34.3286V33.2441H45.3413C45.9534 33.2441 46.4546 33.2903 46.8485 33.381C47.2405 33.4734 47.5531 33.6325 47.7805 33.8636C48.0099 34.0929 48.1707 34.4036 48.2614 34.7957C48.3538 35.1877 48.4001 35.6908 48.4001 36.3029V41.198C48.4001 41.8102 48.3538 42.315 48.2614 42.7126C48.1689 43.1102 48.0099 43.4246 47.7805 43.6539C47.5512 43.8832 47.2405 44.0423 46.8485 44.1292C46.4564 44.2161 45.9534 44.2586 45.3413 44.2586H37.6019C37.4798 44.4621 37.306 44.5638 37.0822 44.5638C36.9084 44.5638 36.7642 44.5046 36.6458 44.3881C36.5293 44.2716 36.4701 44.1255 36.4701 43.9517C36.4701 43.7778 36.5293 43.6336 36.6458 43.5152C36.7623 43.3987 36.9084 43.3395 37.0822 43.3395C37.306 43.3395 37.4798 43.4412 37.6019 43.6447H45.3413C45.8406 43.6447 46.2493 43.6114 46.5655 43.5448C46.8818 43.4782 47.1314 43.3543 47.3145 43.1694C47.4976 42.9863 47.6234 42.7367 47.6899 42.4204C47.7565 42.1042 47.7898 41.6973 47.7898 41.1962V36.3029C47.7898 35.8036 47.7565 35.3949 47.6899 35.0786C47.6234 34.7624 47.4994 34.5127 47.3145 34.3297C47.1314 34.1466 46.8818 34.0208 46.5655 33.9542C46.2493 33.8877 45.8406 33.8544 45.3413 33.8544H34.9407V43.6428H35.5529V34.4684H45.3413C45.7186 34.4684 46.0274 34.4906 46.2659 34.5368C46.5045 34.583 46.695 34.6736 46.8318 34.8123C46.9705 34.951 47.0612 35.1397 47.1074 35.3782C47.1536 35.6168 47.1758 35.9256 47.1758 36.3029V41.198C47.1758 41.5864 47.1536 41.8971 47.1074 42.1319C47.0612 42.3668 46.9705 42.5517 46.8318 42.6904C46.695 42.8273 46.5045 42.9197 46.2659 42.966C46.0255 43.0122 45.7186 43.0344 45.3413 43.0344H36.7753V35.6926H45.3413C45.7481 35.6926 45.9534 35.896 45.9534 36.3047V41.1999C45.9534 41.6086 45.75 41.812 45.3413 41.812H38.8262C38.7041 42.0154 38.5303 42.119 38.3065 42.119C38.1327 42.119 37.9884 42.0598 37.8701 41.9433C37.7535 41.8231 37.6944 41.677 37.6944 41.5032Z" fill="#0082BA"/>
<path d="M69.3902 41.5032C69.3902 41.3293 69.4493 41.1851 69.5659 41.0667C69.6824 40.9502 69.8285 40.891 70.0023 40.891C70.2261 40.891 70.3999 40.9927 70.522 41.1962H76.425C76.5674 41.1962 76.6802 41.1906 76.7616 41.1814C76.8429 41.1721 76.9039 41.1462 76.9446 41.1056C76.9853 41.0649 77.0112 41.0038 77.0205 40.9225C77.0297 40.8411 77.0353 40.7283 77.0353 40.5859V36.915C77.0353 36.6302 77.0057 36.4564 76.9428 36.3953C76.8818 36.3343 76.7079 36.3029 76.4231 36.3029H69.0813V42.4204H77.0353C77.2997 42.4204 77.5142 42.4075 77.677 42.3816C77.8397 42.3557 77.9655 42.3002 78.0524 42.2133C78.1393 42.1264 78.1948 42.0006 78.2207 41.8379C78.2466 41.6751 78.2595 41.4606 78.2595 41.1962V36.3029C78.2595 36.0384 78.2466 35.8239 78.2207 35.6612C78.1948 35.4984 78.1393 35.3727 78.0524 35.2858C77.9655 35.1988 77.8416 35.1434 77.677 35.1175C77.5142 35.0916 77.2997 35.0786 77.0353 35.0786H67.8589V44.2549H66.0244V33.2441H77.0371C77.6492 33.2441 78.1504 33.2903 78.5443 33.3828C78.9363 33.4753 79.247 33.6343 79.4763 33.8655C79.7057 34.0948 79.8666 34.4055 79.959 34.7975C80.0515 35.1896 80.0959 35.6926 80.0959 36.3047V41.1999C80.0959 41.812 80.0496 42.3169 79.959 42.7145C79.8666 43.1121 79.7057 43.4264 79.4763 43.6558C79.247 43.8851 78.9363 44.0441 78.5443 44.131C78.1522 44.218 77.6492 44.2605 77.0371 44.2605H69.2977C69.1756 44.4639 69.0018 44.5656 68.778 44.5656C68.6042 44.5656 68.46 44.5065 68.3416 44.3899C68.2251 44.2734 68.1659 44.1273 68.1659 43.9535C68.1659 43.7797 68.2251 43.6354 68.3416 43.5171C68.4581 43.4006 68.6042 43.3414 68.778 43.3414C69.0018 43.3414 69.1756 43.4431 69.2977 43.6465H77.0371C77.5364 43.6465 77.9451 43.6132 78.2613 43.5467C78.5776 43.4801 78.8272 43.3562 79.0103 43.1712C79.1934 42.9882 79.3192 42.7385 79.3857 42.4223C79.4523 42.106 79.4856 41.6992 79.4856 41.198V36.3029C79.4856 35.8036 79.4523 35.3949 79.3857 35.0786C79.3192 34.7624 79.1953 34.5127 79.0103 34.3297C78.8272 34.1466 78.5776 34.0208 78.2613 33.9542C77.9451 33.8877 77.5364 33.8544 77.0371 33.8544H66.6365V43.6428H67.2487V34.4684H77.0371C77.4144 34.4684 77.7232 34.4905 77.9618 34.5368C78.2022 34.583 78.3908 34.6736 78.5276 34.8123C78.6645 34.9492 78.757 35.1397 78.8032 35.3782C78.8494 35.6168 78.8716 35.9256 78.8716 36.3029V41.198C78.8716 41.5864 78.8494 41.8971 78.8032 42.1319C78.757 42.3668 78.6645 42.5517 78.5276 42.6904C78.3908 42.8273 78.2022 42.9197 77.9618 42.966C77.7213 43.0122 77.4144 43.0344 77.0371 43.0344H68.4729V35.6926H77.0371C77.4458 35.6926 77.6492 35.8979 77.6492 36.3047V41.1999C77.6492 41.6086 77.4458 41.812 77.0371 41.812H70.522C70.3999 42.0154 70.2261 42.119 70.0023 42.119C69.8285 42.119 69.6842 42.0598 69.5659 41.9433C69.4475 41.8231 69.3902 41.677 69.3902 41.5032Z" fill="#0082BA"/>
<path d="M94.7792 40.7394V42.3613C94.9827 42.4833 95.0844 42.6571 95.0844 42.8809C95.0844 43.0547 95.0252 43.199 94.9087 43.3174C94.7903 43.4339 94.6461 43.493 94.4722 43.493C94.2984 43.493 94.1542 43.4339 94.0358 43.3174C93.9175 43.2008 93.8601 43.0547 93.8601 42.8809C93.8601 42.6571 93.9618 42.4833 94.1653 42.3613V41.3515H84.9889V44.4103H81.9302V36.4564C81.9302 35.8443 81.9727 35.3431 82.0596 34.9492C82.1465 34.5571 82.3037 34.2465 82.533 34.0171C82.7624 33.7878 83.0749 33.6269 83.4744 33.5345C83.872 33.442 84.3768 33.3976 84.9889 33.3976H92.9429C93.555 33.3976 94.0561 33.4438 94.4501 33.5345C94.8421 33.6269 95.1528 33.786 95.3821 34.0171C95.6114 34.2465 95.7723 34.5571 95.8648 34.9492C95.9572 35.3412 96.0016 35.8443 96.0016 36.4564V44.4103H92.9429V42.5758H86.4277C86.3057 42.7792 86.1318 42.8809 85.9081 42.8809C85.7342 42.8809 85.59 42.8217 85.4716 42.7052C85.3551 42.5887 85.2959 42.4426 85.2959 42.2688C85.2959 42.095 85.3551 41.9507 85.4716 41.8323C85.5881 41.7158 85.7342 41.6567 85.9081 41.6567C86.1318 41.6567 86.3057 41.7584 86.4277 41.9618H93.555V43.7963H95.3895V36.4545C95.3895 35.9552 95.3562 35.5465 95.2896 35.2321C95.2231 34.9159 95.0992 34.6662 94.9142 34.4832C94.7312 34.3001 94.4815 34.1743 94.1653 34.1078C93.849 34.0412 93.4403 34.0079 92.941 34.0079H84.9871C84.4878 34.0079 84.0791 34.0412 83.7628 34.1078C83.4466 34.1743 83.197 34.2982 83.0139 34.4832C82.8308 34.6662 82.705 34.9159 82.6385 35.2321C82.5719 35.5484 82.5386 35.9571 82.5386 36.4545V43.7963H84.375V40.7394H94.7792ZM92.6377 38.5979C92.6377 38.3741 92.7394 38.2003 92.9447 38.0782V37.0685C92.9447 36.7837 92.9151 36.6099 92.8522 36.5489C92.7912 36.4878 92.6174 36.4564 92.3326 36.4564H85.6029C85.4605 36.4564 85.3477 36.4619 85.2663 36.4712C85.185 36.4823 85.1239 36.5063 85.0833 36.547C85.0426 36.5877 85.0167 36.6487 85.0056 36.7301C84.9945 36.8115 84.9908 36.9243 84.9908 37.0667V39.5133H94.1671V36.4564C94.1671 36.1919 94.1542 35.9774 94.1283 35.8147C94.1024 35.6519 94.0469 35.5262 93.96 35.4393C93.8731 35.3523 93.7473 35.2969 93.5846 35.271C93.4218 35.2451 93.2073 35.2321 92.9429 35.2321H84.9889C84.7245 35.2321 84.51 35.2451 84.3472 35.271C84.1845 35.2969 84.0587 35.3523 83.9718 35.4393C83.8849 35.5262 83.8294 35.6519 83.8035 35.8147C83.7776 35.9774 83.7647 36.1919 83.7647 36.4564V42.3613C83.9681 42.4833 84.0698 42.6571 84.0698 42.8809C84.0698 43.0547 84.0107 43.199 83.8942 43.3174C83.7776 43.4339 83.6315 43.493 83.4577 43.493C83.2839 43.493 83.1396 43.4339 83.0213 43.3174C82.9048 43.2008 82.8456 43.0547 82.8456 42.8809C82.8456 42.6571 82.9473 42.4833 83.1507 42.3613V36.4564C83.1507 36.0791 83.1729 35.7703 83.2191 35.5317C83.2654 35.2932 83.356 35.1027 83.4947 34.9658C83.6315 34.829 83.8183 34.7365 84.0532 34.6903C84.2881 34.6441 84.5987 34.6219 84.9852 34.6219H92.9392C93.3164 34.6219 93.6253 34.6441 93.8638 34.6903C94.1042 34.7365 94.2929 34.8271 94.4297 34.9658C94.5666 35.1045 94.659 35.2932 94.7053 35.5317C94.7515 35.7721 94.7737 36.0791 94.7737 36.4564V40.1273H84.3731V36.4564C84.3731 36.0495 84.5765 35.8443 84.9852 35.8443H92.9392C93.3479 35.8443 93.5513 36.0477 93.5513 36.4564V38.0782C93.7547 38.2003 93.8564 38.3741 93.8564 38.5979C93.8564 38.7717 93.7972 38.9178 93.6807 39.0343C93.5642 39.1508 93.4181 39.21 93.2443 39.21C93.0705 39.21 92.9262 39.1508 92.8079 39.0343C92.6969 38.9178 92.6377 38.7717 92.6377 38.5979Z" fill="#0082BA"/>
<path d="M108.085 39.7907C108.085 39.6169 108.144 39.4726 108.261 39.3543C108.377 39.2377 108.523 39.1786 108.697 39.1786C108.871 39.1786 109.015 39.2377 109.133 39.3543C109.25 39.4708 109.309 39.6169 109.309 39.7907C109.309 39.8628 109.304 39.9127 109.294 39.9442L112.002 42.6516L109.845 44.8079L105.47 40.4343H103.819L99.4449 44.8079L97.2886 42.6516L101.035 38.9049L97.2886 35.1582L99.443 33L102.302 35.8609C102.334 35.8516 102.383 35.8461 102.456 35.8461C102.629 35.8461 102.774 35.9053 102.892 36.0218C103.009 36.1383 103.068 36.2844 103.068 36.4582C103.068 36.6321 103.009 36.7782 102.892 36.8947C102.775 37.013 102.629 37.0703 102.456 37.0703C102.282 37.0703 102.137 37.0112 102.019 36.8947C101.903 36.7782 101.843 36.6321 101.843 36.4582C101.843 36.3769 101.849 36.3214 101.858 36.2899L99.443 33.8562L98.143 35.1563L101.89 38.903L98.143 42.6497L99.443 43.9498L103.573 39.8203H105.699L109.844 43.9498L111.144 42.6497L108.865 40.3862C108.836 40.3973 108.778 40.401 108.697 40.401C108.523 40.401 108.379 40.3418 108.261 40.2253C108.144 40.1106 108.085 39.9645 108.085 39.7907ZM109.231 35.1563C109.231 34.9825 109.291 34.8382 109.407 34.7199C109.524 34.6034 109.67 34.5442 109.844 34.5442C110.017 34.5442 110.162 34.6034 110.28 34.7199C110.397 34.8364 110.456 34.9825 110.456 35.1563C110.456 35.3301 110.397 35.4744 110.28 35.5927C110.164 35.7092 110.017 35.7684 109.844 35.7684C109.771 35.7684 109.716 35.7629 109.675 35.7536L106.234 39.21H103.297L100.009 42.5129C100.029 42.5739 100.04 42.6257 100.04 42.6664C100.04 42.8402 99.9812 42.9863 99.8647 43.1028C99.7482 43.2193 99.6021 43.2785 99.4282 43.2785C99.2544 43.2785 99.1102 43.2193 98.9918 43.1028C98.8753 42.9863 98.8161 42.8402 98.8161 42.6664C98.8161 42.4944 98.8753 42.3483 98.9918 42.2299C99.1083 42.1134 99.2544 42.0543 99.4282 42.0543C99.4689 42.0543 99.5207 42.0654 99.5817 42.0838L103.07 38.596H105.96L109.248 35.3227C109.237 35.2839 109.231 35.2284 109.231 35.1563ZM109.231 42.6516C109.231 42.5813 109.237 42.5295 109.246 42.4981L106.524 39.7611L111.144 35.1582L109.844 33.8581L105.699 37.9876H101.829L99.5965 35.7536C99.5651 35.7629 99.5152 35.7684 99.443 35.7684C99.2692 35.7684 99.1249 35.7092 99.0066 35.5927C98.8901 35.4762 98.8309 35.3301 98.8309 35.1563C98.8309 34.9825 98.8901 34.8382 99.0066 34.7199C99.1231 34.6034 99.2692 34.5442 99.443 34.5442C99.6169 34.5442 99.7611 34.6034 99.8795 34.7199C99.9978 34.8364 100.055 34.9825 100.055 35.1563C100.055 35.1859 100.053 35.2155 100.048 35.2395C100.042 35.2654 100.035 35.2932 100.026 35.3246L102.106 37.3736H105.472L109.844 33L112 35.1563L107.38 39.7759L109.675 42.0709C109.736 42.0506 109.792 42.0395 109.844 42.0395C110.017 42.0395 110.162 42.0986 110.28 42.2151C110.398 42.3317 110.456 42.4778 110.456 42.6516C110.456 42.8254 110.397 42.9697 110.28 43.088C110.164 43.2045 110.017 43.2637 109.844 43.2637C109.67 43.2637 109.526 43.2045 109.407 43.088C109.291 42.9697 109.231 42.8236 109.231 42.6516Z" fill="#0082BA"/>
<path d="M64.2377 36.6616L60.835 33.257L53.4266 33.2515L50.1885 36.5692V41.3866L53.4044 44.414L60.6556 44.3197L62.9432 40.9428V37.1998L60.2969 34.5534L53.9611 34.5479L51.4756 37.2072L51.5625 40.8984L53.9611 43.088L59.9529 43.0732L61.645 40.4065V37.7379L59.7587 35.8516L54.4992 35.8461L52.833 37.7416L52.944 40.3695L54.5418 41.8379L58.442 41.8027C58.5511 41.9932 58.7564 42.1227 58.9912 42.1227C59.3408 42.1227 59.6237 41.8397 59.6237 41.4902C59.6237 41.1407 59.3408 40.8577 58.9912 40.8577C58.7231 40.8577 58.4956 41.0242 58.4031 41.259L54.8136 41.2942L53.5579 40.1162L53.4914 38.0116L54.7711 36.5026L59.485 36.5081L60.9848 38.0079V40.2493L59.5442 42.4186L54.2755 42.4629L52.2579 40.6414L52.1321 37.4753L54.2329 35.2025L60.0213 35.2081L62.2812 37.4679L62.2349 40.5914L60.3283 43.6391L53.6726 43.7519L50.8431 41.1111V36.8447L53.6948 33.9117L60.5576 33.9191L63.5794 36.9372L63.4925 41.1444L62.1961 43.1435C62.1924 43.1435 62.1868 43.1435 62.1832 43.1435C61.8336 43.1435 61.5507 43.4264 61.5507 43.776C61.5507 44.1255 61.8336 44.4084 62.1832 44.4084C62.5327 44.4084 62.8156 44.1255 62.8156 43.776C62.8156 43.6909 62.799 43.6114 62.7694 43.5374L64.1508 41.4144L64.2377 36.6616Z" fill="#0082BA"/>
</g>
</svg>
