<svg width="122" height="80" viewBox="0 0 122 80" fill="none" xmlns="http://www.w3.org/2000/svg">
<mask id="mask0" mask-type="alpha" maskUnits="userSpaceOnUse" x="-1" y="-1" width="124" height="82">
<rect width="122" height="80" fill="white" stroke="white" stroke-width="0.5"/>
</mask>
<g mask="url(#mask0)">
<path d="M47.0637 35.1634V43.1818H51L50.7518 45.0332H44.673V35.1634H47.0637ZM58.2778 45.0332L57.7525 42.9112H54.8082L54.2978 45.0326H51.8196L54.8667 35.1634H57.7673L60.8145 45.0332H58.2778ZM55.2165 41.2159H57.3443L56.2804 36.858L55.2165 41.2166V41.2159ZM68.5487 35.1634L68.3153 36.9577H65.823V45.0332H63.4315V36.9577H60.8235V35.1634H68.5493H68.5487ZM73.8908 34.9211C75.3289 34.9211 76.4462 35.3724 77.2433 36.2743C78.0501 37.1762 78.4532 38.4484 78.4532 40.0909C78.4532 41.1645 78.2687 42.0902 77.8997 42.8681C77.5397 43.6466 77.0151 44.2451 76.3247 44.6629C75.6445 45.0712 74.8333 45.2749 73.8908 45.2749C72.9478 45.2749 72.1358 45.0712 71.4563 44.6629C70.7755 44.2541 70.251 43.6659 69.8813 42.8964C69.522 42.1185 69.3426 41.1832 69.3426 40.0909C69.3426 39.0277 69.5226 38.1071 69.882 37.3279C70.251 36.5501 70.7755 35.9561 71.4563 35.5479C72.1365 35.13 72.9478 34.9211 73.8908 34.9211ZM73.8908 36.6304C73.2004 36.6304 72.6855 36.9056 72.3454 37.4565C72.015 37.9978 71.8498 38.8759 71.8498 40.0909C71.8498 41.3059 72.0195 42.1892 72.3602 42.7395C72.7003 43.2904 73.21 43.5662 73.8902 43.5662C74.5903 43.5662 75.1052 43.2956 75.4356 42.7543C75.7763 42.2034 75.946 41.3156 75.946 40.0909C75.946 38.8663 75.7757 37.9837 75.4356 37.4424C75.0956 36.9011 74.5806 36.6304 73.8908 36.6304ZM83.0882 35.1634V45.0332H80.6974V35.1634H83.0882ZM88.8906 35.1634L85.6686 39.5927L89.1529 45.0332H86.3828L83.1615 39.7637L86.3687 35.1634H88.8906ZM96.9276 35.1634L96.6801 36.8297H93.1232V39.1942H96.2282V40.8315H93.1232V43.3522H96.9276V45.0332H90.7324V35.1634H96.9276ZM107 45.0332H103.953L101.037 37.3852C101.135 38.1354 101.208 38.7994 101.257 39.3787C101.314 39.9489 101.344 40.6277 101.344 41.4152V45.0332H99.2156V35.1634H102.189L105.177 42.8257C104.964 41.5245 104.857 40.2999 104.857 39.1511V35.1634H107V45.0332ZM30.8837 40.7505H29.1094L30.5622 36.741L30.8837 40.7505Z" fill="black"/>
<path fill-rule="evenodd" clip-rule="evenodd" d="M27.5281 50.5714C33.3427 50.5714 38.0568 45.9667 38.0568 40.2857C38.0568 34.6048 33.3427 30 27.5281 30C21.7134 30 17 34.6048 17 40.2857C17 45.9667 21.7134 50.5714 27.5281 50.5714ZM23.5674 42.4817L26.8499 35.1429H24.3074L20.159 44.4H27.7962L28.4814 42.5087H31.0098L31.1634 44.4H33.8454L32.3926 35.1429H29.3197L26.0077 42.4817H23.5674Z" fill="black"/>
</g>
</svg>
