<svg width="122" height="80" viewBox="0 0 122 80" fill="none" xmlns="http://www.w3.org/2000/svg">
<mask id="mask0" mask-type="alpha" maskUnits="userSpaceOnUse" x="0" y="0" width="122" height="80">
<rect width="122" height="80" fill="white"/>
</mask>
<g mask="url(#mask0)">
<path d="M28.2711 29.9999C28.088 29.9994 27.9122 30.0717 27.7824 30.2008C27.6526 30.33 27.5795 30.5054 27.5791 30.6885V33.579C27.5798 33.8607 27.6923 34.1306 27.892 34.3292C28.0917 34.5279 28.3621 34.639 28.6438 34.6383H30.7209C31.0027 34.6375 31.2734 34.7487 31.4732 34.9474C31.6731 35.1461 31.7858 35.4161 31.7866 35.698V38.8392C31.787 39.1213 31.8994 39.3916 32.0992 39.5906C32.299 39.7896 32.5697 39.9011 32.8517 39.9004H36.01C36.5962 39.8991 37.0727 40.3729 37.0746 40.9591V43.0248C37.075 43.3067 37.1875 43.5769 37.3873 43.7758C37.5872 43.9747 37.8579 44.0859 38.1398 44.085H41.0428C41.226 44.0855 41.4019 44.0132 41.5318 43.884C41.6617 43.7548 41.7349 43.5792 41.7353 43.396V30.69C41.7352 30.5068 41.6622 30.3311 41.5325 30.2017C41.4028 30.0722 41.227 29.9997 41.0438 29.9999H28.2711ZM27.5075 43.4238V36.8323C27.5073 36.5505 27.3952 36.2804 27.1958 36.0813C26.9964 35.8823 26.726 35.7707 26.4443 35.7711H22.6925C22.5091 35.7706 22.3331 35.843 22.2031 35.9725C22.0732 36.1019 22.0001 36.2777 22 36.4611V48.9487C22.0014 49.33 22.3112 49.6383 22.6925 49.6378H35.4647C35.6479 49.6383 35.8237 49.566 35.9536 49.4367C36.0834 49.3075 36.1565 49.1319 36.1567 48.9487V45.5437C36.1561 45.2619 36.0434 44.9919 35.8437 44.7932C35.6439 44.5944 35.3733 44.4832 35.0915 44.484H28.5741C27.9874 44.4854 27.5106 44.011 27.509 43.4243L27.5075 43.4238Z" fill="#0090FF"/>
<path fill-rule="evenodd" clip-rule="evenodd" d="M70.3846 44.3625C69.4603 45.0811 68.2991 45.509 67.0381 45.509C64.0227 45.509 61.5781 43.0623 61.5781 40.0441C61.5781 37.0259 64.0227 34.5792 67.0381 34.5792C68.295 34.5792 69.5223 34.9721 70.3846 36.0227V34.5792H73.0265V49.6517H70.3846V44.3625V44.3625ZM67.2143 43.041C68.8679 43.041 70.2085 41.6992 70.2085 40.0441C70.2085 38.3889 68.8679 37.0472 67.2143 37.0472C65.5606 37.0472 64.2201 38.3889 64.2201 40.0441C64.2201 41.6992 65.5606 43.041 67.2143 43.041ZM99.3578 35.7256V35.7256V30.4364H102V45.3327H99.3578V44.0654C98.4955 45.1161 97.2682 45.509 96.0113 45.509C92.9959 45.509 90.5513 43.0623 90.5513 40.0441C90.5513 37.0259 92.9959 34.5792 96.0113 34.5792C97.2723 34.5792 98.4335 35.007 99.3578 35.7256ZM96.1875 37.0472C94.5338 37.0472 93.1933 38.3889 93.1933 40.0441C93.1933 41.6992 94.5338 43.041 96.1875 43.041C97.8411 43.041 99.1817 41.6992 99.1817 40.0441C99.1817 38.3889 97.8411 37.0472 96.1875 37.0472ZM47.2236 30.6353H50.0505V41.7367C50.0352 42.0916 50.1219 42.3635 50.3104 42.5522C50.4989 42.7409 50.7781 42.8352 51.1481 42.8352H56.6361V45.4201H50.0505C49.3224 45.4201 48.6769 45.1383 48.1138 44.5748C47.5507 44.0112 47.254 43.3204 47.2236 42.5025V30.6353ZM58.4959 30.3483H59.9049C60.1967 30.3483 60.4333 30.5848 60.4333 30.8766V32.2879C60.4333 32.5797 60.1967 32.8163 59.9049 32.8163H58.4959C58.2041 32.8163 57.9675 32.5797 57.9675 32.2879V30.8766C57.9675 30.5848 58.2041 30.3483 58.4959 30.3483ZM57.8794 34.5792H60.5214V45.4208H57.8794V34.5792ZM87.2929 30.3483H88.702C88.9938 30.3483 89.2304 30.5848 89.2304 30.8766V32.2879C89.2304 32.5797 88.9938 32.8163 88.702 32.8163H87.2929C87.0011 32.8163 86.7646 32.5797 86.7646 32.2879V30.8766C86.7646 30.5848 87.0011 30.3483 87.2929 30.3483ZM86.6765 34.5792H89.3184V45.4208H86.6765V34.5792ZM74.5677 34.5792H77.1963C77.1963 36.6295 77.1963 38.3287 77.1963 39.6768C77.1963 41.5406 77.7025 43.041 79.6929 43.041C81.6834 43.041 82.338 41.4811 82.338 39.6768C82.338 38.5669 82.338 36.8677 82.338 34.5792H84.9499V38.2624V45.2438H82.7014L82.514 43.9443C81.5889 44.9046 80.4556 45.3848 79.1139 45.3848C77.0961 45.3848 74.6653 44.4353 74.5677 40.0441C74.5677 38.3528 74.5677 36.5312 74.5677 34.5792Z" fill="#01255C"/>
</g>
</svg>
