<svg width="122" height="80" viewBox="0 0 122 80" fill="none" xmlns="http://www.w3.org/2000/svg">
<mask id="mask0" mask-type="alpha" maskUnits="userSpaceOnUse" x="0" y="0" width="122" height="80">
<rect width="122" height="80" fill="white"/>
</mask>
<g mask="url(#mask0)">
<path d="M49.3 45.5951C46.3497 45.6873 43.8144 43.3825 43.7222 40.3861C43.7222 40.2939 43.7222 40.2478 43.7222 40.1556C43.7222 37.0671 46.2114 34.5778 49.3 34.5317C52.3885 34.5317 54.8778 37.021 54.9239 40.1095V40.1556C54.9239 43.152 52.4807 45.5951 49.4844 45.5951C49.3922 45.5951 49.3461 45.5951 49.3 45.5951ZM52.4807 40.2017C52.5268 38.45 51.1439 36.9749 49.3922 36.8827C49.3461 36.8827 49.3461 36.8827 49.3 36.8827C47.5483 36.8827 46.1653 38.2656 46.1653 40.0173C46.1653 40.0634 46.1653 40.1095 46.1653 40.1556V40.2017C46.1192 41.9534 47.5022 43.4286 49.2539 43.5208C49.3 43.5208 49.3 43.5208 49.3461 43.5208C51.0978 43.5208 52.4807 42.1378 52.4807 40.3861C52.4807 40.2939 52.4807 40.2478 52.4807 40.2017Z" fill="black"/>
<path d="M65.158 45.4108V38.5422L62.2078 43.0137H62.1617L59.2114 38.5883V45.4108H56.9526V34.9005H59.4419L62.2078 39.3259L64.9736 34.9005H67.4629V45.4108H65.158Z" fill="black"/>
<path d="M75.0685 45.5952C71.7956 45.5952 69.5368 43.2903 69.5368 40.2017C69.4907 37.2054 71.8878 34.8083 74.8841 34.7622C74.9302 34.7622 75.0224 34.7622 75.0685 34.7622C76.5897 34.67 78.0649 35.1771 79.2173 36.1912L77.7422 37.9429C77.0046 37.2515 75.9905 36.8366 74.9763 36.8827C73.3168 36.8827 71.9339 38.3578 71.9339 40.1556V40.2017C71.9339 42.1378 73.2707 43.5208 75.1146 43.5208C75.8983 43.5208 76.6358 43.3364 77.2812 42.8754V41.3542H74.9763V39.372H79.54V43.9356C78.3414 45.042 76.728 45.5952 75.0685 45.5952Z" fill="black"/>
<path d="M84.0573 37.021V39.2798H89.082V41.4003H84.0573V45.4569H81.7524V34.9005H89.7734V37.021H84.0573Z" fill="black"/>
<path d="M91.7095 45.4108V34.9005H94.0144V45.4108H91.7095Z" fill="black"/>
<path d="M104.018 45.4108L98.947 38.7266V45.4108H96.6421V34.9005H98.7626L103.695 41.3542V34.9005H106V45.4108H104.018Z" fill="black"/>
<path d="M28.8791 46.3788L28.4181 46.7476L23.9927 50.2971L23.4856 50.712L23.209 50.5276C23.209 50.5276 19.9361 47.9001 18.2766 46.5632C18.1383 46.471 18 46.3327 18 46.1944C18 44.8115 18 42.0457 18 42.0457V41.9996L18.5532 41.5847L21.7339 39.0493L22.1488 38.7266C21.5034 39.9713 22.1027 41.0315 23.2551 41.9074C25.1912 43.3825 28.8791 46.3788 28.8791 46.3788Z" fill="#0059D3"/>
<path d="M39.7121 37.7586L36.5313 40.2478L35.5633 41.0315C36.0703 40.1095 35.932 39.0954 35.0562 38.4039C33.0279 36.7444 30.9074 35.0849 28.833 33.4254C29.6167 32.78 30.4003 32.1346 31.184 31.4893C32.152 30.6595 34.2264 29 34.2264 29L34.5952 29.2766C34.5952 29.2766 37.8221 31.812 39.3894 33.1027C39.5277 33.241 39.666 33.3332 39.666 33.5176C39.7121 34.9005 39.7121 37.7586 39.7121 37.7586Z" fill="#0059D3"/>
<path d="M18.0459 42.0456V41.4464C18.0459 41.4464 18.0459 36.4678 18.0459 34.0246C18.0459 33.5637 18.2303 33.1949 18.6452 32.8722C20.1664 31.6737 21.6415 30.429 23.1627 29.2305C23.3471 29.0922 23.5315 29 23.8542 29C27.1732 29 33.8113 29 33.8113 29H34.2723C34.2723 29 29.6625 32.78 28.8788 33.4254C26.6662 35.131 18.5991 41.6308 18.5991 41.6308L18.0459 42.0456Z" fill="#0A90FF"/>
<path d="M39.7124 37.7585V38.3117C39.7124 38.3117 39.7124 43.4286 39.7124 46.01C39.7124 46.2866 39.6202 46.471 39.3897 46.6554C37.7763 47.9461 36.209 49.1908 34.5956 50.4815C34.4112 50.6198 34.2268 50.7581 33.9041 50.7581C30.539 50.7581 23.8548 50.7581 23.8548 50.7581H23.4399L23.947 50.3432L28.3724 46.7937L28.8334 46.4249L29.2022 46.1022L34.4573 41.8612L35.5175 41.0315L36.4856 40.2478L39.7124 37.7585Z" fill="#0A90FF"/>
</g>
</svg>
