<svg width="122" height="80" viewBox="0 0 122 80" fill="none" xmlns="http://www.w3.org/2000/svg">
<mask id="mask0" mask-type="alpha" maskUnits="userSpaceOnUse" x="0" y="0" width="122" height="80">
<rect width="122" height="80" fill="white"/>
</mask>
<g mask="url(#mask0)">
<path d="M53.5932 30H60.4484C63.1126 30 65.6677 31.058 67.5515 32.9412C69.4354 34.8245 70.4937 37.3787 70.4937 40.042V46.895C70.494 47.2473 70.4249 47.5962 70.2903 47.9218C70.1557 48.2474 69.9583 48.5433 69.7093 48.7926C69.4604 49.042 69.1647 49.2398 68.8392 49.3748C68.5137 49.5099 68.1648 49.5796 67.8124 49.5799H61C59.675 49.5808 58.3629 49.3207 57.1386 48.8144C55.9142 48.308 54.8017 47.5654 53.8646 46.6291C52.9276 45.6927 52.1842 44.5809 51.6772 43.3572C51.1702 42.1335 50.9093 40.8219 50.9097 39.4974V32.6827C50.9097 31.9712 51.1924 31.2888 51.6956 30.7857C52.1989 30.2826 52.8815 30 53.5932 30Z" fill="#309245"/>
<mask id="mask1" mask-type="alpha" maskUnits="userSpaceOnUse" x="50" y="30" width="21" height="20">
<path d="M53.5454 30H60.4006C63.0647 30 65.6198 31.058 67.5037 32.9412C69.3876 34.8245 70.4459 37.3787 70.4459 40.042V46.895C70.4461 47.2473 70.3771 47.5962 70.2425 47.9218C70.1079 48.2474 69.9104 48.5433 69.6614 48.7926C69.4125 49.042 69.1168 49.2398 68.7913 49.3748C68.4659 49.5099 68.117 49.5796 67.7646 49.5799H60.9522C59.6272 49.5808 58.315 49.3207 57.0907 48.8144C55.8664 48.308 54.7539 47.5654 53.8168 46.6291C52.8797 45.6927 52.1364 44.5809 51.6293 43.3572C51.1223 42.1335 50.8615 40.8219 50.8618 39.4974V32.6827C50.8618 31.9712 51.1445 31.2888 51.6478 30.7857C52.1511 30.2826 52.8336 30 53.5454 30Z" fill="#0A7542"/>
</mask>
<g mask="url(#mask1)">
<path d="M63.5679 57.9704L56.7127 57.9704C54.0486 57.9704 51.4935 56.9124 49.6096 55.0291C47.7257 53.1459 46.6674 50.5917 46.6674 47.9283L46.6674 41.0754C46.6671 40.7231 46.7362 40.3742 46.8708 40.0486C47.0054 39.723 47.2029 39.4271 47.4519 39.1777C47.7008 38.9284 47.9965 38.7306 48.3219 38.5955C48.6474 38.4604 48.9963 38.3907 49.3487 38.3904L56.1611 38.3904C57.4861 38.3895 58.7982 38.6497 60.0225 39.156C61.2469 39.6624 62.3594 40.4049 63.2965 41.3413C64.2336 42.2777 64.9769 43.3895 65.484 44.6131C65.9909 45.8369 66.2518 47.1485 66.2515 48.473V55.2877C66.2515 55.9992 65.9688 56.6815 65.4655 57.1846C64.9622 57.6877 64.2796 57.9704 63.5679 57.9704Z" fill="#44A257"/>
</g>
<path fill-rule="evenodd" clip-rule="evenodd" d="M57.8185 33.6954H56.6928C56.4124 33.6954 56.1347 33.7507 55.8756 33.858C55.6165 33.9654 55.3811 34.1227 55.1829 34.3211C54.9847 34.5194 54.8275 34.7549 54.7204 35.014C54.6133 35.2731 54.5583 35.5508 54.5586 35.8312V47.237C55.5236 48.0427 56.6308 48.661 57.823 49.06V45.1238C58.3679 45.4239 58.9586 45.6405 59.5755 45.7631C60.7576 45.998 61.9829 45.8772 63.0963 45.416C64.2098 44.9548 65.1615 44.174 65.8309 43.1722C66.5005 42.1703 66.8579 40.9925 66.8579 39.7877C66.8579 38.1719 66.2158 36.6223 65.0729 35.4798C63.93 34.3373 62.3799 33.6954 60.7636 33.6954H60.7614C60.7062 33.6954 60.6511 33.6962 60.5961 33.6977H57.823V33.6954H57.8185ZM58.3148 41.4219C58.0201 40.9811 57.8507 40.4696 57.823 39.942V39.6376C57.861 38.9125 58.166 38.225 58.6821 37.7091C59.2336 37.1577 59.9813 36.8474 60.7614 36.8462C61.3433 36.8462 61.9122 37.0187 62.3961 37.3419C62.88 37.6652 63.2571 38.1245 63.4798 38.662C63.7026 39.1995 63.7608 39.7909 63.6473 40.3616C63.5337 40.9321 63.2535 41.4562 62.842 41.8677C62.4305 42.279 61.9062 42.5592 61.3354 42.6726C60.7647 42.7862 60.173 42.7279 59.6353 42.5053C59.0977 42.2826 58.6381 41.9056 58.3148 41.4219Z" fill="white"/>
<path d="M22.1608 34.1186H22.476C23.5911 34.1186 24.6117 34.5784 25.5378 35.4982C26.2502 36.2523 26.6521 37.2472 26.6634 38.2844V38.3541C26.6634 39.775 26.0165 40.9415 24.7228 41.8538C24.0178 42.309 23.196 42.5505 22.3566 42.5492H22.2779C21.5878 42.5405 20.9088 42.375 20.2922 42.0653V46.733C20.293 46.7379 20.2926 46.7429 20.291 46.7477C20.2895 46.7523 20.2869 46.7567 20.2834 46.7602C20.2798 46.7637 20.2755 46.7663 20.2708 46.7679C20.2661 46.7694 20.2611 46.7697 20.2562 46.769H18.0364C18.0315 46.7697 18.0265 46.7694 18.0218 46.7679C18.017 46.7663 18.0127 46.7637 18.0092 46.7602C18.0057 46.7567 18.0031 46.7523 18.0016 46.7477C18 46.7429 17.9996 46.7379 18.0004 46.733V38.1808C18.0004 37.1306 18.4634 36.1433 19.3894 35.2191C20.2915 34.4854 21.2152 34.1186 22.1608 34.1186ZM22.2959 36.3691H22.2148C21.5484 36.3691 20.9864 36.715 20.5286 37.4066C20.3836 37.6966 20.303 38.0144 20.2922 38.3384C20.2922 39.1066 20.6839 39.7015 21.4674 40.1231C21.7232 40.2346 21.9987 40.2944 22.2779 40.2986H22.3679C23.1183 40.2986 23.7052 39.9408 24.1284 39.2251C24.2724 38.9636 24.3497 38.6706 24.3536 38.3721V38.2844C24.3536 37.5687 23.9866 36.9948 23.2527 36.5627C23.0008 36.4439 22.7273 36.3781 22.449 36.3691H22.3589C22.3564 36.3695 22.3539 36.3693 22.3516 36.3685C22.3492 36.3678 22.3471 36.3665 22.3453 36.3647C22.3436 36.3629 22.3422 36.3608 22.3415 36.3584C22.3407 36.3561 22.3405 36.3536 22.3409 36.3511L22.2959 36.3691Z" fill="#595A5A"/>
<path d="M43.5251 34.1186H43.8402C44.9524 34.1186 45.9722 34.5784 46.8998 35.4982C47.6122 36.2523 48.0142 37.2472 48.0254 38.2844V38.3541C48.0254 39.775 47.3785 40.9415 46.0848 41.8538C45.3805 42.3088 44.5595 42.5503 43.7209 42.5492H43.6489C42.9588 42.541 42.2797 42.3755 41.6632 42.0653V46.733C41.6636 46.7378 41.6629 46.7426 41.6611 46.7472C41.6595 46.7517 41.6568 46.7558 41.6534 46.7592C41.65 46.7626 41.6459 46.7653 41.6413 46.767C41.6369 46.7686 41.632 46.7693 41.6272 46.769H39.3984C39.3936 46.7693 39.3888 46.7686 39.3842 46.767C39.3797 46.7653 39.3756 46.7626 39.3722 46.7592C39.3688 46.7558 39.3661 46.7517 39.3645 46.7472C39.3628 46.7426 39.3621 46.7378 39.3624 46.733V38.1808C39.3624 37.1306 39.8261 36.1433 40.7537 35.2191C41.6572 34.4854 42.581 34.1186 43.5251 34.1186ZM43.6602 36.3691H43.579C42.9112 36.3691 42.3484 36.715 41.8906 37.4066C41.749 37.6973 41.6723 38.0152 41.6655 38.3384C41.6655 39.1066 42.0565 39.7015 42.8384 40.1231C43.0951 40.2347 43.3712 40.2944 43.6511 40.2986H43.7412C44.4916 40.2986 45.0784 39.9408 45.5017 39.2251C45.6456 38.9636 45.7229 38.6706 45.7268 38.3721V38.2844C45.7268 37.5687 45.3598 36.9948 44.626 36.5627C44.3739 36.4444 44.1004 36.3786 43.8222 36.3691H43.7322C43.7187 36.3691 43.7141 36.3691 43.7141 36.3511L43.6602 36.3691Z" fill="#595A5A"/>
<path d="M32.4589 34.087H32.7404C33.716 34.087 34.624 34.4854 35.4645 35.2821C36.1579 36.0788 36.5038 36.8845 36.5023 37.6992V38.0255C36.5023 38.6257 36.2441 39.261 35.7279 39.9317L32.477 44.6444H36.3042C36.329 44.6444 36.3402 44.6624 36.3402 44.6804V46.6317C36.3402 46.6542 36.3402 46.6655 36.3042 46.6655H28.5957V46.6317C31.1607 42.9093 32.5115 40.9588 32.6481 40.7802C33.7332 39.4133 34.275 38.6924 34.2735 38.6174C34.3842 38.3933 34.4427 38.1471 34.4446 37.8972C34.4446 37.222 34.1091 36.6774 33.4338 36.2971C33.2129 36.1845 32.9701 36.1215 32.7223 36.1125H32.63H32.594H32.513C31.9772 36.1125 31.5082 36.3736 31.1059 36.8957C30.8969 37.1875 30.7864 37.5383 30.7907 37.8972C30.795 38.1899 30.8724 38.477 31.0159 38.7322L30.9798 38.7502H28.8074C28.7398 38.7322 28.6948 38.4351 28.6723 37.8612C28.6723 36.7644 29.1226 35.8124 30.0231 35.0052C30.7028 34.424 31.5646 34.0991 32.4589 34.087Z" fill="#595A5A"/>
<path d="M73.7942 34.0353H76.014C76.0387 34.0353 76.05 34.0533 76.05 34.0713V38.73H76.068C76.6955 38.4104 77.39 38.2446 78.0942 38.2461C79.532 38.2461 80.7327 38.8732 81.6963 40.1275C82.1584 40.8139 82.4089 41.6206 82.4167 42.4479V42.5177C82.4167 43.8905 81.7788 45.045 80.5031 45.9813C79.8366 46.4101 79.0664 46.6504 78.2743 46.6767H77.9051C76.9167 46.6767 75.9712 46.2851 75.0617 45.4997C74.1956 44.5994 73.7627 43.6407 73.7627 42.6234V34.0713C73.7627 34.051 73.7762 34.0353 73.7942 34.0353ZM76.068 42.3624V42.4592C76.0684 42.4616 76.0682 42.4641 76.0674 42.4664C76.0666 42.4688 76.0653 42.471 76.0636 42.4727C76.0618 42.4745 76.0596 42.4758 76.0573 42.4766C76.055 42.4774 76.0524 42.4776 76.05 42.4771L76.068 42.5132V42.5649C76.068 43.2693 76.4529 43.8388 77.2229 44.2798C77.4967 44.387 77.7868 44.4463 78.0807 44.4554C78.9151 44.4554 79.547 44.039 79.9762 43.2063C80.0536 42.9893 80.0961 42.7614 80.1024 42.5312V42.4434C80.1024 41.7338 79.7474 41.1681 79.0375 40.7465C78.7476 40.5961 78.4253 40.5188 78.0987 40.5214C77.1712 40.5214 76.5183 40.9873 76.1401 41.919C76.0985 42.0596 76.0743 42.2047 76.068 42.3512V42.3624Z" fill="#595A5A"/>
<path d="M95.3825 34.0353H97.6025C97.6269 34.0353 97.6381 34.0533 97.6381 34.0713V38.73H97.6563C98.2835 38.4107 98.9785 38.2449 99.6826 38.2461C101.122 38.2461 102.322 38.8732 103.284 40.1275C103.746 40.814 103.995 41.621 104 42.4479V42.5177C104 43.8905 103.363 45.045 102.086 45.9813C101.42 46.4095 100.65 46.6499 99.8581 46.6767H99.498C98.5114 46.6767 97.564 46.2844 96.6543 45.4997C95.788 44.5994 95.3552 43.6407 95.3552 42.6234V34.0713C95.3531 34.051 95.3643 34.0353 95.3825 34.0353ZM97.6563 42.3624V42.4592C97.6563 42.4592 97.6563 42.4771 97.6381 42.4771L97.6563 42.5132V42.5649C97.6563 43.2693 98.0409 43.8388 98.8135 44.2798C99.0862 44.3867 99.3756 44.4461 99.6686 44.4554C100.506 44.4554 101.138 44.039 101.564 43.2063C101.643 42.9896 101.685 42.7616 101.691 42.5312V42.4434C101.691 41.7338 101.336 41.1681 100.626 40.7465C100.336 40.5956 100.013 40.5183 99.6868 40.5214C98.7624 40.5214 98.1094 40.9873 97.7283 41.919C97.6871 42.0596 97.6626 42.2047 97.6563 42.3512V42.3624Z" fill="#595A5A"/>
<path d="M88.2162 34.087H88.4952C89.4713 34.087 90.3795 34.4854 91.2221 35.2821C91.9136 36.0788 92.2597 36.8845 92.2597 37.6992V38.0255C92.2597 38.6257 92.001 39.261 91.4829 39.9317L88.2414 44.6444H92.0681C92.0933 44.6444 92.1045 44.6624 92.1045 44.6804V46.6317C92.1045 46.6542 92.0933 46.6655 92.0681 46.6655H84.353V46.6317C86.9165 42.9093 88.2672 40.9588 88.4057 40.7802C89.4873 39.4133 90.0292 38.6924 90.0306 38.6174C90.1418 38.3933 90.1998 38.1471 90.2019 37.8972C90.2019 37.2115 89.8649 36.6782 89.1909 36.2971C88.9692 36.1844 88.7259 36.1215 88.4777 36.1125H88.3875H88.3511H88.27C87.7345 36.1125 87.2655 36.3736 86.8632 36.8957C86.6535 37.1873 86.5424 37.5381 86.5458 37.8972C86.5491 38.1901 86.6266 38.4774 86.7709 38.7322L86.7349 38.7502H84.594C84.5287 38.7322 84.4836 38.4351 84.4589 37.8612C84.4589 36.7644 84.9136 35.8124 85.8232 35.0052C86.4916 34.4333 87.3367 34.109 88.2162 34.087Z" fill="#595A5A"/>
</g>
</svg>
