<svg width="122" height="80" viewBox="0 0 122 80" fill="none" xmlns="http://www.w3.org/2000/svg">
<mask id="mask0" mask-type="alpha" maskUnits="userSpaceOnUse" x="0" y="0" width="122" height="80">
<rect width="122" height="80" fill="white"/>
</mask>
<g mask="url(#mask0)">
<path d="M29.4792 45.8069C29.4646 45.8069 29.4505 45.8069 29.4365 45.8047H29.4292L29.3937 45.7997L29.3792 45.7965C29.3696 45.7944 29.3602 45.7918 29.351 45.7887C29.3437 45.7865 29.336 45.7847 29.3287 45.7819H29.3255C29.3105 45.7765 29.2964 45.7706 29.28 45.7642C29.1843 45.7182 29.1068 45.6413 29.0603 45.5458C29.0138 45.4503 29.0009 45.3419 29.0237 45.2381C29.0466 45.1344 29.1038 45.0414 29.1862 44.9743C29.2685 44.9072 29.3712 44.8699 29.4774 44.8685C29.5726 44.8683 29.6655 44.898 29.7429 44.9535C29.751 44.9587 29.7588 44.9645 29.7661 44.9708L29.7816 44.984L29.7952 44.9962L29.8157 45.0162C29.8197 45.0217 29.8247 45.0267 29.8293 45.0322C29.8333 45.0365 29.8371 45.041 29.8407 45.0458C29.847 45.0544 29.8538 45.0631 29.8598 45.0717C29.8657 45.0803 29.8652 45.0803 29.8684 45.0844L29.8816 45.1067C29.8834 45.1105 29.8853 45.1141 29.8875 45.1176C29.8934 45.1281 29.898 45.1395 29.903 45.1499L29.908 45.1617C29.9125 45.1731 29.9171 45.1849 29.9211 45.1972C29.9209 45.1995 29.9209 45.2018 29.9211 45.204C29.9243 45.2154 29.9271 45.2272 29.9298 45.2386C29.9298 45.2413 29.9298 45.244 29.9298 45.2468C29.9324 45.26 29.9344 45.2733 29.9357 45.2868C29.9357 45.29 29.9357 45.2927 29.9357 45.2959C29.9357 45.31 29.9357 45.3241 29.9357 45.3386C29.9363 45.4626 29.8876 45.5818 29.8004 45.6699C29.7132 45.7581 29.5946 45.808 29.4706 45.8087L29.4792 45.8069ZM25.9408 38.6025C26.097 38.4527 26.209 38.2628 26.2644 38.0537C26.3198 37.8445 26.3166 37.6241 26.255 37.4166L28.6385 36.0253C28.7931 36.1915 28.9933 36.3082 29.2141 36.3609V44.1528C29.2136 44.1632 29.2098 44.1733 29.2033 44.1814C29.1968 44.1896 29.1878 44.1955 29.1777 44.1983H29.1655C29.157 44.1982 29.1487 44.1959 29.1414 44.1917C29.134 44.1875 29.1279 44.1814 29.1236 44.1742L25.9408 38.6025ZM28.6558 44.5047C28.6513 44.5092 28.646 44.5128 28.6401 44.5151C28.6343 44.5175 28.628 44.5186 28.6217 44.5184C28.6134 44.5184 28.6053 44.5164 28.598 44.5124L21.9242 40.6163C21.9564 40.5073 21.9728 40.3943 21.9728 40.2807C21.973 40.1669 21.9566 40.0537 21.9242 39.9447L24.3076 38.5534C24.4534 38.7113 24.6407 38.8249 24.8481 38.8812C25.0556 38.9375 25.2746 38.9342 25.4802 38.8716L28.663 44.4461C28.6683 44.4555 28.6703 44.4663 28.6688 44.477C28.6674 44.4877 28.6624 44.4975 28.6548 44.5052L28.6558 44.5047ZM28.3584 45.0508C28.3541 45.0581 28.348 45.0642 28.3407 45.0684C28.3333 45.0726 28.325 45.0749 28.3166 45.0749L21.9474 45.0699C21.9033 44.8539 21.7986 44.6548 21.6457 44.4961C21.4927 44.3373 21.2977 44.2253 21.0835 44.1733V41.4174C21.304 41.3646 21.504 41.2477 21.6582 41.0814L28.342 44.9826C28.3494 44.987 28.3555 44.9933 28.3597 45.0008C28.3639 45.0083 28.3661 45.0167 28.3661 45.0253C28.3638 45.0335 28.3611 45.0412 28.3593 45.0499L28.3584 45.0508ZM28.3234 45.7019L21.6577 49.5926C21.5036 49.4263 21.3036 49.3093 21.083 49.2566V46.4458C21.2877 46.3961 21.4751 46.2918 21.6251 46.144C21.7752 45.9961 21.8823 45.8103 21.9351 45.6064L28.3006 45.611C28.3113 45.6111 28.3217 45.6147 28.3302 45.6213C28.3386 45.6278 28.3446 45.637 28.3473 45.6474C28.35 45.6577 28.3492 45.6687 28.3451 45.6785C28.3409 45.6884 28.3336 45.6966 28.3243 45.7019H28.3234ZM21.2803 50.4333C21.2803 50.4465 21.2771 50.4606 21.2753 50.4738C21.2753 50.4738 21.2753 50.477 21.2753 50.4784C21.2726 50.4911 21.2699 50.5034 21.2667 50.5156C21.2665 50.5178 21.2665 50.5199 21.2667 50.522C21.2631 50.5338 21.2594 50.5452 21.2553 50.5561C21.2541 50.5589 21.253 50.5618 21.2521 50.5647C21.2485 50.5752 21.2435 50.5852 21.239 50.5957L21.234 50.6052C21.2294 50.6148 21.2239 50.6243 21.2189 50.6329L21.2126 50.6439C21.2071 50.6525 21.2012 50.6607 21.1958 50.6689C21.1931 50.6728 21.1903 50.6766 21.1871 50.6802C21.1812 50.6875 21.1753 50.6952 21.1689 50.7025C21.166 50.7066 21.1626 50.7104 21.1589 50.7139L21.1394 50.7339L21.1266 50.7453L21.1071 50.7625C21.1021 50.7662 21.0971 50.7694 21.0921 50.7734L21.0721 50.788L21.0553 50.798L21.0348 50.8098C21.0284 50.8135 21.0221 50.8162 21.0153 50.8194L20.9957 50.8285C20.9884 50.8316 20.9802 50.8344 20.9734 50.8366L20.9539 50.8439C20.9455 50.8464 20.937 50.8483 20.9284 50.8498L20.9107 50.8544C20.9007 50.8566 20.8907 50.858 20.8807 50.8594L20.8657 50.8617C20.8502 50.8617 20.8352 50.8639 20.8202 50.8639C20.8052 50.8639 20.7888 50.8639 20.7747 50.8617L20.7597 50.8594C20.7497 50.8594 20.7393 50.8566 20.7297 50.8544L20.7115 50.8498L20.6865 50.8439L20.667 50.8366C20.6595 50.8344 20.6522 50.8317 20.6451 50.8285L20.6251 50.8194L20.6051 50.8098C20.5983 50.8062 20.5919 50.8021 20.5856 50.798C20.5792 50.7939 20.5738 50.7916 20.5683 50.788L20.5478 50.7734L20.5333 50.7625C20.5265 50.7571 20.5201 50.7512 20.5137 50.7453L20.501 50.7339C20.4943 50.7277 20.4881 50.721 20.4824 50.7139L20.4714 50.703L20.4537 50.6807C20.4507 50.6771 20.448 50.6733 20.4455 50.6693C20.4392 50.6614 20.4334 50.653 20.4283 50.6443C20.4283 50.6407 20.4242 50.6375 20.4219 50.6339C20.4196 50.6302 20.4114 50.6152 20.4064 50.6052L20.4023 50.5966C20.3973 50.5861 20.3928 50.5757 20.3882 50.5647L20.3855 50.557C20.3814 50.5461 20.3778 50.5343 20.3746 50.5225C20.3744 50.5205 20.3744 50.5185 20.3746 50.5165C20.3714 50.5038 20.3682 50.4915 20.366 50.4788C20.3657 50.4775 20.3657 50.4761 20.366 50.4747C20.3608 50.448 20.3583 50.4209 20.3582 50.3938C20.3582 50.2704 20.4072 50.1521 20.4945 50.0649C20.5817 49.9776 20.7 49.9286 20.8234 49.9286C20.9467 49.9286 21.065 49.9776 21.1523 50.0649C21.2395 50.1521 21.2885 50.2704 21.2885 50.3938C21.2885 50.407 21.2885 50.4202 21.2862 50.4338L21.2803 50.4333ZM19.9768 49.5926L13.2929 45.6905C13.2851 45.6859 13.2787 45.6792 13.2745 45.6712C13.2704 45.6632 13.2685 45.6541 13.2693 45.6451C13.2693 45.6378 13.2733 45.631 13.2752 45.6237C13.279 45.6159 13.2849 45.6094 13.2924 45.6048C13.2998 45.6003 13.3083 45.598 13.317 45.5982L19.6989 45.6032C19.7515 45.8075 19.8585 45.9936 20.0087 46.1417C20.1589 46.2898 20.3465 46.3943 20.5515 46.4439V49.2548C20.3308 49.3075 20.1306 49.4244 19.9763 49.5908L19.9768 49.5926ZM13.0128 44.5184C13.0065 44.5186 13.0002 44.5175 12.9943 44.5151C12.9885 44.5128 12.9831 44.5092 12.9787 44.5047C12.9711 44.4971 12.9663 44.4871 12.965 44.4764C12.9637 44.4657 12.9659 44.4549 12.9714 44.4456L16.1542 38.8712C16.3599 38.9337 16.5791 38.937 16.7865 38.8807C16.994 38.8244 17.1814 38.7108 17.3273 38.5529L19.7108 39.9442C19.6458 40.1634 19.6458 40.3967 19.7108 40.6158L13.0369 44.5124C13.0295 44.5164 13.0212 44.5185 13.0128 44.5184ZM12.5127 44.1773C12.5084 44.1847 12.5023 44.1907 12.4949 44.1949C12.4876 44.1992 12.4793 44.2014 12.4708 44.2014C12.4668 44.2019 12.4626 44.2019 12.4586 44.2014C12.4485 44.1987 12.4396 44.1927 12.4332 44.1846C12.4267 44.1764 12.423 44.1664 12.4226 44.156V36.3609C12.6433 36.3082 12.8434 36.1915 12.9978 36.0253L15.3813 37.4166C15.3489 37.5256 15.3324 37.6386 15.3322 37.7522C15.3318 37.9112 15.3639 38.0686 15.4264 38.2148C15.489 38.361 15.5807 38.4929 15.6959 38.6025L12.5127 44.1773ZM12.354 45.7624C12.3403 45.7687 12.3253 45.7746 12.3108 45.7801H12.3071L12.2853 45.7869C12.2758 45.7901 12.2671 45.7924 12.2576 45.7947L12.2426 45.7978L12.2071 45.8028H12.1998C12.1857 45.8028 12.1712 45.8051 12.1571 45.8051C12.0332 45.8048 11.9144 45.7552 11.827 45.6674C11.7395 45.5796 11.6905 45.4607 11.6906 45.3368C11.6906 45.3222 11.6906 45.3081 11.6929 45.294C11.6929 45.2909 11.6929 45.2881 11.6929 45.285C11.6929 45.2718 11.696 45.2581 11.6983 45.2449C11.6985 45.2422 11.6985 45.2395 11.6983 45.2368C11.7011 45.2254 11.7038 45.2136 11.7074 45.2022C11.7074 45.2022 11.7074 45.1977 11.7097 45.1954C11.7133 45.1831 11.7179 45.1713 11.722 45.1599L11.727 45.1481C11.732 45.1376 11.737 45.1263 11.7429 45.1163C11.7488 45.1063 11.747 45.109 11.7488 45.1049C11.7529 45.0972 11.7575 45.0898 11.7624 45.0826L11.7706 45.0699C11.7764 45.0611 11.7827 45.0525 11.7897 45.044C11.7934 45.0392 11.7974 45.0347 11.8015 45.0303C11.8056 45.0249 11.8102 45.0199 11.8152 45.0144L11.8347 44.9944L11.8488 44.9821L11.8638 44.9689L11.887 44.9517C11.9656 44.8964 12.0596 44.8673 12.1557 44.8685C12.2622 44.8696 12.3651 44.9067 12.4476 44.9738C12.5302 45.0409 12.5876 45.1341 12.6105 45.238C12.6333 45.342 12.6203 45.4506 12.5734 45.5461C12.5266 45.6417 12.4488 45.7186 12.3526 45.7642L12.354 45.7624ZM11.8184 35.5474C11.8134 35.542 11.8088 35.5374 11.8047 35.532C11.8005 35.5275 11.7966 35.5228 11.7929 35.5179C11.786 35.5096 11.7796 35.501 11.7738 35.492L11.7656 35.4797C11.7606 35.4722 11.7561 35.4645 11.752 35.4565C11.752 35.4533 11.7479 35.4501 11.7461 35.4465C11.7402 35.4356 11.7352 35.4247 11.7301 35.4138C11.7301 35.4097 11.727 35.406 11.7251 35.4024C11.7211 35.3906 11.7165 35.3788 11.7129 35.3669C11.7129 35.3669 11.7129 35.3619 11.7106 35.3597C11.707 35.3483 11.7042 35.3369 11.7015 35.3251C11.7018 35.3225 11.7018 35.3199 11.7015 35.3174C11.6992 35.3037 11.6974 35.2905 11.696 35.2769C11.696 35.2742 11.696 35.271 11.696 35.2678C11.696 35.2542 11.6938 35.2396 11.6938 35.2251C11.6933 35.1011 11.742 34.982 11.8292 34.8939C11.9164 34.8057 12.0349 34.7558 12.1589 34.7549C12.173 34.7549 12.1876 34.7549 12.2017 34.7549H12.2089C12.2208 34.7549 12.2326 34.7586 12.2444 34.7604L12.2594 34.7636L12.2871 34.7708C12.2946 34.7728 12.3019 34.7752 12.309 34.7781H12.3126C12.3273 34.7834 12.3417 34.7895 12.3558 34.7963C12.4519 34.8419 12.5298 34.9188 12.5766 35.0144C12.6235 35.1099 12.6365 35.2185 12.6137 35.3225C12.5908 35.4264 12.5334 35.5196 12.4508 35.5867C12.3682 35.6538 12.2653 35.6909 12.1589 35.692C12.0635 35.6919 11.9704 35.6622 11.8925 35.607L11.8697 35.5893L11.8547 35.5765L11.8406 35.5634C11.8343 35.5574 11.8275 35.5506 11.8211 35.5438L11.8184 35.5474ZM16.6862 38.1751C16.6744 38.1805 16.6626 38.1855 16.6498 38.1901H16.6471C16.6357 38.1946 16.6239 38.1982 16.6116 38.2019H16.6066C16.5948 38.2051 16.583 38.2073 16.5712 38.2096H16.5653C16.54 38.2141 16.5145 38.2165 16.4889 38.2169C16.4 38.2163 16.3133 38.1903 16.2387 38.1419C16.1642 38.0936 16.1051 38.0249 16.0683 37.9441C16.0628 37.9318 16.0578 37.92 16.0533 37.9077V37.9045C16.0492 37.8932 16.0451 37.8809 16.0419 37.8691V37.8636C16.0392 37.8518 16.0365 37.84 16.0346 37.8277V37.8218C16.0346 37.8095 16.031 37.7968 16.0296 37.7845C16.0283 37.7722 16.0296 37.7581 16.0296 37.7445C16.0297 37.6556 16.0548 37.5685 16.1022 37.4933C16.1496 37.418 16.2173 37.3578 16.2974 37.3193C16.3093 37.3139 16.3211 37.3084 16.3338 37.3039H16.3361L16.3716 37.2925H16.377C16.3888 37.2898 16.4002 37.2866 16.4125 37.2843H16.4184C16.4302 37.2843 16.4429 37.2807 16.4552 37.2798C16.4684 37.2798 16.4811 37.2798 16.4948 37.2798C16.5901 37.2802 16.6829 37.3099 16.7608 37.3648C16.8387 37.4197 16.8979 37.4971 16.9304 37.5867C16.9306 37.5876 16.9306 37.5885 16.9304 37.5894C16.9348 37.6012 16.9386 37.6132 16.9417 37.6253C16.9419 37.6272 16.9419 37.629 16.9417 37.6308C16.9445 37.6426 16.9472 37.6544 16.949 37.6663C16.9492 37.6684 16.9492 37.6705 16.949 37.6726C16.9537 37.698 16.9562 37.7237 16.9563 37.7495C16.9563 37.8384 16.9312 37.9256 16.8838 38.0009C16.8364 38.0762 16.7687 38.1366 16.6885 38.1751H16.6862ZM19.9408 30.9911C19.9499 30.9854 19.9606 30.9832 19.9712 30.9847C19.9817 30.9862 19.9914 30.9913 19.9986 30.9992C20.0061 31.0068 20.011 31.0167 20.0124 31.0273C20.0138 31.0379 20.0116 31.0486 20.0063 31.0579L16.8235 36.6323C16.7158 36.5994 16.6038 36.5827 16.4911 36.5828C16.3333 36.5828 16.1771 36.6154 16.0324 36.6786C15.8877 36.7419 15.7577 36.8343 15.6504 36.9501L13.2624 35.5606C13.3267 35.3411 13.3267 35.1077 13.2624 34.8882L19.9408 30.9911ZM20.3587 30.1272C20.3587 30.1131 20.3619 30.0994 20.3641 30.0858C20.3641 30.0858 20.3641 30.0831 20.3641 30.0817C20.3663 30.0691 20.3692 30.0566 20.3728 30.0444C20.3726 30.0421 20.3726 30.0399 20.3728 30.0376C20.376 30.0258 20.3796 30.0148 20.3837 30.0035L20.3864 29.9953C20.391 29.9848 20.3955 29.9744 20.4005 29.9644L20.4046 29.9548C20.4096 29.9448 20.4146 29.9357 20.4201 29.9266C20.4255 29.9175 20.4246 29.9194 20.4264 29.9157C20.4283 29.9121 20.4373 29.8989 20.4433 29.8907L20.4519 29.8798C20.4578 29.8721 20.4633 29.8643 20.4696 29.8575L20.4805 29.8462C20.4863 29.8392 20.4925 29.8327 20.4992 29.8266L20.5119 29.8148L20.5315 29.798L20.546 29.7866L20.5665 29.773C20.5719 29.7689 20.5778 29.7657 20.5833 29.762C20.5888 29.7584 20.5965 29.7539 20.6038 29.7502L20.6229 29.7411L20.6433 29.7316L20.6651 29.7234L20.6847 29.717C20.6929 29.7143 20.7011 29.7125 20.7092 29.7102L20.7283 29.7057C20.738 29.7036 20.7477 29.7021 20.7574 29.7011H20.7729C20.7875 29.7011 20.8029 29.6988 20.8184 29.6984H20.8206C20.8358 29.6982 20.851 29.699 20.8661 29.7007H20.882C20.8916 29.7007 20.9011 29.7029 20.9111 29.7052L20.9293 29.7098C20.938 29.7098 20.9461 29.7138 20.9539 29.7166L20.9739 29.7229L20.9962 29.7311L21.0157 29.7407L21.0353 29.7498L21.0557 29.7616C21.0612 29.7652 21.0671 29.7684 21.0725 29.7725C21.0795 29.7767 21.0861 29.7812 21.0925 29.7861L21.1076 29.7975L21.1271 29.8143L21.1398 29.8262C21.1462 29.8321 21.1526 29.8389 21.1585 29.8453C21.1623 29.8488 21.1658 29.8528 21.1689 29.8571C21.1753 29.8639 21.1812 29.8716 21.1871 29.8794L21.1958 29.8903L21.2126 29.9153L21.2189 29.9262C21.2239 29.9353 21.2294 29.9444 21.234 29.9539L21.239 29.9639C21.2435 29.9739 21.2485 29.9844 21.2521 29.9948C21.253 29.9976 21.2541 30.0004 21.2553 30.003C21.2594 30.0144 21.2631 30.0253 21.2667 30.0371C21.2665 30.0394 21.2665 30.0417 21.2667 30.0439C21.2699 30.0558 21.2726 30.0685 21.2753 30.0808C21.2753 30.0808 21.2753 30.084 21.2753 30.0853C21.2753 30.099 21.279 30.1122 21.2803 30.1267C21.2818 30.1398 21.2825 30.153 21.2826 30.1663C21.2826 30.2896 21.2336 30.4079 21.1464 30.4952C21.0591 30.5824 20.9408 30.6314 20.8175 30.6314C20.6941 30.6314 20.5758 30.5824 20.4886 30.4952C20.4013 30.4079 20.3523 30.2896 20.3523 30.1663C20.3523 30.1531 20.3523 30.1394 20.3523 30.1267L20.3587 30.1272ZM20.3523 40.2789C20.3532 40.1871 20.3813 40.0976 20.4329 40.0217C20.4846 39.9458 20.5575 39.8869 20.6426 39.8524C20.7277 39.8179 20.821 39.8093 20.911 39.8278C21.0009 39.8462 21.0833 39.8909 21.1479 39.9561C21.2125 40.0214 21.2564 40.1042 21.274 40.1943C21.2916 40.2844 21.2821 40.3777 21.2467 40.4625C21.2114 40.5472 21.1518 40.6196 21.0754 40.6705C20.999 40.7214 20.9093 40.7486 20.8175 40.7486C20.6935 40.7479 20.575 40.698 20.4877 40.6099C20.4005 40.5219 20.3518 40.4028 20.3523 40.2789ZM19.9768 41.0796C20.1311 41.246 20.3312 41.3629 20.5519 41.4156V44.1705C20.3378 44.2224 20.1429 44.3342 19.99 44.4927C19.837 44.6512 19.7323 44.85 19.688 45.0658L13.3365 45.0608C13.3262 45.0606 13.3161 45.057 13.3079 45.0506C13.2997 45.0442 13.2938 45.0354 13.2911 45.0253C13.2882 45.015 13.2888 45.004 13.2929 44.994C13.2969 44.9841 13.3041 44.9757 13.3134 44.9703L19.9768 41.0796ZM17.2787 36.9024L20.4614 31.328C20.4663 31.3184 20.4744 31.3109 20.4843 31.3067C20.4942 31.3025 20.5053 31.302 20.5156 31.3052C20.5257 31.3079 20.5346 31.3138 20.5411 31.322C20.5476 31.3302 20.5512 31.3403 20.5515 31.3507V39.1435C20.3308 39.1962 20.1306 39.3132 19.9763 39.4795L17.5928 38.0882C17.6251 37.9791 17.6415 37.866 17.6415 37.7522C17.6417 37.5933 17.6096 37.436 17.547 37.2899C17.4845 37.1438 17.3929 37.0119 17.2777 36.9024H17.2787ZM21.2817 45.3086C21.282 45.4169 21.2449 45.5219 21.1767 45.606C21.1735 45.6091 21.1708 45.6128 21.1676 45.6164C21.1644 45.6201 21.1567 45.6291 21.1512 45.6351L21.1376 45.6482L21.1239 45.6614C21.0464 45.7312 20.9474 45.7725 20.8432 45.7784C20.7391 45.7844 20.636 45.7547 20.551 45.6942C20.5366 45.6839 20.5228 45.6728 20.5096 45.661L20.496 45.6487L20.4824 45.6346C20.4769 45.6291 20.4719 45.6237 20.4669 45.6178C20.3928 45.5318 20.3519 45.4221 20.3519 45.3086C20.3518 45.2073 20.3847 45.1087 20.4455 45.0276C20.4548 45.0151 20.4646 45.0031 20.4751 44.9917L20.4774 44.989C20.4878 44.978 20.4987 44.9676 20.5101 44.9571C20.5101 44.9571 20.5101 44.9571 20.5124 44.9549C20.5962 44.881 20.7041 44.8403 20.8159 44.8403C20.9276 44.8403 21.0355 44.881 21.1194 44.9549L21.1226 44.9576C21.1339 44.9676 21.1444 44.9785 21.1548 44.9894L21.1576 44.9921C21.1676 45.0035 21.1776 45.0153 21.1871 45.0281C21.1967 45.0408 21.2058 45.0549 21.2144 45.0685C21.2573 45.1413 21.2801 45.2241 21.2803 45.3086H21.2817ZM24.0394 38.0882L21.6554 39.4795C21.5013 39.3132 21.3013 39.1962 21.0807 39.1435V31.3521C21.0809 31.3417 21.0845 31.3316 21.0909 31.3235C21.0973 31.3153 21.1062 31.3093 21.1162 31.3066C21.1264 31.3034 21.1375 31.3039 21.1474 31.3081C21.1573 31.3122 21.1654 31.3198 21.1703 31.3293L24.3531 36.9038C24.1968 37.0535 24.0847 37.2433 24.0292 37.4525C23.9737 37.6617 23.9769 37.8821 24.0384 38.0896L24.0394 38.0882ZM25.6085 37.7936C25.6085 37.8059 25.6053 37.8186 25.6035 37.8309C25.6035 37.8309 25.6035 37.835 25.6035 37.8368C25.6012 37.8491 25.5985 37.8609 25.5953 37.8727C25.5955 37.8745 25.5955 37.8763 25.5953 37.8782C25.5921 37.89 25.588 37.9023 25.5844 37.9136C25.5842 37.9147 25.5842 37.9157 25.5844 37.9168C25.5798 37.9291 25.5744 37.9409 25.5689 37.9532C25.5277 38.0465 25.4563 38.1233 25.3661 38.1711C25.276 38.219 25.1724 38.2351 25.0719 38.2169H25.0665C25.0542 38.2169 25.0419 38.2123 25.0306 38.2092H25.0256C25.0137 38.2055 25.0015 38.2019 24.9896 38.1973H24.9874C24.8979 38.1636 24.8209 38.1033 24.7666 38.0245C24.7123 37.9458 24.6834 37.8524 24.6836 37.7568C24.6837 37.7309 24.6858 37.705 24.69 37.6795C24.69 37.6795 24.69 37.6758 24.69 37.6735C24.6924 37.6617 24.6952 37.6499 24.6982 37.6381V37.6331C24.7014 37.6203 24.7055 37.6085 24.7096 37.5967V37.594C24.7137 37.5817 24.7185 37.5697 24.7241 37.5581C24.7607 37.477 24.8199 37.4082 24.8946 37.3598C24.9692 37.3114 25.0562 37.2856 25.1451 37.2852H25.1842L25.2211 37.2902H25.227C25.2388 37.2925 25.2506 37.2957 25.262 37.2984H25.2675L25.3034 37.3098H25.3061C25.3954 37.3438 25.4723 37.4041 25.5265 37.4828C25.5808 37.5615 25.6098 37.6548 25.6098 37.7504C25.6098 37.764 25.6098 37.7772 25.6098 37.7904L25.6085 37.7936ZM21.6395 31.0006C21.6469 30.9929 21.6567 30.988 21.6672 30.9865C21.6778 30.985 21.6885 30.9871 21.6977 30.9924L28.3725 34.8882C28.3076 35.1076 28.3076 35.3412 28.3725 35.5606L25.9895 36.9515C25.8821 36.8358 25.7521 36.7434 25.6074 36.6802C25.4628 36.617 25.3066 36.5843 25.1488 36.5841C25.036 36.584 24.9238 36.6007 24.816 36.6337L21.6332 31.0593C21.6279 31.0501 21.6256 31.0394 21.6268 31.0289C21.6279 31.0183 21.6324 31.0084 21.6395 31.0006ZM29.2809 34.799C29.2955 34.7927 29.3096 34.7863 29.3264 34.7808H29.3296C29.3369 34.778 29.3443 34.7756 29.3519 34.7736L29.3801 34.7663L29.3946 34.7631C29.4064 34.7631 29.4183 34.759 29.4301 34.7577H29.4374C29.4515 34.7577 29.4655 34.7577 29.4801 34.7577C29.6041 34.7585 29.7226 34.8085 29.8098 34.8966C29.897 34.9847 29.9457 35.1038 29.9452 35.2278C29.9452 35.2424 29.9452 35.2569 29.9452 35.2705C29.9452 35.2737 29.9452 35.2769 29.9452 35.2796C29.9452 35.2933 29.9421 35.3065 29.9393 35.3201C29.9393 35.3224 29.9393 35.3251 29.9393 35.3278C29.9366 35.3397 29.9339 35.351 29.9307 35.3624C29.9305 35.3648 29.9305 35.3672 29.9307 35.3697C29.9266 35.3815 29.9221 35.3933 29.9175 35.4047L29.9125 35.4165C29.9075 35.4274 29.903 35.4383 29.897 35.4488C29.8911 35.4592 29.893 35.4561 29.8911 35.4597L29.8775 35.4824C29.8748 35.4861 29.8725 35.4906 29.8693 35.4947C29.8661 35.4988 29.8566 35.5124 29.8502 35.5206C29.8467 35.5255 29.8429 35.5302 29.8388 35.5347C29.8343 35.5402 29.8293 35.5447 29.8252 35.5502C29.8211 35.5556 29.8116 35.5638 29.8047 35.5697L29.7911 35.5829L29.7756 35.5956C29.7683 35.602 29.7606 35.608 29.7525 35.6134C29.6749 35.6686 29.5821 35.6983 29.4869 35.6984C29.3807 35.697 29.2781 35.6597 29.1957 35.5925C29.1134 35.5254 29.0561 35.4325 29.0333 35.3287C29.0104 35.225 29.0233 35.1166 29.0698 35.0211C29.1164 34.9256 29.1938 34.8486 29.2896 34.8027L29.2809 34.799ZM29.7447 44.2001V36.3609C30.0209 36.2928 30.2629 36.1263 30.4252 35.8927C30.5875 35.659 30.6591 35.3742 30.6265 35.0916C30.5939 34.809 30.4595 34.5479 30.2483 34.3573C30.0371 34.1667 29.7637 34.0596 29.4792 34.0561C29.3213 34.0561 29.1652 34.0888 29.0205 34.152C28.8758 34.2152 28.7458 34.3077 28.6385 34.4235L21.9242 30.5041C21.9564 30.395 21.9728 30.2818 21.9728 30.1681C21.9728 30.0164 21.9429 29.8661 21.8849 29.7259C21.8268 29.5858 21.7417 29.4584 21.6344 29.3511C21.5271 29.2438 21.3998 29.1587 21.2596 29.1007C21.1194 29.0426 20.9692 29.0127 20.8175 29.0127C20.6657 29.0127 20.5155 29.0426 20.3753 29.1007C20.2352 29.1587 20.1078 29.2438 20.0005 29.3511C19.8932 29.4584 19.8081 29.5858 19.7501 29.7259C19.692 29.8661 19.6621 30.0164 19.6621 30.1681C19.6621 30.2818 19.6785 30.395 19.7108 30.5041L12.9964 34.4235C12.8892 34.3076 12.7591 34.2152 12.6145 34.152C12.4698 34.0887 12.3136 34.0561 12.1557 34.0561C11.8712 34.0595 11.5977 34.1665 11.3865 34.3571C11.1752 34.5477 11.0406 34.8087 11.008 35.0914C10.9754 35.374 11.0469 35.6589 11.2093 35.8926C11.3716 36.1262 11.6135 36.2927 11.8897 36.3609V44.2001C11.6131 44.2678 11.3707 44.4343 11.208 44.6681C11.0453 44.9019 10.9736 45.187 11.0062 45.47C11.0389 45.7529 11.1737 46.0143 11.3853 46.2049C11.597 46.3955 11.8709 46.5023 12.1557 46.5053C12.3136 46.5053 12.4698 46.4727 12.6145 46.4095C12.7591 46.3462 12.8892 46.2538 12.9964 46.1379L19.7108 50.0569C19.6785 50.1661 19.6621 50.2794 19.6621 50.3933C19.6621 50.545 19.692 50.6953 19.7501 50.8355C19.8081 50.9756 19.8932 51.103 20.0005 51.2103C20.1078 51.3176 20.2352 51.4027 20.3753 51.4607C20.5155 51.5188 20.6657 51.5487 20.8175 51.5487C20.9692 51.5487 21.1194 51.5188 21.2596 51.4607C21.3998 51.4027 21.5271 51.3176 21.6344 51.2103C21.7417 51.103 21.8268 50.9756 21.8849 50.8355C21.9429 50.6953 21.9728 50.545 21.9728 50.3933C21.9728 50.2794 21.9564 50.1661 21.9242 50.0569L28.6385 46.1379C28.7458 46.2538 28.8758 46.3462 29.0205 46.4094C29.1652 46.4726 29.3213 46.5053 29.4792 46.5053C29.764 46.5022 30.0378 46.3953 30.2494 46.2047C30.461 46.014 30.5957 45.7527 30.6283 45.4698C30.6609 45.1868 30.5891 44.9017 30.4264 44.668C30.2637 44.4342 30.0213 44.2678 29.7447 44.2001Z" fill="#0080BD"/>
<path d="M40.6764 37.8709H38.2666V36.7155H44.4362V37.8709H42.0264V44.0669H40.6764V37.8709Z" fill="#0080BD"/>
<path d="M52.5487 40.3912C52.5487 38.8907 51.4575 37.8081 49.9938 37.8081C48.5302 37.8081 47.4381 38.8894 47.4381 40.3912C47.4381 41.893 48.5293 42.9742 49.9938 42.9742C51.4584 42.9742 52.5487 41.8926 52.5487 40.3912ZM46.0776 40.3912C46.0776 38.2173 47.7395 36.6105 49.9938 36.6105C52.2482 36.6105 53.9091 38.2069 53.9091 40.3912C53.9091 42.5755 52.2472 44.1719 49.9938 44.1719C47.7404 44.1719 46.0776 42.5646 46.0776 40.3912Z" fill="#0080BD"/>
<path d="M59.1881 40.9896L58.035 42.1872V44.0669H56.6851V36.7155H58.035V40.4858L61.6292 36.7155H63.1456L60.092 40.0024L63.3325 44.0669H61.7534L59.1881 40.9896Z" fill="#0080BD"/>
<path d="M71.0697 42.922V44.0669H65.6167V36.7155H70.9247V37.8604H66.9671V39.7715H70.4777V40.895H66.9671V42.922H71.0697Z" fill="#0080BD"/>
<path d="M80.3332 36.7155V44.0669H79.222L75.2125 39.089V44.0669H73.873V36.7155H74.9843L78.9932 41.6934V36.7155H80.3332Z" fill="#0080BD"/>
<path d="M89.5795 40.3912C89.5795 38.8907 88.4882 37.8081 87.0237 37.8081C85.5591 37.8081 84.4688 38.8894 84.4688 40.3912C84.4688 41.893 85.5601 42.9742 87.0237 42.9742C88.4873 42.9742 89.5795 41.8926 89.5795 40.3912ZM83.1084 40.3912C83.1084 38.2173 84.7703 36.6105 87.0237 36.6105C89.2771 36.6105 90.9399 38.2069 90.9399 40.3912C90.9399 42.5755 89.278 44.1719 87.0237 44.1719C84.7694 44.1719 83.1084 42.5646 83.1084 40.3912Z" fill="#0080BD"/>
<path d="M100.394 44.0669L100.383 39.1936L97.9943 43.2266H97.3923L95.003 39.2572V44.0669H93.7148V36.7155H94.8265L97.7138 41.5884L100.55 36.7155H101.66L101.671 44.0669H100.394Z" fill="#0080BD"/>
<path d="M108.154 41.4729V44.0669H106.804V41.4938L103.948 36.7155H105.391L107.521 40.2966L109.671 36.7155H111L108.154 41.4729Z" fill="#0080BD"/>
</g>
</svg>
