<svg width="122" height="80" viewBox="0 0 122 80" fill="none" xmlns="http://www.w3.org/2000/svg">
<mask id="mask0" mask-type="alpha" maskUnits="userSpaceOnUse" x="0" y="0" width="122" height="80">
<rect width="122" height="80" fill="white"/>
</mask>
<g mask="url(#mask0)">
<path d="M79.4204 48.9698L82.7881 38.1876H88.3293L84.9617 48.9698H79.4204Z" fill="#093687"/>
<path d="M83.6411 35.4196L85.0176 31.0018H90.5588L89.1841 35.4196H83.6411Z" fill="#093687"/>
<path d="M60.6265 49.0249L66.2235 31.0551H71.7631L69.9644 36.8311H76.2792C77.9242 36.8418 79.0574 37.9618 79.1858 39.6827C79.2263 40.2373 79.1604 40.8347 78.9882 41.4533C78.9882 41.4533 78.9476 41.608 78.9375 41.6418L78.137 44.2107C77.3111 46.8649 74.7744 49.0231 72.4825 49.0231H60.6265V49.0249ZM67.1034 46.0204H70.4677C71.3087 46.0204 72.241 45.2276 72.5433 44.2533L73.3692 41.6027C73.6732 40.6284 73.2358 39.8356 72.3947 39.8356H69.0304L67.1034 46.0204Z" fill="#093687"/>
<path d="M92.3002 48.968C92.2259 48.9662 91.9185 48.9342 91.8695 48.9271C91.4354 48.8702 91.0301 48.7156 90.6518 48.4898C90.618 48.4702 90.5859 48.4436 90.5555 48.4204C89.8428 47.8889 89.4611 47.0142 89.3936 46.1164C89.3514 45.56 89.4189 44.9644 89.5895 44.344C89.6334 44.1804 89.6283 44.1929 89.6402 44.1538L93.7391 31H99.2821L97.4817 36.7778H99.9998L99.0642 39.7804H96.546L95.7793 42.2409C95.5699 42.9164 95.3689 43.576 95.2304 44.2231C95.0902 44.8738 95.1662 45.3484 95.4533 45.6329C95.8012 45.9778 96.3417 46.0204 96.7741 46.0204H98.5947L97.6759 48.968H92.3002Z" fill="#093687"/>
<path d="M41.4692 49.0249L45.7134 35.4373L47.757 36.1413L46.2978 31.0551H58.9257C61.2175 31.0551 62.4099 33.2133 61.584 35.8676L60.7835 38.4347C60.7733 38.4684 60.7615 38.5004 60.7497 38.5324L60.7159 38.6267C60.5014 39.2453 60.1974 39.8409 59.8107 40.3956C58.6099 42.1182 56.7791 43.2364 55.151 43.2453L55.0294 43.2471H48.8092L47.0088 49.0249H41.4692ZM49.7448 40.2444H53.1091C53.9502 40.2444 54.8808 39.4516 55.1848 38.4773L56.0107 35.8267C56.3147 34.8524 55.8772 34.0596 55.0362 34.0596H51.6719L49.7448 40.2444Z" fill="#0062DF"/>
<path d="M26.9076 49.0231C26.7641 49.0231 26.6205 49 26.4769 48.9822C26.2388 48.952 26.0057 48.8898 25.7811 48.8009C25.3369 48.6249 24.94 48.3849 24.6411 47.9831C24.4604 47.7395 24.3185 47.464 24.2172 47.176C24.1648 47.0284 24.1226 46.8756 24.0905 46.7209C23.9284 45.944 23.9959 45.1618 24.1986 44.4009C24.2155 44.3351 24.3 44.0489 24.3 44.0489L28.3482 31.0533H33.9385L29.8243 44.2551C29.5997 44.9769 29.7737 45.6187 30.2651 45.8907C30.407 45.9778 30.5827 46.0222 30.7819 46.0222H33.5433L38.2063 31.0551H44.5228L39.8936 36.1413L42.3931 35.4373L38.1489 49.0249C38.1489 49.0249 27.0174 49.0231 26.9076 49.0231Z" fill="#0062DF"/>
</g>
</svg>
