<svg width="122" height="80" viewBox="0 0 122 80" fill="none" xmlns="http://www.w3.org/2000/svg">
<mask id="mask0" mask-type="alpha" maskUnits="userSpaceOnUse" x="0" y="0" width="122" height="80">
<rect width="122" height="80" fill="white"/>
</mask>
<g mask="url(#mask0)">
<path d="M50.8047 47.152H51.7989L52.6131 49.4552L53.489 47.152H54.0971L54.9572 49.4292L55.7723 47.152H56.773L55.2958 51.2003H54.6521L53.7889 48.8934L52.8996 51.2003H52.2633L50.8047 47.152ZM57.3516 45.5892H58.36V47.5613C58.5585 47.3901 58.7581 47.2617 58.9591 47.1761C59.16 47.0906 59.3634 47.0478 59.5693 47.0478C59.9712 47.0478 60.3098 47.1866 60.5851 47.4645C60.8208 47.7053 60.9386 48.0587 60.9386 48.525V51.2003H59.9377V49.4254C59.9377 48.9566 59.9153 48.6392 59.8707 48.4729C59.826 48.3066 59.7498 48.1827 59.6419 48.1008C59.534 48.0189 59.4006 47.978 59.2419 47.978C59.0359 47.978 58.8592 48.0461 58.7116 48.1827C58.5641 48.3192 58.4618 48.5053 58.4047 48.7408C58.3749 48.8625 58.36 49.14 58.36 49.5743V51.2003H57.3516V45.5892ZM62.317 45.485C62.4956 45.485 62.6482 45.5494 62.7754 45.6785C62.9027 45.8076 62.9667 45.9639 62.9667 46.1473C62.9667 46.3285 62.9034 46.4829 62.7769 46.6106C62.6512 46.7382 62.5001 46.8022 62.3245 46.8022C62.1444 46.8022 61.9903 46.7371 61.8623 46.6068C61.7351 46.4766 61.6718 46.3185 61.6718 46.1324C61.6718 45.9538 61.7347 45.8013 61.8608 45.6747C61.9873 45.5482 62.1392 45.485 62.317 45.485ZM61.8095 47.152H62.8253V51.2003H61.8095V47.152ZM63.8709 45.6599H64.8867V47.152H65.4895V48.0264H64.8867V51.2003H63.8709V48.0264H63.3499V47.152H63.8709V45.6599ZM70.0885 49.4701H66.8253C66.8725 49.7577 66.9983 49.9866 67.203 50.1566C67.4076 50.3267 67.6688 50.4115 67.9862 50.4115C68.3657 50.4115 68.6921 50.2787 68.9648 50.0134L69.8206 50.4152C69.6074 50.7177 69.3518 50.9417 69.0541 51.0868C68.7564 51.232 68.4029 51.3045 67.9936 51.3045C67.3585 51.3045 66.8413 51.1043 66.442 50.7036C66.0428 50.3028 65.843 49.8013 65.843 49.1985C65.843 48.5808 66.042 48.0681 66.4402 47.6599C66.8383 47.2517 67.3376 47.0478 67.9378 47.0478C68.5752 47.0478 69.0939 47.2517 69.4932 47.6599C69.8924 48.0681 70.0922 48.6068 70.0922 49.2766L70.0885 49.4701ZM69.0727 48.6701C69.0057 48.4442 68.8733 48.2608 68.6757 48.1194C68.4781 47.978 68.2489 47.9073 67.9881 47.9073C67.7049 47.9073 67.4563 47.9866 67.2428 48.1454C67.1084 48.2448 66.9842 48.4197 66.8699 48.6701H69.0727ZM73.4392 45.485C73.6174 45.485 73.77 45.5494 73.8972 45.6785C74.0249 45.8076 74.0885 45.9639 74.0885 46.1473C74.0885 46.3285 74.0253 46.4829 73.8991 46.6106C73.773 46.7382 73.6223 46.8022 73.4466 46.8022C73.2662 46.8022 73.1121 46.7371 72.9845 46.6068C72.8573 46.4766 72.7936 46.3185 72.7936 46.1324C72.7936 45.9538 72.8565 45.8013 72.9826 45.6747C73.1092 45.5482 73.261 45.485 73.4392 45.485ZM72.9313 47.152H73.9471V51.2003H72.9313V47.152ZM77.348 47.7175L76.7192 48.3464C76.4636 48.0934 76.2318 47.9668 76.0234 47.9668C75.9091 47.9668 75.8199 47.991 75.7555 48.0394C75.6911 48.0878 75.6587 48.1481 75.6587 48.2199C75.6587 48.2746 75.6792 48.3248 75.7201 48.3706C75.7611 48.4163 75.8623 48.4792 76.0234 48.5585L76.3955 48.7445C76.7873 48.938 77.0567 49.1352 77.2029 49.3361C77.3491 49.5371 77.4225 49.7726 77.4225 50.0431C77.4225 50.4029 77.2904 50.7028 77.0262 50.9436C76.762 51.1843 76.4078 51.3045 75.9639 51.3045C75.3733 51.3045 74.9023 51.0738 74.5499 50.6124L75.175 49.9315C75.2941 50.0703 75.4336 50.1827 75.5936 50.2682C75.7536 50.3538 75.8958 50.3966 76.0197 50.3966C76.1536 50.3966 76.2615 50.3642 76.3434 50.2999C76.4252 50.2355 76.4662 50.1611 76.4662 50.0766C76.4662 49.9203 76.3185 49.7678 76.0234 49.6189L75.6811 49.4478C75.0262 49.1177 74.6987 48.7047 74.6987 48.2087C74.6987 47.8887 74.8223 47.6152 75.069 47.3882C75.3157 47.1613 75.6316 47.0478 76.0159 47.0478C76.279 47.0478 76.5265 47.1054 76.7583 47.2208C76.9901 47.3361 77.1869 47.5017 77.348 47.7175ZM84.3173 47.9706L83.4715 48.4357C83.3127 48.2694 83.1556 48.154 83.0005 48.0896C82.8453 48.0253 82.6634 47.9929 82.4546 47.9929C82.0747 47.9929 81.7674 48.1064 81.5326 48.333C81.2978 48.5596 81.1806 48.8498 81.1806 49.2041C81.1806 49.5482 81.2937 49.8295 81.5195 50.0472C81.7454 50.2653 82.0423 50.3743 82.41 50.3743C82.8643 50.3743 83.2185 50.2191 83.4715 49.9092L84.2727 50.4576C83.8384 51.0221 83.226 51.3045 82.4345 51.3045C81.7227 51.3045 81.1649 51.0935 80.762 50.672C80.359 50.2504 80.1573 49.7566 80.1573 49.191C80.1573 48.7992 80.2552 48.4383 80.4513 48.1082C80.6474 47.7782 80.9209 47.5192 81.2717 47.3306C81.6226 47.1419 82.0152 47.0478 82.4494 47.0478C82.8513 47.0478 83.2122 47.1278 83.5322 47.2878C83.8522 47.4478 84.1138 47.6755 84.3173 47.9706ZM85.121 45.5892H86.1368V51.2003H85.121V45.5892ZM91.1154 49.4701H87.8522C87.8994 49.7577 88.0252 49.9866 88.2298 50.1566C88.4345 50.3267 88.6957 50.4115 89.0131 50.4115C89.3926 50.4115 89.719 50.2787 89.9917 50.0134L90.8475 50.4152C90.6343 50.7177 90.3787 50.9417 90.081 51.0868C89.7833 51.232 89.4298 51.3045 89.0205 51.3045C88.3854 51.3045 87.8682 51.1043 87.4689 50.7036C87.0697 50.3028 86.8699 49.8013 86.8699 49.1985C86.8699 48.5808 87.0689 48.0681 87.4671 47.6599C87.8652 47.2517 88.3645 47.0478 88.9647 47.0478C89.6021 47.0478 90.1208 47.2517 90.5201 47.6599C90.9193 48.0681 91.1191 48.6068 91.1191 49.2766L91.1154 49.4701ZM90.0996 48.6701C90.0326 48.4442 89.9002 48.2608 89.7026 48.1194C89.505 47.978 89.2758 47.9073 89.015 47.9073C88.7318 47.9073 88.4832 47.9866 88.2697 48.1454C88.1353 48.2448 88.0111 48.4197 87.8968 48.6701H90.0996ZM94.9256 47.152H95.9414V51.2003H94.9256V50.7724C94.7273 50.9611 94.5286 51.0969 94.3292 51.1799C94.1297 51.2628 93.9135 51.3045 93.6806 51.3045C93.1578 51.3045 92.7057 51.1017 92.324 50.6961C91.9426 50.2906 91.7517 49.7864 91.7517 49.1836C91.7517 48.5585 91.9363 48.0461 92.3054 47.6468C92.6745 47.2476 93.1232 47.0478 93.6508 47.0478C93.8938 47.0478 94.1215 47.0935 94.3348 47.1854C94.5476 47.2774 94.7448 47.415 94.9256 47.5985V47.152H94.9256ZM93.8577 47.9854C93.5437 47.9854 93.2829 48.0963 93.0752 48.3185C92.8676 48.5406 92.7638 48.8253 92.7638 49.1724C92.7638 49.5222 92.8695 49.8098 93.0808 50.0357C93.2921 50.2615 93.5522 50.3743 93.8615 50.3743C94.1803 50.3743 94.4449 50.2634 94.6551 50.0413C94.8654 49.8191 94.9703 49.5285 94.9703 49.1687C94.9703 48.8163 94.8654 48.5313 94.6551 48.3129C94.4449 48.0945 94.1792 47.9854 93.8577 47.9854ZM96.7303 47.152H97.601V47.6617C97.6951 47.4608 97.8205 47.3082 97.9768 47.2041C98.1331 47.0999 98.3042 47.0478 98.4903 47.0478C98.6216 47.0478 98.7593 47.0824 98.9033 47.152L98.587 48.0264C98.4679 47.9668 98.3701 47.9371 98.2931 47.9371C98.1368 47.9371 98.0047 48.0338 97.8968 48.2273C97.7889 48.4208 97.7349 48.8003 97.7349 49.3659L97.7386 49.5631V51.2003H96.7303V47.152Z" fill="#151515"/>
<path d="M23.2388 32.1674H25.7245L27.7597 37.9256L29.9495 32.1674H31.4698L33.6201 37.8604L35.6577 32.1674H38.1597L34.4667 42.2883H32.8574L30.6992 36.5209L28.476 42.2883H26.8853L23.2388 32.1674ZM39.6062 28.2605H42.1271V33.1907C42.6231 32.7628 43.1224 32.442 43.6248 32.2277C44.1271 32.0141 44.6356 31.907 45.1504 31.907C46.155 31.907 47.0015 32.2545 47.6899 32.9488C48.2789 33.5505 48.5736 34.4342 48.5736 35.6V42.2883H46.0713V37.8511C46.0713 36.6791 46.0155 35.8854 45.9038 35.4698C45.7922 35.0545 45.6015 34.7442 45.3317 34.5395C45.062 34.3349 44.7286 34.2325 44.3317 34.2325C43.817 34.2325 43.3751 34.4033 43.0062 34.7442C42.6371 35.0854 42.3812 35.5505 42.2387 36.1395C42.1643 36.4435 42.1271 37.1382 42.1271 38.2232V42.2883H39.6062V28.2605H39.6062ZM53.2898 33.4376C53.2898 32.7361 52.7211 32.1674 52.0195 32.1674C51.318 32.1674 50.7493 32.7361 50.7493 33.4376C50.7493 33.4392 50.7498 33.4407 50.7498 33.4422V42.2883H53.2893V33.442C53.2893 33.4405 53.2898 33.4392 53.2898 33.4376ZM71.448 37.9628H63.2898C63.4074 38.6824 63.7226 39.2543 64.2338 39.6792C64.7458 40.1038 65.3981 40.3163 66.1922 40.3163C67.141 40.3163 67.9563 39.9847 68.6387 39.3209L70.7782 40.3256C70.2446 41.0824 69.6061 41.6417 68.8619 42.0048C68.1177 42.3672 67.234 42.5488 66.2108 42.5488C64.6231 42.5488 63.33 42.048 62.3317 41.0463C61.3332 40.045 60.834 38.7907 60.834 37.2837C60.834 35.7395 61.3317 34.4573 62.3272 33.437C63.3222 32.4171 64.5702 31.907 66.0712 31.907C67.6649 31.907 68.9609 32.4171 69.9596 33.437C70.9579 34.4573 71.4573 35.8046 71.4573 37.4791L71.448 37.9628ZM68.9084 35.9628C68.7406 35.3987 68.4098 34.9395 67.9161 34.586C67.4219 34.2325 66.8493 34.0558 66.197 34.0558C65.4885 34.0558 64.8675 34.2545 64.3332 34.6512C63.9979 34.8993 63.6872 35.3365 63.4015 35.9628H68.9084V35.9628ZM58.4433 32.1674V28.4372H55.9038V30.9782V32.1674V34.3535V35.9093V42.2883H58.4433V34.3535H59.9503V32.1674H58.4433Z" fill="#151515"/>
<path fill-rule="evenodd" clip-rule="evenodd" d="M41.9749 50.0111H43.2561V51.2923H41.9749V50.0111ZM24.2813 50.0111H23V51.2923H24.2813V50.0111ZM29.3453 50.0111H30.6266V51.2923H29.3453V50.0111ZM36.9108 50.0111H35.6296V51.2923H36.9108V50.0111ZM49.6014 50.0111H48.3202V51.2923H49.6014V50.0111Z" fill="#151515"/>
<path fill-rule="evenodd" clip-rule="evenodd" d="M45.1478 50.0111H46.429V51.2923H45.1478V50.0111ZM27.4541 50.0111H26.1729V51.2923H27.4541V50.0111ZM32.5182 50.0111H33.7994V51.2923H32.5182V50.0111ZM40.0837 50.0111H38.8024V51.2923H40.0837L40.0837 50.0111Z" fill="#C5B358"/>
<path d="M52.0192 28C52.4644 28 52.8462 28.1615 53.1647 28.4837C53.4832 28.8063 53.6425 29.197 53.6425 29.6558C53.6425 30.1086 53.4847 30.4945 53.1694 30.8138C52.854 31.1334 52.4767 31.293 52.0378 31.293C51.5863 31.293 51.2014 31.13 50.8829 30.8048C50.5643 30.4789 50.4053 30.0837 50.4053 29.6186C50.4053 29.1721 50.5629 28.7907 50.8782 28.4744C51.1937 28.1581 51.5738 28 52.0192 28Z" fill="#C5B358"/>
<path d="M87.2695 28.6046H89.8556V42.2883H87.2695V28.6046ZM91.437 28.6046H98.9997V31.1721H96.5067V42.2883H93.8649V31.1721H91.437V28.6046Z" fill="#C5B358"/>
<path d="M79.034 33.6327L78.7823 34.1253C78.7512 34.1855 78.7304 34.2319 78.7213 34.2634C78.7118 34.2944 78.707 34.3269 78.707 34.3594C78.707 34.4431 78.7381 34.518 78.7994 34.5823C78.8616 34.647 78.9397 34.6799 79.0322 34.6799C79.121 34.6799 79.1977 34.6484 79.2602 34.5863C79.323 34.5242 79.3548 34.4471 79.3548 34.3576C79.3548 34.2652 79.3241 34.1866 79.2627 34.1242C79.2156 34.0763 79.1604 34.0463 79.0976 34.035L79.2488 33.7405L79.034 33.6327ZM79.11 34.3551C79.11 34.381 79.102 34.4018 79.0863 34.4183C79.0537 34.4504 79.0092 34.453 78.9759 34.4179C78.9598 34.4011 78.9518 34.3806 78.9518 34.3551C78.9518 34.3295 78.9595 34.309 78.9748 34.2926C78.9894 34.2769 79.0066 34.2692 79.0285 34.2692C79.0523 34.2692 79.0713 34.2769 79.0863 34.293C79.1023 34.3094 79.11 34.3291 79.11 34.3551ZM80.2284 29.8297L79.8217 30.4344L79.8155 30.4439V30.6536H80.2145V30.841H80.4593V30.6536H80.5404V30.418H80.4593V29.8297H80.2284ZM80.114 30.418L80.2145 30.2703V30.418H80.114ZM74.9065 38.4047L75.2398 37.7226H74.8791V37.4847H75.5532L75.5496 37.6298L75.1206 38.5088L74.9065 38.4047ZM79.0965 40.7737C79.1169 40.7529 79.1268 40.7266 79.1268 40.6929C79.1268 40.6601 79.1177 40.6341 79.099 40.6144C79.0716 40.5848 79.0377 40.5753 78.9964 40.5958C78.9818 40.6034 78.9668 40.6151 78.9522 40.6308L78.9372 40.6465L78.7388 40.602L78.8634 40.0287H79.3592V40.2644H79.0537L79.0351 40.347C79.0388 40.347 79.042 40.347 79.0453 40.347C79.1385 40.347 79.2171 40.3791 79.2788 40.443C79.3405 40.5059 79.3716 40.5877 79.3716 40.686C79.3716 40.785 79.3376 40.8694 79.27 40.9374C79.2021 41.0057 79.1188 41.04 79.0219 41.04C78.9361 41.04 78.8608 41.0152 78.798 40.9659C78.7351 40.9158 78.6939 40.8475 78.6749 40.7624L78.6646 40.7171H78.9167L78.9273 40.7375C78.9383 40.7602 78.9525 40.7766 78.9701 40.7879C79.0081 40.8128 79.0632 40.8088 79.0965 40.7737ZM78.9807 35.8585C79.0435 35.7964 79.0753 35.7193 79.0753 35.6298C79.0753 35.5374 79.0446 35.4588 78.9832 35.3963C78.9361 35.3485 78.8809 35.3185 78.8181 35.3072L78.9693 35.0127L78.7545 34.9049L78.5028 35.3974C78.4717 35.4577 78.4509 35.5041 78.4418 35.5355C78.4323 35.5666 78.4275 35.5991 78.4275 35.6316C78.4275 35.7153 78.4586 35.7902 78.5199 35.8545C78.5821 35.9192 78.6602 35.952 78.7527 35.952C78.8415 35.952 78.9182 35.9206 78.9807 35.8585ZM78.6723 35.6272C78.6723 35.6017 78.68 35.5812 78.6953 35.5648C78.7099 35.5491 78.7271 35.5414 78.749 35.5414C78.7728 35.5414 78.7918 35.5491 78.8068 35.5651C78.8228 35.5816 78.8305 35.6013 78.8305 35.6272C78.8305 35.6532 78.8225 35.674 78.8068 35.6905C78.775 35.7226 78.73 35.7252 78.6964 35.6901C78.6803 35.6733 78.6723 35.6528 78.6723 35.6272ZM84.0182 38.473V38.2856H84.0993V38.0499H84.0182V37.4617H83.7873L83.3807 38.0664L83.3745 38.0759V38.2856H83.7734V38.473H84.0182V38.473ZM83.673 38.0499L83.7735 37.9023V38.0499H83.673ZM78.235 35.914C78.2854 35.8881 78.3263 35.8494 78.3559 35.799C78.3855 35.7482 78.4005 35.6926 78.4005 35.6338C78.4005 35.5794 78.3877 35.5279 78.3621 35.4807C78.3431 35.446 78.3186 35.4157 78.2883 35.3905C78.3091 35.3646 78.3245 35.3404 78.3343 35.3174C78.3486 35.2853 78.3555 35.2495 78.3555 35.2115C78.3555 35.1585 78.342 35.1084 78.3157 35.0628C78.2883 35.016 78.2514 34.9798 78.2054 34.955C78.1129 34.9049 77.9774 34.906 77.8857 34.9546C77.8382 34.9795 77.8006 35.0149 77.7743 35.0598C77.7476 35.1048 77.7344 35.1548 77.7344 35.2089C77.7344 35.2491 77.7425 35.2875 77.7582 35.3229C77.7688 35.347 77.7827 35.3697 77.8006 35.392C77.7695 35.4201 77.745 35.4511 77.7271 35.4851C77.7034 35.5301 77.6917 35.5805 77.6917 35.6338C77.6917 35.6956 77.7063 35.7522 77.7359 35.8023C77.7659 35.8527 77.806 35.8907 77.8561 35.9159C77.9047 35.94 77.9694 35.9521 78.0483 35.9521C78.1228 35.952 78.1856 35.9393 78.235 35.914ZM78.0896 35.271C78.0658 35.2955 78.0234 35.2962 77.9989 35.271C77.9862 35.2579 77.9799 35.2425 77.9799 35.2232C77.9799 35.2034 77.9854 35.1892 77.9975 35.1771C78.0084 35.1654 78.0223 35.16 78.0406 35.16C78.0618 35.16 78.0775 35.1654 78.0899 35.1775C78.1016 35.1885 78.1071 35.2027 78.1071 35.2221C78.1071 35.2433 78.1012 35.259 78.0896 35.271ZM77.9668 35.5553C77.9883 35.5359 78.015 35.5264 78.0475 35.5264C78.079 35.5264 78.1042 35.5359 78.1246 35.5545C78.1444 35.5735 78.1539 35.5951 78.1539 35.6221C78.1539 35.6492 78.1451 35.67 78.1265 35.6868C78.0888 35.7219 78.0044 35.7226 77.9653 35.685C77.9456 35.6663 77.9365 35.6451 77.9365 35.6185C77.9365 35.594 77.9463 35.5739 77.9668 35.5553ZM80.3661 41.017V40.2666H80.1484L80.2949 40.0287H80.6131V41.017H80.3661ZM77.3263 40.3276C77.2737 40.3798 77.2478 40.4434 77.2478 40.5216C77.2478 40.576 77.2595 40.6243 77.2825 40.6655C77.3059 40.7072 77.338 40.739 77.3808 40.7627C77.4593 40.8069 77.5667 40.8088 77.6467 40.7733C77.684 40.7565 77.7267 40.7244 77.7735 40.678L77.8006 40.6513L77.9704 40.8281L77.9441 40.8541C77.8722 40.9246 77.8057 40.9717 77.741 40.9988C77.6767 41.0262 77.6029 41.04 77.521 41.04C77.3694 41.04 77.243 40.9911 77.1458 40.8943C77.0486 40.7978 76.9993 40.6721 76.9993 40.5212C76.9993 40.4237 77.0216 40.3356 77.0662 40.2596C77.11 40.1836 77.1743 40.1215 77.2569 40.0751C77.4078 39.99 77.5934 39.9823 77.7563 40.0569C77.8312 40.0908 77.8963 40.1398 77.95 40.2023L77.973 40.2293L77.7984 40.3955L77.7728 40.3681C77.6968 40.2878 77.6142 40.2487 77.5207 40.2487C77.4432 40.2487 77.3797 40.2746 77.3263 40.3276ZM78.3201 41.04C78.4089 41.04 78.4856 41.0086 78.5481 40.9465C78.6109 40.8844 78.6427 40.8073 78.6427 40.7178C78.6427 40.6254 78.612 40.5468 78.5506 40.4843C78.5035 40.4365 78.4483 40.4065 78.3855 40.3952L78.5368 40.1007L78.3219 39.9929L78.0702 40.4854C78.0391 40.5457 78.0183 40.5921 78.0092 40.6235C77.9997 40.6546 77.9949 40.6871 77.9949 40.7196C77.9949 40.8033 78.026 40.8782 78.0874 40.9425C78.1495 41.0072 78.2277 41.04 78.3201 41.04ZM78.2397 40.7152C78.2397 40.6897 78.2474 40.6692 78.2627 40.6528C78.2773 40.637 78.2945 40.6294 78.3164 40.6294C78.3402 40.6294 78.3592 40.6371 78.3742 40.6531C78.3902 40.6696 78.3979 40.6893 78.3979 40.7152C78.3979 40.7412 78.3899 40.762 78.3742 40.7784C78.3424 40.8106 78.2974 40.8132 78.2638 40.7781C78.2478 40.7613 78.2397 40.7408 78.2397 40.7152ZM80.8853 40.9487L81.2185 40.2666H80.8579V40.0287H81.532L81.5283 40.1738L81.0994 41.0528L80.8853 40.9487ZM79.726 35.4716C79.7578 35.4099 79.7779 35.3649 79.787 35.3342C79.7965 35.3035 79.8013 35.2714 79.8013 35.2385C79.8013 35.1545 79.7702 35.0792 79.7088 35.0153C79.6467 34.9506 79.5685 34.9177 79.4757 34.9177C79.3873 34.9177 79.3106 34.9491 79.2481 35.0112C79.1853 35.0734 79.1535 35.1505 79.1535 35.2407C79.1535 35.3328 79.1842 35.411 79.2456 35.4734C79.2927 35.5217 79.3486 35.5516 79.4114 35.5629L79.2594 35.8578L79.4743 35.9648L79.726 35.4716ZM79.5565 35.2429C79.5565 35.2681 79.5488 35.2882 79.5335 35.305C79.5024 35.3379 79.4516 35.335 79.422 35.3043C79.4059 35.2878 79.3983 35.2677 79.3983 35.2425C79.3983 35.2169 79.4063 35.1961 79.4224 35.1797C79.4388 35.1632 79.4567 35.1552 79.479 35.1552C79.4995 35.1552 79.5163 35.1632 79.5324 35.1797C79.5488 35.1968 79.5565 35.2169 79.5565 35.2429ZM78.3844 34.4135C78.4049 34.3927 78.4147 34.3664 78.4147 34.3328C78.4147 34.2999 78.4056 34.274 78.387 34.2542C78.3596 34.225 78.3259 34.2151 78.2843 34.2356C78.2697 34.2433 78.2547 34.255 78.2401 34.2707L78.2251 34.2864L78.0267 34.2418L78.1513 33.6686H78.6471V33.9042H78.3417L78.323 33.9868C78.3267 33.9868 78.33 33.9868 78.3332 33.9868C78.4264 33.9868 78.505 34.0189 78.5667 34.0829C78.6285 34.1457 78.6595 34.2276 78.6595 34.3258C78.6595 34.4248 78.6255 34.5092 78.5579 34.5772C78.49 34.6455 78.4067 34.6799 78.3099 34.6799C78.224 34.6799 78.1487 34.655 78.0859 34.6057C78.0231 34.5556 77.9818 34.4873 77.9628 34.4022L77.9525 34.3569H78.2046L78.2152 34.3774C78.2262 34.4 78.2404 34.4164 78.258 34.4278C78.2963 34.453 78.3512 34.449 78.3844 34.4135ZM83.7406 36.716C83.7406 36.8424 83.7545 36.9378 83.783 37.0076C83.8118 37.0795 83.8535 37.134 83.9064 37.1702C83.9598 37.206 84.0248 37.2242 84.1008 37.2242C84.1775 37.2242 84.2422 37.206 84.293 37.1702C84.3438 37.1343 84.3847 37.0788 84.4139 37.0046C84.4428 36.9316 84.4567 36.8344 84.4567 36.7072C84.4567 36.583 84.4428 36.484 84.4147 36.4128C84.3858 36.3382 84.3434 36.282 84.2893 36.2454C84.2349 36.2085 84.1699 36.1899 84.0957 36.1899C83.981 36.1899 83.8896 36.237 83.8242 36.3302C83.768 36.4131 83.7406 36.5395 83.7406 36.716ZM83.989 36.7197C83.989 36.6345 83.9949 36.5699 84.0058 36.5275C84.0157 36.4895 84.0292 36.4632 84.046 36.4493C84.0614 36.4365 84.0793 36.4299 84.0997 36.4299C84.1183 36.4299 84.1461 36.4354 84.1728 36.48C84.1889 36.507 84.2082 36.5688 84.2082 36.7094C84.2082 36.8205 84.1947 36.8994 84.168 36.9436C84.1447 36.9831 84.1191 36.9882 84.0997 36.9882C84.0804 36.9882 84.0519 36.9831 84.0248 36.9396C84.0084 36.9137 83.989 36.8545 83.989 36.7197ZM75.1926 31.0887L74.9409 31.5813C74.9098 31.6415 74.889 31.6879 74.8799 31.7194C74.8704 31.7504 74.8656 31.7829 74.8656 31.8155C74.8656 31.8991 74.8967 31.974 74.9581 32.0383C75.0202 32.103 75.0984 32.1359 75.1908 32.1359C75.2796 32.1359 75.3563 32.1044 75.4188 32.0423C75.4816 31.9802 75.5134 31.9031 75.5134 31.8136C75.5134 31.7212 75.4827 31.6426 75.4213 31.5802C75.3742 31.5323 75.319 31.5023 75.2562 31.491L75.4074 31.1965L75.1926 31.0887ZM75.2686 31.8111C75.2686 31.837 75.2606 31.8578 75.2449 31.8743C75.2127 31.9061 75.1681 31.909 75.1345 31.8739C75.1185 31.8571 75.1104 31.8366 75.1104 31.8111C75.1104 31.7855 75.1181 31.765 75.1334 31.7486C75.148 31.7329 75.1652 31.7252 75.1871 31.7252C75.2109 31.7252 75.2299 31.7329 75.2449 31.749C75.2609 31.7654 75.2686 31.7851 75.2686 31.8111ZM75.2708 34.4172C75.2902 34.3982 75.2997 34.3755 75.2997 34.3481C75.2997 34.3182 75.2869 34.294 75.2598 34.2725C75.2303 34.2491 75.1857 34.237 75.1265 34.2363L75.0896 34.236V34.0153L75.1239 34.0127C75.17 34.0091 75.1933 34.0021 75.2047 33.9966C75.2186 33.9901 75.2295 33.9809 75.2372 33.9696C75.2445 33.9586 75.2482 33.9477 75.2482 33.9364C75.2482 33.9217 75.2434 33.9111 75.2335 33.9016C75.2273 33.8958 75.2156 33.8874 75.1908 33.8874C75.1736 33.8874 75.1594 33.8925 75.1455 33.9027C75.132 33.913 75.1225 33.9261 75.117 33.9426L75.109 33.9685H74.8718L74.8773 33.9265C74.8872 33.8509 74.9153 33.7891 74.9606 33.7427C75.0235 33.678 75.1027 33.6455 75.1966 33.6455C75.2807 33.6455 75.3526 33.6729 75.4107 33.727C75.4692 33.7814 75.4984 33.8479 75.4984 33.9239C75.4984 33.9718 75.4853 34.016 75.459 34.0558C75.4458 34.0756 75.4297 34.0935 75.4104 34.1095C75.4425 34.1278 75.4692 34.1516 75.4911 34.1804C75.5273 34.2283 75.5456 34.2849 75.5456 34.3488C75.5456 34.4409 75.5112 34.5202 75.4433 34.5841C75.376 34.6477 75.2898 34.6799 75.1868 34.6799C75.0881 34.6799 75.0067 34.6495 74.9438 34.5892C74.881 34.529 74.8463 34.4468 74.8408 34.3456L74.8386 34.3061H75.0823L75.087 34.3375C75.0929 34.3759 75.1057 34.4036 75.1247 34.4208C75.1612 34.4548 75.2317 34.4544 75.2708 34.4172ZM77.3906 30.2481C77.41 30.2115 77.4202 30.179 77.4202 30.1516C77.4202 30.1268 77.4122 30.1067 77.3961 30.091C77.3636 30.0588 77.3029 30.0562 77.2668 30.0964C77.2478 30.1176 77.2379 30.1476 77.2364 30.1856L77.2353 30.2218H76.9906L76.9924 30.1827C76.9971 30.0752 77.0318 29.9883 77.0961 29.9251C77.1608 29.8619 77.2437 29.8297 77.3431 29.8297C77.4049 29.8297 77.4604 29.8429 77.5079 29.8692C77.5561 29.8955 77.5952 29.9346 77.6245 29.985C77.6529 30.0343 77.6676 30.0858 77.6676 30.1381C77.6676 30.1973 77.6508 30.2616 77.6175 30.3295C77.585 30.3953 77.5276 30.4709 77.4418 30.5608L77.399 30.6057H77.6749V30.841H76.9675V30.7051L77.2606 30.4059C77.3267 30.3394 77.3702 30.2861 77.3906 30.2481ZM77.6095 33.6327L77.3577 34.1253C77.3267 34.1855 77.3059 34.2319 77.2967 34.2634C77.2872 34.2944 77.2825 34.3269 77.2825 34.3594C77.2825 34.4431 77.3135 34.518 77.3749 34.5823C77.437 34.647 77.5152 34.6799 77.6076 34.6799C77.6964 34.6799 77.7732 34.6484 77.8356 34.5863C77.8985 34.5242 77.9303 34.4471 77.9303 34.3576C77.9303 34.2652 77.8996 34.1866 77.8382 34.1242C77.7911 34.0763 77.7359 34.0463 77.673 34.035L77.8243 33.7405L77.6095 33.6327ZM77.6855 34.3551C77.6855 34.381 77.6774 34.4018 77.6617 34.4183C77.6303 34.4504 77.585 34.453 77.5514 34.4179C77.5353 34.4011 77.5273 34.3806 77.5273 34.3551C77.5273 34.3295 77.5349 34.309 77.5503 34.2926C77.5649 34.2769 77.5821 34.2692 77.604 34.2692C77.6277 34.2692 77.6467 34.2769 77.6617 34.293C77.6778 34.3094 77.6855 34.3291 77.6855 34.3551ZM77.33 38.7211L77.0782 39.2136C77.0472 39.2739 77.0264 39.3203 77.0172 39.3517C77.0077 39.3828 77.003 39.4153 77.003 39.4478C77.003 39.5315 77.034 39.6064 77.0954 39.6707C77.1575 39.7353 77.2357 39.7682 77.3281 39.7682C77.4169 39.7682 77.4937 39.7368 77.5561 39.6747C77.619 39.6126 77.6508 39.5355 77.6508 39.446C77.6508 39.3535 77.6201 39.275 77.5587 39.2125C77.5116 39.1646 77.4564 39.1347 77.3935 39.1234L77.5448 38.8289L77.33 38.7211ZM77.406 39.4434C77.406 39.4694 77.3979 39.4902 77.3822 39.5066C77.3508 39.5388 77.3051 39.5413 77.2719 39.5063C77.2558 39.4895 77.2478 39.469 77.2478 39.4434C77.2478 39.4178 77.2554 39.3974 77.2708 39.3809C77.2854 39.3652 77.3026 39.3576 77.3245 39.3576C77.3482 39.3576 77.3672 39.3652 77.3822 39.3813C77.3983 39.3977 77.406 39.4175 77.406 39.4434ZM74.8806 37.0076C74.9095 37.0795 74.9511 37.134 75.0041 37.1702C75.0574 37.206 75.1225 37.2242 75.1985 37.2242C75.2752 37.2242 75.3399 37.206 75.3906 37.1702C75.4414 37.1343 75.4824 37.0788 75.5116 37.0046C75.5244 36.9725 75.5339 36.936 75.5412 36.8943V37.0138H75.9401V37.2012H76.1849V37.0138H76.266V36.7781H76.1849V36.1899H75.954L75.5525 36.7869C75.554 36.7617 75.5543 36.7354 75.5543 36.7072C75.5543 36.583 75.5404 36.484 75.5123 36.4128C75.4834 36.3382 75.4411 36.282 75.387 36.2454C75.3325 36.2085 75.2675 36.1899 75.1933 36.1899C75.0786 36.1899 74.9873 36.237 74.9219 36.3302C74.8656 36.4131 74.8382 36.5395 74.8382 36.716C74.8382 36.8424 74.8521 36.9378 74.8806 37.0076ZM75.8397 36.7781L75.9401 36.6305V36.7781H75.8397ZM75.0867 36.7197C75.0867 36.6345 75.0925 36.5699 75.1035 36.5275C75.1133 36.4895 75.1269 36.4632 75.1437 36.4493C75.159 36.4365 75.1769 36.4299 75.1974 36.4299C75.216 36.4299 75.2438 36.4354 75.2704 36.48C75.2865 36.507 75.3059 36.5688 75.3059 36.7094C75.3059 36.8205 75.2924 36.8994 75.2657 36.9436C75.2423 36.9831 75.2167 36.9882 75.1974 36.9882C75.178 36.9882 75.1495 36.9831 75.1225 36.9396C75.106 36.9137 75.0867 36.8545 75.0867 36.7197ZM77.33 34.9049L77.0782 35.3974C77.0472 35.4577 77.0264 35.5041 77.0172 35.5355C77.0077 35.5666 77.003 35.5991 77.003 35.6316C77.003 35.7153 77.034 35.7902 77.0954 35.8545C77.1575 35.9192 77.2357 35.952 77.3281 35.952C77.4169 35.952 77.4937 35.9206 77.5561 35.8585C77.619 35.7964 77.6508 35.7193 77.6508 35.6298C77.6508 35.5374 77.6201 35.4588 77.5587 35.3963C77.5116 35.3485 77.4564 35.3185 77.3935 35.3072L77.5448 35.0127L77.33 34.9049ZM77.406 35.6272C77.406 35.6532 77.3979 35.674 77.3822 35.6905C77.3508 35.7226 77.3051 35.7252 77.2719 35.6901C77.2558 35.6733 77.2478 35.6528 77.2478 35.6272C77.2478 35.6017 77.2554 35.5812 77.2708 35.5648C77.2854 35.5491 77.3026 35.5414 77.3245 35.5414C77.3482 35.5414 77.3672 35.5491 77.3822 35.5651C77.3983 35.5816 77.406 35.6013 77.406 35.6272ZM76.6248 33.4208L76.8766 32.9276C76.9083 32.8659 76.9284 32.8209 76.9376 32.7902C76.9471 32.7595 76.9518 32.7274 76.9518 32.6945C76.9518 32.6105 76.9208 32.5352 76.8594 32.4713C76.7973 32.4066 76.7191 32.3737 76.6263 32.3737C76.5379 32.3737 76.4612 32.4051 76.3987 32.4673C76.3358 32.5294 76.304 32.6065 76.304 32.6967C76.304 32.7888 76.3347 32.867 76.3961 32.9294C76.4432 32.9777 76.4991 33.0076 76.562 33.0189L76.41 33.3138L76.6248 33.4208ZM76.5488 32.6985C76.5488 32.6729 76.5569 32.6521 76.5729 32.6357C76.5894 32.6192 76.6073 32.6112 76.6296 32.6112C76.65 32.6112 76.6668 32.6192 76.6829 32.6357C76.6994 32.6529 76.707 32.6729 76.707 32.6989C76.707 32.7241 76.6994 32.7442 76.684 32.761C76.653 32.7935 76.6022 32.791 76.5726 32.7603C76.5565 32.7438 76.5488 32.7237 76.5488 32.6985ZM80.9675 33.1454C80.9869 33.1264 80.9964 33.1037 80.9964 33.0763C80.9964 33.0463 80.9836 33.0222 80.9565 33.0007C80.9269 32.9773 80.8824 32.9652 80.8232 32.9645L80.7863 32.9641V32.7435L80.8206 32.7409C80.8666 32.7373 80.89 32.7303 80.9014 32.7248C80.9152 32.7183 80.9262 32.7091 80.9339 32.6978C80.9412 32.6868 80.9448 32.6759 80.9448 32.6645C80.9448 32.6499 80.9401 32.6393 80.9302 32.6298C80.924 32.624 80.9123 32.6156 80.8875 32.6156C80.8703 32.6156 80.8561 32.6207 80.8422 32.6309C80.8287 32.6412 80.8192 32.6543 80.8137 32.6708L80.8056 32.6967H80.5685L80.574 32.6547C80.5839 32.5791 80.612 32.5173 80.6573 32.4709C80.7201 32.4062 80.7994 32.3737 80.8933 32.3737C80.9774 32.3737 81.0493 32.4011 81.1074 32.4552C81.1659 32.5096 81.1951 32.5761 81.1951 32.6521C81.1951 32.7 81.182 32.7442 81.1556 32.784C81.1425 32.8037 81.1264 32.8217 81.1071 32.8377C81.1392 32.856 81.1659 32.8797 81.1878 32.9086C81.224 32.9568 81.2422 33.0131 81.2422 33.077C81.2422 33.1691 81.2079 33.2484 81.1399 33.3123C81.0727 33.3759 80.9865 33.4081 80.8835 33.4081C80.7848 33.4081 80.7033 33.3777 80.6405 33.3174C80.5777 33.2572 80.5429 33.175 80.5375 33.0737L80.5353 33.0343H80.779L80.7837 33.0657C80.7896 33.1041 80.8023 33.1318 80.821 33.149C80.8582 33.183 80.9284 33.183 80.9675 33.1454ZM75.5543 31.8176C75.5543 31.8794 75.5689 31.936 75.5985 31.9861C75.6285 32.0365 75.6687 32.0745 75.7187 32.0997C75.7673 32.1238 75.832 32.1359 75.9109 32.1359C75.9855 32.1359 76.0483 32.1231 76.0976 32.0979C76.148 32.0719 76.189 32.0332 76.2185 31.9828C76.2481 31.932 76.2631 31.8765 76.2631 31.8176C76.2631 31.7632 76.2503 31.7117 76.2248 31.6646C76.2058 31.6298 76.1813 31.5995 76.151 31.5743C76.1718 31.5484 76.1871 31.5243 76.197 31.5012C76.2112 31.4691 76.2182 31.4333 76.2182 31.3953C76.2182 31.3423 76.2047 31.2923 76.1784 31.2466C76.151 31.1998 76.1141 31.1636 76.068 31.1388C75.9752 31.0887 75.8397 31.0898 75.7483 31.1384C75.7008 31.1633 75.6632 31.1987 75.6369 31.2437C75.6102 31.2886 75.5971 31.3387 75.5971 31.3927C75.5971 31.4329 75.6051 31.4713 75.6208 31.5067C75.6314 31.5308 75.6453 31.5535 75.6632 31.5758C75.6322 31.6039 75.6077 31.635 75.5898 31.6689C75.566 31.7139 75.5543 31.7643 75.5543 31.8176ZM75.9522 31.4548C75.9281 31.4793 75.8861 31.48 75.8616 31.4548C75.8488 31.4417 75.8426 31.4263 75.8426 31.407C75.8426 31.3872 75.8481 31.373 75.8601 31.3609C75.8711 31.3493 75.885 31.3438 75.9032 31.3438C75.9244 31.3438 75.9401 31.3493 75.9526 31.3613C75.9643 31.3723 75.9697 31.3865 75.9697 31.4059C75.9697 31.4271 75.9639 31.4428 75.9522 31.4548ZM75.9102 31.7102C75.9416 31.7102 75.9668 31.7197 75.9873 31.7384C76.007 31.7574 76.0165 31.7789 76.0165 31.806C76.0165 31.833 76.0077 31.8538 75.9891 31.8706C75.9515 31.9053 75.8671 31.9064 75.828 31.8688C75.8083 31.8502 75.7991 31.829 75.7991 31.8023C75.7991 31.7778 75.809 31.7577 75.8294 31.7391C75.851 31.7197 75.8777 31.7102 75.9102 31.7102ZM75.9051 32.3609L75.6533 32.8534C75.6223 32.9137 75.6015 32.9601 75.5923 32.9915C75.5828 33.0226 75.5781 33.0551 75.5781 33.0876C75.5781 33.1713 75.6091 33.2462 75.6705 33.3105C75.7326 33.3752 75.8108 33.4081 75.9032 33.4081C75.992 33.4081 76.0687 33.3766 76.1312 33.3145C76.1941 33.2524 76.2259 33.1753 76.2259 33.0858C76.2259 32.9934 76.1952 32.9148 76.1338 32.8523C76.0867 32.8045 76.0315 32.7745 75.9686 32.7632L76.1199 32.4687L75.9051 32.3609ZM75.9811 33.0832C75.9811 33.1092 75.973 33.13 75.9573 33.1465C75.9255 33.1782 75.8806 33.1812 75.847 33.1461C75.8309 33.1293 75.8229 33.1088 75.8229 33.0832C75.8229 33.0577 75.8305 33.0372 75.8459 33.0208C75.8605 33.0051 75.8777 32.9974 75.8996 32.9974C75.9233 32.9974 75.9423 33.0051 75.9573 33.0211C75.9734 33.0376 75.9811 33.0573 75.9811 33.0832ZM76.6782 36.6082C76.6975 36.5717 76.7078 36.5392 76.7078 36.5118C76.7078 36.4869 76.6997 36.4668 76.6836 36.4511C76.6511 36.419 76.5905 36.4164 76.5543 36.4566C76.5353 36.4778 76.5255 36.5078 76.524 36.5458L76.5229 36.5819H76.2781L76.2799 36.5428C76.2847 36.4354 76.3194 36.3485 76.3837 36.2853C76.4484 36.222 76.5313 36.1899 76.6307 36.1899C76.6924 36.1899 76.748 36.203 76.7955 36.2294C76.8437 36.2557 76.8828 36.2948 76.912 36.3452C76.9405 36.3945 76.9551 36.446 76.9551 36.4983C76.9551 36.5574 76.9383 36.6217 76.9051 36.6897C76.8725 36.7555 76.8152 36.8311 76.7293 36.921L76.6866 36.9659H76.9624V37.2012H76.2551V37.0653L76.5481 36.7661C76.6142 36.6996 76.6577 36.6462 76.6782 36.6082ZM76.6175 31.0887L76.3658 31.5813C76.3347 31.6415 76.3139 31.6879 76.3048 31.7194C76.2953 31.7504 76.2905 31.7829 76.2905 31.8155C76.2905 31.8991 76.3216 31.974 76.383 32.0383C76.4451 32.103 76.5233 32.1359 76.6157 32.1359C76.7045 32.1359 76.7812 32.1044 76.8437 32.0423C76.9065 31.9802 76.9383 31.9031 76.9383 31.8136C76.9383 31.7212 76.9076 31.6426 76.8462 31.5802C76.7991 31.5323 76.7439 31.5023 76.6811 31.491L76.8324 31.1965L76.6175 31.0887ZM76.6935 31.8111C76.6935 31.837 76.6855 31.8578 76.6698 31.8743C76.638 31.9061 76.593 31.909 76.5594 31.8739C76.5434 31.8571 76.5353 31.8366 76.5353 31.8111C76.5353 31.7855 76.543 31.765 76.5583 31.7486C76.5729 31.7329 76.5901 31.7252 76.612 31.7252C76.6358 31.7252 76.6548 31.7329 76.6698 31.749C76.6858 31.7654 76.6935 31.7851 76.6935 31.8111ZM75.619 35.8607L75.9522 35.1786H75.5916V34.9407H76.2657L76.262 35.0858L75.8331 35.9648L75.619 35.8607ZM76.2869 34.1611C76.2869 34.0635 76.3092 33.9755 76.3537 33.8995C76.3976 33.8235 76.4619 33.7614 76.5444 33.7149C76.695 33.6298 76.8813 33.6221 77.0439 33.6967C77.1188 33.7307 77.1838 33.7796 77.2375 33.8421L77.2606 33.8691L77.0859 34.0354L77.0603 34.008C76.9843 33.9276 76.9018 33.8885 76.8082 33.8885C76.7308 33.8885 76.6672 33.9144 76.6139 33.9674C76.5613 34.0197 76.5353 34.0832 76.5353 34.1614C76.5353 34.2159 76.547 34.2641 76.57 34.3054C76.5934 34.347 76.6256 34.3788 76.6683 34.4026C76.7469 34.4468 76.8543 34.4482 76.9343 34.4131C76.9716 34.3963 77.0143 34.3642 77.0611 34.3178L77.0881 34.2911L77.258 34.468L77.2317 34.4939C77.1597 34.5644 77.0932 34.6115 77.0285 34.6386C76.9642 34.666 76.8904 34.6799 76.8086 34.6799C76.657 34.6799 76.5306 34.6309 76.4334 34.5341C76.3362 34.4376 76.2869 34.3119 76.2869 34.1611ZM77.365 37.2012H77.6098V37.0138H77.691V36.7781H77.6098V36.1899H77.3789L76.9723 36.7946L76.9661 36.8041V37.0138H77.365V37.2012ZM77.2646 36.7781L77.365 36.6305V36.7781H77.2646ZM75.6705 34.5823C75.7326 34.647 75.8108 34.6799 75.9032 34.6799C75.992 34.6799 76.0687 34.6484 76.1312 34.5863C76.1941 34.5242 76.2259 34.4471 76.2259 34.3576C76.2259 34.2652 76.1952 34.1866 76.1338 34.1242C76.0867 34.0763 76.0315 34.0463 75.9686 34.035L76.1199 33.7405L75.9051 33.6327L75.6533 34.1253C75.6223 34.1855 75.6015 34.2319 75.5923 34.2634C75.5828 34.2944 75.5781 34.3269 75.5781 34.3594C75.5781 34.4431 75.6091 34.518 75.6705 34.5823ZM75.8229 34.3551C75.8229 34.3295 75.8305 34.309 75.8459 34.2926C75.8605 34.2769 75.8777 34.2692 75.8996 34.2692C75.9233 34.2692 75.9423 34.2769 75.9573 34.293C75.9734 34.3094 75.9811 34.3291 75.9811 34.3551C75.9811 34.381 75.973 34.4018 75.9573 34.4183C75.9255 34.4504 75.8806 34.453 75.847 34.4179C75.8309 34.4011 75.8229 34.3806 75.8229 34.3551ZM77.1436 38.4599C77.1922 38.484 77.2569 38.496 77.3358 38.496C77.4103 38.496 77.4732 38.4833 77.5225 38.458C77.5729 38.4321 77.6139 38.3934 77.6435 38.343C77.673 38.2922 77.688 38.2366 77.688 38.1778C77.688 38.1234 77.6752 38.0719 77.6497 38.0247C77.6307 37.99 77.6062 37.9597 77.5759 37.9345C77.5967 37.9085 77.612 37.8844 77.6219 37.8614C77.6361 37.8293 77.6431 37.7935 77.6431 37.7555C77.6431 37.7025 77.6296 37.6524 77.6033 37.6068C77.5759 37.56 77.539 37.5238 77.4929 37.499C77.4005 37.4489 77.2646 37.45 77.1732 37.4986C77.1257 37.5235 77.0881 37.5589 77.0618 37.6038C77.0351 37.6488 77.022 37.6988 77.022 37.7529C77.022 37.7931 77.03 37.8315 77.0457 37.8669C77.0563 37.891 77.0702 37.9137 77.0881 37.936C77.057 37.9641 77.0326 37.9951 77.0147 38.0291C76.9909 38.0741 76.9792 38.1245 76.9792 38.1778C76.9792 38.2396 76.9938 38.2962 77.0234 38.3463C77.0534 38.3967 77.0936 38.4347 77.1436 38.4599ZM77.3771 37.815C77.353 37.8395 77.311 37.8402 77.2865 37.815C77.2737 37.8019 77.2675 37.7865 77.2675 37.7672C77.2675 37.7474 77.273 37.7332 77.285 37.7211C77.296 37.7094 77.3099 37.7039 77.3281 37.7039C77.3493 37.7039 77.365 37.7094 77.3775 37.7215C77.3892 37.7324 77.3946 37.7467 77.3946 37.7661C77.3946 37.7872 77.3888 37.803 77.3771 37.815ZM77.3351 38.0704C77.3665 38.0704 77.3917 38.0799 77.4122 38.0985C77.4319 38.1175 77.4414 38.1391 77.4414 38.1661C77.4414 38.1932 77.4326 38.214 77.414 38.2308C77.3767 38.2655 77.292 38.2666 77.2529 38.229C77.2332 38.2103 77.224 38.1891 77.224 38.1625C77.224 38.138 77.2339 38.1179 77.2543 38.0993C77.2759 38.0799 77.3026 38.0704 77.3351 38.0704ZM76.429 39.7141C76.4823 39.75 76.5474 39.7682 76.6234 39.7682C76.7001 39.7682 76.7648 39.75 76.8155 39.7141C76.8663 39.6783 76.9073 39.6228 76.9365 39.5486C76.9653 39.4756 76.9792 39.3784 76.9792 39.2512C76.9792 39.127 76.9653 39.028 76.9372 38.9568C76.9083 38.8822 76.866 38.826 76.8119 38.7894C76.7575 38.7525 76.6924 38.7339 76.6183 38.7339C76.5035 38.7339 76.4122 38.781 76.3468 38.8742C76.2905 38.9571 76.2631 39.0835 76.2631 39.26C76.2631 39.3864 76.277 39.4818 76.3055 39.5516C76.3344 39.6235 76.376 39.678 76.429 39.7141ZM76.5116 39.2637C76.5116 39.1785 76.5174 39.1139 76.5284 39.0715C76.5382 39.0335 76.5518 39.0072 76.5686 38.9933C76.5839 38.9805 76.6018 38.9739 76.6223 38.9739C76.6409 38.9739 76.6687 38.9794 76.6953 39.024C76.7114 39.051 76.7308 39.1128 76.7308 39.2534C76.7308 39.3645 76.7173 39.4434 76.6906 39.4876C76.6672 39.5271 76.6416 39.5322 76.6223 39.5322C76.6029 39.5322 76.5744 39.5271 76.5474 39.4836C76.5309 39.4577 76.5116 39.3985 76.5116 39.2637ZM74.8806 33.1914C74.9095 33.2634 74.9511 33.3178 75.0041 33.354C75.0574 33.3898 75.1225 33.4081 75.1985 33.4081C75.2752 33.4081 75.3399 33.3898 75.3906 33.354C75.4414 33.3182 75.4824 33.2626 75.5116 33.1885C75.5404 33.1154 75.5543 33.0182 75.5543 32.8911C75.5543 32.7668 75.5404 32.6678 75.5123 32.5966C75.4834 32.5221 75.4411 32.4658 75.387 32.4293C75.3325 32.3924 75.2675 32.3737 75.1933 32.3737C75.0786 32.3737 74.9873 32.4209 74.9219 32.514C74.8656 32.597 74.8382 32.7234 74.8382 32.8998C74.8382 33.0263 74.8521 33.1216 74.8806 33.1914ZM75.0867 32.9035C75.0867 32.8184 75.0925 32.7537 75.1035 32.7113C75.1133 32.6733 75.1269 32.647 75.1437 32.6331C75.159 32.6203 75.1769 32.6138 75.1974 32.6138C75.216 32.6138 75.2438 32.6192 75.2704 32.6638C75.2865 32.6909 75.3059 32.7526 75.3059 32.8933C75.3059 33.0043 75.2924 33.0832 75.2657 33.1275C75.2423 33.1669 75.2167 33.172 75.1974 33.172C75.178 33.172 75.1495 33.1669 75.1225 33.1234C75.106 33.0975 75.0867 33.0383 75.0867 32.9035ZM74.8806 35.7354C74.9095 35.8074 74.9511 35.8618 75.0041 35.898C75.0574 35.9338 75.1225 35.952 75.1985 35.952C75.2752 35.952 75.3399 35.9338 75.3906 35.898C75.4414 35.8622 75.4824 35.8066 75.5116 35.7325C75.5404 35.6594 75.5543 35.5622 75.5543 35.4351C75.5543 35.3108 75.5404 35.2118 75.5123 35.1406C75.4834 35.0661 75.4411 35.0098 75.387 34.9732C75.3325 34.9363 75.2675 34.9177 75.1933 34.9177C75.0786 34.9177 74.9873 34.9648 74.9219 35.058C74.8656 35.1409 74.8382 35.2674 74.8382 35.4438C74.8382 35.5702 74.8521 35.6656 74.8806 35.7354ZM75.0867 35.4475C75.0867 35.3624 75.0925 35.2977 75.1035 35.2553C75.1133 35.2173 75.1269 35.191 75.1437 35.1771C75.159 35.1643 75.1769 35.1578 75.1974 35.1578C75.216 35.1578 75.2438 35.1632 75.2704 35.2078C75.2865 35.2348 75.3059 35.2966 75.3059 35.4373C75.3059 35.5483 75.2924 35.6272 75.2657 35.6715C75.2423 35.7109 75.2167 35.716 75.1974 35.716C75.178 35.716 75.1495 35.7109 75.1225 35.6674C75.106 35.6415 75.0867 35.5823 75.0867 35.4475ZM77.3373 32.1487L77.589 31.6554C77.6208 31.5937 77.6409 31.5487 77.65 31.518C77.6595 31.4874 77.6643 31.4552 77.6643 31.4223C77.6643 31.3383 77.6332 31.263 77.5718 31.1991C77.5097 31.1344 77.4315 31.1015 77.3387 31.1015C77.2503 31.1015 77.1736 31.133 77.1111 31.1951C77.0483 31.2572 77.0165 31.3343 77.0165 31.4245C77.0165 31.5166 77.0472 31.5948 77.1086 31.6572C77.1557 31.7055 77.2116 31.7354 77.2744 31.7468L77.1224 32.0416L77.3373 32.1487ZM77.2613 31.4263C77.2613 31.4008 77.2693 31.3799 77.2854 31.3635C77.3018 31.3471 77.3197 31.339 77.342 31.339C77.3625 31.339 77.3793 31.3471 77.3954 31.3635C77.4118 31.3807 77.4195 31.4008 77.4195 31.4267C77.4195 31.4519 77.4118 31.472 77.3965 31.4888C77.3654 31.5217 77.3146 31.5191 77.285 31.4881C77.269 31.4716 77.2613 31.4516 77.2613 31.4263ZM76.3314 35.8607L76.6647 35.1786H76.304V34.9407H76.9781L76.9745 35.0858L76.5456 35.9648L76.3314 35.8607ZM77.0165 32.3967H77.6906L77.6869 32.5418L77.258 33.4208L77.0439 33.3167L77.3771 32.6346H77.0165V32.3967H77.0165ZM76.25 39.7452H75.5426V39.6093L75.8357 39.3101C75.9018 39.2436 75.9453 39.1902 75.9657 39.1522C75.9851 39.1157 75.9953 39.0832 75.9953 39.0558C75.9953 39.0309 75.9873 39.0108 75.9712 38.9951C75.9387 38.9633 75.878 38.9604 75.8419 39.0006C75.8229 39.0218 75.813 39.0518 75.8115 39.0898L75.8104 39.1259H75.5656L75.5675 39.0868C75.5722 38.9794 75.6069 38.8925 75.6712 38.8292C75.7359 38.766 75.8188 38.7339 75.9182 38.7339C75.98 38.7339 76.0355 38.747 76.083 38.7734C76.1312 38.7997 76.1703 38.8387 76.1995 38.8892C76.228 38.9385 76.2427 38.99 76.2427 39.0423C76.2427 39.1014 76.2259 39.1657 76.1926 39.2337C76.1601 39.2995 76.1027 39.3751 76.0169 39.465L75.9741 39.5099H76.25V39.7452H76.25ZM76.262 37.6298L75.8331 38.5088L75.619 38.4047L75.9522 37.7226H75.5916V37.4847H76.2657L76.262 37.6298ZM76.6175 37.4489L76.3658 37.9414C76.3347 38.0017 76.3139 38.0481 76.3048 38.0795C76.2953 38.1106 76.2905 38.1431 76.2905 38.1756C76.2905 38.2593 76.3216 38.3342 76.383 38.3985C76.4451 38.4632 76.5233 38.496 76.6157 38.496C76.7045 38.496 76.7812 38.4646 76.8437 38.4025C76.9065 38.3404 76.9383 38.2633 76.9383 38.1738C76.9383 38.0814 76.9076 38.0028 76.8462 37.9403C76.7991 37.8925 76.7439 37.8625 76.6811 37.8512L76.8324 37.5567L76.6175 37.4489ZM76.6935 38.1712C76.6935 38.1972 76.6855 38.218 76.6698 38.2344C76.638 38.2662 76.593 38.2692 76.5594 38.2341C76.5434 38.2173 76.5353 38.1968 76.5353 38.1712C76.5353 38.1457 76.543 38.1252 76.5583 38.1088C76.5729 38.0931 76.5901 38.0854 76.612 38.0854C76.6358 38.0854 76.6548 38.0931 76.6698 38.1091C76.6858 38.1256 76.6935 38.1453 76.6935 38.1712ZM75.5375 30.841H74.8302V30.7051L75.1232 30.4059C75.1893 30.3394 75.2328 30.2861 75.2533 30.2481C75.2726 30.2115 75.2829 30.179 75.2829 30.1516C75.2829 30.1268 75.2748 30.1067 75.2588 30.091C75.2259 30.0588 75.1656 30.0562 75.1294 30.0964C75.1104 30.1176 75.1005 30.1476 75.0991 30.1856L75.098 30.2218H74.8532L74.855 30.1827C74.8598 30.0752 74.8945 29.9883 74.9588 29.9251C75.0235 29.8619 75.1064 29.8297 75.2058 29.8297C75.2675 29.8297 75.3231 29.8429 75.3706 29.8692C75.4188 29.8955 75.4579 29.9346 75.4871 29.985C75.5156 30.0343 75.5302 30.0858 75.5302 30.1381C75.5302 30.1973 75.5134 30.2616 75.4802 30.3295C75.4476 30.3953 75.3903 30.4709 75.3044 30.5608L75.2617 30.6057H75.5375V30.841H75.5375ZM75.9522 28.8184H75.5916V28.5806H76.2657L76.262 28.7256L75.8331 29.6047L75.619 29.5005L75.9522 28.8184ZM75.2398 28.8184H74.8791V28.5806H75.5532L75.5496 28.7256L75.1206 29.6047L74.9065 29.5005L75.2398 28.8184ZM75.6563 40.9494C75.5934 40.8891 75.5587 40.8069 75.5532 40.7057L75.551 40.6663H75.7947L75.7995 40.6977C75.8053 40.7361 75.8181 40.7638 75.8371 40.781C75.874 40.815 75.9442 40.8146 75.9833 40.7773C76.0026 40.7583 76.0121 40.7357 76.0121 40.7083C76.0121 40.6783 75.9993 40.6542 75.9723 40.6327C75.9427 40.6093 75.8981 40.5972 75.8389 40.5965L75.802 40.5961V40.3755L75.8364 40.3729C75.8824 40.3692 75.9058 40.3623 75.9171 40.3568C75.931 40.3502 75.942 40.3411 75.9496 40.3298C75.9569 40.3188 75.9606 40.3079 75.9606 40.2965C75.9606 40.2819 75.9559 40.2713 75.946 40.2618C75.9398 40.256 75.9281 40.2476 75.9032 40.2476C75.8861 40.2476 75.8718 40.2527 75.8579 40.2629C75.8444 40.2731 75.8349 40.2863 75.8294 40.3027L75.8214 40.3287H75.5843L75.5898 40.2867C75.5996 40.211 75.6278 40.1493 75.6731 40.1029C75.7359 40.0382 75.8152 40.0057 75.9091 40.0057C75.9931 40.0057 76.0651 40.0331 76.1232 40.0872C76.1813 40.1416 76.2109 40.2081 76.2109 40.2841C76.2109 40.332 76.1977 40.3762 76.1714 40.416C76.1583 40.4357 76.1422 40.4536 76.1228 40.4697C76.155 40.488 76.1816 40.5117 76.2036 40.5406C76.2397 40.5885 76.258 40.6451 76.258 40.709C76.258 40.8011 76.2237 40.8804 76.1557 40.9443C76.0885 41.0079 76.0023 41.04 75.8992 41.04C75.8006 41.04 75.7191 41.0097 75.6563 40.9494ZM75.1908 41.04C75.2796 41.04 75.3563 41.0086 75.4188 40.9465C75.4816 40.8844 75.5134 40.8073 75.5134 40.7178C75.5134 40.6254 75.4827 40.5468 75.4213 40.4843C75.3742 40.4365 75.319 40.4065 75.2562 40.3952L75.4074 40.1007L75.1926 39.9929L74.9409 40.4854C74.9098 40.5457 74.889 40.5921 74.8799 40.6235C74.8704 40.6546 74.8656 40.6871 74.8656 40.7196C74.8656 40.8033 74.8967 40.8782 74.9581 40.9425C75.0202 41.0072 75.0984 41.04 75.1908 41.04ZM75.1104 40.7152C75.1104 40.6897 75.1181 40.6692 75.1334 40.6528C75.148 40.637 75.1652 40.6294 75.1871 40.6294C75.2109 40.6294 75.2299 40.6371 75.2449 40.6531C75.2609 40.6696 75.2686 40.6893 75.2686 40.7152C75.2686 40.7412 75.2606 40.762 75.2449 40.7784C75.2127 40.8106 75.1681 40.8132 75.1345 40.7781C75.1185 40.7613 75.1104 40.7408 75.1104 40.7152ZM74.8791 41.3009H75.5532L75.5496 41.446L75.1206 42.325L74.9065 42.2209L75.2398 41.5388H74.8791V41.3009H74.8791ZM76.6157 29.5919C76.7045 29.5919 76.7812 29.5605 76.8437 29.4983C76.9065 29.4362 76.9383 29.3591 76.9383 29.2696C76.9383 29.1772 76.9076 29.0986 76.8462 29.0362C76.7991 28.9883 76.7439 28.9583 76.6811 28.947L76.8324 28.6525L76.6175 28.5448L76.3658 29.0373C76.3347 29.0975 76.3139 29.1439 76.3048 29.1754C76.2953 29.2064 76.2905 29.2389 76.2905 29.2715C76.2905 29.3551 76.3216 29.43 76.383 29.4943C76.4451 29.559 76.5233 29.5919 76.6157 29.5919ZM76.5353 29.2671C76.5353 29.2415 76.543 29.221 76.5583 29.2046C76.5729 29.1889 76.5901 29.1812 76.612 29.1812C76.6358 29.1812 76.6548 29.1889 76.6698 29.205C76.6858 29.2214 76.6935 29.2411 76.6935 29.2671C76.6935 29.293 76.6855 29.3138 76.6698 29.3303C76.638 29.3624 76.593 29.365 76.5594 29.3299C76.5434 29.3131 76.5353 29.2926 76.5353 29.2671ZM74.9566 39.6941C74.8938 39.644 74.8525 39.5757 74.8335 39.4906L74.8232 39.4452H75.0753L75.0859 39.4657C75.0969 39.4884 75.1111 39.5048 75.1287 39.5161C75.1667 39.5413 75.2219 39.5373 75.2551 39.5019C75.2756 39.481 75.2854 39.4547 75.2854 39.4211C75.2854 39.3882 75.2763 39.3623 75.2577 39.3426C75.2303 39.3126 75.1963 39.3038 75.155 39.3239C75.1404 39.3316 75.1254 39.3433 75.1108 39.359L75.0958 39.3747L74.8974 39.3302L75.022 38.7569H75.5178V38.9926H75.2123L75.1937 39.0751C75.1974 39.0751 75.2007 39.0751 75.2039 39.0751C75.2971 39.0751 75.3757 39.1073 75.4374 39.1712C75.4992 39.2341 75.5302 39.3159 75.5302 39.4142C75.5302 39.5132 75.4962 39.5976 75.4286 39.6656C75.3607 39.7339 75.2774 39.7682 75.1806 39.7682C75.0947 39.7682 75.0194 39.7434 74.9566 39.6941ZM76.2248 30.0526C76.1959 29.9781 76.1535 29.9218 76.0994 29.8853C76.045 29.8484 75.98 29.8297 75.9058 29.8297C75.7911 29.8297 75.6997 29.8769 75.6343 29.97C75.5781 30.053 75.5507 30.1794 75.5507 30.3558C75.5507 30.4823 75.5646 30.5776 75.5931 30.6474C75.6219 30.7194 75.6636 30.7738 75.7165 30.81C75.7699 30.8458 75.8349 30.8641 75.9109 30.8641C75.9876 30.8641 76.0523 30.8458 76.1031 30.81C76.1539 30.7742 76.1948 30.7186 76.224 30.6445C76.2368 30.6123 76.2463 30.5758 76.2536 30.5341V30.6536H76.6526V30.841H76.8974V30.6536H76.9785V30.418H76.8974V29.8297H76.6665L76.2649 30.4267C76.2664 30.4015 76.2668 30.3752 76.2668 30.3471C76.2668 30.2228 76.2529 30.1238 76.2248 30.0526ZM76.0183 30.3493C76.0183 30.4603 76.0048 30.5392 75.9781 30.5835C75.9548 30.6229 75.9292 30.628 75.9098 30.628C75.8905 30.628 75.862 30.6229 75.8349 30.5794C75.8185 30.5535 75.7991 30.4943 75.7991 30.3595C75.7991 30.2744 75.805 30.2097 75.8159 30.1673C75.8258 30.1293 75.8393 30.103 75.8561 30.0891C75.8715 30.0763 75.8894 30.0698 75.9098 30.0698C75.9285 30.0698 75.9562 30.0752 75.9829 30.1198C75.999 30.1469 76.0183 30.2086 76.0183 30.3493ZM76.5521 30.418L76.6526 30.2703V30.418H76.5521ZM79.1078 30.5864L79.0976 30.5411H79.3497L79.3603 30.5615C79.3712 30.5842 79.3855 30.6006 79.403 30.612C79.441 30.6372 79.4962 30.6331 79.5294 30.5977C79.5499 30.5769 79.5598 30.5506 79.5598 30.517C79.5598 30.4841 79.5506 30.4581 79.532 30.4384C79.5046 30.4088 79.471 30.3993 79.4293 30.4198C79.4147 30.4274 79.3997 30.4391 79.3851 30.4548L79.3701 30.4706L79.1717 30.426L79.2963 29.8527H79.7921V30.0884H79.4867L79.4681 30.171C79.4717 30.171 79.475 30.171 79.4783 30.171C79.5714 30.171 79.65 30.2031 79.7117 30.2671C79.7735 30.3299 79.8045 30.4117 79.8045 30.51C79.8045 30.609 79.7706 30.6934 79.703 30.7614C79.635 30.8297 79.5517 30.864 79.4549 30.864C79.369 30.864 79.2938 30.8392 79.2309 30.7899C79.1681 30.7398 79.1268 30.6715 79.1078 30.5864ZM79.5141 28.8184H79.1535V28.5806H79.8276L79.8239 28.7256L79.395 29.6047L79.1809 29.5005L79.5141 28.8184ZM78.699 29.2028L78.547 29.4976L78.7618 29.6047L79.0135 29.1114C79.0453 29.0497 79.0654 29.0047 79.0746 28.974C79.0841 28.9434 79.0888 28.9112 79.0888 28.8783C79.0888 28.7943 79.0578 28.719 78.9964 28.6551C78.9343 28.5904 78.8561 28.5575 78.7633 28.5575C78.6749 28.5575 78.5981 28.589 78.5357 28.6511C78.4728 28.7132 78.441 28.7903 78.441 28.8805C78.441 28.9726 78.4717 29.0508 78.5331 29.1133C78.5802 29.1615 78.6361 29.1914 78.699 29.2028ZM78.6858 28.8823C78.6858 28.8568 78.6939 28.8359 78.7099 28.8195C78.7264 28.8031 78.7443 28.795 78.7666 28.795C78.787 28.795 78.8038 28.8031 78.8199 28.8195C78.8363 28.8367 78.844 28.8568 78.844 28.8827C78.844 28.9079 78.8363 28.928 78.821 28.9448C78.7899 28.9773 78.7392 28.9751 78.7096 28.9441C78.6935 28.9276 78.6858 28.9076 78.6858 28.8823ZM79.8155 29.1717V29.3814H80.2145V29.5689H80.4593V29.3814H80.5404V29.1458H80.4593V28.5575H80.2284L79.8217 29.1622L79.8155 29.1717ZM80.114 29.1458L80.2145 28.9982V29.1458H80.114ZM78.0406 29.5919C78.1294 29.5919 78.2061 29.5605 78.2686 29.4983C78.3314 29.4362 78.3632 29.3591 78.3632 29.2696C78.3632 29.1772 78.3325 29.0986 78.2711 29.0362C78.224 28.9883 78.1688 28.9583 78.106 28.947L78.2573 28.6525L78.0424 28.5448L77.7907 29.0373C77.7596 29.0975 77.7388 29.1439 77.7297 29.1754C77.7202 29.2064 77.7154 29.2389 77.7154 29.2715C77.7154 29.3551 77.7465 29.43 77.8079 29.4943C77.87 29.559 77.9482 29.5919 78.0406 29.5919ZM77.9602 29.2671C77.9602 29.2415 77.9679 29.221 77.9832 29.2046C77.9978 29.1889 78.015 29.1812 78.0369 29.1812C78.0607 29.1812 78.0797 29.1889 78.0947 29.205C78.1107 29.2214 78.1184 29.2411 78.1184 29.2671C78.1184 29.293 78.1104 29.3138 78.0947 29.3303C78.0632 29.3624 78.0179 29.365 77.9843 29.3299C77.9683 29.3131 77.9602 29.2926 77.9602 29.2671ZM77.1436 29.5557C77.1922 29.5798 77.2569 29.5919 77.3358 29.5919C77.4103 29.5919 77.4732 29.5791 77.5225 29.5539C77.5729 29.5279 77.6139 29.4892 77.6435 29.4388C77.673 29.388 77.688 29.3325 77.688 29.2736C77.688 29.2192 77.6752 29.1677 77.6497 29.1206C77.6307 29.0859 77.6062 29.0555 77.5759 29.0303C77.5967 29.0044 77.612 28.9803 77.6219 28.9572C77.6361 28.9251 77.6431 28.8893 77.6431 28.8513C77.6431 28.7983 77.6296 28.7483 77.6033 28.7026C77.5759 28.6558 77.539 28.6197 77.4929 28.5948C77.4005 28.5448 77.2646 28.5458 77.1732 28.5944C77.1257 28.6193 77.0881 28.6547 77.0618 28.6997C77.0351 28.7446 77.022 28.7947 77.022 28.8487C77.022 28.8889 77.03 28.9273 77.0457 28.9627C77.0563 28.9868 77.0702 29.0095 77.0881 29.0318C77.057 29.0599 77.0326 29.091 77.0147 29.1249C76.9909 29.1699 76.9792 29.2203 76.9792 29.2736C76.9792 29.3354 76.9938 29.392 77.0234 29.4421C77.0534 29.4925 77.0936 29.5305 77.1436 29.5557ZM77.3771 28.9108C77.353 28.9357 77.311 28.9361 77.2865 28.9108C77.2737 28.8977 77.2675 28.8823 77.2675 28.863C77.2675 28.8433 77.273 28.829 77.285 28.8169C77.296 28.8053 77.3099 28.7998 77.3281 28.7998C77.3493 28.7998 77.365 28.8053 77.3775 28.8173C77.3892 28.8283 77.3946 28.8425 77.3946 28.8619C77.3946 28.8831 77.3888 28.8988 77.3771 28.9108ZM77.3351 29.1662C77.3665 29.1662 77.3917 29.1757 77.4122 29.1944C77.4319 29.2134 77.4414 29.2349 77.4414 29.262C77.4414 29.289 77.4326 29.3098 77.414 29.3266C77.3767 29.3613 77.292 29.3624 77.2529 29.3248C77.2332 29.3062 77.224 29.285 77.224 29.2583C77.224 29.2338 77.2339 29.2137 77.2543 29.1951C77.2759 29.1757 77.3026 29.1662 77.3351 29.1662ZM78.3223 29.8297H78.0914L77.6847 30.4344L77.6785 30.4439V30.6536H78.0775V30.841H78.3223V30.6536H78.4034V30.418H78.3223V29.8297ZM77.977 30.418L78.0775 30.2703V30.418H77.977ZM78.699 30.4749L78.547 30.7698L78.7618 30.8768L79.0135 30.3836C79.0453 30.3219 79.0654 30.2769 79.0746 30.2462C79.0841 30.2155 79.0888 30.1834 79.0888 30.1505C79.0888 30.0665 79.0578 29.9912 78.9964 29.9273C78.9343 29.8626 78.8561 29.8297 78.7633 29.8297C78.6749 29.8297 78.5981 29.8611 78.5357 29.9233C78.4728 29.9854 78.441 30.0625 78.441 30.1527C78.441 30.2448 78.4717 30.323 78.5331 30.3854C78.5802 30.4337 78.6361 30.4636 78.699 30.4749ZM78.6858 30.1545C78.6858 30.1289 78.6939 30.1081 78.7099 30.0917C78.7264 30.0752 78.7443 30.0672 78.7666 30.0672C78.787 30.0672 78.8038 30.0752 78.8199 30.0917C78.8363 30.1089 78.844 30.1289 78.844 30.1549C78.844 30.1801 78.8363 30.2002 78.821 30.217C78.7899 30.2499 78.7392 30.2473 78.7096 30.2163C78.6935 30.1998 78.6858 30.1797 78.6858 30.1545ZM83.5031 40.0612C83.4486 40.0243 83.3836 40.0057 83.3094 40.0057C83.1947 40.0057 83.1034 40.0528 83.038 40.146C82.9817 40.2289 82.9543 40.3554 82.9543 40.5318C82.9543 40.6582 82.9682 40.7536 82.9967 40.8234C83.0256 40.8954 83.0672 40.9498 83.1202 40.986C83.1735 41.0218 83.2386 41.04 83.3146 41.04C83.3913 41.04 83.456 41.0218 83.5067 40.986C83.5575 40.9502 83.5984 40.8946 83.6277 40.8205C83.6565 40.7474 83.6704 40.6502 83.6704 40.5231C83.6704 40.3988 83.6565 40.2998 83.6284 40.2286C83.5995 40.154 83.5572 40.0978 83.5031 40.0612ZM83.422 40.5253C83.422 40.6363 83.4085 40.7152 83.3818 40.7594C83.3584 40.7989 83.3328 40.804 83.3135 40.804C83.2941 40.804 83.2656 40.7989 83.2386 40.7554C83.2221 40.7295 83.2028 40.6703 83.2028 40.5355C83.2028 40.4504 83.2086 40.3857 83.2196 40.3433C83.2294 40.3053 83.243 40.279 83.2598 40.2651C83.2751 40.2523 83.293 40.2458 83.3135 40.2458C83.3321 40.2458 83.3599 40.2512 83.3865 40.2958C83.4026 40.3228 83.422 40.3846 83.422 40.5253ZM82.3858 42.0539H82.6617V42.2892H81.9543V42.1533L82.2473 41.8541C82.3135 41.7876 82.357 41.7342 82.3774 41.6962C82.3968 41.6597 82.407 41.6272 82.407 41.5998C82.407 41.5749 82.399 41.5548 82.3829 41.5391C82.3504 41.507 82.2897 41.5044 82.2536 41.5446C82.2346 41.5658 82.2247 41.5957 82.2232 41.6337L82.2221 41.6699H81.9773L81.9792 41.6308C81.9839 41.5234 82.0186 41.4364 82.0829 41.3732C82.1476 41.31 82.2305 41.2779 82.3299 41.2779C82.3917 41.2779 82.4472 41.291 82.4947 41.3173C82.5429 41.3437 82.582 41.3827 82.6112 41.4332C82.6397 41.4825 82.6544 41.534 82.6544 41.5862C82.6544 41.6454 82.6375 41.7097 82.6043 41.7777C82.5718 41.8435 82.5144 41.9191 82.4286 42.009L82.3858 42.0539ZM82.6653 40.7817H82.9412V41.017H82.2338V40.8811L82.5268 40.5819C82.593 40.5154 82.6365 40.462 82.6569 40.424C82.6763 40.3875 82.6865 40.355 82.6865 40.3276C82.6865 40.3027 82.6785 40.2826 82.6624 40.2669C82.6295 40.2351 82.5692 40.2322 82.5331 40.2724C82.5141 40.2936 82.5042 40.3236 82.5027 40.3616L82.5016 40.3977H82.2568L82.2587 40.3586C82.2634 40.2512 82.2981 40.1643 82.3624 40.1011C82.4271 40.0379 82.51 40.0057 82.6094 40.0057C82.6712 40.0057 82.7267 40.0189 82.7742 40.0452C82.8224 40.0715 82.8615 40.1106 82.8907 40.161C82.9192 40.2103 82.9339 40.2618 82.9339 40.3141C82.9339 40.3733 82.917 40.4376 82.8838 40.5055C82.8513 40.5713 82.7939 40.6469 82.7081 40.7368L82.6653 40.7817ZM80.9554 41.6674L81.1067 41.3729L80.8919 41.2651L80.6401 41.7576C80.6091 41.8179 80.5882 41.8643 80.5791 41.8957C80.5696 41.9268 80.5649 41.9593 80.5649 41.9918C80.5649 42.0755 80.5959 42.1504 80.6573 42.2147C80.7194 42.2793 80.7976 42.3122 80.89 42.3122C80.9788 42.3122 81.0555 42.2808 81.118 42.2187C81.1809 42.1566 81.2126 42.0795 81.2126 41.99C81.2126 41.8975 81.182 41.819 81.1206 41.7565C81.0734 41.7086 81.0183 41.6787 80.9554 41.6674ZM80.9679 41.9874C80.9679 42.0134 80.9598 42.0342 80.9441 42.0506C80.912 42.0828 80.8674 42.0853 80.8338 42.0503C80.8177 42.0335 80.8097 42.013 80.8097 41.9874C80.8097 41.9618 80.8173 41.9414 80.8327 41.9249C80.8473 41.9092 80.8645 41.9016 80.8864 41.9016C80.9101 41.9016 80.9291 41.9092 80.9441 41.9253C80.9602 41.9417 80.9679 41.9615 80.9679 41.9874ZM75.5916 41.3009H76.2657L76.262 41.446L75.8331 42.325L75.619 42.2209L75.9522 41.5388H75.5916V41.3009ZM80.7972 30.2218H80.5524L80.5543 30.1827C80.559 30.0752 80.5937 29.9883 80.658 29.9251C80.7227 29.8619 80.8056 29.8297 80.905 29.8297C80.9668 29.8297 81.0223 29.8429 81.0698 29.8692C81.118 29.8955 81.1571 29.9346 81.1863 29.985C81.2148 30.0343 81.2295 30.0858 81.2295 30.1381C81.2295 30.1973 81.2126 30.2616 81.1794 30.3295C81.1469 30.3953 81.0895 30.4709 81.0037 30.5608L80.9609 30.6057H81.2368V30.841H80.5294V30.7051L80.8224 30.4059C80.8886 30.3394 80.9321 30.2861 80.9525 30.2481C80.9719 30.2115 80.9821 30.179 80.9821 30.1516C80.9821 30.1268 80.9741 30.1067 80.958 30.091C80.9251 30.0588 80.8648 30.0562 80.8287 30.0964C80.8097 30.1176 80.7998 30.1476 80.7983 30.1856L80.7972 30.2218ZM84.6795 37.9403C84.6324 37.8925 84.5772 37.8625 84.5144 37.8512L84.6657 37.5567L84.4508 37.4489L84.1991 37.9414C84.168 38.0017 84.1472 38.0481 84.1381 38.0795C84.1286 38.1106 84.1238 38.1431 84.1238 38.1756C84.1238 38.2593 84.1549 38.3342 84.2163 38.3985C84.2784 38.4632 84.3566 38.496 84.449 38.496C84.5378 38.496 84.6145 38.4646 84.677 38.4025C84.7398 38.3404 84.7716 38.2633 84.7716 38.1738C84.7716 38.0814 84.7409 38.0028 84.6795 37.9403ZM84.5268 38.1712C84.5268 38.1972 84.5188 38.218 84.5031 38.2344C84.4716 38.2662 84.426 38.2692 84.3927 38.2341C84.3767 38.2173 84.3686 38.1968 84.3686 38.1712C84.3686 38.1457 84.3763 38.1252 84.3916 38.1088C84.4063 38.0931 84.4234 38.0854 84.4453 38.0854C84.4691 38.0854 84.4881 38.0931 84.5031 38.1091C84.5191 38.1256 84.5268 38.1453 84.5268 38.1712ZM83.4516 39.5099H83.7274V39.7452H83.0201V39.6093L83.3131 39.3101C83.3792 39.2436 83.4227 39.1902 83.4432 39.1522C83.4625 39.1157 83.4728 39.0832 83.4728 39.0558C83.4728 39.0309 83.4647 39.0108 83.4486 38.9951C83.4161 38.9633 83.3555 38.9604 83.3193 39.0006C83.3003 39.0218 83.2904 39.0518 83.289 39.0898L83.2879 39.1259H83.0431L83.0449 39.0868C83.0497 38.9794 83.0844 38.8925 83.1487 38.8292C83.2134 38.766 83.2963 38.7339 83.3957 38.7339C83.4574 38.7339 83.5129 38.747 83.5604 38.7734C83.6087 38.7997 83.6478 38.8387 83.677 38.8892C83.7055 38.9385 83.7201 38.99 83.7201 39.0423C83.7201 39.1014 83.7033 39.1657 83.6701 39.2337C83.6375 39.2995 83.5802 39.3751 83.4943 39.465L83.4516 39.5099ZM84.2893 38.7894C84.2349 38.7525 84.1699 38.7339 84.0957 38.7339C83.981 38.7339 83.8896 38.781 83.8242 38.8742C83.768 38.9571 83.7406 39.0835 83.7406 39.26C83.7406 39.3864 83.7544 39.4818 83.7829 39.5516C83.8118 39.6235 83.8535 39.678 83.9064 39.7142C83.9598 39.75 84.0248 39.7682 84.1008 39.7682C84.1775 39.7682 84.2422 39.75 84.293 39.7142C84.3438 39.6784 84.3847 39.6228 84.4139 39.5486C84.4428 39.4756 84.4567 39.3784 84.4567 39.2512C84.4567 39.127 84.4428 39.028 84.4146 38.9568C84.3858 38.8822 84.3434 38.826 84.2893 38.7894ZM84.2082 39.2534C84.2082 39.3645 84.1947 39.4434 84.168 39.4876C84.1447 39.5271 84.1191 39.5322 84.0997 39.5322C84.0804 39.5322 84.0519 39.5271 84.0248 39.4836C84.0084 39.4577 83.989 39.3985 83.989 39.2637C83.989 39.1785 83.9949 39.1139 84.0058 39.0715C84.0157 39.0335 84.0292 39.0072 84.046 38.9933C84.0614 38.9805 84.0793 38.9739 84.0997 38.9739C84.1183 38.9739 84.1461 38.9794 84.1728 39.024C84.1889 39.051 84.2082 39.1128 84.2082 39.2534ZM81.8491 41.7152C81.9108 41.7781 81.9419 41.8599 81.9419 41.9582C81.9419 42.0572 81.9079 42.1416 81.8403 42.2096C81.7724 42.2779 81.6891 42.3122 81.5923 42.3122C81.5064 42.3122 81.4311 42.2874 81.3683 42.2381C81.3054 42.188 81.2642 42.1197 81.2452 42.0345L81.2349 41.9892H81.487L81.4976 42.0097C81.5086 42.0324 81.5228 42.0488 81.5404 42.0601C81.5784 42.0853 81.6335 42.0813 81.6668 42.0459C81.6872 42.025 81.6971 41.9987 81.6971 41.9651C81.6971 41.9322 81.688 41.9063 81.6693 41.8866C81.6419 41.8566 81.6083 41.8475 81.5667 41.8679C81.5521 41.8756 81.5371 41.8873 81.5225 41.903L81.5075 41.9187L81.3091 41.8742L81.4337 41.3009H81.9295V41.5366H81.624L81.6054 41.6191C81.6091 41.6191 81.6123 41.6191 81.6156 41.6191C81.7088 41.6191 81.7874 41.6513 81.8491 41.7152ZM76.6811 40.3952L76.8324 40.1007L76.6175 39.9929L76.3658 40.4854C76.3347 40.5457 76.3139 40.5921 76.3048 40.6235C76.2953 40.6546 76.2905 40.6871 76.2905 40.7196C76.2905 40.8033 76.3216 40.8782 76.383 40.9425C76.4451 41.0072 76.5233 41.04 76.6157 41.04C76.7045 41.04 76.7812 41.0086 76.8437 40.9465C76.9065 40.8844 76.9383 40.8073 76.9383 40.7178C76.9383 40.6254 76.9076 40.5468 76.8462 40.4843C76.7991 40.4365 76.7439 40.4065 76.6811 40.3952ZM76.6935 40.7152C76.6935 40.7412 76.6855 40.762 76.6698 40.7784C76.638 40.8106 76.593 40.8132 76.5594 40.7781C76.5434 40.7613 76.5353 40.7408 76.5353 40.7152C76.5353 40.6897 76.543 40.6692 76.5583 40.6528C76.5729 40.637 76.5901 40.6294 76.612 40.6294C76.6358 40.6294 76.6548 40.6371 76.6698 40.6531C76.6858 40.6696 76.6935 40.6893 76.6935 40.7152ZM77.5759 41.7507C77.5967 41.7247 77.612 41.7006 77.6219 41.6776C77.6361 41.6454 77.6431 41.6096 77.6431 41.5716C77.6431 41.5187 77.6296 41.4686 77.6033 41.4229C77.5759 41.3762 77.539 41.34 77.4929 41.3152C77.4005 41.2655 77.2646 41.2658 77.1732 41.3148C77.1257 41.3396 77.0881 41.3751 77.0618 41.42C77.0351 41.465 77.022 41.515 77.022 41.5691C77.022 41.6093 77.03 41.6476 77.0457 41.6831C77.0563 41.7072 77.0702 41.7298 77.0881 41.7521C77.057 41.7803 77.0326 41.8113 77.0147 41.8453C76.9909 41.8902 76.9792 41.9407 76.9792 41.994C76.9792 42.0557 76.9938 42.1124 77.0234 42.1624C77.0534 42.2128 77.0936 42.2508 77.1436 42.2761C77.1922 42.3002 77.2569 42.3122 77.3358 42.3122C77.4103 42.3122 77.4732 42.2994 77.5225 42.2742C77.5729 42.2483 77.6139 42.2096 77.6434 42.1591C77.673 42.1084 77.688 42.0528 77.688 41.994C77.688 41.9396 77.6752 41.888 77.6497 41.8409C77.6307 41.8062 77.6062 41.7759 77.5759 41.7507ZM77.3771 41.6312C77.353 41.656 77.311 41.6564 77.2865 41.6312C77.2737 41.618 77.2675 41.6027 77.2675 41.5833C77.2675 41.5636 77.273 41.5494 77.285 41.5373C77.296 41.5256 77.3099 41.5201 77.3281 41.5201C77.3493 41.5201 77.365 41.5256 77.3775 41.5377C77.3892 41.5486 77.3946 41.5629 77.3946 41.5822C77.3946 41.6034 77.3888 41.6191 77.3771 41.6312ZM77.2543 41.9154C77.2759 41.8961 77.3026 41.8866 77.3351 41.8866C77.3665 41.8866 77.3917 41.8961 77.4122 41.9147C77.4319 41.9337 77.4414 41.9553 77.4414 41.9823C77.4414 42.0093 77.4326 42.0302 77.414 42.047C77.3767 42.0813 77.292 42.0831 77.2529 42.0451C77.2332 42.0265 77.224 42.0053 77.224 41.9786C77.224 41.9542 77.2339 41.9341 77.2543 41.9154ZM76.6811 41.6674L76.8324 41.3729L76.6175 41.2651L76.3658 41.7576C76.3347 41.8179 76.3139 41.8643 76.3048 41.8957C76.2953 41.9268 76.2905 41.9593 76.2905 41.9918C76.2905 42.0755 76.3216 42.1504 76.383 42.2147C76.4451 42.2793 76.5233 42.3122 76.6157 42.3122C76.7045 42.3122 76.7812 42.2808 76.8437 42.2187C76.9065 42.1566 76.9383 42.0795 76.9383 41.99C76.9383 41.8975 76.9076 41.819 76.8462 41.7565C76.7991 41.7086 76.7439 41.6787 76.6811 41.6674ZM76.6935 41.9874C76.6935 42.0134 76.6855 42.0342 76.6698 42.0506C76.638 42.0828 76.593 42.0853 76.5594 42.0503C76.5434 42.0335 76.5353 42.013 76.5353 41.9874C76.5353 41.9618 76.543 41.9414 76.5583 41.9249C76.5729 41.9092 76.5901 41.9016 76.612 41.9016C76.6358 41.9016 76.6548 41.9092 76.6698 41.9253C76.6858 41.9417 76.6935 41.9615 76.6935 41.9874ZM78.106 41.6674L78.2573 41.3729L78.0424 41.2651L77.7907 41.7576C77.7596 41.8179 77.7388 41.8643 77.7297 41.8957C77.7202 41.9268 77.7154 41.9593 77.7154 41.9918C77.7154 42.0755 77.7465 42.1504 77.8079 42.2147C77.87 42.2793 77.9482 42.3122 78.0406 42.3122C78.1294 42.3122 78.2061 42.2808 78.2686 42.2187C78.3314 42.1566 78.3632 42.0795 78.3632 41.99C78.3632 41.8975 78.3325 41.819 78.2711 41.7565C78.224 41.7086 78.1688 41.6787 78.106 41.6674ZM78.1184 41.9874C78.1184 42.0134 78.1104 42.0342 78.0947 42.0506C78.0632 42.0828 78.0179 42.0853 77.9843 42.0503C77.9683 42.0335 77.9602 42.013 77.9602 41.9874C77.9602 41.9618 77.9679 41.9414 77.9832 41.9249C77.9978 41.9092 78.015 41.9016 78.0369 41.9016C78.0607 41.9016 78.0797 41.9092 78.0947 41.9253C78.1107 41.9417 78.1184 41.9615 78.1184 41.9874ZM79.8239 41.446L79.395 42.325L79.1809 42.2209L79.5141 41.5388H79.1535V41.3009H79.8276L79.8239 41.446ZM80.4593 41.2779H80.2284L79.8217 41.8826L79.8155 41.8921V42.1018H80.2145V42.2892H80.4593V42.1018H80.5404V41.8661H80.4593V41.2779ZM80.114 41.8661L80.2145 41.7185V41.8661H80.114ZM78.7633 41.2779C78.6749 41.2779 78.5981 41.3093 78.5357 41.3714C78.4728 41.4335 78.441 41.5106 78.441 41.6009C78.441 41.6929 78.4717 41.7711 78.5331 41.8336C78.5802 41.8818 78.6361 41.9118 78.699 41.9231L78.547 42.218L78.7618 42.325L79.0136 41.8318C79.0453 41.77 79.0654 41.7251 79.0746 41.6944C79.0841 41.6637 79.0888 41.6316 79.0888 41.5987C79.0888 41.5146 79.0578 41.4394 78.9964 41.3754C78.9343 41.3108 78.8561 41.2779 78.7633 41.2779ZM78.844 41.6031C78.844 41.6283 78.8363 41.6484 78.821 41.6652C78.7899 41.6977 78.7392 41.6951 78.7096 41.6644C78.6935 41.648 78.6858 41.6279 78.6858 41.6027C78.6858 41.5771 78.6939 41.5563 78.7099 41.5399C78.7264 41.5234 78.7443 41.5154 78.7666 41.5154C78.787 41.5154 78.8038 41.5234 78.8199 41.5399C78.8363 41.557 78.844 41.5771 78.844 41.6031ZM83.141 35.6488L83.0983 35.6937H83.3741V35.929H82.6668V35.7931L82.9598 35.4939C83.0259 35.4274 83.0694 35.3741 83.0899 35.3361C83.1092 35.2995 83.1195 35.267 83.1195 35.2396C83.1195 35.2148 83.1114 35.1947 83.0953 35.1789C83.0628 35.1472 83.0022 35.1442 82.966 35.1844C82.947 35.2056 82.9371 35.2356 82.9357 35.2736L82.9346 35.3097H82.6898L82.6916 35.2707C82.6964 35.1632 82.7311 35.0763 82.7954 35.0131C82.8601 34.9499 82.943 34.9177 83.0424 34.9177C83.1041 34.9177 83.1596 34.9309 83.2071 34.9572C83.2554 34.9835 83.2945 35.0226 83.3237 35.073C83.3522 35.1223 83.3668 35.1738 83.3668 35.2261C83.3668 35.2853 83.35 35.3496 83.3168 35.4175C83.2842 35.4833 83.2269 35.5589 83.141 35.6488ZM82.3255 33.7858C82.2693 33.8688 82.2419 33.9952 82.2419 34.1717C82.2419 34.2981 82.2557 34.3934 82.2842 34.4632C82.3131 34.5352 82.3548 34.5896 82.4077 34.6258C82.4611 34.6616 82.5261 34.6799 82.6021 34.6799C82.6788 34.6799 82.7435 34.6616 82.7943 34.6258C82.8451 34.59 82.886 34.5345 82.9152 34.4603C82.9441 34.3872 82.958 34.29 82.958 34.1629C82.958 34.0387 82.9441 33.9397 82.9159 33.8684C82.8871 33.7939 82.8447 33.7376 82.7906 33.7011C82.7362 33.6642 82.6712 33.6455 82.597 33.6455C82.4823 33.6455 82.3909 33.6927 82.3255 33.7858ZM82.6741 33.9356C82.6902 33.9627 82.7095 34.0244 82.7095 34.1651C82.7095 34.2761 82.696 34.3551 82.6693 34.3993C82.6459 34.4387 82.6204 34.4438 82.601 34.4438C82.5817 34.4438 82.5532 34.4387 82.5261 34.3953C82.5097 34.3693 82.4903 34.3101 82.4903 34.1753C82.4903 34.0902 82.4962 34.0255 82.5071 33.9831C82.517 33.9451 82.5305 33.9188 82.5473 33.9049C82.5626 33.8922 82.5806 33.8856 82.601 33.8856C82.6196 33.8856 82.6474 33.8911 82.6741 33.9356ZM80.89 29.5919C80.9788 29.5919 81.0555 29.5605 81.118 29.4983C81.1809 29.4362 81.2126 29.3591 81.2126 29.2696C81.2126 29.1772 81.182 29.0986 81.1206 29.0362C81.0734 28.9883 81.0183 28.9583 80.9554 28.947L81.1067 28.6525L80.8919 28.5448L80.6401 29.0373C80.6091 29.0975 80.5882 29.1439 80.5791 29.1754C80.5696 29.2064 80.5649 29.2389 80.5649 29.2715C80.5649 29.3551 80.5959 29.43 80.6573 29.4943C80.7194 29.559 80.7976 29.5919 80.89 29.5919ZM80.8097 29.2671C80.8097 29.2415 80.8173 29.221 80.8327 29.2046C80.8473 29.1889 80.8645 29.1812 80.8864 29.1812C80.9101 29.1812 80.9291 29.1889 80.9441 29.205C80.9602 29.2214 80.9679 29.2411 80.9679 29.2671C80.9679 29.293 80.9598 29.3138 80.9441 29.3303C80.912 29.3624 80.8674 29.365 80.8338 29.3299C80.8177 29.3131 80.8097 29.2926 80.8097 29.2671ZM81.6043 34.9049L81.3526 35.3974C81.3215 35.4577 81.3007 35.5041 81.2916 35.5355C81.2821 35.5666 81.2773 35.5991 81.2773 35.6316C81.2773 35.7153 81.3084 35.7902 81.3697 35.8545C81.4319 35.9192 81.51 35.952 81.6025 35.952C81.6913 35.952 81.768 35.9206 81.8305 35.8585C81.8933 35.7964 81.9251 35.7193 81.9251 35.6298C81.9251 35.5374 81.8944 35.4588 81.833 35.3963C81.7859 35.3485 81.7307 35.3185 81.6679 35.3072L81.8191 35.0127L81.6043 34.9049ZM81.6803 35.6272C81.6803 35.6532 81.6723 35.674 81.6566 35.6905C81.6248 35.7226 81.5798 35.7252 81.5462 35.6901C81.5301 35.6733 81.5221 35.6528 81.5221 35.6272C81.5221 35.6017 81.5298 35.5812 81.5451 35.5648C81.5597 35.5491 81.5769 35.5414 81.5988 35.5414C81.6226 35.5414 81.6416 35.5491 81.6566 35.5651C81.6726 35.5816 81.6803 35.6013 81.6803 35.6272ZM83.0267 32.3609L82.7749 32.8534C82.7439 32.9137 82.723 32.9601 82.7139 32.9915C82.7044 33.0226 82.6997 33.0551 82.6997 33.0876C82.6997 33.1713 82.7307 33.2462 82.7921 33.3105C82.8542 33.3752 82.9324 33.4081 83.0248 33.4081C83.1136 33.4081 83.1903 33.3766 83.2528 33.3145C83.3156 33.2524 83.3474 33.1753 83.3474 33.0858C83.3474 32.9934 83.3167 32.9148 83.2554 32.8523C83.2082 32.8045 83.1531 32.7745 83.0902 32.7632L83.2415 32.4687L83.0267 32.3609ZM83.1026 33.0832C83.1026 33.1092 83.0946 33.13 83.0789 33.1465C83.0475 33.1782 83.0022 33.1812 82.9686 33.1461C82.9525 33.1293 82.9444 33.1088 82.9444 33.0832C82.9444 33.0577 82.9521 33.0372 82.9675 33.0208C82.9821 33.0051 82.9993 32.9974 83.0212 32.9974C83.0449 32.9974 83.0639 33.0051 83.0789 33.0211C83.095 33.0376 83.1026 33.0573 83.1026 33.0832ZM81.9956 34.3766L81.9529 34.4216H82.2287V34.6568H81.5214V34.5209L81.8144 34.2217C81.8805 34.1552 81.924 34.1019 81.9445 34.0639C81.9638 34.0273 81.9741 33.9948 81.9741 33.9674C81.9741 33.9426 81.966 33.9225 81.9499 33.9068C81.9174 33.8746 81.8568 33.8721 81.8206 33.9122C81.8016 33.9334 81.7917 33.9634 81.7903 34.0014L81.7892 34.0376H81.5444L81.5462 33.9985C81.551 33.8911 81.5857 33.8041 81.65 33.7409C81.7147 33.6777 81.7976 33.6455 81.897 33.6455C81.9587 33.6455 82.0142 33.6587 82.0617 33.685C82.11 33.7113 82.1491 33.7504 82.1783 33.8008C82.2068 33.8501 82.2214 33.9016 82.2214 33.9539C82.2214 34.0131 82.2046 34.0774 82.1714 34.1453C82.1388 34.2111 82.0815 34.2867 81.9956 34.3766ZM80.9317 36.5129C80.9317 36.6049 80.9624 36.6831 81.0238 36.7456C81.0709 36.7938 81.1268 36.8238 81.1896 36.8351L81.0376 37.13L81.2525 37.237L81.5042 36.7438C81.536 36.682 81.5561 36.6371 81.5652 36.6064C81.5747 36.5757 81.5795 36.5436 81.5795 36.5107C81.5795 36.4266 81.5484 36.3514 81.487 36.2874C81.4249 36.2228 81.3467 36.1899 81.2539 36.1899C81.1655 36.1899 81.0888 36.2213 81.0263 36.2834C80.9635 36.3455 80.9317 36.4226 80.9317 36.5129ZM81.1765 36.5147C81.1765 36.4891 81.1845 36.4683 81.2006 36.4519C81.217 36.4354 81.2349 36.4274 81.2572 36.4274C81.2777 36.4274 81.2945 36.4354 81.3106 36.4519C81.327 36.469 81.3347 36.4891 81.3347 36.5151C81.3347 36.5403 81.327 36.5604 81.3117 36.5772C81.2802 36.6097 81.2298 36.6075 81.2002 36.5764C81.1841 36.56 81.1765 36.5399 81.1765 36.5147ZM81.9456 37.2242C81.8597 37.2242 81.7844 37.1994 81.7216 37.1501C81.6587 37.1 81.6175 37.0317 81.5985 36.9466L81.5882 36.9012H81.8403L81.8509 36.9217C81.8619 36.9444 81.8761 36.9608 81.8937 36.9721C81.932 36.997 81.9865 36.9933 82.0201 36.9579C82.0405 36.9371 82.0504 36.9107 82.0504 36.8771C82.0504 36.8443 82.0413 36.8183 82.0226 36.7986C81.9952 36.769 81.9616 36.7599 81.92 36.7799C81.9054 36.7876 81.8904 36.7993 81.8758 36.815L81.8608 36.8307L81.6624 36.7862L81.787 36.2129H82.2828V36.4486H81.9773L81.9587 36.5311C81.9624 36.5311 81.9657 36.5311 81.9689 36.5311C82.0621 36.5311 82.1407 36.5633 82.2024 36.6272C82.2641 36.6901 82.2952 36.7719 82.2952 36.8702C82.2952 36.9692 82.2612 37.0536 82.1936 37.1216C82.1257 37.1899 82.0424 37.2242 81.9456 37.2242ZM82.5086 32.4293C82.4541 32.3923 82.3891 32.3737 82.3149 32.3737C82.2002 32.3737 82.1089 32.4208 82.0435 32.514C81.9872 32.597 81.9598 32.7234 81.9598 32.8998C81.9598 33.0263 81.9737 33.1216 82.0022 33.1914C82.031 33.2634 82.0727 33.3178 82.1257 33.354C82.179 33.3898 82.2441 33.4081 82.32 33.4081C82.3968 33.4081 82.4614 33.3898 82.5122 33.354C82.563 33.3182 82.6039 33.2626 82.6332 33.1885C82.662 33.1154 82.6759 33.0182 82.6759 32.8911C82.6759 32.7668 82.662 32.6678 82.6339 32.5966C82.605 32.5221 82.5626 32.4658 82.5086 32.4293ZM82.4275 32.8933C82.4275 33.0043 82.4139 33.0832 82.3873 33.1275C82.3639 33.1669 82.3383 33.172 82.319 33.172C82.2996 33.172 82.2711 33.1669 82.2441 33.1234C82.2276 33.0975 82.2083 33.0383 82.2083 32.9035C82.2083 32.8184 82.2141 32.7537 82.2251 32.7113C82.2349 32.6733 82.2484 32.647 82.2652 32.6331C82.2806 32.6203 82.2985 32.6138 82.319 32.6138C82.3376 32.6138 82.3654 32.6192 82.392 32.6638C82.4081 32.6909 82.4275 32.7526 82.4275 32.8933ZM81.8272 38.4025C81.89 38.3404 81.9218 38.2633 81.9218 38.1738C81.9218 38.0814 81.8911 38.0028 81.8297 37.9403C81.7826 37.8925 81.7274 37.8625 81.6646 37.8512L81.8159 37.5567L81.601 37.4489L81.3493 37.9414C81.3182 38.0017 81.2974 38.0481 81.2883 38.0795C81.2788 38.1106 81.274 38.1431 81.274 38.1756C81.274 38.2593 81.3051 38.3342 81.3665 38.3985C81.4286 38.4632 81.5068 38.496 81.5992 38.496C81.688 38.496 81.7647 38.4646 81.8272 38.4025ZM81.5188 38.1712C81.5188 38.1457 81.5265 38.1252 81.5418 38.1088C81.5564 38.0931 81.5736 38.0854 81.5955 38.0854C81.6193 38.0854 81.6383 38.0931 81.6533 38.1091C81.6693 38.1256 81.677 38.1453 81.677 38.1712C81.677 38.1972 81.669 38.218 81.6533 38.2344C81.6215 38.2662 81.5762 38.2692 81.5429 38.2341C81.5269 38.2173 81.5188 38.1968 81.5188 38.1712ZM83.4943 36.921L83.4516 36.9659H83.7274V37.2012H83.0201V37.0653L83.3131 36.7661C83.3792 36.6996 83.4227 36.6462 83.4432 36.6082C83.4625 36.5717 83.4728 36.5392 83.4728 36.5118C83.4728 36.4869 83.4647 36.4668 83.4486 36.4511C83.4161 36.419 83.3555 36.4164 83.3193 36.4566C83.3003 36.4778 83.2904 36.5078 83.289 36.5458L83.2879 36.5819H83.0431L83.0449 36.5428C83.0497 36.4354 83.0844 36.3485 83.1487 36.2853C83.2134 36.222 83.2963 36.1899 83.3957 36.1899C83.4574 36.1899 83.5129 36.203 83.5604 36.2294C83.6087 36.2557 83.6478 36.2948 83.677 36.3452C83.7055 36.3945 83.7201 36.446 83.7201 36.4983C83.7201 36.5574 83.7033 36.6217 83.6701 36.6897C83.6375 36.7555 83.5802 36.8311 83.4943 36.921ZM81.6507 31.1015L81.2441 31.7062L81.2379 31.7157V31.9254H81.6368V32.1129H81.8816V31.9254H81.9627V31.6898H81.8816V31.1015H81.6507V31.1015ZM81.5364 31.6898L81.6368 31.5422V31.6898H81.5364ZM83.0891 31.8695C83.1096 31.8487 83.1195 31.8224 83.1195 31.7888C83.1195 31.7559 83.1103 31.73 83.0917 31.7102C83.0643 31.6806 83.0307 31.6711 82.989 31.6916C82.9744 31.6993 82.9594 31.711 82.9448 31.7267L82.9298 31.7424L82.7314 31.6978L82.856 31.1246H83.3518V31.3602H83.0464L83.0278 31.4428C83.0314 31.4428 83.0347 31.4428 83.038 31.4428C83.1311 31.4428 83.2097 31.4749 83.2714 31.5389C83.3332 31.6017 83.3642 31.6836 83.3642 31.7818C83.3642 31.8808 83.3303 31.9652 83.2627 32.0332C83.1947 32.1015 83.1114 32.1359 83.0146 32.1359C82.9287 32.1359 82.8535 32.111 82.7906 32.0617C82.7278 32.0116 82.6865 31.9433 82.6675 31.8582L82.6573 31.8129H82.9094L82.92 31.8334C82.9309 31.856 82.9452 31.8724 82.9627 31.8838C83.0011 31.9086 83.0555 31.905 83.0891 31.8695ZM82.9499 37.2012V37.0138H83.031V36.7781H82.9499V36.1899H82.719L82.3124 36.7946L82.3062 36.8041V37.0138H82.7051V37.2012H82.9499ZM82.6047 36.7781L82.7051 36.6305V36.7781H82.6047ZM82.3208 38.5088L82.5725 38.0156C82.6043 37.9538 82.6244 37.9089 82.6335 37.8782C82.643 37.8475 82.6478 37.8154 82.6478 37.7825C82.6478 37.6985 82.6167 37.6232 82.5553 37.5593C82.4932 37.4946 82.415 37.4617 82.3222 37.4617C82.2338 37.4617 82.1571 37.4931 82.0946 37.5552C82.0318 37.6174 82 37.6944 82 37.7847C82 37.8768 82.0307 37.9549 82.0921 38.0174C82.1392 38.0656 82.1951 38.0956 82.2579 38.1069L82.1059 38.4018L82.3208 38.5088ZM82.2448 37.7865C82.2448 37.7609 82.2528 37.7401 82.2689 37.7237C82.2853 37.7072 82.3032 37.6992 82.3255 37.6992C82.346 37.6992 82.3628 37.7072 82.3789 37.7237C82.3953 37.7408 82.403 37.7609 82.403 37.7869C82.403 37.8121 82.3953 37.8322 82.38 37.849C82.3485 37.8815 82.2978 37.8793 82.2685 37.8483C82.2525 37.8318 82.2448 37.8117 82.2448 37.7865ZM81.232 34.0639C81.2514 34.0273 81.2616 33.9948 81.2616 33.9674C81.2616 33.9426 81.2536 33.9225 81.2375 33.9068C81.205 33.8746 81.1443 33.8721 81.1082 33.9122C81.0892 33.9334 81.0793 33.9634 81.0778 34.0014L81.0767 34.0376H80.8319L80.8338 33.9985C80.8385 33.8911 80.8732 33.8041 80.9375 33.7409C81.0022 33.6777 81.0851 33.6455 81.1845 33.6455C81.2463 33.6455 81.3018 33.6587 81.3493 33.685C81.3975 33.7113 81.4366 33.7504 81.4658 33.8008C81.4943 33.8501 81.509 33.9016 81.509 33.9539C81.509 34.0131 81.4921 34.0774 81.4589 34.1453C81.4264 34.2111 81.369 34.2867 81.2832 34.3766L81.2404 34.4215H81.5163V34.6568H80.8089V34.5209L81.1019 34.2217C81.1681 34.1552 81.2115 34.1019 81.232 34.0639ZM81.6624 32.7921C81.6818 32.7555 81.692 32.723 81.692 32.6956C81.692 32.6708 81.684 32.6507 81.6679 32.635C81.6354 32.6028 81.5747 32.6002 81.5385 32.6404C81.5195 32.6616 81.5097 32.6916 81.5082 32.7296L81.5071 32.7657H81.2623L81.2642 32.7267C81.2689 32.6192 81.3036 32.5323 81.3679 32.4691C81.4326 32.4059 81.5155 32.3737 81.6149 32.3737C81.6767 32.3737 81.7322 32.3869 81.7797 32.4132C81.8279 32.4395 81.867 32.4786 81.8962 32.529C81.9247 32.5783 81.9394 32.6298 81.9394 32.6821C81.9394 32.7413 81.9225 32.8056 81.8893 32.8735C81.8568 32.9393 81.7994 33.0149 81.7136 33.1048L81.6708 33.1497H81.9467V33.385H81.2393V33.2491L81.5323 32.9499C81.5985 32.8834 81.6419 32.8301 81.6624 32.7921ZM81.2525 39.781L81.5042 39.2878C81.536 39.226 81.5561 39.1811 81.5652 39.1504C81.5747 39.1197 81.5795 39.0876 81.5795 39.0547C81.5795 38.9706 81.5484 38.8954 81.487 38.8314C81.4249 38.7668 81.3467 38.7339 81.2539 38.7339C81.1655 38.7339 81.0888 38.7653 81.0263 38.8274C80.9635 38.8895 80.9317 38.9666 80.9317 39.0569C80.9317 39.1489 80.9624 39.2271 81.0238 39.2896C81.0709 39.3378 81.1268 39.3678 81.1896 39.3791L81.0376 39.674L81.2525 39.781ZM81.1765 39.0587C81.1765 39.0331 81.1845 39.0123 81.2006 38.9959C81.217 38.9794 81.2349 38.9714 81.2572 38.9714C81.2777 38.9714 81.2945 38.9794 81.3106 38.9959C81.327 39.013 81.3347 39.0331 81.3347 39.0591C81.3347 39.0843 81.327 39.1044 81.3117 39.1212C81.2802 39.1541 81.2298 39.1515 81.2002 39.1204C81.1841 39.104 81.1765 39.0839 81.1765 39.0587ZM82.1461 34.9407H82.6419V35.1764H82.3365L82.3179 35.259C82.3215 35.259 82.3248 35.259 82.3281 35.259C82.4213 35.259 82.4998 35.2911 82.5615 35.3551C82.6233 35.4179 82.6543 35.4997 82.6543 35.598C82.6543 35.697 82.6204 35.7814 82.5528 35.8494C82.4848 35.9177 82.4015 35.952 82.3047 35.952C82.2188 35.952 82.1436 35.9272 82.0807 35.8779C82.0179 35.8278 81.9766 35.7595 81.9576 35.6744L81.9474 35.6291H82.1995L82.2101 35.6495C82.221 35.6722 82.2353 35.6886 82.2528 35.7C82.2908 35.7252 82.3456 35.7211 82.3792 35.6857C82.3997 35.6649 82.4096 35.6386 82.4096 35.605C82.4096 35.5721 82.4004 35.5461 82.3818 35.5264C82.3544 35.4968 82.3204 35.4873 82.2791 35.5078C82.2645 35.5154 82.2495 35.5271 82.2349 35.5428L82.2199 35.5586L82.0215 35.514L82.1461 34.9407ZM83.0763 30.0906H82.7157V29.8527H83.3898L83.3862 29.9978L82.9572 30.8768L82.7431 30.7727L83.0763 30.0906ZM82.3182 39.4339L82.316 39.3945H82.5597L82.5645 39.4259C82.5703 39.4642 82.5831 39.492 82.6021 39.5092C82.639 39.5432 82.7088 39.5432 82.7482 39.5055C82.7676 39.4865 82.7771 39.4639 82.7771 39.4365C82.7771 39.4065 82.7643 39.3824 82.7373 39.3608C82.7077 39.3375 82.6631 39.3254 82.6039 39.3247L82.567 39.3243V39.1036L82.6014 39.1011C82.6474 39.0974 82.6708 39.0905 82.6821 39.085C82.696 39.0784 82.707 39.0693 82.7146 39.058C82.7219 39.047 82.7256 39.036 82.7256 39.0247C82.7256 39.0101 82.7209 38.9995 82.711 38.99C82.7048 38.9842 82.6931 38.9758 82.6682 38.9758C82.6511 38.9758 82.6368 38.9809 82.6229 38.9911C82.6094 39.0013 82.5999 39.0145 82.5944 39.0309L82.5864 39.0569H82.3493L82.3548 39.0149C82.3646 38.9392 82.3928 38.8775 82.4381 38.8311C82.5009 38.7664 82.5802 38.7339 82.6741 38.7339C82.7581 38.7339 82.8301 38.7613 82.8882 38.8154C82.9463 38.8698 82.9759 38.9363 82.9759 39.0123C82.9759 39.0602 82.9627 39.1044 82.9364 39.1442C82.9233 39.1639 82.9072 39.1818 82.8878 39.1979C82.92 39.2162 82.9466 39.2399 82.9686 39.2688C83.0047 39.317 83.023 39.3733 83.023 39.4372C83.023 39.5293 82.9887 39.6086 82.9207 39.6725C82.8535 39.7361 82.7672 39.7682 82.6642 39.7682C82.5656 39.7682 82.4841 39.7379 82.4213 39.6776C82.3584 39.6173 82.3237 39.5351 82.3182 39.4339ZM83.3829 37.6298L82.9539 38.5088L82.7398 38.4047L83.0731 37.7226H82.7124V37.4847H83.3865L83.3829 37.6298ZM82.3639 30.0906H82.0033V29.8527H82.6774L82.6737 29.9978L82.2448 30.8768L82.0307 30.7727L82.3639 30.0906ZM83.6445 31.4936H83.3997L83.4015 31.4545C83.4063 31.3471 83.441 31.2601 83.5053 31.1969C83.5699 31.1337 83.6529 31.1015 83.7523 31.1015C83.814 31.1015 83.8695 31.1147 83.917 31.141C83.9653 31.1673 84.0044 31.2064 84.0336 31.2568C84.0621 31.3061 84.0767 31.3577 84.0767 31.4099C84.0767 31.4691 84.0599 31.5334 84.0266 31.6013C83.9941 31.6671 83.9368 31.7427 83.8509 31.8326L83.8082 31.8776H84.084V32.1128H83.3767V31.9769L83.6697 31.6777C83.7358 31.6112 83.7793 31.5579 83.7998 31.5199C83.8191 31.4833 83.8294 31.4508 83.8294 31.4234C83.8294 31.3986 83.8213 31.3785 83.8052 31.3628C83.7724 31.331 83.7121 31.3281 83.6759 31.3682C83.6569 31.3894 83.647 31.4194 83.6456 31.4574L83.6445 31.4936ZM81.6668 29.3255C81.6872 29.3047 81.6971 29.2784 81.6971 29.2448C81.6971 29.2119 81.688 29.186 81.6693 29.1662C81.6419 29.1366 81.6083 29.1271 81.5667 29.1476C81.5521 29.1553 81.5371 29.167 81.5225 29.1827L81.5075 29.1984L81.3091 29.1538L81.4337 28.5806H81.9295V28.8162H81.624L81.6054 28.8988C81.6091 28.8988 81.6123 28.8988 81.6156 28.8988C81.7088 28.8988 81.7874 28.9309 81.8491 28.9949C81.9108 29.0577 81.9419 29.1396 81.9419 29.2378C81.9419 29.3369 81.9079 29.4213 81.8403 29.4892C81.7724 29.5575 81.6891 29.5919 81.5923 29.5919C81.5064 29.5919 81.4311 29.567 81.3683 29.5177C81.3054 29.4677 81.2642 29.3993 81.2452 29.3142L81.2349 29.2689H81.487L81.4976 29.2894C81.5086 29.312 81.5228 29.3285 81.5404 29.3398C81.5784 29.365 81.6335 29.361 81.6668 29.3255ZM81.7987 29.8853C81.7442 29.8484 81.6792 29.8297 81.605 29.8297C81.4903 29.8297 81.399 29.8769 81.3336 29.97C81.2773 30.053 81.2499 30.1794 81.2499 30.3558C81.2499 30.4823 81.2638 30.5776 81.2923 30.6474C81.3212 30.7194 81.3628 30.7738 81.4158 30.81C81.4691 30.8458 81.5342 30.8641 81.6102 30.8641C81.6869 30.8641 81.7515 30.8458 81.8023 30.81C81.8531 30.7742 81.894 30.7186 81.9233 30.6445C81.9521 30.5714 81.966 30.4742 81.966 30.3471C81.966 30.2228 81.9521 30.1238 81.924 30.0526C81.8951 29.9781 81.8528 29.9218 81.7987 29.8853ZM81.7176 30.3493C81.7176 30.4603 81.7041 30.5392 81.6774 30.5835C81.654 30.6229 81.6284 30.628 81.6091 30.628C81.5897 30.628 81.5612 30.6229 81.5342 30.5794C81.5177 30.5535 81.4984 30.4943 81.4984 30.3595C81.4984 30.2744 81.5042 30.2097 81.5152 30.1673C81.525 30.1293 81.5385 30.103 81.5554 30.0891C81.5707 30.0763 81.5886 30.0698 81.6091 30.0698C81.6277 30.0698 81.6555 30.0752 81.6821 30.1198C81.6982 30.1469 81.7176 30.2086 81.7176 30.3493ZM82.3124 32.1359C82.4012 32.1359 82.4779 32.1044 82.5404 32.0423C82.6032 31.9802 82.635 31.9031 82.635 31.8136C82.635 31.7212 82.6043 31.6426 82.5429 31.5802C82.4958 31.5323 82.4406 31.5023 82.3778 31.491L82.529 31.1965L82.3142 31.0888L82.0625 31.5813C82.0314 31.6415 82.0106 31.6879 82.0015 31.7194C81.992 31.7504 81.9872 31.7829 81.9872 31.8155C81.9872 31.8991 82.0183 31.974 82.0796 32.0383C82.1418 32.103 82.2199 32.1359 82.3124 32.1359ZM82.232 31.8111C82.232 31.7855 82.2397 31.765 82.255 31.7486C82.2696 31.7329 82.2868 31.7252 82.3087 31.7252C82.3325 31.7252 82.3515 31.7329 82.3664 31.749C82.3825 31.7654 82.3902 31.7851 82.3902 31.8111C82.3902 31.837 82.3822 31.8578 82.3664 31.8743C82.3347 31.9061 82.2897 31.909 82.2561 31.8739C82.24 31.8571 82.232 31.8366 82.232 31.8111ZM79.7446 41.04C79.8334 41.04 79.9101 41.0086 79.9726 40.9465C80.0355 40.8844 80.0672 40.8073 80.0672 40.7178C80.0672 40.6254 80.0366 40.5468 79.9752 40.4843C79.928 40.4365 79.8729 40.4065 79.81 40.3952L79.9613 40.1007L79.7465 39.9929L79.4947 40.4854C79.4637 40.5457 79.4428 40.5921 79.4337 40.6235C79.4242 40.6546 79.4195 40.6871 79.4195 40.7196C79.4195 40.8033 79.4505 40.8782 79.5119 40.9425C79.574 41.0072 79.6522 41.04 79.7446 41.04ZM79.6643 40.7152C79.6643 40.6897 79.6719 40.6692 79.6873 40.6528C79.7019 40.637 79.7191 40.6294 79.741 40.6294C79.7647 40.6294 79.7837 40.6371 79.7987 40.6531C79.8148 40.6696 79.8225 40.6893 79.8225 40.7152C79.8225 40.7412 79.8144 40.762 79.7987 40.7784C79.7673 40.8106 79.7216 40.8132 79.6884 40.7781C79.6723 40.7613 79.6643 40.7408 79.6643 40.7152ZM79.5824 33.6686H79.9006V34.6568H79.6537V33.9064H79.4359L79.5824 33.6686ZM80.5758 31.1246H81.2499L81.2463 31.2696L80.8173 32.1487L80.6032 32.0445L80.9364 31.3624H80.5758V31.1246ZM82.3146 38.902L81.8856 39.781L81.6715 39.6769L82.0047 38.9948H81.6441V38.7569H82.3182L82.3146 38.902ZM80.1454 33.6686H80.8195L80.8159 33.8136L80.3869 34.6927L80.1728 34.5885L80.506 33.9064H80.1454V33.6686H80.1454ZM82.2287 41.017H81.5214V40.8811L81.8144 40.5819C81.8805 40.5154 81.924 40.462 81.9445 40.424C81.9638 40.3875 81.974 40.355 81.974 40.3276C81.974 40.3027 81.966 40.2826 81.9499 40.2669C81.9174 40.2352 81.8568 40.2322 81.8206 40.2724C81.8016 40.2936 81.7917 40.3236 81.7903 40.3616L81.7892 40.3977H81.5444L81.5462 40.3586C81.551 40.2512 81.5857 40.1643 81.65 40.1011C81.7146 40.0379 81.7976 40.0057 81.897 40.0057C81.9587 40.0057 82.0142 40.0189 82.0617 40.0452C82.11 40.0715 82.1491 40.1106 82.1783 40.161C82.2068 40.2103 82.2214 40.2618 82.2214 40.3141C82.2214 40.3733 82.2046 40.4376 82.1714 40.5055C82.1388 40.5713 82.0815 40.6469 81.9956 40.7368L81.9529 40.7817H82.2287V41.017H82.2287ZM80.1074 35.9648L79.8933 35.8607L80.2265 35.1786H79.8659V34.9407H80.54L80.5364 35.0858L80.1074 35.9648ZM80.9269 35.929H81.1717V35.7416H81.2528V35.5059H81.1717V34.9177H80.9408L80.5342 35.5224L80.528 35.5319V35.7416H80.9269V35.929ZM80.8265 35.5059L80.9269 35.3583V35.5059H80.8265Z" fill="#C5B358"/>
</g>
</svg>
