<svg width="122" height="80" viewBox="0 0 122 80" fill="none" xmlns="http://www.w3.org/2000/svg">
<mask id="mask0" mask-type="alpha" maskUnits="userSpaceOnUse" x="0" y="0" width="122" height="80">
<rect width="122" height="80" fill="white"/>
</mask>
<g mask="url(#mask0)">
<path d="M37.1364 29H21.9432C21.5568 28.9999 21.1741 29.0759 20.817 29.2237C20.4599 29.3715 20.1354 29.5882 19.8621 29.8614C19.5888 30.1346 19.372 30.459 19.2241 30.8161C19.0761 31.1731 19 31.5558 19 31.9422V47.1364C19.0003 47.9168 19.3105 48.6652 19.8624 49.2169C20.4143 49.7687 21.1628 50.0786 21.9432 50.0786H37.1364C37.916 50.0776 38.6634 49.7671 39.2143 49.2155C39.7653 48.6638 40.0747 47.916 40.0747 47.1364V31.9422C40.075 31.1625 39.7656 30.4146 39.2146 29.8629C38.6636 29.3111 37.9161 29.0008 37.1364 29Z" fill="#FF571D"/>
<path d="M36.5695 43.6146C36.5692 43.6345 36.5611 43.6536 36.5469 43.6676C36.5327 43.6816 36.5136 43.6895 36.4936 43.6895H35.1186C35.0992 43.6895 35.0807 43.6818 35.067 43.6681C35.0533 43.6545 35.0456 43.6359 35.0456 43.6166V42.9966C35.0455 42.9819 35.041 42.9675 35.0326 42.9554C35.0242 42.9434 35.0124 42.9341 34.9986 42.9289C34.9849 42.9237 34.9698 42.9227 34.9555 42.9262C34.9412 42.9296 34.9283 42.9373 34.9185 42.9483C34.3429 43.6254 33.4213 43.8649 32.7313 43.8649H22.5788C22.5689 43.8649 22.5591 43.863 22.5499 43.8592C22.5408 43.8553 22.5325 43.8497 22.5255 43.8427C22.5185 43.8356 22.513 43.8272 22.5093 43.818C22.5056 43.8088 22.5038 43.799 22.5039 43.7891V42.0513C22.5037 42.042 22.5054 42.0328 22.5087 42.0242C22.5121 42.0156 22.5172 42.0077 22.5236 42.001L26.8291 37.2797C26.8387 37.2688 26.845 37.2553 26.8472 37.2409C26.8494 37.2265 26.8475 37.2118 26.8415 37.1985C26.8356 37.1852 26.826 37.1739 26.8138 37.1659C26.8016 37.1579 26.7874 37.1536 26.7729 37.1535H22.8499C22.8399 37.1536 22.83 37.1518 22.8207 37.148C22.8114 37.1442 22.803 37.1386 22.7959 37.1316C22.7889 37.1245 22.7833 37.1161 22.7795 37.1068C22.7757 37.0975 22.7739 37.0876 22.774 37.0776V35.2856C22.774 35.2757 22.776 35.2659 22.7798 35.2567C22.7836 35.2476 22.7892 35.2393 22.7963 35.2323C22.8033 35.2254 22.8117 35.2199 22.8209 35.2161C22.8301 35.2124 22.84 35.2106 22.8499 35.2107H29.7772C29.7871 35.2106 29.7969 35.2124 29.806 35.2162C29.8152 35.2199 29.8235 35.2254 29.8305 35.2324C29.8375 35.2394 29.843 35.2477 29.8467 35.2568C29.8504 35.266 29.8523 35.2758 29.8521 35.2856V35.6346C29.8523 35.6457 29.8499 35.6568 29.8451 35.6669C29.8403 35.6769 29.8333 35.6858 29.8245 35.6927C28.9138 36.4202 28.3036 37.5083 28.138 38.8104C28.1359 38.8254 28.1294 38.8395 28.1193 38.8508L25.4235 41.799C25.4135 41.8097 25.4068 41.8231 25.4043 41.8375C25.4018 41.852 25.4036 41.8668 25.4095 41.8803C25.4154 41.8937 25.4251 41.9051 25.4374 41.9131C25.4497 41.9211 25.464 41.9253 25.4787 41.9251H29.2134C29.1612 41.8364 29.1148 41.7457 29.0665 41.6541C29.0409 41.6009 29.0173 41.5447 28.9926 41.4905C28.968 41.4362 28.9423 41.3761 28.9197 41.318C28.897 41.2598 28.8783 41.2115 28.8586 41.1553C28.8329 41.0824 28.8093 41.0055 28.7876 40.9296C28.7758 40.8892 28.762 40.8498 28.7511 40.8094C28.7206 40.694 28.6959 40.5767 28.6742 40.4575C28.6664 40.4141 28.6595 40.3697 28.6526 40.3254C28.6388 40.2367 28.6269 40.146 28.6181 40.0563C28.6181 40.0159 28.6102 39.9755 28.6072 39.9351C28.5964 39.804 28.5895 39.6719 28.5895 39.5408C28.5895 39.4097 28.5974 39.2451 28.6102 39.1061L28.6309 38.9257C28.6368 38.8725 28.6427 38.8203 28.6506 38.768C28.6654 38.6695 28.6831 38.5817 28.7028 38.4881L28.7176 38.424C28.9096 37.5081 29.4074 36.6847 30.1291 36.089H30.136C30.2307 36.0128 30.3295 35.9418 30.4317 35.8761C30.4405 35.8709 30.4491 35.8654 30.4573 35.8593C30.5559 35.7982 30.6545 35.74 30.753 35.6858L30.8092 35.6582C30.9078 35.6109 30.9994 35.5656 31.099 35.5252C31.1305 35.5114 31.1641 35.5005 31.1976 35.4887C31.2873 35.4552 31.377 35.4217 31.4706 35.3901C31.5199 35.3744 31.5692 35.3635 31.6234 35.3507C31.7042 35.33 31.784 35.3083 31.8668 35.2935C31.9792 35.2709 32.0995 35.262 32.2118 35.2403H32.2089C32.3788 35.2217 32.5495 35.2122 32.7204 35.2117H32.7273C34.4247 35.2117 36.2472 36.0939 36.4729 38.1264C36.4741 38.1371 36.4731 38.148 36.4699 38.1583C36.4666 38.1686 36.4613 38.1781 36.4541 38.1862C36.4469 38.1943 36.4382 38.2008 36.4283 38.2052C36.4185 38.2097 36.4078 38.212 36.397 38.2121H34.3882C34.3705 38.2121 34.3534 38.2057 34.34 38.1941C34.3266 38.1825 34.3179 38.1665 34.3153 38.149C34.2019 37.4768 33.5415 37.0727 32.684 37.0727C31.2883 37.0727 30.753 38.2939 30.753 39.5369C30.753 40.7798 31.2883 42.001 32.684 42.001C33.7101 42.001 34.405 41.5407 34.5725 40.837C34.5749 40.8258 34.5747 40.8143 34.572 40.8033C34.5694 40.7923 34.5642 40.782 34.557 40.7732C34.5499 40.7644 34.5408 40.7573 34.5305 40.7525C34.5202 40.7476 34.509 40.7452 34.4976 40.7453H33.1551C33.1352 40.745 33.1161 40.7369 33.1021 40.7227C33.0881 40.7085 33.0802 40.6894 33.0802 40.6694V39.2175C33.0801 39.2076 33.0819 39.1977 33.0856 39.1885C33.0893 39.1793 33.0948 39.1709 33.1018 39.1639C33.1088 39.1568 33.1171 39.1512 33.1262 39.1474C33.1354 39.1436 33.1452 39.1416 33.1551 39.1416H36.4936C36.5137 39.1416 36.533 39.1496 36.5473 39.1638C36.5615 39.1781 36.5695 39.1974 36.5695 39.2175V43.6146Z" fill="white"/>
<path d="M65.5775 39.0657V45.4676C65.5775 45.4883 65.5693 45.5081 65.5547 45.5227C65.5401 45.5373 65.5203 45.5455 65.4996 45.5455H63.5391C63.5186 45.5452 63.4991 45.5369 63.4847 45.5224C63.4703 45.5078 63.4622 45.4881 63.4622 45.4676V44.34C63.4639 44.3188 63.4588 44.2976 63.4474 44.2796C63.4361 44.2616 63.4193 44.2477 63.3994 44.2401C63.3796 44.2324 63.3578 44.2314 63.3373 44.2371C63.3168 44.2429 63.2987 44.2551 63.2858 44.272C62.4864 45.2123 61.207 45.5455 60.2479 45.5455H45.9468C45.933 45.5455 45.9193 45.5428 45.9066 45.5375C45.8938 45.5321 45.8823 45.5244 45.8725 45.5146C45.8628 45.5048 45.8552 45.4931 45.85 45.4803C45.8448 45.4675 45.8422 45.4538 45.8423 45.44V43.0281C45.8419 43.002 45.8518 42.9769 45.8699 42.9581L51.8421 36.3925C51.8556 36.3776 51.8645 36.359 51.8677 36.3391C51.8709 36.3192 51.8683 36.2989 51.8601 36.2804C51.852 36.262 51.8387 36.2463 51.8219 36.2352C51.805 36.2242 51.7854 36.2182 51.7652 36.2181H46.2898C46.2796 36.2181 46.2695 36.216 46.2601 36.2121C46.2507 36.2082 46.2422 36.2024 46.2351 36.1952C46.2279 36.188 46.2223 36.1794 46.2185 36.1699C46.2147 36.1605 46.2128 36.1504 46.2129 36.1402V33.6326C46.2144 33.606 46.2261 33.5809 46.2455 33.5626C46.265 33.5442 46.2907 33.534 46.3174 33.5341H55.8577C55.8784 33.5341 55.8982 33.5423 55.9128 33.5569C55.9274 33.5715 55.9356 33.5913 55.9356 33.6119V34.1235C55.9359 34.1389 55.9325 34.1541 55.9259 34.168C55.9192 34.1819 55.9094 34.194 55.8972 34.2033C54.6296 35.2097 53.8933 36.7247 53.6597 38.5364C53.6575 38.5519 53.6506 38.5663 53.64 38.5778L49.8944 42.6782C49.8805 42.693 49.8712 42.7116 49.8677 42.7316C49.8643 42.7517 49.8668 42.7723 49.875 42.7909C49.8832 42.8095 49.8967 42.8253 49.9138 42.8363C49.931 42.8473 49.9509 42.853 49.9713 42.8526H55.2348C55.2483 42.8527 55.2616 42.8492 55.2734 42.8425C55.2851 42.8358 55.2949 42.8261 55.3017 42.8144C55.3085 42.8027 55.3121 42.7894 55.3121 42.7759C55.3121 42.7623 55.3086 42.749 55.3018 42.7373C55.2545 42.6516 55.2082 42.5638 55.1648 42.4761C55.1214 42.3884 55.0948 42.3253 55.0613 42.2494C55.0278 42.1735 54.9923 42.0907 54.9627 42.0099C54.9332 41.9291 54.9056 41.8611 54.879 41.7842C54.8425 41.6856 54.81 41.5762 54.7804 41.4707C54.7636 41.4145 54.7449 41.3603 54.7301 41.3032C54.6877 41.1435 54.6532 40.9808 54.6227 40.8153C54.601 40.694 54.5882 40.5679 54.5576 40.4466C54.5572 40.442 54.5572 40.4374 54.5576 40.4328C54.5576 40.3155 54.5399 40.2051 54.532 40.0888C54.5182 39.9065 54.5083 39.7231 54.5083 39.5368C54.5083 39.3328 54.5192 39.1317 54.5359 38.9326C54.5448 38.8488 54.5547 38.766 54.5645 38.6832C54.5744 38.6004 54.5813 38.5364 54.5931 38.4634C54.6128 38.3314 54.6385 38.2042 54.6651 38.0761C54.671 38.0465 54.6779 38.015 54.6848 37.9864C54.9805 36.6725 55.6616 35.5429 56.6453 34.7494L56.6551 34.7415C56.7853 34.637 56.9193 34.5385 57.0593 34.4458L57.0957 34.4232C57.2278 34.3374 57.3648 34.2566 57.5058 34.1826C57.5314 34.1679 57.558 34.157 57.5846 34.1432C57.7147 34.0772 57.8478 34.0141 57.9858 33.9579C58.0311 33.9402 58.0775 33.9244 58.1228 33.9076C58.247 33.8613 58.3712 33.815 58.5013 33.7775C58.5703 33.7568 58.6432 33.7411 58.7132 33.7233C58.8256 33.6947 58.936 33.6642 59.0513 33.6435C59.208 33.6119 59.3756 33.6001 59.5323 33.5696C59.7693 33.5431 60.0075 33.5293 60.246 33.5282H60.2538C62.6116 33.5282 65.1418 34.7534 65.4582 37.5763C65.4599 37.5912 65.4584 37.6063 65.4538 37.6206C65.4493 37.6349 65.4418 37.6481 65.4319 37.6593C65.422 37.6706 65.4098 37.6796 65.3962 37.6858C65.3825 37.6921 65.3677 37.6954 65.3527 37.6956H62.5495C62.5253 37.6945 62.5023 37.6851 62.4843 37.6689C62.4663 37.6527 62.4545 37.6308 62.4509 37.6069C62.2932 36.6744 61.3765 36.1126 60.1839 36.1126C58.246 36.1126 57.5028 37.8089 57.5028 39.5358C57.5028 41.2628 58.246 42.9591 60.1839 42.9591C61.6249 42.9591 62.5958 42.3066 62.8146 41.3091C62.8168 41.2978 62.8165 41.2861 62.8136 41.275C62.8107 41.2638 62.8054 41.2534 62.7981 41.2446C62.7907 41.2357 62.7815 41.2286 62.7711 41.2237C62.7606 41.2189 62.7493 41.2164 62.7377 41.2164H60.8107C60.8005 41.2164 60.7904 41.2144 60.7809 41.2105C60.7715 41.2066 60.7629 41.2008 60.7557 41.1936C60.7485 41.1864 60.7427 41.1778 60.7388 41.1684C60.7349 41.1589 60.7329 41.1488 60.7329 41.1386V39.0686C60.7329 39.0585 60.7349 39.0484 60.7388 39.039C60.7427 39.0296 60.7485 39.0211 60.7557 39.0139C60.763 39.0068 60.7716 39.0011 60.781 38.9973C60.7905 38.9935 60.8006 38.9916 60.8107 38.9918H65.4996C65.5197 38.9915 65.539 38.9991 65.5536 39.0129C65.5681 39.0267 65.5767 39.0456 65.5775 39.0657Z" fill="#464648"/>
<path d="M102.149 34.1176L98.9885 39.7212C98.9791 39.738 98.9653 39.752 98.9487 39.7618C98.9321 39.7715 98.9131 39.7767 98.8939 39.7767C98.8746 39.7767 98.8556 39.7715 98.839 39.7618C98.8224 39.752 98.8086 39.738 98.7992 39.7212L95.6392 34.1176C95.6293 34.1003 95.6149 34.086 95.5975 34.0763C95.5802 34.0666 95.5605 34.0618 95.5406 34.0624H92.895C92.8808 34.0624 92.8667 34.0652 92.8535 34.0707C92.8404 34.0761 92.8284 34.0841 92.8184 34.0942C92.8083 34.1042 92.8003 34.1162 92.7949 34.1293C92.7894 34.1425 92.7866 34.1566 92.7866 34.1708V45.2922C92.7866 45.321 92.798 45.3487 92.8183 45.3692C92.8386 45.3897 92.8662 45.4013 92.895 45.4016H95.2469C95.2757 45.4013 95.3033 45.3897 95.3236 45.3692C95.3439 45.3487 95.3553 45.321 95.3553 45.2922V38.701C95.3557 38.6771 95.3638 38.6539 95.3786 38.6351C95.3934 38.6163 95.4139 38.6028 95.4371 38.5968C95.4602 38.5908 95.4847 38.5925 95.5068 38.6017C95.5289 38.6109 95.5473 38.6271 95.5593 38.6478L97.8628 42.7334C97.8727 42.7507 97.8871 42.765 97.9044 42.7747C97.9218 42.7844 97.9415 42.7892 97.9614 42.7886H99.8342C99.8541 42.7892 99.8738 42.7844 99.8911 42.7747C99.9085 42.765 99.9229 42.7507 99.9328 42.7334L102.237 38.6478C102.249 38.6268 102.267 38.6103 102.289 38.6009C102.312 38.5915 102.336 38.5897 102.359 38.5958C102.383 38.6019 102.403 38.6155 102.418 38.6346C102.432 38.6536 102.44 38.677 102.44 38.701V45.2922C102.44 45.321 102.452 45.3487 102.472 45.3692C102.492 45.3897 102.52 45.4013 102.549 45.4016H104.892C104.921 45.4013 104.948 45.3897 104.968 45.3692C104.989 45.3487 105 45.321 105 45.2922V34.1708C105 34.1421 104.989 34.1145 104.968 34.0942C104.948 34.0738 104.92 34.0624 104.892 34.0624H102.243C102.224 34.0623 102.205 34.0673 102.188 34.077C102.172 34.0867 102.158 34.1008 102.149 34.1176Z" fill="#464648"/>
<path d="M85.5422 33.5341C84.3295 33.474 83.1271 33.7824 82.0931 34.4188C81.0591 35.0552 80.2419 35.9897 79.7492 37.0994C79.2565 38.2091 79.1113 39.442 79.3328 40.6358C79.5542 41.8296 80.1318 42.9284 80.9897 43.7876C81.8476 44.6468 82.9455 45.2261 84.1389 45.4494C85.3324 45.6727 86.5655 45.5294 87.6759 45.0384C88.7864 44.5474 89.7222 43.7318 90.3602 42.6987C90.9982 41.6657 91.3085 40.4637 91.2503 39.251C91.1819 37.7583 90.5589 36.3448 89.5031 35.2874C88.4473 34.23 87.0348 33.6047 85.5422 33.5341ZM85.6191 42.9157C84.9191 42.9922 84.2127 42.8495 83.5973 42.5073C82.982 42.1651 82.488 41.6404 82.1835 41.0055C81.8791 40.3706 81.7793 39.6568 81.8978 38.9628C82.0163 38.2687 82.3474 37.6286 82.8453 37.1307C83.3432 36.6328 83.9833 36.3017 84.6774 36.1832C85.3714 36.0647 86.0852 36.1645 86.7201 36.4689C87.355 36.7733 87.8798 37.2673 88.2219 37.8827C88.5641 38.4981 88.7068 39.2045 88.6303 39.9045C88.546 40.6743 88.2017 41.3924 87.6542 41.9402C87.1068 42.488 86.3889 42.8328 85.6191 42.9177V42.9157Z" fill="#464648"/>
<path d="M78.9451 43.9162C78.4234 43.2588 78.0229 42.5139 77.7623 41.7162C77.7596 41.7076 77.7546 41.7 77.7479 41.694C77.7412 41.6881 77.733 41.6841 77.7242 41.6824C77.7153 41.6808 77.7062 41.6816 77.6978 41.6848C77.6894 41.688 77.6821 41.6934 77.6765 41.7004C77.231 42.2408 76.6295 42.6305 75.9542 42.8162C75.2788 43.0019 74.5626 42.9746 73.9035 42.7379C73.2443 42.5012 72.6742 42.0668 72.2712 41.4939C71.8683 40.9211 71.652 40.2377 71.652 39.5374C71.652 38.837 71.8683 38.1536 72.2712 37.5808C72.6742 37.0079 73.2443 36.5735 73.9035 36.3368C74.5626 36.1001 75.2788 36.0728 75.9542 36.2585C76.6295 36.4442 77.231 36.8339 77.6765 37.3743C77.6821 37.3813 77.6894 37.3867 77.6978 37.3899C77.7062 37.3931 77.7153 37.3939 77.7242 37.3923C77.733 37.3906 77.7412 37.3866 77.7479 37.3807C77.7546 37.3747 77.7596 37.3671 77.7623 37.3585C78.0229 36.5608 78.4234 35.8159 78.9451 35.1585L79.0082 35.0826C79.0173 35.0731 79.0224 35.0603 79.0224 35.0471C79.0224 35.0339 79.0173 35.0212 79.0082 35.0116C78.1388 34.2512 77.0688 33.7573 75.9261 33.5889C74.7834 33.4206 73.6164 33.5849 72.5647 34.0623C71.5129 34.5397 70.6209 35.3099 69.9954 36.2808C69.3698 37.2518 69.0371 38.3823 69.0371 39.5374C69.0371 40.6924 69.3698 41.8229 69.9954 42.7939C70.6209 43.7648 71.5129 44.535 72.5647 45.0124C73.6164 45.4898 74.7834 45.6541 75.9261 45.4858C77.0688 45.3174 78.1388 44.8235 79.0082 44.0631C79.0174 44.0534 79.0225 44.0405 79.0225 44.0271C79.0225 44.0137 79.0174 44.0008 79.0082 43.9911C78.9865 43.9665 78.9658 43.9418 78.9451 43.9162Z" fill="#464648"/>
<path d="M67.269 42.6269V45.3139C67.269 45.3753 67.2934 45.4342 67.3369 45.4777C67.3803 45.5211 67.4392 45.5455 67.5007 45.5455H69.6386C69.6853 45.545 69.7307 45.5305 69.769 45.5039C69.8073 45.4772 69.8368 45.4397 69.8535 45.3961C69.8701 45.3525 69.8733 45.3049 69.8626 45.2595C69.8519 45.2141 69.8278 45.1729 69.7934 45.1414C68.9652 44.3762 68.2591 43.4886 67.6998 42.5096C67.6739 42.4661 67.6345 42.4322 67.5875 42.4132C67.5406 42.3943 67.4887 42.3912 67.4398 42.4045C67.3909 42.4178 67.3478 42.4468 67.3169 42.4869C67.2861 42.5271 67.2693 42.5763 67.269 42.6269Z" fill="#464648"/>
</g>
</svg>
