<svg width="122" height="80" viewBox="0 0 122 80" fill="none" xmlns="http://www.w3.org/2000/svg">
<path d="M70.308 31.8462C70.3849 31.8462 70.4618 31.9231 70.4618 32V36.6154C71.1541 36.1539 71.9234 35.8462 72.7695 35.8462C76.308 35.8462 77.8465 38.2308 77.8465 41.1539C77.8465 44.077 76.3849 46.4616 72.7695 46.4616C71.9234 46.4616 71.0772 46.1539 70.4618 45.6923L69.6157 46.2308H69.5388H67.3849C67.308 46.2308 67.2311 46.1539 67.2311 46.077V32.077C67.2311 32 67.308 31.9231 67.3849 31.9231H70.308V31.8462ZM55.0003 32C56.6926 32 59.1541 32.9231 59.1541 35.5385C59.1541 37.4616 58.3849 38.1539 57.6157 38.7693C59.1541 39.2308 60.3849 39.9231 60.3849 42.5385C60.3849 44.6923 58.6926 46.4616 56.0003 46.4616H49.9234C49.8465 46.4616 49.7695 46.3847 49.7695 46.3077V32.2308C49.7695 32.1539 49.8465 32.077 49.9234 32.077L55.0003 32ZM65.1541 36.1539C65.2311 36.1539 65.308 36.2308 65.308 36.3077V46.2308C65.308 46.3077 65.2311 46.3847 65.1541 46.3847H62.2311C62.1541 46.3847 62.0772 46.3077 62.0772 46.2308V36.3077C62.0772 36.2308 62.1541 36.1539 62.2311 36.1539H65.1541ZM92.9234 36.1539L94.6926 38.7693L96.4618 36.1539H100L96.4618 41.3077L100 46.4616H96.4618L94.6926 43.8462L92.9234 46.4616H89.3849L92.9234 41.3077L89.3849 36.1539H92.9234ZM72.6157 38.5385C71.6926 38.5385 70.8465 39.1539 70.6157 40C70.5388 40.1539 70.5388 40.3846 70.5388 40.5385V41.9231C70.5388 42.1539 70.5388 42.3077 70.6157 42.4616C70.8465 43.2308 71.6157 43.9231 72.6157 43.9231C74.1542 43.9231 75.0003 42.9231 75.0003 41.2308C75.0003 39.7693 74.2311 38.5385 72.6157 38.5385ZM53.1541 40.1539C53.0772 40.1539 53.0003 40.2308 53.0003 40.3077V43.6154C53.0003 43.6923 53.0772 43.7693 53.1541 43.7693C56.4618 43.7693 57.0772 43.4616 57.0772 42C57.1541 40.4616 56.5388 40.1539 53.1541 40.1539ZM53.2311 34.6154C53.0772 34.6154 53.0003 34.6923 53.0003 34.7693V37.3846C53.0003 37.4616 53.0772 37.5385 53.1541 37.5385C55.7695 37.5385 56.2311 37 56.2311 36.077C56.2311 35.077 56.0772 34.6154 53.2311 34.6154ZM63.6157 31.6154C64.6926 31.6154 65.3849 32.3846 65.3849 33.3846C65.3849 34.3846 64.6926 35.1539 63.6157 35.1539H63.5388C62.4618 35.1539 61.8465 34.3846 61.8465 33.3846C61.8465 32.3846 62.6157 31.6154 63.6157 31.6154Z" fill="#1D2243"/>
<path d="M84.3848 46.6154C87.3079 46.6154 89.6925 44.2308 89.6925 41.3077C89.6925 38.3846 87.3079 36 84.3848 36C81.4618 36 79.0771 38.3846 79.0771 41.3077C79.0771 44.2308 81.3848 46.6154 84.3848 46.6154Z" fill="#3D8BFF"/>
<path d="M86.8465 40.6154C86.9234 39.9231 86.3849 39.5384 85.6926 39.2307L85.9234 38.2307L85.308 38.0769L85.0772 39.0769C84.9234 39.0769 84.7695 39 84.6157 39L84.8465 38.0769L84.308 37.8461L84.0772 38.8461C83.9234 38.8461 83.8465 38.7692 83.6926 38.7692L82.8465 38.5384L82.6926 39.1538L83.1541 39.2307C83.3849 39.3077 83.4618 39.4615 83.4618 39.5384L83.1541 40.6154C83.1541 40.6154 83.1541 40.6154 83.2311 40.6154H83.1541L82.7695 42.1538C82.7695 42.2307 82.6926 42.3077 82.5388 42.3077L82.0772 42.2307L81.7695 42.9231L82.5388 43.0769C82.6926 43.0769 82.8465 43.1538 82.9234 43.1538L82.6926 44.1538L83.308 44.3077L83.5388 43.3077C83.6926 43.3846 83.8465 43.3846 84.0003 43.4615L83.7695 44.3846L84.3849 44.5384L84.6157 43.5384C85.6157 43.6923 86.3849 43.6154 86.6926 42.7692C86.9234 42.0769 86.6926 41.6154 86.1542 41.3077C86.4618 41.3846 86.7695 41.0769 86.8465 40.6154ZM85.5388 42.4615C85.3849 43.1538 84.1542 42.7692 83.7695 42.6923L84.0772 41.3846C84.4618 41.5384 85.6926 41.6923 85.5388 42.4615ZM85.6926 40.5384C85.5388 41.2307 84.5388 40.8461 84.1542 40.7692L84.4618 39.6154C84.8465 39.6923 85.8465 39.8461 85.6926 40.5384Z" fill="white"/>
<path d="M39.9231 33.6154L34.3077 30.3846C34.0769 30.6154 33.7692 30.8462 33.3846 30.9231V37.4615C34.2308 37.6923 34.8462 38.4615 34.8462 39.3846C34.8462 39.5385 34.8462 39.7692 34.7692 39.9231L40.3846 43.1538C40.6154 42.9231 40.9231 42.6923 41.3077 42.6154V36.0769C40.4615 35.8462 39.8462 35.0769 39.8462 34.1538C39.9231 33.9231 39.9231 33.7692 39.9231 33.6154ZM42.3846 42.5385C43.2308 42.7692 43.8462 43.5385 43.8462 44.4615C43.8462 45.5385 43 46.4615 41.8462 46.4615C41.3077 46.4615 40.7692 46.2308 40.4615 45.8462L34.8462 49.0769C34.9231 49.2308 34.9231 49.3846 34.9231 49.6154C34.9231 50.6923 34.0769 51.6154 32.9231 51.6154C31.8462 51.6154 30.9231 50.7692 30.9231 49.6154C30.9231 49.4615 30.9231 49.2308 31 49.0769L25.3846 45.8462C25 46.2308 24.5385 46.4615 24 46.4615C22.9231 46.4615 22 45.6154 22 44.4615C22 43.5385 22.6154 42.7692 23.4615 42.5385V36C22.6154 35.8462 22 35.0769 22 34.1538C22 33.0769 22.8462 32.1538 24 32.1538C24.5385 32.1538 25.0769 32.3846 25.3846 32.7692L31 29.5385C30.9231 29.3846 30.9231 29.2308 30.9231 29C30.9231 27.9231 31.7692 27 32.9231 27C34 27 34.9231 27.8462 34.9231 29C34.9231 29.1538 34.9231 29.3846 34.8462 29.5385L40.4615 32.7692C40.8462 32.3846 41.3077 32.1538 41.8462 32.1538C42.9231 32.1538 43.8462 33 43.8462 34.1538C43.8462 35.0769 43.2308 35.8462 42.3846 36.0769V42.5385ZM39.9231 45C39.8462 44.8462 39.8462 44.6923 39.8462 44.4615C39.8462 44.3077 39.8462 44.0769 39.9231 43.9231L34.3077 40.6923C33.9231 41.0769 33.4615 41.3077 32.9231 41.3077C32.3846 41.3077 31.8462 41.0769 31.5385 40.6923L25.8462 43.9231C25.9231 44.0769 25.9231 44.2308 25.9231 44.4615C25.9231 44.6154 25.9231 44.8462 25.8462 45L31.4615 48.2308C31.8462 47.8462 32.3077 47.6154 32.8462 47.6154C33.3846 47.6154 33.9231 47.8462 34.2308 48.2308L39.9231 45ZM31 39.8462C30.9231 39.6923 30.9231 39.5385 30.9231 39.3077C30.9231 38.3846 31.5385 37.6154 32.3846 37.3846V30.8462C32 30.7692 31.6923 30.5385 31.4615 30.3077L25.8462 33.6154C25.9231 33.7692 25.9231 33.9231 25.9231 34.1538C25.9231 35.0769 25.3077 35.8462 24.4615 36.0769V42.6154C24.8462 42.6923 25.1538 42.9231 25.3846 43.1538L31 39.8462Z" fill="#1D2243"/>
</svg>
