<svg width="122" height="80" viewBox="0 0 122 80" fill="none" xmlns="http://www.w3.org/2000/svg">
<mask id="mask0_1632_2503" style="mask-type:alpha" maskUnits="userSpaceOnUse" x="14" y="29" width="18" height="13">
<path fill-rule="evenodd" clip-rule="evenodd" d="M14 38.6115L26.1456 38.7094C26.1456 38.7094 28.8265 39.05 31.1157 41.0615C31.2456 41.1754 31.7554 41.0615 31.7554 41.0615L31.6947 29L14 29.0202V38.6115Z" fill="white"/>
</mask>
<g mask="url(#mask0_1632_2503)">
<path fill-rule="evenodd" clip-rule="evenodd" d="M29.1754 31.7171C27.7301 30.5272 25.7431 29.9312 23.2112 29.9312C19.8278 29.9312 18.3272 29.9312 16.9053 29.9312V30.8124C16.9053 30.8124 20.328 30.8124 23.0952 30.8124C25.2471 30.8124 27.1948 31.2562 28.3846 32.2833C29.5745 33.3114 30.4759 34.8418 30.4759 36.7298C30.4759 38.5529 29.6958 39.9035 28.4581 40.9252C27.2203 41.9469 25.0151 42.3971 22.8067 42.3971C20.1716 42.3971 15.6963 42.3971 15.6963 42.3971V43.2783C15.6963 43.2783 21.751 43.2773 22.8557 43.2773C25.5196 43.2773 27.6003 42.6983 29.0988 41.5425C30.5962 40.3856 31.3444 38.7584 31.3444 36.6596C31.3444 34.5544 30.6217 32.9069 29.1754 31.7171Z" fill="#1C1E1D"/>
</g>
<mask id="mask1_1632_2503" style="mask-type:alpha" maskUnits="userSpaceOnUse" x="14" y="29" width="18" height="13">
<path fill-rule="evenodd" clip-rule="evenodd" d="M14 38.6115L26.1456 38.7094C26.1456 38.7094 28.8265 39.05 31.1157 41.0615C31.2456 41.1754 31.7554 41.0615 31.7554 41.0615L31.6947 29L14 29.0202V38.6115Z" fill="white"/>
</mask>
<g mask="url(#mask1_1632_2503)">
<path fill-rule="evenodd" clip-rule="evenodd" d="M28.6409 32.9942C27.7416 32.312 26.7081 31.7618 23.7856 31.7618C20.6332 31.7628 20.2469 31.7618 18.9219 31.7618V32.6207C18.9219 32.6207 21.0983 32.5919 23.6771 32.6207C26.1696 32.6462 27.0838 32.9272 27.9225 33.5487C28.9953 34.3416 29.6615 35.3207 29.6615 36.6915C29.6615 38.0123 28.9857 38.9478 27.9065 39.7407C26.8039 40.5538 25.117 40.5623 24.4317 40.5783C24.172 40.5847 20.8205 40.5783 20.8205 40.5783V41.4371C20.8205 41.4371 22.4883 41.4606 23.5196 41.4361C25.8855 41.3829 27.2892 41.2424 28.5962 40.2707C29.8233 39.3607 30.4714 38.1602 30.4714 36.6394C30.4714 34.6332 29.4678 33.6221 28.6409 32.9942Z" fill="#1C1E1D"/>
</g>
<mask id="mask2_1632_2503" style="mask-type:alpha" maskUnits="userSpaceOnUse" x="14" y="29" width="18" height="13">
<path fill-rule="evenodd" clip-rule="evenodd" d="M14 38.6115L26.1456 38.7094C26.1456 38.7094 28.8265 39.05 31.1157 41.0615C31.2456 41.1754 31.7554 41.0615 31.7554 41.0615L31.6947 29L14 29.0202V38.6115Z" fill="white"/>
</mask>
<g mask="url(#mask2_1632_2503)">
<path fill-rule="evenodd" clip-rule="evenodd" d="M28.2069 34.1277C27.5321 33.7041 26.9404 33.4199 24.1466 33.4199C21.3082 33.4199 21.8435 33.4199 20.6505 33.4199V33.9851C20.6505 33.9851 21.7286 33.9851 24.0498 33.9851C26.5242 33.9851 27.4619 34.4246 27.746 34.5991C28.3016 34.9397 29.0349 35.4942 29.0349 36.6245C29.0349 37.3471 28.6081 38.2539 27.977 38.6094C27.4012 38.9329 26.3497 39.2234 24.4978 39.2234C24.2648 39.2234 13.0781 39.2234 13.0781 39.2234V39.7886C13.0781 39.7886 23.6113 39.7886 24.5404 39.7886C26.7733 39.7886 27.5396 39.5406 28.3271 39.1064C29.1168 38.6721 29.6426 37.7771 29.6426 36.6298C29.6426 35.3473 28.9263 34.5779 28.2069 34.1277Z" fill="#1C1E1D"/>
</g>
<path fill-rule="evenodd" clip-rule="evenodd" d="M30.4284 40.3612C28.9842 39.1702 26.995 38.5764 24.4653 38.5764C21.0798 38.5764 21.6694 38.5753 20.2464 38.5753V39.4565C20.2464 39.4565 21.58 39.4565 24.3471 39.4565C26.4991 39.4565 28.4478 39.9003 29.6377 40.9274C30.8275 41.9555 31.7279 43.4859 31.7279 45.375C31.7279 47.1971 30.9488 48.5476 29.7111 49.5693C28.4744 50.591 26.2671 51.0412 24.0576 51.0412C21.4235 51.0412 16.9482 51.0412 16.9482 51.0412V51.9225C16.9482 51.9225 23.0008 51.9214 24.1077 51.9214C26.7715 51.9214 28.8511 51.3435 30.3486 50.1866C31.846 49.0308 32.5963 47.4025 32.5963 45.3048C32.5974 43.1985 31.8748 41.551 30.4284 40.3612Z" fill="#1C1E1D"/>
<path fill-rule="evenodd" clip-rule="evenodd" d="M29.8933 41.6372C28.994 40.9561 27.9606 40.4048 25.0381 40.4048C21.8835 40.4058 19.7518 40.4048 18.4268 40.4048V41.2637C18.4268 41.2637 22.3497 41.2349 24.9295 41.2637C27.4221 41.2892 28.3352 41.5702 29.1739 42.1917C30.2488 42.9867 30.914 43.9637 30.914 45.3345C30.914 46.6553 30.2381 47.5908 29.159 48.3858C28.0564 49.1968 26.3695 49.2074 25.682 49.2234C25.4223 49.2287 22.0709 49.2234 22.0709 49.2234V50.0812C22.0709 50.0812 23.7386 50.1046 24.7709 50.0812C27.1358 50.0269 28.5406 49.8865 29.8475 48.9158C31.0736 48.0048 31.7217 46.8043 31.7217 45.2834C31.7228 43.2783 30.7203 42.2651 29.8933 41.6372Z" fill="#1C1E1D"/>
<path fill-rule="evenodd" clip-rule="evenodd" d="M19.8418 44.5523H26.038V44.0723H19.8418V44.5523Z" fill="#1C1E1D"/>
<path fill-rule="evenodd" clip-rule="evenodd" d="M22.3984 46.2307H26.0021V45.8177H22.3984V46.2307Z" fill="#1C1E1D"/>
<path fill-rule="evenodd" clip-rule="evenodd" d="M16.9492 44.5523H18.784V44.0723H16.9492V44.5523Z" fill="#1C1E1D"/>
<path fill-rule="evenodd" clip-rule="evenodd" d="M15.8037 46.2647H21.3795V45.7847H15.8037V46.2647Z" fill="#1C1E1D"/>
<path fill-rule="evenodd" clip-rule="evenodd" d="M17.1777 33.9468H19.351V33.5508H17.1777V33.9468Z" fill="#1C1E1D"/>
<path fill-rule="evenodd" clip-rule="evenodd" d="M15.666 37.1598H20.6415V36.699H15.666V37.1598Z" fill="#1C1E1D"/>
<path fill-rule="evenodd" clip-rule="evenodd" d="M15.8037 50.0216H21.0506V49.4459H15.8037V50.0216Z" fill="#1C1E1D"/>
<path fill-rule="evenodd" clip-rule="evenodd" d="M14.4961 51.8862H15.8084V51.0529H14.4961V51.8862Z" fill="#1C1E1D"/>
<path fill-rule="evenodd" clip-rule="evenodd" d="M17.7764 35.7529H26.0139V35.2931H17.7764V35.7529Z" fill="#1C1E1D"/>
<path fill-rule="evenodd" clip-rule="evenodd" d="M21.8955 37.1598H25.8589V36.699H21.8955V37.1598Z" fill="#1C1E1D"/>
<path fill-rule="evenodd" clip-rule="evenodd" d="M29.4599 42.858C28.7841 42.4493 28.1913 42.1747 25.3997 42.1747C22.5612 42.1747 22.1376 42.1747 20.9446 42.1747V42.7207C20.9446 42.7207 22.9805 42.7207 25.3007 42.7207C27.7751 42.7207 28.7138 43.1453 28.998 43.3145C29.5525 43.6434 30.2868 44.1777 30.2868 45.2685C30.2868 45.9667 29.8601 46.8415 29.2279 47.1842C28.6521 47.4982 27.6006 47.7781 25.7487 47.7781C25.5157 47.7781 14.3301 47.7781 14.3301 47.7781V48.3241C14.3301 48.3241 24.8633 48.323 25.7913 48.323C28.0252 48.323 28.7915 48.0846 29.5791 47.6653C30.3677 47.2449 30.8935 46.3818 30.8935 45.2739C30.8945 44.034 30.1793 43.2922 29.4599 42.858Z" fill="#1C1E1D"/>
<path fill-rule="evenodd" clip-rule="evenodd" d="M41.1919 41.6245V46.6457H43.9345C45.1201 46.6457 46.0397 46.4191 46.6942 45.9646C47.3466 45.5102 47.6733 44.8876 47.6733 44.0968C47.6733 42.4482 46.2866 41.6255 43.5131 41.6255H41.1919V41.6245ZM41.1919 35.6475V40.1536H43.2608C44.3666 40.1536 45.2361 39.9387 45.8694 39.5076C46.5026 39.0755 46.8198 38.4678 46.8198 37.6824C46.8198 36.3265 45.7172 35.6475 43.512 35.6475H41.1919ZM39.1719 48.1251V34.1692H44.0793C45.5693 34.1692 46.7527 34.4651 47.6254 35.0547C48.4992 35.6453 48.9366 36.4148 48.9366 37.361C48.9366 38.1528 48.6727 38.8403 48.1438 39.4246C47.6148 40.0078 46.8847 40.4229 45.9556 40.6698V40.7081C47.1178 40.8188 48.0469 41.1743 48.7451 41.7735C49.4432 42.3748 49.7913 43.1549 49.7913 44.1149C49.7913 45.3079 49.2623 46.2754 48.2044 47.015C47.1455 47.7547 45.8109 48.124 44.2006 48.124H39.1719V48.1251Z" fill="#1C1E1D"/>
<path fill-rule="evenodd" clip-rule="evenodd" d="M52.0413 48.1251H54.0123V38.1592H52.0413V48.1251ZM53.0513 35.6283C52.6979 35.6283 52.3968 35.5314 52.1498 35.3367C51.9008 35.1419 51.7773 34.895 51.7773 34.597C51.7773 34.2979 51.9008 34.05 52.1498 33.851C52.3978 33.6541 52.6979 33.554 53.0513 33.554C53.411 33.554 53.7186 33.653 53.9708 33.851C54.2241 34.05 54.3486 34.2969 54.3486 34.597C54.3486 34.8822 54.2231 35.126 53.9708 35.326C53.7186 35.5272 53.411 35.6283 53.0513 35.6283Z" fill="#1C1E1D"/>
<path fill-rule="evenodd" clip-rule="evenodd" d="M62.7314 48.0283C62.2652 48.2358 61.6533 48.339 60.8912 48.339C58.7339 48.339 57.6558 47.3663 57.6558 45.4197V39.5215H55.54V38.1592H57.6558V35.7263L59.6279 35.2101V38.1592H62.7303V39.5215H59.629V45.1366C59.629 45.805 59.7695 46.2818 60.0494 46.567C60.3304 46.8522 60.7954 46.9949 61.4457 46.9949C61.9427 46.9949 62.3706 46.8852 62.7324 46.6628V48.0283" fill="#1C1E1D"/>
<path fill-rule="evenodd" clip-rule="evenodd" d="M80.6356 48.1251H78.788V39.5129C78.788 38.8318 78.8391 37.9995 78.9423 37.014H78.8987C78.722 37.593 78.5624 38.007 78.423 38.2592L73.0026 48.1251H72.0958L66.6871 38.3295C66.5328 38.0432 66.3732 37.6047 66.2114 37.014H66.1678C66.2274 37.527 66.2572 38.3656 66.2572 39.53V48.1251H64.4639V35.2867H66.9202L71.7872 44.2394C72.1639 44.9259 72.4066 45.4388 72.5173 45.7794H72.5833C72.9004 45.0749 73.1548 44.5502 73.3474 44.2032L78.3144 35.2867H80.6377V48.1251" fill="#1C1E1D"/>
<path fill-rule="evenodd" clip-rule="evenodd" d="M90.6588 43.0836L87.6895 43.4157C86.7753 43.5189 86.0856 43.702 85.6205 43.9648C85.1565 44.2277 84.9234 44.6939 84.9234 45.3612C84.9234 45.8486 85.1373 46.2467 85.5673 46.5542C85.9951 46.8629 86.5667 47.0161 87.2808 47.0161C88.2589 47.0161 89.0666 46.7383 89.7031 46.1839C90.3406 45.6294 90.6588 44.9269 90.6588 44.0777V43.0836ZM92.6309 48.1251H90.6588V46.5681H90.6109C89.7531 47.7611 88.4898 48.3582 86.8231 48.3582C85.596 48.3582 84.6361 48.0953 83.9421 47.5696C83.2493 47.0449 82.9023 46.3467 82.9023 45.4772C82.9023 43.6158 84.2572 42.5323 86.9668 42.2258L90.6577 41.8075C90.6577 40.1132 89.8116 39.2671 88.1205 39.2671C86.638 39.2671 85.2991 39.6758 84.105 40.4932V38.8595C85.3151 38.2369 86.7114 37.925 88.2897 37.925C91.1835 37.925 92.6309 39.1639 92.6309 41.6426V48.1251Z" fill="#1C1E1D"/>
<path fill-rule="evenodd" clip-rule="evenodd" d="M101.783 39.7748C101.438 39.5608 100.94 39.4534 100.292 39.4534C99.4513 39.4534 98.7467 39.7748 98.1816 40.4165C97.6164 41.0594 97.3344 41.9353 97.3344 43.0442V48.124H95.3623V38.1592H97.3344V40.2132H97.3823C97.6633 39.5119 98.0922 38.9659 98.6701 38.5721C99.2469 38.1805 99.8919 37.9836 100.605 37.9836C101.118 37.9836 101.511 38.0283 101.784 38.1198V39.7748" fill="#1C1E1D"/>
<path fill-rule="evenodd" clip-rule="evenodd" d="M108.649 48.0283C108.183 48.2358 107.571 48.339 106.809 48.339C104.652 48.339 103.574 47.3663 103.574 45.4197V39.5215H101.458V38.1592H103.574V35.7263L105.546 35.2101V38.1592H108.649V39.5215H105.547V45.1366C105.547 45.805 105.687 46.2818 105.967 46.567C106.248 46.8522 106.713 46.9949 107.364 46.9949C107.861 46.9949 108.289 46.8852 108.649 46.6628V48.0283Z" fill="#1C1E1D"/>
</svg>
