<svg width="122" height="80" viewBox="0 0 122 80" fill="none" xmlns="http://www.w3.org/2000/svg">
<path d="M20.4123 31C15.1923 31 11 35.1923 11 40.4123C11 45.6322 15.1923 49.8245 20.4123 49.8245C25.6322 49.8245 29.8245 45.6322 29.8245 40.4123C29.7392 35.1923 25.5469 31 20.4123 31ZM21.268 41.952C21.5252 42.2091 21.6959 42.4652 21.6959 42.8931C21.6959 43.5781 21.0973 44.1767 20.4123 44.1767C20.0697 44.1767 19.7272 44.006 19.4712 43.7488C19.0433 43.4063 18.53 43.1503 17.845 43.1503C17.1599 43.1503 16.6467 43.4074 16.2188 43.7488L16.1334 43.8342C15.8762 44.0049 15.6202 44.1767 15.2777 44.1767C14.9351 44.1767 14.6791 44.0914 14.4219 43.8342C14.3366 43.7488 14.3366 43.7488 14.2512 43.6635C14.2512 43.6635 14.2512 43.6635 14.2512 43.5781L14.1659 43.4928C14.1659 43.4074 14.0805 43.3221 14.0805 43.2356C14.0805 43.1503 13.9952 42.9784 13.9952 42.8931C13.9952 42.7224 13.9952 42.6359 14.0805 42.5505C14.0805 42.4652 14.1659 42.3798 14.1659 42.2933C14.1659 42.2933 14.1659 42.208 14.2512 42.208C14.2512 42.208 14.2512 42.208 14.2512 42.1226C14.4219 42.1226 14.4219 42.1226 14.4219 42.0373L14.5073 41.952C14.8498 41.5241 15.1058 41.0108 15.1058 40.4123C15.1058 39.8137 14.9351 39.2993 14.5073 38.8726C14.3366 38.6154 14.1647 38.274 14.1647 37.8461C14.1647 37.1611 14.7633 36.5625 15.4484 36.5625C16.1334 36.5625 16.6467 37.1611 16.6467 37.8461C16.6467 38.1887 16.476 38.5312 16.2188 38.7872C15.8762 39.2151 15.6202 39.8137 15.6202 40.4134C15.6202 41.012 15.8774 41.6117 16.2188 42.0396L16.3041 42.125C16.732 42.4675 17.2452 42.7235 17.8438 42.7235C18.4424 42.7235 18.9568 42.5528 19.3835 42.125C19.3835 42.0396 19.4688 42.0396 19.5542 41.9543C19.8967 41.5264 20.1528 41.0131 20.1528 40.4146C20.1528 39.816 19.9821 39.3016 19.5542 38.8749C19.297 38.6177 19.1263 38.2763 19.1263 37.8484C19.1263 37.1634 19.7249 36.5648 20.41 36.5648C21.095 36.5648 21.6936 37.1634 21.6936 37.8484C21.6936 38.191 21.5229 38.5335 21.2657 38.7895C20.9232 39.2174 20.6672 39.7307 20.6672 40.4157C20.6695 41.0108 20.8401 41.5252 21.268 41.952ZM22.8942 41.6106C22.2091 41.6106 21.6106 41.012 21.6106 40.3269C21.6106 39.6418 22.2091 39.0433 22.8942 39.0433C23.5793 39.0433 24.1779 39.6418 24.1779 40.3269C24.1779 41.0973 23.5781 41.6106 22.8942 41.6106ZM26.2308 41.952C26.3161 42.0385 26.3161 42.0385 26.2308 41.952C26.3161 42.1226 26.4015 42.1226 26.4015 42.1226C26.4015 42.1226 26.4015 42.1226 26.4015 42.208L26.4868 42.2933C26.4868 42.3787 26.5722 42.464 26.5722 42.5505C26.5722 42.6359 26.6575 42.8077 26.6575 42.8931C26.6575 43.0638 26.6575 43.1503 26.5722 43.2356C26.5722 43.3209 26.4868 43.4063 26.4868 43.4928C26.4868 43.4928 26.4868 43.5781 26.4015 43.5781C26.4015 43.5781 26.4015 43.5781 26.4015 43.6635C26.3161 43.7488 26.3161 43.7488 26.2308 43.8342C25.9736 44.0049 25.7175 44.1767 25.375 44.1767C25.0325 44.1767 24.7764 44.0914 24.5192 43.8342C24.4339 43.7488 24.4339 43.7488 24.3486 43.6635C24.3486 43.6635 24.3486 43.6635 24.3486 43.5781L24.2632 43.4928C24.2632 43.4074 24.1779 43.3221 24.1779 43.2356C24.1779 43.1503 24.0925 42.9784 24.0925 42.8931C24.0925 42.7224 24.0925 42.6359 24.1779 42.5505C24.1779 42.4652 24.2632 42.3798 24.2632 42.2933C24.2632 42.2933 24.2632 42.208 24.3486 42.208C24.3486 42.208 24.3486 42.208 24.3486 42.1226L24.4339 42.0373L24.5192 41.952C24.8618 41.5241 25.1178 41.0108 25.1178 40.4123C25.1178 39.8137 24.9471 39.2993 24.5192 38.8726C24.2621 38.6154 24.0914 38.274 24.0914 37.9315C24.0914 37.2464 24.6899 36.6478 25.375 36.6478C26.0601 36.6478 26.6587 37.2464 26.6587 37.9315C26.6587 38.274 26.488 38.6165 26.2308 38.8726C25.8882 39.3005 25.6322 39.8137 25.6322 40.4988C25.6322 41.0108 25.8882 41.5252 26.2308 41.952Z" fill="#F8E19A"/>
<path d="M37.9546 47.4291V33.3101H41.5483V44.6046H47.8801V47.4291H37.9546Z" fill="#F8E19A"/>
<path d="M110.601 47.4291L103.584 40.4123L110.601 33.3955H105.466L101.017 37.845V33.3101H97.4229V47.4291H101.017V42.9796L105.466 47.4291H110.601Z" fill="#F8E19A"/>
<path d="M69.6136 44.6911L68.7578 47.4291H64.9922L69.8696 33.3101H74.6616L79.539 47.4291H75.7746L74.9188 44.6911L74.0631 42.0385L72.2662 36.1335L70.384 42.0385L69.6136 44.6911Z" fill="#F8E19A"/>
<path d="M85.3584 38.1875V47.4291H81.9365V33.3101H86.386L91.6902 42.9796V33.3101H95.1132V47.4291H90.6637L85.3584 38.1875Z" fill="#F8E19A"/>
<path d="M62.3402 41.9519C62.1695 41.5241 61.9123 41.1815 61.6551 40.839C61.3979 40.5818 61.0566 40.3258 60.6287 40.1539C60.2861 39.9832 59.8582 39.8967 59.5169 39.8114C59.8594 39.726 60.2019 39.6407 60.5433 39.4688C60.8859 39.2982 61.1419 39.1263 61.3991 38.8703C61.6563 38.6131 61.827 38.357 61.9123 37.9292C62.083 37.5866 62.083 37.1587 62.083 36.7309C62.083 36.303 61.9977 35.8751 61.9123 35.4472C61.7416 35.0193 61.5698 34.6768 61.1419 34.3342C60.7994 33.9917 60.3715 33.7357 59.7729 33.5638C59.1743 33.3931 58.4893 33.3066 57.6335 33.3066H53.7825H51.8161H50.1899V47.4256H51.8161H53.7837H58.1479C59.6022 47.4256 60.6298 47.0831 61.3991 46.3992C62.1695 45.7141 62.512 44.773 62.512 43.5758C62.5974 42.9796 62.512 42.4663 62.3402 41.9519ZM53.869 35.6202H57.6335C57.976 35.6202 58.2321 35.7056 58.4893 35.7909C58.7464 35.8762 58.9171 35.9616 59.0878 36.1334C59.2585 36.3041 59.345 36.476 59.4304 36.6467C59.5157 36.8174 59.5157 36.9892 59.5157 37.2452C59.5157 37.6731 59.345 38.101 59.0878 38.3582C58.8306 38.7007 58.3174 38.7861 57.6335 38.7861H53.869V35.6202ZM59.5169 44.4339C59.2597 44.7764 58.7464 44.8618 58.0625 44.8618H53.869V41.6959H58.0614C58.4039 41.6959 58.6599 41.7813 58.9171 41.8666C59.1743 41.9519 59.345 42.0373 59.5157 42.2091C59.6864 42.381 59.7729 42.5517 59.8582 42.7224C59.9436 42.8931 59.9436 43.0649 59.9436 43.3209C59.9447 43.75 59.8594 44.1767 59.5169 44.4339Z" fill="#F8E19A"/>
</svg>
