<svg width="122" height="80" viewBox="0 0 122 80" fill="none" xmlns="http://www.w3.org/2000/svg">
<path d="M27.338 42.763L22.648 34.6278C21.6196 32.9322 19.1123 32.9139 18.1206 34.7L13.1966 43.1597C12.2772 44.7108 13.4133 46.6586 15.2533 46.6586H25.1197C26.9769 46.6586 28.3664 44.6569 27.338 42.763Z" fill="#00B897"/>
<path d="M20.5738 43.3947L20.2849 42.8891C20.0144 42.4202 19.4193 41.4102 19.4193 41.4102L15.4515 34.52C14.4231 32.9872 11.9881 32.8611 10.9608 34.7906L6.34295 42.7813C5.38682 44.4586 6.52296 46.6414 8.59798 46.6597H18.4104H22.5949H25.0839C22.54 46.677 21.7283 45.3597 20.5738 43.3947Z" fill="#76FCB2"/>
<path d="M20.5742 43.3947L20.2853 42.8903C20.0147 42.4214 19.4197 41.4113 19.4197 41.4113L16.8585 36.9023L13.1796 43.1781C12.2601 44.7292 13.3962 46.677 15.2362 46.677H18.3924H22.577H25.0842C22.522 46.6587 21.7286 45.3598 20.5742 43.3947Z" fill="url(#paint0_linear_1632_2365)"/>
<path d="M114.305 46.0269C113.638 46.0269 113.114 45.8825 112.719 45.6303C112.304 45.3597 112.087 44.963 112.087 44.4219V36.5573H113.134C113.512 36.5573 113.837 36.8634 113.837 37.2612V44.1869C113.837 44.2052 113.837 44.5297 114.108 44.8003C114.27 44.963 114.468 45.0525 114.739 45.0525H114.937C115.009 45.0525 115.081 45.1247 115.081 45.1969V46.0442L114.305 46.0269Z" fill="#00B897"/>
<path d="M91.7592 46.027C90.6769 46.027 89.793 45.7381 89.1258 45.1614C88.783 44.8725 88.5491 44.548 88.4046 44.1869C88.2602 43.8258 88.188 43.303 88.188 42.6002C88.188 41.9147 88.2602 41.3735 88.4046 41.0124C88.5308 40.6696 88.7647 40.3635 89.1085 40.0746C89.7758 39.4979 90.6597 39.209 91.7419 39.209C92.8242 39.209 93.7081 39.4979 94.3753 40.0746C94.7181 40.3635 94.9531 40.688 95.0792 41.0124C95.2237 41.3908 95.2959 41.9147 95.2959 42.6002C95.2959 43.3041 95.2237 43.8269 95.0792 44.1869C94.9348 44.548 94.7009 44.8725 94.357 45.1614C93.7242 45.7392 92.8414 46.027 91.7592 46.027ZM91.7592 40.2018C90.5681 40.2018 89.973 41.0135 89.973 42.6185C89.973 44.2419 90.5681 45.0536 91.7592 45.0536C92.9492 45.0536 93.5453 44.2419 93.5453 42.6369C93.5442 41.0135 92.9309 40.2018 91.7592 40.2018Z" fill="#00B897"/>
<path d="M99.2261 46.0269C98.2883 46.0269 97.4227 45.7747 96.6833 45.2875C96.611 45.2153 96.4666 45.1247 96.2866 45.0169C96.251 44.9986 96.2144 44.9447 96.2144 44.8908V36.5573H97.2783C97.6566 36.5573 97.9822 36.8818 97.9822 37.2612V39.6963L98.3066 39.5162C98.685 39.3179 99.1905 39.2273 99.8394 39.2273C100.976 39.2273 101.841 39.5701 102.419 40.2374C102.923 40.8324 103.177 41.6258 103.177 42.6002C103.177 43.5747 102.888 44.368 102.311 44.9447C101.643 45.6669 100.597 46.0269 99.2261 46.0269ZM99.4061 40.2018C99.0094 40.2018 98.5578 40.3462 98.0533 40.6524L97.9811 40.6879V44.6019L98.0533 44.6558C98.45 44.9081 98.9189 45.0342 99.4061 45.0342C100.055 45.0342 100.561 44.7636 100.903 44.2225C101.192 43.7892 101.355 43.2308 101.355 42.5991C101.355 41.0135 100.687 40.2018 99.4061 40.2018Z" fill="#00B897"/>
<path d="M107.343 46.0097C105.358 46.0097 104.114 44.7108 104.114 42.6002C104.114 40.508 105.34 39.209 107.306 39.209C108.064 39.209 108.713 39.4074 109.237 39.7857L109.345 39.858V39.3352H110.734C110.824 39.3352 110.878 39.4074 110.878 39.4796V45.8825H109.327V45.3058L109.218 45.3964C108.785 45.7931 108.099 46.0097 107.343 46.0097ZM107.703 40.3635C106.458 40.3635 105.718 41.3196 105.718 42.6002C105.718 43.8808 106.458 44.8725 107.703 44.8725C108.099 44.8725 108.785 44.8369 109.326 44.2958L109.344 44.2775V40.9952L109.326 40.9769C108.948 40.5446 108.388 40.3635 107.703 40.3635Z" fill="#00B897"/>
<path d="M43.2578 45.9375V36.5401H51.0674V37.1351C51.0674 37.604 50.6891 37.9824 50.2202 37.9824H45.2056V40.508H50.2202V41.9513H45.2056V44.4769H50.2202C50.6891 44.4769 51.0674 44.8553 51.0674 45.3242V45.9192L43.2578 45.9375Z" fill="black"/>
<path d="M62.2865 36.5401H60.4464C60.1037 36.5401 59.7975 36.6845 59.5809 36.9551L57.3625 39.7513L55.1441 36.9734C54.9274 36.7029 54.6213 36.5584 54.2785 36.5584H52.4385L56.1724 41.2485L52.4385 45.9386H54.2785C54.6213 45.9386 54.9274 45.7941 55.1441 45.5236L57.3625 42.7458L59.5992 45.5419C59.8158 45.7941 60.122 45.9569 60.4648 45.9569H62.3048L58.5708 41.2668L62.2865 36.5401Z" fill="black"/>
<path d="M37.1433 44.9458L39.7045 40.4724V45.9192H41.6523V36.5218H40.4439C40.0656 36.5218 39.7045 36.7201 39.5245 37.0629L36.4577 42.6541L33.391 37.0629C33.211 36.7201 32.8499 36.5218 32.4715 36.5218H31.2632V45.9192H33.211V40.4724L35.7722 44.9458H37.1433Z" fill="black"/>
<path d="M67.3732 46.0452C64.6676 46.0808 62.4675 43.9529 62.4492 41.2473C62.4492 39.7684 62.8998 38.5417 63.7481 37.6945C64.5954 36.8645 65.8221 36.4139 67.2837 36.4139C68.9977 36.4139 70.3505 37.0089 71.3238 38.1634L70.7105 38.6862C70.3321 39.0106 69.7727 39.0289 69.3577 38.7217C68.8166 38.3067 68.131 38.1084 67.356 38.1084C65.4437 38.1084 64.3076 39.2629 64.3076 41.2107C64.3076 43.1768 65.4804 44.3852 67.356 44.3852C68.1493 44.3852 68.8166 44.1685 69.3577 43.7718C69.7544 43.4657 70.3138 43.483 70.7105 43.8074L71.3238 44.3302C70.3494 45.4685 69.0505 46.0452 67.3732 46.0452Z" fill="black"/>
<path d="M79.3676 46.0453C76.3375 46.0453 74.4619 44.2053 74.4619 41.2475C74.4619 38.2896 76.3375 36.4496 79.332 36.4496C80.7754 36.4496 81.9837 36.8646 82.9215 37.7118L82.471 38.2174C82.2726 38.4341 81.9837 38.5602 81.6948 38.5602C81.5331 38.5602 81.3704 38.5246 81.2259 38.4524C80.6665 38.1635 80.0176 38.0191 79.332 38.0191C77.3831 38.0191 76.1748 39.2641 76.1748 41.2658C76.1748 43.2858 77.437 44.5308 79.4581 44.5308C80.4315 44.5308 81.1893 44.3508 81.7487 43.9541L81.7843 43.9358V42.0063H79.6381V41.3747C79.6381 40.9058 80.0165 40.5274 80.4865 40.5274H83.1382C83.2104 40.5274 83.2826 40.5996 83.2826 40.6718V44.8381C82.3621 45.6303 81.0448 46.0453 79.3676 46.0453Z" fill="#00B897"/>
<path d="M86.7638 46.0269C86.0966 46.0269 85.5727 45.8825 85.1771 45.6303C84.7621 45.3597 84.5454 44.963 84.5454 44.4219V36.5573H85.5921C85.9704 36.5573 86.296 36.8634 86.296 37.2612V44.1869C86.296 44.2052 86.296 44.5297 86.5665 44.8003C86.7293 44.963 86.9266 45.0525 87.1971 45.0525H87.3955C87.4677 45.0525 87.5399 45.1247 87.5399 45.1969V46.0442L86.7638 46.0269Z" fill="#00B897"/>
<defs>
<linearGradient id="paint0_linear_1632_2365" x1="11.8692" y1="40.3273" x2="23.2683" y2="44.5396" gradientUnits="userSpaceOnUse">
<stop stop-color="#53E57A" stop-opacity="0"/>
<stop offset="1" stop-color="#00A977"/>
</linearGradient>
</defs>
</svg>
