<svg width="1045" height="115" fill="none" xmlns="http://www.w3.org/2000/svg"><path d="M57.525 95.05l.718.802v-.001l-.718-.801zM61.8 88.9l1.005.385.003-.007L61.8 88.9zm-4.575-21l-.684.831.007.005.677-.836zM16.2 63.025v-1.076h-1.076v1.076H16.2zm0 37.425h-1.076v1.076H16.2v-1.076zm0-84.45v-1.076h-1.076V16H16.2zm0 36.675h-1.076v1.076H16.2v-1.076zm29.85-1.35l-.305-1.032-.004.001.309 1.031zm7.5-3.75l-.672-.84-.01.008.682.832zm4.425-5.775l.992.419.003-.008-.995-.411zM53.7 20.425l-.66.85.007.006.653-.856zm-.675-13.95l-.284 1.038h.003l.281-1.038zm11.775 5.55l-.665.846.006.005.659-.851zm6.825 8.85l-.994.412.002.005.992-.417zm.9 19.35l-1.017-.353-.004.013 1.021.34zm-9.975 12.45l.593.898.004-.002-.597-.896zm-8.85 4.05l-.318-1.028.117 2.085.201-1.057zM71.475 65.2l-.78.742.01.01.77-.752zm3.45 28.65l-.98-.444-.005.01.985.434zm-7.35 9.675l-.688-.828-.006.005.694.823zm-11.85 6.3l.317 1.028.01-.003-.327-1.025zm-54 2.175H.649v1.076h1.076V112zm0-107.475V3.449H.649v1.076h1.076zm37.725 97.001c4.227 0 7.917-.483 11.05-1.475l-.65-2.052c-2.867.908-6.327 1.375-10.4 1.375v2.152zm11.05-1.475c3.112-.986 5.706-2.377 7.743-4.199l-1.436-1.604c-1.763 1.578-4.069 2.837-6.957 3.751l.65 2.052zm7.744-4.2c2.072-1.86 3.597-4.05 4.561-6.566l-2.01-.77c-.836 2.184-2.16 4.093-3.989 5.734l1.438 1.602zm4.564-6.573c.95-2.534 1.418-5.288 1.418-8.253h-2.152c0 2.735-.432 5.23-1.282 7.497l2.016.756zm1.418-8.253c0-5.84-2.096-10.536-6.323-13.961l-1.355 1.672c3.672 2.975 5.526 7.03 5.526 12.289h2.152zM57.91 67.069c-4.223-3.475-10.439-5.12-18.459-5.12V64.1c7.78 0 13.414 1.605 17.091 4.63l1.368-1.662zm-18.459-5.12H16.2V64.1h23.25v-2.15zm-24.326 1.076v37.425h2.152V63.025h-2.152zm1.076 38.501h23.25v-2.152H16.2v2.152zM15.124 16v36.675h2.152V16h-2.152zM16.2 53.751h19.2V51.6H16.2v2.152zm19.2 0c4.174 0 7.834-.457 10.96-1.395l-.62-2.062c-2.873.862-6.314 1.305-10.34 1.305v2.152zm10.955-1.394c3.153-.93 5.791-2.238 7.878-3.95l-1.366-1.664c-1.813 1.488-4.175 2.68-7.122 3.55l.61 2.064zm7.867-3.942c2.133-1.706 3.721-3.773 4.745-6.196l-1.983-.838c-.877 2.077-2.24 3.86-4.106 5.354l1.344 1.68zm4.748-6.204c1.008-2.441 1.506-5.082 1.506-7.911h-2.152c0 2.571-.452 4.93-1.344 7.09l1.99.82zm1.506-7.911c0-6.566-1.974-11.564-6.123-14.73l-1.306 1.71c3.45 2.634 5.277 6.886 5.277 13.02h2.152zM54.36 19.575c-4.078-3.166-10.266-4.651-18.36-4.651v2.152c7.906 0 13.518 1.465 17.04 4.2l1.32-1.701zM36 14.924H16.2v2.152H36v-2.152zM36 5.6c6.534 0 12.109.644 16.74 1.912l.57-2.076C48.44 4.105 42.665 3.449 36 3.449V5.6zm16.744 1.913c4.698 1.272 8.481 3.068 11.39 5.357l1.332-1.692c-3.191-2.51-7.258-4.415-12.16-5.743l-.562 2.078zm11.397 5.362c2.957 2.29 5.114 5.09 6.49 8.41l1.988-.823c-1.524-3.68-3.917-6.779-7.16-9.289l-1.318 1.702zm6.492 8.416c1.386 3.298 2.09 7.053 2.09 11.283h2.153c0-4.47-.745-8.515-2.259-12.117l-1.984.834zm2.09 11.283c0 2.533-.405 4.963-1.215 7.297l2.034.706a24.25 24.25 0 001.334-8.003h-2.152zm-1.219 7.31c-.759 2.276-1.922 4.417-3.5 6.425l1.692 1.33c1.722-2.192 3.009-4.55 3.85-7.075l-2.042-.68zm-3.5 6.425c-1.57 1.998-3.582 3.824-6.051 5.47l1.194 1.79c2.631-1.754 4.82-3.728 6.55-5.93l-1.693-1.33zm-6.047 5.467c-2.4 1.584-5.254 2.894-8.575 3.92l.636 2.056c3.48-1.074 6.526-2.464 9.125-4.18l-1.186-1.796zM53.5 57.782c7.766 1.475 13.453 4.227 17.196 8.16l1.56-1.484c-4.157-4.367-10.32-7.265-18.354-8.79l-.402 2.114zm17.206 8.17C74.476 69.817 76.4 74.93 76.4 81.4h2.152c0-6.93-2.076-12.617-6.306-16.952l-1.54 1.504zM76.399 81.4c0 4.413-.824 8.41-2.454 12.006l1.96.888c1.77-3.903 2.646-8.207 2.646-12.894H76.4zm-2.46 12.017c-1.58 3.592-3.926 6.683-7.052 9.28l1.376 1.656c3.374-2.803 5.928-6.162 7.647-10.07l-1.97-.866zm-7.058 9.285c-3.075 2.595-6.894 4.633-11.483 6.098l.654 2.05c4.811-1.535 8.892-3.697 12.217-6.502l-1.388-1.646zm-11.473 6.095c-4.578 1.412-9.818 2.127-15.733 2.127v2.152c6.085 0 11.545-.735 16.367-2.223l-.634-2.056zm-15.733 2.127H1.725v2.152h37.95v-2.152zM2.801 112V4.525H.65V112H2.8zM1.725 5.601H36V3.45H1.725V5.6zm106.311 30.424h1.077v-1.076h-1.077v1.076zm0 75.975v1.076h1.077V112h-1.077zm-13.35 0H93.61v1.076h1.076V112zm0-75.975v-1.076H93.61v1.076h1.076zm15.375-20.175l-.971-.464-.004.01-.004.009.979.445zm-2.1 3l-.761-.761.761.761zm-3.075 2.025l-.414-.993-.007.003-.008.003.429.987zm-7.35 0l-.445.98.008.003.008.004.43-.987zm-2.925-2.025l-.782.739.01.011.011.011.761-.761zm-2.025-3l-.987.43.004.007.004.008.98-.445zm0-7.35l.987.43.004-.008.003-.008-.994-.414zm2.025-3.075l.761.761.011-.01.01-.012-.782-.739zm2.925-2.1l-.429-.987-.008.004-.008.003.445.98zm7.35 0l-.429.987.008.003.007.003.414-.993zm3.075 2.1l-.782.739.021.022.022.021.739-.782zm2.1 3.075l-.993.414.011.025.011.025.971-.464zm-3.101 27.525V112h2.153V36.025h-2.153zm1.076 74.899h-13.35v2.152h13.35v-2.152zM95.763 112V36.025H93.61V112h2.153zm-1.077-74.899h13.35V34.95h-13.35v2.15zm15.124-24.926c0 1.143-.24 2.209-.72 3.21l1.942.93a9.483 9.483 0 00.931-4.14h-2.153zm-.728 3.23a9.11 9.11 0 01-1.882 2.684l1.522 1.522a11.245 11.245 0 002.319-3.316l-1.959-.89zm-1.882 2.684c-.742.743-1.647 1.342-2.728 1.793l.828 1.986c1.319-.55 2.465-1.3 3.422-2.257l-1.522-1.522zm-2.743 1.799a8.038 8.038 0 01-3.246.66v2.153c1.442 0 2.814-.278 4.104-.839l-.858-1.974zm-3.246.66a8.039 8.039 0 01-3.246-.66l-.858 1.974c1.29.561 2.662.84 4.104.84v-2.153zm-3.23-.653a8.812 8.812 0 01-2.609-1.806l-1.522 1.522a10.97 10.97 0 003.241 2.244l.89-1.96zm-2.587-1.784a9.86 9.86 0 01-1.828-2.706l-1.96.89a11.993 11.993 0 002.223 3.294l1.565-1.478zm-1.82-2.69a8.04 8.04 0 01-.661-3.246H90.76c0 1.442.278 2.814.84 4.104l1.973-.858zm-.661-3.246a8.04 8.04 0 01.66-3.246L91.6 8.071a10.193 10.193 0 00-.839 4.104h2.153zm.667-3.261c.45-1.081 1.05-1.985 1.792-2.728L93.85 4.664c-.957.957-1.707 2.103-2.257 3.422l1.987.828zm1.814-2.75a8.193 8.193 0 012.588-1.86l-.891-1.959a10.345 10.345 0 00-3.262 2.341l1.565 1.478zm2.571-1.852a8.04 8.04 0 013.246-.66V1.498c-1.442 0-2.813.278-4.104.839l.858 1.974zm3.246-.66c1.158 0 2.237.221 3.246.66l.858-1.974a10.19 10.19 0 00-4.104-.84v2.153zm3.261.666a7.78 7.78 0 012.707 1.846l1.565-1.478a9.937 9.937 0 00-3.444-2.354l-.828 1.986zm2.75 1.89a7.78 7.78 0 011.846 2.706l1.987-.828a9.935 9.935 0 00-2.355-3.443l-1.478 1.564zm1.868 2.756c.48 1.002.72 2.068.72 3.211h2.153a9.49 9.49 0 00-.931-4.14l-1.942.93zm30.331 99.211l-.778.743.006.006.772-.749zm-4.8-60.975h1.077v-1.076h-1.077V47.2zm-11.175-.675l-.723.796.02.02.022.017.681-.833zm-.825-7.575l-.135-1.068-.941.12v.948h1.076zm12.45-1.575l.136 1.068.824-.104.108-.824-1.068-.14zm3.075-23.475l-1.055-.211-.007.035-.005.036 1.067.14zm.975-1.8l.72.8.004-.004-.724-.796zm8.85-.75h1.077v-1.076h-1.077v1.076zm0 26.175h-1.076v1.076h1.076v-1.076zm21.975 0h1.077v-1.076h-1.077v1.076zm0 9.675v1.076h1.077V47.2h-1.077zm-21.975 0v-1.076h-1.076V47.2h1.076zm2.325 52.725l.761-.761-.761.761zm9.6 1.8l.356 1.016.014-.005.014-.005-.384-1.006zm2.7-1.275l-.553-.923.553.923zm1.875-1.2l.618.882.008-.006.007-.006-.633-.87zm3.3.675l.919-.562-.008-.011-.007-.012-.904.585zm3.9 6.375l.735.786.642-.599-.458-.749-.919.562zm-8.325 5.1l.373 1.01.007-.003.007-.003-.387-1.004zm-10.05.724c-5.796 0-10.108-1.613-13.102-4.698l-1.545 1.498c3.506 3.615 8.444 5.352 14.647 5.352v-2.152zm-13.096-4.692c-2.949-3.087-4.502-7.607-4.502-13.732h-2.153c0 6.475 1.647 11.605 5.098 15.218l1.557-1.486zM135.698 93.7V47.2h-2.153v46.5h2.153zm-1.077-47.576h-9.15v2.152h9.15v-2.152zm-9.15 0c-.584 0-1.009-.159-1.343-.432l-1.363 1.666c.766.627 1.691.918 2.706.918v-2.152zm-1.301-.395c-.255-.233-.472-.648-.472-1.454h-2.153c0 1.194.333 2.279 1.178 3.046l1.447-1.592zm-.472-1.454V38.95h-2.153v5.325h2.153zm-.941-4.257l12.45-1.575-.271-2.136-12.45 1.575.271 2.136zm13.382-2.503l3.075-23.475-2.135-.28-3.075 23.475 2.135.28zm3.063-23.404c.111-.555.335-.937.639-1.211l-1.439-1.6c-.696.626-1.122 1.444-1.311 2.389l2.111.422zm.643-1.215c.324-.294.753-.47 1.376-.47v-2.152c-1.076 0-2.047.324-2.823 1.03l1.447 1.592zm1.376-.47h6.75v-2.152h-6.75v2.152zm5.674-1.076v26.175h2.153V11.35h-2.153zm1.076 27.251h21.975V36.45h-21.975v2.15zm20.899-1.076V47.2h2.153v-9.675h-2.153zm1.076 8.599h-21.975v2.152h21.975v-2.152zM146.895 47.2v45.6h2.153V47.2h-2.153zm0 45.6c0 3.354.812 6.057 2.64 7.886l1.522-1.522c-1.271-1.271-2.009-3.318-2.009-6.364h-2.153zm2.64 7.886c1.777 1.776 4.063 2.64 6.761 2.64v-2.152c-2.201 0-3.915-.686-5.239-2.01l-1.522 1.522zm6.761 2.64c1.485 0 2.812-.185 3.956-.585l-.711-2.032c-.856.3-1.929.465-3.245.465v2.152zm3.984-.595c1.093-.417 2.053-.868 2.87-1.358l-1.107-1.846c-.683.41-1.523.809-2.53 1.192l.767 2.012zm2.87-1.358a33.948 33.948 0 001.939-1.241l-1.235-1.764c-.472.331-1.074.717-1.811 1.16l1.107 1.845zm1.954-1.253c.482-.35.73-.394.792-.394v-2.152c-.737 0-1.439.356-2.058.806l1.266 1.74zm.792-.394c.189 0 .525.092.972.784l1.807-1.17c-.653-1.008-1.567-1.766-2.779-1.766v2.152zm.957.761l3.9 6.375 1.837-1.124-3.9-6.375-1.837 1.124zm4.084 5.027c-2.189 2.046-4.842 3.676-7.977 4.882l.773 2.008c3.365-1.294 6.262-3.064 8.673-5.318l-1.469-1.572zm-7.963 4.876a27.697 27.697 0 01-9.678 1.734v2.152c3.578 0 7.054-.623 10.423-1.866l-.745-2.02zm83.252-93.64v1.076h1.076V16.75h-1.076zm-34.8 0v-1.076h-1.076v1.076h1.076zm0 95.25v1.076h1.076V112h-1.076zm-14.475 0h-1.076v1.076h1.076V112zm0-95.25h1.076v-1.076h-1.076v1.076zm-34.875 0H161v1.076h1.076V16.75zm0-12.225V3.449H161v1.076h1.076zm84.15 0h1.076V3.449h-1.076v1.076zm0 11.149h-34.8v2.152h34.8v-2.152zM210.35 16.75V112h2.152V16.75h-2.152zm1.076 94.174h-14.475v2.152h14.475v-2.152zM198.027 112V16.75h-2.152V112h2.152zm-1.076-96.326h-34.875v2.152h34.875v-2.152zm-33.799 1.076V4.525H161V16.75h2.152zm-1.076-11.149h84.15V3.45h-84.15V5.6zm83.074-1.076V16.75h2.152V4.525h-2.152zM287.739 37.6l-.413.994.413-.994zm11.4 7.875l-.79.731.79-.731zm7.2 12.375l-1.019.347.004.012 1.015-.359zm0 32.325l-1.015-.36-.003.01 1.018.35zm-7.2 12.3l-.79-.731.79.731zm-11.4 7.875l.403.998.01-.004-.413-.994zm-30.15 0l-.413.994.006.003.007.002.4-.999zm-11.4-7.875l.789-.731-.789.731zm-7.275-12.3l-1.018.35.003.01 1.015-.36zm0-32.325l-1.016-.356-.002.006 1.018.35zm7.275-12.375l.789.731-.789-.731zm11.4-7.875l-.41-.995-.003.001.413.994zm31.95 57.525l.865.64.003-.004-.868-.636zm-26.775-47.85l-.447-.98-.007.004.454.976zm-7.05 5.625l-.851-.66-.008.011.859.649zm-4.2 9.075l-1.041-.275-.003.01 1.044.265zm4.2 33.15l-.869.636.008.01.861-.646zm17.025-59.224c5.429 0 10.286.905 14.587 2.693l.826-1.988c-4.599-1.912-9.743-2.857-15.413-2.857V35.9zm14.587 2.693c4.313 1.793 7.983 4.33 11.023 7.612l1.579-1.462c-3.259-3.518-7.189-6.23-11.776-8.138l-.826 1.988zm11.023 7.612c3.037 3.278 5.364 7.268 6.971 11.99l2.038-.693c-1.694-4.977-4.167-9.237-7.43-12.76l-1.579 1.463zm6.975 12.003c1.653 4.667 2.488 9.918 2.488 15.766h2.153c0-6.052-.865-11.551-2.612-16.484l-2.029.718zm2.488 15.766c0 5.899-.835 11.175-2.488 15.84l2.029.72c1.748-4.935 2.612-10.459 2.612-16.56h-2.153zm-2.491 15.85c-1.606 4.672-3.933 8.639-6.972 11.919l1.579 1.462c3.261-3.52 5.734-7.753 7.428-12.681l-2.035-.7zm-6.972 11.919c-3.04 3.282-6.71 5.819-11.023 7.612l.826 1.988c4.587-1.907 8.517-4.62 11.776-8.138l-1.579-1.462zm-11.014 7.608c-4.303 1.741-9.163 2.622-14.596 2.622v2.152c5.667 0 10.807-.919 15.403-2.778l-.807-1.996zm-14.596 2.622c-5.484 0-10.396-.881-14.751-2.623l-.799 1.998c4.645 1.858 9.834 2.777 15.55 2.777v-2.152zm-14.737-2.618c-4.313-1.793-7.983-4.33-11.024-7.612l-1.579 1.462c3.26 3.518 7.19 6.231 11.777 8.138l.826-1.988zm-11.024-7.612c-3.041-3.283-5.394-7.253-7.05-11.928l-2.029.718c1.744 4.925 4.241 9.155 7.5 12.672l1.579-1.462zm-7.047-11.919c-1.605-4.669-2.416-9.948-2.416-15.85h-2.153c0 6.098.839 11.619 2.534 16.55l2.035-.7zm-2.416-15.85c0-5.851.811-11.105 2.416-15.775l-2.035-.7c-1.695 4.93-2.534 10.426-2.534 16.475h2.153zm2.414-15.769c1.657-4.726 4.01-8.72 7.049-12l-1.579-1.462c-3.261 3.52-5.757 7.776-7.501 12.75l2.031.712zm7.049-12c3.041-3.282 6.711-5.82 11.024-7.612l-.826-1.988c-4.587 1.907-8.517 4.62-11.777 8.138l1.579 1.462zm11.02-7.61c4.352-1.79 9.26-2.695 14.741-2.695V33.75c-5.72 0-10.912.945-15.56 2.856l.819 1.99zm14.741 65.105c7.762 0 13.719-2.604 17.665-7.936l-1.73-1.28c-3.455 4.668-8.698 7.064-15.935 7.064v2.152zm17.668-7.94c3.883-5.3 5.758-12.579 5.758-21.711h-2.153c0 8.868-1.824 15.639-5.341 20.439l1.736 1.272zm5.758-21.711c0-9.18-1.875-16.486-5.758-21.786l-1.736 1.272c3.516 4.8 5.341 11.595 5.341 20.514h2.153zm-5.758-21.786c-3.944-5.383-9.902-8.015-17.668-8.015V46.4c7.233 0 12.476 2.418 15.932 7.135l1.736-1.272zm-17.668-8.015c-3.922 0-7.405.67-10.422 2.047l.893 1.958c2.683-1.224 5.851-1.853 9.529-1.853V44.25zm-10.429 2.05a19.921 19.921 0 00-7.447 5.941l1.701 1.32a17.762 17.762 0 016.653-5.309l-.907-1.952zm-7.455 5.953c-1.95 2.582-3.404 5.741-4.382 9.448l2.081.55c.922-3.493 2.269-6.384 4.019-8.702l-1.718-1.297zm-4.385 9.459c-.926 3.653-1.383 7.77-1.383 12.339h2.153c0-4.43.443-8.364 1.317-11.81l-2.087-.53zm-1.383 12.339c0 9.132 1.876 16.412 5.759 21.711l1.736-1.272c-3.517-4.8-5.342-11.571-5.342-20.439h-2.153zm5.766 21.72c3.998 5.331 10.029 7.931 17.886 7.931v-2.152c-7.343 0-12.662-2.4-16.164-7.07l-1.722 1.292zm83.643-44.52l-1.073.084.321 4.114 1.729-3.747-.977-.451zm8.85-12.15l.687.829.007-.006-.694-.823zm17.4-3.9l-.252 1.046.008.002.244-1.048zm3.975 1.65l1.071.105.064-.65-.547-.356-.588.901zm-.975 9.975l1.047.251.017-.072.007-.074-1.071-.105zm-5.325 1.425l-.233 1.05.233-1.05zm-11.025.6l-.372-1.01-.009.003.381 1.007zM346.371 52l.733.788.001-.001-.734-.787zm-3.975 5.1l-.929-.544-.004.008.933.536zm-3.15 6.9l-1.011-.37-.065.18V64h1.076zm0 48v1.076h1.076V112h-1.076zm-13.425 0h-1.076v1.076h1.076V112zm0-75.975v-1.076h-1.076v1.076h1.076zm10.65.825l.761-.761-.761.761zm1.125 2.85l1.073-.084-.003-.037-.005-.037-1.065.158zm1.877 12.001c2.35-5.09 5.211-8.998 8.56-11.772l-1.374-1.658c-3.651 3.026-6.69 7.219-9.14 12.528l1.954.902zm8.567-11.778c3.285-2.77 7.307-4.172 12.131-4.172V33.6c-5.276 0-9.804 1.547-13.519 4.678l1.388 1.646zm12.131-4.172c1.521 0 2.961.166 4.323.495l.505-2.092a20.523 20.523 0 00-4.828-.555v2.152zm4.331.497c1.392.325 2.598.83 3.631 1.503l1.176-1.802c-1.267-.827-2.711-1.422-4.318-1.797l-.489 2.096zm3.148.497l-.975 9.975 2.142.21.975-9.975-2.142-.21zm-.95 9.829c-.113.47-.282.707-.43.83-.141.117-.366.22-.774.22v2.152c.792 0 1.542-.21 2.152-.718.602-.502.958-1.203 1.145-1.982l-2.093-.502zm-1.204 1.05c-.578 0-1.509-.129-2.841-.425l-.467 2.102c1.367.303 2.486.475 3.308.475v-2.152zm-2.841-.425c-1.442-.32-3.048-.475-4.809-.475v2.152c1.639 0 3.083.145 4.342.425l.467-2.102zm-4.809-.475c-2.504 0-4.783.365-6.822 1.116l.744 2.02c1.761-.649 3.782-.984 6.078-.984v-2.152zm-6.831 1.12c-1.986.75-3.78 1.877-5.378 3.37l1.468 1.573c1.402-1.308 2.958-2.282 4.672-2.93l-.762-2.014zm-5.377 3.368c-1.54 1.434-2.928 3.221-4.171 5.344l1.858 1.088c1.157-1.977 2.42-3.59 3.779-4.856l-1.466-1.576zm-4.175 5.351c-1.186 2.063-2.261 4.42-3.228 7.068l2.022.738c.933-2.553 1.958-4.795 3.072-6.733l-1.866-1.073zM338.17 64v48h2.152V64h-2.152zm1.076 46.924h-13.425v2.152h13.425v-2.152zM326.897 112V36.025h-2.152V112h2.152zm-1.076-74.899h7.65V34.95h-7.65v2.15zm7.65 0c1.386 0 2.007.278 2.239.51l1.522-1.522c-.867-.868-2.247-1.14-3.761-1.14V37.1zm2.239.51c.304.303.633.972.821 2.247l2.13-.316c-.211-1.425-.632-2.657-1.429-3.453l-1.522 1.522zm.813 2.173l.9 11.55 2.146-.168-.9-11.55-2.146.168zm56.612 11.466l-1.073.084.32 4.114 1.73-3.747-.977-.451zm8.85-12.15l.686.829.007-.006-.693-.823zm17.4-3.9l-.253 1.046.008.002.245-1.048zm3.975 1.65l1.071.105.063-.65-.546-.356-.588.901zm-.975 9.975l1.046.251.018-.072.007-.074-1.071-.105zm-5.325 1.425l-.234 1.05.234-1.05zm-11.025.6l-.372-1.01-.009.003.381 1.007zM401.01 52l.733.788.001-.001-.734-.787zm-3.975 5.1l-.929-.544-.004.008.933.536zm-3.15 6.9l-1.011-.37-.065.18V64h1.076zm0 48v1.076h1.076V112h-1.076zm-13.425 0h-1.076v1.076h1.076V112zm0-75.975v-1.076h-1.076v1.076h1.076zm10.65.825l.761-.761-.761.761zm1.125 2.85l1.073-.084-.003-.037-.006-.037-1.064.158zm1.877 12.001c2.35-5.09 5.211-8.998 8.559-11.772l-1.373-1.658c-3.652 3.026-6.69 7.219-9.14 12.528l1.954.902zm8.566-11.778c3.286-2.77 7.308-4.172 12.132-4.172V33.6c-5.276 0-9.804 1.547-13.519 4.678l1.387 1.646zm12.132-4.172c1.521 0 2.961.166 4.322.495l.505-2.092a20.509 20.509 0 00-4.827-.555v2.152zm4.33.497c1.393.325 2.599.83 3.632 1.503l1.176-1.802c-1.267-.827-2.711-1.422-4.319-1.797l-.489 2.096zm3.149.497l-.975 9.975 2.142.21.975-9.975-2.142-.21zm-.951 9.829c-.113.47-.282.707-.43.83-.14.117-.365.22-.773.22v2.152c.792 0 1.541-.21 2.151-.718.602-.502.958-1.203 1.145-1.982l-2.093-.502zm-1.203 1.05c-.578 0-1.509-.129-2.842-.425l-.467 2.102c1.368.303 2.487.475 3.309.475v-2.152zm-2.842-.425c-1.441-.32-3.047-.475-4.808-.475v2.152c1.638 0 3.083.145 4.341.425l.467-2.102zm-4.808-.475c-2.504 0-4.783.365-6.822 1.116l.744 2.02c1.761-.649 3.782-.984 6.078-.984v-2.152zm-6.831 1.12c-1.986.75-3.78 1.877-5.379 3.37l1.469 1.573c1.402-1.308 2.958-2.282 4.672-2.93l-.762-2.014zm-5.378 3.368c-1.54 1.434-2.927 3.221-4.17 5.344l1.858 1.088c1.157-1.977 2.419-3.59 3.779-4.856l-1.467-1.576zm-4.174 5.351c-1.186 2.063-2.261 4.42-3.228 7.068l2.022.738c.933-2.553 1.958-4.795 3.072-6.733l-1.866-1.073zM392.809 64v48h2.152V64h-2.152zm1.076 46.924H380.46v2.152h13.425v-2.152zM381.536 112V36.025h-2.152V112h2.152zm-1.076-74.899h7.65V34.95h-7.65v2.15zm7.65 0c1.386 0 2.006.278 2.239.51l1.522-1.522c-.868-.868-2.247-1.14-3.761-1.14V37.1zm2.239.51c.303.303.632.972.821 2.247l2.129-.316c-.211-1.425-.632-2.657-1.428-3.453l-1.522 1.522zm.813 2.173l.9 11.55 2.146-.168-.9-11.55-2.146.168zm91.71 25.941v1.076h1.076v-1.076h-1.076zm-1.35-8.475l-1.023.334.004.012.004.012 1.015-.358zm-3.825-6.675l-.812.706.01.011.01.011.792-.728zm-6.075-4.35l-.431.986.009.004.008.003.414-.993zm-23.4 4.05l.761.761-.761-.761zm-6.9 15.45l-1.066-.145-.167 1.221h1.233v-1.076zm52.35 35.625l.83.685.546-.662-.523-.679-.853.656zm-5.925 5.25l.574.91.007-.004.007-.005-.588-.901zm-7.425 3.6l-.363-1.013-.006.002.369 1.011zm-8.1 2.1l-.171-1.063-.009.002-.009.002.189 1.059zm-22.875-1.875l-.407.996.007.003.006.003.394-1.002zm-11.475-7.8l-.789.732.006.006.005.006.778-.744zm-7.8-45l-1.013-.363-.003.01 1.016.353zm7.05-11.925l.796.725.005-.006-.801-.719zm11.175-7.95l.427.988.009-.004-.436-.984zm27.45-.6l-.402.998.008.003.008.003.386-1.004zm10.05 6.6l-.774.748.007.006.006.007.761-.761zm6.675 10.65l-1.007.38.002.003 1.005-.383zm-51.6 19.65v-1.076h-1.11l.035 1.11 1.075-.034zm1.95 12.525l-1.024.332.005.013 1.019-.345zm4.95 8.925l-.81.709.008.008.802-.717zm7.5 5.325l-.411.994.007.003.008.003.396-1zm18.375.6l.321 1.027.013-.004-.334-1.023zm6.3-2.55l-.492-.957.492.957zm4.35-2.475l.588.901.009-.005-.597-.896zm5.625.075l-.879.62.013.019.013.017.853-.656zm-5.974-30.75c0-3.204-.465-6.153-1.411-8.833l-2.03.716c.854 2.42 1.289 5.121 1.289 8.117h2.152zm-1.403-8.81c-.893-2.733-2.242-5.095-4.055-7.068l-1.585 1.456c1.587 1.727 2.788 3.815 3.594 6.281l2.046-.668zm-4.035-7.046c-1.763-2.03-3.926-3.576-6.474-4.637l-.828 1.986c2.252.939 4.139 2.292 5.677 4.063l1.625-1.412zm-6.456-4.63c-2.557-1.118-5.432-1.665-8.607-1.665v2.152c2.926 0 5.5.504 7.744 1.485l.863-1.972zm-8.607-1.665c-6.622 0-11.993 1.948-15.986 5.94l1.522 1.522c3.508-3.508 8.287-5.31 14.464-5.31v-2.152zm-15.986 5.94c-3.907 3.907-6.282 9.297-7.205 16.066l2.133.29c.877-6.43 3.101-11.341 6.594-14.834l-1.522-1.522zm-6.139 17.287h41.55V64.65h-41.55v2.15zm51.52 33.864c-1.577 1.911-3.468 3.59-5.683 5.034l1.176 1.802c2.386-1.556 4.444-3.377 6.167-5.466l-1.66-1.37zm-5.669 5.025a36.751 36.751 0 01-7.214 3.497l.726 2.026a38.744 38.744 0 007.636-3.703l-1.148-1.82zm-7.22 3.499a42.68 42.68 0 01-7.902 2.048l.342 2.126a44.912 44.912 0 008.299-2.152l-.739-2.022zm-7.92 2.052c-2.74.489-5.451.733-8.136.733v2.152c2.816 0 5.654-.256 8.514-.767l-.378-2.118zm-8.136.733c-5.128 0-9.843-.855-14.156-2.551l-.788 2.004c4.588 1.804 9.573 2.699 14.944 2.699v-2.152zm-14.142-2.545c-4.262-1.744-7.96-4.258-11.105-7.548l-1.556 1.488c3.356 3.51 7.307 6.196 11.846 8.052l.815-1.992zm-11.094-7.536c-3.088-3.329-5.517-7.448-7.275-12.38l-2.027.723c1.842 5.169 4.412 9.55 7.724 13.121l1.578-1.464zm-7.275-12.38c-1.751-4.91-2.637-10.585-2.637-17.038h-2.153c0 6.647.913 12.573 2.763 17.761l2.027-.722zm-2.637-17.038c0-5.19.783-10.02 2.34-14.496l-2.033-.708c-1.643 4.724-2.46 9.794-2.46 15.204h2.153zm2.336-14.487c1.606-4.477 3.886-8.326 6.833-11.563l-1.592-1.45c-3.152 3.463-5.573 7.564-7.267 12.287l2.026.726zm6.838-11.57c2.941-3.278 6.537-5.838 10.801-7.68l-.853-1.976c-4.536 1.959-8.391 4.698-11.55 8.22l1.602 1.437zm10.81-7.684c4.245-1.881 9.043-2.833 14.414-2.833V33.75c-5.629 0-10.73.998-15.286 3.017l.872 1.968zm14.414-2.833c4.426 0 8.488.753 12.198 2.247l.804-1.996c-3.989-1.607-8.327-2.403-13.002-2.403V35.9zm12.214 2.253c3.759 1.446 6.975 3.56 9.662 6.343l1.549-1.495c-2.914-3.017-6.397-5.302-10.438-6.857l-.773 2.01zm9.675 6.357c2.729 2.729 4.876 6.143 6.429 10.268l2.014-.758c-1.647-4.375-3.949-8.06-6.921-11.032l-1.522 1.522zm6.431 10.272c1.545 4.056 2.329 8.722 2.329 14.017h2.152c0-5.505-.815-10.439-2.47-14.783l-2.011.766zm2.329 14.017c0 1.017-.055 1.83-.155 2.454-.103.643-.242.997-.349 1.164l1.811 1.164c.342-.533.541-1.229.663-1.986.125-.777.182-1.713.182-2.796h-2.152zm-.504 3.618c-.165.257-.565.556-1.645.556v2.152c1.421 0 2.721-.401 3.456-1.544l-1.811-1.164zm-1.645.556h-50.775v2.152h50.775v-2.152zm-51.85 1.11c.152 4.873.813 9.153 2.001 12.823l2.048-.664c-1.111-3.43-1.75-7.5-1.898-12.227l-2.151.068zm2.006 12.836c1.237 3.66 2.951 6.765 5.159 9.289l1.62-1.418c-1.992-2.276-3.578-5.121-4.74-8.56l-2.039.689zm5.167 9.297a21.466 21.466 0 007.891 5.602l.823-1.988a19.313 19.313 0 01-7.109-5.048l-1.605 1.434zm7.906 5.608c3.044 1.208 6.431 1.801 10.146 1.801v-2.152c-3.485 0-6.597-.557-9.353-1.65l-.793 2.001zm10.146 1.801c3.425 0 6.414-.383 8.946-1.174l-.642-2.054c-2.268.709-5.029 1.076-8.304 1.076v2.152zm8.959-1.178c2.489-.813 4.645-1.683 6.458-2.616l-.984-1.914c-1.686.867-3.731 1.697-6.142 2.484l.668 2.046zm6.458-2.616c1.771-.91 3.255-1.754 4.446-2.53l-1.176-1.803c-1.109.723-2.524 1.53-4.254 2.419l.984 1.914zm4.455-2.536c1.133-.756 1.943-1.02 2.478-1.02v-2.152c-1.164 0-2.405.536-3.672 1.38l1.194 1.791zm2.478-1.02c.774 0 1.286.274 1.671.82l1.759-1.242c-.815-1.154-2.004-1.73-3.43-1.73v2.152zm1.697.855l3.75 4.875 1.706-1.312-3.75-4.875-1.706 1.312zM523.87 47.05l-1.067.136.298 2.343 1.573-1.763-.804-.716zm5.25-5.025l.678.836-.678-.836zm5.85-3.825l.491.958.009-.005-.5-.953zm6.6-2.475l.251 1.047.008-.002.008-.002-.267-1.043zm18.525 1.2l-.437.983.01.005.009.004.418-.992zm7.95 5.85l-.83.684.007.009.007.009.816-.702zm4.875 9.075l1.028-.319-1.028.319zm1.65 60.15v1.076h1.077V112h-1.077zm-13.425 0h-1.076v1.076h1.076V112zm-3.975-61.725l-.835.679.006.007.006.007.823-.693zm-23.025-1.95l-.519-.943-.006.004.525.939zm-9.45 7.725l-.803-.716-.273.306v.41h1.076zm0 55.95v1.076h1.077V112h-1.077zm-13.425 0h-1.076v1.076h1.076V112zm0-75.975v-1.076h-1.076v1.076h1.076zm11.55 2.775l1.068-.136-.008-.06-.014-.058-1.046.254zm1.854 8.966a44.018 44.018 0 015.124-4.905l-1.355-1.672a46.143 46.143 0 00-5.376 5.145l1.607 1.432zm5.124-4.905a32.526 32.526 0 015.663-3.703l-.981-1.916a34.654 34.654 0 00-6.037 3.947l1.355 1.672zm5.672-3.708a27.319 27.319 0 016.351-2.381l-.501-2.094a29.486 29.486 0 00-6.849 2.569l.999 1.906zm6.367-2.385c2.253-.576 4.688-.867 7.308-.867V33.75c-2.779 0-5.395.309-7.841.933l.533 2.086zm7.308-.867c4.03 0 7.526.68 10.513 2.007l.874-1.967c-3.312-1.472-7.116-2.192-11.387-2.192V35.9zm10.532 2.016c3.048 1.285 5.554 3.133 7.538 5.542l1.661-1.368c-2.216-2.691-5.011-4.744-8.362-6.158l-.837 1.984zm7.552 5.56c2.043 2.375 3.601 5.265 4.663 8.692l2.056-.637c-1.138-3.673-2.829-6.833-5.087-9.459l-1.632 1.404zm4.663 8.692c1.064 3.432 1.602 7.247 1.602 11.456h2.153c0-4.391-.562-8.426-1.699-12.093l-2.056.637zm1.602 11.456V112h2.153V63.625h-2.153zm1.076 47.299h-13.425v2.152h13.425v-2.152zM562.222 112V63.625h-2.153V112h2.153zm0-48.375c0-5.904-1.361-10.634-4.228-14.043l-1.647 1.386c2.432 2.891 3.722 7.06 3.722 12.657h2.153zm-4.216-14.029c-2.862-3.522-7.191-5.197-12.761-5.197v2.152c5.13 0 8.752 1.525 11.09 4.403l1.671-1.358zM545.245 44.4c-4.131 0-8.009.995-11.619 2.983l1.038 1.886c3.291-1.812 6.812-2.717 10.581-2.717V44.4zm-11.625 2.986c-3.516 1.965-6.757 4.62-9.728 7.949l1.606 1.432c2.83-3.17 5.888-5.666 9.172-7.502l-1.05-1.879zm-10.001 8.665V112h2.153V56.05h-2.153zm1.076 54.874H511.27v2.152h13.425v-2.152zM512.347 112V36.025h-2.153V112h2.153zm-1.077-74.899h8.025V34.95h-8.025v2.15zm8.025 0c.775 0 1.289.187 1.641.463.352.277.655.735.839 1.49l2.091-.508c-.266-1.095-.775-2.025-1.599-2.673-.823-.648-1.847-.924-2.972-.924V37.1zm2.458 1.835l1.05 8.25 2.135-.272-1.05-8.25-2.135.272zm81.585 69.239l-.779.743.006.006.773-.749zM598.537 47.2h1.077v-1.076h-1.077V47.2zm-11.175-.675l-.723.796.02.02.022.017.681-.833zm-.825-7.575l-.135-1.068-.941.12v.948h1.076zm12.45-1.575l.136 1.068.824-.104.108-.824-1.068-.14zm3.075-23.475l-1.055-.211-.007.035-.005.036 1.067.14zm.975-1.8l.72.8.004-.004-.724-.796zm8.851-.75h1.076v-1.076h-1.076v1.076zm0 26.175h-1.077v1.076h1.077v-1.076zm21.974 0h1.077v-1.076h-1.077v1.076zm0 9.675v1.076h1.077V47.2h-1.077zm-21.974 0v-1.076h-1.077V47.2h1.077zm2.325 52.725l.761-.761-.761.761zm9.599 1.8l.356 1.016.014-.005.014-.005-.384-1.006zm2.701-1.275l-.554-.923.554.923zm1.875-1.2l.617.882.008-.006.008-.006-.633-.87zm3.3.675l.918-.562-.008-.011-.007-.012-.903.585zm3.9 6.375l.734.786.642-.599-.458-.749-.918.562zm-8.325 5.1l.372 1.01.007-.003.007-.003-.386-1.004zm-10.05.724c-5.797 0-10.109-1.613-13.103-4.698l-1.545 1.498c3.506 3.615 8.444 5.352 14.648 5.352v-2.152zm-13.097-4.692c-2.949-3.087-4.502-7.607-4.502-13.732h-2.153c0 6.475 1.647 11.605 5.098 15.218l1.557-1.486zM599.614 93.7V47.2h-2.153v46.5h2.153zm-1.077-47.576h-9.149v2.152h9.149v-2.152zm-9.149 0c-.585 0-1.01-.159-1.344-.432l-1.363 1.666c.766.627 1.691.918 2.707.918v-2.152zm-1.302-.395c-.255-.233-.472-.648-.472-1.454h-2.153c0 1.194.333 2.279 1.178 3.046l1.447-1.592zm-.472-1.454V38.95h-2.153v5.325h2.153zm-.941-4.257l12.45-1.575-.271-2.136-12.45 1.575.271 2.136zm13.382-2.503l3.075-23.475-2.135-.28-3.075 23.475 2.135.28zm3.063-23.404c.111-.555.335-.937.639-1.211l-1.439-1.6c-.696.626-1.122 1.444-1.311 2.389l2.111.422zm.643-1.215c.324-.294.753-.47 1.377-.47v-2.152c-1.077 0-2.048.324-2.824 1.03l1.447 1.592zm1.377-.47h6.75v-2.152h-6.75v2.152zm5.673-1.076v26.175h2.153V11.35h-2.153zm1.077 27.251h21.974V36.45h-21.974v2.15zm20.898-1.076V47.2h2.153v-9.675h-2.153zm1.076 8.599h-21.974v2.152h21.974v-2.152zM610.811 47.2v45.6h2.153V47.2h-2.153zm0 45.6c0 3.354.812 6.057 2.64 7.886l1.523-1.522c-1.272-1.271-2.01-3.318-2.01-6.364h-2.153zm2.64 7.886c1.777 1.776 4.063 2.64 6.762 2.64v-2.152c-2.202 0-3.916-.686-5.239-2.01l-1.523 1.522zm6.762 2.64c1.484 0 2.811-.185 3.955-.585l-.711-2.032c-.856.3-1.929.465-3.244.465v2.152zm3.983-.595c1.093-.417 2.053-.868 2.87-1.358l-1.107-1.846c-.683.41-1.523.809-2.53 1.192l.767 2.012zm2.87-1.358a33.948 33.948 0 001.939-1.241l-1.235-1.764c-.472.331-1.074.717-1.811 1.16l1.107 1.845zm1.955-1.253c.481-.35.729-.394.791-.394v-2.152c-.737 0-1.439.356-2.057.806l1.266 1.74zm.791-.394c.189 0 .525.092.972.784l1.807-1.17c-.653-1.008-1.567-1.766-2.779-1.766v2.152zm.957.761l3.9 6.375 1.837-1.124-3.9-6.375-1.837 1.124zm4.084 5.027c-2.189 2.046-4.842 3.676-7.977 4.882l.773 2.008c3.365-1.294 6.262-3.064 8.673-5.318l-1.469-1.572zm-7.963 4.876a27.696 27.696 0 01-9.677 1.734v2.152c3.577 0 7.053-.623 10.422-1.866l-.745-2.02zm139.836-19.615l-.791.73.002.002.789-.732zM772.501 97l.815.703.629-.729-.655-.706-.789.732zm-16.05 11.925l-.443-.981-.003.002.446.979zm-43.725.3l-.424.989.007.003.417-.992zm-16.125-11.25l-.793.728.004.004.789-.732zm-10.35-17.4l1.012-.367-1.012.367zm.15-44.55l1.007.38-1.007-.38zm10.725-17.4l-.777-.745-.004.004.781.741zm16.65-11.25l.409.995.007-.002-.416-.993zM755.401 7l.416-.993-.416.993zm15.45 9.975l.874.628.55-.764-.685-.647-.739.783zm-4.8 6.675l-.874-.628-.026.036-.023.038.923.554zm-1.2 1.275l.597.895.01-.006.01-.007-.617-.882zm-5.175-.975l-.656.853.011.008.01.008.635-.869zm-5.1-3.3l.534-.934-.534.934zm-7.875-3.225l-.325 1.026.007.002.007.002.311-1.03zm-26.85 1.425l.411.995.009-.004-.42-.991zm-11.925 8.325l-.793-.728-.005.006.798.722zm-7.65 49.05l-1.012.366.003.009 1.009-.375zm7.875 13.35l-.798.722.005.005.005.006.788-.733zm11.775 8.25l-.418.992.003.001.415-.993zm23.325 2.325l.147 1.066.008-.001.009-.001-.164-1.064zm7.125-1.8l-.368-1.011-.007.002.375 1.009zm6.075-3l.586.903.006-.004-.592-.899zm5.625-4.425l-.712-.807-.008.007-.008.007.728.793zm2.55-.049c.466 0 .889.174 1.309.629l1.582-1.46c-.78-.845-1.757-1.321-2.891-1.321v2.152zm1.311.631l5.775 6.225 1.578-1.464-5.775-6.225-1.578 1.464zm5.749 4.79c-4.295 4.978-9.517 8.86-15.678 11.647l.887 1.962c6.438-2.913 11.916-6.981 16.421-12.203l-1.63-1.406zm-15.681 11.649c-6.075 2.77-13.489 4.178-22.279 4.178v2.152c9.011 0 16.747-1.442 23.172-4.372l-.893-1.958zm-22.279 4.178c-7.575 0-14.43-1.303-20.583-3.891l-.834 1.984c6.448 2.712 13.592 4.059 21.417 4.059v-2.152zm-20.576-3.888c-6.168-2.644-11.417-6.308-15.76-10.993l-1.578 1.464c4.557 4.915 10.058 8.751 16.49 11.507l.848-1.978zm-15.756-10.989c-4.345-4.736-7.725-10.41-10.131-17.04l-2.023.735c2.494 6.871 6.014 12.797 10.568 17.76l1.586-1.455zm-10.131-17.04c-2.402-6.617-3.611-13.916-3.611-21.907H681.5c0 8.21 1.242 15.76 3.74 22.642l2.023-.734zM683.652 58.3c0-7.986 1.257-15.28 3.756-21.895l-2.014-.76c-2.601 6.885-3.894 14.44-3.894 22.655h2.152zm3.756-21.895c2.503-6.627 6.005-12.301 10.499-17.04l-1.562-1.48c-4.706 4.961-8.354 10.886-10.951 17.76l2.014.76zm10.495-17.035c4.542-4.738 9.966-8.404 16.282-11l-.818-1.99c-6.583 2.704-12.26 6.538-17.018 11.5l1.554 1.49zm16.289-11.002c6.304-2.64 13.285-3.967 20.959-3.967V2.25c-7.926 0-15.194 1.372-21.79 4.133l.831 1.986zM735.151 4.4c7.536 0 14.14 1.207 19.834 3.592l.832-1.986c-6.006-2.515-12.902-3.758-20.666-3.758V4.4zm19.834 3.592c5.735 2.402 10.775 5.657 15.127 9.765l1.478-1.566c-4.548-4.292-9.808-7.687-15.773-10.185l-.832 1.986zm14.992 8.354l-4.8 6.675 1.748 1.256 4.8-6.675-1.748-1.256zm-4.849 6.75a3.072 3.072 0 01-.894.946l1.234 1.764a5.23 5.23 0 001.506-1.603l-1.846-1.108zm-.874.932c-.207.139-.594.27-1.278.27v2.152c.917 0 1.779-.169 2.472-.63l-1.194-1.792zm-1.278.27c-.552 0-1.421-.31-2.665-1.218l-1.27 1.738c1.357.991 2.688 1.632 3.935 1.632V24.3zm-2.644-1.202c-1.352-1.04-3.097-2.167-5.222-3.381l-1.068 1.868c2.076 1.186 3.73 2.26 4.978 3.219l1.312-1.706zm-5.222-3.381c-2.191-1.252-4.896-2.356-8.098-3.321l-.622 2.06c3.098.935 5.643 1.981 7.652 3.13l1.068-1.87zm-8.083-3.317c-3.288-1.043-7.28-1.55-11.951-1.55V17c4.53 0 8.287.493 11.3 1.45l.651-2.052zm-11.951-1.55c-5.678 0-10.898.998-15.645 3.01l.84 1.982c4.453-1.888 9.383-2.84 14.805-2.84v-2.15zm-15.636 3.006c-4.744 1.96-8.85 4.826-12.307 8.592l1.586 1.456c3.243-3.534 7.088-6.218 11.543-8.058l-.822-1.99zm-12.312 8.598c-3.408 3.769-6.051 8.347-7.942 13.714l2.03.716c1.809-5.133 4.316-9.455 7.508-12.986l-1.596-1.444zm-7.942 13.714c-1.897 5.384-2.836 11.433-2.836 18.133h2.152c0-6.5.911-12.301 2.714-17.417l-2.03-.716zM696.35 58.3c0 6.8.964 12.903 2.914 18.291l2.024-.732c-1.85-5.112-2.786-10.96-2.786-17.559h-2.152zm2.917 18.3c1.991 5.36 4.683 9.933 8.086 13.697l1.596-1.444c-3.196-3.535-5.755-7.863-7.664-13.003l-2.018.75zm8.096 13.708c3.453 3.71 7.504 6.549 12.145 8.508l.837-1.983c-4.359-1.84-8.159-4.502-11.406-7.991l-1.576 1.466zm12.148 8.51c4.69 1.958 9.732 2.933 15.115 2.933v-2.152c-5.117 0-9.875-.925-14.285-2.767l-.83 1.986zm15.115 2.933c3.238 0 6.163-.177 8.772-.535l-.293-2.132c-2.492.342-5.317.515-8.479.515v2.152zm8.789-.537c2.662-.41 5.109-1.026 7.336-1.855l-.75-2.018c-2.073.772-4.375 1.355-6.913 1.745l.327 2.128zm7.329-1.853a30.945 30.945 0 006.293-3.108l-1.172-1.806a28.767 28.767 0 01-5.857 2.892l.736 2.022zm6.299-3.112c1.953-1.285 3.873-2.796 5.761-4.531l-1.456-1.586c-1.812 1.665-3.641 3.104-5.488 4.319l1.183 1.798zm5.745-4.517c.72-.635 1.327-.856 1.838-.856v-2.152c-1.189 0-2.282.53-3.262 1.394l1.424 1.614zm36.858-45.582h-1.076v2.712l1.86-1.974-.784-.738zm10.8-8.25l-.495-.955.495.955zm24.601-.975l-.438.983.01.005.009.004.419-.992zm7.949 5.85l-.83.684.007.009.007.009.816-.702zm4.875 9.075l1.028-.319-1.028.319zm1.65 60.15v1.076h1.077V112h-1.077zm-13.425 0h-1.076v1.076h1.076V112zm-3.975-61.725l-.835.679.006.007.006.007.823-.693zm-23.025-1.95l-.519-.943-.006.004.525.939zm-9.45 7.725l-.803-.716-.273.306v.41h1.076zm0 55.95v1.076h1.077V112h-1.077zm-13.425 0h-1.076v1.076h1.076V112zm0-110.475V.449h-1.076v1.076h1.076zm13.425 0h1.077V.449h-1.077v1.076zm.784 45.363c3.172-3.368 6.676-6.042 10.512-8.033l-.991-1.91c-4.064 2.109-7.76 4.935-11.088 8.467l1.567 1.476zm10.512-8.033c3.775-1.959 8.15-2.954 13.154-2.954V33.75c-5.295 0-10.02 1.055-14.145 3.196l.991 1.91zm13.154-2.954c4.03 0 7.526.68 10.513 2.007l.875-1.967c-3.313-1.472-7.117-2.192-11.388-2.192V35.9zm10.532 2.016c3.048 1.285 5.554 3.133 7.538 5.542l1.661-1.368c-2.216-2.691-5.01-4.744-8.362-6.158l-.837 1.984zm7.552 5.56c2.043 2.375 3.602 5.265 4.664 8.692l2.055-.637c-1.138-3.673-2.829-6.833-5.087-9.459l-1.632 1.404zm4.664 8.692c1.063 3.432 1.601 7.247 1.601 11.456h2.153c0-4.391-.562-8.426-1.699-12.093l-2.055.637zm1.601 11.456V112h2.153V63.625h-2.153zm1.076 47.299h-13.425v2.152h13.425v-2.152zM837.173 112V63.625h-2.153V112h2.153zm0-48.375c0-5.904-1.36-10.634-4.228-14.043l-1.647 1.386c2.432 2.891 3.722 7.06 3.722 12.657h2.153zm-4.216-14.029c-2.862-3.522-7.191-5.197-12.761-5.197v2.152c5.131 0 8.752 1.525 11.09 4.403l1.671-1.358zM820.196 44.4c-4.131 0-8.009.995-11.619 2.983l1.039 1.886c3.29-1.812 6.811-2.717 10.58-2.717V44.4zm-11.625 2.986c-3.516 1.965-6.757 4.62-9.728 7.949l1.607 1.432c2.829-3.17 5.887-5.666 9.172-7.502l-1.051-1.879zM798.57 56.05V112h2.153V56.05h-2.153zm1.076 54.874h-13.425v2.152h13.425v-2.152zM787.298 112V1.525h-2.153V112h2.153zM786.221 2.601h13.425V.45h-13.425V2.6zm12.349-1.076V46.15h2.153V1.525h-2.153zM911.039 77.8h1.076v-1.112l-1.111.036.035 1.076zm-15.75 1.5l.185 1.06.01-.001-.195-1.059zm-10.575 3l-.445-.98-.007.003.452.977zm-5.925 4.425l-.867-.637-.006.008-.006.008.879.621zm-.825 10.875l-.982.44.982-.44zm2.625 3.6l-.703.815.019.017.021.016.663-.848zm3.975 2.025l-.309 1.031.02.006.02.005.269-1.042zm11.4-.075l.242 1.049.013-.003.012-.003-.267-1.043zm5.475-2.1l-.492-.957-.012.006.504.951zm4.95-3.225l-.662-.848-.007.005-.007.005.676.838zm4.65-4.275l.785.736.291-.31v-.426h-1.076zm-43.125-46.8l-.747-.775-.598.577.407.725.938-.527zm13.575-9.075l-.41-.995.41.995zm27.45-.9l.42-.99-.42.99zm8.325 5.85l.8-.72-.8.72zm5.1 9.075l-1.024.332 1.024-.332zm1.725 60.3v1.076h1.076V112h-1.076zm-8.925-.6l-.582.905.024.015.024.014.534-.934zm-1.65-2.55l-1.054.22.012.054.017.054 1.025-.328zm-1.5-7.2l1.054-.22-.388-1.862-1.397 1.292.731.79zm-5.85 4.95l.638.866.008-.005.007-.005-.653-.856zm-6 3.6l.444.981.009-.005.01-.004-.463-.972zm-6.75 2.175l-.219-1.054-.013.003-.013.003.245 1.048zm-16.2-.375l-.334 1.023.009.003.009.003.316-1.029zm-6.825-3.75l-.706.813.011.009.695-.822zm-4.575-6.225l-.988.426.005.012.005.012.978-.45zm.825-17.625l.923.554.004-.008-.927-.546zm8.025-7.425l.541.93-.541-.93zm14.475-5.25l.238 1.05.009-.002-.247-1.048zm21.9-2.4l.025 1.076 1.051-.024v-1.052h-1.076zm-3.825-19.275l-.826.69.006.007.82-.697zm-19.5-3.3l.368 1.011.012-.004-.38-1.007zm-5.775 2.775l.57.913.008-.005-.578-.908zm-4.2 2.775l.615.884.007-.006-.622-.878zm-5.775.525l-.656.853.021.017.022.015.613-.885zm-1.65-1.8l-.938.527.015.028.018.027.905-.582zm40.69 25.7c-6.184.2-11.491.704-15.91 1.517l.39 2.117c4.281-.788 9.475-1.284 15.59-1.483l-.07-2.152zm-15.9 1.515c-4.354.76-7.974 1.78-10.835 3.08l.89 1.96c2.64-1.2 6.069-2.18 10.315-2.92l-.37-2.12zm-10.842 3.083c-2.801 1.297-4.947 2.87-6.34 4.765l1.734 1.275c1.108-1.507 2.911-2.883 5.51-4.086l-.904-1.954zm-6.352 4.781c-1.33 1.884-1.997 4-1.997 6.321h2.152c0-1.88.533-3.563 1.603-5.08l-1.758-1.24zm-1.997 6.321c0 2.114.343 3.996 1.069 5.615l1.964-.88c-.574-1.28-.881-2.849-.881-4.735h-2.152zm1.069 5.615c.708 1.58 1.674 2.912 2.904 3.975l1.406-1.63c-.97-.837-1.754-1.905-2.346-3.225l-1.964.88zm2.944 4.008c1.263.988 2.71 1.722 4.329 2.208l.618-2.062c-1.381-.414-2.584-1.03-3.621-1.842l-1.326 1.696zm4.369 2.219c1.646.425 3.387.634 5.219.634v-2.152c-1.668 0-3.227-.191-4.681-.566l-.538 2.084zm5.219.634c2.418 0 4.65-.231 6.692-.702l-.484-2.098c-1.858.429-3.926.648-6.208.648v2.152zm6.717-.708a25.941 25.941 0 005.712-2.192l-1.008-1.902a23.738 23.738 0 01-5.238 2.008l.534 2.086zm5.7-2.186a30.1 30.1 0 005.134-3.344l-1.352-1.676a27.883 27.883 0 01-4.766 3.106l.984 1.914zm5.121-3.334a42.004 42.004 0 004.772-4.387l-1.57-1.472a39.922 39.922 0 01-4.527 4.163l1.325 1.696zm5.063-5.123V77.8h-2.152v15.75h2.152zm-43.454-46.025c4.114-3.967 8.527-6.912 13.238-8.855l-.82-1.99c-4.989 2.057-9.626 5.162-13.912 9.295l1.494 1.55zm13.238-8.855c4.705-1.94 9.938-2.919 15.715-2.919V33.6c-6.023 0-11.54 1.021-16.535 3.081l.82 1.99zm15.715-2.919c4.132 0 7.76.68 10.905 2.015l.84-1.982c-3.455-1.466-7.377-2.185-11.745-2.185v2.152zm10.905 2.015c3.165 1.342 5.807 3.203 7.945 5.579l1.6-1.44c-2.362-2.624-5.27-4.663-8.705-6.12l-.84 1.98zm7.945 5.579c2.138 2.376 3.768 5.265 4.876 8.687l2.048-.664c-1.192-3.678-2.962-6.839-5.324-9.463l-1.6 1.44zm4.876 8.687c1.111 3.429 1.673 7.215 1.673 11.368h2.152c0-4.347-.588-8.36-1.777-12.032l-2.048.664zm1.673 11.368V112h2.152V63.4h-2.152zm1.076 47.524h-5.925v2.152h5.925v-2.152zm-5.925 0c-1.216 0-1.999-.192-2.466-.458l-1.068 1.868c.933.534 2.15.742 3.534.742v-2.152zm-2.418-.429c-.398-.256-.842-.832-1.207-1.973l-2.05.656c.435 1.359 1.092 2.483 2.093 3.127l1.164-1.81zm-1.178-1.865l-1.5-7.2-2.108.44 1.5 7.2 2.108-.44zm-3.285-7.77a79.805 79.805 0 01-5.772 4.884l1.306 1.712a82.724 82.724 0 005.928-5.016l-1.462-1.58zm-5.757 4.874a35.582 35.582 0 01-5.825 3.494l.926 1.944a37.785 37.785 0 006.175-3.706l-1.276-1.732zm-5.806 3.485c-2.023.916-4.198 1.617-6.525 2.102l.439 2.108a33.428 33.428 0 006.974-2.248l-.888-1.962zm-6.551 2.108c-2.256.528-4.797.797-7.63.797v2.152c2.967 0 5.676-.281 8.12-.853l-.49-2.096zm-7.63.797c-2.852 0-5.519-.387-8.008-1.153l-.633 2.058c2.71.834 5.593 1.247 8.641 1.247v-2.152zm-7.991-1.147c-2.477-.81-4.627-1.995-6.464-3.549l-1.39 1.644c2.063 1.746 4.463 3.061 7.186 3.951l.668-2.046zm-6.453-3.54c-1.774-1.54-3.211-3.488-4.303-5.862l-1.956.9c1.208 2.626 2.822 4.828 4.847 6.588l1.412-1.626zm-4.293-5.838c-1.029-2.387-1.562-5.236-1.562-8.574h-2.152c0 3.562.568 6.713 1.738 9.426l1.976-.852zm-1.562-8.574c0-2.791.765-5.477 2.322-8.071l-1.846-1.108c-1.743 2.906-2.628 5.97-2.628 9.179h2.152zm2.326-8.079c1.531-2.598 4.049-4.955 7.639-7.04l-1.082-1.862c-3.81 2.215-6.642 4.808-8.411 7.81l1.854 1.092zm7.639-7.04c3.575-2.078 8.287-3.796 14.172-5.131l-.476-2.1c-6.015 1.365-10.953 3.147-14.778 5.37l1.082 1.86zm14.181-5.133c5.854-1.378 13.075-2.173 21.678-2.372l-.05-2.152c-8.696.201-16.076 1.006-22.121 2.428l.493 2.096zm22.729-3.448V63.4h-2.152v5.925h2.152zm0-5.925c0-6.032-1.3-10.776-4.081-14.047l-1.64 1.394c2.319 2.729 3.569 6.885 3.569 12.653h2.152zm-4.075-14.04c-2.802-3.35-6.863-4.961-12.001-4.961v2.152c4.662 0 8.051 1.44 10.349 4.19l1.652-1.381zm-12.001-4.961c-3.385 0-6.298.435-8.705 1.344l.76 2.014c2.093-.79 4.73-1.206 7.945-1.206V44.4zm-8.693 1.34c-2.259.821-4.257 1.779-5.985 2.878l1.156 1.816c1.572-1 3.425-1.893 5.565-2.672l-.736-2.022zm-5.977 2.873a89.302 89.302 0 00-4.252 2.81l1.244 1.756a87.223 87.223 0 014.148-2.74l-1.14-1.826zm-4.245 2.804c-1.009.703-1.949 1.008-2.835 1.008v2.152c1.414 0 2.774-.495 4.065-1.392l-1.23-1.767zm-2.835 1.008c-.712 0-1.266-.175-1.712-.484l-1.226 1.77c.855.591 1.851.866 2.938.866v-2.152zm-1.669-.452a6.036 6.036 0 01-1.401-1.529l-1.81 1.164a8.155 8.155 0 001.899 2.071l1.312-1.706zm-1.367-1.474l-2.4-4.275-1.877 1.054 2.4 4.275 1.877-1.054zm87.272-14.473h1.076v-1.076h-1.076v1.076zm0 75.975v1.076h1.076V112h-1.076zm-13.35 0h-1.077v1.076h1.077V112zm0-75.975v-1.076h-1.077v1.076h1.077zM960.55 15.85l-.971-.464-.005.01-.004.009.98.445zm-2.1 3l-.761-.761.761.761zm-3.075 2.025l-.414-.993-.008.003-.008.003.43.987zm-7.35 0l-.446.98.008.003.009.004.429-.987zM945.1 18.85l-.783.739.011.011.011.011.761-.761zm-2.025-3l-.987.43.003.007.004.008.98-.445zm0-7.35l.987.43.003-.008.003-.008-.993-.414zm2.025-3.075l.761.761.01-.01.011-.012-.782-.739zm2.925-2.1l-.429-.987-.009.004-.008.003.446.98zm7.35 0l-.43.987.008.003.008.003.414-.993zm3.075 2.1l-.783.739.021.022.023.021.739-.782zm2.1 3.075l-.994.414.011.025.012.025.971-.464zm-3.102 27.525V112h2.153V36.025h-2.153zm1.077 74.899h-13.35v2.152h13.35v-2.152zM946.251 112V36.025h-2.153V112h2.153zm-1.076-74.899h13.35V34.95h-13.35v2.15zm15.123-24.926a7.33 7.33 0 01-.719 3.21l1.942.93c.62-1.299.93-2.683.93-4.14h-2.153zm-.728 3.23a9.125 9.125 0 01-1.881 2.684l1.522 1.522a11.26 11.26 0 002.318-3.316l-1.959-.89zm-1.881 2.684c-.743.743-1.647 1.342-2.728 1.793l.828 1.986c1.319-.55 2.464-1.3 3.422-2.257l-1.522-1.522zm-2.744 1.799a8.037 8.037 0 01-3.245.66v2.153c1.442 0 2.813-.278 4.104-.839l-.859-1.974zm-3.245.66a8.038 8.038 0 01-3.246-.66l-.858 1.974c1.29.561 2.662.84 4.104.84v-2.153zm-3.23-.653a8.808 8.808 0 01-2.609-1.806l-1.522 1.522c.941.942 2.023 1.69 3.24 2.244l.891-1.96zm-2.588-1.784a9.881 9.881 0 01-1.828-2.706l-1.959.89a12.012 12.012 0 002.222 3.294l1.565-1.478zm-1.82-2.69a8.04 8.04 0 01-.661-3.246h-2.153c0 1.442.279 2.814.84 4.104l1.974-.858zm-.661-3.246a8.04 8.04 0 01.661-3.246l-1.974-.858a10.194 10.194 0 00-.84 4.104h2.153zm.667-3.261c.45-1.081 1.05-1.985 1.793-2.728l-1.522-1.522c-.958.957-1.708 2.103-2.258 3.422l1.987.828zm1.814-2.75a8.197 8.197 0 012.588-1.86l-.891-1.959a10.342 10.342 0 00-3.262 2.341l1.565 1.478zm2.572-1.852a8.039 8.039 0 013.246-.66V1.498a10.19 10.19 0 00-4.104.839l.858 1.974zm3.246-.66c1.157 0 2.236.221 3.245.66l.859-1.974a10.194 10.194 0 00-4.104-.84v2.153zm3.261.666a7.775 7.775 0 012.706 1.846l1.565-1.478a9.933 9.933 0 00-3.443-2.354l-.828 1.986zm2.75 1.89a7.791 7.791 0 011.845 2.706l1.987-.828a9.932 9.932 0 00-2.354-3.443l-1.478 1.564zm1.868 2.756a7.337 7.337 0 01.719 3.211h2.153c0-1.457-.31-2.841-.93-4.14l-1.942.93zM993.06 47.05l-1.068.136.298 2.343 1.573-1.763-.803-.716zm5.25-5.025l.678.836-.678-.836zm5.85-3.825l.49.958.01-.005-.5-.953zm6.6-2.475l.25 1.047.01-.002.01-.002-.27-1.043zm18.52 1.2l-.43.983.01.005.01.004.41-.992zm7.95 5.85l-.83.684.01.009.01.009.81-.702zm4.88 9.075l1.03-.319-1.03.319zm1.65 60.15v1.076h1.08V112h-1.08zm-13.43 0h-1.07v1.076h1.07V112zm-3.97-61.725l-.84.679.01.007.01.007.82-.693zm-23.03-1.95l-.51-.943-.01.004.52.939zm-9.445 7.725l-.803-.716-.273.306v.41h1.076zm0 55.95v1.076h1.076V112h-1.076zm-13.425 0h-1.076v1.076h1.076V112zm0-75.975v-1.076h-1.076v1.076h1.076zm11.55 2.775l1.067-.136-.007-.06-.015-.058-1.045.254zm1.853 8.966a43.946 43.946 0 015.125-4.905l-1.356-1.672a46.135 46.135 0 00-5.375 5.145l1.606 1.432zm5.125-4.905a32.48 32.48 0 015.662-3.703l-.98-1.916a34.624 34.624 0 00-6.038 3.947l1.356 1.672zm5.672-3.708a27.362 27.362 0 016.35-2.381l-.5-2.094a29.46 29.46 0 00-6.85 2.569l1 1.906zm6.37-2.385c2.25-.576 4.68-.867 7.3-.867V33.75c-2.78 0-5.39.309-7.84.933l.54 2.086zm7.3-.867c4.03 0 7.53.68 10.52 2.007l.87-1.967c-3.31-1.472-7.11-2.192-11.39-2.192V35.9zm10.54 2.016c3.04 1.285 5.55 3.133 7.53 5.542l1.67-1.368c-2.22-2.691-5.02-4.744-8.37-6.158l-.83 1.984zm7.55 5.56c2.04 2.375 3.6 5.265 4.66 8.692l2.06-.637c-1.14-3.673-2.83-6.833-5.09-9.459l-1.63 1.404zm4.66 8.692c1.07 3.432 1.6 7.247 1.6 11.456h2.16c0-4.391-.57-8.426-1.7-12.093l-2.06.637zm1.6 11.456V112h2.16V63.625h-2.16zm1.08 47.299h-13.43v2.152h13.43v-2.152zM1031.41 112V63.625h-2.15V112h2.15zm0-48.375c0-5.904-1.36-10.634-4.23-14.043l-1.64 1.386c2.43 2.891 3.72 7.06 3.72 12.657h2.15zm-4.21-14.029c-2.87-3.522-7.2-5.197-12.77-5.197v2.152c5.13 0 8.76 1.525 11.09 4.403l1.68-1.358zm-12.77-5.197c-4.13 0-8 .995-11.61 2.983l1.03 1.886a21.598 21.598 0 0110.58-2.717V44.4zm-11.62 2.986c-3.516 1.965-6.758 4.62-9.728 7.949l1.606 1.432c2.829-3.17 5.892-5.666 9.172-7.502l-1.05-1.879zm-10.001 8.665V112h2.152V56.05h-2.152zm1.076 54.874H980.46v2.152h13.425v-2.152zM981.536 112V36.025h-2.152V112h2.152zm-1.076-74.899h8.025V34.95h-8.025v2.15zm8.025 0c.775 0 1.289.187 1.64.463.352.277.655.735.839 1.49l2.091-.508c-.266-1.095-.775-2.025-1.598-2.673-.824-.648-1.847-.924-2.972-.924V37.1zm2.457 1.835l1.05 8.25 2.135-.272-1.05-8.25-2.135.272z" fill="#000" fill-opacity=".06"/></svg>