<svg width="390" height="386" viewBox="0 0 390 386" fill="none" xmlns="http://www.w3.org/2000/svg">
<path fill-rule="evenodd" clip-rule="evenodd" d="M307.081 109.762L307.086 109.767C317.572 115.467 324.01 125.886 324 137.144V246.352C324.011 257.753 317.409 268.282 306.709 273.927L211.774 323.889C201.37 329.37 188.615 329.37 178.21 323.889L83.2854 273.927C72.5898 268.281 65.9904 257.755 66 246.357V137.149C65.9886 125.89 72.4236 115.47 82.9091 109.767L177.804 58.3079C188.403 52.564 201.526 52.564 212.125 58.3079L307.081 109.767V109.762Z" fill="#E6E9EB" fill-opacity="0.500355"/>
<path d="M50.0931 54.8264L50.1027 54.8232L50.1121 54.8196L51.5079 54.2871L51.3297 53.8199L54.1212 52.755L54.2995 53.2221L57.091 52.1572L56.9128 51.69L59.7044 50.6251L59.8826 51.0923L62.6742 50.0273L62.496 49.5601L65.2875 48.4952L65.4658 48.9624L68.2573 47.8974L68.0791 47.4302L70.8707 46.3653L71.0489 46.8325L73.8405 45.7675L73.6623 45.3004L76.4538 44.2354L76.632 44.7026L79.4236 43.6376L79.2454 43.1705L82.037 42.1055L82.2152 42.5727L85.0068 41.5077L84.8286 41.0406L87.6201 39.9756L87.7983 40.4428L90.5899 39.3778L90.4117 38.9107L93.2033 37.8457L93.3815 38.3129L96.1731 37.2479L95.9949 36.7808L98.7864 35.7158L98.9646 36.183L101.756 35.118L101.578 34.6509L104.37 33.5859L104.548 34.0531L107.339 32.9881L107.161 32.521L109.953 31.456L110.131 31.9232L112.923 30.8582L112.744 30.3911L115.536 29.3261L115.714 29.7933L118.506 28.7283L118.327 28.2612L121.119 27.1962L121.297 27.6634L124.089 26.5985L123.911 26.1313L126.702 25.0663L126.88 25.5335L129.672 24.4686L129.494 24.0014L132.285 22.9364L132.464 23.4036L135.255 22.3387L135.077 21.8715L137.868 20.8066L138.047 21.2737L140.838 20.2088L140.66 19.7416L143.452 18.6767L143.63 19.1438L146.421 18.0789L146.243 17.6117L149.035 16.5468L149.213 17.0139L152.005 15.949L151.826 15.4818L154.618 14.4169L154.796 14.884L157.588 13.8191L157.409 13.3519L160.201 12.287L160.379 12.7541L163.171 11.6892L162.993 11.222L165.784 10.1571L165.962 10.6242L168.754 9.55928L168.576 9.09212L171.367 8.02717L171.546 8.49433L172.941 7.96186L172.954 7.95707L172.966 7.95162L174.328 7.34628L174.125 6.88935C175.061 6.47374 175.955 6.07675 176.812 5.69842L177.014 6.15585C177.961 5.73783 178.862 5.34288 179.722 4.97095L179.524 4.512C180.476 4.10054 181.378 3.71699 182.238 3.36144L182.429 3.82351C183.389 3.42679 184.294 3.06571 185.154 2.74012L184.977 2.2725C185.956 1.90176 186.88 1.57612 187.761 1.29578L187.912 1.77225C188.894 1.45981 189.82 1.20547 190.709 1.0086L190.601 0.52042C191.604 0.298263 192.566 0.14704 193.514 0.0671194L193.556 0.56535C194.517 0.484281 195.461 0.478578 196.421 0.548581L196.457 0.0499064C197.407 0.11921 198.37 0.260755 199.375 0.474914L199.27 0.963915C200.16 1.15373 201.086 1.40242 202.068 1.71117L202.218 1.23418C203.1 1.51136 204.024 1.83541 205.004 2.20653L204.826 2.67411C205.686 2.99953 206.589 3.36191 207.548 3.76165L207.74 3.30017C208.599 3.65817 209.5 4.04548 210.45 4.46221L210.249 4.9201C211.106 5.29626 212.005 5.69663 212.949 6.12139L213.154 5.6654C214.008 6.04963 214.9 6.45357 215.832 6.87728L215.625 7.33246C216.067 7.53373 216.519 7.73948 216.981 7.94973L216.996 7.95627L217.01 7.96189L218.407 8.49438L218.585 8.02718L221.378 9.09213L221.2 9.55932L223.994 10.6243L224.172 10.1571L226.965 11.222L226.787 11.6892L229.58 12.7542L229.759 12.287L232.552 13.3519L232.374 13.8191L235.167 14.8841L235.345 14.4169L238.139 15.4818L237.961 15.949L240.754 17.014L240.932 16.5468L243.725 17.6117L243.547 18.0789L246.341 19.1439L246.519 18.6767L249.312 19.7416L249.134 20.2088L251.927 21.2738L252.106 20.8066L254.899 21.8715L254.721 22.3387L257.514 23.4037L257.692 22.9365L260.486 24.0014L260.308 24.4686L263.101 25.5335L263.279 25.0663L266.072 26.1313L265.894 26.5985L268.688 27.6634L268.866 27.1962L271.659 28.2612L271.481 28.7284L274.274 29.7933L274.453 29.3261L277.246 30.3911L277.068 30.8583L279.861 31.9232L280.039 31.456L282.833 32.521L282.655 32.9882L285.448 34.0531L285.626 33.5859L288.419 34.6509L288.241 35.1181L291.035 36.183L291.213 35.7158L294.006 36.7808L293.828 37.248L296.621 38.3129L296.799 37.8457L299.593 38.9107L299.415 39.3779L302.208 40.4428L302.386 39.9756L305.18 41.0406L305.001 41.5078L307.795 42.5727L307.973 42.1055L310.766 43.1705L310.588 43.6377L313.382 44.7026L313.56 44.2354L316.353 45.3004L316.175 45.7676L318.968 46.8325L319.146 46.3653L321.94 47.4303L321.762 47.8975L324.555 48.9624L324.733 48.4952L327.527 49.5602L327.348 50.0274L330.142 51.0923L330.32 50.6251L333.113 51.6901L332.935 52.1573L335.729 53.2222L335.907 52.755L338.7 53.82L338.522 54.2872L339.919 54.8196L340.094 54.3602L340.103 54.3524C340.599 54.516 341.084 54.6758 341.557 54.8323L341.4 55.3071C342.409 55.6403 343.367 55.9583 344.277 56.2647L344.437 55.7909C345.447 56.1311 346.4 56.4574 347.298 56.7747L347.131 57.2461C348.146 57.605 349.09 57.9518 349.966 58.2938L350.148 57.828C351.165 58.225 352.094 58.6163 352.944 59.0134L352.733 59.4664C353.714 59.9252 354.582 60.3885 355.348 60.8738L355.616 60.4513C356.533 61.0318 357.319 61.6475 357.992 62.3267L357.636 62.6786C358.322 63.3708 358.883 64.1311 359.344 64.9955L359.786 64.76C360.234 65.6 360.591 66.5324 360.876 67.5847L360.394 67.7154C360.63 68.5879 360.817 69.5512 360.963 70.6245L361.459 70.5568C361.586 71.4857 361.683 72.4905 361.757 73.582L361.258 73.6159C361.322 74.5509 361.368 75.5517 361.403 76.6256L361.902 76.6097C361.933 77.562 361.953 78.5701 361.967 79.6386L361.467 79.6451C361.48 80.6094 361.487 81.6236 361.491 82.6914L361.991 82.6895C361.995 83.6524 361.996 84.6584 361.996 85.7099L361.496 85.71C361.497 86.2111 361.497 86.7225 361.497 87.2446H361.997V88.741H361.497V91.7338H361.997V94.7265H361.497V97.7192H361.997V100.712H361.497V103.705H361.997V106.697H361.497V109.69H361.997V112.683H361.497V115.676H361.997V118.668H361.497V121.661H361.997V124.654H361.497V127.646H361.997V130.639H361.497V133.632H361.997V136.625H361.497V139.617H361.997V142.61H361.497V145.603H361.997V148.595H361.497V151.588H361.997V154.581H361.497V157.574H361.997V160.566H361.497V163.559H361.997V166.552H361.497V169.545H361.997V172.537H361.497V175.53H361.997V178.523H361.497V181.515H361.997V184.508H361.497V187.501H361.997V190.494H361.497V193.486H361.997V196.479H361.497L361.497 199.472H361.997V202.465H361.497V205.457H361.997V208.45H361.497V211.443H361.997V214.435H361.497V217.428H361.997V220.421H361.497V223.414H361.997V226.406H361.497V229.399H361.997V232.392H361.497V235.385H361.997V238.377H361.497V241.37H361.997V244.363H361.497V247.355H361.997V250.348H361.497V253.341H361.997V256.334H361.497V259.326H361.997V262.319H361.497V265.312H361.997V268.305L361.497 268.305V271.297H361.997V274.29H361.497V277.283H361.997V280.275H361.497V283.268H361.997V286.261H361.497V289.254H361.997V292.246H361.497V295.239H361.997V298.232H361.497V301.225H361.997V304.217H361.497V305.714H361.997C361.997 306.234 361.997 306.741 361.997 307.235H361.497C361.497 308.306 361.496 309.314 361.488 310.264L361.988 310.268C361.98 311.346 361.965 312.352 361.937 313.293L361.437 313.278C361.404 314.363 361.355 315.358 361.281 316.275L361.78 316.316C361.691 317.412 361.567 318.405 361.394 319.314L360.903 319.22C360.703 320.266 360.438 321.189 360.088 322.026L360.549 322.219C360.345 322.705 360.113 323.166 359.849 323.607C359.599 324.025 359.32 324.424 359.009 324.812L358.619 324.499C358.053 325.204 357.37 325.872 356.542 326.536L356.855 326.926C356.134 327.504 355.312 328.075 354.375 328.659L354.111 328.235C353.332 328.72 352.47 329.216 351.515 329.736L351.754 330.175C350.928 330.625 350.035 331.091 349.071 331.581L348.844 331.135C348.001 331.563 347.103 332.01 346.144 332.481L346.365 332.93C345.505 333.353 344.598 333.794 343.641 334.259L343.422 333.81C343.164 333.935 342.901 334.063 342.635 334.192C342.574 334.222 342.512 334.252 342.45 334.282L342.05 334.476L342.268 334.926L340.873 335.441L340.7 334.972L337.91 336.003L338.084 336.472L335.294 337.503L335.121 337.034L332.331 338.065L332.504 338.534L329.715 339.565L329.542 339.096L326.752 340.127L326.925 340.596L324.136 341.627L323.962 341.158L321.173 342.188L321.346 342.657L318.556 343.688L318.383 343.219L315.593 344.25L315.767 344.719L312.977 345.75L312.804 345.281L310.014 346.312L310.187 346.781L307.398 347.812L307.224 347.343L304.435 348.374L304.608 348.843L301.818 349.874L301.645 349.405L298.855 350.436L299.029 350.905L296.239 351.936L296.066 351.467L293.276 352.498L293.449 352.967L290.66 353.997L290.486 353.528L287.697 354.559L287.87 355.028L285.081 356.059L284.907 355.59L282.118 356.621L282.291 357.09L279.501 358.121L279.328 357.652L276.538 358.683L276.712 359.152L273.922 360.183L273.749 359.714L270.959 360.745L271.132 361.214L268.343 362.245L268.169 361.776L265.38 362.807L265.553 363.276L262.763 364.307L262.59 363.838L259.8 364.868L259.974 365.337L257.184 366.368L257.011 365.899L254.221 366.93L254.394 367.399L251.605 368.43L251.431 367.961L248.642 368.992L248.815 369.461L246.025 370.492L245.852 370.023L243.063 371.054L243.236 371.523L240.446 372.554L240.273 372.085L237.483 373.116L237.657 373.585L234.867 374.616L234.694 374.147L231.904 375.178L232.077 375.647L229.288 376.678L229.114 376.209L226.325 377.239L226.498 377.708L223.708 378.739L223.535 378.27L220.745 379.301L220.919 379.77L218.129 380.801L217.956 380.332L216.561 380.848L216.734 381.317C216.243 381.458 215.763 381.596 215.294 381.731L215.156 381.25C214.158 381.537 213.208 381.809 212.301 382.067L212.438 382.548C211.437 382.832 210.488 383.099 209.586 383.349L209.452 382.867C208.442 383.146 207.489 383.403 206.587 383.638L206.712 384.122C205.695 384.386 204.739 384.623 203.832 384.832L203.719 384.344C202.698 384.579 201.74 384.778 200.827 384.941L200.915 385.433C199.891 385.616 198.921 385.754 197.978 385.849L197.928 385.351C196.934 385.451 195.973 385.5 195.012 385.5L195.012 386C194.034 386 193.056 385.949 192.046 385.847L192.096 385.35C191.168 385.257 190.21 385.12 189.197 384.939L189.109 385.431C188.187 385.266 187.221 385.066 186.193 384.829L186.305 384.342C185.403 384.135 184.452 383.899 183.438 383.636L183.312 384.12C182.406 383.884 181.452 383.627 180.439 383.347L180.572 382.865C179.671 382.616 178.723 382.35 177.723 382.066L177.586 382.547C176.679 382.289 175.729 382.017 174.73 381.73L174.868 381.25L173.428 380.836L173.29 381.317L171.874 380.801L172.045 380.331L169.213 379.3L169.042 379.77L166.21 378.739L166.381 378.27L163.55 377.239L163.379 377.708L160.547 376.678L160.718 376.208L157.886 375.177L157.715 375.647L154.883 374.616L155.054 374.146L152.223 373.115L152.052 373.585L149.22 372.554L149.391 372.084L146.559 371.053L146.388 371.523L143.556 370.492L143.727 370.022L140.896 368.991L140.725 369.461L137.893 368.43L138.064 367.96L135.232 366.929L135.061 367.399L132.229 366.368L132.4 365.899L129.569 364.868L129.398 365.337L126.566 364.307L126.737 363.837L123.905 362.806L123.734 363.276L120.902 362.245L121.073 361.775L118.242 360.744L118.071 361.214L115.239 360.183L115.41 359.713L112.578 358.682L112.407 359.152L109.575 358.121L109.746 357.651L106.915 356.62L106.744 357.09L103.912 356.059L104.083 355.589L101.251 354.559L101.08 355.028L98.2484 353.997L98.4194 353.528L95.5877 352.497L95.4166 352.967L92.5849 351.936L92.7559 351.466L89.9242 350.435L89.7531 350.905L86.9214 349.874L87.0924 349.404L84.2607 348.373L84.0896 348.843L81.2579 347.812L81.4289 347.342L78.5972 346.311L78.4261 346.781L75.5944 345.75L75.7654 345.28L72.9337 344.249L72.7626 344.719L69.9309 343.688L70.1019 343.219L67.2702 342.188L67.0991 342.657L64.2674 341.627L64.4384 341.157L61.6067 340.126L61.4356 340.596L58.6039 339.565L58.7749 339.095L55.9432 338.064L55.7721 338.534L52.9404 337.503L53.1114 337.033L50.2797 336.002L50.1086 336.472L47.2769 335.441L47.4479 334.971L46.032 334.456L45.861 334.926C45.4194 334.688 44.9888 334.457 44.5688 334.231L44.8057 333.791C43.9016 333.305 43.0477 332.844 42.2408 332.404L42.0015 332.843C41.0944 332.349 40.2461 331.88 39.453 331.432L39.6991 330.997C38.7941 330.485 37.9633 330 37.2 329.533L36.9391 329.96C36.0407 329.41 35.2329 328.883 34.5067 328.364L34.7975 327.957C33.9504 327.352 33.2229 326.761 32.5966 326.162L32.2509 326.523C31.5064 325.811 30.8935 325.08 30.389 324.292L30.81 324.023C30.3199 323.257 29.9354 322.433 29.6337 321.508L29.1583 321.663C28.8791 320.806 28.6697 319.87 28.5128 318.827L29.0072 318.753C28.8769 317.886 28.7828 316.939 28.7152 315.893L28.2162 315.926C28.1582 315.029 28.1198 314.064 28.0945 313.02L28.5943 313.008C28.5723 312.103 28.5602 311.137 28.5536 310.103L28.0536 310.106C28.0478 309.188 28.0464 308.216 28.0464 307.188L28.5464 307.188C28.5464 306.712 28.5467 306.223 28.547 305.722L28.047 305.722L28.047 304.225H28.547L28.547 301.233H28.047L28.047 298.24H28.547L28.547 295.247H28.047L28.047 292.254H28.547L28.547 289.262H28.047L28.047 286.269H28.547L28.547 283.276H28.047L28.047 280.283H28.547L28.547 277.291H28.047L28.047 274.298H28.547L28.547 271.305H28.047L28.047 268.313H28.547L28.547 265.32H28.047L28.047 262.327H28.547L28.547 259.334H28.047L28.047 256.342H28.547L28.547 253.349H28.047L28.047 250.356H28.547L28.547 247.364H28.047L28.047 244.371H28.547L28.547 241.378H28.047L28.047 238.385H28.547L28.547 235.393H28.047L28.047 232.4H28.547L28.547 229.407H28.047L28.047 226.415H28.547L28.547 223.422H28.047L28.047 220.429H28.547L28.547 217.436H28.047L28.047 214.444H28.547L28.547 211.451H28.047L28.047 208.458H28.547L28.547 205.465H28.047L28.047 202.473H28.547L28.547 199.48H28.047L28.047 196.487H28.547L28.547 193.495H28.047L28.047 190.502H28.547L28.547 187.509H28.047L28.047 184.516H28.547L28.547 181.524H28.047L28.047 178.531H28.547L28.547 175.538H28.047L28.047 172.545H28.547L28.547 169.553H28.047L28.047 166.56H28.547L28.547 163.567H28.047L28.047 160.574H28.547L28.547 157.582H28.047L28.047 154.589H28.547L28.547 151.596H28.047L28.047 148.604H28.547L28.547 145.611H28.047L28.047 142.618H28.547L28.547 139.625H28.047L28.047 136.633H28.547L28.547 133.64H28.047L28.047 130.647H28.547L28.547 127.655H28.047L28.047 124.662H28.547L28.547 121.669H28.047L28.047 118.676H28.547L28.547 115.684H28.047L28.047 112.691H28.547L28.547 109.698H28.047L28.047 106.705H28.547L28.547 103.713H28.047L28.047 100.72H28.547L28.547 97.7272H28.047L28.047 94.7345L28.547 94.7345L28.547 91.7418H28.047L28.047 88.7491H28.547L28.547 87.2527H28.047C28.0405 86.7307 28.0344 86.2194 28.029 85.7184L28.5289 85.7129C28.5174 84.6624 28.5085 83.6578 28.5038 82.6964L28.0038 82.6988C27.9985 81.6303 27.9984 80.6146 28.0055 79.6483L28.5055 79.652C28.5132 78.5866 28.5298 77.5825 28.5579 76.6349L28.0581 76.62C28.0901 75.542 28.137 74.5353 28.2029 73.5931L28.7017 73.628C28.7774 72.5467 28.878 71.5549 29.0095 70.6411L28.5146 70.5699C28.6711 69.4829 28.8712 68.4999 29.1251 67.6037L29.6062 67.7401C29.894 66.7244 30.2506 65.8326 30.6893 65.0343L30.251 64.7935C30.7457 63.8932 31.3443 63.0987 32.0671 62.3763L32.4205 62.73C33.0686 62.0823 33.8262 61.49 34.7147 60.9271L34.4471 60.5048C35.2375 60.004 36.1222 59.5299 37.1121 59.0642L37.3249 59.5166C38.1651 59.1214 39.085 58.731 40.093 58.334L39.9098 57.8688C40.7915 57.5215 41.7372 57.1702 42.7515 56.8075L42.9199 57.2783C43.8143 56.9584 44.7631 56.6292 45.7698 56.2854L45.6082 55.8122C46.5194 55.501 47.4771 55.1781 48.4836 54.8397L48.643 55.3137L50.0931 54.8264ZM340.1 54.3484L340.097 54.3504L340.098 54.3484H340.1Z" stroke="#979797" stroke-opacity="0.12" stroke-dasharray="3"/>
<path fill-rule="evenodd" clip-rule="evenodd" d="M386.459 49.8037L386.46 49.8047C388.655 51.0112 390.002 53.2168 390 55.5998V78.7168C390.002 81.1302 388.621 83.359 386.381 84.5539L366.511 95.1297C364.333 96.2901 361.664 96.2901 359.486 95.1297L339.618 84.5539C337.379 83.3588 335.998 81.1306 336 78.7178V55.6008C335.998 53.2177 337.344 51.0118 339.539 49.8047L359.401 38.9119C361.619 37.696 364.366 37.696 366.584 38.9119L386.459 49.8047V49.8037Z" fill="#F7F8F9"/>
<path fill-rule="evenodd" clip-rule="evenodd" d="M373.426 59.2913L373.427 59.2917C374.402 59.8326 375.001 60.8213 375 61.8896V72.2524C375.001 73.3342 374.387 74.3333 373.392 74.869L364.56 79.6099C363.593 80.13 362.406 80.13 361.438 79.6099L352.608 74.869C351.613 74.3332 350.999 73.3344 351 72.2528V61.89C350.999 60.8217 351.598 59.8329 352.573 59.2917L361.4 54.4088C362.386 53.8637 363.607 53.8637 364.593 54.4088L373.426 59.2917V59.2913Z" fill="white"/>
<path fill-rule="evenodd" clip-rule="evenodd" d="M50.4588 49.8037L50.4598 49.8047C52.6547 51.0112 54.002 53.2168 54 55.5998V78.7168C54.0024 81.1302 52.6206 83.359 50.3811 84.5539L30.5109 95.1297C28.3332 96.2901 25.6636 96.2901 23.4859 95.1297L3.61788 84.5539C1.37927 83.3588 -0.00200337 81.1306 3.19345e-06 78.7178V55.6008C-0.00239357 53.2177 1.34448 51.0118 3.53912 49.8047L23.4007 38.9119C25.6192 37.696 28.3659 37.696 30.5844 38.9119L50.4588 49.8047V49.8037Z" fill="#F7F8F9"/>
<path fill-rule="evenodd" clip-rule="evenodd" d="M37.4261 59.2913L37.4266 59.2917C38.4021 59.8326 39.0009 60.8213 39 61.8896V72.2524C39.0011 73.3342 38.3869 74.3333 37.3916 74.869L28.5604 79.6099C27.5925 80.13 26.406 80.13 25.4382 79.6099L16.6079 74.869C15.613 74.3332 14.9991 73.3344 15 72.2528V61.89C14.9989 60.8217 15.5975 59.8329 16.5729 59.2917L25.4003 54.4088C26.3863 53.8637 27.6071 53.8637 28.593 54.4088L37.4261 59.2917V59.2913Z" fill="white"/>
<path fill-rule="evenodd" clip-rule="evenodd" d="M386.459 299.804L386.46 299.805C388.655 301.011 390.002 303.217 390 305.6V328.717C390.002 331.13 388.621 333.359 386.381 334.554L366.511 345.13C364.333 346.29 361.664 346.29 359.486 345.13L339.618 334.554C337.379 333.359 335.998 331.131 336 328.718V305.601C335.998 303.218 337.344 301.012 339.539 299.805L359.401 288.912C361.619 287.696 364.366 287.696 366.584 288.912L386.459 299.805V299.804Z" fill="#F7F8F9"/>
<path fill-rule="evenodd" clip-rule="evenodd" d="M373.426 309.291L373.427 309.292C374.402 309.833 375.001 310.821 375 311.89V322.252C375.001 323.334 374.387 324.333 373.392 324.869L364.56 329.61C363.593 330.13 362.406 330.13 361.438 329.61L352.608 324.869C351.613 324.333 350.999 323.334 351 322.253V311.89C350.999 310.822 351.598 309.833 352.573 309.292L361.4 304.409C362.386 303.864 363.607 303.864 364.593 304.409L373.426 309.292V309.291Z" fill="white"/>
<path fill-rule="evenodd" clip-rule="evenodd" d="M50.4588 299.804L50.4598 299.805C52.6547 301.011 54.002 303.217 54 305.6V328.717C54.0024 331.13 52.6206 333.359 50.3811 334.554L30.5109 345.13C28.3332 346.29 25.6636 346.29 23.4859 345.13L3.61788 334.554C1.37927 333.359 -0.00200337 331.131 3.19345e-06 328.718V305.601C-0.00239357 303.218 1.34448 301.012 3.53912 299.805L23.4007 288.912C25.6192 287.696 28.3659 287.696 30.5844 288.912L50.4588 299.805V299.804Z" fill="#F7F8F9"/>
<path fill-rule="evenodd" clip-rule="evenodd" d="M37.4261 309.291L37.4266 309.292C38.4021 309.833 39.0009 310.821 39 311.89V322.252C39.0011 323.334 38.3869 324.333 37.3916 324.869L28.5604 329.61C27.5925 330.13 26.406 330.13 25.4382 329.61L16.6079 324.869C15.613 324.333 14.9991 323.334 15 322.253V311.89C14.9989 310.822 15.5975 309.833 16.5729 309.292L25.4003 304.409C26.3863 303.864 27.6071 303.864 28.593 304.409L37.4261 309.292V309.291Z" fill="white"/>
<g filter="url(#filter0_d_0_1270)">
<path fill-rule="evenodd" clip-rule="evenodd" d="M283.753 125.773L283.757 125.776C291.968 130.353 297.008 138.719 297 147.758V235.443C297.009 244.597 291.84 253.051 283.462 257.584L209.133 297.699C200.987 302.1 191.001 302.1 182.855 297.699L108.534 257.584C100.159 253.051 94.9925 244.599 95 235.447V147.762C94.991 138.722 100.029 130.355 108.239 125.776L182.536 84.4589C190.835 79.847 201.109 79.847 209.408 84.4589L283.753 125.776V125.773Z" fill="white"/>
</g>
<g filter="url(#filter1_i_0_1270)">
<path d="M253.344 148.306L253.346 148.308C258.711 151.304 262.005 156.78 262 162.696V220.09C262.006 226.082 258.628 231.615 253.154 234.582L204.582 260.839C199.259 263.72 192.733 263.72 187.41 260.839L138.844 234.582C133.372 231.615 129.995 226.083 130 220.093V162.699C129.994 156.782 133.286 151.305 138.651 148.308L187.202 121.264C192.625 118.245 199.339 118.245 204.762 121.264L253.344 148.308V148.306Z" fill="#FE6B61"/>
</g>
<g filter="url(#filter2_i_0_1270)">
<path fill-rule="evenodd" clip-rule="evenodd" d="M226.007 172H163.999C161.798 172 160 173.804 160 176.034V215.29C160 217.527 161.791 219.324 163.999 219.324H226.001C228.202 219.324 230 217.52 230 215.29V176.034C230.007 173.797 228.216 172 226.007 172ZM175.273 183.69H167.403C166.035 183.69 164.93 182.599 164.93 181.225C164.93 179.865 166.035 178.761 167.403 178.761H175.273C176.641 178.761 177.746 179.852 177.746 181.225C177.746 182.586 176.641 183.69 175.273 183.69ZM195 206C178.98 206 166 201.746 166 196.5C166 191.254 178.98 187 195 187C211.02 187 224 191.254 224 196.5C224 201.746 211.02 206 195 206M222.597 211.296H214.727C213.359 211.296 212.254 210.205 212.254 208.831C212.254 207.471 213.359 206.366 214.727 206.366H222.597C223.965 206.366 225.07 207.457 225.07 208.831C225.07 210.191 223.965 211.296 222.597 211.296ZM170.413 168.901H220.573C222.514 168.901 224.084 167.358 224.084 165.451C224.084 163.55 222.514 162 220.573 162H170.413C168.472 162 166.901 163.543 166.901 165.451C166.901 167.351 168.472 168.901 170.413 168.901Z" fill="white" fill-opacity="0.9"/>
</g>
<path opacity="0.8" d="M181.17 192.86V193.57H183.69V200H184.5V193.57H187.02V192.86H181.17ZM187.911 192.86V200H188.731V196.93H190.891C191.341 196.93 191.681 197.01 191.921 197.19C192.181 197.37 192.331 197.68 192.371 198.1L192.461 199.05C192.491 199.45 192.591 199.76 192.751 200H193.641C193.431 199.74 193.301 199.39 193.261 198.95L193.151 197.85C193.071 197.13 192.691 196.7 192.011 196.55V196.53C192.421 196.43 192.741 196.23 192.981 195.91C193.201 195.6 193.311 195.25 193.311 194.85C193.311 194.19 193.091 193.69 192.671 193.35C192.261 193.02 191.701 192.86 190.991 192.86H187.911ZM188.731 193.57H190.891C191.441 193.57 191.851 193.68 192.111 193.9C192.351 194.11 192.481 194.44 192.481 194.88C192.481 195.3 192.351 195.62 192.101 195.85C191.821 196.09 191.411 196.22 190.891 196.22H188.731V193.57ZM197.789 192.72C196.709 192.72 195.869 193.08 195.249 193.8C194.659 194.48 194.369 195.36 194.369 196.44C194.369 197.51 194.659 198.39 195.249 199.07C195.869 199.78 196.709 200.14 197.779 200.14C198.849 200.14 199.699 199.78 200.319 199.07C200.899 198.39 201.199 197.52 201.199 196.44C201.199 195.35 200.899 194.47 200.319 193.79C199.699 193.07 198.849 192.72 197.789 192.72ZM197.789 193.45C198.609 193.45 199.249 193.72 199.709 194.27C200.149 194.81 200.379 195.53 200.379 196.44C200.379 197.34 200.149 198.05 199.709 198.59C199.249 199.13 198.599 199.41 197.779 199.41C196.959 199.41 196.309 199.13 195.849 198.57C195.409 198.03 195.189 197.32 195.189 196.44C195.189 195.55 195.409 194.84 195.849 194.3C196.319 193.73 196.969 193.45 197.789 193.45ZM202.335 192.86V200H203.155V194.13H203.185L207.245 200H208.085V192.86H207.265V198.67H207.235L203.195 192.86H202.335Z" fill="white"/>
<defs>
<filter id="filter0_d_0_1270" x="75" y="61" width="242" height="260" filterUnits="userSpaceOnUse" color-interpolation-filters="sRGB">
<feFlood flood-opacity="0" result="BackgroundImageFix"/>
<feColorMatrix in="SourceAlpha" type="matrix" values="0 0 0 0 0 0 0 0 0 0 0 0 0 0 0 0 0 0 127 0" result="hardAlpha"/>
<feOffset/>
<feGaussianBlur stdDeviation="10"/>
<feColorMatrix type="matrix" values="0 0 0 0 0.6 0 0 0 0 0.6 0 0 0 0 0.6 0 0 0 0.268384 0"/>
<feBlend mode="normal" in2="BackgroundImageFix" result="effect1_dropShadow_0_1270"/>
<feBlend mode="normal" in="SourceGraphic" in2="effect1_dropShadow_0_1270" result="shape"/>
</filter>
<filter id="filter1_i_0_1270" x="130" y="119" width="132" height="154" filterUnits="userSpaceOnUse" color-interpolation-filters="sRGB">
<feFlood flood-opacity="0" result="BackgroundImageFix"/>
<feBlend mode="normal" in="SourceGraphic" in2="BackgroundImageFix" result="shape"/>
<feColorMatrix in="SourceAlpha" type="matrix" values="0 0 0 0 0 0 0 0 0 0 0 0 0 0 0 0 0 0 127 0" result="hardAlpha"/>
<feOffset dy="10"/>
<feGaussianBlur stdDeviation="10"/>
<feComposite in2="hardAlpha" operator="arithmetic" k2="-1" k3="1"/>
<feColorMatrix type="matrix" values="0 0 0 0 1 0 0 0 0 1 0 0 0 0 1 0 0 0 0.5 0"/>
<feBlend mode="normal" in2="shape" result="effect1_innerShadow_0_1270"/>
</filter>
<filter id="filter2_i_0_1270" x="160" y="162" width="70" height="57.3237" filterUnits="userSpaceOnUse" color-interpolation-filters="sRGB">
<feFlood flood-opacity="0" result="BackgroundImageFix"/>
<feBlend mode="normal" in="SourceGraphic" in2="BackgroundImageFix" result="shape"/>
<feColorMatrix in="SourceAlpha" type="matrix" values="0 0 0 0 0 0 0 0 0 0 0 0 0 0 0 0 0 0 127 0" result="hardAlpha"/>
<feOffset/>
<feGaussianBlur stdDeviation="1.5"/>
<feComposite in2="hardAlpha" operator="arithmetic" k2="-1" k3="1"/>
<feColorMatrix type="matrix" values="0 0 0 0 0.992157 0 0 0 0 0.419608 0 0 0 0 0.380392 0 0 0 0.478065 0"/>
<feBlend mode="normal" in2="shape" result="effect1_innerShadow_0_1270"/>
</filter>
</defs>
</svg>
