<svg width="63" height="65" viewBox="0 0 63 65" fill="none" xmlns="http://www.w3.org/2000/svg">
<path fill-rule="evenodd" clip-rule="evenodd" d="M58.7377 13.1747L58.739 13.1758C61.29 14.5225 62.8559 16.9842 62.8536 19.6441V45.4462C62.8563 48.1399 61.2503 50.6275 58.6474 51.9612L35.5534 63.7655C33.0223 65.0606 29.9196 65.0606 27.3885 63.7655L4.29693 51.9612C1.6951 50.6273 0.0897126 48.1403 0.0920447 45.4473V19.6452C0.0892591 16.9852 1.65466 14.5232 4.20538 13.1758L27.2896 1.01781C29.868 -0.339269 33.0603 -0.339269 35.6387 1.01781L58.7377 13.1758V13.1747Z" fill="#FAFAFA"/>
<path fill-rule="evenodd" clip-rule="evenodd" d="M18.3228 20H44.6229C46.6551 20 48.2092 21.4773 48.2092 23.4091V41.5909C48.2092 43.5227 46.6551 45 44.6229 45H18.3228C16.2905 45 14.7364 43.5227 14.7364 41.5909V23.4091C14.7364 21.4773 16.2905 20 18.3228 20ZM44.6228 42.7273C45.3401 42.7273 45.8183 42.2727 45.8183 41.5909V29.0909H17.1273V41.5909C17.1273 42.2727 17.6054 42.7273 18.3227 42.7273H44.6228ZM45.8183 26.8182H17.1273V23.4091C17.1273 22.7273 17.6054 22.2727 18.3227 22.2727H44.6228C45.3401 22.2727 45.8183 22.7273 45.8183 23.4091V26.8182ZM25.4955 38.1818H20.7137C19.9964 38.1818 19.5182 37.7273 19.5182 37.0455C19.5182 36.3636 19.9964 35.9091 20.7137 35.9091H25.4955C26.2128 35.9091 26.691 36.3636 26.691 37.0455C26.691 37.7273 26.2128 38.1818 25.4955 38.1818Z" fill="#151515"/>
</svg>
