<svg width="64" height="65" viewBox="0 0 64 65" fill="none" xmlns="http://www.w3.org/2000/svg">
<path fill-rule="evenodd" clip-rule="evenodd" d="M59.4448 13.1747L59.4461 13.1758C61.9971 14.5225 63.563 16.9842 63.5606 19.6441V45.4462C63.5634 48.1399 61.9574 50.6275 59.3545 51.9612L36.2605 63.7655C33.7295 65.0606 30.6267 65.0606 28.0957 63.7655L5.00408 51.9612C2.40225 50.6273 0.796866 48.1403 0.799198 45.4473V19.6452C0.796412 16.9852 2.36181 14.5232 4.91253 13.1758L27.9967 1.01781C30.5751 -0.339269 33.7674 -0.339269 36.3458 1.01781L59.4448 13.1758V13.1747Z" fill="#FAFAFA"/>
<path fill-rule="evenodd" clip-rule="evenodd" d="M46.8284 20C46.8284 18.898 45.8911 18 44.7363 18H19.6317C18.4769 18 17.5397 18.898 17.5397 20V27C17.5397 28.102 18.4769 29 19.6317 29H21.7238V47C21.7238 47.552 22.1924 48 22.7698 48H41.5982C42.1757 48 42.6443 47.552 42.6443 47V29H44.7363C45.8911 29 46.8284 28.102 46.8284 27V20ZM35.3221 37.4514C35.3221 35.7974 33.9141 34.4514 32.184 34.4514C31.6087 34.4514 31.138 34.0034 31.138 33.4514C31.138 32.8994 31.6087 32.4514 32.184 32.4514H34.2761C34.8535 32.4514 35.3221 32.0034 35.3221 31.4514C35.3221 30.8994 34.8535 30.4514 34.2761 30.4514H33.23V29.4514C33.23 28.8994 32.7614 28.4514 32.184 28.4514C31.6066 28.4514 31.138 28.8994 31.138 29.4514V30.6354C29.9225 31.0494 29.046 32.1494 29.046 33.4514C29.046 35.1054 30.4539 36.4514 32.184 36.4514C32.7593 36.4514 33.23 36.8994 33.23 37.4514C33.23 38.0034 32.7593 38.4514 32.184 38.4514H30.092C29.5146 38.4514 29.046 38.8994 29.046 39.4514C29.046 40.0034 29.5146 40.4514 30.092 40.4514H31.138V41.4514C31.138 42.0034 31.6066 42.4514 32.184 42.4514C32.7614 42.4514 33.23 42.0034 33.23 41.4514V40.2674C34.4455 39.8534 35.3221 38.7534 35.3221 37.4514ZM40.5522 46V25H23.8158V46H40.5522ZM19.6317 20H44.7363V27H42.6442V24C42.6442 23.448 42.1756 23 41.5982 23H22.7698C22.1924 23 21.7238 23.448 21.7238 24V27H19.6317V20Z" fill="#151515"/>
</svg>
