<svg width="64" height="65" viewBox="0 0 64 65" fill="none" xmlns="http://www.w3.org/2000/svg">
<path fill-rule="evenodd" clip-rule="evenodd" d="M59.1521 13.1747L59.1533 13.1758C61.7043 14.5225 63.2702 16.9842 63.2679 19.6441V45.4462C63.2706 48.1399 61.6646 50.6275 59.0617 51.9612L35.9677 63.7655C33.4366 65.0606 30.3339 65.0606 27.8028 63.7655L4.71124 51.9612C2.1094 50.6273 0.504019 48.1403 0.506351 45.4473V19.6452C0.503566 16.9852 2.06897 14.5232 4.61969 13.1758L27.7039 1.01781C30.2823 -0.339269 33.4746 -0.339269 36.053 1.01781L59.1521 13.1758V13.1747Z" fill="#FAFAFA"/>
<path fill-rule="evenodd" clip-rule="evenodd" d="M44.3941 22.561H43.2983C43.854 21.6603 44.0978 20.8012 44.0199 20.0043C43.9553 19.3373 43.6246 18.3834 42.413 17.6232C41.4085 16.9915 40.1167 16.8365 38.6835 17.1788C36.3594 17.7367 33.6087 19.6545 31.8002 21.9722C29.9905 19.6545 27.2421 17.7367 24.918 17.1788C23.4836 16.8343 22.1907 16.9903 21.1863 17.6232C19.9757 18.3834 19.645 19.3373 19.5804 20.0043C19.5025 20.8012 19.7441 21.6603 20.302 22.561H19.2062C17.547 22.561 16.1967 23.8529 16.1967 25.4403V29.1489C16.1967 30.4046 17.0631 31.5144 18.3165 31.8871C18.1974 32.2022 18.135 32.5279 18.135 32.858V43.9843C18.135 45.5706 19.4869 46.863 21.1462 46.863H42.4575C44.1168 46.863 45.4665 45.5707 45.4665 43.9843V32.858C45.4665 32.5258 45.4064 32.199 45.2873 31.8859C46.5388 31.5112 47.4031 30.4014 47.4031 29.1488V25.4412C47.4031 23.8539 46.0534 22.561 44.3941 22.561ZM42.4576 44.8126H32.8716V32.0286H42.4576C42.9354 32.0286 43.3228 32.4012 43.3228 32.858V43.9843C43.3228 44.441 42.9353 44.8126 42.4576 44.8126ZM39.2025 19.1691C37.5776 19.5588 35.5765 20.8799 34.0519 22.561H40.6078C41.0443 22.1281 41.9686 21.0172 41.884 20.1933C41.8628 19.9686 41.7683 19.671 41.237 19.3373C40.7369 19.0222 40.0465 18.9668 39.2025 19.1691ZM45.2582 25.4413V29.1489C45.2582 29.6056 44.8718 29.9771 44.3941 29.9771H32.8716V24.6125H44.3941C44.8718 24.6125 45.2582 24.9846 45.2582 25.4413ZM30.7277 44.8126V32.0286H21.1462C20.6673 32.0286 20.2797 32.4012 20.2797 32.858V43.9843C20.2797 44.441 20.6673 44.8126 21.1462 44.8126H30.7277ZM21.7165 20.1933C21.7376 19.9685 21.8334 19.671 22.3624 19.3373C22.859 19.0222 23.5494 18.9641 24.398 19.1691C26.0138 19.5566 28.0127 20.8778 29.5406 22.561H22.9904C22.5995 22.1825 21.6307 21.037 21.7165 20.1933ZM19.2063 24.6125C18.7275 24.6125 18.3399 24.9846 18.3399 25.4413V29.1489C18.3399 29.6056 18.7275 29.9771 19.2063 29.9771H30.7277V24.6125H19.2063Z" fill="#151515"/>
</svg>
