<svg width="63" height="65" viewBox="0 0 63 65" fill="none" xmlns="http://www.w3.org/2000/svg">
<path d="M58.859 51.7718L58.8603 51.7706C61.4113 50.4184 62.9772 47.9467 62.9748 45.276V19.3691C62.9776 16.6644 61.3716 14.1666 58.7687 12.8275L35.6747 0.975304C33.1436 -0.325096 30.0409 -0.325096 27.5098 0.975304L4.41826 12.8275C1.81643 14.1669 0.21105 16.664 0.213383 19.368V45.2749C0.210597 47.9457 1.776 50.4178 4.32672 51.7706L27.4109 63.9781C29.9893 65.3406 33.1816 65.3406 35.76 63.9781L58.859 51.7706V51.7718Z" fill="#FAFAFA"/>
<path fill-rule="evenodd" clip-rule="evenodd" d="M25.6639 23.6653C25.6639 20.6347 31.1959 19 36.4 19C41.604 19 47.136 20.6347 47.136 23.6653V42.3266C47.136 45.0157 42.7654 46.5664 38.434 46.9135L38.4247 46.9141C38.3992 46.9157 38.3762 46.9172 38.35 46.9172C37.8432 46.9172 37.4213 46.5454 37.3799 46.0625C37.335 45.5494 37.7351 45.0959 38.27 45.0548C42.783 44.6947 45.184 43.2391 45.184 42.3266V41.3525C44.0479 42.0448 42.459 42.5934 40.4738 42.9275C40.4172 42.9387 40.3586 42.9424 40.302 42.9424C39.8297 42.9407 39.4263 42.6163 39.3436 42.1717C39.2508 41.6648 39.6043 41.1817 40.1341 41.0912C43.4155 40.537 45.184 39.3912 45.184 38.5943V37.6202C44.0479 38.3125 42.459 38.8612 40.4738 39.1952C40.4172 39.2064 40.3586 39.2101 40.302 39.2101C39.8297 39.2084 39.4263 38.884 39.3436 38.4394C39.2508 37.9326 39.6043 37.4494 40.1341 37.3589C43.4155 36.8047 45.184 35.6589 45.184 34.8621V33.8879C44.0479 34.5821 42.459 35.1289 40.4738 35.463C40.4172 35.4742 40.3586 35.4779 40.302 35.4779C39.8297 35.4762 39.4263 35.1518 39.3436 34.7072C39.2508 34.2003 39.6043 33.7172 40.1341 33.6267C43.4155 33.0725 45.184 31.9267 45.184 31.1298V30.1314C43.5072 31.1522 40.9755 31.7811 38.434 31.9845L38.4247 31.9851H38.4247H38.4247C38.3992 31.9867 38.3762 31.9882 38.35 31.9882C37.8432 31.9882 37.4213 31.6164 37.3799 31.1335C37.335 30.6204 37.7351 30.1669 38.27 30.1258C42.783 29.7657 45.184 28.3101 45.184 27.3976V26.4253C43.1129 27.6738 39.693 28.3306 36.4 28.3306C33.1069 28.3306 29.687 27.6738 27.6159 26.4253V27.3976C27.6159 27.9126 27.1787 28.3306 26.6399 28.3306C26.1012 28.3306 25.6639 27.9126 25.6639 27.3976V23.6653ZM27.6158 23.6653C27.6158 24.8055 31.0377 26.4645 36.4 26.4645C41.7622 26.4645 45.1841 24.8055 45.1841 23.6653C45.1841 22.5251 41.7622 20.8661 36.4 20.8661C31.0377 20.8661 27.6158 22.5251 27.6158 23.6653ZM26.6398 30.1968C31.8439 30.1968 37.3759 31.8315 37.3759 34.8621V42.3266C37.3759 45.3571 31.8439 46.9919 26.6398 46.9919C21.4358 46.9919 15.9038 45.3571 15.9038 42.3266V34.8621C15.9038 31.8315 21.4358 30.1968 26.6398 30.1968ZM35.4239 41.3543V42.3266C35.4239 43.4668 32.002 45.1258 26.6398 45.1258C21.2776 45.1258 17.8557 43.4668 17.8557 42.3266V41.3543C19.9268 42.6028 23.3468 43.2596 26.6398 43.2596C29.9329 43.2596 33.3528 42.6028 35.4239 41.3543ZM35.4239 38.5943V37.6221C33.3528 38.8705 29.9329 39.5274 26.6398 39.5274C23.3468 39.5274 19.9268 38.8705 17.8557 37.6221V38.5943C17.8557 39.7345 21.2776 41.3936 26.6398 41.3936C32.002 41.3936 35.4239 39.7345 35.4239 38.5943ZM35.4239 34.8621C35.4239 36.0023 32.002 37.6613 26.6398 37.6613C21.2776 37.6613 17.8557 36.0023 17.8557 34.8621C17.8557 33.7219 21.2776 32.0629 26.6398 32.0629C32.002 32.0629 35.4239 33.7219 35.4239 34.8621Z" fill="#151515"/>
</svg>
