<svg width="64" height="65" viewBox="0 0 64 65" fill="none" xmlns="http://www.w3.org/2000/svg">
<path d="M63.682 45.276V19.3691C63.6848 16.6644 62.0788 14.1666 59.4759 12.8275L36.3818 0.975304C33.8508 -0.325096 30.748 -0.325096 28.217 0.975304L5.12542 12.8275C2.5236 14.1669 0.918211 16.664 0.920543 19.368V45.2749C0.917758 47.9457 2.48316 50.4178 5.03388 51.7706L28.118 63.9781C30.6965 65.3406 33.8888 65.3406 36.4672 63.9781L59.5662 51.7706C62.1184 50.4184 63.6843 47.9467 63.682 45.276Z" fill="#FAFAFA"/>
<path fill-rule="evenodd" clip-rule="evenodd" d="M47.6056 17.7255C47.9325 17.813 48.1907 18.0567 48.2823 18.3724C49.2368 21.613 49.2891 25.0537 48.4261 28.3193C47.5696 31.5787 45.8241 34.5756 43.3724 37.0007C43.2645 37.1069 43.2188 37.2538 43.2416 37.3975C43.4116 38.4663 43.3495 39.5601 43.0619 40.6069C42.6925 41.9476 41.9504 43.1788 40.9207 44.1632C39.3288 45.6851 37.2138 46.4695 35.0825 46.4695C33.4873 46.4695 31.8823 46.0289 30.4865 45.1289C29.97 44.7976 29.9046 44.0945 30.3525 43.6788C30.3945 43.6387 30.4328 43.603 30.4683 43.5698C30.4991 43.5411 30.5278 43.5143 30.5551 43.4882C30.8076 43.2469 31.0518 42.9978 31.2874 42.7413C30.5322 42.8288 29.7706 42.8726 29.009 42.8788C28.8194 42.8788 28.6363 42.8288 28.4794 42.7351C27.2045 41.9695 26.0147 41.0601 24.9392 40.0319C23.8637 39.0069 22.9125 37.8663 22.1116 36.6475C22.0136 36.4944 21.9612 36.3194 21.9612 36.1413C21.9678 35.4131 22.0136 34.685 22.1051 33.9631C21.837 34.1881 21.5755 34.4225 21.3238 34.6631C21.2993 34.6866 21.2756 34.71 21.2519 34.7334L21.2519 34.7335C21.2282 34.7569 21.2045 34.7803 21.18 34.8038C20.7322 35.2444 19.9672 35.16 19.6371 34.6319C18.7054 33.1506 18.3099 31.385 18.5191 29.66C18.7349 27.8818 19.5521 26.2693 20.8792 25.0006C22.6543 23.3068 25.119 22.4849 27.5903 22.738C27.6949 22.7505 27.7962 22.713 27.8681 22.6443C30.4473 20.1786 33.6736 18.4255 37.1942 17.5817C40.6135 16.7598 44.2125 16.8099 47.6056 17.7255ZM41.7478 35.9132C44.0752 33.685 45.7293 30.9038 46.5269 27.8662C47.2329 25.1787 47.2591 22.3662 46.6053 19.6755C46.5628 19.5005 46.4223 19.3661 46.2392 19.3255C43.4247 18.7005 40.4794 18.7255 37.6715 19.4005C34.4941 20.163 31.5848 21.7411 29.2541 23.9693C29.1103 24.1068 28.9665 24.2506 28.8194 24.4006C28.5905 24.6381 28.2473 24.7443 27.9172 24.6818C25.861 24.2974 23.7493 24.9131 22.2685 26.3287C21.2585 27.2975 20.6341 28.5225 20.4707 29.8787C20.3791 30.6287 20.438 31.3881 20.6374 32.1131C20.6995 32.335 20.9806 32.4225 21.1637 32.2756C21.7488 31.81 22.3633 31.3819 23.0008 30.9944C23.7493 30.5381 24.694 31.1913 24.4783 32.0131C24.1579 33.2288 23.9749 34.4788 23.9357 35.7351C23.9324 35.8319 23.9618 35.9257 24.0174 36.0069C24.6908 36.9757 25.4655 37.882 26.3317 38.7101C27.198 39.5382 28.146 40.282 29.1593 40.9226C29.2443 40.9757 29.3424 41.0039 29.4437 41.0007C30.7578 40.9601 32.0654 40.7882 33.3369 40.482C34.1967 40.2757 34.8766 41.1789 34.4026 41.8945C33.9646 42.557 33.4742 43.1914 32.9414 43.7914C32.791 43.9601 32.8695 44.2164 33.0885 44.2883C35.3048 45.0008 37.8218 44.4852 39.5413 42.8414C40.3258 42.0883 40.8913 41.1539 41.1724 40.132C41.4438 39.1413 41.447 38.0913 41.1822 37.0976C41.094 36.7694 41.1986 36.4226 41.4536 36.1882L41.4732 36.17C41.5704 36.08 41.662 35.9952 41.7478 35.9132ZM16.4956 43.6883C16.878 44.0539 17.5024 44.0539 17.8816 43.6883L20.9315 40.7726C21.314 40.407 21.314 39.8101 20.9315 39.4476C20.5491 39.0819 19.9247 39.0819 19.5455 39.4476L16.4956 42.3632C16.1164 42.7289 16.1164 43.3258 16.4956 43.6883ZM21.8599 41.657C22.2391 41.2913 22.8634 41.2913 23.2459 41.657C23.6283 42.0195 23.6283 42.6164 23.2459 42.982L17.2377 48.7258C16.8585 49.0914 16.2341 49.0914 15.8517 48.7258C15.4692 48.3633 15.4692 47.7664 15.8517 47.4008L21.8599 41.657ZM25.557 43.8664C25.1746 43.5008 24.5502 43.5008 24.171 43.8664L21.1211 46.782C20.7386 47.1476 20.7386 47.7445 21.1211 48.107C21.5035 48.4726 22.1279 48.4726 22.5071 48.107L25.557 45.1914C25.9395 44.8258 25.9395 44.232 25.557 43.8664ZM33.6768 25.6756C30.2151 25.6756 27.4006 28.3662 27.4006 31.6756C27.4006 34.985 30.2151 37.6757 33.6768 37.6757C37.1385 37.6757 39.953 34.985 39.953 31.6756C39.953 28.3662 37.1385 25.6756 33.6768 25.6756ZM33.6769 35.8007C31.2972 35.8007 29.3621 33.9507 29.3621 31.6756C29.3621 29.4006 31.2972 27.5506 33.6769 27.5506C36.0567 27.5506 37.9918 29.4006 37.9918 31.6756C37.9918 33.9507 36.0567 35.8007 33.6769 35.8007Z" fill="#151515"/>
</svg>
