<svg width="64" height="65" viewBox="0 0 64 65" fill="none" xmlns="http://www.w3.org/2000/svg">
<path opacity="0.1" fill-rule="evenodd" clip-rule="evenodd" d="M59.2732 13.1747L59.2745 13.1758C61.8255 14.5225 63.3914 16.9842 63.389 19.6441V45.4462C63.3918 48.1399 61.7858 50.6275 59.1829 51.9612L36.0889 63.7655C33.5579 65.0606 30.4551 65.0606 27.9241 63.7655L4.83256 51.9612C2.23074 50.6273 0.625357 48.1403 0.627689 45.4473V19.6452C0.624904 16.9852 2.1903 14.5232 4.74102 13.1758L27.8251 1.01781C30.4036 -0.339269 33.5958 -0.339269 36.1743 1.01781L59.2732 13.1758V13.1747Z" fill="black" fill-opacity="0.2"/>
<path fill-rule="evenodd" clip-rule="evenodd" d="M47.3401 45.4963C47.0284 45.0492 46.5607 44.9001 46.093 44.9001H33.9336L45.4695 33.8718C46.5607 32.9776 47.1842 31.4873 47.1842 30.146C47.1842 28.8048 46.5607 27.4635 45.4695 26.4203L38.2985 19.5648C36.116 17.4784 32.5306 17.4784 30.3481 19.5648L18.3446 31.0402C16.318 33.1267 16.318 36.5544 18.3446 38.6408L25.0478 44.9001H17.4092C16.7857 44.9001 16.318 45.4963 16.318 46.0924C16.318 46.8375 16.7857 47.2846 17.4092 47.4337H46.093C46.5607 47.4337 47.0284 47.2846 47.3401 46.8375C47.6519 46.3904 47.6519 45.9433 47.3401 45.4963ZM29.4129 44.6021C28.6334 44.6021 27.854 44.3041 27.2304 43.7079L20.0595 36.8525C19.4359 36.2564 19.1241 35.5112 19.1241 34.766C19.1241 34.0209 19.4359 33.2757 20.0595 32.6796L32.2189 21.2042C32.8424 20.6081 33.6219 20.31 34.4013 20.31C35.1808 20.31 35.9602 20.6081 36.4279 21.2042L43.5988 28.0596C44.2224 28.6558 44.5342 29.4009 44.5342 30.1461C44.5342 30.8912 44.2224 31.6364 43.5988 32.2325L31.5953 43.7079C30.9718 44.3041 30.1923 44.6021 29.4129 44.6021ZM30.5041 35.6602L36.7397 29.699C37.2073 29.2519 38.1427 29.2519 38.6103 29.699C38.9221 29.997 39.078 30.2951 39.078 30.5932C39.078 30.8912 38.9221 31.1893 38.6103 31.4873L31.4394 38.3427C31.3615 38.3427 31.2835 38.38 31.2056 38.4173C31.1277 38.4545 31.0497 38.4918 30.9718 38.4918C30.8159 38.6408 30.66 38.6408 30.5041 38.6408C30.1923 38.6408 29.8805 38.4918 29.5688 38.1937L25.2039 34.1699C24.8921 33.8718 24.7362 33.5738 24.7362 33.2757C24.7362 32.9776 24.8921 32.6796 25.2039 32.3815C25.6715 31.9344 26.6069 31.9344 27.0745 32.3815L30.5041 35.6602Z" fill="#151515"/>
<path d="M47.3401 45.4963L47.2581 45.5534L47.3401 45.4963ZM33.9336 44.9001L33.8645 44.8278L33.6843 45.0001H33.9336V44.9001ZM45.4695 33.8718L45.4059 33.7942L45.4004 33.7995L45.4695 33.8718ZM45.4695 26.4203L45.5386 26.348L45.4695 26.4203ZM38.2985 19.5648L38.3676 19.4925L38.2985 19.5648ZM30.3481 19.5648L30.279 19.4925L30.3481 19.5648ZM18.3446 31.0402L18.2754 30.9679L18.2728 30.9706L18.3446 31.0402ZM18.3446 38.6408L18.2727 38.7106L18.2763 38.7139L18.3446 38.6408ZM25.0478 44.9001V45.0001H25.3015L25.1161 44.827L25.0478 44.9001ZM17.4092 47.4337L17.386 47.5309L17.3974 47.5337H17.4092V47.4337ZM47.3401 46.8375L47.2581 46.7803L47.3401 46.8375ZM27.2304 43.7079L27.2995 43.6356H27.2995L27.2304 43.7079ZM20.0595 36.8525L20.1286 36.7802L20.0595 36.8525ZM20.0595 32.6796L19.9908 32.6069L19.9904 32.6073L20.0595 32.6796ZM32.2189 21.2042L32.2875 21.2769L32.288 21.2765L32.2189 21.2042ZM36.4279 21.2042L36.3492 21.2659L36.3536 21.2715L36.3588 21.2765L36.4279 21.2042ZM43.5988 28.0596L43.5297 28.1319L43.5988 28.0596ZM43.5988 32.2325L43.5297 32.1602L43.5988 32.2325ZM31.5953 43.7079L31.5262 43.6356H31.5262L31.5953 43.7079ZM36.7397 29.699L36.6706 29.6267L36.7397 29.699ZM30.5041 35.6602L30.435 35.7325L30.5041 35.7985L30.5732 35.7325L30.5041 35.6602ZM38.6103 29.699L38.6794 29.6267L38.6103 29.699ZM38.6103 31.4873L38.6794 31.5596L38.6103 31.4873ZM31.4394 38.3427V38.4427H31.4795L31.5085 38.415L31.4394 38.3427ZM30.9718 38.4918V38.3918H30.9317L30.9027 38.4195L30.9718 38.4918ZM29.5688 38.1937L29.6379 38.1214L29.6365 38.1202L29.5688 38.1937ZM25.2039 34.1699L25.1348 34.2422L25.1361 34.2434L25.2039 34.1699ZM25.2039 32.3815L25.273 32.4538H25.273L25.2039 32.3815ZM27.0745 32.3815L27.0054 32.4538H27.0054L27.0745 32.3815ZM46.093 45.0001C46.5394 45.0001 46.9707 45.1413 47.2581 45.5534L47.4222 45.4391C47.086 44.957 46.582 44.8001 46.093 44.8001V45.0001ZM33.9336 45.0001H46.093V44.8001H33.9336V45.0001ZM45.4004 33.7995L33.8645 44.8278L34.0027 44.9724L45.5386 33.9441L45.4004 33.7995ZM47.0842 30.146C47.0842 31.4605 46.4718 32.9212 45.4061 33.7945L45.5328 33.9492C46.6496 33.0341 47.2842 31.5142 47.2842 30.146H47.0842ZM45.4004 26.4925C46.4749 27.5198 47.0842 28.836 47.0842 30.146H47.2842C47.2842 28.7735 46.6464 27.4071 45.5386 26.348L45.4004 26.4925ZM38.2294 19.6371L45.4004 26.4925L45.5386 26.348L38.3676 19.4925L38.2294 19.6371ZM30.4172 19.6371C32.561 17.5876 36.0856 17.5876 38.2294 19.6371L38.3676 19.4925C36.1465 17.3692 32.5001 17.3692 30.279 19.4925L30.4172 19.6371ZM18.4137 31.1125L30.4172 19.6371L30.279 19.4925L18.2755 30.9679L18.4137 31.1125ZM18.4163 38.5711C16.4274 36.5235 16.4274 33.1575 18.4163 31.1099L18.2728 30.9706C16.2086 33.0958 16.2086 36.5853 18.2728 38.7105L18.4163 38.5711ZM25.1161 44.827L18.4128 38.5677L18.2763 38.7139L24.9796 44.9732L25.1161 44.827ZM17.4092 45.0001H25.0478V44.8001H17.4092V45.0001ZM16.418 46.0924C16.418 45.5381 16.8533 45.0001 17.4092 45.0001V44.8001C16.718 44.8001 16.218 45.4544 16.218 46.0924H16.418ZM17.4325 47.3364C17.1368 47.2657 16.8838 47.1258 16.7052 46.9209C16.5274 46.7169 16.418 46.4427 16.418 46.0924H16.218C16.218 46.4872 16.3424 46.8091 16.5544 47.0523C16.7655 47.2944 17.0581 47.4525 17.386 47.5309L17.4325 47.3364ZM46.093 47.3337H17.4092V47.5337H46.093V47.3337ZM47.2581 46.7803C46.9707 47.1924 46.5394 47.3337 46.093 47.3337V47.5337C46.582 47.5337 47.086 47.3768 47.4222 46.8947L47.2581 46.7803ZM47.2581 45.5534C47.4049 45.7639 47.474 45.9679 47.474 46.1669C47.474 46.3659 47.4049 46.5698 47.2581 46.7803L47.4222 46.8947C47.5872 46.6581 47.674 46.415 47.674 46.1669C47.674 45.9188 47.5872 45.6756 47.4222 45.4391L47.2581 45.5534ZM27.1613 43.7802C27.8034 44.394 28.6075 44.7021 29.4129 44.7021V44.5021C28.6593 44.5021 27.9046 44.2141 27.2995 43.6356L27.1613 43.7802ZM19.9904 36.9248L27.1613 43.7802L27.2995 43.6356L20.1286 36.7802L19.9904 36.9248ZM19.0241 34.766C19.0241 35.5401 19.3482 36.3109 19.9904 36.9248L20.1286 36.7802C19.5236 36.2018 19.2241 35.4823 19.2241 34.766H19.0241ZM19.9904 32.6073C19.3482 33.2212 19.0241 33.992 19.0241 34.766H19.2241C19.2241 34.0498 19.5236 33.3303 20.1286 32.7519L19.9904 32.6073ZM32.1503 21.1315L19.9908 32.6069L20.1281 32.7523L32.2875 21.2769L32.1503 21.1315ZM34.4013 20.21C33.596 20.21 32.7918 20.5181 32.1498 21.1319L32.288 21.2765C32.8931 20.698 33.6478 20.41 34.4013 20.41V20.21ZM36.5066 21.1425C36.0155 20.5165 35.2035 20.21 34.4013 20.21V20.41C35.158 20.41 35.9049 20.6996 36.3492 21.2659L36.5066 21.1425ZM43.6679 27.9873L36.497 21.1319L36.3588 21.2765L43.5297 28.1319L43.6679 27.9873ZM44.6342 30.1461C44.6342 29.372 44.3101 28.6012 43.6679 27.9873L43.5297 28.1319C44.1347 28.7103 44.4342 29.4298 44.4342 30.1461H44.6342ZM43.6679 32.3048C44.3101 31.6909 44.6342 30.9201 44.6342 30.1461H44.4342C44.4342 30.8624 44.1347 31.5819 43.5297 32.1602L43.6679 32.3048ZM31.6644 43.7802L43.6679 32.3048L43.5297 32.1602L31.5262 43.6356L31.6644 43.7802ZM29.4129 44.7021C30.2182 44.7021 31.0224 44.394 31.6644 43.7802L31.5262 43.6356C30.9211 44.2141 30.1664 44.5021 29.4129 44.5021V44.7021ZM36.6706 29.6267L30.435 35.5879L30.5732 35.7325L36.8088 29.7712L36.6706 29.6267ZM38.6794 29.6267C38.4224 29.381 38.0444 29.2636 37.675 29.2636C37.3056 29.2636 36.9276 29.381 36.6706 29.6267L36.8088 29.7712C37.0194 29.5699 37.3429 29.4636 37.675 29.4636C38.0071 29.4636 38.3306 29.5699 38.5412 29.7712L38.6794 29.6267ZM39.178 30.5932C39.178 30.2575 39.002 29.9351 38.6794 29.6267L38.5412 29.7712C38.8422 30.059 38.978 30.3327 38.978 30.5932H39.178ZM38.6794 31.5596C39.002 31.2512 39.178 30.9288 39.178 30.5932H38.978C38.978 30.8537 38.8422 31.1273 38.5412 31.4151L38.6794 31.5596ZM31.5085 38.415L38.6794 31.5596L38.5412 31.4151L31.3703 38.2705L31.5085 38.415ZM31.2487 38.5075C31.3321 38.4676 31.3885 38.4427 31.4394 38.4427V38.2427C31.3345 38.2427 31.235 38.2924 31.1625 38.327L31.2487 38.5075ZM30.9718 38.5918C31.0768 38.5918 31.1762 38.5421 31.2487 38.5075L31.1625 38.327C31.0791 38.3669 31.0227 38.3918 30.9718 38.3918V38.5918ZM30.5041 38.7408C30.6609 38.7408 30.854 38.7427 31.0409 38.5641L30.9027 38.4195C30.7778 38.5389 30.6591 38.5408 30.5041 38.5408V38.7408ZM29.4997 38.266C29.8228 38.5749 30.1581 38.7408 30.5041 38.7408V38.5408C30.2266 38.5408 29.9383 38.4086 29.6379 38.1214L29.4997 38.266ZM25.1361 34.2434L29.501 38.2672L29.6365 38.1202L25.2717 34.0964L25.1361 34.2434ZM24.6362 33.2757C24.6362 33.6113 24.8122 33.9338 25.1348 34.2422L25.273 34.0976C24.972 33.8099 24.8362 33.5362 24.8362 33.2757H24.6362ZM25.1348 32.3092C24.8122 32.6177 24.6362 32.9401 24.6362 33.2757H24.8362C24.8362 33.0152 24.972 32.7415 25.273 32.4538L25.1348 32.3092ZM27.1436 32.3092C26.8866 32.0635 26.5086 31.9462 26.1392 31.9462C25.7698 31.9462 25.3918 32.0635 25.1348 32.3092L25.273 32.4538C25.4836 32.2524 25.8071 32.1462 26.1392 32.1462C26.4713 32.1462 26.7948 32.2524 27.0054 32.4538L27.1436 32.3092ZM30.5732 35.5879L27.1436 32.3092L27.0054 32.4538L30.435 35.7325L30.5732 35.5879Z" fill="#FAFAFA"/>
</svg>
