<svg width="64" height="65" viewBox="0 0 64 65" fill="none" xmlns="http://www.w3.org/2000/svg">
<path opacity="0.1" d="M58.9805 51.7718L58.9817 51.7706C61.5327 50.4184 63.0986 47.9467 63.0963 45.276V19.3691C63.0991 16.6644 61.4931 14.1666 58.8902 12.8275L35.7961 0.975304C33.265 -0.325096 30.1623 -0.325096 27.6312 0.975304L4.53961 12.8275C1.93778 14.1669 0.332388 16.664 0.334721 19.368V45.2749C0.331935 47.9457 1.89734 50.4178 4.44806 51.7706L27.5323 63.9781C30.1107 65.3406 33.303 65.3406 35.8814 63.9781L58.9805 51.7706V51.7718Z" fill="black" fill-opacity="0.2"/>
<path fill-rule="evenodd" clip-rule="evenodd" d="M35.9655 47.9661C36.2102 48.49 36.7387 48.8222 37.3162 48.8222C37.326 48.8222 37.3406 48.8222 37.3455 48.8082C37.9132 48.7988 38.3977 48.4713 38.6081 47.9614L40.1839 44.186L44.1772 45.5614C44.7204 45.7438 45.2929 45.6129 45.6795 45.2152C46.0808 44.8035 46.1787 44.1906 45.9242 43.6573L42.598 36.6608C44.148 34.6182 45.0629 32.108 45.0629 29.3977C45.0629 22.5626 39.2442 17 32.0945 17C24.9448 17 19.1262 22.5626 19.1262 29.3977C19.1262 32.1061 20.0399 34.6148 21.5879 36.6567L18.2551 43.6713C18.0056 44.2047 18.0985 44.8175 18.4998 45.2292C18.8864 45.6269 19.459 45.7626 20.0022 45.5754L24.0053 44.2047L25.5713 47.9754C25.7718 48.4776 26.2716 48.8128 26.8339 48.8222H26.8681C27.4456 48.8222 27.9692 48.49 28.209 47.9801L31.2355 41.7685C31.5195 41.7863 31.8059 41.7954 32.0945 41.7954C32.3807 41.7954 32.6648 41.7865 32.9464 41.7689L35.9655 47.9661ZM34.9709 41.4879C37.3609 40.9684 39.5023 39.8157 41.191 38.225L43.6486 43.3953L40.8494 42.4316C39.8315 42.0807 38.7598 42.5439 38.3585 43.5076L37.2526 46.1743L34.9709 41.4879ZM29.2116 41.4865L26.9269 46.1789L25.8209 43.5123C25.4196 42.5532 24.3479 42.09 23.33 42.4409L20.5307 43.4047L22.9944 38.2216C24.6822 39.8126 26.8225 40.9659 29.2116 41.4865ZM26.4749 47.2131C26.4749 47.2185 26.4749 47.2216 26.4739 47.2244C26.4725 47.2282 26.4693 47.2313 26.4615 47.2387L26.4749 47.2131ZM37.7708 47.2078L37.7842 47.2206C37.7842 47.2206 37.7842 47.2078 37.7708 47.2078ZM32.0945 18.8667C26.0214 18.8667 21.0837 23.5918 21.0837 29.393C21.0837 35.1942 26.0263 39.9193 32.0945 39.9193C38.1626 39.9193 43.1052 35.1942 43.1052 29.393C43.1052 23.5918 38.1626 18.8667 32.0945 18.8667Z" fill="#151515"/>
<path d="M35.9655 47.9661L36.1453 47.8785L36.1467 47.8814L35.9655 47.9661ZM37.3455 48.8082L37.1567 48.7423L37.2027 48.6105L37.3422 48.6082L37.3455 48.8082ZM38.6081 47.9614L38.4232 47.8851L38.4235 47.8844L38.6081 47.9614ZM40.1839 44.186L39.9993 44.1089L40.0716 43.9357L40.249 43.9969L40.1839 44.186ZM44.1772 45.5614L44.1135 45.751L44.112 45.7505L44.1772 45.5614ZM45.6795 45.2152L45.5361 45.0758L45.5363 45.0756L45.6795 45.2152ZM45.9242 43.6573L45.7437 43.7434L45.7436 43.7432L45.9242 43.6573ZM42.598 36.6608L42.4174 36.7467L42.3652 36.6368L42.4387 36.5399L42.598 36.6608ZM21.5879 36.6567L21.7473 36.5359L21.8207 36.6327L21.7685 36.7425L21.5879 36.6567ZM18.2551 43.6713L18.074 43.5866L18.0745 43.5855L18.2551 43.6713ZM18.4998 45.2292L18.6431 45.0896L18.6432 45.0898L18.4998 45.2292ZM20.0022 45.5754L19.9371 45.3863L19.9374 45.3862L20.0022 45.5754ZM24.0053 44.2047L23.9405 44.0154L24.118 43.9547L24.19 44.128L24.0053 44.2047ZM25.5713 47.9754L25.756 47.8987L25.757 47.9013L25.5713 47.9754ZM26.8339 48.8222V49.0222L26.8306 49.0222L26.8339 48.8222ZM28.209 47.9801L28.028 47.895L28.0292 47.8925L28.209 47.9801ZM31.2355 41.7685L31.0557 41.6809L31.1144 41.5605L31.248 41.5689L31.2355 41.7685ZM32.9464 41.7689L32.934 41.5693L33.0676 41.561L33.1262 41.6813L32.9464 41.7689ZM34.9709 41.4879L34.791 41.5755L34.6796 41.3466L34.9284 41.2925L34.9709 41.4879ZM41.191 38.225L41.0539 38.0794L41.2538 37.8911L41.3717 38.1391L41.191 38.225ZM43.6486 43.3953L43.8293 43.3095L44.0336 43.7394L43.5835 43.5844L43.6486 43.3953ZM40.8494 42.4316L40.7843 42.6207L40.7843 42.6207L40.8494 42.4316ZM38.3585 43.5076L38.1738 43.431L38.1739 43.4307L38.3585 43.5076ZM37.2526 46.1743L37.4373 46.2509L37.2672 46.6611L37.0727 46.2618L37.2526 46.1743ZM29.2116 41.4865L29.2541 41.2911L29.5028 41.3453L29.3914 41.574L29.2116 41.4865ZM26.9269 46.1789L27.1067 46.2665L26.9123 46.6658L26.7421 46.2555L26.9269 46.1789ZM25.8209 43.5123L26.0054 43.4351L26.0056 43.4356L25.8209 43.5123ZM23.33 42.4409L23.3951 42.63L23.3951 42.63L23.33 42.4409ZM20.5307 43.4047L20.5958 43.5938L20.1457 43.7487L20.3501 43.3188L20.5307 43.4047ZM22.9944 38.2216L22.8138 38.1357L22.9317 37.8876L23.1316 38.076L22.9944 38.2216ZM26.4739 47.2244L26.662 47.2922L26.662 47.2923L26.4739 47.2244ZM26.4749 47.2131L26.2977 47.1204L26.6749 47.2131H26.4749ZM26.4615 47.2387L26.5997 47.3833L26.2843 47.146L26.4615 47.2387ZM37.7708 47.2078L37.6327 47.3524L37.2721 47.0078H37.7708V47.2078ZM37.7842 47.2206H37.9842V47.6884L37.646 47.3652L37.7842 47.2206ZM37.3162 49.0222C36.662 49.0222 36.0623 48.6459 35.7843 48.0507L36.1467 47.8814C36.3581 48.3341 36.8154 48.6222 37.3162 48.6222V49.0222ZM37.5344 48.874C37.507 48.9524 37.4456 48.9944 37.3934 49.011C37.371 49.0182 37.3516 49.0205 37.3397 49.0214C37.328 49.0223 37.3177 49.0222 37.3162 49.0222V48.6222C37.3263 48.6222 37.301 48.6207 37.272 48.6299C37.2544 48.6355 37.2305 48.6462 37.2073 48.6669C37.1831 48.6884 37.1662 48.715 37.1567 48.7423L37.5344 48.874ZM38.793 48.0377C38.5514 48.6232 37.9943 48.9975 37.3488 49.0081L37.3422 48.6082C37.8321 48.6001 38.244 48.3195 38.4232 47.8851L38.793 48.0377ZM40.3685 44.263L38.7927 48.0384L38.4235 47.8844L39.9993 44.1089L40.3685 44.263ZM44.112 45.7505L40.1188 44.3751L40.249 43.9969L44.2423 45.3723L44.112 45.7505ZM45.8229 45.3546C45.3802 45.81 44.7261 45.9568 44.1135 45.751L44.2408 45.3718C44.7146 45.5309 45.2057 45.4157 45.5361 45.0758L45.8229 45.3546ZM46.1047 43.5712C46.3943 44.178 46.2841 44.8814 45.8228 45.3548L45.5363 45.0756C45.8775 44.7256 45.9631 44.2033 45.7437 43.7434L46.1047 43.5712ZM42.7787 36.575L46.1048 43.5714L45.7436 43.7432L42.4174 36.7467L42.7787 36.575ZM42.4387 36.5399C43.9637 34.5302 44.8629 32.062 44.8629 29.3977H45.2629C45.2629 32.154 44.3323 34.7062 42.7574 36.7817L42.4387 36.5399ZM44.8629 29.3977C44.8629 22.6814 39.1424 17.2 32.0945 17.2V16.8C39.3461 16.8 45.2629 22.4438 45.2629 29.3977H44.8629ZM32.0945 17.2C25.0467 17.2 19.3262 22.6814 19.3262 29.3977H18.9262C18.9262 22.4438 24.843 16.8 32.0945 16.8V17.2ZM19.3262 29.3977C19.3262 32.0602 20.2241 34.5268 21.7473 36.5359L21.4285 36.7775C19.8556 34.7027 18.9262 32.1521 18.9262 29.3977H19.3262ZM21.7685 36.7425L18.4358 43.7572L18.0745 43.5855L21.4073 36.5709L21.7685 36.7425ZM18.4363 43.7561C18.2202 44.2179 18.3028 44.7406 18.6431 45.0896L18.3566 45.3688C17.8943 44.8945 17.791 44.1914 18.074 43.5866L18.4363 43.7561ZM18.6432 45.0898C18.9746 45.4306 19.4654 45.5488 19.9371 45.3863L20.0674 45.7645C19.4526 45.9763 18.7983 45.8231 18.3564 45.3686L18.6432 45.0898ZM19.9374 45.3862L23.9405 44.0154L24.0701 44.3939L20.067 45.7646L19.9374 45.3862ZM24.19 44.128L25.756 47.8987L25.3866 48.0521L23.8206 44.2814L24.19 44.128ZM25.757 47.9013C25.9262 48.3248 26.3514 48.6141 26.8372 48.6222L26.8306 49.0222C26.1919 49.0115 25.6175 48.6305 25.3856 48.0496L25.757 47.9013ZM26.8339 48.6222H26.8681V49.0222H26.8339V48.6222ZM26.8681 48.6222C27.3692 48.6222 27.8217 48.3338 28.028 47.895L28.39 48.0652C28.1168 48.6463 27.522 49.0222 26.8681 49.0222V48.6222ZM28.0292 47.8925L31.0557 41.6809L31.4153 41.8561L28.3888 48.0677L28.0292 47.8925ZM31.248 41.5689C31.5278 41.5864 31.8101 41.5954 32.0945 41.5954V41.9954C31.8017 41.9954 31.5111 41.9862 31.2229 41.9681L31.248 41.5689ZM32.0945 41.5954C32.3766 41.5954 32.6565 41.5866 32.934 41.5693L32.9589 41.9685C32.6731 41.9863 32.3849 41.9954 32.0945 41.9954V41.5954ZM35.7857 48.0537L32.7666 41.8565L33.1262 41.6813L36.1453 47.8785L35.7857 48.0537ZM34.9284 41.2925C37.2826 40.7807 39.3913 39.6454 41.0539 38.0794L41.3282 38.3706C39.6132 39.986 37.4391 41.156 35.0133 41.6834L34.9284 41.2925ZM43.468 43.4812L41.0104 38.3109L41.3717 38.1391L43.8293 43.3095L43.468 43.4812ZM40.9145 42.2425L43.7137 43.2062L43.5835 43.5844L40.7843 42.6207L40.9145 42.2425ZM38.1739 43.4307C38.6178 42.3647 39.8019 41.8589 40.9146 42.2425L40.7843 42.6207C39.8612 42.3025 38.9019 42.723 38.5432 43.5845L38.1739 43.4307ZM37.0678 46.0976L38.1738 43.431L38.5433 43.5842L37.4373 46.2509L37.0678 46.0976ZM35.1507 41.4004L37.4324 46.0867L37.0727 46.2618L34.791 41.5755L35.1507 41.4004ZM29.3914 41.574L27.1067 46.2665L26.747 46.0914L29.0317 41.3989L29.3914 41.574ZM26.7421 46.2555L25.6361 43.5889L26.0056 43.4356L27.1116 46.1023L26.7421 46.2555ZM25.6364 43.5895C25.2778 42.7326 24.3184 42.3117 23.3951 42.63L23.2648 42.2518C24.3773 41.8683 25.5613 42.3738 26.0054 43.4351L25.6364 43.5895ZM23.3951 42.63L20.5958 43.5938L20.4656 43.2156L23.2649 42.2518L23.3951 42.63ZM20.3501 43.3188L22.8138 38.1357L23.1751 38.3074L20.7114 43.4905L20.3501 43.3188ZM23.1316 38.076C24.7932 39.6423 26.9009 40.7782 29.2541 41.2911L29.169 41.6819C26.7442 41.1535 24.5712 39.9828 22.8572 38.3671L23.1316 38.076ZM26.2858 47.1565C26.2778 47.1786 26.2759 47.197 26.2752 47.2059C26.275 47.2101 26.2749 47.2132 26.2749 47.2139C26.2749 47.2145 26.2749 47.2148 26.2749 47.2131H26.6749C26.6749 47.2134 26.675 47.2233 26.6743 47.2335C26.6734 47.246 26.671 47.2674 26.662 47.2922L26.2858 47.1565ZM26.3233 47.0941C26.3244 47.0931 26.325 47.0925 26.3256 47.0919C26.3262 47.0914 26.3263 47.0912 26.3263 47.0912C26.3263 47.0912 26.3258 47.0917 26.325 47.0925C26.3243 47.0933 26.3229 47.0947 26.3212 47.0966C26.3147 47.1039 26.2974 47.1244 26.2858 47.1564L26.662 47.2923C26.6491 47.3282 26.6294 47.3521 26.619 47.3637C26.6106 47.373 26.6011 47.3819 26.5997 47.3833L26.3233 47.0941ZM26.6521 47.3058L26.6387 47.3314L26.2843 47.146L26.2977 47.1204L26.6521 47.3058ZM37.909 47.0632L37.9224 47.076L37.646 47.3652L37.6327 47.3524L37.909 47.0632ZM37.7842 47.2206C37.5842 47.2206 37.5842 47.2207 37.5842 47.2208C37.5842 47.2208 37.5842 47.2209 37.5842 47.221C37.5842 47.2211 37.5842 47.2213 37.5842 47.2214C37.5842 47.2217 37.5842 47.2219 37.5842 47.2222C37.5842 47.2228 37.5842 47.2233 37.5842 47.2239C37.5843 47.225 37.5843 47.2262 37.5843 47.2274C37.5844 47.2298 37.5846 47.2323 37.5848 47.2349C37.5851 47.2401 37.5858 47.2462 37.587 47.2529C37.5892 47.2655 37.5939 47.285 37.6053 47.3069C37.6173 47.3297 37.6378 47.3572 37.6711 47.3784C37.7052 47.4002 37.741 47.4078 37.7708 47.4078V47.0078C37.8074 47.0078 37.8482 47.017 37.886 47.0411C37.9231 47.0647 37.9462 47.0955 37.9598 47.1215C37.9729 47.1465 37.9784 47.1693 37.981 47.1842C37.9824 47.1921 37.9832 47.1992 37.9836 47.2051C37.9839 47.2081 37.984 47.2109 37.9841 47.2135C37.9841 47.2147 37.9842 47.216 37.9842 47.2172C37.9842 47.2178 37.9842 47.2183 37.9842 47.2189C37.9842 47.2192 37.9842 47.2195 37.9842 47.2197C37.9842 47.2199 37.9842 47.22 37.9842 47.2202C37.9842 47.2202 37.9842 47.2203 37.9842 47.2204C37.9842 47.2205 37.9842 47.2206 37.7842 47.2206ZM20.8837 29.393C20.8837 23.4731 25.9195 18.6667 32.0945 18.6667V19.0667C26.1234 19.0667 21.2837 23.7106 21.2837 29.393H20.8837ZM32.0945 40.1193C25.9245 40.1193 20.8837 35.313 20.8837 29.393H21.2837C21.2837 35.0753 26.1282 39.7193 32.0945 39.7193V40.1193ZM43.3052 29.393C43.3052 35.313 38.2645 40.1193 32.0945 40.1193V39.7193C38.0607 39.7193 42.9052 35.0753 42.9052 29.393H43.3052ZM32.0945 18.6667C38.2645 18.6667 43.3052 23.473 43.3052 29.393H42.9052C42.9052 23.7107 38.0607 19.0667 32.0945 19.0667V18.6667Z" fill="#151515"/>
</svg>
