<svg width="64" height="65" viewBox="0 0 64 65" fill="none" xmlns="http://www.w3.org/2000/svg">
<path opacity="0.1" fill-rule="evenodd" clip-rule="evenodd" d="M59.3947 13.1747L59.3959 13.1758C61.9469 14.5225 63.5128 16.9842 63.5105 19.6441V45.4462C63.5133 48.1399 61.9072 50.6275 59.3044 51.9612L36.2103 63.7655C33.6792 65.0606 30.5765 65.0606 28.0454 63.7655L4.95379 51.9612C2.35196 50.6273 0.746573 48.1403 0.748905 45.4473V19.6452C0.746119 16.9852 2.31152 14.5232 4.86225 13.1758L27.9465 1.01781C30.5249 -0.339269 33.7172 -0.339269 36.2956 1.01781L59.3947 13.1758V13.1747Z" fill="black" fill-opacity="0.2"/>
<path fill-rule="evenodd" clip-rule="evenodd" d="M40.5001 34.2639L49.297 38.5163C49.6741 38.6982 49.9121 39.0712 49.9121 39.479V43.269C49.9121 43.8638 49.4144 44.3452 48.7993 44.3452H44.9121V42.1927H47.6865V40.1443L38.3603 35.6365C38.0723 35.4978 37.8615 35.2445 37.78 34.9428C37.6996 34.6413 37.7583 34.3208 37.9409 34.0642L41.1282 29.5795V23.943C41.1282 21.2566 38.8798 19.1524 36.0098 19.1524C35.4393 19.1524 34.8828 19.2355 34.3547 19.3994L33.6744 17.35C34.4221 17.1177 35.2078 17 36.0098 17C40.1284 17 43.3538 20.05 43.3538 23.943V29.9138C43.3536 30.1314 43.2854 30.3439 43.1582 30.5234L40.5001 34.2639ZM41.853 41.1711L33.0548 36.9188L35.713 33.1782C35.8402 32.9987 35.9084 32.7862 35.9086 32.5686V26.5978C35.9086 22.7049 32.6832 19.6549 28.5644 19.6549C24.4457 19.6549 21.2203 22.7049 21.2203 26.5978V32.5686C21.2201 32.7921 21.2921 33.01 21.4262 33.1919L24.1604 36.9103L14.9792 41.1627C14.5931 41.3421 14.3474 41.7196 14.3473 42.1339V45.9238C14.3473 46.5187 14.8455 47 15.4601 47H41.3552C41.9704 47 42.468 46.5187 42.468 45.9238V42.1339C42.4681 41.726 42.2301 41.353 41.853 41.1711ZM40.2424 44.8476H16.5729V42.8118L26.3138 38.2998C26.6103 38.1626 26.8287 37.9055 26.9104 37.5977C26.9932 37.2905 26.9307 36.9636 26.7398 36.7054L23.4459 32.2249V26.5978C23.4459 23.9115 25.6944 21.8073 28.5644 21.8073C31.4345 21.8073 33.6829 23.9114 33.6829 26.5978V32.2344L30.4956 36.719C30.313 36.9756 30.2543 37.2961 30.3347 37.5977C30.4162 37.8993 30.627 38.1526 30.9151 38.2913L40.2424 42.7991V44.8476L40.2424 44.8476Z" fill="#151515"/>
</svg>
