<svg width="160" height="197" viewBox="0 0 160 197" fill="none" xmlns="http://www.w3.org/2000/svg">
<g clip-path="url(#clip0)">
<mask id="mask0" mask-type="alpha" maskUnits="userSpaceOnUse" x="-1080" y="-8" width="1240" height="705">
<rect x="-1080" y="-8" width="1240" height="705" fill="white"/>
</mask>
<g mask="url(#mask0)">
<path opacity="0.03" fill-rule="evenodd" clip-rule="evenodd" d="M110.283 -29C125.275 -29 137.429 -16.8579 137.429 -1.88003C137.429 -1.23716 137.407 -0.599691 137.363 0.0321255C137.535 0.139721 137.705 0.255669 137.871 0.379969L190.851 39.9299L200.206 39.9302C211.138 39.9302 220 48.7837 220 59.7051V177.225C220 188.146 211.138 197 200.206 197H19.7943C8.86219 197 0 188.146 0 177.225V59.7049C0 48.7835 8.86219 39.9299 19.7943 39.9299L33.1077 39.9297L83.4628 2.33929C83.268 1.09136 83.16 -0.168592 83.1398 -1.43147L83.1362 -1.88003C83.1362 -16.8579 95.2902 -29 110.283 -29ZM174.633 132H46.3677L46.1936 132.002C42.2051 132.096 39 135.417 39 139.5C39 143.601 42.233 146.933 46.2458 146.999L46.3675 147H174.633L174.806 146.998C178.795 146.904 182 143.583 182 139.5C182 135.358 178.702 132 174.633 132ZM113.622 90H45.3781L45.2039 90.002C41.2098 90.0961 38 93.4171 38 97.5C38 101.601 41.2376 104.933 45.2562 104.999L45.3781 105H113.622L113.796 104.998C117.79 104.904 121 101.583 121 97.5C121 93.3579 117.697 90 113.622 90ZM167 41L132.621 15C127.652 21.7175 119.727 26.0652 110.797 26.0652C102.602 26.0652 95.2511 22.4023 90.2567 16.6059L58 41H167ZM110.5 -15C103.596 -15 98 -9.40366 98 -2.5C98 4.40366 103.596 10 110.5 10C117.404 10 123 4.40366 123 -2.5C123 -9.40366 117.404 -15 110.5 -15H110.5Z" fill="#C63127"/>
</g>
</g>
<defs>
<clipPath id="clip0">
<rect width="160" height="197" fill="white"/>
</clipPath>
</defs>
</svg>
